<?xml version="1.0" encoding="UTF-8" standalone="no"?>
<!DOCTYPE svg PUBLIC "-//W3C//DTD SVG 1.1//EN"
 "http://www.w3.org/Graphics/SVG/1.1/DTD/svg11.dtd">
<!-- Generated by graphviz version 2.40.1 (20161225.0304)
 -->
<!-- Title: access_tokens Pages: 1 -->
<svg width="594pt" height="622pt"
 viewBox="0.00 0.00 594.00 622.00" xmlns="http://www.w3.org/2000/svg" xmlns:xlink="http://www.w3.org/1999/xlink">
<g id="graph0" class="graph" transform="scale(1 1) rotate(0) translate(4 618)">
<title>access_tokens</title>
<polygon fill="#ffffff" stroke="transparent" points="-4,4 -4,-618 590,-618 590,4 -4,4"/>
<!-- access_tokens -->
<g id="node1" class="node">
<title>access_tokens</title>
<polygon fill="#efefef" stroke="transparent" points="46,-532.5 46,-567.5 276,-567.5 276,-532.5 46,-532.5"/>
<polygon fill="none" stroke="#000000" points="46,-532.5 46,-567.5 276,-567.5 276,-532.5 46,-532.5"/>
<text text-anchor="start" x="52.8534" y="-545.3" font-family="Arial Bold" font-size="18.00" fill="#000000">access_tokens</text>
<text text-anchor="start" x="171.8928" y="-545.3" font-family="Arial" font-size="14.00" fill="#000000"> </text>
<text text-anchor="start" x="175.7834" y="-545.3" font-family="Arial" font-size="14.00" fill="#666666">[BASE TABLE]</text>
<polygon fill="none" stroke="#000000" points="46,-502.5 46,-532.5 276,-532.5 276,-502.5 46,-502.5"/>
<text text-anchor="start" x="53" y="-513.9" font-family="Arial" font-size="14.00" fill="#000000">id </text>
<text text-anchor="start" x="67.7798" y="-513.9" font-family="Arial" font-size="14.00" fill="#666666">[varchar(36)]</text>
<polygon fill="none" stroke="#000000" points="46,-472.5 46,-502.5 276,-502.5 276,-472.5 46,-472.5"/>
<text text-anchor="start" x="53" y="-483.9" font-family="Arial" font-size="14.00" fill="#000000">product_key_id </text>
<text text-anchor="start" x="151.8092" y="-483.9" font-family="Arial" font-size="14.00" fill="#666666">[varchar(36)]</text>
<polygon fill="none" stroke="#000000" points="46,-442.5 46,-472.5 276,-472.5 276,-442.5 46,-442.5"/>
<text text-anchor="start" x="53" y="-453.9" font-family="Arial" font-size="14.00" fill="#000000">access_token </text>
<text text-anchor="start" x="142.4768" y="-453.9" font-family="Arial" font-size="14.00" fill="#666666">[varchar(64)]</text>
<polygon fill="none" stroke="#000000" points="46,-412.5 46,-442.5 276,-442.5 276,-412.5 46,-412.5"/>
<text text-anchor="start" x="53" y="-423.9" font-family="Arial" font-size="14.00" fill="#000000">expires_at </text>
<text text-anchor="start" x="121.4614" y="-423.9" font-family="Arial" font-size="14.00" fill="#666666">[datetime]</text>
<polygon fill="none" stroke="#000000" points="46,-382.5 46,-412.5 276,-412.5 276,-382.5 46,-382.5"/>
<text text-anchor="start" x="53" y="-393.9" font-family="Arial" font-size="14.00" fill="#000000">created_at </text>
<text text-anchor="start" x="123.028" y="-393.9" font-family="Arial" font-size="14.00" fill="#666666">[datetime]</text>
<polygon fill="none" stroke="#000000" points="46,-352.5 46,-382.5 276,-382.5 276,-352.5 46,-352.5"/>
<text text-anchor="start" x="53" y="-363.9" font-family="Arial" font-size="14.00" fill="#000000">deleted_at </text>
<text text-anchor="start" x="122.2566" y="-363.9" font-family="Arial" font-size="14.00" fill="#666666">[datetime]</text>
<polygon fill="none" stroke="#000000" stroke-width="3" points="44.5,-351.5 44.5,-569.5 277.5,-569.5 277.5,-351.5 44.5,-351.5"/>
</g>
<!-- product_keys -->
<g id="node2" class="node">
<title>product_keys</title>
<polygon fill="#efefef" stroke="transparent" points="52,-192.5 52,-227.5 270,-227.5 270,-192.5 52,-192.5"/>
<polygon fill="none" stroke="#000000" points="52,-192.5 52,-227.5 270,-227.5 270,-192.5 52,-192.5"/>
<text text-anchor="start" x="58.8573" y="-205.3" font-family="Arial Bold" font-size="18.00" fill="#000000">product_keys</text>
<text text-anchor="start" x="165.8889" y="-205.3" font-family="Arial" font-size="14.00" fill="#000000"> </text>
<text text-anchor="start" x="169.7795" y="-205.3" font-family="Arial" font-size="14.00" fill="#666666">[BASE TABLE]</text>
<polygon fill="none" stroke="#000000" points="52,-162.5 52,-192.5 270,-192.5 270,-162.5 52,-162.5"/>
<text text-anchor="start" x="59" y="-173.9" font-family="Arial" font-size="14.00" fill="#000000">id </text>
<text text-anchor="start" x="73.7798" y="-173.9" font-family="Arial" font-size="14.00" fill="#666666">[varchar(36)]</text>
<polygon fill="none" stroke="#000000" points="52,-132.5 52,-162.5 270,-162.5 270,-132.5 52,-132.5"/>
<text text-anchor="start" x="59" y="-143.9" font-family="Arial" font-size="14.00" fill="#000000">edition_id </text>
<text text-anchor="start" x="122.7966" y="-143.9" font-family="Arial" font-size="14.00" fill="#666666">[varchar(36)]</text>
<polygon fill="none" stroke="#000000" points="52,-102.5 52,-132.5 270,-132.5 270,-102.5 52,-102.5"/>
<text text-anchor="start" x="59" y="-113.9" font-family="Arial" font-size="14.00" fill="#000000">product_key </text>
<text text-anchor="start" x="139.1374" y="-113.9" font-family="Arial" font-size="14.00" fill="#666666">[varchar(29)]</text>
<polygon fill="none" stroke="#000000" points="52,-72.5 52,-102.5 270,-102.5 270,-72.5 52,-72.5"/>
<text text-anchor="start" x="59" y="-83.9" font-family="Arial" font-size="14.00" fill="#000000">created_at </text>
<text text-anchor="start" x="129.028" y="-83.9" font-family="Arial" font-size="14.00" fill="#666666">[datetime]</text>
<polygon fill="none" stroke="#000000" points="52,-42.5 52,-72.5 270,-72.5 270,-42.5 52,-42.5"/>
<text text-anchor="start" x="59" y="-53.9" font-family="Arial" font-size="14.00" fill="#000000">deleted_at </text>
<text text-anchor="start" x="128.2566" y="-53.9" font-family="Arial" font-size="14.00" fill="#666666">[datetime]</text>
</g>
<!-- access_tokens&#45;&gt;product_keys -->
<g id="edge1" class="edge">
<title>access_tokens:product_key_id&#45;&gt;product_keys:id</title>
<path fill="none" stroke="#000000" d="M285.9189,-485.183C344.1302,-456.815 335.4029,-177.5 270,-177.5"/>
<polygon fill="#000000" stroke="#000000" points="285.7378,-485.2252 274.9763,-483.118 280.8689,-486.3626 276,-487.5 276,-487.5 276,-487.5 280.8689,-486.3626 277.0237,-491.882 285.7378,-485.2252 285.7378,-485.2252"/>
<text text-anchor="start" x="282.93" y="-497.5" font-family="Arial" font-size="10.00" fill="#000000">FOREIGN KEY (product_key_id) REFERENCES product_keys (id)</text>
</g>
</g>
</svg>
