<?xml version="1.0" encoding="UTF-8" standalone="no"?>
<!DOCTYPE svg PUBLIC "-//W3C//DTD SVG 1.1//EN"
 "http://www.w3.org/Graphics/SVG/1.1/DTD/svg11.dtd">
<!-- Generated by graphviz version 12.1.2 (20240928.0832)
 -->
<!-- Title: access_tokens Pages: 1 -->
<svg width="606pt" height="633pt"
 viewBox="0.00 0.00 605.86 632.80" xmlns="http://www.w3.org/2000/svg" xmlns:xlink="http://www.w3.org/1999/xlink">
<g id="graph0" class="graph" transform="scale(1 1) rotate(0) translate(4 628.8)">
<title>access_tokens</title>
<polygon fill="white" stroke="none" points="-4,4 -4,-628.8 601.86,-628.8 601.86,4 -4,4"/>
<!-- access_tokens -->
<g id="node1" class="node">
<title>access_tokens</title>
<polygon fill="#efefef" stroke="none" points="46.2,-543 46.2,-578.6 286.65,-578.6 286.65,-543 46.2,-543"/>
<polygon fill="none" stroke="black" points="46.2,-543 46.2,-578.6 286.65,-578.6 286.65,-543 46.2,-543"/>
<text text-anchor="start" x="53.2" y="-556.4" font-family="Arial Bold" font-size="18.00">access_tokens</text>
<text text-anchor="start" x="155.16" y="-556.4" font-family="Arial" font-size="14.00">    </text>
<text text-anchor="start" x="186.28" y="-556.4" font-family="Arial" font-size="14.00" fill="#666666">[BASE TABLE]</text>
<polygon fill="none" stroke="black" points="46.2,-512.2 46.2,-543 286.65,-543 286.65,-512.2 46.2,-512.2"/>
<text text-anchor="start" x="53.2" y="-524.4" font-family="Arial" font-size="14.00">id </text>
<text text-anchor="start" x="67.99" y="-524.4" font-family="Arial" font-size="14.00" fill="#666666">[varchar(36)]</text>
<polygon fill="none" stroke="black" points="46.2,-481.4 46.2,-512.2 286.65,-512.2 286.65,-481.4 46.2,-481.4"/>
<text text-anchor="start" x="53.2" y="-493.6" font-family="Arial" font-size="14.00">product_key_id </text>
<text text-anchor="start" x="152.04" y="-493.6" font-family="Arial" font-size="14.00" fill="#666666">[varchar(36)]</text>
<polygon fill="none" stroke="black" points="46.2,-450.6 46.2,-481.4 286.65,-481.4 286.65,-450.6 46.2,-450.6"/>
<text text-anchor="start" x="53.2" y="-462.8" font-family="Arial" font-size="14.00">access_token </text>
<text text-anchor="start" x="142.7" y="-462.8" font-family="Arial" font-size="14.00" fill="#666666">[varchar(64)]</text>
<polygon fill="none" stroke="black" points="46.2,-419.8 46.2,-450.6 286.65,-450.6 286.65,-419.8 46.2,-419.8"/>
<text text-anchor="start" x="53.2" y="-432" font-family="Arial" font-size="14.00">expires_at </text>
<text text-anchor="start" x="121.68" y="-432" font-family="Arial" font-size="14.00" fill="#666666">[datetime]</text>
<polygon fill="none" stroke="black" points="46.2,-389 46.2,-419.8 286.65,-419.8 286.65,-389 46.2,-389"/>
<text text-anchor="start" x="53.2" y="-401.2" font-family="Arial" font-size="14.00">created_at </text>
<text text-anchor="start" x="123.25" y="-401.2" font-family="Arial" font-size="14.00" fill="#666666">[datetime]</text>
<polygon fill="none" stroke="black" points="46.2,-358.2 46.2,-389 286.65,-389 286.65,-358.2 46.2,-358.2"/>
<text text-anchor="start" x="53.2" y="-370.4" font-family="Arial" font-size="14.00">deleted_at </text>
<text text-anchor="start" x="122.48" y="-370.4" font-family="Arial" font-size="14.00" fill="#666666">[datetime]</text>
<polygon fill="none" stroke="black" stroke-width="3" points="44.7,-356.7 44.7,-580.1 288.15,-580.1 288.15,-356.7 44.7,-356.7"/>
</g>
<!-- product_keys -->
<g id="node2" class="node">
<title>product_keys</title>
<polygon fill="#efefef" stroke="none" points="48.69,-197.2 48.69,-232.8 284.16,-232.8 284.16,-197.2 48.69,-197.2"/>
<polygon fill="none" stroke="black" points="48.69,-197.2 48.69,-232.8 284.16,-232.8 284.16,-197.2 48.69,-197.2"/>
<text text-anchor="start" x="55.69" y="-210.6" font-family="Arial Bold" font-size="18.00">product_keys</text>
<text text-anchor="start" x="152.67" y="-210.6" font-family="Arial" font-size="14.00">    </text>
<text text-anchor="start" x="183.79" y="-210.6" font-family="Arial" font-size="14.00" fill="#666666">[BASE TABLE]</text>
<polygon fill="none" stroke="black" points="48.69,-166.4 48.69,-197.2 284.16,-197.2 284.16,-166.4 48.69,-166.4"/>
<text text-anchor="start" x="55.69" y="-178.6" font-family="Arial" font-size="14.00">id </text>
<text text-anchor="start" x="70.48" y="-178.6" font-family="Arial" font-size="14.00" fill="#666666">[varchar(36)]</text>
<polygon fill="none" stroke="black" points="48.69,-135.6 48.69,-166.4 284.16,-166.4 284.16,-135.6 48.69,-135.6"/>
<text text-anchor="start" x="55.69" y="-147.8" font-family="Arial" font-size="14.00">edition_id </text>
<text text-anchor="start" x="119.52" y="-147.8" font-family="Arial" font-size="14.00" fill="#666666">[varchar(36)]</text>
<polygon fill="none" stroke="black" points="48.69,-104.8 48.69,-135.6 284.16,-135.6 284.16,-104.8 48.69,-104.8"/>
<text text-anchor="start" x="55.69" y="-117" font-family="Arial" font-size="14.00">product_key </text>
<text text-anchor="start" x="135.85" y="-117" font-family="Arial" font-size="14.00" fill="#666666">[varchar(29)]</text>
<polygon fill="none" stroke="black" points="48.69,-74 48.69,-104.8 284.16,-104.8 284.16,-74 48.69,-74"/>
<text text-anchor="start" x="55.69" y="-86.2" font-family="Arial" font-size="14.00">created_at </text>
<text text-anchor="start" x="125.74" y="-86.2" font-family="Arial" font-size="14.00" fill="#666666">[datetime]</text>
<polygon fill="none" stroke="black" points="48.69,-43.2 48.69,-74 284.16,-74 284.16,-43.2 48.69,-43.2"/>
<text text-anchor="start" x="55.69" y="-55.4" font-family="Arial" font-size="14.00">status_id </text>
<text text-anchor="start" x="115.62" y="-55.4" font-family="Arial" font-size="14.00" fill="#666666">[tinyint(4)]</text>
</g>
<!-- access_tokens&#45;&gt;product_keys -->
<g id="edge1" class="edge">
<title>access_tokens:product_key_id&#45;&gt;product_keys:id</title>
<path fill="none" stroke="black" d="M297.76,-494.45C357.23,-465.62 351.61,-181.8 285.16,-181.8"/>
<polygon fill="black" stroke="black" points="297.72,-494.45 286.96,-492.34 292.52,-495.67 288.3,-496.65 288.3,-496.65 288.3,-496.65 292.52,-495.67 289,-501.11 297.72,-494.45"/>
<text text-anchor="start" x="294.65" y="-506.8" font-family="Arial" font-size="10.00">FOREIGN KEY (product_key_id) REFERENCES product_keys (id)</text>
</g>
</g>
</svg>
