<?xml version="1.0" encoding="UTF-8" standalone="no"?>
<!DOCTYPE svg PUBLIC "-//W3C//DTD SVG 1.1//EN"
 "http://www.w3.org/Graphics/SVG/1.1/DTD/svg11.dtd">
<!-- Generated by graphviz version 12.1.2 (20240928.0832)
 -->
<!-- Title: admins Pages: 1 -->
<svg width="291pt" height="167pt"
 viewBox="0.00 0.00 290.89 166.80" xmlns="http://www.w3.org/2000/svg" xmlns:xlink="http://www.w3.org/1999/xlink">
<g id="graph0" class="graph" transform="scale(1 1) rotate(0) translate(4 162.8)">
<title>admins</title>
<polygon fill="white" stroke="none" points="-4,4 -4,-162.8 286.89,-162.8 286.89,4 -4,4"/>
<!-- admins -->
<g id="node1" class="node">
<title>admins</title>
<polygon fill="#efefef" stroke="none" points="46.2,-77 46.2,-112.6 236.69,-112.6 236.69,-77 46.2,-77"/>
<polygon fill="none" stroke="black" points="46.2,-77 46.2,-112.6 236.69,-112.6 236.69,-77 46.2,-77"/>
<text text-anchor="start" x="53.2" y="-90.4" font-family="Arial Bold" font-size="18.00">admins</text>
<text text-anchor="start" x="105.2" y="-90.4" font-family="Arial" font-size="14.00">    </text>
<text text-anchor="start" x="136.31" y="-90.4" font-family="Arial" font-size="14.00" fill="#666666">[BASE TABLE]</text>
<polygon fill="none" stroke="black" points="46.2,-46.2 46.2,-77 236.69,-77 236.69,-46.2 46.2,-46.2"/>
<text text-anchor="start" x="53.2" y="-58.4" font-family="Arial" font-size="14.00">user_id </text>
<text text-anchor="start" x="103.01" y="-58.4" font-family="Arial" font-size="14.00" fill="#666666">[varchar(36)]</text>
<polygon fill="none" stroke="black" stroke-width="3" points="44.7,-44.7 44.7,-114.1 238.19,-114.1 238.19,-44.7 44.7,-44.7"/>
</g>
</g>
</svg>
