<?xml version="1.0" encoding="UTF-8" standalone="no"?>
<!DOCTYPE svg PUBLIC "-//W3C//DTD SVG 1.1//EN"
 "http://www.w3.org/Graphics/SVG/1.1/DTD/svg11.dtd">
<!-- Generated by graphviz version 2.40.1 (20161225.0304)
 -->
<!-- Title: edition_game_version_relations Pages: 1 -->
<svg width="975pt" height="562pt"
 viewBox="0.00 0.00 975.00 562.00" xmlns="http://www.w3.org/2000/svg" xmlns:xlink="http://www.w3.org/1999/xlink">
<g id="graph0" class="graph" transform="scale(1 1) rotate(0) translate(4 558)">
<title>edition_game_version_relations</title>
<polygon fill="#ffffff" stroke="transparent" points="-4,4 -4,-558 971,-558 971,4 -4,4"/>
<!-- edition_game_version_relations -->
<g id="node1" class="node">
<title>edition_game_version_relations</title>
<polygon fill="#efefef" stroke="transparent" points="260,-472.5 260,-507.5 625,-507.5 625,-472.5 260,-472.5"/>
<polygon fill="none" stroke="#000000" points="260,-472.5 260,-507.5 625,-507.5 625,-472.5 260,-472.5"/>
<text text-anchor="start" x="266.8444" y="-485.3" font-family="Arial Bold" font-size="18.00" fill="#000000">edition_game_version_relations</text>
<text text-anchor="start" x="520.9018" y="-485.3" font-family="Arial" font-size="14.00" fill="#000000"> </text>
<text text-anchor="start" x="524.7924" y="-485.3" font-family="Arial" font-size="14.00" fill="#666666">[BASE TABLE]</text>
<polygon fill="none" stroke="#000000" points="260,-442.5 260,-472.5 625,-472.5 625,-442.5 260,-442.5"/>
<text text-anchor="start" x="267" y="-453.9" font-family="Arial" font-size="14.00" fill="#000000">edition_id </text>
<text text-anchor="start" x="330.7966" y="-453.9" font-family="Arial" font-size="14.00" fill="#666666">[varchar(36)]</text>
<polygon fill="none" stroke="#000000" points="260,-412.5 260,-442.5 625,-442.5 625,-412.5 260,-412.5"/>
<text text-anchor="start" x="267" y="-423.9" font-family="Arial" font-size="14.00" fill="#000000">game_version_id </text>
<text text-anchor="start" x="377.4684" y="-423.9" font-family="Arial" font-size="14.00" fill="#666666">[varchar(36)]</text>
<polygon fill="none" stroke="#000000" stroke-width="3" points="258,-411.5 258,-509.5 626,-509.5 626,-411.5 258,-411.5"/>
</g>
<!-- editions -->
<g id="node2" class="node">
<title>editions</title>
<polygon fill="#efefef" stroke="transparent" points="196,-222.5 196,-257.5 369,-257.5 369,-222.5 196,-222.5"/>
<polygon fill="none" stroke="#000000" points="196,-222.5 196,-257.5 369,-257.5 369,-222.5 196,-222.5"/>
<text text-anchor="start" x="202.8654" y="-235.3" font-family="Arial Bold" font-size="18.00" fill="#000000">editions</text>
<text text-anchor="start" x="264.8808" y="-235.3" font-family="Arial" font-size="14.00" fill="#000000"> </text>
<text text-anchor="start" x="268.7714" y="-235.3" font-family="Arial" font-size="14.00" fill="#666666">[BASE TABLE]</text>
<polygon fill="none" stroke="#000000" points="196,-192.5 196,-222.5 369,-222.5 369,-192.5 196,-192.5"/>
<text text-anchor="start" x="203" y="-203.9" font-family="Arial" font-size="14.00" fill="#000000">id </text>
<text text-anchor="start" x="217.7798" y="-203.9" font-family="Arial" font-size="14.00" fill="#666666">[varchar(36)]</text>
<polygon fill="none" stroke="#000000" points="196,-162.5 196,-192.5 369,-192.5 369,-162.5 196,-162.5"/>
<text text-anchor="start" x="203" y="-173.9" font-family="Arial" font-size="14.00" fill="#000000">name </text>
<text text-anchor="start" x="241.899" y="-173.9" font-family="Arial" font-size="14.00" fill="#666666">[varchar(32)]</text>
<polygon fill="none" stroke="#000000" points="196,-132.5 196,-162.5 369,-162.5 369,-132.5 196,-132.5"/>
<text text-anchor="start" x="203" y="-143.9" font-family="Arial" font-size="14.00" fill="#000000">questionnaire_url </text>
<text text-anchor="start" x="314.2482" y="-143.9" font-family="Arial" font-size="14.00" fill="#666666">[text]</text>
<polygon fill="none" stroke="#000000" points="196,-102.5 196,-132.5 369,-132.5 369,-102.5 196,-102.5"/>
<text text-anchor="start" x="203" y="-113.9" font-family="Arial" font-size="14.00" fill="#000000">created_at </text>
<text text-anchor="start" x="273.028" y="-113.9" font-family="Arial" font-size="14.00" fill="#666666">[datetime]</text>
<polygon fill="none" stroke="#000000" points="196,-72.5 196,-102.5 369,-102.5 369,-72.5 196,-72.5"/>
<text text-anchor="start" x="203" y="-83.9" font-family="Arial" font-size="14.00" fill="#000000">deleted_at </text>
<text text-anchor="start" x="272.2566" y="-83.9" font-family="Arial" font-size="14.00" fill="#666666">[datetime]</text>
</g>
<!-- edition_game_version_relations&#45;&gt;editions -->
<g id="edge1" class="edge">
<title>edition_game_version_relations:edition_id&#45;&gt;editions:id</title>
<path fill="none" stroke="#000000" d="M249.8955,-455.984C223.7699,-446.8629 242.1817,-398.6193 260,-367 287.8035,-317.6616 341.1965,-350.3384 369,-301 389.4013,-264.7971 410.5556,-207.5 369,-207.5"/>
<polygon fill="#000000" stroke="#000000" points="250.1107,-456.0162 259.3323,-461.9502 255.0553,-456.7581 260,-457.5 260,-457.5 260,-457.5 255.0553,-456.7581 260.6677,-453.0498 250.1107,-456.0162 250.1107,-456.0162"/>
<text text-anchor="start" x="6.939" y="-467.5" font-family="Arial" font-size="10.00" fill="#000000">FOREIGN KEY (edition_id) REFERENCES editions (id)</text>
</g>
<!-- v2_game_versions -->
<g id="node3" class="node">
<title>v2_game_versions</title>
<polygon fill="#efefef" stroke="transparent" points="473,-252.5 473,-287.5 735,-287.5 735,-252.5 473,-252.5"/>
<polygon fill="none" stroke="#000000" points="473,-252.5 473,-287.5 735,-287.5 735,-252.5 473,-252.5"/>
<text text-anchor="start" x="479.8559" y="-265.3" font-family="Arial Bold" font-size="18.00" fill="#000000">v2_game_versions</text>
<text text-anchor="start" x="630.8903" y="-265.3" font-family="Arial" font-size="14.00" fill="#000000"> </text>
<text text-anchor="start" x="634.7809" y="-265.3" font-family="Arial" font-size="14.00" fill="#666666">[BASE TABLE]</text>
<polygon fill="none" stroke="#000000" points="473,-222.5 473,-252.5 735,-252.5 735,-222.5 473,-222.5"/>
<text text-anchor="start" x="480" y="-233.9" font-family="Arial" font-size="14.00" fill="#000000">id </text>
<text text-anchor="start" x="494.7798" y="-233.9" font-family="Arial" font-size="14.00" fill="#666666">[varchar(36)]</text>
<polygon fill="none" stroke="#000000" points="473,-192.5 473,-222.5 735,-222.5 735,-192.5 473,-192.5"/>
<text text-anchor="start" x="480" y="-203.9" font-family="Arial" font-size="14.00" fill="#000000">game_id </text>
<text text-anchor="start" x="537.5708" y="-203.9" font-family="Arial" font-size="14.00" fill="#666666">[varchar(36)]</text>
<polygon fill="none" stroke="#000000" points="473,-162.5 473,-192.5 735,-192.5 735,-162.5 473,-162.5"/>
<text text-anchor="start" x="480" y="-173.9" font-family="Arial" font-size="14.00" fill="#000000">game_image_id </text>
<text text-anchor="start" x="583.4684" y="-173.9" font-family="Arial" font-size="14.00" fill="#666666">[varchar(36)]</text>
<polygon fill="none" stroke="#000000" points="473,-132.5 473,-162.5 735,-162.5 735,-132.5 473,-132.5"/>
<text text-anchor="start" x="480" y="-143.9" font-family="Arial" font-size="14.00" fill="#000000">game_video_id </text>
<text text-anchor="start" x="578.8078" y="-143.9" font-family="Arial" font-size="14.00" fill="#666666">[varchar(36)]</text>
<polygon fill="none" stroke="#000000" points="473,-102.5 473,-132.5 735,-132.5 735,-102.5 473,-102.5"/>
<text text-anchor="start" x="480" y="-113.9" font-family="Arial" font-size="14.00" fill="#000000">name </text>
<text text-anchor="start" x="518.899" y="-113.9" font-family="Arial" font-size="14.00" fill="#666666">[varchar(32)]</text>
<polygon fill="none" stroke="#000000" points="473,-72.5 473,-102.5 735,-102.5 735,-72.5 473,-72.5"/>
<text text-anchor="start" x="480" y="-83.9" font-family="Arial" font-size="14.00" fill="#000000">description </text>
<text text-anchor="start" x="551.568" y="-83.9" font-family="Arial" font-size="14.00" fill="#666666">[text]</text>
<polygon fill="none" stroke="#000000" points="473,-42.5 473,-72.5 735,-72.5 735,-42.5 473,-42.5"/>
<text text-anchor="start" x="480" y="-53.9" font-family="Arial" font-size="14.00" fill="#000000">created_at </text>
<text text-anchor="start" x="550.028" y="-53.9" font-family="Arial" font-size="14.00" fill="#666666">[datetime]</text>
</g>
<!-- edition_game_version_relations&#45;&gt;v2_game_versions -->
<g id="edge2" class="edge">
<title>edition_game_version_relations:game_version_id&#45;&gt;v2_game_versions:id</title>
<path fill="none" stroke="#000000" d="M635.0038,-424.8338C648.5404,-415.6318 639.073,-384.7953 625,-367 581.9363,-312.5457 516.0637,-385.4543 473,-331 447.2233,-298.4052 431.4444,-237.5 473,-237.5"/>
<polygon fill="#000000" stroke="#000000" points="634.6627,-424.9246 623.8411,-423.1518 629.8314,-426.2123 625,-427.5 625,-427.5 625,-427.5 629.8314,-426.2123 626.1589,-431.8482 634.6627,-424.9246 634.6627,-424.9246"/>
<text text-anchor="start" x="631.543" y="-437.5" font-family="Arial" font-size="10.00" fill="#000000">FOREIGN KEY (game_version_id) REFERENCES v2_game_versions (id)</text>
</g>
</g>
</svg>
