<?xml version="1.0" encoding="UTF-8" standalone="no"?>
<!DOCTYPE svg PUBLIC "-//W3C//DTD SVG 1.1//EN"
 "http://www.w3.org/Graphics/SVG/1.1/DTD/svg11.dtd">
<!-- Generated by graphviz version 2.40.1 (20161225.0304)
 -->
<!-- Title: editions Pages: 1 -->
<svg width="2265pt" height="712pt"
 viewBox="0.00 0.00 2264.50 712.00" xmlns="http://www.w3.org/2000/svg" xmlns:xlink="http://www.w3.org/1999/xlink">
<g id="graph0" class="graph" transform="scale(1 1) rotate(0) translate(4 708)">
<title>editions</title>
<polygon fill="#ffffff" stroke="transparent" points="-4,4 -4,-708 2260.5,-708 2260.5,4 -4,4"/>
<!-- editions -->
<g id="node1" class="node">
<title>editions</title>
<polygon fill="#efefef" stroke="transparent" points="1114.5,-195.5 1114.5,-230.5 1287.5,-230.5 1287.5,-195.5 1114.5,-195.5"/>
<polygon fill="none" stroke="#000000" points="1114.5,-195.5 1114.5,-230.5 1287.5,-230.5 1287.5,-195.5 1114.5,-195.5"/>
<text text-anchor="start" x="1121.3654" y="-208.3" font-family="Arial Bold" font-size="18.00" fill="#000000">editions</text>
<text text-anchor="start" x="1183.3808" y="-208.3" font-family="Arial" font-size="14.00" fill="#000000"> </text>
<text text-anchor="start" x="1187.2714" y="-208.3" font-family="Arial" font-size="14.00" fill="#666666">[BASE TABLE]</text>
<polygon fill="none" stroke="#000000" points="1114.5,-165.5 1114.5,-195.5 1287.5,-195.5 1287.5,-165.5 1114.5,-165.5"/>
<text text-anchor="start" x="1121.5" y="-176.9" font-family="Arial" font-size="14.00" fill="#000000">id </text>
<text text-anchor="start" x="1136.2798" y="-176.9" font-family="Arial" font-size="14.00" fill="#666666">[varchar(36)]</text>
<polygon fill="none" stroke="#000000" points="1114.5,-135.5 1114.5,-165.5 1287.5,-165.5 1287.5,-135.5 1114.5,-135.5"/>
<text text-anchor="start" x="1121.5" y="-146.9" font-family="Arial" font-size="14.00" fill="#000000">name </text>
<text text-anchor="start" x="1160.399" y="-146.9" font-family="Arial" font-size="14.00" fill="#666666">[varchar(32)]</text>
<polygon fill="none" stroke="#000000" points="1114.5,-105.5 1114.5,-135.5 1287.5,-135.5 1287.5,-105.5 1114.5,-105.5"/>
<text text-anchor="start" x="1121.5" y="-116.9" font-family="Arial" font-size="14.00" fill="#000000">questionnaire_url </text>
<text text-anchor="start" x="1232.7482" y="-116.9" font-family="Arial" font-size="14.00" fill="#666666">[text]</text>
<polygon fill="none" stroke="#000000" points="1114.5,-75.5 1114.5,-105.5 1287.5,-105.5 1287.5,-75.5 1114.5,-75.5"/>
<text text-anchor="start" x="1121.5" y="-86.9" font-family="Arial" font-size="14.00" fill="#000000">created_at </text>
<text text-anchor="start" x="1191.528" y="-86.9" font-family="Arial" font-size="14.00" fill="#666666">[datetime]</text>
<polygon fill="none" stroke="#000000" points="1114.5,-45.5 1114.5,-75.5 1287.5,-75.5 1287.5,-45.5 1114.5,-45.5"/>
<text text-anchor="start" x="1121.5" y="-56.9" font-family="Arial" font-size="14.00" fill="#000000">deleted_at </text>
<text text-anchor="start" x="1190.7566" y="-56.9" font-family="Arial" font-size="14.00" fill="#666666">[datetime]</text>
<polygon fill="none" stroke="#000000" stroke-width="3" points="1112.5,-44.5 1112.5,-232.5 1288.5,-232.5 1288.5,-44.5 1112.5,-44.5"/>
</g>
<!-- edition_game_version_relations -->
<g id="node2" class="node">
<title>edition_game_version_relations</title>
<polygon fill="#efefef" stroke="transparent" points="43.5,-520.5 43.5,-555.5 408.5,-555.5 408.5,-520.5 43.5,-520.5"/>
<polygon fill="none" stroke="#000000" points="43.5,-520.5 43.5,-555.5 408.5,-555.5 408.5,-520.5 43.5,-520.5"/>
<text text-anchor="start" x="50.3444" y="-533.3" font-family="Arial Bold" font-size="18.00" fill="#000000">edition_game_version_relations</text>
<text text-anchor="start" x="304.4018" y="-533.3" font-family="Arial" font-size="14.00" fill="#000000"> </text>
<text text-anchor="start" x="308.2924" y="-533.3" font-family="Arial" font-size="14.00" fill="#666666">[BASE TABLE]</text>
<polygon fill="none" stroke="#000000" points="43.5,-490.5 43.5,-520.5 408.5,-520.5 408.5,-490.5 43.5,-490.5"/>
<text text-anchor="start" x="50.5" y="-501.9" font-family="Arial" font-size="14.00" fill="#000000">edition_id </text>
<text text-anchor="start" x="114.2966" y="-501.9" font-family="Arial" font-size="14.00" fill="#666666">[varchar(36)]</text>
<polygon fill="none" stroke="#000000" points="43.5,-460.5 43.5,-490.5 408.5,-490.5 408.5,-460.5 43.5,-460.5"/>
<text text-anchor="start" x="50.5" y="-471.9" font-family="Arial" font-size="14.00" fill="#000000">game_version_id </text>
<text text-anchor="start" x="160.9684" y="-471.9" font-family="Arial" font-size="14.00" fill="#666666">[varchar(36)]</text>
</g>
<!-- edition_game_version_relations&#45;&gt;editions -->
<g id="edge1" class="edge">
<title>edition_game_version_relations:edition_id&#45;&gt;editions:id</title>
<path fill="none" stroke="#000000" d="M418.8827,-504.7861C488.5554,-494.3046 397.8532,-371.0902 459.5,-313 567.5795,-211.1559 965.9961,-180.5 1114.5,-180.5"/>
<polygon fill="#000000" stroke="#000000" points="418.4764,-504.8139 408.1913,-501.0106 413.4882,-505.1569 408.5,-505.5 408.5,-505.5 408.5,-505.5 413.4882,-505.1569 408.8087,-509.9894 418.4764,-504.8139 418.4764,-504.8139"/>
<text text-anchor="start" x="415.439" y="-515.5" font-family="Arial" font-size="10.00" fill="#000000">FOREIGN KEY (edition_id) REFERENCES editions (id)</text>
</g>
<!-- feedback_questions -->
<g id="node3" class="node">
<title>feedback_questions</title>
<polygon fill="#efefef" stroke="transparent" points="512.5,-610.5 512.5,-645.5 783.5,-645.5 783.5,-610.5 512.5,-610.5"/>
<polygon fill="none" stroke="#000000" points="512.5,-610.5 512.5,-645.5 783.5,-645.5 783.5,-610.5 512.5,-610.5"/>
<text text-anchor="start" x="519.3397" y="-623.3" font-family="Arial Bold" font-size="18.00" fill="#000000">feedback_questions</text>
<text text-anchor="start" x="679.4065" y="-623.3" font-family="Arial" font-size="14.00" fill="#000000"> </text>
<text text-anchor="start" x="683.2971" y="-623.3" font-family="Arial" font-size="14.00" fill="#666666">[BASE TABLE]</text>
<polygon fill="none" stroke="#000000" points="512.5,-580.5 512.5,-610.5 783.5,-610.5 783.5,-580.5 512.5,-580.5"/>
<text text-anchor="start" x="519.5" y="-591.9" font-family="Arial" font-size="14.00" fill="#000000">id </text>
<text text-anchor="start" x="534.2798" y="-591.9" font-family="Arial" font-size="14.00" fill="#666666">[varchar(36)]</text>
<polygon fill="none" stroke="#000000" points="512.5,-550.5 512.5,-580.5 783.5,-580.5 783.5,-550.5 512.5,-550.5"/>
<text text-anchor="start" x="519.5" y="-561.9" font-family="Arial" font-size="14.00" fill="#000000">edition_id </text>
<text text-anchor="start" x="583.2966" y="-561.9" font-family="Arial" font-size="14.00" fill="#666666">[varchar(36)]</text>
<polygon fill="none" stroke="#000000" points="512.5,-520.5 512.5,-550.5 783.5,-550.5 783.5,-520.5 512.5,-520.5"/>
<text text-anchor="start" x="519.5" y="-531.9" font-family="Arial" font-size="14.00" fill="#000000">game_id </text>
<text text-anchor="start" x="577.0708" y="-531.9" font-family="Arial" font-size="14.00" fill="#666666">[varchar(36)]</text>
<polygon fill="none" stroke="#000000" points="512.5,-490.5 512.5,-520.5 783.5,-520.5 783.5,-490.5 512.5,-490.5"/>
<text text-anchor="start" x="519.5" y="-501.9" font-family="Arial" font-size="14.00" fill="#000000">question_text </text>
<text text-anchor="start" x="606.6472" y="-501.9" font-family="Arial" font-size="14.00" fill="#666666">[varchar(256)]</text>
<polygon fill="none" stroke="#000000" points="512.5,-460.5 512.5,-490.5 783.5,-490.5 783.5,-460.5 512.5,-460.5"/>
<text text-anchor="start" x="519.5" y="-471.9" font-family="Arial" font-size="14.00" fill="#000000">answer_type </text>
<text text-anchor="start" x="602.744" y="-471.9" font-family="Arial" font-size="14.00" fill="#666666">[tinyint(4)]</text>
<polygon fill="none" stroke="#000000" points="512.5,-430.5 512.5,-460.5 783.5,-460.5 783.5,-430.5 512.5,-430.5"/>
<text text-anchor="start" x="519.5" y="-441.9" font-family="Arial" font-size="14.00" fill="#000000">question_order </text>
<text text-anchor="start" x="616.7524" y="-441.9" font-family="Arial" font-size="14.00" fill="#666666">[bigint(20)]</text>
<polygon fill="none" stroke="#000000" points="512.5,-400.5 512.5,-430.5 783.5,-430.5 783.5,-400.5 512.5,-400.5"/>
<text text-anchor="start" x="519.5" y="-411.9" font-family="Arial" font-size="14.00" fill="#000000">created_at </text>
<text text-anchor="start" x="589.528" y="-411.9" font-family="Arial" font-size="14.00" fill="#666666">[datetime]</text>
<polygon fill="none" stroke="#000000" points="512.5,-370.5 512.5,-400.5 783.5,-400.5 783.5,-370.5 512.5,-370.5"/>
<text text-anchor="start" x="519.5" y="-381.9" font-family="Arial" font-size="14.00" fill="#000000">deleted_at </text>
<text text-anchor="start" x="588.7566" y="-381.9" font-family="Arial" font-size="14.00" fill="#666666">[datetime]</text>
</g>
<!-- feedback_questions&#45;&gt;editions -->
<g id="edge2" class="edge">
<title>feedback_questions:edition_id&#45;&gt;editions:id</title>
<path fill="none" stroke="#000000" d="M793.5292,-565.0315C889.9452,-555.4233 766.9857,-400.3273 835.5,-313 920.2338,-204.9996 977.2269,-180.5 1114.5,-180.5"/>
<polygon fill="#000000" stroke="#000000" points="793.4891,-565.0333 783.29,-561.0049 788.4946,-565.2666 783.5,-565.5 783.5,-565.5 783.5,-565.5 788.4946,-565.2666 783.71,-569.9951 793.4891,-565.0333 793.4891,-565.0333"/>
<text text-anchor="start" x="660.439" y="-549.5" font-family="Arial" font-size="10.00" fill="#000000">FOREIGN KEY (edition_id) REFERENCES editions (id)</text>
</g>
<!-- game_feedbacks -->
<g id="node4" class="node">
<title>game_feedbacks</title>
<polygon fill="#efefef" stroke="transparent" points="887.5,-565.5 887.5,-600.5 1135.5,-600.5 1135.5,-565.5 887.5,-565.5"/>
<polygon fill="none" stroke="#000000" points="887.5,-565.5 887.5,-600.5 1135.5,-600.5 1135.5,-565.5 887.5,-565.5"/>
<text text-anchor="start" x="894.348" y="-578.3" font-family="Arial Bold" font-size="18.00" fill="#000000">game_feedbacks</text>
<text text-anchor="start" x="1031.3982" y="-578.3" font-family="Arial" font-size="14.00" fill="#000000"> </text>
<text text-anchor="start" x="1035.2888" y="-578.3" font-family="Arial" font-size="14.00" fill="#666666">[BASE TABLE]</text>
<polygon fill="none" stroke="#000000" points="887.5,-535.5 887.5,-565.5 1135.5,-565.5 1135.5,-535.5 887.5,-535.5"/>
<text text-anchor="start" x="894.5" y="-546.9" font-family="Arial" font-size="14.00" fill="#000000">id </text>
<text text-anchor="start" x="909.2798" y="-546.9" font-family="Arial" font-size="14.00" fill="#666666">[varchar(36)]</text>
<polygon fill="none" stroke="#000000" points="887.5,-505.5 887.5,-535.5 1135.5,-535.5 1135.5,-505.5 887.5,-505.5"/>
<text text-anchor="start" x="894.5" y="-516.9" font-family="Arial" font-size="14.00" fill="#000000">edition_id </text>
<text text-anchor="start" x="958.2966" y="-516.9" font-family="Arial" font-size="14.00" fill="#666666">[varchar(36)]</text>
<polygon fill="none" stroke="#000000" points="887.5,-475.5 887.5,-505.5 1135.5,-505.5 1135.5,-475.5 887.5,-475.5"/>
<text text-anchor="start" x="894.5" y="-486.9" font-family="Arial" font-size="14.00" fill="#000000">game_version_id </text>
<text text-anchor="start" x="1004.9684" y="-486.9" font-family="Arial" font-size="14.00" fill="#666666">[varchar(36)]</text>
<polygon fill="none" stroke="#000000" points="887.5,-445.5 887.5,-475.5 1135.5,-475.5 1135.5,-445.5 887.5,-445.5"/>
<text text-anchor="start" x="894.5" y="-456.9" font-family="Arial" font-size="14.00" fill="#000000">comment </text>
<text text-anchor="start" x="955.9502" y="-456.9" font-family="Arial" font-size="14.00" fill="#666666">[text]</text>
<polygon fill="none" stroke="#000000" points="887.5,-415.5 887.5,-445.5 1135.5,-445.5 1135.5,-415.5 887.5,-415.5"/>
<text text-anchor="start" x="894.5" y="-426.9" font-family="Arial" font-size="14.00" fill="#000000">created_at </text>
<text text-anchor="start" x="964.528" y="-426.9" font-family="Arial" font-size="14.00" fill="#666666">[datetime]</text>
</g>
<!-- game_feedbacks&#45;&gt;editions -->
<g id="edge3" class="edge">
<title>game_feedbacks:edition_id&#45;&gt;editions:id</title>
<path fill="none" stroke="#000000" d="M1145.7529,-519.9019C1271.3719,-504.1011 966.7972,-180.5 1114.5,-180.5"/>
<polygon fill="#000000" stroke="#000000" points="1145.483,-519.9176 1135.2379,-516.0076 1140.4915,-520.2088 1135.5,-520.5 1135.5,-520.5 1135.5,-520.5 1140.4915,-520.2088 1135.7621,-524.9924 1145.483,-519.9176 1145.483,-519.9176"/>
<text text-anchor="start" x="1142.439" y="-530.5" font-family="Arial" font-size="10.00" fill="#000000">FOREIGN KEY (edition_id) REFERENCES editions (id)</text>
</g>
<!-- game_feedback_configs -->
<g id="node5" class="node">
<title>game_feedback_configs</title>
<polygon fill="#efefef" stroke="transparent" points="1239.5,-535.5 1239.5,-570.5 1545.5,-570.5 1545.5,-535.5 1239.5,-535.5"/>
<polygon fill="none" stroke="#000000" points="1239.5,-535.5 1239.5,-570.5 1545.5,-570.5 1545.5,-535.5 1239.5,-535.5"/>
<text text-anchor="start" x="1246.3374" y="-548.3" font-family="Arial Bold" font-size="18.00" fill="#000000">game_feedback_configs</text>
<text text-anchor="start" x="1441.4088" y="-548.3" font-family="Arial" font-size="14.00" fill="#000000"> </text>
<text text-anchor="start" x="1445.2994" y="-548.3" font-family="Arial" font-size="14.00" fill="#666666">[BASE TABLE]</text>
<polygon fill="none" stroke="#000000" points="1239.5,-505.5 1239.5,-535.5 1545.5,-535.5 1545.5,-505.5 1239.5,-505.5"/>
<text text-anchor="start" x="1246.5" y="-516.9" font-family="Arial" font-size="14.00" fill="#000000">edition_id </text>
<text text-anchor="start" x="1310.2966" y="-516.9" font-family="Arial" font-size="14.00" fill="#666666">[varchar(36)]</text>
<polygon fill="none" stroke="#000000" points="1239.5,-475.5 1239.5,-505.5 1545.5,-505.5 1545.5,-475.5 1239.5,-475.5"/>
<text text-anchor="start" x="1246.5" y="-486.9" font-family="Arial" font-size="14.00" fill="#000000">game_id </text>
<text text-anchor="start" x="1304.0708" y="-486.9" font-family="Arial" font-size="14.00" fill="#666666">[varchar(36)]</text>
<polygon fill="none" stroke="#000000" points="1239.5,-445.5 1239.5,-475.5 1545.5,-475.5 1545.5,-445.5 1239.5,-445.5"/>
<text text-anchor="start" x="1246.5" y="-456.9" font-family="Arial" font-size="14.00" fill="#000000">enabled </text>
<text text-anchor="start" x="1300.1928" y="-456.9" font-family="Arial" font-size="14.00" fill="#666666">[tinyint(1)]</text>
</g>
<!-- game_feedback_configs&#45;&gt;editions -->
<g id="edge4" class="edge">
<title>game_feedback_configs:edition_id&#45;&gt;editions:id</title>
<path fill="none" stroke="#000000" d="M1229.2123,-519.9019C1103.836,-504.1011 1436.3837,-180.5 1287.5,-180.5"/>
<polygon fill="#000000" stroke="#000000" points="1229.5169,-519.9195 1239.2388,-524.9924 1234.5084,-520.2098 1239.5,-520.5 1239.5,-520.5 1239.5,-520.5 1234.5084,-520.2098 1239.7612,-516.0076 1229.5169,-519.9195 1229.5169,-519.9195"/>
<text text-anchor="start" x="1246.439" y="-504.5" font-family="Arial" font-size="10.00" fill="#000000">FOREIGN KEY (edition_id) REFERENCES editions (id)</text>
</g>
<!-- game_play_logs -->
<g id="node6" class="node">
<title>game_play_logs</title>
<polygon fill="#efefef" stroke="transparent" points="1649.5,-625.5 1649.5,-660.5 1891.5,-660.5 1891.5,-625.5 1649.5,-625.5"/>
<polygon fill="none" stroke="#000000" points="1649.5,-625.5 1649.5,-660.5 1891.5,-660.5 1891.5,-625.5 1649.5,-625.5"/>
<text text-anchor="start" x="1656.3549" y="-638.3" font-family="Arial Bold" font-size="18.00" fill="#000000">game_play_logs</text>
<text text-anchor="start" x="1787.3913" y="-638.3" font-family="Arial" font-size="14.00" fill="#000000"> </text>
<text text-anchor="start" x="1791.2819" y="-638.3" font-family="Arial" font-size="14.00" fill="#666666">[BASE TABLE]</text>
<polygon fill="none" stroke="#000000" points="1649.5,-595.5 1649.5,-625.5 1891.5,-625.5 1891.5,-595.5 1649.5,-595.5"/>
<text text-anchor="start" x="1656.5" y="-606.9" font-family="Arial" font-size="14.00" fill="#000000">id </text>
<text text-anchor="start" x="1671.2798" y="-606.9" font-family="Arial" font-size="14.00" fill="#666666">[varchar(36)]</text>
<polygon fill="none" stroke="#000000" points="1649.5,-565.5 1649.5,-595.5 1891.5,-595.5 1891.5,-565.5 1649.5,-565.5"/>
<text text-anchor="start" x="1656.5" y="-576.9" font-family="Arial" font-size="14.00" fill="#000000">edition_id </text>
<text text-anchor="start" x="1720.2966" y="-576.9" font-family="Arial" font-size="14.00" fill="#666666">[varchar(36)]</text>
<polygon fill="none" stroke="#000000" points="1649.5,-535.5 1649.5,-565.5 1891.5,-565.5 1891.5,-535.5 1649.5,-535.5"/>
<text text-anchor="start" x="1656.5" y="-546.9" font-family="Arial" font-size="14.00" fill="#000000">game_id </text>
<text text-anchor="start" x="1714.0708" y="-546.9" font-family="Arial" font-size="14.00" fill="#666666">[varchar(36)]</text>
<polygon fill="none" stroke="#000000" points="1649.5,-505.5 1649.5,-535.5 1891.5,-535.5 1891.5,-505.5 1649.5,-505.5"/>
<text text-anchor="start" x="1656.5" y="-516.9" font-family="Arial" font-size="14.00" fill="#000000">game_version_id </text>
<text text-anchor="start" x="1766.9684" y="-516.9" font-family="Arial" font-size="14.00" fill="#666666">[varchar(36)]</text>
<polygon fill="none" stroke="#000000" points="1649.5,-475.5 1649.5,-505.5 1891.5,-505.5 1891.5,-475.5 1649.5,-475.5"/>
<text text-anchor="start" x="1656.5" y="-486.9" font-family="Arial" font-size="14.00" fill="#000000">start_time </text>
<text text-anchor="start" x="1721.838" y="-486.9" font-family="Arial" font-size="14.00" fill="#666666">[datetime]</text>
<polygon fill="none" stroke="#000000" points="1649.5,-445.5 1649.5,-475.5 1891.5,-475.5 1891.5,-445.5 1649.5,-445.5"/>
<text text-anchor="start" x="1656.5" y="-456.9" font-family="Arial" font-size="14.00" fill="#000000">end_time </text>
<text text-anchor="start" x="1717.9614" y="-456.9" font-family="Arial" font-size="14.00" fill="#666666">[datetime]</text>
<polygon fill="none" stroke="#000000" points="1649.5,-415.5 1649.5,-445.5 1891.5,-445.5 1891.5,-415.5 1649.5,-415.5"/>
<text text-anchor="start" x="1656.5" y="-426.9" font-family="Arial" font-size="14.00" fill="#000000">created_at </text>
<text text-anchor="start" x="1726.528" y="-426.9" font-family="Arial" font-size="14.00" fill="#666666">[datetime]</text>
<polygon fill="none" stroke="#000000" points="1649.5,-385.5 1649.5,-415.5 1891.5,-415.5 1891.5,-385.5 1649.5,-385.5"/>
<text text-anchor="start" x="1656.5" y="-396.9" font-family="Arial" font-size="14.00" fill="#000000">updated_at </text>
<text text-anchor="start" x="1730.4326" y="-396.9" font-family="Arial" font-size="14.00" fill="#666666">[datetime]</text>
<polygon fill="none" stroke="#000000" points="1649.5,-355.5 1649.5,-385.5 1891.5,-385.5 1891.5,-355.5 1649.5,-355.5"/>
<text text-anchor="start" x="1656.5" y="-366.9" font-family="Arial" font-size="14.00" fill="#000000">deleted_at </text>
<text text-anchor="start" x="1725.7566" y="-366.9" font-family="Arial" font-size="14.00" fill="#666666">[datetime]</text>
</g>
<!-- game_play_logs&#45;&gt;editions -->
<g id="edge5" class="edge">
<title>game_play_logs:edition_id&#45;&gt;editions:id</title>
<path fill="none" stroke="#000000" d="M1639.2191,-580.0306C1536.9752,-570.0808 1671.299,-404.3657 1597.5,-313 1503.3501,-196.4392 1437.3353,-180.5 1287.5,-180.5"/>
<polygon fill="#000000" stroke="#000000" points="1639.5104,-580.0438 1649.2947,-584.9953 1644.5052,-580.2719 1649.5,-580.5 1649.5,-580.5 1649.5,-580.5 1644.5052,-580.2719 1649.7053,-576.0047 1639.5104,-580.0438 1639.5104,-580.0438"/>
<text text-anchor="start" x="1396.439" y="-590.5" font-family="Arial" font-size="10.00" fill="#000000">FOREIGN KEY (edition_id) REFERENCES editions (id)</text>
</g>
<!-- product_keys -->
<g id="node7" class="node">
<title>product_keys</title>
<polygon fill="#efefef" stroke="transparent" points="1995.5,-565.5 1995.5,-600.5 2213.5,-600.5 2213.5,-565.5 1995.5,-565.5"/>
<polygon fill="none" stroke="#000000" points="1995.5,-565.5 1995.5,-600.5 2213.5,-600.5 2213.5,-565.5 1995.5,-565.5"/>
<text text-anchor="start" x="2002.3573" y="-578.3" font-family="Arial Bold" font-size="18.00" fill="#000000">product_keys</text>
<text text-anchor="start" x="2109.3889" y="-578.3" font-family="Arial" font-size="14.00" fill="#000000"> </text>
<text text-anchor="start" x="2113.2795" y="-578.3" font-family="Arial" font-size="14.00" fill="#666666">[BASE TABLE]</text>
<polygon fill="none" stroke="#000000" points="1995.5,-535.5 1995.5,-565.5 2213.5,-565.5 2213.5,-535.5 1995.5,-535.5"/>
<text text-anchor="start" x="2002.5" y="-546.9" font-family="Arial" font-size="14.00" fill="#000000">id </text>
<text text-anchor="start" x="2017.2798" y="-546.9" font-family="Arial" font-size="14.00" fill="#666666">[varchar(36)]</text>
<polygon fill="none" stroke="#000000" points="1995.5,-505.5 1995.5,-535.5 2213.5,-535.5 2213.5,-505.5 1995.5,-505.5"/>
<text text-anchor="start" x="2002.5" y="-516.9" font-family="Arial" font-size="14.00" fill="#000000">edition_id </text>
<text text-anchor="start" x="2066.2966" y="-516.9" font-family="Arial" font-size="14.00" fill="#666666">[varchar(36)]</text>
<polygon fill="none" stroke="#000000" points="1995.5,-475.5 1995.5,-505.5 2213.5,-505.5 2213.5,-475.5 1995.5,-475.5"/>
<text text-anchor="start" x="2002.5" y="-486.9" font-family="Arial" font-size="14.00" fill="#000000">product_key </text>
<text text-anchor="start" x="2082.6374" y="-486.9" font-family="Arial" font-size="14.00" fill="#666666">[varchar(29)]</text>
<polygon fill="none" stroke="#000000" points="1995.5,-445.5 1995.5,-475.5 2213.5,-475.5 2213.5,-445.5 1995.5,-445.5"/>
<text text-anchor="start" x="2002.5" y="-456.9" font-family="Arial" font-size="14.00" fill="#000000">created_at </text>
<text text-anchor="start" x="2072.528" y="-456.9" font-family="Arial" font-size="14.00" fill="#666666">[datetime]</text>
<polygon fill="none" stroke="#000000" points="1995.5,-415.5 1995.5,-445.5 2213.5,-445.5 2213.5,-415.5 1995.5,-415.5"/>
<text text-anchor="start" x="2002.5" y="-426.9" font-family="Arial" font-size="14.00" fill="#000000">status_id </text>
<text text-anchor="start" x="2062.4088" y="-426.9" font-family="Arial" font-size="14.00" fill="#666666">[tinyint(4)]</text>
</g>
<!-- product_keys&#45;&gt;editions -->
<g id="edge6" class="edge">
<title>product_keys:edition_id&#45;&gt;editions:id</title>
<path fill="none" stroke="#000000" d="M1985.2826,-519.8637C1908.8878,-509.5346 2009.5777,-376.0905 1943.5,-313 1835.9346,-210.2974 1436.2217,-180.5 1287.5,-180.5"/>
<polygon fill="#000000" stroke="#000000" points="1985.5193,-519.8783 1995.2203,-524.9913 1990.5097,-520.1892 1995.5,-520.5 1995.5,-520.5 1995.5,-520.5 1990.5097,-520.1892 1995.7797,-516.0087 1985.5193,-519.8783 1985.5193,-519.8783"/>
<text text-anchor="start" x="2002.439" y="-530.5" font-family="Arial" font-size="10.00" fill="#000000">FOREIGN KEY (edition_id) REFERENCES editions (id)</text>
</g>
</g>
</svg>
