<?xml version="1.0" encoding="UTF-8" standalone="no"?>
<!DOCTYPE svg PUBLIC "-//W3C//DTD SVG 1.1//EN"
 "http://www.w3.org/Graphics/SVG/1.1/DTD/svg11.dtd">
<!-- Generated by graphviz version 2.40.1 (20161225.0304)
 -->
<!-- Title: editions Pages: 1 -->
<svg width="782pt" height="592pt"
 viewBox="0.00 0.00 781.50 592.00" xmlns="http://www.w3.org/2000/svg" xmlns:xlink="http://www.w3.org/1999/xlink">
<g id="graph0" class="graph" transform="scale(1 1) rotate(0) translate(4 588)">
<title>editions</title>
<polygon fill="#ffffff" stroke="transparent" points="-4,4 -4,-588 777.5,-588 777.5,4 -4,4"/>
<!-- editions -->
<g id="node1" class="node">
<title>editions</title>
<polygon fill="#efefef" stroke="transparent" points="336.5,-195.5 336.5,-230.5 509.5,-230.5 509.5,-195.5 336.5,-195.5"/>
<polygon fill="none" stroke="#000000" points="336.5,-195.5 336.5,-230.5 509.5,-230.5 509.5,-195.5 336.5,-195.5"/>
<text text-anchor="start" x="343.3654" y="-208.3" font-family="Arial Bold" font-size="18.00" fill="#000000">editions</text>
<text text-anchor="start" x="405.3808" y="-208.3" font-family="Arial" font-size="14.00" fill="#000000"> </text>
<text text-anchor="start" x="409.2714" y="-208.3" font-family="Arial" font-size="14.00" fill="#666666">[BASE TABLE]</text>
<polygon fill="none" stroke="#000000" points="336.5,-165.5 336.5,-195.5 509.5,-195.5 509.5,-165.5 336.5,-165.5"/>
<text text-anchor="start" x="343.5" y="-176.9" font-family="Arial" font-size="14.00" fill="#000000">id </text>
<text text-anchor="start" x="358.2798" y="-176.9" font-family="Arial" font-size="14.00" fill="#666666">[varchar(36)]</text>
<polygon fill="none" stroke="#000000" points="336.5,-135.5 336.5,-165.5 509.5,-165.5 509.5,-135.5 336.5,-135.5"/>
<text text-anchor="start" x="343.5" y="-146.9" font-family="Arial" font-size="14.00" fill="#000000">name </text>
<text text-anchor="start" x="382.399" y="-146.9" font-family="Arial" font-size="14.00" fill="#666666">[varchar(32)]</text>
<polygon fill="none" stroke="#000000" points="336.5,-105.5 336.5,-135.5 509.5,-135.5 509.5,-105.5 336.5,-105.5"/>
<text text-anchor="start" x="343.5" y="-116.9" font-family="Arial" font-size="14.00" fill="#000000">questionnaire_url </text>
<text text-anchor="start" x="454.7482" y="-116.9" font-family="Arial" font-size="14.00" fill="#666666">[text]</text>
<polygon fill="none" stroke="#000000" points="336.5,-75.5 336.5,-105.5 509.5,-105.5 509.5,-75.5 336.5,-75.5"/>
<text text-anchor="start" x="343.5" y="-86.9" font-family="Arial" font-size="14.00" fill="#000000">created_at </text>
<text text-anchor="start" x="413.528" y="-86.9" font-family="Arial" font-size="14.00" fill="#666666">[datetime]</text>
<polygon fill="none" stroke="#000000" points="336.5,-45.5 336.5,-75.5 509.5,-75.5 509.5,-45.5 336.5,-45.5"/>
<text text-anchor="start" x="343.5" y="-56.9" font-family="Arial" font-size="14.00" fill="#000000">deleted_at </text>
<text text-anchor="start" x="412.7566" y="-56.9" font-family="Arial" font-size="14.00" fill="#666666">[datetime]</text>
<polygon fill="none" stroke="#000000" stroke-width="3" points="334.5,-44.5 334.5,-232.5 510.5,-232.5 510.5,-44.5 334.5,-44.5"/>
</g>
<!-- edition_game_version_relations -->
<g id="node2" class="node">
<title>edition_game_version_relations</title>
<polygon fill="#efefef" stroke="transparent" points="43.5,-460.5 43.5,-495.5 408.5,-495.5 408.5,-460.5 43.5,-460.5"/>
<polygon fill="none" stroke="#000000" points="43.5,-460.5 43.5,-495.5 408.5,-495.5 408.5,-460.5 43.5,-460.5"/>
<text text-anchor="start" x="50.3444" y="-473.3" font-family="Arial Bold" font-size="18.00" fill="#000000">edition_game_version_relations</text>
<text text-anchor="start" x="304.4018" y="-473.3" font-family="Arial" font-size="14.00" fill="#000000"> </text>
<text text-anchor="start" x="308.2924" y="-473.3" font-family="Arial" font-size="14.00" fill="#666666">[BASE TABLE]</text>
<polygon fill="none" stroke="#000000" points="43.5,-430.5 43.5,-460.5 408.5,-460.5 408.5,-430.5 43.5,-430.5"/>
<text text-anchor="start" x="50.5" y="-441.9" font-family="Arial" font-size="14.00" fill="#000000">edition_id </text>
<text text-anchor="start" x="114.2966" y="-441.9" font-family="Arial" font-size="14.00" fill="#666666">[varchar(36)]</text>
<polygon fill="none" stroke="#000000" points="43.5,-400.5 43.5,-430.5 408.5,-430.5 408.5,-400.5 43.5,-400.5"/>
<text text-anchor="start" x="50.5" y="-411.9" font-family="Arial" font-size="14.00" fill="#000000">game_version_id </text>
<text text-anchor="start" x="160.9684" y="-411.9" font-family="Arial" font-size="14.00" fill="#666666">[varchar(36)]</text>
</g>
<!-- edition_game_version_relations&#45;&gt;editions -->
<g id="edge1" class="edge">
<title>edition_game_version_relations:edition_id&#45;&gt;editions:id</title>
<path fill="none" stroke="#000000" d="M418.4486,-443.9863C442.4129,-435.2629 420.9167,-390.6585 408.5,-358 391.3826,-312.9778 353.6174,-322.0222 336.5,-277 321.2581,-236.9108 293.6111,-180.5 336.5,-180.5"/>
<polygon fill="#000000" stroke="#000000" points="418.3862,-443.9957 407.8231,-441.0512 413.4431,-444.7478 408.5,-445.5 408.5,-445.5 408.5,-445.5 413.4431,-444.7478 409.1769,-449.9488 418.3862,-443.9957 418.3862,-443.9957"/>
<text text-anchor="start" x="415.439" y="-455.5" font-family="Arial" font-size="10.00" fill="#000000">FOREIGN KEY (edition_id) REFERENCES editions (id)</text>
</g>
<!-- product_keys -->
<g id="node3" class="node">
<title>product_keys</title>
<polygon fill="#efefef" stroke="transparent" points="512.5,-505.5 512.5,-540.5 730.5,-540.5 730.5,-505.5 512.5,-505.5"/>
<polygon fill="none" stroke="#000000" points="512.5,-505.5 512.5,-540.5 730.5,-540.5 730.5,-505.5 512.5,-505.5"/>
<text text-anchor="start" x="519.3573" y="-518.3" font-family="Arial Bold" font-size="18.00" fill="#000000">product_keys</text>
<text text-anchor="start" x="626.3889" y="-518.3" font-family="Arial" font-size="14.00" fill="#000000"> </text>
<text text-anchor="start" x="630.2795" y="-518.3" font-family="Arial" font-size="14.00" fill="#666666">[BASE TABLE]</text>
<polygon fill="none" stroke="#000000" points="512.5,-475.5 512.5,-505.5 730.5,-505.5 730.5,-475.5 512.5,-475.5"/>
<text text-anchor="start" x="519.5" y="-486.9" font-family="Arial" font-size="14.00" fill="#000000">id </text>
<text text-anchor="start" x="534.2798" y="-486.9" font-family="Arial" font-size="14.00" fill="#666666">[varchar(36)]</text>
<polygon fill="none" stroke="#000000" points="512.5,-445.5 512.5,-475.5 730.5,-475.5 730.5,-445.5 512.5,-445.5"/>
<text text-anchor="start" x="519.5" y="-456.9" font-family="Arial" font-size="14.00" fill="#000000">edition_id </text>
<text text-anchor="start" x="583.2966" y="-456.9" font-family="Arial" font-size="14.00" fill="#666666">[varchar(36)]</text>
<polygon fill="none" stroke="#000000" points="512.5,-415.5 512.5,-445.5 730.5,-445.5 730.5,-415.5 512.5,-415.5"/>
<text text-anchor="start" x="519.5" y="-426.9" font-family="Arial" font-size="14.00" fill="#000000">product_key </text>
<text text-anchor="start" x="599.6374" y="-426.9" font-family="Arial" font-size="14.00" fill="#666666">[varchar(29)]</text>
<polygon fill="none" stroke="#000000" points="512.5,-385.5 512.5,-415.5 730.5,-415.5 730.5,-385.5 512.5,-385.5"/>
<text text-anchor="start" x="519.5" y="-396.9" font-family="Arial" font-size="14.00" fill="#000000">created_at </text>
<text text-anchor="start" x="589.528" y="-396.9" font-family="Arial" font-size="14.00" fill="#666666">[datetime]</text>
<polygon fill="none" stroke="#000000" points="512.5,-355.5 512.5,-385.5 730.5,-385.5 730.5,-355.5 512.5,-355.5"/>
<text text-anchor="start" x="519.5" y="-366.9" font-family="Arial" font-size="14.00" fill="#000000">deleted_at </text>
<text text-anchor="start" x="588.7566" y="-366.9" font-family="Arial" font-size="14.00" fill="#666666">[datetime]</text>
</g>
<!-- product_keys&#45;&gt;editions -->
<g id="edge2" class="edge">
<title>product_keys:edition_id&#45;&gt;editions:id</title>
<path fill="none" stroke="#000000" d="M505.8012,-453.0107C492.0931,-408.4828 537.5745,-180.5 509.5,-180.5"/>
<polygon fill="#000000" stroke="#000000" points="505.8332,-453.0465 509.1459,-463.5 509.1666,-456.7732 512.5,-460.5 512.5,-460.5 512.5,-460.5 509.1666,-456.7732 515.8541,-457.5 505.8332,-453.0465 505.8332,-453.0465"/>
<text text-anchor="start" x="519.439" y="-470.5" font-family="Arial" font-size="10.00" fill="#000000">FOREIGN KEY (edition_id) REFERENCES editions (id)</text>
</g>
</g>
</svg>
