<?xml version="1.0" encoding="UTF-8" standalone="no"?>
<!DOCTYPE svg PUBLIC "-//W3C//DTD SVG 1.1//EN"
 "http://www.w3.org/Graphics/SVG/1.1/DTD/svg11.dtd">
<!-- Generated by graphviz version 12.1.2 (20240928.0832)
 -->
<!-- Title: editions Pages: 1 -->
<svg width="1164pt" height="725pt"
 viewBox="0.00 0.00 1163.85 725.20" xmlns="http://www.w3.org/2000/svg" xmlns:xlink="http://www.w3.org/1999/xlink">
<g id="graph0" class="graph" transform="scale(1 1) rotate(0) translate(4 721.2)">
<title>editions</title>
<polygon fill="white" stroke="none" points="-4,4 -4,-721.2 1159.85,-721.2 1159.85,4 -4,4"/>
<!-- editions -->
<g id="node1" class="node">
<title>editions</title>
<polygon fill="#efefef" stroke="none" points="547.17,-200.2 547.17,-235.8 742.66,-235.8 742.66,-200.2 547.17,-200.2"/>
<polygon fill="none" stroke="black" points="547.17,-200.2 547.17,-235.8 742.66,-235.8 742.66,-200.2 547.17,-200.2"/>
<text text-anchor="start" x="554.17" y="-213.6" font-family="Arial Bold" font-size="18.00">editions</text>
<text text-anchor="start" x="611.17" y="-213.6" font-family="Arial" font-size="14.00">    </text>
<text text-anchor="start" x="642.29" y="-213.6" font-family="Arial" font-size="14.00" fill="#666666">[BASE TABLE]</text>
<polygon fill="none" stroke="black" points="547.17,-169.4 547.17,-200.2 742.66,-200.2 742.66,-169.4 547.17,-169.4"/>
<text text-anchor="start" x="554.17" y="-181.6" font-family="Arial" font-size="14.00">id </text>
<text text-anchor="start" x="568.96" y="-181.6" font-family="Arial" font-size="14.00" fill="#666666">[varchar(36)]</text>
<polygon fill="none" stroke="black" points="547.17,-138.6 547.17,-169.4 742.66,-169.4 742.66,-138.6 547.17,-138.6"/>
<text text-anchor="start" x="554.17" y="-150.8" font-family="Arial" font-size="14.00">name </text>
<text text-anchor="start" x="593.08" y="-150.8" font-family="Arial" font-size="14.00" fill="#666666">[varchar(32)]</text>
<polygon fill="none" stroke="black" points="547.17,-107.8 547.17,-138.6 742.66,-138.6 742.66,-107.8 547.17,-107.8"/>
<text text-anchor="start" x="554.17" y="-120" font-family="Arial" font-size="14.00">questionnaire_url </text>
<text text-anchor="start" x="665.47" y="-120" font-family="Arial" font-size="14.00" fill="#666666">[text]</text>
<polygon fill="none" stroke="black" points="547.17,-77 547.17,-107.8 742.66,-107.8 742.66,-77 547.17,-77"/>
<text text-anchor="start" x="554.17" y="-89.2" font-family="Arial" font-size="14.00">created_at </text>
<text text-anchor="start" x="624.22" y="-89.2" font-family="Arial" font-size="14.00" fill="#666666">[datetime]</text>
<polygon fill="none" stroke="black" points="547.17,-46.2 547.17,-77 742.66,-77 742.66,-46.2 547.17,-46.2"/>
<text text-anchor="start" x="554.17" y="-58.4" font-family="Arial" font-size="14.00">deleted_at </text>
<text text-anchor="start" x="623.45" y="-58.4" font-family="Arial" font-size="14.00" fill="#666666">[datetime]</text>
<polygon fill="none" stroke="black" stroke-width="3" points="545.67,-44.7 545.67,-237.3 744.16,-237.3 744.16,-44.7 545.67,-44.7"/>
</g>
<!-- edition_game_version_relations -->
<g id="node2" class="node">
<title>edition_game_version_relations</title>
<polygon fill="#efefef" stroke="none" points="43.2,-530.6 43.2,-566.2 412.63,-566.2 412.63,-530.6 43.2,-530.6"/>
<polygon fill="none" stroke="black" points="43.2,-530.6 43.2,-566.2 412.63,-566.2 412.63,-530.6 43.2,-530.6"/>
<text text-anchor="start" x="50.2" y="-544" font-family="Arial Bold" font-size="18.00">edition_game_version_relations</text>
<text text-anchor="start" x="281.14" y="-544" font-family="Arial" font-size="14.00">    </text>
<text text-anchor="start" x="312.26" y="-544" font-family="Arial" font-size="14.00" fill="#666666">[BASE TABLE]</text>
<polygon fill="none" stroke="black" points="43.2,-499.8 43.2,-530.6 412.63,-530.6 412.63,-499.8 43.2,-499.8"/>
<text text-anchor="start" x="50.2" y="-512" font-family="Arial" font-size="14.00">edition_id </text>
<text text-anchor="start" x="114.03" y="-512" font-family="Arial" font-size="14.00" fill="#666666">[varchar(36)]</text>
<polygon fill="none" stroke="black" points="43.2,-469 43.2,-499.8 412.63,-499.8 412.63,-469 43.2,-469"/>
<text text-anchor="start" x="50.2" y="-481.2" font-family="Arial" font-size="14.00">game_version_id </text>
<text text-anchor="start" x="160.71" y="-481.2" font-family="Arial" font-size="14.00" fill="#666666">[varchar(36)]</text>
</g>
<!-- edition_game_version_relations&#45;&gt;editions -->
<g id="edge1" class="edge">
<title>edition_game_version_relations:edition_id&#45;&gt;editions:id</title>
<path fill="none" stroke="black" d="M423.96,-514.64C498.25,-505.91 431.01,-397.95 464.92,-318 491.99,-254.16 476.83,-184.8 546.17,-184.8"/>
<polygon fill="black" stroke="black" points="423.95,-514.64 413.72,-510.69 418.62,-514.93 414.3,-515.16 414.3,-515.16 414.3,-515.16 418.62,-514.93 414.21,-519.68 423.95,-514.64"/>
<text text-anchor="start" x="420.63" y="-525.2" font-family="Arial" font-size="10.00">FOREIGN KEY (edition_id) REFERENCES editions (id)</text>
</g>
<!-- game_play_logs -->
<g id="node3" class="node">
<title>game_play_logs</title>
<polygon fill="#efefef" stroke="none" points="516.68,-638.4 516.68,-674 773.15,-674 773.15,-638.4 516.68,-638.4"/>
<polygon fill="none" stroke="black" points="516.68,-638.4 516.68,-674 773.15,-674 773.15,-638.4 516.68,-638.4"/>
<text text-anchor="start" x="523.68" y="-651.8" font-family="Arial Bold" font-size="18.00">game_play_logs</text>
<text text-anchor="start" x="641.66" y="-651.8" font-family="Arial" font-size="14.00">    </text>
<text text-anchor="start" x="672.78" y="-651.8" font-family="Arial" font-size="14.00" fill="#666666">[BASE TABLE]</text>
<polygon fill="none" stroke="black" points="516.68,-607.6 516.68,-638.4 773.15,-638.4 773.15,-607.6 516.68,-607.6"/>
<text text-anchor="start" x="523.68" y="-619.8" font-family="Arial" font-size="14.00">id </text>
<text text-anchor="start" x="538.47" y="-619.8" font-family="Arial" font-size="14.00" fill="#666666">[varchar(36)]</text>
<polygon fill="none" stroke="black" points="516.68,-576.8 516.68,-607.6 773.15,-607.6 773.15,-576.8 516.68,-576.8"/>
<text text-anchor="start" x="523.68" y="-589" font-family="Arial" font-size="14.00">edition_id </text>
<text text-anchor="start" x="587.51" y="-589" font-family="Arial" font-size="14.00" fill="#666666">[varchar(36)]</text>
<polygon fill="none" stroke="black" points="516.68,-546 516.68,-576.8 773.15,-576.8 773.15,-546 516.68,-546"/>
<text text-anchor="start" x="523.68" y="-558.2" font-family="Arial" font-size="14.00">game_id </text>
<text text-anchor="start" x="581.28" y="-558.2" font-family="Arial" font-size="14.00" fill="#666666">[varchar(36)]</text>
<polygon fill="none" stroke="black" points="516.68,-515.2 516.68,-546 773.15,-546 773.15,-515.2 516.68,-515.2"/>
<text text-anchor="start" x="523.68" y="-527.4" font-family="Arial" font-size="14.00">game_version_id </text>
<text text-anchor="start" x="634.19" y="-527.4" font-family="Arial" font-size="14.00" fill="#666666">[varchar(36)]</text>
<polygon fill="none" stroke="black" points="516.68,-484.4 516.68,-515.2 773.15,-515.2 773.15,-484.4 516.68,-484.4"/>
<text text-anchor="start" x="523.68" y="-496.6" font-family="Arial" font-size="14.00">start_time </text>
<text text-anchor="start" x="589.03" y="-496.6" font-family="Arial" font-size="14.00" fill="#666666">[datetime]</text>
<polygon fill="none" stroke="black" points="516.68,-453.6 516.68,-484.4 773.15,-484.4 773.15,-453.6 516.68,-453.6"/>
<text text-anchor="start" x="523.68" y="-465.8" font-family="Arial" font-size="14.00">end_time </text>
<text text-anchor="start" x="585.17" y="-465.8" font-family="Arial" font-size="14.00" fill="#666666">[datetime]</text>
<polygon fill="none" stroke="black" points="516.68,-422.8 516.68,-453.6 773.15,-453.6 773.15,-422.8 516.68,-422.8"/>
<text text-anchor="start" x="523.68" y="-435" font-family="Arial" font-size="14.00">created_at </text>
<text text-anchor="start" x="593.73" y="-435" font-family="Arial" font-size="14.00" fill="#666666">[datetime]</text>
<polygon fill="none" stroke="black" points="516.68,-392 516.68,-422.8 773.15,-422.8 773.15,-392 516.68,-392"/>
<text text-anchor="start" x="523.68" y="-404.2" font-family="Arial" font-size="14.00">updated_at </text>
<text text-anchor="start" x="597.64" y="-404.2" font-family="Arial" font-size="14.00" fill="#666666">[datetime]</text>
<polygon fill="none" stroke="black" points="516.68,-361.2 516.68,-392 773.15,-392 773.15,-361.2 516.68,-361.2"/>
<text text-anchor="start" x="523.68" y="-373.4" font-family="Arial" font-size="14.00">deleted_at </text>
<text text-anchor="start" x="592.97" y="-373.4" font-family="Arial" font-size="14.00" fill="#666666">[datetime]</text>
</g>
<!-- game_play_logs&#45;&gt;editions -->
<g id="edge2" class="edge">
<title>game_play_logs:edition_id&#45;&gt;editions:id</title>
<path fill="none" stroke="black" d="M782.62,-586.44C815.18,-536.92 785.86,-184.8 743.66,-184.8"/>
<polygon fill="black" stroke="black" points="782.69,-586.39 771.89,-588.29 778.28,-589.39 774.7,-591.82 774.7,-591.82 774.7,-591.82 778.28,-589.39 776.95,-595.73 782.69,-586.39"/>
<text text-anchor="start" x="651.05" y="-576.2" font-family="Arial" font-size="10.00">FOREIGN KEY (edition_id) REFERENCES editions (id)</text>
</g>
<!-- product_keys -->
<g id="node4" class="node">
<title>product_keys</title>
<polygon fill="#efefef" stroke="none" points="877.18,-576.8 877.18,-612.4 1112.65,-612.4 1112.65,-576.8 877.18,-576.8"/>
<polygon fill="none" stroke="black" points="877.18,-576.8 877.18,-612.4 1112.65,-612.4 1112.65,-576.8 877.18,-576.8"/>
<text text-anchor="start" x="884.18" y="-590.2" font-family="Arial Bold" font-size="18.00">product_keys</text>
<text text-anchor="start" x="981.16" y="-590.2" font-family="Arial" font-size="14.00">    </text>
<text text-anchor="start" x="1012.28" y="-590.2" font-family="Arial" font-size="14.00" fill="#666666">[BASE TABLE]</text>
<polygon fill="none" stroke="black" points="877.18,-546 877.18,-576.8 1112.65,-576.8 1112.65,-546 877.18,-546"/>
<text text-anchor="start" x="884.18" y="-558.2" font-family="Arial" font-size="14.00">id </text>
<text text-anchor="start" x="898.97" y="-558.2" font-family="Arial" font-size="14.00" fill="#666666">[varchar(36)]</text>
<polygon fill="none" stroke="black" points="877.18,-515.2 877.18,-546 1112.65,-546 1112.65,-515.2 877.18,-515.2"/>
<text text-anchor="start" x="884.18" y="-527.4" font-family="Arial" font-size="14.00">edition_id </text>
<text text-anchor="start" x="948.01" y="-527.4" font-family="Arial" font-size="14.00" fill="#666666">[varchar(36)]</text>
<polygon fill="none" stroke="black" points="877.18,-484.4 877.18,-515.2 1112.65,-515.2 1112.65,-484.4 877.18,-484.4"/>
<text text-anchor="start" x="884.18" y="-496.6" font-family="Arial" font-size="14.00">product_key </text>
<text text-anchor="start" x="964.34" y="-496.6" font-family="Arial" font-size="14.00" fill="#666666">[varchar(29)]</text>
<polygon fill="none" stroke="black" points="877.18,-453.6 877.18,-484.4 1112.65,-484.4 1112.65,-453.6 877.18,-453.6"/>
<text text-anchor="start" x="884.18" y="-465.8" font-family="Arial" font-size="14.00">created_at </text>
<text text-anchor="start" x="954.23" y="-465.8" font-family="Arial" font-size="14.00" fill="#666666">[datetime]</text>
<polygon fill="none" stroke="black" points="877.18,-422.8 877.18,-453.6 1112.65,-453.6 1112.65,-422.8 877.18,-422.8"/>
<text text-anchor="start" x="884.18" y="-435" font-family="Arial" font-size="14.00">status_id </text>
<text text-anchor="start" x="944.11" y="-435" font-family="Arial" font-size="14.00" fill="#666666">[tinyint(4)]</text>
</g>
<!-- product_keys&#45;&gt;editions -->
<g id="edge3" class="edge">
<title>product_keys:edition_id&#45;&gt;editions:id</title>
<path fill="none" stroke="black" d="M866.09,-530.1C784.98,-521.53 860.69,-404.48 824.92,-318 798.41,-253.92 813,-184.8 743.66,-184.8"/>
<polygon fill="black" stroke="black" points="865.86,-530.09 875.62,-535.08 871.19,-530.35 875.51,-530.57 875.51,-530.57 875.51,-530.57 871.19,-530.35 876.07,-526.09 865.86,-530.09"/>
<text text-anchor="start" x="688.04" y="-514.6" font-family="Arial" font-size="10.00">FOREIGN KEY (edition_id) REFERENCES editions (id)</text>
</g>
</g>
</svg>
