<?xml version="1.0" encoding="UTF-8" standalone="no"?>
<!DOCTYPE svg PUBLIC "-//W3C//DTD SVG 1.1//EN"
 "http://www.w3.org/Graphics/SVG/1.1/DTD/svg11.dtd">
<!-- Generated by graphviz version 2.40.1 (20161225.0304)
 -->
<!-- Title: editions Pages: 1 -->
<svg width="1480pt" height="712pt"
 viewBox="0.00 0.00 1479.50 712.00" xmlns="http://www.w3.org/2000/svg" xmlns:xlink="http://www.w3.org/1999/xlink">
<g id="graph0" class="graph" transform="scale(1 1) rotate(0) translate(4 708)">
<title>editions</title>
<polygon fill="#ffffff" stroke="transparent" points="-4,4 -4,-708 1475.5,-708 1475.5,4 -4,4"/>
<!-- editions -->
<g id="node1" class="node">
<title>editions</title>
<polygon fill="#efefef" stroke="transparent" points="723.5,-195.5 723.5,-230.5 896.5,-230.5 896.5,-195.5 723.5,-195.5"/>
<polygon fill="none" stroke="#000000" points="723.5,-195.5 723.5,-230.5 896.5,-230.5 896.5,-195.5 723.5,-195.5"/>
<text text-anchor="start" x="730.3654" y="-208.3" font-family="Arial Bold" font-size="18.00" fill="#000000">editions</text>
<text text-anchor="start" x="792.3808" y="-208.3" font-family="Arial" font-size="14.00" fill="#000000"> </text>
<text text-anchor="start" x="796.2714" y="-208.3" font-family="Arial" font-size="14.00" fill="#666666">[BASE TABLE]</text>
<polygon fill="none" stroke="#000000" points="723.5,-165.5 723.5,-195.5 896.5,-195.5 896.5,-165.5 723.5,-165.5"/>
<text text-anchor="start" x="730.5" y="-176.9" font-family="Arial" font-size="14.00" fill="#000000">id </text>
<text text-anchor="start" x="745.2798" y="-176.9" font-family="Arial" font-size="14.00" fill="#666666">[varchar(36)]</text>
<polygon fill="none" stroke="#000000" points="723.5,-135.5 723.5,-165.5 896.5,-165.5 896.5,-135.5 723.5,-135.5"/>
<text text-anchor="start" x="730.5" y="-146.9" font-family="Arial" font-size="14.00" fill="#000000">name </text>
<text text-anchor="start" x="769.399" y="-146.9" font-family="Arial" font-size="14.00" fill="#666666">[varchar(32)]</text>
<polygon fill="none" stroke="#000000" points="723.5,-105.5 723.5,-135.5 896.5,-135.5 896.5,-105.5 723.5,-105.5"/>
<text text-anchor="start" x="730.5" y="-116.9" font-family="Arial" font-size="14.00" fill="#000000">questionnaire_url </text>
<text text-anchor="start" x="841.7482" y="-116.9" font-family="Arial" font-size="14.00" fill="#666666">[text]</text>
<polygon fill="none" stroke="#000000" points="723.5,-75.5 723.5,-105.5 896.5,-105.5 896.5,-75.5 723.5,-75.5"/>
<text text-anchor="start" x="730.5" y="-86.9" font-family="Arial" font-size="14.00" fill="#000000">created_at </text>
<text text-anchor="start" x="800.528" y="-86.9" font-family="Arial" font-size="14.00" fill="#666666">[datetime]</text>
<polygon fill="none" stroke="#000000" points="723.5,-45.5 723.5,-75.5 896.5,-75.5 896.5,-45.5 723.5,-45.5"/>
<text text-anchor="start" x="730.5" y="-56.9" font-family="Arial" font-size="14.00" fill="#000000">deleted_at </text>
<text text-anchor="start" x="799.7566" y="-56.9" font-family="Arial" font-size="14.00" fill="#666666">[datetime]</text>
<polygon fill="none" stroke="#000000" stroke-width="3" points="721.5,-44.5 721.5,-232.5 897.5,-232.5 897.5,-44.5 721.5,-44.5"/>
</g>
<!-- edition_game_version_relations -->
<g id="node2" class="node">
<title>edition_game_version_relations</title>
<polygon fill="#efefef" stroke="transparent" points="43.5,-520.5 43.5,-555.5 408.5,-555.5 408.5,-520.5 43.5,-520.5"/>
<polygon fill="none" stroke="#000000" points="43.5,-520.5 43.5,-555.5 408.5,-555.5 408.5,-520.5 43.5,-520.5"/>
<text text-anchor="start" x="50.3444" y="-533.3" font-family="Arial Bold" font-size="18.00" fill="#000000">edition_game_version_relations</text>
<text text-anchor="start" x="304.4018" y="-533.3" font-family="Arial" font-size="14.00" fill="#000000"> </text>
<text text-anchor="start" x="308.2924" y="-533.3" font-family="Arial" font-size="14.00" fill="#666666">[BASE TABLE]</text>
<polygon fill="none" stroke="#000000" points="43.5,-490.5 43.5,-520.5 408.5,-520.5 408.5,-490.5 43.5,-490.5"/>
<text text-anchor="start" x="50.5" y="-501.9" font-family="Arial" font-size="14.00" fill="#000000">edition_id </text>
<text text-anchor="start" x="114.2966" y="-501.9" font-family="Arial" font-size="14.00" fill="#666666">[varchar(36)]</text>
<polygon fill="none" stroke="#000000" points="43.5,-460.5 43.5,-490.5 408.5,-490.5 408.5,-460.5 43.5,-460.5"/>
<text text-anchor="start" x="50.5" y="-471.9" font-family="Arial" font-size="14.00" fill="#000000">game_version_id </text>
<text text-anchor="start" x="160.9684" y="-471.9" font-family="Arial" font-size="14.00" fill="#666666">[varchar(36)]</text>
</g>
<!-- edition_game_version_relations&#45;&gt;editions -->
<g id="edge1" class="edge">
<title>edition_game_version_relations:edition_id&#45;&gt;editions:id</title>
<path fill="none" stroke="#000000" d="M418.5127,-504.8875C489.7744,-495.4363 406.7986,-378.8709 460.5,-313 543.2033,-211.555 592.6149,-180.5 723.5,-180.5"/>
<polygon fill="#000000" stroke="#000000" points="418.4813,-504.8893 408.2252,-501.0084 413.4907,-505.1947 408.5,-505.5 408.5,-505.5 408.5,-505.5 413.4907,-505.1947 408.7748,-509.9916 418.4813,-504.8893 418.4813,-504.8893"/>
<text text-anchor="start" x="285.439" y="-489.5" font-family="Arial" font-size="10.00" fill="#000000">FOREIGN KEY (edition_id) REFERENCES editions (id)</text>
</g>
<!-- game_feedbacks -->
<g id="node3" class="node">
<title>game_feedbacks</title>
<polygon fill="#efefef" stroke="transparent" points="512.5,-565.5 512.5,-600.5 760.5,-600.5 760.5,-565.5 512.5,-565.5"/>
<polygon fill="none" stroke="#000000" points="512.5,-565.5 512.5,-600.5 760.5,-600.5 760.5,-565.5 512.5,-565.5"/>
<text text-anchor="start" x="519.348" y="-578.3" font-family="Arial Bold" font-size="18.00" fill="#000000">game_feedbacks</text>
<text text-anchor="start" x="656.3982" y="-578.3" font-family="Arial" font-size="14.00" fill="#000000"> </text>
<text text-anchor="start" x="660.2888" y="-578.3" font-family="Arial" font-size="14.00" fill="#666666">[BASE TABLE]</text>
<polygon fill="none" stroke="#000000" points="512.5,-535.5 512.5,-565.5 760.5,-565.5 760.5,-535.5 512.5,-535.5"/>
<text text-anchor="start" x="519.5" y="-546.9" font-family="Arial" font-size="14.00" fill="#000000">id </text>
<text text-anchor="start" x="534.2798" y="-546.9" font-family="Arial" font-size="14.00" fill="#666666">[varchar(36)]</text>
<polygon fill="none" stroke="#000000" points="512.5,-505.5 512.5,-535.5 760.5,-535.5 760.5,-505.5 512.5,-505.5"/>
<text text-anchor="start" x="519.5" y="-516.9" font-family="Arial" font-size="14.00" fill="#000000">edition_id </text>
<text text-anchor="start" x="583.2966" y="-516.9" font-family="Arial" font-size="14.00" fill="#666666">[varchar(36)]</text>
<polygon fill="none" stroke="#000000" points="512.5,-475.5 512.5,-505.5 760.5,-505.5 760.5,-475.5 512.5,-475.5"/>
<text text-anchor="start" x="519.5" y="-486.9" font-family="Arial" font-size="14.00" fill="#000000">game_version_id </text>
<text text-anchor="start" x="629.9684" y="-486.9" font-family="Arial" font-size="14.00" fill="#666666">[varchar(36)]</text>
<polygon fill="none" stroke="#000000" points="512.5,-445.5 512.5,-475.5 760.5,-475.5 760.5,-445.5 512.5,-445.5"/>
<text text-anchor="start" x="519.5" y="-456.9" font-family="Arial" font-size="14.00" fill="#000000">comment </text>
<text text-anchor="start" x="580.9502" y="-456.9" font-family="Arial" font-size="14.00" fill="#666666">[text]</text>
<polygon fill="none" stroke="#000000" points="512.5,-415.5 512.5,-445.5 760.5,-445.5 760.5,-415.5 512.5,-415.5"/>
<text text-anchor="start" x="519.5" y="-426.9" font-family="Arial" font-size="14.00" fill="#000000">created_at </text>
<text text-anchor="start" x="589.528" y="-426.9" font-family="Arial" font-size="14.00" fill="#666666">[datetime]</text>
</g>
<!-- game_feedbacks&#45;&gt;editions -->
<g id="edge2" class="edge">
<title>game_feedbacks:edition_id&#45;&gt;editions:id</title>
<path fill="none" stroke="#000000" d="M770.522,-519.7192C820.121,-511.1516 771.811,-433.7993 760.5,-373 752.1367,-328.0454 731.8633,-321.9546 723.5,-277 715.6556,-234.8346 680.6111,-180.5 723.5,-180.5"/>
<polygon fill="#000000" stroke="#000000" points="770.4698,-519.7231 760.1504,-516.0136 765.4849,-520.1116 760.5,-520.5 760.5,-520.5 760.5,-520.5 765.4849,-520.1116 760.8496,-524.9864 770.4698,-519.7231 770.4698,-519.7231"/>
<text text-anchor="start" x="767.439" y="-530.5" font-family="Arial" font-size="10.00" fill="#000000">FOREIGN KEY (edition_id) REFERENCES editions (id)</text>
</g>
<!-- game_play_logs -->
<g id="node4" class="node">
<title>game_play_logs</title>
<polygon fill="#efefef" stroke="transparent" points="864.5,-625.5 864.5,-660.5 1106.5,-660.5 1106.5,-625.5 864.5,-625.5"/>
<polygon fill="none" stroke="#000000" points="864.5,-625.5 864.5,-660.5 1106.5,-660.5 1106.5,-625.5 864.5,-625.5"/>
<text text-anchor="start" x="871.3549" y="-638.3" font-family="Arial Bold" font-size="18.00" fill="#000000">game_play_logs</text>
<text text-anchor="start" x="1002.3913" y="-638.3" font-family="Arial" font-size="14.00" fill="#000000"> </text>
<text text-anchor="start" x="1006.2819" y="-638.3" font-family="Arial" font-size="14.00" fill="#666666">[BASE TABLE]</text>
<polygon fill="none" stroke="#000000" points="864.5,-595.5 864.5,-625.5 1106.5,-625.5 1106.5,-595.5 864.5,-595.5"/>
<text text-anchor="start" x="871.5" y="-606.9" font-family="Arial" font-size="14.00" fill="#000000">id </text>
<text text-anchor="start" x="886.2798" y="-606.9" font-family="Arial" font-size="14.00" fill="#666666">[varchar(36)]</text>
<polygon fill="none" stroke="#000000" points="864.5,-565.5 864.5,-595.5 1106.5,-595.5 1106.5,-565.5 864.5,-565.5"/>
<text text-anchor="start" x="871.5" y="-576.9" font-family="Arial" font-size="14.00" fill="#000000">edition_id </text>
<text text-anchor="start" x="935.2966" y="-576.9" font-family="Arial" font-size="14.00" fill="#666666">[varchar(36)]</text>
<polygon fill="none" stroke="#000000" points="864.5,-535.5 864.5,-565.5 1106.5,-565.5 1106.5,-535.5 864.5,-535.5"/>
<text text-anchor="start" x="871.5" y="-546.9" font-family="Arial" font-size="14.00" fill="#000000">game_id </text>
<text text-anchor="start" x="929.0708" y="-546.9" font-family="Arial" font-size="14.00" fill="#666666">[varchar(36)]</text>
<polygon fill="none" stroke="#000000" points="864.5,-505.5 864.5,-535.5 1106.5,-535.5 1106.5,-505.5 864.5,-505.5"/>
<text text-anchor="start" x="871.5" y="-516.9" font-family="Arial" font-size="14.00" fill="#000000">game_version_id </text>
<text text-anchor="start" x="981.9684" y="-516.9" font-family="Arial" font-size="14.00" fill="#666666">[varchar(36)]</text>
<polygon fill="none" stroke="#000000" points="864.5,-475.5 864.5,-505.5 1106.5,-505.5 1106.5,-475.5 864.5,-475.5"/>
<text text-anchor="start" x="871.5" y="-486.9" font-family="Arial" font-size="14.00" fill="#000000">start_time </text>
<text text-anchor="start" x="936.838" y="-486.9" font-family="Arial" font-size="14.00" fill="#666666">[datetime]</text>
<polygon fill="none" stroke="#000000" points="864.5,-445.5 864.5,-475.5 1106.5,-475.5 1106.5,-445.5 864.5,-445.5"/>
<text text-anchor="start" x="871.5" y="-456.9" font-family="Arial" font-size="14.00" fill="#000000">end_time </text>
<text text-anchor="start" x="932.9614" y="-456.9" font-family="Arial" font-size="14.00" fill="#666666">[datetime]</text>
<polygon fill="none" stroke="#000000" points="864.5,-415.5 864.5,-445.5 1106.5,-445.5 1106.5,-415.5 864.5,-415.5"/>
<text text-anchor="start" x="871.5" y="-426.9" font-family="Arial" font-size="14.00" fill="#000000">created_at </text>
<text text-anchor="start" x="941.528" y="-426.9" font-family="Arial" font-size="14.00" fill="#666666">[datetime]</text>
<polygon fill="none" stroke="#000000" points="864.5,-385.5 864.5,-415.5 1106.5,-415.5 1106.5,-385.5 864.5,-385.5"/>
<text text-anchor="start" x="871.5" y="-396.9" font-family="Arial" font-size="14.00" fill="#000000">updated_at </text>
<text text-anchor="start" x="945.4326" y="-396.9" font-family="Arial" font-size="14.00" fill="#666666">[datetime]</text>
<polygon fill="none" stroke="#000000" points="864.5,-355.5 864.5,-385.5 1106.5,-385.5 1106.5,-355.5 864.5,-355.5"/>
<text text-anchor="start" x="871.5" y="-366.9" font-family="Arial" font-size="14.00" fill="#000000">deleted_at </text>
<text text-anchor="start" x="940.7566" y="-366.9" font-family="Arial" font-size="14.00" fill="#666666">[datetime]</text>
</g>
<!-- game_play_logs&#45;&gt;editions -->
<g id="edge3" class="edge">
<title>game_play_logs:edition_id&#45;&gt;editions:id</title>
<path fill="none" stroke="#000000" d="M854.7521,-578.2509C809.6327,-555.4091 844.6537,-365.1998 864.5,-313 872.1077,-292.9902 888.8923,-297.0098 896.5,-277 911.7419,-236.9108 939.3889,-180.5 896.5,-180.5"/>
<polygon fill="#000000" stroke="#000000" points="854.756,-578.2517 863.4883,-584.8848 859.628,-579.3759 864.5,-580.5 864.5,-580.5 864.5,-580.5 859.628,-579.3759 865.5117,-576.1152 854.756,-578.2517 854.756,-578.2517"/>
<text text-anchor="start" x="871.439" y="-590.5" font-family="Arial" font-size="10.00" fill="#000000">FOREIGN KEY (edition_id) REFERENCES editions (id)</text>
</g>
<!-- product_keys -->
<g id="node5" class="node">
<title>product_keys</title>
<polygon fill="#efefef" stroke="transparent" points="1210.5,-565.5 1210.5,-600.5 1428.5,-600.5 1428.5,-565.5 1210.5,-565.5"/>
<polygon fill="none" stroke="#000000" points="1210.5,-565.5 1210.5,-600.5 1428.5,-600.5 1428.5,-565.5 1210.5,-565.5"/>
<text text-anchor="start" x="1217.3573" y="-578.3" font-family="Arial Bold" font-size="18.00" fill="#000000">product_keys</text>
<text text-anchor="start" x="1324.3889" y="-578.3" font-family="Arial" font-size="14.00" fill="#000000"> </text>
<text text-anchor="start" x="1328.2795" y="-578.3" font-family="Arial" font-size="14.00" fill="#666666">[BASE TABLE]</text>
<polygon fill="none" stroke="#000000" points="1210.5,-535.5 1210.5,-565.5 1428.5,-565.5 1428.5,-535.5 1210.5,-535.5"/>
<text text-anchor="start" x="1217.5" y="-546.9" font-family="Arial" font-size="14.00" fill="#000000">id </text>
<text text-anchor="start" x="1232.2798" y="-546.9" font-family="Arial" font-size="14.00" fill="#666666">[varchar(36)]</text>
<polygon fill="none" stroke="#000000" points="1210.5,-505.5 1210.5,-535.5 1428.5,-535.5 1428.5,-505.5 1210.5,-505.5"/>
<text text-anchor="start" x="1217.5" y="-516.9" font-family="Arial" font-size="14.00" fill="#000000">edition_id </text>
<text text-anchor="start" x="1281.2966" y="-516.9" font-family="Arial" font-size="14.00" fill="#666666">[varchar(36)]</text>
<polygon fill="none" stroke="#000000" points="1210.5,-475.5 1210.5,-505.5 1428.5,-505.5 1428.5,-475.5 1210.5,-475.5"/>
<text text-anchor="start" x="1217.5" y="-486.9" font-family="Arial" font-size="14.00" fill="#000000">product_key </text>
<text text-anchor="start" x="1297.6374" y="-486.9" font-family="Arial" font-size="14.00" fill="#666666">[varchar(29)]</text>
<polygon fill="none" stroke="#000000" points="1210.5,-445.5 1210.5,-475.5 1428.5,-475.5 1428.5,-445.5 1210.5,-445.5"/>
<text text-anchor="start" x="1217.5" y="-456.9" font-family="Arial" font-size="14.00" fill="#000000">created_at </text>
<text text-anchor="start" x="1287.528" y="-456.9" font-family="Arial" font-size="14.00" fill="#666666">[datetime]</text>
<polygon fill="none" stroke="#000000" points="1210.5,-415.5 1210.5,-445.5 1428.5,-445.5 1428.5,-415.5 1210.5,-415.5"/>
<text text-anchor="start" x="1217.5" y="-426.9" font-family="Arial" font-size="14.00" fill="#000000">status_id </text>
<text text-anchor="start" x="1277.4088" y="-426.9" font-family="Arial" font-size="14.00" fill="#666666">[tinyint(4)]</text>
</g>
<!-- product_keys&#45;&gt;editions -->
<g id="edge4" class="edge">
<title>product_keys:edition_id&#45;&gt;editions:id</title>
<path fill="none" stroke="#000000" d="M1200.2411,-519.9016C1123.1804,-510.1822 1215.5238,-384.379 1158.5,-313 1077.0537,-211.0504 1026.9884,-180.5 896.5,-180.5"/>
<polygon fill="#000000" stroke="#000000" points="1200.517,-519.9176 1210.2379,-524.9924 1205.5085,-520.2088 1210.5,-520.5 1210.5,-520.5 1210.5,-520.5 1205.5085,-520.2088 1210.7621,-516.0076 1200.517,-519.9176 1200.517,-519.9176"/>
<text text-anchor="start" x="1217.439" y="-530.5" font-family="Arial" font-size="10.00" fill="#000000">FOREIGN KEY (edition_id) REFERENCES editions (id)</text>
</g>
</g>
</svg>
