<?xml version="1.0" encoding="UTF-8" standalone="no"?>
<!DOCTYPE svg PUBLIC "-//W3C//DTD SVG 1.1//EN"
 "http://www.w3.org/Graphics/SVG/1.1/DTD/svg11.dtd">
<!-- Generated by graphviz version 2.40.1 (20161225.0304)
 -->
<!-- Title: editions Pages: 1 -->
<svg width="1128pt" height="712pt"
 viewBox="0.00 0.00 1127.50 712.00" xmlns="http://www.w3.org/2000/svg" xmlns:xlink="http://www.w3.org/1999/xlink">
<g id="graph0" class="graph" transform="scale(1 1) rotate(0) translate(4 708)">
<title>editions</title>
<polygon fill="#ffffff" stroke="transparent" points="-4,4 -4,-708 1123.5,-708 1123.5,4 -4,4"/>
<!-- editions -->
<g id="node1" class="node">
<title>editions</title>
<polygon fill="#efefef" stroke="transparent" points="546.5,-195.5 546.5,-230.5 719.5,-230.5 719.5,-195.5 546.5,-195.5"/>
<polygon fill="none" stroke="#000000" points="546.5,-195.5 546.5,-230.5 719.5,-230.5 719.5,-195.5 546.5,-195.5"/>
<text text-anchor="start" x="553.3654" y="-208.3" font-family="Arial Bold" font-size="18.00" fill="#000000">editions</text>
<text text-anchor="start" x="615.3808" y="-208.3" font-family="Arial" font-size="14.00" fill="#000000"> </text>
<text text-anchor="start" x="619.2714" y="-208.3" font-family="Arial" font-size="14.00" fill="#666666">[BASE TABLE]</text>
<polygon fill="none" stroke="#000000" points="546.5,-165.5 546.5,-195.5 719.5,-195.5 719.5,-165.5 546.5,-165.5"/>
<text text-anchor="start" x="553.5" y="-176.9" font-family="Arial" font-size="14.00" fill="#000000">id </text>
<text text-anchor="start" x="568.2798" y="-176.9" font-family="Arial" font-size="14.00" fill="#666666">[varchar(36)]</text>
<polygon fill="none" stroke="#000000" points="546.5,-135.5 546.5,-165.5 719.5,-165.5 719.5,-135.5 546.5,-135.5"/>
<text text-anchor="start" x="553.5" y="-146.9" font-family="Arial" font-size="14.00" fill="#000000">name </text>
<text text-anchor="start" x="592.399" y="-146.9" font-family="Arial" font-size="14.00" fill="#666666">[varchar(32)]</text>
<polygon fill="none" stroke="#000000" points="546.5,-105.5 546.5,-135.5 719.5,-135.5 719.5,-105.5 546.5,-105.5"/>
<text text-anchor="start" x="553.5" y="-116.9" font-family="Arial" font-size="14.00" fill="#000000">questionnaire_url </text>
<text text-anchor="start" x="664.7482" y="-116.9" font-family="Arial" font-size="14.00" fill="#666666">[text]</text>
<polygon fill="none" stroke="#000000" points="546.5,-75.5 546.5,-105.5 719.5,-105.5 719.5,-75.5 546.5,-75.5"/>
<text text-anchor="start" x="553.5" y="-86.9" font-family="Arial" font-size="14.00" fill="#000000">created_at </text>
<text text-anchor="start" x="623.528" y="-86.9" font-family="Arial" font-size="14.00" fill="#666666">[datetime]</text>
<polygon fill="none" stroke="#000000" points="546.5,-45.5 546.5,-75.5 719.5,-75.5 719.5,-45.5 546.5,-45.5"/>
<text text-anchor="start" x="553.5" y="-56.9" font-family="Arial" font-size="14.00" fill="#000000">deleted_at </text>
<text text-anchor="start" x="622.7566" y="-56.9" font-family="Arial" font-size="14.00" fill="#666666">[datetime]</text>
<polygon fill="none" stroke="#000000" stroke-width="3" points="544.5,-44.5 544.5,-232.5 720.5,-232.5 720.5,-44.5 544.5,-44.5"/>
</g>
<!-- edition_game_version_relations -->
<g id="node2" class="node">
<title>edition_game_version_relations</title>
<polygon fill="#efefef" stroke="transparent" points="43.5,-520.5 43.5,-555.5 408.5,-555.5 408.5,-520.5 43.5,-520.5"/>
<polygon fill="none" stroke="#000000" points="43.5,-520.5 43.5,-555.5 408.5,-555.5 408.5,-520.5 43.5,-520.5"/>
<text text-anchor="start" x="50.3444" y="-533.3" font-family="Arial Bold" font-size="18.00" fill="#000000">edition_game_version_relations</text>
<text text-anchor="start" x="304.4018" y="-533.3" font-family="Arial" font-size="14.00" fill="#000000"> </text>
<text text-anchor="start" x="308.2924" y="-533.3" font-family="Arial" font-size="14.00" fill="#666666">[BASE TABLE]</text>
<polygon fill="none" stroke="#000000" points="43.5,-490.5 43.5,-520.5 408.5,-520.5 408.5,-490.5 43.5,-490.5"/>
<text text-anchor="start" x="50.5" y="-501.9" font-family="Arial" font-size="14.00" fill="#000000">edition_id </text>
<text text-anchor="start" x="114.2966" y="-501.9" font-family="Arial" font-size="14.00" fill="#666666">[varchar(36)]</text>
<polygon fill="none" stroke="#000000" points="43.5,-460.5 43.5,-490.5 408.5,-490.5 408.5,-460.5 43.5,-460.5"/>
<text text-anchor="start" x="50.5" y="-471.9" font-family="Arial" font-size="14.00" fill="#000000">game_version_id </text>
<text text-anchor="start" x="160.9684" y="-471.9" font-family="Arial" font-size="14.00" fill="#666666">[varchar(36)]</text>
</g>
<!-- edition_game_version_relations&#45;&gt;editions -->
<g id="edge1" class="edge">
<title>edition_game_version_relations:edition_id&#45;&gt;editions:id</title>
<path fill="none" stroke="#000000" d="M418.6089,-504.9467C491.3383,-496.3992 425.8632,-390.6088 460.5,-313 489.1125,-248.8894 476.2943,-180.5 546.5,-180.5"/>
<polygon fill="#000000" stroke="#000000" points="418.4851,-504.9534 408.254,-501.0067 413.4925,-505.2267 408.5,-505.5 408.5,-505.5 408.5,-505.5 413.4925,-505.2267 408.746,-509.9933 418.4851,-504.9534 418.4851,-504.9534"/>
<text text-anchor="start" x="415.439" y="-515.5" font-family="Arial" font-size="10.00" fill="#000000">FOREIGN KEY (edition_id) REFERENCES editions (id)</text>
</g>
<!-- game_play_logs -->
<g id="node3" class="node">
<title>game_play_logs</title>
<polygon fill="#efefef" stroke="transparent" points="512.5,-625.5 512.5,-660.5 754.5,-660.5 754.5,-625.5 512.5,-625.5"/>
<polygon fill="none" stroke="#000000" points="512.5,-625.5 512.5,-660.5 754.5,-660.5 754.5,-625.5 512.5,-625.5"/>
<text text-anchor="start" x="519.3549" y="-638.3" font-family="Arial Bold" font-size="18.00" fill="#000000">game_play_logs</text>
<text text-anchor="start" x="650.3913" y="-638.3" font-family="Arial" font-size="14.00" fill="#000000"> </text>
<text text-anchor="start" x="654.2819" y="-638.3" font-family="Arial" font-size="14.00" fill="#666666">[BASE TABLE]</text>
<polygon fill="none" stroke="#000000" points="512.5,-595.5 512.5,-625.5 754.5,-625.5 754.5,-595.5 512.5,-595.5"/>
<text text-anchor="start" x="519.5" y="-606.9" font-family="Arial" font-size="14.00" fill="#000000">id </text>
<text text-anchor="start" x="534.2798" y="-606.9" font-family="Arial" font-size="14.00" fill="#666666">[varchar(36)]</text>
<polygon fill="none" stroke="#000000" points="512.5,-565.5 512.5,-595.5 754.5,-595.5 754.5,-565.5 512.5,-565.5"/>
<text text-anchor="start" x="519.5" y="-576.9" font-family="Arial" font-size="14.00" fill="#000000">edition_id </text>
<text text-anchor="start" x="583.2966" y="-576.9" font-family="Arial" font-size="14.00" fill="#666666">[varchar(36)]</text>
<polygon fill="none" stroke="#000000" points="512.5,-535.5 512.5,-565.5 754.5,-565.5 754.5,-535.5 512.5,-535.5"/>
<text text-anchor="start" x="519.5" y="-546.9" font-family="Arial" font-size="14.00" fill="#000000">game_id </text>
<text text-anchor="start" x="577.0708" y="-546.9" font-family="Arial" font-size="14.00" fill="#666666">[varchar(36)]</text>
<polygon fill="none" stroke="#000000" points="512.5,-505.5 512.5,-535.5 754.5,-535.5 754.5,-505.5 512.5,-505.5"/>
<text text-anchor="start" x="519.5" y="-516.9" font-family="Arial" font-size="14.00" fill="#000000">game_version_id </text>
<text text-anchor="start" x="629.9684" y="-516.9" font-family="Arial" font-size="14.00" fill="#666666">[varchar(36)]</text>
<polygon fill="none" stroke="#000000" points="512.5,-475.5 512.5,-505.5 754.5,-505.5 754.5,-475.5 512.5,-475.5"/>
<text text-anchor="start" x="519.5" y="-486.9" font-family="Arial" font-size="14.00" fill="#000000">start_time </text>
<text text-anchor="start" x="584.838" y="-486.9" font-family="Arial" font-size="14.00" fill="#666666">[datetime]</text>
<polygon fill="none" stroke="#000000" points="512.5,-445.5 512.5,-475.5 754.5,-475.5 754.5,-445.5 512.5,-445.5"/>
<text text-anchor="start" x="519.5" y="-456.9" font-family="Arial" font-size="14.00" fill="#000000">end_time </text>
<text text-anchor="start" x="580.9614" y="-456.9" font-family="Arial" font-size="14.00" fill="#666666">[datetime]</text>
<polygon fill="none" stroke="#000000" points="512.5,-415.5 512.5,-445.5 754.5,-445.5 754.5,-415.5 512.5,-415.5"/>
<text text-anchor="start" x="519.5" y="-426.9" font-family="Arial" font-size="14.00" fill="#000000">created_at </text>
<text text-anchor="start" x="589.528" y="-426.9" font-family="Arial" font-size="14.00" fill="#666666">[datetime]</text>
<polygon fill="none" stroke="#000000" points="512.5,-385.5 512.5,-415.5 754.5,-415.5 754.5,-385.5 512.5,-385.5"/>
<text text-anchor="start" x="519.5" y="-396.9" font-family="Arial" font-size="14.00" fill="#000000">updated_at </text>
<text text-anchor="start" x="593.4326" y="-396.9" font-family="Arial" font-size="14.00" fill="#666666">[datetime]</text>
<polygon fill="none" stroke="#000000" points="512.5,-355.5 512.5,-385.5 754.5,-385.5 754.5,-355.5 512.5,-355.5"/>
<text text-anchor="start" x="519.5" y="-366.9" font-family="Arial" font-size="14.00" fill="#000000">deleted_at </text>
<text text-anchor="start" x="588.7566" y="-366.9" font-family="Arial" font-size="14.00" fill="#666666">[datetime]</text>
</g>
<!-- game_play_logs&#45;&gt;editions -->
<g id="edge2" class="edge">
<title>game_play_logs:edition_id&#45;&gt;editions:id</title>
<path fill="none" stroke="#000000" d="M502.5751,-578.1469C455.6831,-554.2633 476.5533,-355.7379 512.5,-313 572.6078,-241.5364 659.3922,-348.4636 719.5,-277 747.1069,-244.1775 762.3889,-180.5 719.5,-180.5"/>
<polygon fill="#000000" stroke="#000000" points="502.7697,-578.1929 511.4618,-584.8786 507.6349,-579.3465 512.5,-580.5 512.5,-580.5 512.5,-580.5 507.6349,-579.3465 513.5382,-576.1214 502.7697,-578.1929 502.7697,-578.1929"/>
<text text-anchor="start" x="519.439" y="-590.5" font-family="Arial" font-size="10.00" fill="#000000">FOREIGN KEY (edition_id) REFERENCES editions (id)</text>
</g>
<!-- product_keys -->
<g id="node4" class="node">
<title>product_keys</title>
<polygon fill="#efefef" stroke="transparent" points="858.5,-565.5 858.5,-600.5 1076.5,-600.5 1076.5,-565.5 858.5,-565.5"/>
<polygon fill="none" stroke="#000000" points="858.5,-565.5 858.5,-600.5 1076.5,-600.5 1076.5,-565.5 858.5,-565.5"/>
<text text-anchor="start" x="865.3573" y="-578.3" font-family="Arial Bold" font-size="18.00" fill="#000000">product_keys</text>
<text text-anchor="start" x="972.3889" y="-578.3" font-family="Arial" font-size="14.00" fill="#000000"> </text>
<text text-anchor="start" x="976.2795" y="-578.3" font-family="Arial" font-size="14.00" fill="#666666">[BASE TABLE]</text>
<polygon fill="none" stroke="#000000" points="858.5,-535.5 858.5,-565.5 1076.5,-565.5 1076.5,-535.5 858.5,-535.5"/>
<text text-anchor="start" x="865.5" y="-546.9" font-family="Arial" font-size="14.00" fill="#000000">id </text>
<text text-anchor="start" x="880.2798" y="-546.9" font-family="Arial" font-size="14.00" fill="#666666">[varchar(36)]</text>
<polygon fill="none" stroke="#000000" points="858.5,-505.5 858.5,-535.5 1076.5,-535.5 1076.5,-505.5 858.5,-505.5"/>
<text text-anchor="start" x="865.5" y="-516.9" font-family="Arial" font-size="14.00" fill="#000000">edition_id </text>
<text text-anchor="start" x="929.2966" y="-516.9" font-family="Arial" font-size="14.00" fill="#666666">[varchar(36)]</text>
<polygon fill="none" stroke="#000000" points="858.5,-475.5 858.5,-505.5 1076.5,-505.5 1076.5,-475.5 858.5,-475.5"/>
<text text-anchor="start" x="865.5" y="-486.9" font-family="Arial" font-size="14.00" fill="#000000">product_key </text>
<text text-anchor="start" x="945.6374" y="-486.9" font-family="Arial" font-size="14.00" fill="#666666">[varchar(29)]</text>
<polygon fill="none" stroke="#000000" points="858.5,-445.5 858.5,-475.5 1076.5,-475.5 1076.5,-445.5 858.5,-445.5"/>
<text text-anchor="start" x="865.5" y="-456.9" font-family="Arial" font-size="14.00" fill="#000000">created_at </text>
<text text-anchor="start" x="935.528" y="-456.9" font-family="Arial" font-size="14.00" fill="#666666">[datetime]</text>
<polygon fill="none" stroke="#000000" points="858.5,-415.5 858.5,-445.5 1076.5,-445.5 1076.5,-415.5 858.5,-415.5"/>
<text text-anchor="start" x="865.5" y="-426.9" font-family="Arial" font-size="14.00" fill="#000000">status_id </text>
<text text-anchor="start" x="925.4088" y="-426.9" font-family="Arial" font-size="14.00" fill="#666666">[tinyint(4)]</text>
</g>
<!-- product_keys&#45;&gt;editions -->
<g id="edge3" class="edge">
<title>product_keys:edition_id&#45;&gt;editions:id</title>
<path fill="none" stroke="#000000" d="M848.1481,-519.9579C769.5919,-511.1423 843.1912,-396.6686 806.5,-313 778.2071,-248.4824 789.9487,-180.5 719.5,-180.5"/>
<polygon fill="#000000" stroke="#000000" points="848.5137,-519.9769 858.2646,-524.9938 853.5068,-520.2385 858.5,-520.5 858.5,-520.5 858.5,-520.5 853.5068,-520.2385 858.7354,-516.0062 848.5137,-519.9769 848.5137,-519.9769"/>
<text text-anchor="start" x="865.439" y="-530.5" font-family="Arial" font-size="10.00" fill="#000000">FOREIGN KEY (edition_id) REFERENCES editions (id)</text>
</g>
</g>
</svg>
