<?xml version="1.0" encoding="UTF-8" standalone="no"?>
<!DOCTYPE svg PUBLIC "-//W3C//DTD SVG 1.1//EN"
 "http://www.w3.org/Graphics/SVG/1.1/DTD/svg11.dtd">
<!-- Generated by graphviz version 2.40.1 (20161225.0304)
 -->
<!-- Title: editions Pages: 1 -->
<svg width="1855pt" height="712pt"
 viewBox="0.00 0.00 1854.50 712.00" xmlns="http://www.w3.org/2000/svg" xmlns:xlink="http://www.w3.org/1999/xlink">
<g id="graph0" class="graph" transform="scale(1 1) rotate(0) translate(4 708)">
<title>editions</title>
<polygon fill="#ffffff" stroke="transparent" points="-4,4 -4,-708 1850.5,-708 1850.5,4 -4,4"/>
<!-- editions -->
<g id="node1" class="node">
<title>editions</title>
<polygon fill="#efefef" stroke="transparent" points="924.5,-195.5 924.5,-230.5 1097.5,-230.5 1097.5,-195.5 924.5,-195.5"/>
<polygon fill="none" stroke="#000000" points="924.5,-195.5 924.5,-230.5 1097.5,-230.5 1097.5,-195.5 924.5,-195.5"/>
<text text-anchor="start" x="931.3654" y="-208.3" font-family="Arial Bold" font-size="18.00" fill="#000000">editions</text>
<text text-anchor="start" x="993.3808" y="-208.3" font-family="Arial" font-size="14.00" fill="#000000"> </text>
<text text-anchor="start" x="997.2714" y="-208.3" font-family="Arial" font-size="14.00" fill="#666666">[BASE TABLE]</text>
<polygon fill="none" stroke="#000000" points="924.5,-165.5 924.5,-195.5 1097.5,-195.5 1097.5,-165.5 924.5,-165.5"/>
<text text-anchor="start" x="931.5" y="-176.9" font-family="Arial" font-size="14.00" fill="#000000">id </text>
<text text-anchor="start" x="946.2798" y="-176.9" font-family="Arial" font-size="14.00" fill="#666666">[varchar(36)]</text>
<polygon fill="none" stroke="#000000" points="924.5,-135.5 924.5,-165.5 1097.5,-165.5 1097.5,-135.5 924.5,-135.5"/>
<text text-anchor="start" x="931.5" y="-146.9" font-family="Arial" font-size="14.00" fill="#000000">name </text>
<text text-anchor="start" x="970.399" y="-146.9" font-family="Arial" font-size="14.00" fill="#666666">[varchar(32)]</text>
<polygon fill="none" stroke="#000000" points="924.5,-105.5 924.5,-135.5 1097.5,-135.5 1097.5,-105.5 924.5,-105.5"/>
<text text-anchor="start" x="931.5" y="-116.9" font-family="Arial" font-size="14.00" fill="#000000">questionnaire_url </text>
<text text-anchor="start" x="1042.7482" y="-116.9" font-family="Arial" font-size="14.00" fill="#666666">[text]</text>
<polygon fill="none" stroke="#000000" points="924.5,-75.5 924.5,-105.5 1097.5,-105.5 1097.5,-75.5 924.5,-75.5"/>
<text text-anchor="start" x="931.5" y="-86.9" font-family="Arial" font-size="14.00" fill="#000000">created_at </text>
<text text-anchor="start" x="1001.528" y="-86.9" font-family="Arial" font-size="14.00" fill="#666666">[datetime]</text>
<polygon fill="none" stroke="#000000" points="924.5,-45.5 924.5,-75.5 1097.5,-75.5 1097.5,-45.5 924.5,-45.5"/>
<text text-anchor="start" x="931.5" y="-56.9" font-family="Arial" font-size="14.00" fill="#000000">deleted_at </text>
<text text-anchor="start" x="1000.7566" y="-56.9" font-family="Arial" font-size="14.00" fill="#666666">[datetime]</text>
<polygon fill="none" stroke="#000000" stroke-width="3" points="922.5,-44.5 922.5,-232.5 1098.5,-232.5 1098.5,-44.5 922.5,-44.5"/>
</g>
<!-- edition_game_version_relations -->
<g id="node2" class="node">
<title>edition_game_version_relations</title>
<polygon fill="#efefef" stroke="transparent" points="43.5,-520.5 43.5,-555.5 408.5,-555.5 408.5,-520.5 43.5,-520.5"/>
<polygon fill="none" stroke="#000000" points="43.5,-520.5 43.5,-555.5 408.5,-555.5 408.5,-520.5 43.5,-520.5"/>
<text text-anchor="start" x="50.3444" y="-533.3" font-family="Arial Bold" font-size="18.00" fill="#000000">edition_game_version_relations</text>
<text text-anchor="start" x="304.4018" y="-533.3" font-family="Arial" font-size="14.00" fill="#000000"> </text>
<text text-anchor="start" x="308.2924" y="-533.3" font-family="Arial" font-size="14.00" fill="#666666">[BASE TABLE]</text>
<polygon fill="none" stroke="#000000" points="43.5,-490.5 43.5,-520.5 408.5,-520.5 408.5,-490.5 43.5,-490.5"/>
<text text-anchor="start" x="50.5" y="-501.9" font-family="Arial" font-size="14.00" fill="#000000">edition_id </text>
<text text-anchor="start" x="114.2966" y="-501.9" font-family="Arial" font-size="14.00" fill="#666666">[varchar(36)]</text>
<polygon fill="none" stroke="#000000" points="43.5,-460.5 43.5,-490.5 408.5,-490.5 408.5,-460.5 43.5,-460.5"/>
<text text-anchor="start" x="50.5" y="-471.9" font-family="Arial" font-size="14.00" fill="#000000">game_version_id </text>
<text text-anchor="start" x="160.9684" y="-471.9" font-family="Arial" font-size="14.00" fill="#666666">[varchar(36)]</text>
</g>
<!-- edition_game_version_relations&#45;&gt;editions -->
<g id="edge1" class="edge">
<title>edition_game_version_relations:edition_id&#45;&gt;editions:id</title>
<path fill="none" stroke="#000000" d="M418.8955,-504.7991C488.7541,-494.5073 400.1648,-373.4495 459.5,-313 534.7661,-236.3204 817.0535,-180.5 924.5,-180.5"/>
<polygon fill="#000000" stroke="#000000" points="418.4773,-504.8272 408.1973,-501.0102 413.4887,-505.1636 408.5,-505.5 408.5,-505.5 408.5,-505.5 413.4887,-505.1636 408.8027,-509.9898 418.4773,-504.8272 418.4773,-504.8272"/>
<text text-anchor="start" x="285.439" y="-489.5" font-family="Arial" font-size="10.00" fill="#000000">FOREIGN KEY (edition_id) REFERENCES editions (id)</text>
</g>
<!-- feedback_questions -->
<g id="node3" class="node">
<title>feedback_questions</title>
<polygon fill="#efefef" stroke="transparent" points="512.5,-610.5 512.5,-645.5 783.5,-645.5 783.5,-610.5 512.5,-610.5"/>
<polygon fill="none" stroke="#000000" points="512.5,-610.5 512.5,-645.5 783.5,-645.5 783.5,-610.5 512.5,-610.5"/>
<text text-anchor="start" x="519.3397" y="-623.3" font-family="Arial Bold" font-size="18.00" fill="#000000">feedback_questions</text>
<text text-anchor="start" x="679.4065" y="-623.3" font-family="Arial" font-size="14.00" fill="#000000"> </text>
<text text-anchor="start" x="683.2971" y="-623.3" font-family="Arial" font-size="14.00" fill="#666666">[BASE TABLE]</text>
<polygon fill="none" stroke="#000000" points="512.5,-580.5 512.5,-610.5 783.5,-610.5 783.5,-580.5 512.5,-580.5"/>
<text text-anchor="start" x="519.5" y="-591.9" font-family="Arial" font-size="14.00" fill="#000000">id </text>
<text text-anchor="start" x="534.2798" y="-591.9" font-family="Arial" font-size="14.00" fill="#666666">[varchar(36)]</text>
<polygon fill="none" stroke="#000000" points="512.5,-550.5 512.5,-580.5 783.5,-580.5 783.5,-550.5 512.5,-550.5"/>
<text text-anchor="start" x="519.5" y="-561.9" font-family="Arial" font-size="14.00" fill="#000000">edition_id </text>
<text text-anchor="start" x="583.2966" y="-561.9" font-family="Arial" font-size="14.00" fill="#666666">[varchar(36)]</text>
<polygon fill="none" stroke="#000000" points="512.5,-520.5 512.5,-550.5 783.5,-550.5 783.5,-520.5 512.5,-520.5"/>
<text text-anchor="start" x="519.5" y="-531.9" font-family="Arial" font-size="14.00" fill="#000000">game_id </text>
<text text-anchor="start" x="577.0708" y="-531.9" font-family="Arial" font-size="14.00" fill="#666666">[varchar(36)]</text>
<polygon fill="none" stroke="#000000" points="512.5,-490.5 512.5,-520.5 783.5,-520.5 783.5,-490.5 512.5,-490.5"/>
<text text-anchor="start" x="519.5" y="-501.9" font-family="Arial" font-size="14.00" fill="#000000">question_text </text>
<text text-anchor="start" x="606.6472" y="-501.9" font-family="Arial" font-size="14.00" fill="#666666">[varchar(256)]</text>
<polygon fill="none" stroke="#000000" points="512.5,-460.5 512.5,-490.5 783.5,-490.5 783.5,-460.5 512.5,-460.5"/>
<text text-anchor="start" x="519.5" y="-471.9" font-family="Arial" font-size="14.00" fill="#000000">answer_type </text>
<text text-anchor="start" x="602.744" y="-471.9" font-family="Arial" font-size="14.00" fill="#666666">[tinyint(4)]</text>
<polygon fill="none" stroke="#000000" points="512.5,-430.5 512.5,-460.5 783.5,-460.5 783.5,-430.5 512.5,-430.5"/>
<text text-anchor="start" x="519.5" y="-441.9" font-family="Arial" font-size="14.00" fill="#000000">question_order </text>
<text text-anchor="start" x="616.7524" y="-441.9" font-family="Arial" font-size="14.00" fill="#666666">[bigint(20)]</text>
<polygon fill="none" stroke="#000000" points="512.5,-400.5 512.5,-430.5 783.5,-430.5 783.5,-400.5 512.5,-400.5"/>
<text text-anchor="start" x="519.5" y="-411.9" font-family="Arial" font-size="14.00" fill="#000000">created_at </text>
<text text-anchor="start" x="589.528" y="-411.9" font-family="Arial" font-size="14.00" fill="#666666">[datetime]</text>
<polygon fill="none" stroke="#000000" points="512.5,-370.5 512.5,-400.5 783.5,-400.5 783.5,-370.5 512.5,-370.5"/>
<text text-anchor="start" x="519.5" y="-381.9" font-family="Arial" font-size="14.00" fill="#000000">deleted_at </text>
<text text-anchor="start" x="588.7566" y="-381.9" font-family="Arial" font-size="14.00" fill="#666666">[datetime]</text>
</g>
<!-- feedback_questions&#45;&gt;editions -->
<g id="edge2" class="edge">
<title>feedback_questions:edition_id&#45;&gt;editions:id</title>
<path fill="none" stroke="#000000" d="M793.2813,-563.2447C837.5506,-541.1144 814.7192,-362.5249 835.5,-313 862.9483,-247.5849 853.5596,-180.5 924.5,-180.5"/>
<polygon fill="#000000" stroke="#000000" points="793.2443,-563.2531 782.4889,-561.1151 788.3722,-564.3766 783.5,-565.5 783.5,-565.5 783.5,-565.5 788.3722,-564.3766 784.5111,-569.8849 793.2443,-563.2531 793.2443,-563.2531"/>
<text text-anchor="start" x="790.439" y="-575.5" font-family="Arial" font-size="10.00" fill="#000000">FOREIGN KEY (edition_id) REFERENCES editions (id)</text>
</g>
<!-- game_feedbacks -->
<g id="node4" class="node">
<title>game_feedbacks</title>
<polygon fill="#efefef" stroke="transparent" points="887.5,-565.5 887.5,-600.5 1135.5,-600.5 1135.5,-565.5 887.5,-565.5"/>
<polygon fill="none" stroke="#000000" points="887.5,-565.5 887.5,-600.5 1135.5,-600.5 1135.5,-565.5 887.5,-565.5"/>
<text text-anchor="start" x="894.348" y="-578.3" font-family="Arial Bold" font-size="18.00" fill="#000000">game_feedbacks</text>
<text text-anchor="start" x="1031.3982" y="-578.3" font-family="Arial" font-size="14.00" fill="#000000"> </text>
<text text-anchor="start" x="1035.2888" y="-578.3" font-family="Arial" font-size="14.00" fill="#666666">[BASE TABLE]</text>
<polygon fill="none" stroke="#000000" points="887.5,-535.5 887.5,-565.5 1135.5,-565.5 1135.5,-535.5 887.5,-535.5"/>
<text text-anchor="start" x="894.5" y="-546.9" font-family="Arial" font-size="14.00" fill="#000000">id </text>
<text text-anchor="start" x="909.2798" y="-546.9" font-family="Arial" font-size="14.00" fill="#666666">[varchar(36)]</text>
<polygon fill="none" stroke="#000000" points="887.5,-505.5 887.5,-535.5 1135.5,-535.5 1135.5,-505.5 887.5,-505.5"/>
<text text-anchor="start" x="894.5" y="-516.9" font-family="Arial" font-size="14.00" fill="#000000">edition_id </text>
<text text-anchor="start" x="958.2966" y="-516.9" font-family="Arial" font-size="14.00" fill="#666666">[varchar(36)]</text>
<polygon fill="none" stroke="#000000" points="887.5,-475.5 887.5,-505.5 1135.5,-505.5 1135.5,-475.5 887.5,-475.5"/>
<text text-anchor="start" x="894.5" y="-486.9" font-family="Arial" font-size="14.00" fill="#000000">game_version_id </text>
<text text-anchor="start" x="1004.9684" y="-486.9" font-family="Arial" font-size="14.00" fill="#666666">[varchar(36)]</text>
<polygon fill="none" stroke="#000000" points="887.5,-445.5 887.5,-475.5 1135.5,-475.5 1135.5,-445.5 887.5,-445.5"/>
<text text-anchor="start" x="894.5" y="-456.9" font-family="Arial" font-size="14.00" fill="#000000">comment </text>
<text text-anchor="start" x="955.9502" y="-456.9" font-family="Arial" font-size="14.00" fill="#666666">[text]</text>
<polygon fill="none" stroke="#000000" points="887.5,-415.5 887.5,-445.5 1135.5,-445.5 1135.5,-415.5 887.5,-415.5"/>
<text text-anchor="start" x="894.5" y="-426.9" font-family="Arial" font-size="14.00" fill="#000000">created_at </text>
<text text-anchor="start" x="964.528" y="-426.9" font-family="Arial" font-size="14.00" fill="#666666">[datetime]</text>
</g>
<!-- game_feedbacks&#45;&gt;editions -->
<g id="edge3" class="edge">
<title>game_feedbacks:edition_id&#45;&gt;editions:id</title>
<path fill="none" stroke="#000000" d="M877.2651,-519.6348C825.374,-510.1584 854.0753,-425.0315 887.5,-373 942.966,-286.6572 1042.034,-363.3428 1097.5,-277 1120.6806,-240.9152 1140.3889,-180.5 1097.5,-180.5"/>
<polygon fill="#000000" stroke="#000000" points="877.5355,-519.6575 887.1209,-524.984 882.5178,-520.0788 887.5,-520.5 887.5,-520.5 887.5,-520.5 882.5178,-520.0788 887.8791,-516.016 877.5355,-519.6575 877.5355,-519.6575"/>
<text text-anchor="start" x="894.439" y="-530.5" font-family="Arial" font-size="10.00" fill="#000000">FOREIGN KEY (edition_id) REFERENCES editions (id)</text>
</g>
<!-- game_play_logs -->
<g id="node5" class="node">
<title>game_play_logs</title>
<polygon fill="#efefef" stroke="transparent" points="1239.5,-625.5 1239.5,-660.5 1481.5,-660.5 1481.5,-625.5 1239.5,-625.5"/>
<polygon fill="none" stroke="#000000" points="1239.5,-625.5 1239.5,-660.5 1481.5,-660.5 1481.5,-625.5 1239.5,-625.5"/>
<text text-anchor="start" x="1246.3549" y="-638.3" font-family="Arial Bold" font-size="18.00" fill="#000000">game_play_logs</text>
<text text-anchor="start" x="1377.3913" y="-638.3" font-family="Arial" font-size="14.00" fill="#000000"> </text>
<text text-anchor="start" x="1381.2819" y="-638.3" font-family="Arial" font-size="14.00" fill="#666666">[BASE TABLE]</text>
<polygon fill="none" stroke="#000000" points="1239.5,-595.5 1239.5,-625.5 1481.5,-625.5 1481.5,-595.5 1239.5,-595.5"/>
<text text-anchor="start" x="1246.5" y="-606.9" font-family="Arial" font-size="14.00" fill="#000000">id </text>
<text text-anchor="start" x="1261.2798" y="-606.9" font-family="Arial" font-size="14.00" fill="#666666">[varchar(36)]</text>
<polygon fill="none" stroke="#000000" points="1239.5,-565.5 1239.5,-595.5 1481.5,-595.5 1481.5,-565.5 1239.5,-565.5"/>
<text text-anchor="start" x="1246.5" y="-576.9" font-family="Arial" font-size="14.00" fill="#000000">edition_id </text>
<text text-anchor="start" x="1310.2966" y="-576.9" font-family="Arial" font-size="14.00" fill="#666666">[varchar(36)]</text>
<polygon fill="none" stroke="#000000" points="1239.5,-535.5 1239.5,-565.5 1481.5,-565.5 1481.5,-535.5 1239.5,-535.5"/>
<text text-anchor="start" x="1246.5" y="-546.9" font-family="Arial" font-size="14.00" fill="#000000">game_id </text>
<text text-anchor="start" x="1304.0708" y="-546.9" font-family="Arial" font-size="14.00" fill="#666666">[varchar(36)]</text>
<polygon fill="none" stroke="#000000" points="1239.5,-505.5 1239.5,-535.5 1481.5,-535.5 1481.5,-505.5 1239.5,-505.5"/>
<text text-anchor="start" x="1246.5" y="-516.9" font-family="Arial" font-size="14.00" fill="#000000">game_version_id </text>
<text text-anchor="start" x="1356.9684" y="-516.9" font-family="Arial" font-size="14.00" fill="#666666">[varchar(36)]</text>
<polygon fill="none" stroke="#000000" points="1239.5,-475.5 1239.5,-505.5 1481.5,-505.5 1481.5,-475.5 1239.5,-475.5"/>
<text text-anchor="start" x="1246.5" y="-486.9" font-family="Arial" font-size="14.00" fill="#000000">start_time </text>
<text text-anchor="start" x="1311.838" y="-486.9" font-family="Arial" font-size="14.00" fill="#666666">[datetime]</text>
<polygon fill="none" stroke="#000000" points="1239.5,-445.5 1239.5,-475.5 1481.5,-475.5 1481.5,-445.5 1239.5,-445.5"/>
<text text-anchor="start" x="1246.5" y="-456.9" font-family="Arial" font-size="14.00" fill="#000000">end_time </text>
<text text-anchor="start" x="1307.9614" y="-456.9" font-family="Arial" font-size="14.00" fill="#666666">[datetime]</text>
<polygon fill="none" stroke="#000000" points="1239.5,-415.5 1239.5,-445.5 1481.5,-445.5 1481.5,-415.5 1239.5,-415.5"/>
<text text-anchor="start" x="1246.5" y="-426.9" font-family="Arial" font-size="14.00" fill="#000000">created_at </text>
<text text-anchor="start" x="1316.528" y="-426.9" font-family="Arial" font-size="14.00" fill="#666666">[datetime]</text>
<polygon fill="none" stroke="#000000" points="1239.5,-385.5 1239.5,-415.5 1481.5,-415.5 1481.5,-385.5 1239.5,-385.5"/>
<text text-anchor="start" x="1246.5" y="-396.9" font-family="Arial" font-size="14.00" fill="#000000">updated_at </text>
<text text-anchor="start" x="1320.4326" y="-396.9" font-family="Arial" font-size="14.00" fill="#666666">[datetime]</text>
<polygon fill="none" stroke="#000000" points="1239.5,-355.5 1239.5,-385.5 1481.5,-385.5 1481.5,-355.5 1239.5,-355.5"/>
<text text-anchor="start" x="1246.5" y="-366.9" font-family="Arial" font-size="14.00" fill="#000000">deleted_at </text>
<text text-anchor="start" x="1315.7566" y="-366.9" font-family="Arial" font-size="14.00" fill="#666666">[datetime]</text>
</g>
<!-- game_play_logs&#45;&gt;editions -->
<g id="edge4" class="edge">
<title>game_play_logs:edition_id&#45;&gt;editions:id</title>
<path fill="none" stroke="#000000" d="M1229.4836,-578.2545C1182.5944,-555.4484 1209.3568,-365.5245 1187.5,-313 1160.1499,-247.2743 1168.6892,-180.5 1097.5,-180.5"/>
<polygon fill="#000000" stroke="#000000" points="1229.7422,-578.3124 1238.5156,-584.891 1234.6211,-579.4062 1239.5,-580.5 1239.5,-580.5 1239.5,-580.5 1234.6211,-579.4062 1240.4844,-576.109 1229.7422,-578.3124 1229.7422,-578.3124"/>
<text text-anchor="start" x="1246.439" y="-590.5" font-family="Arial" font-size="10.00" fill="#000000">FOREIGN KEY (edition_id) REFERENCES editions (id)</text>
</g>
<!-- product_keys -->
<g id="node6" class="node">
<title>product_keys</title>
<polygon fill="#efefef" stroke="transparent" points="1585.5,-565.5 1585.5,-600.5 1803.5,-600.5 1803.5,-565.5 1585.5,-565.5"/>
<polygon fill="none" stroke="#000000" points="1585.5,-565.5 1585.5,-600.5 1803.5,-600.5 1803.5,-565.5 1585.5,-565.5"/>
<text text-anchor="start" x="1592.3573" y="-578.3" font-family="Arial Bold" font-size="18.00" fill="#000000">product_keys</text>
<text text-anchor="start" x="1699.3889" y="-578.3" font-family="Arial" font-size="14.00" fill="#000000"> </text>
<text text-anchor="start" x="1703.2795" y="-578.3" font-family="Arial" font-size="14.00" fill="#666666">[BASE TABLE]</text>
<polygon fill="none" stroke="#000000" points="1585.5,-535.5 1585.5,-565.5 1803.5,-565.5 1803.5,-535.5 1585.5,-535.5"/>
<text text-anchor="start" x="1592.5" y="-546.9" font-family="Arial" font-size="14.00" fill="#000000">id </text>
<text text-anchor="start" x="1607.2798" y="-546.9" font-family="Arial" font-size="14.00" fill="#666666">[varchar(36)]</text>
<polygon fill="none" stroke="#000000" points="1585.5,-505.5 1585.5,-535.5 1803.5,-535.5 1803.5,-505.5 1585.5,-505.5"/>
<text text-anchor="start" x="1592.5" y="-516.9" font-family="Arial" font-size="14.00" fill="#000000">edition_id </text>
<text text-anchor="start" x="1656.2966" y="-516.9" font-family="Arial" font-size="14.00" fill="#666666">[varchar(36)]</text>
<polygon fill="none" stroke="#000000" points="1585.5,-475.5 1585.5,-505.5 1803.5,-505.5 1803.5,-475.5 1585.5,-475.5"/>
<text text-anchor="start" x="1592.5" y="-486.9" font-family="Arial" font-size="14.00" fill="#000000">product_key </text>
<text text-anchor="start" x="1672.6374" y="-486.9" font-family="Arial" font-size="14.00" fill="#666666">[varchar(29)]</text>
<polygon fill="none" stroke="#000000" points="1585.5,-445.5 1585.5,-475.5 1803.5,-475.5 1803.5,-445.5 1585.5,-445.5"/>
<text text-anchor="start" x="1592.5" y="-456.9" font-family="Arial" font-size="14.00" fill="#000000">created_at </text>
<text text-anchor="start" x="1662.528" y="-456.9" font-family="Arial" font-size="14.00" fill="#666666">[datetime]</text>
<polygon fill="none" stroke="#000000" points="1585.5,-415.5 1585.5,-445.5 1803.5,-445.5 1803.5,-415.5 1585.5,-415.5"/>
<text text-anchor="start" x="1592.5" y="-426.9" font-family="Arial" font-size="14.00" fill="#000000">status_id </text>
<text text-anchor="start" x="1652.4088" y="-426.9" font-family="Arial" font-size="14.00" fill="#666666">[tinyint(4)]</text>
</g>
<!-- product_keys&#45;&gt;editions -->
<g id="edge5" class="edge">
<title>product_keys:edition_id&#45;&gt;editions:id</title>
<path fill="none" stroke="#000000" d="M1575.2684,-519.8778C1498.646,-509.776 1596.4834,-379.1798 1533.5,-313 1463.6888,-239.6459 1198.7642,-180.5 1097.5,-180.5"/>
<polygon fill="#000000" stroke="#000000" points="1575.5184,-519.8929 1585.2268,-524.9917 1580.5092,-520.1965 1585.5,-520.5 1585.5,-520.5 1585.5,-520.5 1580.5092,-520.1965 1585.7732,-516.0083 1575.5184,-519.8929 1575.5184,-519.8929"/>
<text text-anchor="start" x="1332.439" y="-530.5" font-family="Arial" font-size="10.00" fill="#000000">FOREIGN KEY (edition_id) REFERENCES editions (id)</text>
</g>
</g>
</svg>
