<?xml version="1.0" encoding="UTF-8" standalone="no"?>
<!DOCTYPE svg PUBLIC "-//W3C//DTD SVG 1.1//EN"
 "http://www.w3.org/Graphics/SVG/1.1/DTD/svg11.dtd">
<!-- Generated by graphviz version 12.1.2 (20240928.0832)
 -->
<!-- Title: editions Pages: 1 -->
<svg width="1164pt" height="694pt"
 viewBox="0.00 0.00 1163.85 694.40" xmlns="http://www.w3.org/2000/svg" xmlns:xlink="http://www.w3.org/1999/xlink">
<g id="graph0" class="graph" transform="scale(1 1) rotate(0) translate(4 690.4)">
<title>editions</title>
<polygon fill="white" stroke="none" points="-4,4 -4,-690.4 1159.85,-690.4 1159.85,4 -4,4"/>
<!-- editions -->
<g id="node1" class="node">
<title>editions</title>
<polygon fill="#efefef" stroke="none" points="547.17,-200.2 547.17,-235.8 742.66,-235.8 742.66,-200.2 547.17,-200.2"/>
<polygon fill="none" stroke="black" points="547.17,-200.2 547.17,-235.8 742.66,-235.8 742.66,-200.2 547.17,-200.2"/>
<text text-anchor="start" x="554.17" y="-213.6" font-family="Arial Bold" font-size="18.00">editions</text>
<text text-anchor="start" x="611.17" y="-213.6" font-family="Arial" font-size="14.00">    </text>
<text text-anchor="start" x="642.29" y="-213.6" font-family="Arial" font-size="14.00" fill="#666666">[BASE TABLE]</text>
<polygon fill="none" stroke="black" points="547.17,-169.4 547.17,-200.2 742.66,-200.2 742.66,-169.4 547.17,-169.4"/>
<text text-anchor="start" x="554.17" y="-181.6" font-family="Arial" font-size="14.00">id </text>
<text text-anchor="start" x="568.96" y="-181.6" font-family="Arial" font-size="14.00" fill="#666666">[varchar(36)]</text>
<polygon fill="none" stroke="black" points="547.17,-138.6 547.17,-169.4 742.66,-169.4 742.66,-138.6 547.17,-138.6"/>
<text text-anchor="start" x="554.17" y="-150.8" font-family="Arial" font-size="14.00">name </text>
<text text-anchor="start" x="593.08" y="-150.8" font-family="Arial" font-size="14.00" fill="#666666">[varchar(32)]</text>
<polygon fill="none" stroke="black" points="547.17,-107.8 547.17,-138.6 742.66,-138.6 742.66,-107.8 547.17,-107.8"/>
<text text-anchor="start" x="554.17" y="-120" font-family="Arial" font-size="14.00">questionnaire_url </text>
<text text-anchor="start" x="665.47" y="-120" font-family="Arial" font-size="14.00" fill="#666666">[text]</text>
<polygon fill="none" stroke="black" points="547.17,-77 547.17,-107.8 742.66,-107.8 742.66,-77 547.17,-77"/>
<text text-anchor="start" x="554.17" y="-89.2" font-family="Arial" font-size="14.00">created_at </text>
<text text-anchor="start" x="624.22" y="-89.2" font-family="Arial" font-size="14.00" fill="#666666">[datetime]</text>
<polygon fill="none" stroke="black" points="547.17,-46.2 547.17,-77 742.66,-77 742.66,-46.2 547.17,-46.2"/>
<text text-anchor="start" x="554.17" y="-58.4" font-family="Arial" font-size="14.00">deleted_at </text>
<text text-anchor="start" x="623.45" y="-58.4" font-family="Arial" font-size="14.00" fill="#666666">[datetime]</text>
<polygon fill="none" stroke="black" stroke-width="3" points="545.67,-44.7 545.67,-237.3 744.16,-237.3 744.16,-44.7 545.67,-44.7"/>
</g>
<!-- edition_game_version_relations -->
<g id="node2" class="node">
<title>edition_game_version_relations</title>
<polygon fill="#efefef" stroke="none" points="43.2,-515.2 43.2,-550.8 412.63,-550.8 412.63,-515.2 43.2,-515.2"/>
<polygon fill="none" stroke="black" points="43.2,-515.2 43.2,-550.8 412.63,-550.8 412.63,-515.2 43.2,-515.2"/>
<text text-anchor="start" x="50.2" y="-528.6" font-family="Arial Bold" font-size="18.00">edition_game_version_relations</text>
<text text-anchor="start" x="281.14" y="-528.6" font-family="Arial" font-size="14.00">    </text>
<text text-anchor="start" x="312.26" y="-528.6" font-family="Arial" font-size="14.00" fill="#666666">[BASE TABLE]</text>
<polygon fill="none" stroke="black" points="43.2,-484.4 43.2,-515.2 412.63,-515.2 412.63,-484.4 43.2,-484.4"/>
<text text-anchor="start" x="50.2" y="-496.6" font-family="Arial" font-size="14.00">edition_id </text>
<text text-anchor="start" x="114.03" y="-496.6" font-family="Arial" font-size="14.00" fill="#666666">[varchar(36)]</text>
<polygon fill="none" stroke="black" points="43.2,-453.6 43.2,-484.4 412.63,-484.4 412.63,-453.6 43.2,-453.6"/>
<text text-anchor="start" x="50.2" y="-465.8" font-family="Arial" font-size="14.00">game_version_id </text>
<text text-anchor="start" x="160.71" y="-465.8" font-family="Arial" font-size="14.00" fill="#666666">[varchar(36)]</text>
</g>
<!-- edition_game_version_relations&#45;&gt;editions -->
<g id="edge1" class="edge">
<title>edition_game_version_relations:edition_id&#45;&gt;editions:id</title>
<path fill="none" stroke="black" d="M423.64,-499.23C492.08,-490.84 432.79,-391.64 464.92,-318 492.64,-254.44 476.83,-184.8 546.17,-184.8"/>
<polygon fill="black" stroke="black" points="423.95,-499.21 413.71,-495.29 418.62,-499.52 414.3,-499.76 414.3,-499.76 414.3,-499.76 418.62,-499.52 414.22,-504.27 423.95,-499.21"/>
<text text-anchor="start" x="420.63" y="-509.8" font-family="Arial" font-size="10.00">FOREIGN KEY (edition_id) REFERENCES editions (id)</text>
</g>
<!-- game_play_logs -->
<g id="node3" class="node">
<title>game_play_logs</title>
<polygon fill="#efefef" stroke="none" points="516.68,-607.6 516.68,-643.2 773.15,-643.2 773.15,-607.6 516.68,-607.6"/>
<polygon fill="none" stroke="black" points="516.68,-607.6 516.68,-643.2 773.15,-643.2 773.15,-607.6 516.68,-607.6"/>
<text text-anchor="start" x="523.68" y="-621" font-family="Arial Bold" font-size="18.00">game_play_logs</text>
<text text-anchor="start" x="641.66" y="-621" font-family="Arial" font-size="14.00">    </text>
<text text-anchor="start" x="672.78" y="-621" font-family="Arial" font-size="14.00" fill="#666666">[BASE TABLE]</text>
<polygon fill="none" stroke="black" points="516.68,-576.8 516.68,-607.6 773.15,-607.6 773.15,-576.8 516.68,-576.8"/>
<text text-anchor="start" x="523.68" y="-589" font-family="Arial" font-size="14.00">id </text>
<text text-anchor="start" x="538.47" y="-589" font-family="Arial" font-size="14.00" fill="#666666">[varchar(36)]</text>
<polygon fill="none" stroke="black" points="516.68,-546 516.68,-576.8 773.15,-576.8 773.15,-546 516.68,-546"/>
<text text-anchor="start" x="523.68" y="-558.2" font-family="Arial" font-size="14.00">edition_id </text>
<text text-anchor="start" x="587.51" y="-558.2" font-family="Arial" font-size="14.00" fill="#666666">[varchar(36)]</text>
<polygon fill="none" stroke="black" points="516.68,-515.2 516.68,-546 773.15,-546 773.15,-515.2 516.68,-515.2"/>
<text text-anchor="start" x="523.68" y="-527.4" font-family="Arial" font-size="14.00">game_id </text>
<text text-anchor="start" x="581.28" y="-527.4" font-family="Arial" font-size="14.00" fill="#666666">[varchar(36)]</text>
<polygon fill="none" stroke="black" points="516.68,-484.4 516.68,-515.2 773.15,-515.2 773.15,-484.4 516.68,-484.4"/>
<text text-anchor="start" x="523.68" y="-496.6" font-family="Arial" font-size="14.00">game_version_id </text>
<text text-anchor="start" x="634.19" y="-496.6" font-family="Arial" font-size="14.00" fill="#666666">[varchar(36)]</text>
<polygon fill="none" stroke="black" points="516.68,-453.6 516.68,-484.4 773.15,-484.4 773.15,-453.6 516.68,-453.6"/>
<text text-anchor="start" x="523.68" y="-465.8" font-family="Arial" font-size="14.00">start_time </text>
<text text-anchor="start" x="589.03" y="-465.8" font-family="Arial" font-size="14.00" fill="#666666">[datetime]</text>
<polygon fill="none" stroke="black" points="516.68,-422.8 516.68,-453.6 773.15,-453.6 773.15,-422.8 516.68,-422.8"/>
<text text-anchor="start" x="523.68" y="-435" font-family="Arial" font-size="14.00">end_time </text>
<text text-anchor="start" x="585.17" y="-435" font-family="Arial" font-size="14.00" fill="#666666">[datetime]</text>
<polygon fill="none" stroke="black" points="516.68,-392 516.68,-422.8 773.15,-422.8 773.15,-392 516.68,-392"/>
<text text-anchor="start" x="523.68" y="-404.2" font-family="Arial" font-size="14.00">created_at </text>
<text text-anchor="start" x="593.73" y="-404.2" font-family="Arial" font-size="14.00" fill="#666666">[datetime]</text>
<polygon fill="none" stroke="black" points="516.68,-361.2 516.68,-392 773.15,-392 773.15,-361.2 516.68,-361.2"/>
<text text-anchor="start" x="523.68" y="-373.4" font-family="Arial" font-size="14.00">updated_at </text>
<text text-anchor="start" x="597.64" y="-373.4" font-family="Arial" font-size="14.00" fill="#666666">[datetime]</text>
</g>
<!-- game_play_logs&#45;&gt;editions -->
<g id="edge2" class="edge">
<title>game_play_logs:edition_id&#45;&gt;editions:id</title>
<path fill="none" stroke="black" d="M784.34,-559.37C855.39,-529.73 824.01,-184.8 743.66,-184.8"/>
<polygon fill="black" stroke="black" points="784.28,-559.39 773.6,-556.92 779.05,-560.43 774.8,-561.27 774.8,-561.27 774.8,-561.27 779.05,-560.43 775.35,-565.75 784.28,-559.39"/>
<text text-anchor="start" x="781.15" y="-571.4" font-family="Arial" font-size="10.00">FOREIGN KEY (edition_id) REFERENCES editions (id)</text>
</g>
<!-- product_keys -->
<g id="node4" class="node">
<title>product_keys</title>
<polygon fill="#efefef" stroke="none" points="877.18,-561.4 877.18,-597 1112.65,-597 1112.65,-561.4 877.18,-561.4"/>
<polygon fill="none" stroke="black" points="877.18,-561.4 877.18,-597 1112.65,-597 1112.65,-561.4 877.18,-561.4"/>
<text text-anchor="start" x="884.18" y="-574.8" font-family="Arial Bold" font-size="18.00">product_keys</text>
<text text-anchor="start" x="981.16" y="-574.8" font-family="Arial" font-size="14.00">    </text>
<text text-anchor="start" x="1012.28" y="-574.8" font-family="Arial" font-size="14.00" fill="#666666">[BASE TABLE]</text>
<polygon fill="none" stroke="black" points="877.18,-530.6 877.18,-561.4 1112.65,-561.4 1112.65,-530.6 877.18,-530.6"/>
<text text-anchor="start" x="884.18" y="-542.8" font-family="Arial" font-size="14.00">id </text>
<text text-anchor="start" x="898.97" y="-542.8" font-family="Arial" font-size="14.00" fill="#666666">[varchar(36)]</text>
<polygon fill="none" stroke="black" points="877.18,-499.8 877.18,-530.6 1112.65,-530.6 1112.65,-499.8 877.18,-499.8"/>
<text text-anchor="start" x="884.18" y="-512" font-family="Arial" font-size="14.00">edition_id </text>
<text text-anchor="start" x="948.01" y="-512" font-family="Arial" font-size="14.00" fill="#666666">[varchar(36)]</text>
<polygon fill="none" stroke="black" points="877.18,-469 877.18,-499.8 1112.65,-499.8 1112.65,-469 877.18,-469"/>
<text text-anchor="start" x="884.18" y="-481.2" font-family="Arial" font-size="14.00">product_key </text>
<text text-anchor="start" x="964.34" y="-481.2" font-family="Arial" font-size="14.00" fill="#666666">[varchar(29)]</text>
<polygon fill="none" stroke="black" points="877.18,-438.2 877.18,-469 1112.65,-469 1112.65,-438.2 877.18,-438.2"/>
<text text-anchor="start" x="884.18" y="-450.4" font-family="Arial" font-size="14.00">created_at </text>
<text text-anchor="start" x="954.23" y="-450.4" font-family="Arial" font-size="14.00" fill="#666666">[datetime]</text>
<polygon fill="none" stroke="black" points="877.18,-407.4 877.18,-438.2 1112.65,-438.2 1112.65,-407.4 877.18,-407.4"/>
<text text-anchor="start" x="884.18" y="-419.6" font-family="Arial" font-size="14.00">status_id </text>
<text text-anchor="start" x="944.11" y="-419.6" font-family="Arial" font-size="14.00" fill="#666666">[tinyint(4)]</text>
</g>
<!-- product_keys&#45;&gt;editions -->
<g id="edge3" class="edge">
<title>product_keys:edition_id&#45;&gt;editions:id</title>
<path fill="none" stroke="black" d="M865.85,-514.64C791.56,-505.91 858.82,-397.95 824.92,-318 797.84,-254.16 813,-184.8 743.66,-184.8"/>
<polygon fill="black" stroke="black" points="865.86,-514.64 875.6,-519.68 871.19,-514.93 875.51,-515.16 875.51,-515.16 875.51,-515.16 871.19,-514.93 876.09,-510.69 865.86,-514.64"/>
<text text-anchor="start" x="883.18" y="-525.2" font-family="Arial" font-size="10.00">FOREIGN KEY (edition_id) REFERENCES editions (id)</text>
</g>
</g>
</svg>
