<?xml version="1.0" encoding="UTF-8" standalone="no"?>
<!DOCTYPE svg PUBLIC "-//W3C//DTD SVG 1.1//EN"
 "http://www.w3.org/Graphics/SVG/1.1/DTD/svg11.dtd">
<!-- Generated by graphviz version 2.40.1 (20161225.0304)
 -->
<!-- Title: feedback_questions Pages: 1 -->
<svg width="874pt" height="1019pt"
 viewBox="0.00 0.00 874.00 1019.00" xmlns="http://www.w3.org/2000/svg" xmlns:xlink="http://www.w3.org/1999/xlink">
<g id="graph0" class="graph" transform="scale(1 1) rotate(0) translate(4 1015)">
<title>feedback_questions</title>
<polygon fill="#ffffff" stroke="transparent" points="-4,4 -4,-1015 870,-1015 870,4 -4,4"/>
<!-- feedback_questions -->
<g id="node1" class="node">
<title>feedback_questions</title>
<polygon fill="#efefef" stroke="transparent" points="344,-652.5 344,-687.5 615,-687.5 615,-652.5 344,-652.5"/>
<polygon fill="none" stroke="#000000" points="344,-652.5 344,-687.5 615,-687.5 615,-652.5 344,-652.5"/>
<text text-anchor="start" x="350.8397" y="-665.3" font-family="Arial Bold" font-size="18.00" fill="#000000">feedback_questions</text>
<text text-anchor="start" x="510.9065" y="-665.3" font-family="Arial" font-size="14.00" fill="#000000"> </text>
<text text-anchor="start" x="514.7971" y="-665.3" font-family="Arial" font-size="14.00" fill="#666666">[BASE TABLE]</text>
<polygon fill="none" stroke="#000000" points="344,-622.5 344,-652.5 615,-652.5 615,-622.5 344,-622.5"/>
<text text-anchor="start" x="351" y="-633.9" font-family="Arial" font-size="14.00" fill="#000000">id </text>
<text text-anchor="start" x="365.7798" y="-633.9" font-family="Arial" font-size="14.00" fill="#666666">[varchar(36)]</text>
<polygon fill="none" stroke="#000000" points="344,-592.5 344,-622.5 615,-622.5 615,-592.5 344,-592.5"/>
<text text-anchor="start" x="351" y="-603.9" font-family="Arial" font-size="14.00" fill="#000000">edition_id </text>
<text text-anchor="start" x="414.7966" y="-603.9" font-family="Arial" font-size="14.00" fill="#666666">[varchar(36)]</text>
<polygon fill="none" stroke="#000000" points="344,-562.5 344,-592.5 615,-592.5 615,-562.5 344,-562.5"/>
<text text-anchor="start" x="351" y="-573.9" font-family="Arial" font-size="14.00" fill="#000000">game_id </text>
<text text-anchor="start" x="408.5708" y="-573.9" font-family="Arial" font-size="14.00" fill="#666666">[varchar(36)]</text>
<polygon fill="none" stroke="#000000" points="344,-532.5 344,-562.5 615,-562.5 615,-532.5 344,-532.5"/>
<text text-anchor="start" x="351" y="-543.9" font-family="Arial" font-size="14.00" fill="#000000">question_text </text>
<text text-anchor="start" x="438.1472" y="-543.9" font-family="Arial" font-size="14.00" fill="#666666">[varchar(256)]</text>
<polygon fill="none" stroke="#000000" points="344,-502.5 344,-532.5 615,-532.5 615,-502.5 344,-502.5"/>
<text text-anchor="start" x="351" y="-513.9" font-family="Arial" font-size="14.00" fill="#000000">answer_type </text>
<text text-anchor="start" x="434.244" y="-513.9" font-family="Arial" font-size="14.00" fill="#666666">[tinyint(4)]</text>
<polygon fill="none" stroke="#000000" points="344,-472.5 344,-502.5 615,-502.5 615,-472.5 344,-472.5"/>
<text text-anchor="start" x="351" y="-483.9" font-family="Arial" font-size="14.00" fill="#000000">question_order </text>
<text text-anchor="start" x="448.2524" y="-483.9" font-family="Arial" font-size="14.00" fill="#666666">[bigint(20)]</text>
<polygon fill="none" stroke="#000000" points="344,-442.5 344,-472.5 615,-472.5 615,-442.5 344,-442.5"/>
<text text-anchor="start" x="351" y="-453.9" font-family="Arial" font-size="14.00" fill="#000000">created_at </text>
<text text-anchor="start" x="421.028" y="-453.9" font-family="Arial" font-size="14.00" fill="#666666">[datetime]</text>
<polygon fill="none" stroke="#000000" points="344,-412.5 344,-442.5 615,-442.5 615,-412.5 344,-412.5"/>
<text text-anchor="start" x="351" y="-423.9" font-family="Arial" font-size="14.00" fill="#000000">deleted_at </text>
<text text-anchor="start" x="420.2566" y="-423.9" font-family="Arial" font-size="14.00" fill="#666666">[datetime]</text>
<polygon fill="none" stroke="#000000" stroke-width="3" points="342,-411.5 342,-689.5 616,-689.5 616,-411.5 342,-411.5"/>
</g>
<!-- editions -->
<g id="node3" class="node">
<title>editions</title>
<polygon fill="#efefef" stroke="transparent" points="237,-222.5 237,-257.5 410,-257.5 410,-222.5 237,-222.5"/>
<polygon fill="none" stroke="#000000" points="237,-222.5 237,-257.5 410,-257.5 410,-222.5 237,-222.5"/>
<text text-anchor="start" x="243.8654" y="-235.3" font-family="Arial Bold" font-size="18.00" fill="#000000">editions</text>
<text text-anchor="start" x="305.8808" y="-235.3" font-family="Arial" font-size="14.00" fill="#000000"> </text>
<text text-anchor="start" x="309.7714" y="-235.3" font-family="Arial" font-size="14.00" fill="#666666">[BASE TABLE]</text>
<polygon fill="none" stroke="#000000" points="237,-192.5 237,-222.5 410,-222.5 410,-192.5 237,-192.5"/>
<text text-anchor="start" x="244" y="-203.9" font-family="Arial" font-size="14.00" fill="#000000">id </text>
<text text-anchor="start" x="258.7798" y="-203.9" font-family="Arial" font-size="14.00" fill="#666666">[varchar(36)]</text>
<polygon fill="none" stroke="#000000" points="237,-162.5 237,-192.5 410,-192.5 410,-162.5 237,-162.5"/>
<text text-anchor="start" x="244" y="-173.9" font-family="Arial" font-size="14.00" fill="#000000">name </text>
<text text-anchor="start" x="282.899" y="-173.9" font-family="Arial" font-size="14.00" fill="#666666">[varchar(32)]</text>
<polygon fill="none" stroke="#000000" points="237,-132.5 237,-162.5 410,-162.5 410,-132.5 237,-132.5"/>
<text text-anchor="start" x="244" y="-143.9" font-family="Arial" font-size="14.00" fill="#000000">questionnaire_url </text>
<text text-anchor="start" x="355.2482" y="-143.9" font-family="Arial" font-size="14.00" fill="#666666">[text]</text>
<polygon fill="none" stroke="#000000" points="237,-102.5 237,-132.5 410,-132.5 410,-102.5 237,-102.5"/>
<text text-anchor="start" x="244" y="-113.9" font-family="Arial" font-size="14.00" fill="#000000">created_at </text>
<text text-anchor="start" x="314.028" y="-113.9" font-family="Arial" font-size="14.00" fill="#666666">[datetime]</text>
<polygon fill="none" stroke="#000000" points="237,-72.5 237,-102.5 410,-102.5 410,-72.5 237,-72.5"/>
<text text-anchor="start" x="244" y="-83.9" font-family="Arial" font-size="14.00" fill="#000000">deleted_at </text>
<text text-anchor="start" x="313.2566" y="-83.9" font-family="Arial" font-size="14.00" fill="#666666">[datetime]</text>
</g>
<!-- feedback_questions&#45;&gt;editions -->
<g id="edge2" class="edge">
<title>feedback_questions:edition_id&#45;&gt;editions:id</title>
<path fill="none" stroke="#000000" d="M333.9174,-607.038C241.4652,-598.1345 304.4536,-462.4736 344,-367 359.8751,-328.6742 394.1249,-339.3258 410,-301 425.9026,-262.6077 451.5556,-207.5 410,-207.5"/>
<polygon fill="#000000" stroke="#000000" points="334.0105,-607.0421 343.794,-611.9953 339.0052,-607.2711 344,-607.5 344,-607.5 344,-607.5 339.0052,-607.2711 344.206,-603.0047 334.0105,-607.0421 334.0105,-607.0421"/>
<text text-anchor="start" x="90.939" y="-617.5" font-family="Arial" font-size="10.00" fill="#000000">FOREIGN KEY (edition_id) REFERENCES editions (id)</text>
</g>
<!-- games -->
<g id="node4" class="node">
<title>games</title>
<polygon fill="#efefef" stroke="transparent" points="514,-252.5 514,-287.5 757,-287.5 757,-252.5 514,-252.5"/>
<polygon fill="none" stroke="#000000" points="514,-252.5 514,-287.5 757,-287.5 757,-252.5 514,-252.5"/>
<text text-anchor="start" x="559.8677" y="-265.3" font-family="Arial Bold" font-size="18.00" fill="#000000">games</text>
<text text-anchor="start" x="613.8785" y="-265.3" font-family="Arial" font-size="14.00" fill="#000000"> </text>
<text text-anchor="start" x="617.7691" y="-265.3" font-family="Arial" font-size="14.00" fill="#666666">[BASE TABLE]</text>
<polygon fill="none" stroke="#000000" points="514,-222.5 514,-252.5 757,-252.5 757,-222.5 514,-222.5"/>
<text text-anchor="start" x="521" y="-233.9" font-family="Arial" font-size="14.00" fill="#000000">id </text>
<text text-anchor="start" x="535.7798" y="-233.9" font-family="Arial" font-size="14.00" fill="#666666">[varchar(36)]</text>
<polygon fill="none" stroke="#000000" points="514,-192.5 514,-222.5 757,-222.5 757,-192.5 514,-192.5"/>
<text text-anchor="start" x="521" y="-203.9" font-family="Arial" font-size="14.00" fill="#000000">name </text>
<text text-anchor="start" x="559.899" y="-203.9" font-family="Arial" font-size="14.00" fill="#666666">[varchar(256)]</text>
<polygon fill="none" stroke="#000000" points="514,-162.5 514,-192.5 757,-192.5 757,-162.5 514,-162.5"/>
<text text-anchor="start" x="521" y="-173.9" font-family="Arial" font-size="14.00" fill="#000000">description </text>
<text text-anchor="start" x="592.568" y="-173.9" font-family="Arial" font-size="14.00" fill="#666666">[text]</text>
<polygon fill="none" stroke="#000000" points="514,-132.5 514,-162.5 757,-162.5 757,-132.5 514,-132.5"/>
<text text-anchor="start" x="521" y="-143.9" font-family="Arial" font-size="14.00" fill="#000000">created_at </text>
<text text-anchor="start" x="591.028" y="-143.9" font-family="Arial" font-size="14.00" fill="#666666">[datetime]</text>
<polygon fill="none" stroke="#000000" points="514,-102.5 514,-132.5 757,-132.5 757,-102.5 514,-102.5"/>
<text text-anchor="start" x="521" y="-113.9" font-family="Arial" font-size="14.00" fill="#000000">deleted_at </text>
<text text-anchor="start" x="590.2566" y="-113.9" font-family="Arial" font-size="14.00" fill="#666666">[datetime]</text>
<polygon fill="none" stroke="#000000" points="514,-72.5 514,-102.5 757,-102.5 757,-72.5 514,-72.5"/>
<text text-anchor="start" x="521" y="-83.9" font-family="Arial" font-size="14.00" fill="#000000">visibility_type_id </text>
<text text-anchor="start" x="626.007" y="-83.9" font-family="Arial" font-size="14.00" fill="#666666">[tinyint(4)]</text>
<polygon fill="none" stroke="#000000" points="514,-42.5 514,-72.5 757,-72.5 757,-42.5 514,-42.5"/>
<text text-anchor="start" x="520.7371" y="-53.9" font-family="Arial" font-size="14.00" fill="#000000">latest_version_updated_at </text>
<text text-anchor="start" x="688.8029" y="-53.9" font-family="Arial" font-size="14.00" fill="#666666">[datetime]</text>
</g>
<!-- feedback_questions&#45;&gt;games -->
<g id="edge3" class="edge">
<title>feedback_questions:game_id&#45;&gt;games:id</title>
<path fill="none" stroke="#000000" d="M625.3609,-576.8978C705.437,-567.1157 666.8104,-440.4703 615,-367 587.5361,-328.0546 541.4639,-369.9454 514,-331 490.0513,-297.0394 472.4444,-237.5 514,-237.5"/>
<polygon fill="#000000" stroke="#000000" points="624.9832,-576.9197 614.7389,-573.0076 619.9916,-577.2098 615,-577.5 615,-577.5 615,-577.5 619.9916,-577.2098 615.2611,-581.9924 624.9832,-576.9197 624.9832,-576.9197"/>
<text text-anchor="start" x="622.386" y="-587.5" font-family="Arial" font-size="10.00" fill="#000000">FOREIGN KEY (game_id) REFERENCES games (id)</text>
</g>
<!-- game_feedback_answers -->
<g id="node2" class="node">
<title>game_feedback_answers</title>
<polygon fill="#efefef" stroke="transparent" points="322,-932.5 322,-967.5 638,-967.5 638,-932.5 322,-932.5"/>
<polygon fill="none" stroke="#000000" points="322,-932.5 322,-967.5 638,-967.5 638,-932.5 322,-932.5"/>
<text text-anchor="start" x="328.8424" y="-945.3" font-family="Arial Bold" font-size="18.00" fill="#000000">game_feedback_answers</text>
<text text-anchor="start" x="533.9038" y="-945.3" font-family="Arial" font-size="14.00" fill="#000000"> </text>
<text text-anchor="start" x="537.7944" y="-945.3" font-family="Arial" font-size="14.00" fill="#666666">[BASE TABLE]</text>
<polygon fill="none" stroke="#000000" points="322,-902.5 322,-932.5 638,-932.5 638,-902.5 322,-902.5"/>
<text text-anchor="start" x="329" y="-913.9" font-family="Arial" font-size="14.00" fill="#000000">id </text>
<text text-anchor="start" x="343.7798" y="-913.9" font-family="Arial" font-size="14.00" fill="#666666">[varchar(36)]</text>
<polygon fill="none" stroke="#000000" points="322,-872.5 322,-902.5 638,-902.5 638,-872.5 322,-872.5"/>
<text text-anchor="start" x="329" y="-883.9" font-family="Arial" font-size="14.00" fill="#000000">feedback_id </text>
<text text-anchor="start" x="408.366" y="-883.9" font-family="Arial" font-size="14.00" fill="#666666">[varchar(36)]</text>
<polygon fill="none" stroke="#000000" points="322,-842.5 322,-872.5 638,-872.5 638,-842.5 322,-842.5"/>
<text text-anchor="start" x="329" y="-853.9" font-family="Arial" font-size="14.00" fill="#000000">question_id </text>
<text text-anchor="start" x="404.4726" y="-853.9" font-family="Arial" font-size="14.00" fill="#666666">[varchar(36)]</text>
<polygon fill="none" stroke="#000000" points="322,-812.5 322,-842.5 638,-842.5 638,-812.5 322,-812.5"/>
<text text-anchor="start" x="329" y="-823.9" font-family="Arial" font-size="14.00" fill="#000000">answer </text>
<text text-anchor="start" x="378.0056" y="-823.9" font-family="Arial" font-size="14.00" fill="#666666">[bigint(20)]</text>
</g>
<!-- game_feedback_answers&#45;&gt;feedback_questions -->
<g id="edge1" class="edge">
<title>game_feedback_answers:question_id&#45;&gt;feedback_questions:id</title>
<path fill="none" stroke="#000000" d="M312.0581,-855.9115C285.7945,-846.378 298.749,-796.2827 322,-770 408.9327,-671.7324 528.0673,-832.2676 615,-734 643.4177,-701.877 657.8889,-637.5 615,-637.5"/>
<polygon fill="#000000" stroke="#000000" points="312.1252,-855.9222 321.29,-861.9436 317.0626,-856.7111 322,-857.5 322,-857.5 322,-857.5 317.0626,-856.7111 322.71,-853.0564 312.1252,-855.9222 312.1252,-855.9222"/>
<text text-anchor="start" x="6.5325" y="-867.5" font-family="Arial" font-size="10.00" fill="#000000">FOREIGN KEY (question_id) REFERENCES feedback_questions (id)</text>
</g>
</g>
</svg>
