<?xml version="1.0" encoding="UTF-8" standalone="no"?>
<!DOCTYPE svg PUBLIC "-//W3C//DTD SVG 1.1//EN"
 "http://www.w3.org/Graphics/SVG/1.1/DTD/svg11.dtd">
<!-- Generated by graphviz version 2.40.1 (20161225.0304)
 -->
<!-- Title: feedback_questions Pages: 1 -->
<svg width="689pt" height="989pt"
 viewBox="0.00 0.00 689.00 989.00" xmlns="http://www.w3.org/2000/svg" xmlns:xlink="http://www.w3.org/1999/xlink">
<g id="graph0" class="graph" transform="scale(1 1) rotate(0) translate(4 985)">
<title>feedback_questions</title>
<polygon fill="#ffffff" stroke="transparent" points="-4,4 -4,-985 685,-985 685,4 -4,4"/>
<!-- feedback_questions -->
<g id="node1" class="node">
<title>feedback_questions</title>
<polygon fill="#efefef" stroke="transparent" points="344,-622.5 344,-657.5 615,-657.5 615,-622.5 344,-622.5"/>
<polygon fill="none" stroke="#000000" points="344,-622.5 344,-657.5 615,-657.5 615,-622.5 344,-622.5"/>
<text text-anchor="start" x="350.8397" y="-635.3" font-family="Arial Bold" font-size="18.00" fill="#000000">feedback_questions</text>
<text text-anchor="start" x="510.9065" y="-635.3" font-family="Arial" font-size="14.00" fill="#000000"> </text>
<text text-anchor="start" x="514.7971" y="-635.3" font-family="Arial" font-size="14.00" fill="#666666">[BASE TABLE]</text>
<polygon fill="none" stroke="#000000" points="344,-592.5 344,-622.5 615,-622.5 615,-592.5 344,-592.5"/>
<text text-anchor="start" x="351" y="-603.9" font-family="Arial" font-size="14.00" fill="#000000">id </text>
<text text-anchor="start" x="365.7798" y="-603.9" font-family="Arial" font-size="14.00" fill="#666666">[varchar(36)]</text>
<polygon fill="none" stroke="#000000" points="344,-562.5 344,-592.5 615,-592.5 615,-562.5 344,-562.5"/>
<text text-anchor="start" x="351" y="-573.9" font-family="Arial" font-size="14.00" fill="#000000">game_id </text>
<text text-anchor="start" x="408.5708" y="-573.9" font-family="Arial" font-size="14.00" fill="#666666">[varchar(36)]</text>
<polygon fill="none" stroke="#000000" points="344,-532.5 344,-562.5 615,-562.5 615,-532.5 344,-532.5"/>
<text text-anchor="start" x="351" y="-543.9" font-family="Arial" font-size="14.00" fill="#000000">question_text </text>
<text text-anchor="start" x="438.1472" y="-543.9" font-family="Arial" font-size="14.00" fill="#666666">[varchar(256)]</text>
<polygon fill="none" stroke="#000000" points="344,-502.5 344,-532.5 615,-532.5 615,-502.5 344,-502.5"/>
<text text-anchor="start" x="351" y="-513.9" font-family="Arial" font-size="14.00" fill="#000000">answer_type </text>
<text text-anchor="start" x="434.244" y="-513.9" font-family="Arial" font-size="14.00" fill="#666666">[tinyint(4)]</text>
<polygon fill="none" stroke="#000000" points="344,-472.5 344,-502.5 615,-502.5 615,-472.5 344,-472.5"/>
<text text-anchor="start" x="351" y="-483.9" font-family="Arial" font-size="14.00" fill="#000000">question_order </text>
<text text-anchor="start" x="448.2524" y="-483.9" font-family="Arial" font-size="14.00" fill="#666666">[bigint(20)]</text>
<polygon fill="none" stroke="#000000" points="344,-442.5 344,-472.5 615,-472.5 615,-442.5 344,-442.5"/>
<text text-anchor="start" x="351" y="-453.9" font-family="Arial" font-size="14.00" fill="#000000">created_at </text>
<text text-anchor="start" x="421.028" y="-453.9" font-family="Arial" font-size="14.00" fill="#666666">[datetime]</text>
<polygon fill="none" stroke="#000000" points="344,-412.5 344,-442.5 615,-442.5 615,-412.5 344,-412.5"/>
<text text-anchor="start" x="351" y="-423.9" font-family="Arial" font-size="14.00" fill="#000000">archived_at </text>
<text text-anchor="start" x="427.244" y="-423.9" font-family="Arial" font-size="14.00" fill="#666666">[datetime]</text>
<polygon fill="none" stroke="#000000" stroke-width="3" points="342,-411.5 342,-659.5 616,-659.5 616,-411.5 342,-411.5"/>
</g>
<!-- games -->
<g id="node3" class="node">
<title>games</title>
<polygon fill="#efefef" stroke="transparent" points="358,-252.5 358,-287.5 601,-287.5 601,-252.5 358,-252.5"/>
<polygon fill="none" stroke="#000000" points="358,-252.5 358,-287.5 601,-287.5 601,-252.5 358,-252.5"/>
<text text-anchor="start" x="403.8677" y="-265.3" font-family="Arial Bold" font-size="18.00" fill="#000000">games</text>
<text text-anchor="start" x="457.8785" y="-265.3" font-family="Arial" font-size="14.00" fill="#000000"> </text>
<text text-anchor="start" x="461.7691" y="-265.3" font-family="Arial" font-size="14.00" fill="#666666">[BASE TABLE]</text>
<polygon fill="none" stroke="#000000" points="358,-222.5 358,-252.5 601,-252.5 601,-222.5 358,-222.5"/>
<text text-anchor="start" x="365" y="-233.9" font-family="Arial" font-size="14.00" fill="#000000">id </text>
<text text-anchor="start" x="379.7798" y="-233.9" font-family="Arial" font-size="14.00" fill="#666666">[varchar(36)]</text>
<polygon fill="none" stroke="#000000" points="358,-192.5 358,-222.5 601,-222.5 601,-192.5 358,-192.5"/>
<text text-anchor="start" x="365" y="-203.9" font-family="Arial" font-size="14.00" fill="#000000">name </text>
<text text-anchor="start" x="403.899" y="-203.9" font-family="Arial" font-size="14.00" fill="#666666">[varchar(256)]</text>
<polygon fill="none" stroke="#000000" points="358,-162.5 358,-192.5 601,-192.5 601,-162.5 358,-162.5"/>
<text text-anchor="start" x="365" y="-173.9" font-family="Arial" font-size="14.00" fill="#000000">description </text>
<text text-anchor="start" x="436.568" y="-173.9" font-family="Arial" font-size="14.00" fill="#666666">[text]</text>
<polygon fill="none" stroke="#000000" points="358,-132.5 358,-162.5 601,-162.5 601,-132.5 358,-132.5"/>
<text text-anchor="start" x="365" y="-143.9" font-family="Arial" font-size="14.00" fill="#000000">created_at </text>
<text text-anchor="start" x="435.028" y="-143.9" font-family="Arial" font-size="14.00" fill="#666666">[datetime]</text>
<polygon fill="none" stroke="#000000" points="358,-102.5 358,-132.5 601,-132.5 601,-102.5 358,-102.5"/>
<text text-anchor="start" x="365" y="-113.9" font-family="Arial" font-size="14.00" fill="#000000">deleted_at </text>
<text text-anchor="start" x="434.2566" y="-113.9" font-family="Arial" font-size="14.00" fill="#666666">[datetime]</text>
<polygon fill="none" stroke="#000000" points="358,-72.5 358,-102.5 601,-102.5 601,-72.5 358,-72.5"/>
<text text-anchor="start" x="365" y="-83.9" font-family="Arial" font-size="14.00" fill="#000000">visibility_type_id </text>
<text text-anchor="start" x="470.007" y="-83.9" font-family="Arial" font-size="14.00" fill="#666666">[tinyint(4)]</text>
<polygon fill="none" stroke="#000000" points="358,-42.5 358,-72.5 601,-72.5 601,-42.5 358,-42.5"/>
<text text-anchor="start" x="364.7371" y="-53.9" font-family="Arial" font-size="14.00" fill="#000000">latest_version_updated_at </text>
<text text-anchor="start" x="532.8029" y="-53.9" font-family="Arial" font-size="14.00" fill="#666666">[datetime]</text>
</g>
<!-- feedback_questions&#45;&gt;games -->
<g id="edge2" class="edge">
<title>feedback_questions:game_id&#45;&gt;games:id</title>
<path fill="none" stroke="#000000" d="M333.6379,-576.9485C193.4925,-561.7493 210.3055,-237.5 358,-237.5"/>
<polygon fill="#000000" stroke="#000000" points="334.0141,-576.9684 343.7608,-581.9936 339.0071,-577.2342 344,-577.5 344,-577.5 344,-577.5 339.0071,-577.2342 344.2392,-573.0064 334.0141,-576.9684 334.0141,-576.9684"/>
<text text-anchor="start" x="100.386" y="-587.5" font-family="Arial" font-size="10.00" fill="#000000">FOREIGN KEY (game_id) REFERENCES games (id)</text>
</g>
<!-- game_feedback_answers -->
<g id="node2" class="node">
<title>game_feedback_answers</title>
<polygon fill="#efefef" stroke="transparent" points="322,-902.5 322,-937.5 638,-937.5 638,-902.5 322,-902.5"/>
<polygon fill="none" stroke="#000000" points="322,-902.5 322,-937.5 638,-937.5 638,-902.5 322,-902.5"/>
<text text-anchor="start" x="328.8424" y="-915.3" font-family="Arial Bold" font-size="18.00" fill="#000000">game_feedback_answers</text>
<text text-anchor="start" x="533.9038" y="-915.3" font-family="Arial" font-size="14.00" fill="#000000"> </text>
<text text-anchor="start" x="537.7944" y="-915.3" font-family="Arial" font-size="14.00" fill="#666666">[BASE TABLE]</text>
<polygon fill="none" stroke="#000000" points="322,-872.5 322,-902.5 638,-902.5 638,-872.5 322,-872.5"/>
<text text-anchor="start" x="329" y="-883.9" font-family="Arial" font-size="14.00" fill="#000000">id </text>
<text text-anchor="start" x="343.7798" y="-883.9" font-family="Arial" font-size="14.00" fill="#666666">[varchar(36)]</text>
<polygon fill="none" stroke="#000000" points="322,-842.5 322,-872.5 638,-872.5 638,-842.5 322,-842.5"/>
<text text-anchor="start" x="329" y="-853.9" font-family="Arial" font-size="14.00" fill="#000000">feedback_id </text>
<text text-anchor="start" x="408.366" y="-853.9" font-family="Arial" font-size="14.00" fill="#666666">[varchar(36)]</text>
<polygon fill="none" stroke="#000000" points="322,-812.5 322,-842.5 638,-842.5 638,-812.5 322,-812.5"/>
<text text-anchor="start" x="329" y="-823.9" font-family="Arial" font-size="14.00" fill="#000000">question_id </text>
<text text-anchor="start" x="404.4726" y="-823.9" font-family="Arial" font-size="14.00" fill="#666666">[varchar(36)]</text>
<polygon fill="none" stroke="#000000" points="322,-782.5 322,-812.5 638,-812.5 638,-782.5 322,-782.5"/>
<text text-anchor="start" x="329" y="-793.9" font-family="Arial" font-size="14.00" fill="#000000">answer </text>
<text text-anchor="start" x="378.0056" y="-793.9" font-family="Arial" font-size="14.00" fill="#666666">[bigint(20)]</text>
</g>
<!-- game_feedback_answers&#45;&gt;feedback_questions -->
<g id="edge1" class="edge">
<title>game_feedback_answers:question_id&#45;&gt;feedback_questions:id</title>
<path fill="none" stroke="#000000" d="M312.0581,-825.9115C285.7945,-816.378 298.749,-766.2827 322,-740 408.9327,-641.7324 528.0673,-802.2676 615,-704 643.4177,-671.877 657.8889,-607.5 615,-607.5"/>
<polygon fill="#000000" stroke="#000000" points="312.1252,-825.9222 321.29,-831.9436 317.0626,-826.7111 322,-827.5 322,-827.5 322,-827.5 317.0626,-826.7111 322.71,-823.0564 312.1252,-825.9222 312.1252,-825.9222"/>
<text text-anchor="start" x="6.5325" y="-837.5" font-family="Arial" font-size="10.00" fill="#000000">FOREIGN KEY (question_id) REFERENCES feedback_questions (id)</text>
</g>
</g>
</svg>
