<?xml version="1.0" encoding="UTF-8" standalone="no"?>
<!DOCTYPE svg PUBLIC "-//W3C//DTD SVG 1.1//EN"
 "http://www.w3.org/Graphics/SVG/1.1/DTD/svg11.dtd">
<!-- Generated by graphviz version 12.1.2 (20240928.0832)
 -->
<!-- Title: feedback_questions Pages: 1 -->
<svg width="694pt" height="1006pt"
 viewBox="0.00 0.00 693.62 1006.40" xmlns="http://www.w3.org/2000/svg" xmlns:xlink="http://www.w3.org/1999/xlink">
<g id="graph0" class="graph" transform="scale(1 1) rotate(0) translate(4 1002.4)">
<title>feedback_questions</title>
<polygon fill="white" stroke="none" points="-4,4 -4,-1002.4 689.62,-1002.4 689.62,4 -4,4"/>
<!-- feedback_questions -->
<g id="node1" class="node">
<title>feedback_questions</title>
<polygon fill="#efefef" stroke="none" points="62.18,-635.4 62.18,-671 342.62,-671 342.62,-635.4 62.18,-635.4"/>
<polygon fill="none" stroke="black" points="62.18,-635.4 62.18,-671 342.62,-671 342.62,-635.4 62.18,-635.4"/>
<text text-anchor="start" x="69.18" y="-648.8" font-family="Arial Bold" font-size="18.00">feedback_questions</text>
<text text-anchor="start" x="211.13" y="-648.8" font-family="Arial" font-size="14.00">    </text>
<text text-anchor="start" x="242.25" y="-648.8" font-family="Arial" font-size="14.00" fill="#666666">[BASE TABLE]</text>
<polygon fill="none" stroke="black" points="62.18,-604.6 62.18,-635.4 342.62,-635.4 342.62,-604.6 62.18,-604.6"/>
<text text-anchor="start" x="69.18" y="-616.8" font-family="Arial" font-size="14.00">id </text>
<text text-anchor="start" x="83.97" y="-616.8" font-family="Arial" font-size="14.00" fill="#666666">[varchar(36)]</text>
<polygon fill="none" stroke="black" points="62.18,-573.8 62.18,-604.6 342.62,-604.6 342.62,-573.8 62.18,-573.8"/>
<text text-anchor="start" x="69.18" y="-586" font-family="Arial" font-size="14.00">game_id </text>
<text text-anchor="start" x="126.77" y="-586" font-family="Arial" font-size="14.00" fill="#666666">[varchar(36)]</text>
<polygon fill="none" stroke="black" points="62.18,-543 62.18,-573.8 342.62,-573.8 342.62,-543 62.18,-543"/>
<text text-anchor="start" x="69.18" y="-555.2" font-family="Arial" font-size="14.00">question_text </text>
<text text-anchor="start" x="156.35" y="-555.2" font-family="Arial" font-size="14.00" fill="#666666">[varchar(256)]</text>
<polygon fill="none" stroke="black" points="62.18,-512.2 62.18,-543 342.62,-543 342.62,-512.2 62.18,-512.2"/>
<text text-anchor="start" x="69.18" y="-524.4" font-family="Arial" font-size="14.00">answer_type </text>
<text text-anchor="start" x="152.45" y="-524.4" font-family="Arial" font-size="14.00" fill="#666666">[tinyint(4)]</text>
<polygon fill="none" stroke="black" points="62.18,-481.4 62.18,-512.2 342.62,-512.2 342.62,-481.4 62.18,-481.4"/>
<text text-anchor="start" x="69.18" y="-493.6" font-family="Arial" font-size="14.00">question_order </text>
<text text-anchor="start" x="166.47" y="-493.6" font-family="Arial" font-size="14.00" fill="#666666">[bigint(20)]</text>
<polygon fill="none" stroke="black" points="62.18,-450.6 62.18,-481.4 342.62,-481.4 342.62,-450.6 62.18,-450.6"/>
<text text-anchor="start" x="69.18" y="-462.8" font-family="Arial" font-size="14.00">created_at </text>
<text text-anchor="start" x="139.23" y="-462.8" font-family="Arial" font-size="14.00" fill="#666666">[datetime]</text>
<polygon fill="none" stroke="black" points="62.18,-419.8 62.18,-450.6 342.62,-450.6 342.62,-419.8 62.18,-419.8"/>
<text text-anchor="start" x="69.18" y="-432" font-family="Arial" font-size="14.00">archived_at </text>
<text text-anchor="start" x="145.45" y="-432" font-family="Arial" font-size="14.00" fill="#666666">[datetime]</text>
<polygon fill="none" stroke="black" stroke-width="3" points="60.68,-418.3 60.68,-672.5 344.12,-672.5 344.12,-418.3 60.68,-418.3"/>
</g>
<!-- games -->
<g id="node3" class="node">
<title>games</title>
<polygon fill="#efefef" stroke="none" points="80.6,-258.8 80.6,-294.4 324.2,-294.4 324.2,-258.8 80.6,-258.8"/>
<polygon fill="none" stroke="black" points="80.6,-258.8 80.6,-294.4 324.2,-294.4 324.2,-258.8 80.6,-258.8"/>
<text text-anchor="start" x="117.16" y="-272.2" font-family="Arial Bold" font-size="18.00">games</text>
<text text-anchor="start" x="163.15" y="-272.2" font-family="Arial" font-size="14.00">    </text>
<text text-anchor="start" x="194.27" y="-272.2" font-family="Arial" font-size="14.00" fill="#666666">[BASE TABLE]</text>
<polygon fill="none" stroke="black" points="80.6,-228 80.6,-258.8 324.2,-258.8 324.2,-228 80.6,-228"/>
<text text-anchor="start" x="87.6" y="-240.2" font-family="Arial" font-size="14.00">id </text>
<text text-anchor="start" x="102.39" y="-240.2" font-family="Arial" font-size="14.00" fill="#666666">[varchar(36)]</text>
<polygon fill="none" stroke="black" points="80.6,-197.2 80.6,-228 324.2,-228 324.2,-197.2 80.6,-197.2"/>
<text text-anchor="start" x="87.6" y="-209.4" font-family="Arial" font-size="14.00">name </text>
<text text-anchor="start" x="126.51" y="-209.4" font-family="Arial" font-size="14.00" fill="#666666">[varchar(256)]</text>
<polygon fill="none" stroke="black" points="80.6,-166.4 80.6,-197.2 324.2,-197.2 324.2,-166.4 80.6,-166.4"/>
<text text-anchor="start" x="87.6" y="-178.6" font-family="Arial" font-size="14.00">description </text>
<text text-anchor="start" x="159.19" y="-178.6" font-family="Arial" font-size="14.00" fill="#666666">[text]</text>
<polygon fill="none" stroke="black" points="80.6,-135.6 80.6,-166.4 324.2,-166.4 324.2,-135.6 80.6,-135.6"/>
<text text-anchor="start" x="87.6" y="-147.8" font-family="Arial" font-size="14.00">created_at </text>
<text text-anchor="start" x="157.65" y="-147.8" font-family="Arial" font-size="14.00" fill="#666666">[datetime]</text>
<polygon fill="none" stroke="black" points="80.6,-104.8 80.6,-135.6 324.2,-135.6 324.2,-104.8 80.6,-104.8"/>
<text text-anchor="start" x="87.6" y="-117" font-family="Arial" font-size="14.00">deleted_at </text>
<text text-anchor="start" x="156.88" y="-117" font-family="Arial" font-size="14.00" fill="#666666">[datetime]</text>
<polygon fill="none" stroke="black" points="80.6,-74 80.6,-104.8 324.2,-104.8 324.2,-74 80.6,-74"/>
<text text-anchor="start" x="87.6" y="-86.2" font-family="Arial" font-size="14.00">visibility_type_id </text>
<text text-anchor="start" x="192.65" y="-86.2" font-family="Arial" font-size="14.00" fill="#666666">[tinyint(4)]</text>
<polygon fill="none" stroke="black" points="80.6,-43.2 80.6,-74 324.2,-74 324.2,-43.2 80.6,-43.2"/>
<text text-anchor="start" x="87.6" y="-55.4" font-family="Arial" font-size="14.00">latest_version_updated_at </text>
<text text-anchor="start" x="255.72" y="-55.4" font-family="Arial" font-size="14.00" fill="#666666">[datetime]</text>
</g>
<!-- feedback_questions&#45;&gt;games -->
<g id="edge2" class="edge">
<title>feedback_questions:game_id&#45;&gt;games:id</title>
<path fill="none" stroke="black" d="M353.73,-588.68C496.63,-573.84 475.65,-243.4 325.2,-243.4"/>
<polygon fill="black" stroke="black" points="353.94,-588.67 343.73,-584.69 348.61,-588.95 344.29,-589.17 344.29,-589.17 344.29,-589.17 348.61,-588.95 344.18,-593.68 353.94,-588.67"/>
<text text-anchor="start" x="350.62" y="-599.2" font-family="Arial" font-size="10.00">FOREIGN KEY (game_id) REFERENCES games (id)</text>
</g>
<!-- game_feedback_answers -->
<g id="node2" class="node">
<title>game_feedback_answers</title>
<polygon fill="#efefef" stroke="none" points="43.2,-919.6 43.2,-955.2 361.6,-955.2 361.6,-919.6 43.2,-919.6"/>
<polygon fill="none" stroke="black" points="43.2,-919.6 43.2,-955.2 361.6,-955.2 361.6,-919.6 43.2,-919.6"/>
<text text-anchor="start" x="50.2" y="-933" font-family="Arial Bold" font-size="18.00">game_feedback_answers</text>
<text text-anchor="start" x="230.11" y="-933" font-family="Arial" font-size="14.00">    </text>
<text text-anchor="start" x="261.23" y="-933" font-family="Arial" font-size="14.00" fill="#666666">[BASE TABLE]</text>
<polygon fill="none" stroke="black" points="43.2,-888.8 43.2,-919.6 361.6,-919.6 361.6,-888.8 43.2,-888.8"/>
<text text-anchor="start" x="50.2" y="-901" font-family="Arial" font-size="14.00">id </text>
<text text-anchor="start" x="64.99" y="-901" font-family="Arial" font-size="14.00" fill="#666666">[varchar(36)]</text>
<polygon fill="none" stroke="black" points="43.2,-858 43.2,-888.8 361.6,-888.8 361.6,-858 43.2,-858"/>
<text text-anchor="start" x="50.2" y="-870.2" font-family="Arial" font-size="14.00">feedback_id </text>
<text text-anchor="start" x="129.59" y="-870.2" font-family="Arial" font-size="14.00" fill="#666666">[varchar(36)]</text>
<polygon fill="none" stroke="black" points="43.2,-827.2 43.2,-858 361.6,-858 361.6,-827.2 43.2,-827.2"/>
<text text-anchor="start" x="50.2" y="-839.4" font-family="Arial" font-size="14.00">question_id </text>
<text text-anchor="start" x="125.7" y="-839.4" font-family="Arial" font-size="14.00" fill="#666666">[varchar(36)]</text>
<polygon fill="none" stroke="black" points="43.2,-796.4 43.2,-827.2 361.6,-827.2 361.6,-796.4 43.2,-796.4"/>
<text text-anchor="start" x="50.2" y="-808.6" font-family="Arial" font-size="14.00">answer </text>
<text text-anchor="start" x="99.22" y="-808.6" font-family="Arial" font-size="14.00" fill="#666666">[bigint(20)]</text>
</g>
<!-- game_feedback_answers&#45;&gt;feedback_questions -->
<g id="edge1" class="edge">
<title>game_feedback_answers:question_id&#45;&gt;feedback_questions:id</title>
<path fill="none" stroke="black" d="M372.9,-841.75C460.42,-826.8 439.33,-620 343.62,-620"/>
<polygon fill="black" stroke="black" points="372.9,-841.75 362.56,-838.09 367.58,-842.19 363.27,-842.54 363.27,-842.54 363.27,-842.54 367.58,-842.19 363.31,-847.06 372.9,-841.75"/>
<text text-anchor="start" x="369.6" y="-852.6" font-family="Arial" font-size="10.00">FOREIGN KEY (question_id) REFERENCES feedback_questions (id)</text>
</g>
</g>
</svg>
