<?xml version="1.0" encoding="UTF-8" standalone="no"?>
<!DOCTYPE svg PUBLIC "-//W3C//DTD SVG 1.1//EN"
 "http://www.w3.org/Graphics/SVG/1.1/DTD/svg11.dtd">
<!-- Generated by graphviz version 2.40.1 (20161225.0304)
 -->
<!-- Title: feedback_questions Pages: 1 -->
<svg width="689pt" height="562pt"
 viewBox="0.00 0.00 689.00 562.00" xmlns="http://www.w3.org/2000/svg" xmlns:xlink="http://www.w3.org/1999/xlink">
<g id="graph0" class="graph" transform="scale(1 1) rotate(0) translate(4 558)">
<title>feedback_questions</title>
<polygon fill="#ffffff" stroke="transparent" points="-4,4 -4,-558 685,-558 685,4 -4,4"/>
<!-- feedback_questions -->
<g id="node1" class="node">
<title>feedback_questions</title>
<polygon fill="#efefef" stroke="transparent" points="344,-195.5 344,-230.5 615,-230.5 615,-195.5 344,-195.5"/>
<polygon fill="none" stroke="#000000" points="344,-195.5 344,-230.5 615,-230.5 615,-195.5 344,-195.5"/>
<text text-anchor="start" x="350.8397" y="-208.3" font-family="Arial Bold" font-size="18.00" fill="#000000">feedback_questions</text>
<text text-anchor="start" x="510.9065" y="-208.3" font-family="Arial" font-size="14.00" fill="#000000"> </text>
<text text-anchor="start" x="514.7971" y="-208.3" font-family="Arial" font-size="14.00" fill="#666666">[BASE TABLE]</text>
<polygon fill="none" stroke="#000000" points="344,-165.5 344,-195.5 615,-195.5 615,-165.5 344,-165.5"/>
<text text-anchor="start" x="351" y="-176.9" font-family="Arial" font-size="14.00" fill="#000000">id </text>
<text text-anchor="start" x="365.7798" y="-176.9" font-family="Arial" font-size="14.00" fill="#666666">[varchar(36)]</text>
<polygon fill="none" stroke="#000000" points="344,-135.5 344,-165.5 615,-165.5 615,-135.5 344,-135.5"/>
<text text-anchor="start" x="351" y="-146.9" font-family="Arial" font-size="14.00" fill="#000000">question_text </text>
<text text-anchor="start" x="438.1472" y="-146.9" font-family="Arial" font-size="14.00" fill="#666666">[varchar(256)]</text>
<polygon fill="none" stroke="#000000" points="344,-105.5 344,-135.5 615,-135.5 615,-105.5 344,-105.5"/>
<text text-anchor="start" x="351" y="-116.9" font-family="Arial" font-size="14.00" fill="#000000">question_order </text>
<text text-anchor="start" x="448.2524" y="-116.9" font-family="Arial" font-size="14.00" fill="#666666">[bigint(20)]</text>
<polygon fill="none" stroke="#000000" points="344,-75.5 344,-105.5 615,-105.5 615,-75.5 344,-75.5"/>
<text text-anchor="start" x="351" y="-86.9" font-family="Arial" font-size="14.00" fill="#000000">is_active </text>
<text text-anchor="start" x="409.3422" y="-86.9" font-family="Arial" font-size="14.00" fill="#666666">[tinyint(1)]</text>
<polygon fill="none" stroke="#000000" points="344,-45.5 344,-75.5 615,-75.5 615,-45.5 344,-45.5"/>
<text text-anchor="start" x="351" y="-56.9" font-family="Arial" font-size="14.00" fill="#000000">created_at </text>
<text text-anchor="start" x="421.028" y="-56.9" font-family="Arial" font-size="14.00" fill="#666666">[datetime]</text>
<polygon fill="none" stroke="#000000" stroke-width="3" points="342,-44.5 342,-232.5 616,-232.5 616,-44.5 342,-44.5"/>
</g>
<!-- game_feedback_answers -->
<g id="node2" class="node">
<title>game_feedback_answers</title>
<polygon fill="#efefef" stroke="transparent" points="322,-475.5 322,-510.5 638,-510.5 638,-475.5 322,-475.5"/>
<polygon fill="none" stroke="#000000" points="322,-475.5 322,-510.5 638,-510.5 638,-475.5 322,-475.5"/>
<text text-anchor="start" x="328.8424" y="-488.3" font-family="Arial Bold" font-size="18.00" fill="#000000">game_feedback_answers</text>
<text text-anchor="start" x="533.9038" y="-488.3" font-family="Arial" font-size="14.00" fill="#000000"> </text>
<text text-anchor="start" x="537.7944" y="-488.3" font-family="Arial" font-size="14.00" fill="#666666">[BASE TABLE]</text>
<polygon fill="none" stroke="#000000" points="322,-445.5 322,-475.5 638,-475.5 638,-445.5 322,-445.5"/>
<text text-anchor="start" x="329" y="-456.9" font-family="Arial" font-size="14.00" fill="#000000">id </text>
<text text-anchor="start" x="343.7798" y="-456.9" font-family="Arial" font-size="14.00" fill="#666666">[varchar(36)]</text>
<polygon fill="none" stroke="#000000" points="322,-415.5 322,-445.5 638,-445.5 638,-415.5 322,-415.5"/>
<text text-anchor="start" x="329" y="-426.9" font-family="Arial" font-size="14.00" fill="#000000">feedback_id </text>
<text text-anchor="start" x="408.366" y="-426.9" font-family="Arial" font-size="14.00" fill="#666666">[varchar(36)]</text>
<polygon fill="none" stroke="#000000" points="322,-385.5 322,-415.5 638,-415.5 638,-385.5 322,-385.5"/>
<text text-anchor="start" x="329" y="-396.9" font-family="Arial" font-size="14.00" fill="#000000">question_id </text>
<text text-anchor="start" x="404.4726" y="-396.9" font-family="Arial" font-size="14.00" fill="#666666">[varchar(36)]</text>
<polygon fill="none" stroke="#000000" points="322,-355.5 322,-385.5 638,-385.5 638,-355.5 322,-355.5"/>
<text text-anchor="start" x="329" y="-366.9" font-family="Arial" font-size="14.00" fill="#000000">answer </text>
<text text-anchor="start" x="378.0056" y="-366.9" font-family="Arial" font-size="14.00" fill="#666666">[tinyint(1)]</text>
</g>
<!-- game_feedback_answers&#45;&gt;feedback_questions -->
<g id="edge1" class="edge">
<title>game_feedback_answers:question_id&#45;&gt;feedback_questions:id</title>
<path fill="none" stroke="#000000" d="M312.0581,-398.9115C285.7945,-389.378 298.749,-339.2827 322,-313 408.9327,-214.7324 528.0673,-375.2676 615,-277 643.4177,-244.877 657.8889,-180.5 615,-180.5"/>
<polygon fill="#000000" stroke="#000000" points="312.1252,-398.9222 321.29,-404.9436 317.0626,-399.7111 322,-400.5 322,-400.5 322,-400.5 317.0626,-399.7111 322.71,-396.0564 312.1252,-398.9222 312.1252,-398.9222"/>
<text text-anchor="start" x="6.5325" y="-410.5" font-family="Arial" font-size="10.00" fill="#000000">FOREIGN KEY (question_id) REFERENCES feedback_questions (id)</text>
</g>
</g>
</svg>
