<?xml version="1.0" encoding="UTF-8" standalone="no"?>
<!DOCTYPE svg PUBLIC "-//W3C//DTD SVG 1.1//EN"
 "http://www.w3.org/Graphics/SVG/1.1/DTD/svg11.dtd">
<!-- Generated by graphviz version 2.40.1 (20161225.0304)
 -->
<!-- Title: game_creators Pages: 1 -->
<svg width="934pt" height="869pt"
 viewBox="0.00 0.00 934.00 869.00" xmlns="http://www.w3.org/2000/svg" xmlns:xlink="http://www.w3.org/1999/xlink">
<g id="graph0" class="graph" transform="scale(1 1) rotate(0) translate(4 865)">
<title>game_creators</title>
<polygon fill="#ffffff" stroke="transparent" points="-4,4 -4,-865 930,-865 930,4 -4,4"/>
<!-- game_creators -->
<g id="node1" class="node">
<title>game_creators</title>
<polygon fill="#efefef" stroke="transparent" points="364,-562.5 364,-597.5 595,-597.5 595,-562.5 364,-562.5"/>
<polygon fill="none" stroke="#000000" points="364,-562.5 364,-597.5 595,-597.5 595,-562.5 364,-562.5"/>
<text text-anchor="start" x="370.862" y="-575.3" font-family="Arial Bold" font-size="18.00" fill="#000000">game_creators</text>
<text text-anchor="start" x="490.8842" y="-575.3" font-family="Arial" font-size="14.00" fill="#000000"> </text>
<text text-anchor="start" x="494.7748" y="-575.3" font-family="Arial" font-size="14.00" fill="#666666">[BASE TABLE]</text>
<polygon fill="none" stroke="#000000" points="364,-532.5 364,-562.5 595,-562.5 595,-532.5 364,-532.5"/>
<text text-anchor="start" x="371" y="-543.9" font-family="Arial" font-size="14.00" fill="#000000">id </text>
<text text-anchor="start" x="385.7798" y="-543.9" font-family="Arial" font-size="14.00" fill="#666666">[varchar(36)]</text>
<polygon fill="none" stroke="#000000" points="364,-502.5 364,-532.5 595,-532.5 595,-502.5 364,-502.5"/>
<text text-anchor="start" x="371" y="-513.9" font-family="Arial" font-size="14.00" fill="#000000">game_id </text>
<text text-anchor="start" x="428.5708" y="-513.9" font-family="Arial" font-size="14.00" fill="#666666">[varchar(36)]</text>
<polygon fill="none" stroke="#000000" points="364,-472.5 364,-502.5 595,-502.5 595,-472.5 364,-472.5"/>
<text text-anchor="start" x="371" y="-483.9" font-family="Arial" font-size="14.00" fill="#000000">user_id </text>
<text text-anchor="start" x="420.7882" y="-483.9" font-family="Arial" font-size="14.00" fill="#666666">[varchar(36)]</text>
<polygon fill="none" stroke="#000000" points="364,-442.5 364,-472.5 595,-472.5 595,-442.5 364,-442.5"/>
<text text-anchor="start" x="371" y="-453.9" font-family="Arial" font-size="14.00" fill="#000000">user_name </text>
<text text-anchor="start" x="444.9074" y="-453.9" font-family="Arial" font-size="14.00" fill="#666666">[varchar(32)]</text>
<polygon fill="none" stroke="#000000" points="364,-412.5 364,-442.5 595,-442.5 595,-412.5 364,-412.5"/>
<text text-anchor="start" x="371" y="-423.9" font-family="Arial" font-size="14.00" fill="#000000">created_at </text>
<text text-anchor="start" x="441.028" y="-423.9" font-family="Arial" font-size="14.00" fill="#666666">[datetime]</text>
<polygon fill="none" stroke="#000000" stroke-width="3" points="362,-411.5 362,-599.5 596,-599.5 596,-411.5 362,-411.5"/>
</g>
<!-- games -->
<g id="node4" class="node">
<title>games</title>
<polygon fill="#efefef" stroke="transparent" points="358,-252.5 358,-287.5 601,-287.5 601,-252.5 358,-252.5"/>
<polygon fill="none" stroke="#000000" points="358,-252.5 358,-287.5 601,-287.5 601,-252.5 358,-252.5"/>
<text text-anchor="start" x="403.8677" y="-265.3" font-family="Arial Bold" font-size="18.00" fill="#000000">games</text>
<text text-anchor="start" x="457.8785" y="-265.3" font-family="Arial" font-size="14.00" fill="#000000"> </text>
<text text-anchor="start" x="461.7691" y="-265.3" font-family="Arial" font-size="14.00" fill="#666666">[BASE TABLE]</text>
<polygon fill="none" stroke="#000000" points="358,-222.5 358,-252.5 601,-252.5 601,-222.5 358,-222.5"/>
<text text-anchor="start" x="365" y="-233.9" font-family="Arial" font-size="14.00" fill="#000000">id </text>
<text text-anchor="start" x="379.7798" y="-233.9" font-family="Arial" font-size="14.00" fill="#666666">[varchar(36)]</text>
<polygon fill="none" stroke="#000000" points="358,-192.5 358,-222.5 601,-222.5 601,-192.5 358,-192.5"/>
<text text-anchor="start" x="365" y="-203.9" font-family="Arial" font-size="14.00" fill="#000000">name </text>
<text text-anchor="start" x="403.899" y="-203.9" font-family="Arial" font-size="14.00" fill="#666666">[varchar(256)]</text>
<polygon fill="none" stroke="#000000" points="358,-162.5 358,-192.5 601,-192.5 601,-162.5 358,-162.5"/>
<text text-anchor="start" x="365" y="-173.9" font-family="Arial" font-size="14.00" fill="#000000">description </text>
<text text-anchor="start" x="436.568" y="-173.9" font-family="Arial" font-size="14.00" fill="#666666">[text]</text>
<polygon fill="none" stroke="#000000" points="358,-132.5 358,-162.5 601,-162.5 601,-132.5 358,-132.5"/>
<text text-anchor="start" x="365" y="-143.9" font-family="Arial" font-size="14.00" fill="#000000">created_at </text>
<text text-anchor="start" x="435.028" y="-143.9" font-family="Arial" font-size="14.00" fill="#666666">[datetime]</text>
<polygon fill="none" stroke="#000000" points="358,-102.5 358,-132.5 601,-132.5 601,-102.5 358,-102.5"/>
<text text-anchor="start" x="365" y="-113.9" font-family="Arial" font-size="14.00" fill="#000000">deleted_at </text>
<text text-anchor="start" x="434.2566" y="-113.9" font-family="Arial" font-size="14.00" fill="#666666">[datetime]</text>
<polygon fill="none" stroke="#000000" points="358,-72.5 358,-102.5 601,-102.5 601,-72.5 358,-72.5"/>
<text text-anchor="start" x="365" y="-83.9" font-family="Arial" font-size="14.00" fill="#000000">visibility_type_id </text>
<text text-anchor="start" x="470.007" y="-83.9" font-family="Arial" font-size="14.00" fill="#666666">[tinyint(4)]</text>
<polygon fill="none" stroke="#000000" points="358,-42.5 358,-72.5 601,-72.5 601,-42.5 358,-42.5"/>
<text text-anchor="start" x="364.7371" y="-53.9" font-family="Arial" font-size="14.00" fill="#000000">latest_version_updated_at </text>
<text text-anchor="start" x="532.8029" y="-53.9" font-family="Arial" font-size="14.00" fill="#666666">[datetime]</text>
</g>
<!-- game_creators&#45;&gt;games -->
<g id="edge3" class="edge">
<title>game_creators:game_id&#45;&gt;games:id</title>
<path fill="none" stroke="#000000" d="M353.71,-516.839C239.2918,-501.8652 237.0521,-237.5 358,-237.5"/>
<polygon fill="#000000" stroke="#000000" points="354.0206,-516.8589 363.7115,-521.9907 359.0103,-517.1794 364,-517.5 364,-517.5 364,-517.5 359.0103,-517.1794 364.2885,-513.0093 354.0206,-516.8589 354.0206,-516.8589"/>
<text text-anchor="start" x="120.386" y="-527.5" font-family="Arial" font-size="10.00" fill="#000000">FOREIGN KEY (game_id) REFERENCES games (id)</text>
</g>
<!-- game_creator_custom_job_relations -->
<g id="node2" class="node">
<title>game_creator_custom_job_relations</title>
<polygon fill="#efefef" stroke="transparent" points="43,-782.5 43,-817.5 445,-817.5 445,-782.5 43,-782.5"/>
<polygon fill="none" stroke="#000000" points="43,-782.5 43,-817.5 445,-817.5 445,-782.5 43,-782.5"/>
<text text-anchor="start" x="49.8422" y="-795.3" font-family="Arial Bold" font-size="18.00" fill="#000000">game_creator_custom_job_relations</text>
<text text-anchor="start" x="340.904" y="-795.3" font-family="Arial" font-size="14.00" fill="#000000"> </text>
<text text-anchor="start" x="344.7946" y="-795.3" font-family="Arial" font-size="14.00" fill="#666666">[BASE TABLE]</text>
<polygon fill="none" stroke="#000000" points="43,-752.5 43,-782.5 445,-782.5 445,-752.5 43,-752.5"/>
<text text-anchor="start" x="50" y="-763.9" font-family="Arial" font-size="14.00" fill="#000000">game_creator_id </text>
<text text-anchor="start" x="158.913" y="-763.9" font-family="Arial" font-size="14.00" fill="#666666">[varchar(36)]</text>
<polygon fill="none" stroke="#000000" points="43,-722.5 43,-752.5 445,-752.5 445,-722.5 43,-722.5"/>
<text text-anchor="start" x="50" y="-733.9" font-family="Arial" font-size="14.00" fill="#000000">custom_job_id </text>
<text text-anchor="start" x="144.1332" y="-733.9" font-family="Arial" font-size="14.00" fill="#666666">[varchar(36)]</text>
</g>
<!-- game_creator_custom_job_relations&#45;&gt;game_creators -->
<g id="edge1" class="edge">
<title>game_creator_custom_job_relations:game_creator_id&#45;&gt;game_creators:id</title>
<path fill="none" stroke="#000000" d="M455.1535,-765.8822C480.258,-756.5799 464.0389,-709.2963 445,-680 423.5329,-646.9672 385.4671,-677.0328 364,-644 340.6293,-608.038 321.1111,-547.5 364,-547.5"/>
<polygon fill="#000000" stroke="#000000" points="454.8754,-765.9265 444.2919,-763.0561 449.9377,-766.7132 445,-767.5 445,-767.5 445,-767.5 449.9377,-766.7132 445.7081,-771.9439 454.8754,-765.9265 454.8754,-765.9265"/>
<text text-anchor="start" x="451.713" y="-777.5" font-family="Arial" font-size="10.00" fill="#000000">FOREIGN KEY (game_creator_id) REFERENCES game_creators (id)</text>
</g>
<!-- game_creator_job_relations -->
<g id="node3" class="node">
<title>game_creator_job_relations</title>
<polygon fill="#efefef" stroke="transparent" points="549,-782.5 549,-817.5 883,-817.5 883,-782.5 549,-782.5"/>
<polygon fill="none" stroke="#000000" points="549,-782.5 549,-817.5 883,-817.5 883,-782.5 549,-782.5"/>
<text text-anchor="start" x="555.8487" y="-795.3" font-family="Arial Bold" font-size="18.00" fill="#000000">game_creator_job_relations</text>
<text text-anchor="start" x="778.8975" y="-795.3" font-family="Arial" font-size="14.00" fill="#000000"> </text>
<text text-anchor="start" x="782.7881" y="-795.3" font-family="Arial" font-size="14.00" fill="#666666">[BASE TABLE]</text>
<polygon fill="none" stroke="#000000" points="549,-752.5 549,-782.5 883,-782.5 883,-752.5 549,-752.5"/>
<text text-anchor="start" x="556" y="-763.9" font-family="Arial" font-size="14.00" fill="#000000">game_creator_id </text>
<text text-anchor="start" x="664.913" y="-763.9" font-family="Arial" font-size="14.00" fill="#666666">[varchar(36)]</text>
<polygon fill="none" stroke="#000000" points="549,-722.5 549,-752.5 883,-752.5 883,-722.5 549,-722.5"/>
<text text-anchor="start" x="556" y="-733.9" font-family="Arial" font-size="14.00" fill="#000000">job_id </text>
<text text-anchor="start" x="597.2342" y="-733.9" font-family="Arial" font-size="14.00" fill="#666666">[varchar(36)]</text>
</g>
<!-- game_creator_job_relations&#45;&gt;game_creators -->
<g id="edge2" class="edge">
<title>game_creator_job_relations:game_creator_id&#45;&gt;game_creators:id</title>
<path fill="none" stroke="#000000" d="M538.9621,-765.9476C514.5008,-757.0092 533.6965,-711.4095 549,-680 560.371,-656.6617 583.629,-667.3383 595,-644 613.7854,-605.444 637.8889,-547.5 595,-547.5"/>
<polygon fill="#000000" stroke="#000000" points="539.1175,-765.9716 548.3122,-771.9471 544.0587,-766.7358 549,-767.5 549,-767.5 549,-767.5 544.0587,-766.7358 549.6878,-763.0529 539.1175,-765.9716 539.1175,-765.9716"/>
<text text-anchor="start" x="555.713" y="-751.5" font-family="Arial" font-size="10.00" fill="#000000">FOREIGN KEY (game_creator_id) REFERENCES game_creators (id)</text>
</g>
</g>
</svg>
