<?xml version="1.0" encoding="UTF-8" standalone="no"?>
<!DOCTYPE svg PUBLIC "-//W3C//DTD SVG 1.1//EN"
 "http://www.w3.org/Graphics/SVG/1.1/DTD/svg11.dtd">
<!-- Generated by graphviz version 2.40.1 (20161225.0304)
 -->
<!-- Title: game_creators Pages: 1 -->
<svg width="866pt" height="929pt"
 viewBox="0.00 0.00 865.50 929.00" xmlns="http://www.w3.org/2000/svg" xmlns:xlink="http://www.w3.org/1999/xlink">
<g id="graph0" class="graph" transform="scale(1 1) rotate(0) translate(4 925)">
<title>game_creators</title>
<polygon fill="#ffffff" stroke="transparent" points="-4,4 -4,-925 861.5,-925 861.5,4 -4,4"/>
<!-- game_creators -->
<g id="node1" class="node">
<title>game_creators</title>
<polygon fill="#efefef" stroke="transparent" points="312.5,-562.5 312.5,-597.5 543.5,-597.5 543.5,-562.5 312.5,-562.5"/>
<polygon fill="none" stroke="#000000" points="312.5,-562.5 312.5,-597.5 543.5,-597.5 543.5,-562.5 312.5,-562.5"/>
<text text-anchor="start" x="319.362" y="-575.3" font-family="Arial Bold" font-size="18.00" fill="#000000">game_creators</text>
<text text-anchor="start" x="439.3842" y="-575.3" font-family="Arial" font-size="14.00" fill="#000000"> </text>
<text text-anchor="start" x="443.2748" y="-575.3" font-family="Arial" font-size="14.00" fill="#666666">[BASE TABLE]</text>
<polygon fill="none" stroke="#000000" points="312.5,-532.5 312.5,-562.5 543.5,-562.5 543.5,-532.5 312.5,-532.5"/>
<text text-anchor="start" x="319.5" y="-543.9" font-family="Arial" font-size="14.00" fill="#000000">id </text>
<text text-anchor="start" x="334.2798" y="-543.9" font-family="Arial" font-size="14.00" fill="#666666">[varchar(36)]</text>
<polygon fill="none" stroke="#000000" points="312.5,-502.5 312.5,-532.5 543.5,-532.5 543.5,-502.5 312.5,-502.5"/>
<text text-anchor="start" x="319.5" y="-513.9" font-family="Arial" font-size="14.00" fill="#000000">game_id </text>
<text text-anchor="start" x="377.0708" y="-513.9" font-family="Arial" font-size="14.00" fill="#666666">[varchar(36)]</text>
<polygon fill="none" stroke="#000000" points="312.5,-472.5 312.5,-502.5 543.5,-502.5 543.5,-472.5 312.5,-472.5"/>
<text text-anchor="start" x="319.5" y="-483.9" font-family="Arial" font-size="14.00" fill="#000000">user_id </text>
<text text-anchor="start" x="369.2882" y="-483.9" font-family="Arial" font-size="14.00" fill="#666666">[varchar(36)]</text>
<polygon fill="none" stroke="#000000" points="312.5,-442.5 312.5,-472.5 543.5,-472.5 543.5,-442.5 312.5,-442.5"/>
<text text-anchor="start" x="319.5" y="-453.9" font-family="Arial" font-size="14.00" fill="#000000">user_name </text>
<text text-anchor="start" x="393.4074" y="-453.9" font-family="Arial" font-size="14.00" fill="#666666">[varchar(32)]</text>
<polygon fill="none" stroke="#000000" points="312.5,-412.5 312.5,-442.5 543.5,-442.5 543.5,-412.5 312.5,-412.5"/>
<text text-anchor="start" x="319.5" y="-423.9" font-family="Arial" font-size="14.00" fill="#000000">created_at </text>
<text text-anchor="start" x="389.528" y="-423.9" font-family="Arial" font-size="14.00" fill="#666666">[datetime]</text>
<polygon fill="none" stroke="#000000" stroke-width="3" points="310.5,-411.5 310.5,-599.5 544.5,-599.5 544.5,-411.5 310.5,-411.5"/>
</g>
<!-- games -->
<g id="node4" class="node">
<title>games</title>
<polygon fill="#efefef" stroke="transparent" points="306.5,-252.5 306.5,-287.5 549.5,-287.5 549.5,-252.5 306.5,-252.5"/>
<polygon fill="none" stroke="#000000" points="306.5,-252.5 306.5,-287.5 549.5,-287.5 549.5,-252.5 306.5,-252.5"/>
<text text-anchor="start" x="352.3677" y="-265.3" font-family="Arial Bold" font-size="18.00" fill="#000000">games</text>
<text text-anchor="start" x="406.3785" y="-265.3" font-family="Arial" font-size="14.00" fill="#000000"> </text>
<text text-anchor="start" x="410.2691" y="-265.3" font-family="Arial" font-size="14.00" fill="#666666">[BASE TABLE]</text>
<polygon fill="none" stroke="#000000" points="306.5,-222.5 306.5,-252.5 549.5,-252.5 549.5,-222.5 306.5,-222.5"/>
<text text-anchor="start" x="313.5" y="-233.9" font-family="Arial" font-size="14.00" fill="#000000">id </text>
<text text-anchor="start" x="328.2798" y="-233.9" font-family="Arial" font-size="14.00" fill="#666666">[varchar(36)]</text>
<polygon fill="none" stroke="#000000" points="306.5,-192.5 306.5,-222.5 549.5,-222.5 549.5,-192.5 306.5,-192.5"/>
<text text-anchor="start" x="313.5" y="-203.9" font-family="Arial" font-size="14.00" fill="#000000">name </text>
<text text-anchor="start" x="352.399" y="-203.9" font-family="Arial" font-size="14.00" fill="#666666">[varchar(256)]</text>
<polygon fill="none" stroke="#000000" points="306.5,-162.5 306.5,-192.5 549.5,-192.5 549.5,-162.5 306.5,-162.5"/>
<text text-anchor="start" x="313.5" y="-173.9" font-family="Arial" font-size="14.00" fill="#000000">description </text>
<text text-anchor="start" x="385.068" y="-173.9" font-family="Arial" font-size="14.00" fill="#666666">[text]</text>
<polygon fill="none" stroke="#000000" points="306.5,-132.5 306.5,-162.5 549.5,-162.5 549.5,-132.5 306.5,-132.5"/>
<text text-anchor="start" x="313.5" y="-143.9" font-family="Arial" font-size="14.00" fill="#000000">created_at </text>
<text text-anchor="start" x="383.528" y="-143.9" font-family="Arial" font-size="14.00" fill="#666666">[datetime]</text>
<polygon fill="none" stroke="#000000" points="306.5,-102.5 306.5,-132.5 549.5,-132.5 549.5,-102.5 306.5,-102.5"/>
<text text-anchor="start" x="313.5" y="-113.9" font-family="Arial" font-size="14.00" fill="#000000">deleted_at </text>
<text text-anchor="start" x="382.7566" y="-113.9" font-family="Arial" font-size="14.00" fill="#666666">[datetime]</text>
<polygon fill="none" stroke="#000000" points="306.5,-72.5 306.5,-102.5 549.5,-102.5 549.5,-72.5 306.5,-72.5"/>
<text text-anchor="start" x="313.5" y="-83.9" font-family="Arial" font-size="14.00" fill="#000000">visibility_type_id </text>
<text text-anchor="start" x="418.507" y="-83.9" font-family="Arial" font-size="14.00" fill="#666666">[tinyint(4)]</text>
<polygon fill="none" stroke="#000000" points="306.5,-42.5 306.5,-72.5 549.5,-72.5 549.5,-42.5 306.5,-42.5"/>
<text text-anchor="start" x="313.2371" y="-53.9" font-family="Arial" font-size="14.00" fill="#000000">latest_version_updated_at </text>
<text text-anchor="start" x="481.3029" y="-53.9" font-family="Arial" font-size="14.00" fill="#666666">[datetime]</text>
</g>
<!-- game_creators&#45;&gt;games -->
<g id="edge3" class="edge">
<title>game_creators:game_id&#45;&gt;games:id</title>
<path fill="none" stroke="#000000" d="M302.21,-516.839C187.7918,-501.8652 185.5521,-237.5 306.5,-237.5"/>
<polygon fill="#000000" stroke="#000000" points="302.5206,-516.8589 312.2115,-521.9907 307.5103,-517.1794 312.5,-517.5 312.5,-517.5 312.5,-517.5 307.5103,-517.1794 312.7885,-513.0093 302.5206,-516.8589 302.5206,-516.8589"/>
<text text-anchor="start" x="68.886" y="-527.5" font-family="Arial" font-size="10.00" fill="#000000">FOREIGN KEY (game_id) REFERENCES games (id)</text>
</g>
<!-- game_creator_custom_jobs -->
<g id="node2" class="node">
<title>game_creator_custom_jobs</title>
<polygon fill="#efefef" stroke="transparent" points="43.5,-842.5 43.5,-877.5 376.5,-877.5 376.5,-842.5 43.5,-842.5"/>
<polygon fill="none" stroke="#000000" points="43.5,-842.5 43.5,-877.5 376.5,-877.5 376.5,-842.5 43.5,-842.5"/>
<text text-anchor="start" x="50.3491" y="-855.3" font-family="Arial Bold" font-size="18.00" fill="#000000">game_creator_custom_jobs</text>
<text text-anchor="start" x="272.3971" y="-855.3" font-family="Arial" font-size="14.00" fill="#000000"> </text>
<text text-anchor="start" x="276.2877" y="-855.3" font-family="Arial" font-size="14.00" fill="#666666">[BASE TABLE]</text>
<polygon fill="none" stroke="#000000" points="43.5,-812.5 43.5,-842.5 376.5,-842.5 376.5,-812.5 43.5,-812.5"/>
<text text-anchor="start" x="50.5" y="-823.9" font-family="Arial" font-size="14.00" fill="#000000">id </text>
<text text-anchor="start" x="65.2798" y="-823.9" font-family="Arial" font-size="14.00" fill="#666666">[varchar(36)]</text>
<polygon fill="none" stroke="#000000" points="43.5,-782.5 43.5,-812.5 376.5,-812.5 376.5,-782.5 43.5,-782.5"/>
<text text-anchor="start" x="50.5" y="-793.9" font-family="Arial" font-size="14.00" fill="#000000">game_creator_id </text>
<text text-anchor="start" x="159.413" y="-793.9" font-family="Arial" font-size="14.00" fill="#666666">[varchar(36)]</text>
<polygon fill="none" stroke="#000000" points="43.5,-752.5 43.5,-782.5 376.5,-782.5 376.5,-752.5 43.5,-752.5"/>
<text text-anchor="start" x="50.5" y="-763.9" font-family="Arial" font-size="14.00" fill="#000000">custom_name </text>
<text text-anchor="start" x="142.298" y="-763.9" font-family="Arial" font-size="14.00" fill="#666666">[varchar(64)]</text>
<polygon fill="none" stroke="#000000" points="43.5,-722.5 43.5,-752.5 376.5,-752.5 376.5,-722.5 43.5,-722.5"/>
<text text-anchor="start" x="50.5" y="-733.9" font-family="Arial" font-size="14.00" fill="#000000">created_at </text>
<text text-anchor="start" x="120.528" y="-733.9" font-family="Arial" font-size="14.00" fill="#666666">[datetime]</text>
</g>
<!-- game_creator_custom_jobs&#45;&gt;game_creators -->
<g id="edge1" class="edge">
<title>game_creator_custom_jobs:game_creator_id&#45;&gt;game_creators:id</title>
<path fill="none" stroke="#000000" d="M386.869,-796.344C424.8811,-786.9006 400.9075,-721.733 376.5,-680 360.024,-651.8286 328.976,-672.1714 312.5,-644 290.8477,-606.9779 269.6111,-547.5 312.5,-547.5"/>
<polygon fill="#000000" stroke="#000000" points="386.4384,-796.3919 376.0014,-793.0277 381.4692,-796.946 376.5,-797.5 376.5,-797.5 376.5,-797.5 381.4692,-796.946 376.9986,-801.9723 386.4384,-796.3919 386.4384,-796.3919"/>
<text text-anchor="start" x="383.213" y="-807.5" font-family="Arial" font-size="10.00" fill="#000000">FOREIGN KEY (game_creator_id) REFERENCES game_creators (id)</text>
</g>
<!-- game_creator_job_relations -->
<g id="node3" class="node">
<title>game_creator_job_relations</title>
<polygon fill="#efefef" stroke="transparent" points="480.5,-812.5 480.5,-847.5 814.5,-847.5 814.5,-812.5 480.5,-812.5"/>
<polygon fill="none" stroke="#000000" points="480.5,-812.5 480.5,-847.5 814.5,-847.5 814.5,-812.5 480.5,-812.5"/>
<text text-anchor="start" x="487.3487" y="-825.3" font-family="Arial Bold" font-size="18.00" fill="#000000">game_creator_job_relations</text>
<text text-anchor="start" x="710.3975" y="-825.3" font-family="Arial" font-size="14.00" fill="#000000"> </text>
<text text-anchor="start" x="714.2881" y="-825.3" font-family="Arial" font-size="14.00" fill="#666666">[BASE TABLE]</text>
<polygon fill="none" stroke="#000000" points="480.5,-782.5 480.5,-812.5 814.5,-812.5 814.5,-782.5 480.5,-782.5"/>
<text text-anchor="start" x="487.5" y="-793.9" font-family="Arial" font-size="14.00" fill="#000000">game_creator_id </text>
<text text-anchor="start" x="596.413" y="-793.9" font-family="Arial" font-size="14.00" fill="#666666">[varchar(36)]</text>
<polygon fill="none" stroke="#000000" points="480.5,-752.5 480.5,-782.5 814.5,-782.5 814.5,-752.5 480.5,-752.5"/>
<text text-anchor="start" x="487.5" y="-763.9" font-family="Arial" font-size="14.00" fill="#000000">job_id </text>
<text text-anchor="start" x="528.7342" y="-763.9" font-family="Arial" font-size="14.00" fill="#666666">[varchar(36)]</text>
</g>
<!-- game_creator_job_relations&#45;&gt;game_creators -->
<g id="edge2" class="edge">
<title>game_creator_job_relations:game_creator_id&#45;&gt;game_creators:id</title>
<path fill="none" stroke="#000000" d="M470.5335,-795.9793C446.4698,-787.2171 467.5055,-742.4329 480.5,-710 495.5819,-672.3572 528.4181,-681.6428 543.5,-644 559.4511,-604.1877 586.3889,-547.5 543.5,-547.5"/>
<polygon fill="#000000" stroke="#000000" points="470.6144,-795.9915 479.8212,-801.9485 475.5572,-796.7458 480.5,-797.5 480.5,-797.5 480.5,-797.5 475.5572,-796.7458 481.1788,-793.0515 470.6144,-795.9915 470.6144,-795.9915"/>
<text text-anchor="start" x="487.213" y="-781.5" font-family="Arial" font-size="10.00" fill="#000000">FOREIGN KEY (game_creator_id) REFERENCES game_creators (id)</text>
</g>
</g>
</svg>
