<?xml version="1.0" encoding="UTF-8" standalone="no"?>
<!DOCTYPE svg PUBLIC "-//W3C//DTD SVG 1.1//EN"
 "http://www.w3.org/Graphics/SVG/1.1/DTD/svg11.dtd">
<!-- Generated by graphviz version 2.40.1 (20161225.0304)
 -->
<!-- Title: games Pages: 1 -->
<svg width="4034pt" height="1019pt"
 viewBox="0.00 0.00 4033.50 1019.00" xmlns="http://www.w3.org/2000/svg" xmlns:xlink="http://www.w3.org/1999/xlink">
<g id="graph0" class="graph" transform="scale(1 1) rotate(0) translate(4 1015)">
<title>games</title>
<polygon fill="#ffffff" stroke="transparent" points="-4,4 -4,-1015 4029.5,-1015 4029.5,4 -4,4"/>
<!-- games -->
<g id="node1" class="node">
<title>games</title>
<polygon fill="#efefef" stroke="transparent" points="1860,-502.5 1860,-537.5 2103,-537.5 2103,-502.5 1860,-502.5"/>
<polygon fill="none" stroke="#000000" points="1860,-502.5 1860,-537.5 2103,-537.5 2103,-502.5 1860,-502.5"/>
<text text-anchor="start" x="1905.8677" y="-515.3" font-family="Arial Bold" font-size="18.00" fill="#000000">games</text>
<text text-anchor="start" x="1959.8785" y="-515.3" font-family="Arial" font-size="14.00" fill="#000000"> </text>
<text text-anchor="start" x="1963.7691" y="-515.3" font-family="Arial" font-size="14.00" fill="#666666">[BASE TABLE]</text>
<polygon fill="none" stroke="#000000" points="1860,-472.5 1860,-502.5 2103,-502.5 2103,-472.5 1860,-472.5"/>
<text text-anchor="start" x="1867" y="-483.9" font-family="Arial" font-size="14.00" fill="#000000">id </text>
<text text-anchor="start" x="1881.7798" y="-483.9" font-family="Arial" font-size="14.00" fill="#666666">[varchar(36)]</text>
<polygon fill="none" stroke="#000000" points="1860,-442.5 1860,-472.5 2103,-472.5 2103,-442.5 1860,-442.5"/>
<text text-anchor="start" x="1867" y="-453.9" font-family="Arial" font-size="14.00" fill="#000000">name </text>
<text text-anchor="start" x="1905.899" y="-453.9" font-family="Arial" font-size="14.00" fill="#666666">[varchar(256)]</text>
<polygon fill="none" stroke="#000000" points="1860,-412.5 1860,-442.5 2103,-442.5 2103,-412.5 1860,-412.5"/>
<text text-anchor="start" x="1867" y="-423.9" font-family="Arial" font-size="14.00" fill="#000000">description </text>
<text text-anchor="start" x="1938.568" y="-423.9" font-family="Arial" font-size="14.00" fill="#666666">[text]</text>
<polygon fill="none" stroke="#000000" points="1860,-382.5 1860,-412.5 2103,-412.5 2103,-382.5 1860,-382.5"/>
<text text-anchor="start" x="1867" y="-393.9" font-family="Arial" font-size="14.00" fill="#000000">created_at </text>
<text text-anchor="start" x="1937.028" y="-393.9" font-family="Arial" font-size="14.00" fill="#666666">[datetime]</text>
<polygon fill="none" stroke="#000000" points="1860,-352.5 1860,-382.5 2103,-382.5 2103,-352.5 1860,-352.5"/>
<text text-anchor="start" x="1867" y="-363.9" font-family="Arial" font-size="14.00" fill="#000000">deleted_at </text>
<text text-anchor="start" x="1936.2566" y="-363.9" font-family="Arial" font-size="14.00" fill="#666666">[datetime]</text>
<polygon fill="none" stroke="#000000" points="1860,-322.5 1860,-352.5 2103,-352.5 2103,-322.5 1860,-322.5"/>
<text text-anchor="start" x="1867" y="-333.9" font-family="Arial" font-size="14.00" fill="#000000">visibility_type_id </text>
<text text-anchor="start" x="1972.007" y="-333.9" font-family="Arial" font-size="14.00" fill="#666666">[tinyint(4)]</text>
<polygon fill="none" stroke="#000000" points="1860,-292.5 1860,-322.5 2103,-322.5 2103,-292.5 1860,-292.5"/>
<text text-anchor="start" x="1866.7371" y="-303.9" font-family="Arial" font-size="14.00" fill="#000000">latest_version_updated_at </text>
<text text-anchor="start" x="2034.8029" y="-303.9" font-family="Arial" font-size="14.00" fill="#666666">[datetime]</text>
<polygon fill="none" stroke="#000000" stroke-width="3" points="1858,-291.5 1858,-539.5 2104,-539.5 2104,-291.5 1858,-291.5"/>
</g>
<!-- game_visibility_types -->
<g id="node13" class="node">
<title>game_visibility_types</title>
<polygon fill="#efefef" stroke="transparent" points="1841,-132.5 1841,-167.5 2122,-167.5 2122,-132.5 1841,-132.5"/>
<polygon fill="none" stroke="#000000" points="1841,-132.5 1841,-167.5 2122,-167.5 2122,-132.5 1841,-132.5"/>
<text text-anchor="start" x="1847.8645" y="-145.3" font-family="Arial Bold" font-size="18.00" fill="#000000">game_visibility_types</text>
<text text-anchor="start" x="2017.8817" y="-145.3" font-family="Arial" font-size="14.00" fill="#000000"> </text>
<text text-anchor="start" x="2021.7723" y="-145.3" font-family="Arial" font-size="14.00" fill="#666666">[BASE TABLE]</text>
<polygon fill="none" stroke="#000000" points="1841,-102.5 1841,-132.5 2122,-132.5 2122,-102.5 1841,-102.5"/>
<text text-anchor="start" x="1848" y="-113.9" font-family="Arial" font-size="14.00" fill="#000000">id </text>
<text text-anchor="start" x="1862.7798" y="-113.9" font-family="Arial" font-size="14.00" fill="#666666">[tinyint(4)]</text>
<polygon fill="none" stroke="#000000" points="1841,-72.5 1841,-102.5 2122,-102.5 2122,-72.5 1841,-72.5"/>
<text text-anchor="start" x="1848" y="-83.9" font-family="Arial" font-size="14.00" fill="#000000">name </text>
<text text-anchor="start" x="1886.899" y="-83.9" font-family="Arial" font-size="14.00" fill="#666666">[varchar(32)]</text>
<polygon fill="none" stroke="#000000" points="1841,-42.5 1841,-72.5 2122,-72.5 2122,-42.5 1841,-42.5"/>
<text text-anchor="start" x="1848" y="-53.9" font-family="Arial" font-size="14.00" fill="#000000">created_at </text>
<text text-anchor="start" x="1918.028" y="-53.9" font-family="Arial" font-size="14.00" fill="#666666">[datetime]</text>
</g>
<!-- games&#45;&gt;game_visibility_types -->
<g id="edge12" class="edge">
<title>games:visibility_type_id&#45;&gt;game_visibility_types:id</title>
<path fill="none" stroke="#000000" d="M1849.9442,-336.7034C1760.6671,-322.3032 1746.3085,-117.5 1841,-117.5"/>
<polygon fill="#000000" stroke="#000000" points="1850.0312,-336.7102 1859.6446,-341.9859 1855.0156,-337.1051 1860,-337.5 1860,-337.5 1860,-337.5 1855.0156,-337.1051 1860.3554,-333.0141 1850.0312,-336.7102 1850.0312,-336.7102"/>
<text text-anchor="start" x="1518.2205" y="-347.5" font-family="Arial" font-size="10.00" fill="#000000">FOREIGN KEY (visibility_type_id) REFERENCES game_visibility_types (id)</text>
</g>
<!-- game_genre_relations -->
<g id="node2" class="node">
<title>game_genre_relations</title>
<polygon fill="#efefef" stroke="transparent" points="43,-827.5 43,-862.5 333,-862.5 333,-827.5 43,-827.5"/>
<polygon fill="none" stroke="#000000" points="43,-827.5 43,-862.5 333,-862.5 333,-827.5 43,-827.5"/>
<text text-anchor="start" x="49.8492" y="-840.3" font-family="Arial Bold" font-size="18.00" fill="#000000">game_genre_relations</text>
<text text-anchor="start" x="228.897" y="-840.3" font-family="Arial" font-size="14.00" fill="#000000"> </text>
<text text-anchor="start" x="232.7876" y="-840.3" font-family="Arial" font-size="14.00" fill="#666666">[BASE TABLE]</text>
<polygon fill="none" stroke="#000000" points="43,-797.5 43,-827.5 333,-827.5 333,-797.5 43,-797.5"/>
<text text-anchor="start" x="50" y="-808.9" font-family="Arial" font-size="14.00" fill="#000000">genre_id </text>
<text text-anchor="start" x="108.3534" y="-808.9" font-family="Arial" font-size="14.00" fill="#666666">[varchar(36)]</text>
<polygon fill="none" stroke="#000000" points="43,-767.5 43,-797.5 333,-797.5 333,-767.5 43,-767.5"/>
<text text-anchor="start" x="50" y="-778.9" font-family="Arial" font-size="14.00" fill="#000000">game_id </text>
<text text-anchor="start" x="107.5708" y="-778.9" font-family="Arial" font-size="14.00" fill="#666666">[varchar(36)]</text>
</g>
<!-- game_genre_relations&#45;&gt;games -->
<g id="edge1" class="edge">
<title>game_genre_relations:game_id&#45;&gt;games:id</title>
<path fill="none" stroke="#000000" d="M343.0068,-781.6981C401.062,-771.4217 328.7051,-665.0914 385,-620 513.4293,-517.13 1695.4512,-487.5 1860,-487.5"/>
<polygon fill="#000000" stroke="#000000" points="342.968,-781.7011 332.6405,-778.0144 337.984,-782.1005 333,-782.5 333,-782.5 333,-782.5 337.984,-782.1005 333.3595,-786.9856 342.968,-781.7011 342.968,-781.7011"/>
<text text-anchor="start" x="340.386" y="-792.5" font-family="Arial" font-size="10.00" fill="#000000">FOREIGN KEY (game_id) REFERENCES games (id)</text>
</g>
<!-- game_images -->
<g id="node3" class="node">
<title>game_images</title>
<polygon fill="#efefef" stroke="transparent" points="437,-857.5 437,-892.5 661,-892.5 661,-857.5 437,-857.5"/>
<polygon fill="none" stroke="#000000" points="437,-857.5 437,-892.5 661,-892.5 661,-857.5 437,-857.5"/>
<text text-anchor="start" x="443.8621" y="-870.3" font-family="Arial Bold" font-size="18.00" fill="#000000">game_images</text>
<text text-anchor="start" x="556.8841" y="-870.3" font-family="Arial" font-size="14.00" fill="#000000"> </text>
<text text-anchor="start" x="560.7747" y="-870.3" font-family="Arial" font-size="14.00" fill="#666666">[BASE TABLE]</text>
<polygon fill="none" stroke="#000000" points="437,-827.5 437,-857.5 661,-857.5 661,-827.5 437,-827.5"/>
<text text-anchor="start" x="444" y="-838.9" font-family="Arial" font-size="14.00" fill="#000000">id </text>
<text text-anchor="start" x="458.7798" y="-838.9" font-family="Arial" font-size="14.00" fill="#666666">[varchar(36)]</text>
<polygon fill="none" stroke="#000000" points="437,-797.5 437,-827.5 661,-827.5 661,-797.5 437,-797.5"/>
<text text-anchor="start" x="444" y="-808.9" font-family="Arial" font-size="14.00" fill="#000000">game_id </text>
<text text-anchor="start" x="501.5708" y="-808.9" font-family="Arial" font-size="14.00" fill="#666666">[varchar(36)]</text>
<polygon fill="none" stroke="#000000" points="437,-767.5 437,-797.5 661,-797.5 661,-767.5 437,-767.5"/>
<text text-anchor="start" x="444" y="-778.9" font-family="Arial" font-size="14.00" fill="#000000">image_type_id </text>
<text text-anchor="start" x="538.9158" y="-778.9" font-family="Arial" font-size="14.00" fill="#666666">[tinyint(4)]</text>
<polygon fill="none" stroke="#000000" points="437,-737.5 437,-767.5 661,-767.5 661,-737.5 437,-737.5"/>
<text text-anchor="start" x="444" y="-748.9" font-family="Arial" font-size="14.00" fill="#000000">created_at </text>
<text text-anchor="start" x="514.028" y="-748.9" font-family="Arial" font-size="14.00" fill="#666666">[datetime]</text>
</g>
<!-- game_images&#45;&gt;games -->
<g id="edge2" class="edge">
<title>game_images:game_id&#45;&gt;games:id</title>
<path fill="none" stroke="#000000" d="M671.3871,-811.7709C741.0197,-801.0689 648.7348,-675.3481 713,-620 810.2092,-536.2791 1731.708,-487.5 1860,-487.5"/>
<polygon fill="#000000" stroke="#000000" points="670.9755,-811.7997 660.6849,-808.011 665.9877,-812.1498 661,-812.5 661,-812.5 661,-812.5 665.9877,-812.1498 661.3151,-816.989 670.9755,-811.7997 670.9755,-811.7997"/>
<text text-anchor="start" x="668.386" y="-822.5" font-family="Arial" font-size="10.00" fill="#000000">FOREIGN KEY (game_id) REFERENCES games (id)</text>
</g>
<!-- game_management_roles -->
<g id="node4" class="node">
<title>game_management_roles</title>
<polygon fill="#efefef" stroke="transparent" points="765,-842.5 765,-877.5 1085,-877.5 1085,-842.5 765,-842.5"/>
<polygon fill="none" stroke="#000000" points="765,-842.5 765,-877.5 1085,-877.5 1085,-842.5 765,-842.5"/>
<text text-anchor="start" x="771.8471" y="-855.3" font-family="Arial Bold" font-size="18.00" fill="#000000">game_management_roles</text>
<text text-anchor="start" x="980.8991" y="-855.3" font-family="Arial" font-size="14.00" fill="#000000"> </text>
<text text-anchor="start" x="984.7897" y="-855.3" font-family="Arial" font-size="14.00" fill="#666666">[BASE TABLE]</text>
<polygon fill="none" stroke="#000000" points="765,-812.5 765,-842.5 1085,-842.5 1085,-812.5 765,-812.5"/>
<text text-anchor="start" x="772" y="-823.9" font-family="Arial" font-size="14.00" fill="#000000">game_id </text>
<text text-anchor="start" x="829.5708" y="-823.9" font-family="Arial" font-size="14.00" fill="#666666">[varchar(36)]</text>
<polygon fill="none" stroke="#000000" points="765,-782.5 765,-812.5 1085,-812.5 1085,-782.5 765,-782.5"/>
<text text-anchor="start" x="772" y="-793.9" font-family="Arial" font-size="14.00" fill="#000000">user_id </text>
<text text-anchor="start" x="821.7882" y="-793.9" font-family="Arial" font-size="14.00" fill="#666666">[varchar(36)]</text>
<polygon fill="none" stroke="#000000" points="765,-752.5 765,-782.5 1085,-782.5 1085,-752.5 765,-752.5"/>
<text text-anchor="start" x="772" y="-763.9" font-family="Arial" font-size="14.00" fill="#000000">role_type_id </text>
<text text-anchor="start" x="852.1332" y="-763.9" font-family="Arial" font-size="14.00" fill="#666666">[tinyint(4)]</text>
</g>
<!-- game_management_roles&#45;&gt;games -->
<g id="edge3" class="edge">
<title>game_management_roles:game_id&#45;&gt;games:id</title>
<path fill="none" stroke="#000000" d="M1095.2148,-826.8609C1171.568,-816.4878 1070.3557,-682.4917 1137,-620 1256.1532,-508.2714 1696.6576,-487.5 1860,-487.5"/>
<polygon fill="#000000" stroke="#000000" points="1094.9805,-826.8755 1084.719,-823.0088 1089.9902,-827.1878 1085,-827.5 1085,-827.5 1085,-827.5 1089.9902,-827.1878 1085.281,-831.9912 1094.9805,-826.8755 1094.9805,-826.8755"/>
<text text-anchor="start" x="966.886" y="-811.5" font-family="Arial" font-size="10.00" fill="#000000">FOREIGN KEY (game_id) REFERENCES games (id)</text>
</g>
<!-- game_play_logs -->
<g id="node5" class="node">
<title>game_play_logs</title>
<polygon fill="#efefef" stroke="transparent" points="1189,-932.5 1189,-967.5 1431,-967.5 1431,-932.5 1189,-932.5"/>
<polygon fill="none" stroke="#000000" points="1189,-932.5 1189,-967.5 1431,-967.5 1431,-932.5 1189,-932.5"/>
<text text-anchor="start" x="1195.8549" y="-945.3" font-family="Arial Bold" font-size="18.00" fill="#000000">game_play_logs</text>
<text text-anchor="start" x="1326.8913" y="-945.3" font-family="Arial" font-size="14.00" fill="#000000"> </text>
<text text-anchor="start" x="1330.7819" y="-945.3" font-family="Arial" font-size="14.00" fill="#666666">[BASE TABLE]</text>
<polygon fill="none" stroke="#000000" points="1189,-902.5 1189,-932.5 1431,-932.5 1431,-902.5 1189,-902.5"/>
<text text-anchor="start" x="1196" y="-913.9" font-family="Arial" font-size="14.00" fill="#000000">id </text>
<text text-anchor="start" x="1210.7798" y="-913.9" font-family="Arial" font-size="14.00" fill="#666666">[varchar(36)]</text>
<polygon fill="none" stroke="#000000" points="1189,-872.5 1189,-902.5 1431,-902.5 1431,-872.5 1189,-872.5"/>
<text text-anchor="start" x="1196" y="-883.9" font-family="Arial" font-size="14.00" fill="#000000">edition_id </text>
<text text-anchor="start" x="1259.7966" y="-883.9" font-family="Arial" font-size="14.00" fill="#666666">[varchar(36)]</text>
<polygon fill="none" stroke="#000000" points="1189,-842.5 1189,-872.5 1431,-872.5 1431,-842.5 1189,-842.5"/>
<text text-anchor="start" x="1196" y="-853.9" font-family="Arial" font-size="14.00" fill="#000000">game_id </text>
<text text-anchor="start" x="1253.5708" y="-853.9" font-family="Arial" font-size="14.00" fill="#666666">[varchar(36)]</text>
<polygon fill="none" stroke="#000000" points="1189,-812.5 1189,-842.5 1431,-842.5 1431,-812.5 1189,-812.5"/>
<text text-anchor="start" x="1196" y="-823.9" font-family="Arial" font-size="14.00" fill="#000000">game_version_id </text>
<text text-anchor="start" x="1306.4684" y="-823.9" font-family="Arial" font-size="14.00" fill="#666666">[varchar(36)]</text>
<polygon fill="none" stroke="#000000" points="1189,-782.5 1189,-812.5 1431,-812.5 1431,-782.5 1189,-782.5"/>
<text text-anchor="start" x="1196" y="-793.9" font-family="Arial" font-size="14.00" fill="#000000">start_time </text>
<text text-anchor="start" x="1261.338" y="-793.9" font-family="Arial" font-size="14.00" fill="#666666">[datetime]</text>
<polygon fill="none" stroke="#000000" points="1189,-752.5 1189,-782.5 1431,-782.5 1431,-752.5 1189,-752.5"/>
<text text-anchor="start" x="1196" y="-763.9" font-family="Arial" font-size="14.00" fill="#000000">end_time </text>
<text text-anchor="start" x="1257.4614" y="-763.9" font-family="Arial" font-size="14.00" fill="#666666">[datetime]</text>
<polygon fill="none" stroke="#000000" points="1189,-722.5 1189,-752.5 1431,-752.5 1431,-722.5 1189,-722.5"/>
<text text-anchor="start" x="1196" y="-733.9" font-family="Arial" font-size="14.00" fill="#000000">created_at </text>
<text text-anchor="start" x="1266.028" y="-733.9" font-family="Arial" font-size="14.00" fill="#666666">[datetime]</text>
<polygon fill="none" stroke="#000000" points="1189,-692.5 1189,-722.5 1431,-722.5 1431,-692.5 1189,-692.5"/>
<text text-anchor="start" x="1196" y="-703.9" font-family="Arial" font-size="14.00" fill="#000000">updated_at </text>
<text text-anchor="start" x="1269.9326" y="-703.9" font-family="Arial" font-size="14.00" fill="#666666">[datetime]</text>
<polygon fill="none" stroke="#000000" points="1189,-662.5 1189,-692.5 1431,-692.5 1431,-662.5 1189,-662.5"/>
<text text-anchor="start" x="1196" y="-673.9" font-family="Arial" font-size="14.00" fill="#000000">deleted_at </text>
<text text-anchor="start" x="1265.2566" y="-673.9" font-family="Arial" font-size="14.00" fill="#666666">[datetime]</text>
</g>
<!-- game_play_logs&#45;&gt;games -->
<g id="edge4" class="edge">
<title>game_play_logs:game_id&#45;&gt;games:id</title>
<path fill="none" stroke="#000000" d="M1440.9998,-856.9907C1530.7992,-847.1867 1413.7872,-698.2509 1483,-620 1541.8331,-553.4842 1771.1986,-487.5 1860,-487.5"/>
<polygon fill="#000000" stroke="#000000" points="1440.9871,-856.9912 1430.7711,-853.0058 1435.9935,-857.2456 1431,-857.5 1431,-857.5 1431,-857.5 1435.9935,-857.2456 1431.2289,-861.9942 1440.9871,-856.9912 1440.9871,-856.9912"/>
<text text-anchor="start" x="1438.386" y="-867.5" font-family="Arial" font-size="10.00" fill="#000000">FOREIGN KEY (game_id) REFERENCES games (id)</text>
</g>
<!-- game_versions -->
<g id="node6" class="node">
<title>game_versions</title>
<polygon fill="#efefef" stroke="transparent" points="1536,-872.5 1536,-907.5 1769,-907.5 1769,-872.5 1536,-872.5"/>
<polygon fill="none" stroke="#000000" points="1536,-872.5 1536,-907.5 1769,-907.5 1769,-872.5 1536,-872.5"/>
<text text-anchor="start" x="1542.8621" y="-885.3" font-family="Arial Bold" font-size="18.00" fill="#000000">game_versions</text>
<text text-anchor="start" x="1664.8841" y="-885.3" font-family="Arial" font-size="14.00" fill="#000000"> </text>
<text text-anchor="start" x="1668.7747" y="-885.3" font-family="Arial" font-size="14.00" fill="#666666">[BASE TABLE]</text>
<polygon fill="none" stroke="#000000" points="1536,-842.5 1536,-872.5 1769,-872.5 1769,-842.5 1536,-842.5"/>
<text text-anchor="start" x="1543" y="-853.9" font-family="Arial" font-size="14.00" fill="#000000">id </text>
<text text-anchor="start" x="1557.7798" y="-853.9" font-family="Arial" font-size="14.00" fill="#666666">[varchar(36)]</text>
<polygon fill="none" stroke="#000000" points="1536,-812.5 1536,-842.5 1769,-842.5 1769,-812.5 1536,-812.5"/>
<text text-anchor="start" x="1543" y="-823.9" font-family="Arial" font-size="14.00" fill="#000000">game_id </text>
<text text-anchor="start" x="1600.5708" y="-823.9" font-family="Arial" font-size="14.00" fill="#666666">[varchar(36)]</text>
<polygon fill="none" stroke="#000000" points="1536,-782.5 1536,-812.5 1769,-812.5 1769,-782.5 1536,-782.5"/>
<text text-anchor="start" x="1543" y="-793.9" font-family="Arial" font-size="14.00" fill="#000000">name </text>
<text text-anchor="start" x="1581.899" y="-793.9" font-family="Arial" font-size="14.00" fill="#666666">[varchar(32)]</text>
<polygon fill="none" stroke="#000000" points="1536,-752.5 1536,-782.5 1769,-782.5 1769,-752.5 1536,-752.5"/>
<text text-anchor="start" x="1543" y="-763.9" font-family="Arial" font-size="14.00" fill="#000000">description </text>
<text text-anchor="start" x="1614.568" y="-763.9" font-family="Arial" font-size="14.00" fill="#666666">[text]</text>
<polygon fill="none" stroke="#000000" points="1536,-722.5 1536,-752.5 1769,-752.5 1769,-722.5 1536,-722.5"/>
<text text-anchor="start" x="1543" y="-733.9" font-family="Arial" font-size="14.00" fill="#000000">created_at </text>
<text text-anchor="start" x="1613.028" y="-733.9" font-family="Arial" font-size="14.00" fill="#666666">[datetime]</text>
</g>
<!-- game_versions&#45;&gt;games -->
<g id="edge5" class="edge">
<title>game_versions:game_id&#45;&gt;games:id</title>
<path fill="none" stroke="#000000" d="M1779.0817,-825.3288C1841.3965,-796.3721 1785.4514,-487.5 1860,-487.5"/>
<polygon fill="#000000" stroke="#000000" points="1778.7759,-825.3946 1768.0526,-823.1009 1773.8879,-826.4473 1769,-827.5 1769,-827.5 1769,-827.5 1773.8879,-826.4473 1769.9474,-831.8991 1778.7759,-825.3946 1778.7759,-825.3946"/>
<text text-anchor="start" x="1776.386" y="-837.5" font-family="Arial" font-size="10.00" fill="#000000">FOREIGN KEY (game_id) REFERENCES games (id)</text>
</g>
<!-- game_videos -->
<g id="node7" class="node">
<title>game_videos</title>
<polygon fill="#efefef" stroke="transparent" points="1873,-857.5 1873,-892.5 2091,-892.5 2091,-857.5 1873,-857.5"/>
<polygon fill="none" stroke="#000000" points="1873,-857.5 1873,-892.5 2091,-892.5 2091,-857.5 1873,-857.5"/>
<text text-anchor="start" x="1879.8582" y="-870.3" font-family="Arial Bold" font-size="18.00" fill="#000000">game_videos</text>
<text text-anchor="start" x="1986.888" y="-870.3" font-family="Arial" font-size="14.00" fill="#000000"> </text>
<text text-anchor="start" x="1990.7786" y="-870.3" font-family="Arial" font-size="14.00" fill="#666666">[BASE TABLE]</text>
<polygon fill="none" stroke="#000000" points="1873,-827.5 1873,-857.5 2091,-857.5 2091,-827.5 1873,-827.5"/>
<text text-anchor="start" x="1880" y="-838.9" font-family="Arial" font-size="14.00" fill="#000000">id </text>
<text text-anchor="start" x="1894.7798" y="-838.9" font-family="Arial" font-size="14.00" fill="#666666">[varchar(36)]</text>
<polygon fill="none" stroke="#000000" points="1873,-797.5 1873,-827.5 2091,-827.5 2091,-797.5 1873,-797.5"/>
<text text-anchor="start" x="1880" y="-808.9" font-family="Arial" font-size="14.00" fill="#000000">game_id </text>
<text text-anchor="start" x="1937.5708" y="-808.9" font-family="Arial" font-size="14.00" fill="#666666">[varchar(36)]</text>
<polygon fill="none" stroke="#000000" points="1873,-767.5 1873,-797.5 2091,-797.5 2091,-767.5 1873,-767.5"/>
<text text-anchor="start" x="1880" y="-778.9" font-family="Arial" font-size="14.00" fill="#000000">video_type_id </text>
<text text-anchor="start" x="1970.2552" y="-778.9" font-family="Arial" font-size="14.00" fill="#666666">[tinyint(4)]</text>
<polygon fill="none" stroke="#000000" points="1873,-737.5 1873,-767.5 2091,-767.5 2091,-737.5 1873,-737.5"/>
<text text-anchor="start" x="1880" y="-748.9" font-family="Arial" font-size="14.00" fill="#000000">created_at </text>
<text text-anchor="start" x="1950.028" y="-748.9" font-family="Arial" font-size="14.00" fill="#666666">[datetime]</text>
</g>
<!-- game_videos&#45;&gt;games -->
<g id="edge6" class="edge">
<title>game_videos:game_id&#45;&gt;games:id</title>
<path fill="none" stroke="#000000" d="M1862.6095,-811.331C1824.4263,-801.7839 1847.2954,-735.9468 1873,-695 1933.3474,-598.8681 2042.6526,-680.1319 2103,-584 2125.803,-547.6754 2145.8889,-487.5 2103,-487.5"/>
<polygon fill="#000000" stroke="#000000" points="1863.0627,-811.3819 1872.4969,-816.9718 1868.0313,-811.941 1873,-812.5 1873,-812.5 1873,-812.5 1868.0313,-811.941 1873.5031,-808.0282 1863.0627,-811.3819 1863.0627,-811.3819"/>
<text text-anchor="start" x="1880.386" y="-796.5" font-family="Arial" font-size="10.00" fill="#000000">FOREIGN KEY (game_id) REFERENCES games (id)</text>
</g>
<!-- launcher_version_game_relations -->
<g id="node8" class="node">
<title>launcher_version_game_relations</title>
<polygon fill="#efefef" stroke="transparent" points="2196,-827.5 2196,-862.5 2577,-862.5 2577,-827.5 2196,-827.5"/>
<polygon fill="none" stroke="#000000" points="2196,-827.5 2196,-862.5 2577,-862.5 2577,-827.5 2196,-827.5"/>
<text text-anchor="start" x="2202.8434" y="-840.3" font-family="Arial Bold" font-size="18.00" fill="#000000">launcher_version_game_relations</text>
<text text-anchor="start" x="2472.9028" y="-840.3" font-family="Arial" font-size="14.00" fill="#000000"> </text>
<text text-anchor="start" x="2476.7934" y="-840.3" font-family="Arial" font-size="14.00" fill="#666666">[BASE TABLE]</text>
<polygon fill="none" stroke="#000000" points="2196,-797.5 2196,-827.5 2577,-827.5 2577,-797.5 2196,-797.5"/>
<text text-anchor="start" x="2203" y="-808.9" font-family="Arial" font-size="14.00" fill="#000000">launcher_version_table_id </text>
<text text-anchor="start" x="2370.2678" y="-808.9" font-family="Arial" font-size="14.00" fill="#666666">[varchar(36)]</text>
<polygon fill="none" stroke="#000000" points="2196,-767.5 2196,-797.5 2577,-797.5 2577,-767.5 2196,-767.5"/>
<text text-anchor="start" x="2203" y="-778.9" font-family="Arial" font-size="14.00" fill="#000000">game_table_id </text>
<text text-anchor="start" x="2298.6984" y="-778.9" font-family="Arial" font-size="14.00" fill="#666666">[varchar(36)]</text>
</g>
<!-- launcher_version_game_relations&#45;&gt;games -->
<g id="edge7" class="edge">
<title>launcher_version_game_relations:game_table_id&#45;&gt;games:id</title>
<path fill="none" stroke="#000000" d="M2186.037,-780.1254C2131.6396,-752.2071 2168.1113,-487.5 2103,-487.5"/>
<polygon fill="#000000" stroke="#000000" points="2186.2725,-780.1815 2194.9567,-786.8774 2191.1362,-781.3407 2196,-782.5 2196,-782.5 2196,-782.5 2191.1362,-781.3407 2197.0433,-778.1226 2186.2725,-780.1815 2186.2725,-780.1815"/>
<text text-anchor="start" x="2202.769" y="-792.5" font-family="Arial" font-size="10.00" fill="#000000">FOREIGN KEY (game_table_id) REFERENCES games (id)</text>
</g>
<!-- v2_game_files -->
<g id="node9" class="node">
<title>v2_game_files</title>
<polygon fill="#efefef" stroke="transparent" points="2681,-887.5 2681,-922.5 2908,-922.5 2908,-887.5 2681,-887.5"/>
<polygon fill="none" stroke="#000000" points="2681,-887.5 2681,-922.5 2908,-922.5 2908,-887.5 2681,-887.5"/>
<text text-anchor="start" x="2687.86" y="-900.3" font-family="Arial Bold" font-size="18.00" fill="#000000">v2_game_files</text>
<text text-anchor="start" x="2803.8862" y="-900.3" font-family="Arial" font-size="14.00" fill="#000000"> </text>
<text text-anchor="start" x="2807.7768" y="-900.3" font-family="Arial" font-size="14.00" fill="#666666">[BASE TABLE]</text>
<polygon fill="none" stroke="#000000" points="2681,-857.5 2681,-887.5 2908,-887.5 2908,-857.5 2681,-857.5"/>
<text text-anchor="start" x="2688" y="-868.9" font-family="Arial" font-size="14.00" fill="#000000">id </text>
<text text-anchor="start" x="2702.7798" y="-868.9" font-family="Arial" font-size="14.00" fill="#666666">[varchar(36)]</text>
<polygon fill="none" stroke="#000000" points="2681,-827.5 2681,-857.5 2908,-857.5 2908,-827.5 2681,-827.5"/>
<text text-anchor="start" x="2688" y="-838.9" font-family="Arial" font-size="14.00" fill="#000000">game_id </text>
<text text-anchor="start" x="2745.5708" y="-838.9" font-family="Arial" font-size="14.00" fill="#666666">[varchar(36)]</text>
<polygon fill="none" stroke="#000000" points="2681,-797.5 2681,-827.5 2908,-827.5 2908,-797.5 2681,-797.5"/>
<text text-anchor="start" x="2688" y="-808.9" font-family="Arial" font-size="14.00" fill="#000000">file_type_id </text>
<text text-anchor="start" x="2762.6872" y="-808.9" font-family="Arial" font-size="14.00" fill="#666666">[tinyint(4)]</text>
<polygon fill="none" stroke="#000000" points="2681,-767.5 2681,-797.5 2908,-797.5 2908,-767.5 2681,-767.5"/>
<text text-anchor="start" x="2688" y="-778.9" font-family="Arial" font-size="14.00" fill="#000000">hash </text>
<text text-anchor="start" x="2722.2384" y="-778.9" font-family="Arial" font-size="14.00" fill="#666666">[char(32)]</text>
<polygon fill="none" stroke="#000000" points="2681,-737.5 2681,-767.5 2908,-767.5 2908,-737.5 2681,-737.5"/>
<text text-anchor="start" x="2688" y="-748.9" font-family="Arial" font-size="14.00" fill="#000000">entry_point </text>
<text text-anchor="start" x="2761.1346" y="-748.9" font-family="Arial" font-size="14.00" fill="#666666">[text]</text>
<polygon fill="none" stroke="#000000" points="2681,-707.5 2681,-737.5 2908,-737.5 2908,-707.5 2681,-707.5"/>
<text text-anchor="start" x="2688" y="-718.9" font-family="Arial" font-size="14.00" fill="#000000">created_at </text>
<text text-anchor="start" x="2758.028" y="-718.9" font-family="Arial" font-size="14.00" fill="#666666">[datetime]</text>
</g>
<!-- v2_game_files&#45;&gt;games -->
<g id="edge8" class="edge">
<title>v2_game_files:game_id&#45;&gt;games:id</title>
<path fill="none" stroke="#000000" d="M2670.8429,-841.9229C2587.9214,-831.756 2697.6175,-689.8066 2629,-620 2544.5004,-534.036 2223.5404,-487.5 2103,-487.5"/>
<polygon fill="#000000" stroke="#000000" points="2671.0161,-841.9327 2680.7447,-846.9928 2676.0081,-842.2163 2681,-842.5 2681,-842.5 2681,-842.5 2676.0081,-842.2163 2681.2553,-838.0072 2671.0161,-841.9327 2671.0161,-841.9327"/>
<text text-anchor="start" x="2688.386" y="-852.5" font-family="Arial" font-size="10.00" fill="#000000">FOREIGN KEY (game_id) REFERENCES games (id)</text>
</g>
<!-- v2_game_images -->
<g id="node10" class="node">
<title>v2_game_images</title>
<polygon fill="#efefef" stroke="transparent" points="3012,-857.5 3012,-892.5 3265,-892.5 3265,-857.5 3012,-857.5"/>
<polygon fill="none" stroke="#000000" points="3012,-857.5 3012,-892.5 3265,-892.5 3265,-857.5 3012,-857.5"/>
<text text-anchor="start" x="3018.8559" y="-870.3" font-family="Arial Bold" font-size="18.00" fill="#000000">v2_game_images</text>
<text text-anchor="start" x="3160.8903" y="-870.3" font-family="Arial" font-size="14.00" fill="#000000"> </text>
<text text-anchor="start" x="3164.7809" y="-870.3" font-family="Arial" font-size="14.00" fill="#666666">[BASE TABLE]</text>
<polygon fill="none" stroke="#000000" points="3012,-827.5 3012,-857.5 3265,-857.5 3265,-827.5 3012,-827.5"/>
<text text-anchor="start" x="3019" y="-838.9" font-family="Arial" font-size="14.00" fill="#000000">id </text>
<text text-anchor="start" x="3033.7798" y="-838.9" font-family="Arial" font-size="14.00" fill="#666666">[varchar(36)]</text>
<polygon fill="none" stroke="#000000" points="3012,-797.5 3012,-827.5 3265,-827.5 3265,-797.5 3012,-797.5"/>
<text text-anchor="start" x="3019" y="-808.9" font-family="Arial" font-size="14.00" fill="#000000">game_id </text>
<text text-anchor="start" x="3076.5708" y="-808.9" font-family="Arial" font-size="14.00" fill="#666666">[varchar(36)]</text>
<polygon fill="none" stroke="#000000" points="3012,-767.5 3012,-797.5 3265,-797.5 3265,-767.5 3012,-767.5"/>
<text text-anchor="start" x="3019" y="-778.9" font-family="Arial" font-size="14.00" fill="#000000">image_type_id </text>
<text text-anchor="start" x="3113.9158" y="-778.9" font-family="Arial" font-size="14.00" fill="#666666">[tinyint(4)]</text>
<polygon fill="none" stroke="#000000" points="3012,-737.5 3012,-767.5 3265,-767.5 3265,-737.5 3012,-737.5"/>
<text text-anchor="start" x="3019" y="-748.9" font-family="Arial" font-size="14.00" fill="#000000">created_at </text>
<text text-anchor="start" x="3089.028" y="-748.9" font-family="Arial" font-size="14.00" fill="#666666">[datetime]</text>
</g>
<!-- v2_game_images&#45;&gt;games -->
<g id="edge9" class="edge">
<title>v2_game_images:game_id&#45;&gt;games:id</title>
<path fill="none" stroke="#000000" d="M3001.6069,-811.7776C2931.888,-801.174 3023.1912,-676.5713 2960,-620 2816.4225,-491.4637 2295.7072,-487.5 2103,-487.5"/>
<polygon fill="#000000" stroke="#000000" points="3002.0241,-811.8065 3011.6879,-816.9892 3007.012,-812.1533 3012,-812.5 3012,-812.5 3012,-812.5 3007.012,-812.1533 3012.3121,-808.0108 3002.0241,-811.8065 3002.0241,-811.8065"/>
<text text-anchor="start" x="2768.386" y="-822.5" font-family="Arial" font-size="10.00" fill="#000000">FOREIGN KEY (game_id) REFERENCES games (id)</text>
</g>
<!-- v2_game_versions -->
<g id="node11" class="node">
<title>v2_game_versions</title>
<polygon fill="#efefef" stroke="transparent" points="3369,-917.5 3369,-952.5 3631,-952.5 3631,-917.5 3369,-917.5"/>
<polygon fill="none" stroke="#000000" points="3369,-917.5 3369,-952.5 3631,-952.5 3631,-917.5 3369,-917.5"/>
<text text-anchor="start" x="3375.8559" y="-930.3" font-family="Arial Bold" font-size="18.00" fill="#000000">v2_game_versions</text>
<text text-anchor="start" x="3526.8903" y="-930.3" font-family="Arial" font-size="14.00" fill="#000000"> </text>
<text text-anchor="start" x="3530.7809" y="-930.3" font-family="Arial" font-size="14.00" fill="#666666">[BASE TABLE]</text>
<polygon fill="none" stroke="#000000" points="3369,-887.5 3369,-917.5 3631,-917.5 3631,-887.5 3369,-887.5"/>
<text text-anchor="start" x="3376" y="-898.9" font-family="Arial" font-size="14.00" fill="#000000">id </text>
<text text-anchor="start" x="3390.7798" y="-898.9" font-family="Arial" font-size="14.00" fill="#666666">[varchar(36)]</text>
<polygon fill="none" stroke="#000000" points="3369,-857.5 3369,-887.5 3631,-887.5 3631,-857.5 3369,-857.5"/>
<text text-anchor="start" x="3376" y="-868.9" font-family="Arial" font-size="14.00" fill="#000000">game_id </text>
<text text-anchor="start" x="3433.5708" y="-868.9" font-family="Arial" font-size="14.00" fill="#666666">[varchar(36)]</text>
<polygon fill="none" stroke="#000000" points="3369,-827.5 3369,-857.5 3631,-857.5 3631,-827.5 3369,-827.5"/>
<text text-anchor="start" x="3376" y="-838.9" font-family="Arial" font-size="14.00" fill="#000000">game_image_id </text>
<text text-anchor="start" x="3479.4684" y="-838.9" font-family="Arial" font-size="14.00" fill="#666666">[varchar(36)]</text>
<polygon fill="none" stroke="#000000" points="3369,-797.5 3369,-827.5 3631,-827.5 3631,-797.5 3369,-797.5"/>
<text text-anchor="start" x="3376" y="-808.9" font-family="Arial" font-size="14.00" fill="#000000">game_video_id </text>
<text text-anchor="start" x="3474.8078" y="-808.9" font-family="Arial" font-size="14.00" fill="#666666">[varchar(36)]</text>
<polygon fill="none" stroke="#000000" points="3369,-767.5 3369,-797.5 3631,-797.5 3631,-767.5 3369,-767.5"/>
<text text-anchor="start" x="3376" y="-778.9" font-family="Arial" font-size="14.00" fill="#000000">name </text>
<text text-anchor="start" x="3414.899" y="-778.9" font-family="Arial" font-size="14.00" fill="#666666">[varchar(32)]</text>
<polygon fill="none" stroke="#000000" points="3369,-737.5 3369,-767.5 3631,-767.5 3631,-737.5 3369,-737.5"/>
<text text-anchor="start" x="3376" y="-748.9" font-family="Arial" font-size="14.00" fill="#000000">description </text>
<text text-anchor="start" x="3447.568" y="-748.9" font-family="Arial" font-size="14.00" fill="#666666">[text]</text>
<polygon fill="none" stroke="#000000" points="3369,-707.5 3369,-737.5 3631,-737.5 3631,-707.5 3369,-707.5"/>
<text text-anchor="start" x="3376" y="-718.9" font-family="Arial" font-size="14.00" fill="#000000">created_at </text>
<text text-anchor="start" x="3446.028" y="-718.9" font-family="Arial" font-size="14.00" fill="#666666">[datetime]</text>
<polygon fill="none" stroke="#000000" points="3369,-677.5 3369,-707.5 3631,-707.5 3631,-677.5 3369,-677.5"/>
<text text-anchor="start" x="3376" y="-688.9" font-family="Arial" font-size="14.00" fill="#000000">url </text>
<text text-anchor="start" x="3395.4404" y="-688.9" font-family="Arial" font-size="14.00" fill="#666666">[text]</text>
</g>
<!-- v2_game_versions&#45;&gt;games -->
<g id="edge10" class="edge">
<title>v2_game_versions:game_id&#45;&gt;games:id</title>
<path fill="none" stroke="#000000" d="M3359.0106,-871.9945C3263.4041,-861.6339 3399.1019,-694.6964 3317,-620 3216.6331,-528.686 2238.6899,-487.5 2103,-487.5"/>
<polygon fill="#000000" stroke="#000000" points="3359.0128,-871.9945 3368.7725,-876.9942 3364.0064,-872.2473 3369,-872.5 3369,-872.5 3369,-872.5 3364.0064,-872.2473 3369.2275,-868.0058 3359.0128,-871.9945 3359.0128,-871.9945"/>
<text text-anchor="start" x="3376.386" y="-882.5" font-family="Arial" font-size="10.00" fill="#000000">FOREIGN KEY (game_id) REFERENCES games (id)</text>
</g>
<!-- v2_game_videos -->
<g id="node12" class="node">
<title>v2_game_videos</title>
<polygon fill="#efefef" stroke="transparent" points="3736,-857.5 3736,-892.5 3983,-892.5 3983,-857.5 3736,-857.5"/>
<polygon fill="none" stroke="#000000" points="3736,-857.5 3736,-892.5 3983,-892.5 3983,-857.5 3736,-857.5"/>
<text text-anchor="start" x="3742.852" y="-870.3" font-family="Arial Bold" font-size="18.00" fill="#000000">v2_game_videos</text>
<text text-anchor="start" x="3878.8942" y="-870.3" font-family="Arial" font-size="14.00" fill="#000000"> </text>
<text text-anchor="start" x="3882.7848" y="-870.3" font-family="Arial" font-size="14.00" fill="#666666">[BASE TABLE]</text>
<polygon fill="none" stroke="#000000" points="3736,-827.5 3736,-857.5 3983,-857.5 3983,-827.5 3736,-827.5"/>
<text text-anchor="start" x="3743" y="-838.9" font-family="Arial" font-size="14.00" fill="#000000">id </text>
<text text-anchor="start" x="3757.7798" y="-838.9" font-family="Arial" font-size="14.00" fill="#666666">[varchar(36)]</text>
<polygon fill="none" stroke="#000000" points="3736,-797.5 3736,-827.5 3983,-827.5 3983,-797.5 3736,-797.5"/>
<text text-anchor="start" x="3743" y="-808.9" font-family="Arial" font-size="14.00" fill="#000000">game_id </text>
<text text-anchor="start" x="3800.5708" y="-808.9" font-family="Arial" font-size="14.00" fill="#666666">[varchar(36)]</text>
<polygon fill="none" stroke="#000000" points="3736,-767.5 3736,-797.5 3983,-797.5 3983,-767.5 3736,-767.5"/>
<text text-anchor="start" x="3743" y="-778.9" font-family="Arial" font-size="14.00" fill="#000000">video_type_id </text>
<text text-anchor="start" x="3833.2552" y="-778.9" font-family="Arial" font-size="14.00" fill="#666666">[tinyint(4)]</text>
<polygon fill="none" stroke="#000000" points="3736,-737.5 3736,-767.5 3983,-767.5 3983,-737.5 3736,-737.5"/>
<text text-anchor="start" x="3743" y="-748.9" font-family="Arial" font-size="14.00" fill="#000000">created_at </text>
<text text-anchor="start" x="3813.028" y="-748.9" font-family="Arial" font-size="14.00" fill="#666666">[datetime]</text>
</g>
<!-- v2_game_videos&#45;&gt;games -->
<g id="edge11" class="edge">
<title>v2_game_videos:game_id&#45;&gt;games:id</title>
<path fill="none" stroke="#000000" d="M3725.5997,-811.7648C3655.8816,-800.9744 3748.342,-674.2481 3683,-620 3547.4536,-507.467 2279.1718,-487.5 2103,-487.5"/>
<polygon fill="#000000" stroke="#000000" points="3726.0249,-811.7947 3735.6826,-816.9888 3731.0124,-812.1474 3736,-812.5 3736,-812.5 3736,-812.5 3731.0124,-812.1474 3736.3174,-808.0112 3726.0249,-811.7947 3726.0249,-811.7947"/>
<text text-anchor="start" x="3743.386" y="-822.5" font-family="Arial" font-size="10.00" fill="#000000">FOREIGN KEY (game_id) REFERENCES games (id)</text>
</g>
</g>
</svg>
