<?xml version="1.0" encoding="UTF-8" standalone="no"?>
<!DOCTYPE svg PUBLIC "-//W3C//DTD SVG 1.1//EN"
 "http://www.w3.org/Graphics/SVG/1.1/DTD/svg11.dtd">
<!-- Generated by graphviz version 2.40.1 (20161225.0304)
 -->
<!-- Title: game_management_roles Pages: 1 -->
<svg width="956pt" height="592pt"
 viewBox="0.00 0.00 956.00 592.00" xmlns="http://www.w3.org/2000/svg" xmlns:xlink="http://www.w3.org/1999/xlink">
<g id="graph0" class="graph" transform="scale(1 1) rotate(0) translate(4 588)">
<title>game_management_roles</title>
<polygon fill="#ffffff" stroke="transparent" points="-4,4 -4,-588 952,-588 952,4 -4,4"/>
<!-- game_management_roles -->
<g id="node1" class="node">
<title>game_management_roles</title>
<polygon fill="#efefef" stroke="transparent" points="251,-502.5 251,-537.5 571,-537.5 571,-502.5 251,-502.5"/>
<polygon fill="none" stroke="#000000" points="251,-502.5 251,-537.5 571,-537.5 571,-502.5 251,-502.5"/>
<text text-anchor="start" x="257.8471" y="-515.3" font-family="Arial Bold" font-size="18.00" fill="#000000">game_management_roles</text>
<text text-anchor="start" x="466.8991" y="-515.3" font-family="Arial" font-size="14.00" fill="#000000"> </text>
<text text-anchor="start" x="470.7897" y="-515.3" font-family="Arial" font-size="14.00" fill="#666666">[BASE TABLE]</text>
<polygon fill="none" stroke="#000000" points="251,-472.5 251,-502.5 571,-502.5 571,-472.5 251,-472.5"/>
<text text-anchor="start" x="258" y="-483.9" font-family="Arial" font-size="14.00" fill="#000000">game_id </text>
<text text-anchor="start" x="315.5708" y="-483.9" font-family="Arial" font-size="14.00" fill="#666666">[varchar(36)]</text>
<polygon fill="none" stroke="#000000" points="251,-442.5 251,-472.5 571,-472.5 571,-442.5 251,-442.5"/>
<text text-anchor="start" x="258" y="-453.9" font-family="Arial" font-size="14.00" fill="#000000">user_id </text>
<text text-anchor="start" x="307.7882" y="-453.9" font-family="Arial" font-size="14.00" fill="#666666">[varchar(36)]</text>
<polygon fill="none" stroke="#000000" points="251,-412.5 251,-442.5 571,-442.5 571,-412.5 251,-412.5"/>
<text text-anchor="start" x="258" y="-423.9" font-family="Arial" font-size="14.00" fill="#000000">role_type_id </text>
<text text-anchor="start" x="338.1332" y="-423.9" font-family="Arial" font-size="14.00" fill="#666666">[tinyint(4)]</text>
<polygon fill="none" stroke="#000000" stroke-width="3" points="249.5,-411.5 249.5,-539.5 572.5,-539.5 572.5,-411.5 249.5,-411.5"/>
</g>
<!-- games -->
<g id="node2" class="node">
<title>games</title>
<polygon fill="#efefef" stroke="transparent" points="86,-252.5 86,-287.5 329,-287.5 329,-252.5 86,-252.5"/>
<polygon fill="none" stroke="#000000" points="86,-252.5 86,-287.5 329,-287.5 329,-252.5 86,-252.5"/>
<text text-anchor="start" x="131.8677" y="-265.3" font-family="Arial Bold" font-size="18.00" fill="#000000">games</text>
<text text-anchor="start" x="185.8785" y="-265.3" font-family="Arial" font-size="14.00" fill="#000000"> </text>
<text text-anchor="start" x="189.7691" y="-265.3" font-family="Arial" font-size="14.00" fill="#666666">[BASE TABLE]</text>
<polygon fill="none" stroke="#000000" points="86,-222.5 86,-252.5 329,-252.5 329,-222.5 86,-222.5"/>
<text text-anchor="start" x="93" y="-233.9" font-family="Arial" font-size="14.00" fill="#000000">id </text>
<text text-anchor="start" x="107.7798" y="-233.9" font-family="Arial" font-size="14.00" fill="#666666">[varchar(36)]</text>
<polygon fill="none" stroke="#000000" points="86,-192.5 86,-222.5 329,-222.5 329,-192.5 86,-192.5"/>
<text text-anchor="start" x="93" y="-203.9" font-family="Arial" font-size="14.00" fill="#000000">name </text>
<text text-anchor="start" x="131.899" y="-203.9" font-family="Arial" font-size="14.00" fill="#666666">[varchar(256)]</text>
<polygon fill="none" stroke="#000000" points="86,-162.5 86,-192.5 329,-192.5 329,-162.5 86,-162.5"/>
<text text-anchor="start" x="93" y="-173.9" font-family="Arial" font-size="14.00" fill="#000000">description </text>
<text text-anchor="start" x="164.568" y="-173.9" font-family="Arial" font-size="14.00" fill="#666666">[text]</text>
<polygon fill="none" stroke="#000000" points="86,-132.5 86,-162.5 329,-162.5 329,-132.5 86,-132.5"/>
<text text-anchor="start" x="93" y="-143.9" font-family="Arial" font-size="14.00" fill="#000000">created_at </text>
<text text-anchor="start" x="163.028" y="-143.9" font-family="Arial" font-size="14.00" fill="#666666">[datetime]</text>
<polygon fill="none" stroke="#000000" points="86,-102.5 86,-132.5 329,-132.5 329,-102.5 86,-102.5"/>
<text text-anchor="start" x="93" y="-113.9" font-family="Arial" font-size="14.00" fill="#000000">deleted_at </text>
<text text-anchor="start" x="162.2566" y="-113.9" font-family="Arial" font-size="14.00" fill="#666666">[datetime]</text>
<polygon fill="none" stroke="#000000" points="86,-72.5 86,-102.5 329,-102.5 329,-72.5 86,-72.5"/>
<text text-anchor="start" x="93" y="-83.9" font-family="Arial" font-size="14.00" fill="#000000">visibility_type_id </text>
<text text-anchor="start" x="198.007" y="-83.9" font-family="Arial" font-size="14.00" fill="#666666">[tinyint(4)]</text>
<polygon fill="none" stroke="#000000" points="86,-42.5 86,-72.5 329,-72.5 329,-42.5 86,-42.5"/>
<text text-anchor="start" x="92.7371" y="-53.9" font-family="Arial" font-size="14.00" fill="#000000">latest_version_updated_at </text>
<text text-anchor="start" x="260.8029" y="-53.9" font-family="Arial" font-size="14.00" fill="#666666">[datetime]</text>
</g>
<!-- game_management_roles&#45;&gt;games -->
<g id="edge1" class="edge">
<title>game_management_roles:game_id&#45;&gt;games:id</title>
<path fill="none" stroke="#000000" d="M240.8379,-486.4186C200.9373,-477.0482 224.1655,-408.9398 251,-367 271.5777,-334.8389 308.4223,-363.1611 329,-331 351.3965,-295.9963 370.5556,-237.5 329,-237.5"/>
<polygon fill="#000000" stroke="#000000" points="241.0561,-486.4417 250.5238,-491.9747 246.0281,-486.9709 251,-487.5 251,-487.5 251,-487.5 246.0281,-486.9709 251.4762,-483.0253 241.0561,-486.4417 241.0561,-486.4417"/>
<text text-anchor="start" x="7.386" y="-497.5" font-family="Arial" font-size="10.00" fill="#000000">FOREIGN KEY (game_id) REFERENCES games (id)</text>
</g>
<!-- game_management_role_types -->
<g id="node3" class="node">
<title>game_management_role_types</title>
<polygon fill="#efefef" stroke="transparent" points="433,-192.5 433,-227.5 797,-227.5 797,-192.5 433,-192.5"/>
<polygon fill="none" stroke="#000000" points="433,-192.5 433,-227.5 797,-227.5 797,-192.5 433,-192.5"/>
<text text-anchor="start" x="439.8367" y="-205.3" font-family="Arial Bold" font-size="18.00" fill="#000000">game_management_role_types</text>
<text text-anchor="start" x="692.9095" y="-205.3" font-family="Arial" font-size="14.00" fill="#000000"> </text>
<text text-anchor="start" x="696.8001" y="-205.3" font-family="Arial" font-size="14.00" fill="#666666">[BASE TABLE]</text>
<polygon fill="none" stroke="#000000" points="433,-162.5 433,-192.5 797,-192.5 797,-162.5 433,-162.5"/>
<text text-anchor="start" x="440" y="-173.9" font-family="Arial" font-size="14.00" fill="#000000">id </text>
<text text-anchor="start" x="454.7798" y="-173.9" font-family="Arial" font-size="14.00" fill="#666666">[tinyint(4)]</text>
<polygon fill="none" stroke="#000000" points="433,-132.5 433,-162.5 797,-162.5 797,-132.5 433,-132.5"/>
<text text-anchor="start" x="440" y="-143.9" font-family="Arial" font-size="14.00" fill="#000000">name </text>
<text text-anchor="start" x="478.899" y="-143.9" font-family="Arial" font-size="14.00" fill="#666666">[varchar(32)]</text>
<polygon fill="none" stroke="#000000" points="433,-102.5 433,-132.5 797,-132.5 797,-102.5 433,-102.5"/>
<text text-anchor="start" x="440" y="-113.9" font-family="Arial" font-size="14.00" fill="#000000">active </text>
<text text-anchor="start" x="480.453" y="-113.9" font-family="Arial" font-size="14.00" fill="#666666">[tinyint(1)]</text>
</g>
<!-- game_management_roles&#45;&gt;game_management_role_types -->
<g id="edge2" class="edge">
<title>game_management_roles:role_type_id&#45;&gt;game_management_role_types:id</title>
<path fill="none" stroke="#000000" d="M580.7426,-425.0032C593.4259,-416.3545 581.5067,-387.108 571,-367 536.3993,-300.7806 467.6007,-337.2194 433,-271 413.7553,-234.1692 391.4444,-177.5 433,-177.5"/>
<polygon fill="#000000" stroke="#000000" points="580.6869,-425.0174 569.8828,-423.1409 575.8435,-426.2587 571,-427.5 571,-427.5 571,-427.5 575.8435,-426.2587 572.1172,-431.8591 580.6869,-425.0174 580.6869,-425.0174"/>
<text text-anchor="start" x="578.033" y="-437.5" font-family="Arial" font-size="10.00" fill="#000000">FOREIGN KEY (role_type_id) REFERENCES game_management_role_types (id)</text>
</g>
</g>
</svg>
