<?xml version="1.0" encoding="UTF-8" standalone="no"?>
<!DOCTYPE svg PUBLIC "-//W3C//DTD SVG 1.1//EN"
 "http://www.w3.org/Graphics/SVG/1.1/DTD/svg11.dtd">
<!-- Generated by graphviz version 2.40.1 (20161225.0304)
 -->
<!-- Title: games Pages: 1 -->
<svg width="4806pt" height="1019pt"
 viewBox="0.00 0.00 4806.00 1019.00" xmlns="http://www.w3.org/2000/svg" xmlns:xlink="http://www.w3.org/1999/xlink">
<g id="graph0" class="graph" transform="scale(1 1) rotate(0) translate(4 1015)">
<title>games</title>
<polygon fill="#ffffff" stroke="transparent" points="-4,4 -4,-1015 4802,-1015 4802,4 -4,4"/>
<!-- games -->
<g id="node1" class="node">
<title>games</title>
<polygon fill="#efefef" stroke="transparent" points="2303.5,-502.5 2303.5,-537.5 2546.5,-537.5 2546.5,-502.5 2303.5,-502.5"/>
<polygon fill="none" stroke="#000000" points="2303.5,-502.5 2303.5,-537.5 2546.5,-537.5 2546.5,-502.5 2303.5,-502.5"/>
<text text-anchor="start" x="2349.3677" y="-515.3" font-family="Arial Bold" font-size="18.00" fill="#000000">games</text>
<text text-anchor="start" x="2403.3785" y="-515.3" font-family="Arial" font-size="14.00" fill="#000000"> </text>
<text text-anchor="start" x="2407.2691" y="-515.3" font-family="Arial" font-size="14.00" fill="#666666">[BASE TABLE]</text>
<polygon fill="none" stroke="#000000" points="2303.5,-472.5 2303.5,-502.5 2546.5,-502.5 2546.5,-472.5 2303.5,-472.5"/>
<text text-anchor="start" x="2310.5" y="-483.9" font-family="Arial" font-size="14.00" fill="#000000">id </text>
<text text-anchor="start" x="2325.2798" y="-483.9" font-family="Arial" font-size="14.00" fill="#666666">[varchar(36)]</text>
<polygon fill="none" stroke="#000000" points="2303.5,-442.5 2303.5,-472.5 2546.5,-472.5 2546.5,-442.5 2303.5,-442.5"/>
<text text-anchor="start" x="2310.5" y="-453.9" font-family="Arial" font-size="14.00" fill="#000000">name </text>
<text text-anchor="start" x="2349.399" y="-453.9" font-family="Arial" font-size="14.00" fill="#666666">[varchar(256)]</text>
<polygon fill="none" stroke="#000000" points="2303.5,-412.5 2303.5,-442.5 2546.5,-442.5 2546.5,-412.5 2303.5,-412.5"/>
<text text-anchor="start" x="2310.5" y="-423.9" font-family="Arial" font-size="14.00" fill="#000000">description </text>
<text text-anchor="start" x="2382.068" y="-423.9" font-family="Arial" font-size="14.00" fill="#666666">[text]</text>
<polygon fill="none" stroke="#000000" points="2303.5,-382.5 2303.5,-412.5 2546.5,-412.5 2546.5,-382.5 2303.5,-382.5"/>
<text text-anchor="start" x="2310.5" y="-393.9" font-family="Arial" font-size="14.00" fill="#000000">created_at </text>
<text text-anchor="start" x="2380.528" y="-393.9" font-family="Arial" font-size="14.00" fill="#666666">[datetime]</text>
<polygon fill="none" stroke="#000000" points="2303.5,-352.5 2303.5,-382.5 2546.5,-382.5 2546.5,-352.5 2303.5,-352.5"/>
<text text-anchor="start" x="2310.5" y="-363.9" font-family="Arial" font-size="14.00" fill="#000000">deleted_at </text>
<text text-anchor="start" x="2379.7566" y="-363.9" font-family="Arial" font-size="14.00" fill="#666666">[datetime]</text>
<polygon fill="none" stroke="#000000" points="2303.5,-322.5 2303.5,-352.5 2546.5,-352.5 2546.5,-322.5 2303.5,-322.5"/>
<text text-anchor="start" x="2310.5" y="-333.9" font-family="Arial" font-size="14.00" fill="#000000">visibility_type_id </text>
<text text-anchor="start" x="2415.507" y="-333.9" font-family="Arial" font-size="14.00" fill="#666666">[tinyint(4)]</text>
<polygon fill="none" stroke="#000000" points="2303.5,-292.5 2303.5,-322.5 2546.5,-322.5 2546.5,-292.5 2303.5,-292.5"/>
<text text-anchor="start" x="2310.2371" y="-303.9" font-family="Arial" font-size="14.00" fill="#000000">latest_version_updated_at </text>
<text text-anchor="start" x="2478.3029" y="-303.9" font-family="Arial" font-size="14.00" fill="#666666">[datetime]</text>
<polygon fill="none" stroke="#000000" stroke-width="3" points="2301.5,-291.5 2301.5,-539.5 2547.5,-539.5 2547.5,-291.5 2301.5,-291.5"/>
</g>
<!-- game_visibility_types -->
<g id="node15" class="node">
<title>game_visibility_types</title>
<polygon fill="#efefef" stroke="transparent" points="2284.5,-132.5 2284.5,-167.5 2565.5,-167.5 2565.5,-132.5 2284.5,-132.5"/>
<polygon fill="none" stroke="#000000" points="2284.5,-132.5 2284.5,-167.5 2565.5,-167.5 2565.5,-132.5 2284.5,-132.5"/>
<text text-anchor="start" x="2291.3645" y="-145.3" font-family="Arial Bold" font-size="18.00" fill="#000000">game_visibility_types</text>
<text text-anchor="start" x="2461.3817" y="-145.3" font-family="Arial" font-size="14.00" fill="#000000"> </text>
<text text-anchor="start" x="2465.2723" y="-145.3" font-family="Arial" font-size="14.00" fill="#666666">[BASE TABLE]</text>
<polygon fill="none" stroke="#000000" points="2284.5,-102.5 2284.5,-132.5 2565.5,-132.5 2565.5,-102.5 2284.5,-102.5"/>
<text text-anchor="start" x="2291.5" y="-113.9" font-family="Arial" font-size="14.00" fill="#000000">id </text>
<text text-anchor="start" x="2306.2798" y="-113.9" font-family="Arial" font-size="14.00" fill="#666666">[tinyint(4)]</text>
<polygon fill="none" stroke="#000000" points="2284.5,-72.5 2284.5,-102.5 2565.5,-102.5 2565.5,-72.5 2284.5,-72.5"/>
<text text-anchor="start" x="2291.5" y="-83.9" font-family="Arial" font-size="14.00" fill="#000000">name </text>
<text text-anchor="start" x="2330.399" y="-83.9" font-family="Arial" font-size="14.00" fill="#666666">[varchar(32)]</text>
<polygon fill="none" stroke="#000000" points="2284.5,-42.5 2284.5,-72.5 2565.5,-72.5 2565.5,-42.5 2284.5,-42.5"/>
<text text-anchor="start" x="2291.5" y="-53.9" font-family="Arial" font-size="14.00" fill="#000000">created_at </text>
<text text-anchor="start" x="2361.528" y="-53.9" font-family="Arial" font-size="14.00" fill="#666666">[datetime]</text>
</g>
<!-- games&#45;&gt;game_visibility_types -->
<g id="edge14" class="edge">
<title>games:visibility_type_id&#45;&gt;game_visibility_types:id</title>
<path fill="none" stroke="#000000" d="M2293.4442,-336.7034C2204.1671,-322.3032 2189.8085,-117.5 2284.5,-117.5"/>
<polygon fill="#000000" stroke="#000000" points="2293.5312,-336.7102 2303.1446,-341.9859 2298.5156,-337.1051 2303.5,-337.5 2303.5,-337.5 2303.5,-337.5 2298.5156,-337.1051 2303.8554,-333.0141 2293.5312,-336.7102 2293.5312,-336.7102"/>
<text text-anchor="start" x="1961.7205" y="-347.5" font-family="Arial" font-size="10.00" fill="#000000">FOREIGN KEY (visibility_type_id) REFERENCES game_visibility_types (id)</text>
</g>
<!-- game_creators -->
<g id="node2" class="node">
<title>game_creators</title>
<polygon fill="#efefef" stroke="transparent" points="43.5,-872.5 43.5,-907.5 274.5,-907.5 274.5,-872.5 43.5,-872.5"/>
<polygon fill="none" stroke="#000000" points="43.5,-872.5 43.5,-907.5 274.5,-907.5 274.5,-872.5 43.5,-872.5"/>
<text text-anchor="start" x="50.362" y="-885.3" font-family="Arial Bold" font-size="18.00" fill="#000000">game_creators</text>
<text text-anchor="start" x="170.3842" y="-885.3" font-family="Arial" font-size="14.00" fill="#000000"> </text>
<text text-anchor="start" x="174.2748" y="-885.3" font-family="Arial" font-size="14.00" fill="#666666">[BASE TABLE]</text>
<polygon fill="none" stroke="#000000" points="43.5,-842.5 43.5,-872.5 274.5,-872.5 274.5,-842.5 43.5,-842.5"/>
<text text-anchor="start" x="50.5" y="-853.9" font-family="Arial" font-size="14.00" fill="#000000">id </text>
<text text-anchor="start" x="65.2798" y="-853.9" font-family="Arial" font-size="14.00" fill="#666666">[varchar(36)]</text>
<polygon fill="none" stroke="#000000" points="43.5,-812.5 43.5,-842.5 274.5,-842.5 274.5,-812.5 43.5,-812.5"/>
<text text-anchor="start" x="50.5" y="-823.9" font-family="Arial" font-size="14.00" fill="#000000">game_id </text>
<text text-anchor="start" x="108.0708" y="-823.9" font-family="Arial" font-size="14.00" fill="#666666">[varchar(36)]</text>
<polygon fill="none" stroke="#000000" points="43.5,-782.5 43.5,-812.5 274.5,-812.5 274.5,-782.5 43.5,-782.5"/>
<text text-anchor="start" x="50.5" y="-793.9" font-family="Arial" font-size="14.00" fill="#000000">user_id </text>
<text text-anchor="start" x="100.2882" y="-793.9" font-family="Arial" font-size="14.00" fill="#666666">[varchar(36)]</text>
<polygon fill="none" stroke="#000000" points="43.5,-752.5 43.5,-782.5 274.5,-782.5 274.5,-752.5 43.5,-752.5"/>
<text text-anchor="start" x="50.5" y="-763.9" font-family="Arial" font-size="14.00" fill="#000000">user_name </text>
<text text-anchor="start" x="124.4074" y="-763.9" font-family="Arial" font-size="14.00" fill="#666666">[varchar(32)]</text>
<polygon fill="none" stroke="#000000" points="43.5,-722.5 43.5,-752.5 274.5,-752.5 274.5,-722.5 43.5,-722.5"/>
<text text-anchor="start" x="50.5" y="-733.9" font-family="Arial" font-size="14.00" fill="#000000">created_at </text>
<text text-anchor="start" x="120.528" y="-733.9" font-family="Arial" font-size="14.00" fill="#666666">[datetime]</text>
</g>
<!-- game_creators&#45;&gt;games -->
<g id="edge1" class="edge">
<title>game_creators:game_id&#45;&gt;games:id</title>
<path fill="none" stroke="#000000" d="M284.6839,-826.8435C360.6385,-816.1896 255.605,-678.6735 325.5,-620 409.8538,-549.189 2193.3648,-487.5 2303.5,-487.5"/>
<polygon fill="#000000" stroke="#000000" points="284.4793,-826.8566 274.2105,-823.0093 279.4896,-827.1783 274.5,-827.5 274.5,-827.5 274.5,-827.5 279.4896,-827.1783 274.7895,-831.9907 284.4793,-826.8566 284.4793,-826.8566"/>
<text text-anchor="start" x="156.386" y="-811.5" font-family="Arial" font-size="10.00" fill="#000000">FOREIGN KEY (game_id) REFERENCES games (id)</text>
</g>
<!-- game_creator_custom_jobs -->
<g id="node3" class="node">
<title>game_creator_custom_jobs</title>
<polygon fill="#efefef" stroke="transparent" points="378.5,-857.5 378.5,-892.5 711.5,-892.5 711.5,-857.5 378.5,-857.5"/>
<polygon fill="none" stroke="#000000" points="378.5,-857.5 378.5,-892.5 711.5,-892.5 711.5,-857.5 378.5,-857.5"/>
<text text-anchor="start" x="385.3491" y="-870.3" font-family="Arial Bold" font-size="18.00" fill="#000000">game_creator_custom_jobs</text>
<text text-anchor="start" x="607.3971" y="-870.3" font-family="Arial" font-size="14.00" fill="#000000"> </text>
<text text-anchor="start" x="611.2877" y="-870.3" font-family="Arial" font-size="14.00" fill="#666666">[BASE TABLE]</text>
<polygon fill="none" stroke="#000000" points="378.5,-827.5 378.5,-857.5 711.5,-857.5 711.5,-827.5 378.5,-827.5"/>
<text text-anchor="start" x="385.5" y="-838.9" font-family="Arial" font-size="14.00" fill="#000000">id </text>
<text text-anchor="start" x="400.2798" y="-838.9" font-family="Arial" font-size="14.00" fill="#666666">[varchar(36)]</text>
<polygon fill="none" stroke="#000000" points="378.5,-797.5 378.5,-827.5 711.5,-827.5 711.5,-797.5 378.5,-797.5"/>
<text text-anchor="start" x="385.5" y="-808.9" font-family="Arial" font-size="14.00" fill="#000000">game_id </text>
<text text-anchor="start" x="443.0708" y="-808.9" font-family="Arial" font-size="14.00" fill="#666666">[varchar(36)]</text>
<polygon fill="none" stroke="#000000" points="378.5,-767.5 378.5,-797.5 711.5,-797.5 711.5,-767.5 378.5,-767.5"/>
<text text-anchor="start" x="385.5" y="-778.9" font-family="Arial" font-size="14.00" fill="#000000">display_name </text>
<text text-anchor="start" x="475.7426" y="-778.9" font-family="Arial" font-size="14.00" fill="#666666">[varchar(64)]</text>
<polygon fill="none" stroke="#000000" points="378.5,-737.5 378.5,-767.5 711.5,-767.5 711.5,-737.5 378.5,-737.5"/>
<text text-anchor="start" x="385.5" y="-748.9" font-family="Arial" font-size="14.00" fill="#000000">created_at </text>
<text text-anchor="start" x="455.528" y="-748.9" font-family="Arial" font-size="14.00" fill="#666666">[datetime]</text>
</g>
<!-- game_creator_custom_jobs&#45;&gt;games -->
<g id="edge2" class="edge">
<title>game_creator_custom_jobs:game_id&#45;&gt;games:id</title>
<path fill="none" stroke="#000000" d="M721.8827,-811.7656C791.4509,-800.9878 698.4341,-674.4046 763.5,-620 895.2545,-509.8341 2131.7567,-487.5 2303.5,-487.5"/>
<polygon fill="#000000" stroke="#000000" points="721.4751,-811.7944 711.1825,-808.0112 716.4875,-812.1472 711.5,-812.5 711.5,-812.5 711.5,-812.5 716.4875,-812.1472 711.8175,-816.9888 721.4751,-811.7944 721.4751,-811.7944"/>
<text text-anchor="start" x="718.886" y="-822.5" font-family="Arial" font-size="10.00" fill="#000000">FOREIGN KEY (game_id) REFERENCES games (id)</text>
</g>
<!-- game_genre_relations -->
<g id="node4" class="node">
<title>game_genre_relations</title>
<polygon fill="#efefef" stroke="transparent" points="815.5,-827.5 815.5,-862.5 1105.5,-862.5 1105.5,-827.5 815.5,-827.5"/>
<polygon fill="none" stroke="#000000" points="815.5,-827.5 815.5,-862.5 1105.5,-862.5 1105.5,-827.5 815.5,-827.5"/>
<text text-anchor="start" x="822.3492" y="-840.3" font-family="Arial Bold" font-size="18.00" fill="#000000">game_genre_relations</text>
<text text-anchor="start" x="1001.397" y="-840.3" font-family="Arial" font-size="14.00" fill="#000000"> </text>
<text text-anchor="start" x="1005.2876" y="-840.3" font-family="Arial" font-size="14.00" fill="#666666">[BASE TABLE]</text>
<polygon fill="none" stroke="#000000" points="815.5,-797.5 815.5,-827.5 1105.5,-827.5 1105.5,-797.5 815.5,-797.5"/>
<text text-anchor="start" x="822.5" y="-808.9" font-family="Arial" font-size="14.00" fill="#000000">genre_id </text>
<text text-anchor="start" x="880.8534" y="-808.9" font-family="Arial" font-size="14.00" fill="#666666">[varchar(36)]</text>
<polygon fill="none" stroke="#000000" points="815.5,-767.5 815.5,-797.5 1105.5,-797.5 1105.5,-767.5 815.5,-767.5"/>
<text text-anchor="start" x="822.5" y="-778.9" font-family="Arial" font-size="14.00" fill="#000000">game_id </text>
<text text-anchor="start" x="880.0708" y="-778.9" font-family="Arial" font-size="14.00" fill="#666666">[varchar(36)]</text>
</g>
<!-- game_genre_relations&#45;&gt;games -->
<g id="edge3" class="edge">
<title>game_genre_relations:game_id&#45;&gt;games:id</title>
<path fill="none" stroke="#000000" d="M1115.5109,-781.7032C1173.6187,-771.4915 1101.785,-665.806 1157.5,-620 1256.5143,-538.5955 2175.3184,-487.5 2303.5,-487.5"/>
<polygon fill="#000000" stroke="#000000" points="1115.4685,-781.7065 1105.1429,-778.0142 1110.4842,-782.1032 1105.5,-782.5 1105.5,-782.5 1105.5,-782.5 1110.4842,-782.1032 1105.8571,-786.9858 1115.4685,-781.7065 1115.4685,-781.7065"/>
<text text-anchor="start" x="1112.886" y="-792.5" font-family="Arial" font-size="10.00" fill="#000000">FOREIGN KEY (game_id) REFERENCES games (id)</text>
</g>
<!-- game_images -->
<g id="node5" class="node">
<title>game_images</title>
<polygon fill="#efefef" stroke="transparent" points="1209.5,-857.5 1209.5,-892.5 1433.5,-892.5 1433.5,-857.5 1209.5,-857.5"/>
<polygon fill="none" stroke="#000000" points="1209.5,-857.5 1209.5,-892.5 1433.5,-892.5 1433.5,-857.5 1209.5,-857.5"/>
<text text-anchor="start" x="1216.3621" y="-870.3" font-family="Arial Bold" font-size="18.00" fill="#000000">game_images</text>
<text text-anchor="start" x="1329.3841" y="-870.3" font-family="Arial" font-size="14.00" fill="#000000"> </text>
<text text-anchor="start" x="1333.2747" y="-870.3" font-family="Arial" font-size="14.00" fill="#666666">[BASE TABLE]</text>
<polygon fill="none" stroke="#000000" points="1209.5,-827.5 1209.5,-857.5 1433.5,-857.5 1433.5,-827.5 1209.5,-827.5"/>
<text text-anchor="start" x="1216.5" y="-838.9" font-family="Arial" font-size="14.00" fill="#000000">id </text>
<text text-anchor="start" x="1231.2798" y="-838.9" font-family="Arial" font-size="14.00" fill="#666666">[varchar(36)]</text>
<polygon fill="none" stroke="#000000" points="1209.5,-797.5 1209.5,-827.5 1433.5,-827.5 1433.5,-797.5 1209.5,-797.5"/>
<text text-anchor="start" x="1216.5" y="-808.9" font-family="Arial" font-size="14.00" fill="#000000">game_id </text>
<text text-anchor="start" x="1274.0708" y="-808.9" font-family="Arial" font-size="14.00" fill="#666666">[varchar(36)]</text>
<polygon fill="none" stroke="#000000" points="1209.5,-767.5 1209.5,-797.5 1433.5,-797.5 1433.5,-767.5 1209.5,-767.5"/>
<text text-anchor="start" x="1216.5" y="-778.9" font-family="Arial" font-size="14.00" fill="#000000">image_type_id </text>
<text text-anchor="start" x="1311.4158" y="-778.9" font-family="Arial" font-size="14.00" fill="#666666">[tinyint(4)]</text>
<polygon fill="none" stroke="#000000" points="1209.5,-737.5 1209.5,-767.5 1433.5,-767.5 1433.5,-737.5 1209.5,-737.5"/>
<text text-anchor="start" x="1216.5" y="-748.9" font-family="Arial" font-size="14.00" fill="#000000">created_at </text>
<text text-anchor="start" x="1286.528" y="-748.9" font-family="Arial" font-size="14.00" fill="#666666">[datetime]</text>
</g>
<!-- game_images&#45;&gt;games -->
<g id="edge4" class="edge">
<title>game_images:game_id&#45;&gt;games:id</title>
<path fill="none" stroke="#000000" d="M1443.8942,-811.7789C1513.6295,-801.1935 1422.5126,-676.7981 1485.5,-620 1622.2572,-496.6808 2119.353,-487.5 2303.5,-487.5"/>
<polygon fill="#000000" stroke="#000000" points="1443.476,-811.8078 1433.1885,-808.0108 1438.488,-812.1539 1433.5,-812.5 1433.5,-812.5 1433.5,-812.5 1438.488,-812.1539 1433.8115,-816.9892 1443.476,-811.8078 1443.476,-811.8078"/>
<text text-anchor="start" x="1189.886" y="-822.5" font-family="Arial" font-size="10.00" fill="#000000">FOREIGN KEY (game_id) REFERENCES games (id)</text>
</g>
<!-- game_management_roles -->
<g id="node6" class="node">
<title>game_management_roles</title>
<polygon fill="#efefef" stroke="transparent" points="1537.5,-842.5 1537.5,-877.5 1857.5,-877.5 1857.5,-842.5 1537.5,-842.5"/>
<polygon fill="none" stroke="#000000" points="1537.5,-842.5 1537.5,-877.5 1857.5,-877.5 1857.5,-842.5 1537.5,-842.5"/>
<text text-anchor="start" x="1544.3471" y="-855.3" font-family="Arial Bold" font-size="18.00" fill="#000000">game_management_roles</text>
<text text-anchor="start" x="1753.3991" y="-855.3" font-family="Arial" font-size="14.00" fill="#000000"> </text>
<text text-anchor="start" x="1757.2897" y="-855.3" font-family="Arial" font-size="14.00" fill="#666666">[BASE TABLE]</text>
<polygon fill="none" stroke="#000000" points="1537.5,-812.5 1537.5,-842.5 1857.5,-842.5 1857.5,-812.5 1537.5,-812.5"/>
<text text-anchor="start" x="1544.5" y="-823.9" font-family="Arial" font-size="14.00" fill="#000000">game_id </text>
<text text-anchor="start" x="1602.0708" y="-823.9" font-family="Arial" font-size="14.00" fill="#666666">[varchar(36)]</text>
<polygon fill="none" stroke="#000000" points="1537.5,-782.5 1537.5,-812.5 1857.5,-812.5 1857.5,-782.5 1537.5,-782.5"/>
<text text-anchor="start" x="1544.5" y="-793.9" font-family="Arial" font-size="14.00" fill="#000000">user_id </text>
<text text-anchor="start" x="1594.2882" y="-793.9" font-family="Arial" font-size="14.00" fill="#666666">[varchar(36)]</text>
<polygon fill="none" stroke="#000000" points="1537.5,-752.5 1537.5,-782.5 1857.5,-782.5 1857.5,-752.5 1537.5,-752.5"/>
<text text-anchor="start" x="1544.5" y="-763.9" font-family="Arial" font-size="14.00" fill="#000000">role_type_id </text>
<text text-anchor="start" x="1624.6332" y="-763.9" font-family="Arial" font-size="14.00" fill="#666666">[tinyint(4)]</text>
</g>
<!-- game_management_roles&#45;&gt;games -->
<g id="edge5" class="edge">
<title>game_management_roles:game_id&#45;&gt;games:id</title>
<path fill="none" stroke="#000000" d="M1867.7361,-826.882C1944.4305,-816.8477 1847.4957,-687.098 1909.5,-620 1972.1924,-552.1574 2211.126,-487.5 2303.5,-487.5"/>
<polygon fill="#000000" stroke="#000000" points="1867.4818,-826.8973 1857.2288,-823.0082 1862.4909,-827.1986 1857.5,-827.5 1857.5,-827.5 1857.5,-827.5 1862.4909,-827.1986 1857.7712,-831.9918 1867.4818,-826.8973 1867.4818,-826.8973"/>
<text text-anchor="start" x="1739.386" y="-811.5" font-family="Arial" font-size="10.00" fill="#000000">FOREIGN KEY (game_id) REFERENCES games (id)</text>
</g>
<!-- game_play_logs -->
<g id="node7" class="node">
<title>game_play_logs</title>
<polygon fill="#efefef" stroke="transparent" points="1961.5,-932.5 1961.5,-967.5 2203.5,-967.5 2203.5,-932.5 1961.5,-932.5"/>
<polygon fill="none" stroke="#000000" points="1961.5,-932.5 1961.5,-967.5 2203.5,-967.5 2203.5,-932.5 1961.5,-932.5"/>
<text text-anchor="start" x="1968.3549" y="-945.3" font-family="Arial Bold" font-size="18.00" fill="#000000">game_play_logs</text>
<text text-anchor="start" x="2099.3913" y="-945.3" font-family="Arial" font-size="14.00" fill="#000000"> </text>
<text text-anchor="start" x="2103.2819" y="-945.3" font-family="Arial" font-size="14.00" fill="#666666">[BASE TABLE]</text>
<polygon fill="none" stroke="#000000" points="1961.5,-902.5 1961.5,-932.5 2203.5,-932.5 2203.5,-902.5 1961.5,-902.5"/>
<text text-anchor="start" x="1968.5" y="-913.9" font-family="Arial" font-size="14.00" fill="#000000">id </text>
<text text-anchor="start" x="1983.2798" y="-913.9" font-family="Arial" font-size="14.00" fill="#666666">[varchar(36)]</text>
<polygon fill="none" stroke="#000000" points="1961.5,-872.5 1961.5,-902.5 2203.5,-902.5 2203.5,-872.5 1961.5,-872.5"/>
<text text-anchor="start" x="1968.5" y="-883.9" font-family="Arial" font-size="14.00" fill="#000000">edition_id </text>
<text text-anchor="start" x="2032.2966" y="-883.9" font-family="Arial" font-size="14.00" fill="#666666">[varchar(36)]</text>
<polygon fill="none" stroke="#000000" points="1961.5,-842.5 1961.5,-872.5 2203.5,-872.5 2203.5,-842.5 1961.5,-842.5"/>
<text text-anchor="start" x="1968.5" y="-853.9" font-family="Arial" font-size="14.00" fill="#000000">game_id </text>
<text text-anchor="start" x="2026.0708" y="-853.9" font-family="Arial" font-size="14.00" fill="#666666">[varchar(36)]</text>
<polygon fill="none" stroke="#000000" points="1961.5,-812.5 1961.5,-842.5 2203.5,-842.5 2203.5,-812.5 1961.5,-812.5"/>
<text text-anchor="start" x="1968.5" y="-823.9" font-family="Arial" font-size="14.00" fill="#000000">game_version_id </text>
<text text-anchor="start" x="2078.9684" y="-823.9" font-family="Arial" font-size="14.00" fill="#666666">[varchar(36)]</text>
<polygon fill="none" stroke="#000000" points="1961.5,-782.5 1961.5,-812.5 2203.5,-812.5 2203.5,-782.5 1961.5,-782.5"/>
<text text-anchor="start" x="1968.5" y="-793.9" font-family="Arial" font-size="14.00" fill="#000000">start_time </text>
<text text-anchor="start" x="2033.838" y="-793.9" font-family="Arial" font-size="14.00" fill="#666666">[datetime]</text>
<polygon fill="none" stroke="#000000" points="1961.5,-752.5 1961.5,-782.5 2203.5,-782.5 2203.5,-752.5 1961.5,-752.5"/>
<text text-anchor="start" x="1968.5" y="-763.9" font-family="Arial" font-size="14.00" fill="#000000">end_time </text>
<text text-anchor="start" x="2029.9614" y="-763.9" font-family="Arial" font-size="14.00" fill="#666666">[datetime]</text>
<polygon fill="none" stroke="#000000" points="1961.5,-722.5 1961.5,-752.5 2203.5,-752.5 2203.5,-722.5 1961.5,-722.5"/>
<text text-anchor="start" x="1968.5" y="-733.9" font-family="Arial" font-size="14.00" fill="#000000">created_at </text>
<text text-anchor="start" x="2038.528" y="-733.9" font-family="Arial" font-size="14.00" fill="#666666">[datetime]</text>
<polygon fill="none" stroke="#000000" points="1961.5,-692.5 1961.5,-722.5 2203.5,-722.5 2203.5,-692.5 1961.5,-692.5"/>
<text text-anchor="start" x="1968.5" y="-703.9" font-family="Arial" font-size="14.00" fill="#000000">updated_at </text>
<text text-anchor="start" x="2042.4326" y="-703.9" font-family="Arial" font-size="14.00" fill="#666666">[datetime]</text>
<polygon fill="none" stroke="#000000" points="1961.5,-662.5 1961.5,-692.5 2203.5,-692.5 2203.5,-662.5 1961.5,-662.5"/>
<text text-anchor="start" x="1968.5" y="-673.9" font-family="Arial" font-size="14.00" fill="#000000">deleted_at </text>
<text text-anchor="start" x="2037.7566" y="-673.9" font-family="Arial" font-size="14.00" fill="#666666">[datetime]</text>
</g>
<!-- game_play_logs&#45;&gt;games -->
<g id="edge6" class="edge">
<title>game_play_logs:game_id&#45;&gt;games:id</title>
<path fill="none" stroke="#000000" d="M2213.3534,-855.1381C2255.4063,-833.4397 2241.4853,-668.4541 2255.5,-620 2272.9027,-559.8322 2240.866,-487.5 2303.5,-487.5"/>
<polygon fill="#000000" stroke="#000000" points="2213.2245,-855.169 2202.451,-853.124 2208.3623,-856.3345 2203.5,-857.5 2203.5,-857.5 2203.5,-857.5 2208.3623,-856.3345 2204.549,-861.876 2213.2245,-855.169 2213.2245,-855.169"/>
<text text-anchor="start" x="2210.886" y="-867.5" font-family="Arial" font-size="10.00" fill="#000000">FOREIGN KEY (game_id) REFERENCES games (id)</text>
</g>
<!-- game_versions -->
<g id="node8" class="node">
<title>game_versions</title>
<polygon fill="#efefef" stroke="transparent" points="2308.5,-872.5 2308.5,-907.5 2541.5,-907.5 2541.5,-872.5 2308.5,-872.5"/>
<polygon fill="none" stroke="#000000" points="2308.5,-872.5 2308.5,-907.5 2541.5,-907.5 2541.5,-872.5 2308.5,-872.5"/>
<text text-anchor="start" x="2315.3621" y="-885.3" font-family="Arial Bold" font-size="18.00" fill="#000000">game_versions</text>
<text text-anchor="start" x="2437.3841" y="-885.3" font-family="Arial" font-size="14.00" fill="#000000"> </text>
<text text-anchor="start" x="2441.2747" y="-885.3" font-family="Arial" font-size="14.00" fill="#666666">[BASE TABLE]</text>
<polygon fill="none" stroke="#000000" points="2308.5,-842.5 2308.5,-872.5 2541.5,-872.5 2541.5,-842.5 2308.5,-842.5"/>
<text text-anchor="start" x="2315.5" y="-853.9" font-family="Arial" font-size="14.00" fill="#000000">id </text>
<text text-anchor="start" x="2330.2798" y="-853.9" font-family="Arial" font-size="14.00" fill="#666666">[varchar(36)]</text>
<polygon fill="none" stroke="#000000" points="2308.5,-812.5 2308.5,-842.5 2541.5,-842.5 2541.5,-812.5 2308.5,-812.5"/>
<text text-anchor="start" x="2315.5" y="-823.9" font-family="Arial" font-size="14.00" fill="#000000">game_id </text>
<text text-anchor="start" x="2373.0708" y="-823.9" font-family="Arial" font-size="14.00" fill="#666666">[varchar(36)]</text>
<polygon fill="none" stroke="#000000" points="2308.5,-782.5 2308.5,-812.5 2541.5,-812.5 2541.5,-782.5 2308.5,-782.5"/>
<text text-anchor="start" x="2315.5" y="-793.9" font-family="Arial" font-size="14.00" fill="#000000">name </text>
<text text-anchor="start" x="2354.399" y="-793.9" font-family="Arial" font-size="14.00" fill="#666666">[varchar(32)]</text>
<polygon fill="none" stroke="#000000" points="2308.5,-752.5 2308.5,-782.5 2541.5,-782.5 2541.5,-752.5 2308.5,-752.5"/>
<text text-anchor="start" x="2315.5" y="-763.9" font-family="Arial" font-size="14.00" fill="#000000">description </text>
<text text-anchor="start" x="2387.068" y="-763.9" font-family="Arial" font-size="14.00" fill="#666666">[text]</text>
<polygon fill="none" stroke="#000000" points="2308.5,-722.5 2308.5,-752.5 2541.5,-752.5 2541.5,-722.5 2308.5,-722.5"/>
<text text-anchor="start" x="2315.5" y="-733.9" font-family="Arial" font-size="14.00" fill="#000000">created_at </text>
<text text-anchor="start" x="2385.528" y="-733.9" font-family="Arial" font-size="14.00" fill="#666666">[datetime]</text>
</g>
<!-- game_versions&#45;&gt;games -->
<g id="edge7" class="edge">
<title>game_versions:game_id&#45;&gt;games:id</title>
<path fill="none" stroke="#000000" d="M2300.2499,-821.5987C2270.198,-776.4502 2268.6698,-487.5 2303.5,-487.5"/>
<polygon fill="#000000" stroke="#000000" points="2300.3666,-821.6821 2305.8819,-831.16 2304.4333,-824.591 2308.5,-827.5 2308.5,-827.5 2308.5,-827.5 2304.4333,-824.591 2311.1181,-823.84 2300.3666,-821.6821 2300.3666,-821.6821"/>
<text text-anchor="start" x="2253.136" y="-811.5" font-family="Arial" font-size="10.00" fill="#000000">FOREIGN KEY (game_id) REFERENCES games (id)</text>
</g>
<!-- game_videos -->
<g id="node9" class="node">
<title>game_videos</title>
<polygon fill="#efefef" stroke="transparent" points="2645.5,-857.5 2645.5,-892.5 2863.5,-892.5 2863.5,-857.5 2645.5,-857.5"/>
<polygon fill="none" stroke="#000000" points="2645.5,-857.5 2645.5,-892.5 2863.5,-892.5 2863.5,-857.5 2645.5,-857.5"/>
<text text-anchor="start" x="2652.3582" y="-870.3" font-family="Arial Bold" font-size="18.00" fill="#000000">game_videos</text>
<text text-anchor="start" x="2759.388" y="-870.3" font-family="Arial" font-size="14.00" fill="#000000"> </text>
<text text-anchor="start" x="2763.2786" y="-870.3" font-family="Arial" font-size="14.00" fill="#666666">[BASE TABLE]</text>
<polygon fill="none" stroke="#000000" points="2645.5,-827.5 2645.5,-857.5 2863.5,-857.5 2863.5,-827.5 2645.5,-827.5"/>
<text text-anchor="start" x="2652.5" y="-838.9" font-family="Arial" font-size="14.00" fill="#000000">id </text>
<text text-anchor="start" x="2667.2798" y="-838.9" font-family="Arial" font-size="14.00" fill="#666666">[varchar(36)]</text>
<polygon fill="none" stroke="#000000" points="2645.5,-797.5 2645.5,-827.5 2863.5,-827.5 2863.5,-797.5 2645.5,-797.5"/>
<text text-anchor="start" x="2652.5" y="-808.9" font-family="Arial" font-size="14.00" fill="#000000">game_id </text>
<text text-anchor="start" x="2710.0708" y="-808.9" font-family="Arial" font-size="14.00" fill="#666666">[varchar(36)]</text>
<polygon fill="none" stroke="#000000" points="2645.5,-767.5 2645.5,-797.5 2863.5,-797.5 2863.5,-767.5 2645.5,-767.5"/>
<text text-anchor="start" x="2652.5" y="-778.9" font-family="Arial" font-size="14.00" fill="#000000">video_type_id </text>
<text text-anchor="start" x="2742.7552" y="-778.9" font-family="Arial" font-size="14.00" fill="#666666">[tinyint(4)]</text>
<polygon fill="none" stroke="#000000" points="2645.5,-737.5 2645.5,-767.5 2863.5,-767.5 2863.5,-737.5 2645.5,-737.5"/>
<text text-anchor="start" x="2652.5" y="-748.9" font-family="Arial" font-size="14.00" fill="#000000">created_at </text>
<text text-anchor="start" x="2722.528" y="-748.9" font-family="Arial" font-size="14.00" fill="#666666">[datetime]</text>
</g>
<!-- game_videos&#45;&gt;games -->
<g id="edge8" class="edge">
<title>game_videos:game_id&#45;&gt;games:id</title>
<path fill="none" stroke="#000000" d="M2635.6972,-810.4246C2574.5959,-782.7454 2618.4597,-487.5 2546.5,-487.5"/>
<polygon fill="#000000" stroke="#000000" points="2635.7168,-810.4287 2644.5679,-816.9024 2640.6084,-811.4644 2645.5,-812.5 2645.5,-812.5 2645.5,-812.5 2640.6084,-811.4644 2646.4321,-808.0976 2635.7168,-810.4287 2635.7168,-810.4287"/>
<text text-anchor="start" x="2652.886" y="-822.5" font-family="Arial" font-size="10.00" fill="#000000">FOREIGN KEY (game_id) REFERENCES games (id)</text>
</g>
<!-- launcher_version_game_relations -->
<g id="node10" class="node">
<title>launcher_version_game_relations</title>
<polygon fill="#efefef" stroke="transparent" points="2968.5,-827.5 2968.5,-862.5 3349.5,-862.5 3349.5,-827.5 2968.5,-827.5"/>
<polygon fill="none" stroke="#000000" points="2968.5,-827.5 2968.5,-862.5 3349.5,-862.5 3349.5,-827.5 2968.5,-827.5"/>
<text text-anchor="start" x="2975.3434" y="-840.3" font-family="Arial Bold" font-size="18.00" fill="#000000">launcher_version_game_relations</text>
<text text-anchor="start" x="3245.4028" y="-840.3" font-family="Arial" font-size="14.00" fill="#000000"> </text>
<text text-anchor="start" x="3249.2934" y="-840.3" font-family="Arial" font-size="14.00" fill="#666666">[BASE TABLE]</text>
<polygon fill="none" stroke="#000000" points="2968.5,-797.5 2968.5,-827.5 3349.5,-827.5 3349.5,-797.5 2968.5,-797.5"/>
<text text-anchor="start" x="2975.5" y="-808.9" font-family="Arial" font-size="14.00" fill="#000000">launcher_version_table_id </text>
<text text-anchor="start" x="3142.7678" y="-808.9" font-family="Arial" font-size="14.00" fill="#666666">[varchar(36)]</text>
<polygon fill="none" stroke="#000000" points="2968.5,-767.5 2968.5,-797.5 3349.5,-797.5 3349.5,-767.5 2968.5,-767.5"/>
<text text-anchor="start" x="2975.5" y="-778.9" font-family="Arial" font-size="14.00" fill="#000000">game_table_id </text>
<text text-anchor="start" x="3071.1984" y="-778.9" font-family="Arial" font-size="14.00" fill="#666666">[varchar(36)]</text>
</g>
<!-- launcher_version_game_relations&#45;&gt;games -->
<g id="edge9" class="edge">
<title>launcher_version_game_relations:game_table_id&#45;&gt;games:id</title>
<path fill="none" stroke="#000000" d="M2958.4256,-781.7463C2899.6371,-772.0809 2965.8353,-671.8407 2915.5,-620 2794.1135,-494.9831 2720.7524,-487.5 2546.5,-487.5"/>
<polygon fill="#000000" stroke="#000000" points="2958.5279,-781.7539 2968.1643,-786.9875 2963.5139,-782.127 2968.5,-782.5 2968.5,-782.5 2968.5,-782.5 2963.5139,-782.127 2968.8357,-778.0125 2958.5279,-781.7539 2958.5279,-781.7539"/>
<text text-anchor="start" x="2697.269" y="-792.5" font-family="Arial" font-size="10.00" fill="#000000">FOREIGN KEY (game_table_id) REFERENCES games (id)</text>
</g>
<!-- v2_game_files -->
<g id="node11" class="node">
<title>v2_game_files</title>
<polygon fill="#efefef" stroke="transparent" points="3453.5,-887.5 3453.5,-922.5 3680.5,-922.5 3680.5,-887.5 3453.5,-887.5"/>
<polygon fill="none" stroke="#000000" points="3453.5,-887.5 3453.5,-922.5 3680.5,-922.5 3680.5,-887.5 3453.5,-887.5"/>
<text text-anchor="start" x="3460.36" y="-900.3" font-family="Arial Bold" font-size="18.00" fill="#000000">v2_game_files</text>
<text text-anchor="start" x="3576.3862" y="-900.3" font-family="Arial" font-size="14.00" fill="#000000"> </text>
<text text-anchor="start" x="3580.2768" y="-900.3" font-family="Arial" font-size="14.00" fill="#666666">[BASE TABLE]</text>
<polygon fill="none" stroke="#000000" points="3453.5,-857.5 3453.5,-887.5 3680.5,-887.5 3680.5,-857.5 3453.5,-857.5"/>
<text text-anchor="start" x="3460.5" y="-868.9" font-family="Arial" font-size="14.00" fill="#000000">id </text>
<text text-anchor="start" x="3475.2798" y="-868.9" font-family="Arial" font-size="14.00" fill="#666666">[varchar(36)]</text>
<polygon fill="none" stroke="#000000" points="3453.5,-827.5 3453.5,-857.5 3680.5,-857.5 3680.5,-827.5 3453.5,-827.5"/>
<text text-anchor="start" x="3460.5" y="-838.9" font-family="Arial" font-size="14.00" fill="#000000">game_id </text>
<text text-anchor="start" x="3518.0708" y="-838.9" font-family="Arial" font-size="14.00" fill="#666666">[varchar(36)]</text>
<polygon fill="none" stroke="#000000" points="3453.5,-797.5 3453.5,-827.5 3680.5,-827.5 3680.5,-797.5 3453.5,-797.5"/>
<text text-anchor="start" x="3460.5" y="-808.9" font-family="Arial" font-size="14.00" fill="#000000">file_type_id </text>
<text text-anchor="start" x="3535.1872" y="-808.9" font-family="Arial" font-size="14.00" fill="#666666">[tinyint(4)]</text>
<polygon fill="none" stroke="#000000" points="3453.5,-767.5 3453.5,-797.5 3680.5,-797.5 3680.5,-767.5 3453.5,-767.5"/>
<text text-anchor="start" x="3460.5" y="-778.9" font-family="Arial" font-size="14.00" fill="#000000">hash </text>
<text text-anchor="start" x="3494.7384" y="-778.9" font-family="Arial" font-size="14.00" fill="#666666">[char(32)]</text>
<polygon fill="none" stroke="#000000" points="3453.5,-737.5 3453.5,-767.5 3680.5,-767.5 3680.5,-737.5 3453.5,-737.5"/>
<text text-anchor="start" x="3460.5" y="-748.9" font-family="Arial" font-size="14.00" fill="#000000">entry_point </text>
<text text-anchor="start" x="3533.6346" y="-748.9" font-family="Arial" font-size="14.00" fill="#666666">[text]</text>
<polygon fill="none" stroke="#000000" points="3453.5,-707.5 3453.5,-737.5 3680.5,-737.5 3680.5,-707.5 3453.5,-707.5"/>
<text text-anchor="start" x="3460.5" y="-718.9" font-family="Arial" font-size="14.00" fill="#000000">created_at </text>
<text text-anchor="start" x="3530.528" y="-718.9" font-family="Arial" font-size="14.00" fill="#666666">[datetime]</text>
</g>
<!-- v2_game_files&#45;&gt;games -->
<g id="edge10" class="edge">
<title>v2_game_files:game_id&#45;&gt;games:id</title>
<path fill="none" stroke="#000000" d="M3443.3553,-841.9101C3360.6506,-831.52 3473.2888,-686.5409 3401.5,-620 3260.4896,-489.2978 2738.768,-487.5 2546.5,-487.5"/>
<polygon fill="#000000" stroke="#000000" points="3443.5169,-841.9194 3453.2387,-846.9924 3448.5084,-842.2097 3453.5,-842.5 3453.5,-842.5 3453.5,-842.5 3448.5084,-842.2097 3453.7613,-838.0076 3443.5169,-841.9194 3443.5169,-841.9194"/>
<text text-anchor="start" x="3209.886" y="-852.5" font-family="Arial" font-size="10.00" fill="#000000">FOREIGN KEY (game_id) REFERENCES games (id)</text>
</g>
<!-- v2_game_images -->
<g id="node12" class="node">
<title>v2_game_images</title>
<polygon fill="#efefef" stroke="transparent" points="3784.5,-857.5 3784.5,-892.5 4037.5,-892.5 4037.5,-857.5 3784.5,-857.5"/>
<polygon fill="none" stroke="#000000" points="3784.5,-857.5 3784.5,-892.5 4037.5,-892.5 4037.5,-857.5 3784.5,-857.5"/>
<text text-anchor="start" x="3791.3559" y="-870.3" font-family="Arial Bold" font-size="18.00" fill="#000000">v2_game_images</text>
<text text-anchor="start" x="3933.3903" y="-870.3" font-family="Arial" font-size="14.00" fill="#000000"> </text>
<text text-anchor="start" x="3937.2809" y="-870.3" font-family="Arial" font-size="14.00" fill="#666666">[BASE TABLE]</text>
<polygon fill="none" stroke="#000000" points="3784.5,-827.5 3784.5,-857.5 4037.5,-857.5 4037.5,-827.5 3784.5,-827.5"/>
<text text-anchor="start" x="3791.5" y="-838.9" font-family="Arial" font-size="14.00" fill="#000000">id </text>
<text text-anchor="start" x="3806.2798" y="-838.9" font-family="Arial" font-size="14.00" fill="#666666">[varchar(36)]</text>
<polygon fill="none" stroke="#000000" points="3784.5,-797.5 3784.5,-827.5 4037.5,-827.5 4037.5,-797.5 3784.5,-797.5"/>
<text text-anchor="start" x="3791.5" y="-808.9" font-family="Arial" font-size="14.00" fill="#000000">game_id </text>
<text text-anchor="start" x="3849.0708" y="-808.9" font-family="Arial" font-size="14.00" fill="#666666">[varchar(36)]</text>
<polygon fill="none" stroke="#000000" points="3784.5,-767.5 3784.5,-797.5 4037.5,-797.5 4037.5,-767.5 3784.5,-767.5"/>
<text text-anchor="start" x="3791.5" y="-778.9" font-family="Arial" font-size="14.00" fill="#000000">image_type_id </text>
<text text-anchor="start" x="3886.4158" y="-778.9" font-family="Arial" font-size="14.00" fill="#666666">[tinyint(4)]</text>
<polygon fill="none" stroke="#000000" points="3784.5,-737.5 3784.5,-767.5 4037.5,-767.5 4037.5,-737.5 3784.5,-737.5"/>
<text text-anchor="start" x="3791.5" y="-748.9" font-family="Arial" font-size="14.00" fill="#000000">created_at </text>
<text text-anchor="start" x="3861.528" y="-748.9" font-family="Arial" font-size="14.00" fill="#666666">[datetime]</text>
</g>
<!-- v2_game_images&#45;&gt;games -->
<g id="edge11" class="edge">
<title>v2_game_images:game_id&#45;&gt;games:id</title>
<path fill="none" stroke="#000000" d="M3774.1135,-811.7702C3704.4892,-801.0586 3796.8689,-675.2275 3732.5,-620 3631.8662,-533.6578 2679.0976,-487.5 2546.5,-487.5"/>
<polygon fill="#000000" stroke="#000000" points="3774.5246,-811.799 3784.1845,-816.9889 3779.5123,-812.1495 3784.5,-812.5 3784.5,-812.5 3784.5,-812.5 3779.5123,-812.1495 3784.8155,-808.0111 3774.5246,-811.799 3774.5246,-811.799"/>
<text text-anchor="start" x="3791.886" y="-822.5" font-family="Arial" font-size="10.00" fill="#000000">FOREIGN KEY (game_id) REFERENCES games (id)</text>
</g>
<!-- v2_game_versions -->
<g id="node13" class="node">
<title>v2_game_versions</title>
<polygon fill="#efefef" stroke="transparent" points="4141.5,-917.5 4141.5,-952.5 4403.5,-952.5 4403.5,-917.5 4141.5,-917.5"/>
<polygon fill="none" stroke="#000000" points="4141.5,-917.5 4141.5,-952.5 4403.5,-952.5 4403.5,-917.5 4141.5,-917.5"/>
<text text-anchor="start" x="4148.3559" y="-930.3" font-family="Arial Bold" font-size="18.00" fill="#000000">v2_game_versions</text>
<text text-anchor="start" x="4299.3903" y="-930.3" font-family="Arial" font-size="14.00" fill="#000000"> </text>
<text text-anchor="start" x="4303.2809" y="-930.3" font-family="Arial" font-size="14.00" fill="#666666">[BASE TABLE]</text>
<polygon fill="none" stroke="#000000" points="4141.5,-887.5 4141.5,-917.5 4403.5,-917.5 4403.5,-887.5 4141.5,-887.5"/>
<text text-anchor="start" x="4148.5" y="-898.9" font-family="Arial" font-size="14.00" fill="#000000">id </text>
<text text-anchor="start" x="4163.2798" y="-898.9" font-family="Arial" font-size="14.00" fill="#666666">[varchar(36)]</text>
<polygon fill="none" stroke="#000000" points="4141.5,-857.5 4141.5,-887.5 4403.5,-887.5 4403.5,-857.5 4141.5,-857.5"/>
<text text-anchor="start" x="4148.5" y="-868.9" font-family="Arial" font-size="14.00" fill="#000000">game_id </text>
<text text-anchor="start" x="4206.0708" y="-868.9" font-family="Arial" font-size="14.00" fill="#666666">[varchar(36)]</text>
<polygon fill="none" stroke="#000000" points="4141.5,-827.5 4141.5,-857.5 4403.5,-857.5 4403.5,-827.5 4141.5,-827.5"/>
<text text-anchor="start" x="4148.5" y="-838.9" font-family="Arial" font-size="14.00" fill="#000000">game_image_id </text>
<text text-anchor="start" x="4251.9684" y="-838.9" font-family="Arial" font-size="14.00" fill="#666666">[varchar(36)]</text>
<polygon fill="none" stroke="#000000" points="4141.5,-797.5 4141.5,-827.5 4403.5,-827.5 4403.5,-797.5 4141.5,-797.5"/>
<text text-anchor="start" x="4148.5" y="-808.9" font-family="Arial" font-size="14.00" fill="#000000">game_video_id </text>
<text text-anchor="start" x="4247.3078" y="-808.9" font-family="Arial" font-size="14.00" fill="#666666">[varchar(36)]</text>
<polygon fill="none" stroke="#000000" points="4141.5,-767.5 4141.5,-797.5 4403.5,-797.5 4403.5,-767.5 4141.5,-767.5"/>
<text text-anchor="start" x="4148.5" y="-778.9" font-family="Arial" font-size="14.00" fill="#000000">name </text>
<text text-anchor="start" x="4187.399" y="-778.9" font-family="Arial" font-size="14.00" fill="#666666">[varchar(32)]</text>
<polygon fill="none" stroke="#000000" points="4141.5,-737.5 4141.5,-767.5 4403.5,-767.5 4403.5,-737.5 4141.5,-737.5"/>
<text text-anchor="start" x="4148.5" y="-748.9" font-family="Arial" font-size="14.00" fill="#000000">description </text>
<text text-anchor="start" x="4220.068" y="-748.9" font-family="Arial" font-size="14.00" fill="#666666">[text]</text>
<polygon fill="none" stroke="#000000" points="4141.5,-707.5 4141.5,-737.5 4403.5,-737.5 4403.5,-707.5 4141.5,-707.5"/>
<text text-anchor="start" x="4148.5" y="-718.9" font-family="Arial" font-size="14.00" fill="#000000">created_at </text>
<text text-anchor="start" x="4218.528" y="-718.9" font-family="Arial" font-size="14.00" fill="#666666">[datetime]</text>
<polygon fill="none" stroke="#000000" points="4141.5,-677.5 4141.5,-707.5 4403.5,-707.5 4403.5,-677.5 4141.5,-677.5"/>
<text text-anchor="start" x="4148.5" y="-688.9" font-family="Arial" font-size="14.00" fill="#000000">url </text>
<text text-anchor="start" x="4167.9404" y="-688.9" font-family="Arial" font-size="14.00" fill="#666666">[text]</text>
</g>
<!-- v2_game_versions&#45;&gt;games -->
<g id="edge12" class="edge">
<title>v2_game_versions:game_id&#45;&gt;games:id</title>
<path fill="none" stroke="#000000" d="M4131.2248,-871.9597C4036.2325,-861.2361 4172.3737,-693.6709 4089.5,-620 3960.8934,-505.6747 2718.5754,-487.5 2546.5,-487.5"/>
<polygon fill="#000000" stroke="#000000" points="4131.5138,-871.9748 4141.2637,-876.9938 4136.5069,-872.2374 4141.5,-872.5 4141.5,-872.5 4141.5,-872.5 4136.5069,-872.2374 4141.7363,-868.0062 4131.5138,-871.9748 4131.5138,-871.9748"/>
<text text-anchor="start" x="4148.886" y="-882.5" font-family="Arial" font-size="10.00" fill="#000000">FOREIGN KEY (game_id) REFERENCES games (id)</text>
</g>
<!-- v2_game_videos -->
<g id="node14" class="node">
<title>v2_game_videos</title>
<polygon fill="#efefef" stroke="transparent" points="4508.5,-857.5 4508.5,-892.5 4755.5,-892.5 4755.5,-857.5 4508.5,-857.5"/>
<polygon fill="none" stroke="#000000" points="4508.5,-857.5 4508.5,-892.5 4755.5,-892.5 4755.5,-857.5 4508.5,-857.5"/>
<text text-anchor="start" x="4515.352" y="-870.3" font-family="Arial Bold" font-size="18.00" fill="#000000">v2_game_videos</text>
<text text-anchor="start" x="4651.3942" y="-870.3" font-family="Arial" font-size="14.00" fill="#000000"> </text>
<text text-anchor="start" x="4655.2848" y="-870.3" font-family="Arial" font-size="14.00" fill="#666666">[BASE TABLE]</text>
<polygon fill="none" stroke="#000000" points="4508.5,-827.5 4508.5,-857.5 4755.5,-857.5 4755.5,-827.5 4508.5,-827.5"/>
<text text-anchor="start" x="4515.5" y="-838.9" font-family="Arial" font-size="14.00" fill="#000000">id </text>
<text text-anchor="start" x="4530.2798" y="-838.9" font-family="Arial" font-size="14.00" fill="#666666">[varchar(36)]</text>
<polygon fill="none" stroke="#000000" points="4508.5,-797.5 4508.5,-827.5 4755.5,-827.5 4755.5,-797.5 4508.5,-797.5"/>
<text text-anchor="start" x="4515.5" y="-808.9" font-family="Arial" font-size="14.00" fill="#000000">game_id </text>
<text text-anchor="start" x="4573.0708" y="-808.9" font-family="Arial" font-size="14.00" fill="#666666">[varchar(36)]</text>
<polygon fill="none" stroke="#000000" points="4508.5,-767.5 4508.5,-797.5 4755.5,-797.5 4755.5,-767.5 4508.5,-767.5"/>
<text text-anchor="start" x="4515.5" y="-778.9" font-family="Arial" font-size="14.00" fill="#000000">video_type_id </text>
<text text-anchor="start" x="4605.7552" y="-778.9" font-family="Arial" font-size="14.00" fill="#666666">[tinyint(4)]</text>
<polygon fill="none" stroke="#000000" points="4508.5,-737.5 4508.5,-767.5 4755.5,-767.5 4755.5,-737.5 4508.5,-737.5"/>
<text text-anchor="start" x="4515.5" y="-748.9" font-family="Arial" font-size="14.00" fill="#000000">created_at </text>
<text text-anchor="start" x="4585.528" y="-748.9" font-family="Arial" font-size="14.00" fill="#666666">[datetime]</text>
</g>
<!-- v2_game_videos&#45;&gt;games -->
<g id="edge13" class="edge">
<title>v2_game_videos:game_id&#45;&gt;games:id</title>
<path fill="none" stroke="#000000" d="M4498.1018,-811.7622C4428.415,-800.9339 4521.23,-673.7773 4455.5,-620 4373.2189,-552.6814 2652.8107,-487.5 2546.5,-487.5"/>
<polygon fill="#000000" stroke="#000000" points="4498.5251,-811.7921 4508.1814,-816.9887 4503.5125,-812.1461 4508.5,-812.5 4508.5,-812.5 4508.5,-812.5 4503.5125,-812.1461 4508.8186,-808.0113 4498.5251,-811.7921 4498.5251,-811.7921"/>
<text text-anchor="start" x="4264.886" y="-822.5" font-family="Arial" font-size="10.00" fill="#000000">FOREIGN KEY (game_id) REFERENCES games (id)</text>
</g>
</g>
</svg>
