<?xml version="1.0" encoding="UTF-8" standalone="no"?>
<!DOCTYPE svg PUBLIC "-//W3C//DTD SVG 1.1//EN"
 "http://www.w3.org/Graphics/SVG/1.1/DTD/svg11.dtd">
<!-- Generated by graphviz version 2.40.1 (20161225.0304)
 -->
<!-- Title: game_management_roles Pages: 1 -->
<svg width="956pt" height="532pt"
 viewBox="0.00 0.00 956.00 532.00" xmlns="http://www.w3.org/2000/svg" xmlns:xlink="http://www.w3.org/1999/xlink">
<g id="graph0" class="graph" transform="scale(1 1) rotate(0) translate(4 528)">
<title>game_management_roles</title>
<polygon fill="#ffffff" stroke="transparent" points="-4,4 -4,-528 952,-528 952,4 -4,4"/>
<!-- game_management_roles -->
<g id="node1" class="node">
<title>game_management_roles</title>
<polygon fill="#efefef" stroke="transparent" points="251,-442.5 251,-477.5 571,-477.5 571,-442.5 251,-442.5"/>
<polygon fill="none" stroke="#000000" points="251,-442.5 251,-477.5 571,-477.5 571,-442.5 251,-442.5"/>
<text text-anchor="start" x="257.8471" y="-455.3" font-family="Arial Bold" font-size="18.00" fill="#000000">game_management_roles</text>
<text text-anchor="start" x="466.8991" y="-455.3" font-family="Arial" font-size="14.00" fill="#000000"> </text>
<text text-anchor="start" x="470.7897" y="-455.3" font-family="Arial" font-size="14.00" fill="#666666">[BASE TABLE]</text>
<polygon fill="none" stroke="#000000" points="251,-412.5 251,-442.5 571,-442.5 571,-412.5 251,-412.5"/>
<text text-anchor="start" x="258" y="-423.9" font-family="Arial" font-size="14.00" fill="#000000">game_id </text>
<text text-anchor="start" x="315.5708" y="-423.9" font-family="Arial" font-size="14.00" fill="#666666">[varchar(36)]</text>
<polygon fill="none" stroke="#000000" points="251,-382.5 251,-412.5 571,-412.5 571,-382.5 251,-382.5"/>
<text text-anchor="start" x="258" y="-393.9" font-family="Arial" font-size="14.00" fill="#000000">user_id </text>
<text text-anchor="start" x="307.7882" y="-393.9" font-family="Arial" font-size="14.00" fill="#666666">[varchar(36)]</text>
<polygon fill="none" stroke="#000000" points="251,-352.5 251,-382.5 571,-382.5 571,-352.5 251,-352.5"/>
<text text-anchor="start" x="258" y="-363.9" font-family="Arial" font-size="14.00" fill="#000000">role_type_id </text>
<text text-anchor="start" x="338.1332" y="-363.9" font-family="Arial" font-size="14.00" fill="#666666">[tinyint(4)]</text>
<polygon fill="none" stroke="#000000" stroke-width="3" points="249.5,-351.5 249.5,-479.5 572.5,-479.5 572.5,-351.5 249.5,-351.5"/>
</g>
<!-- games -->
<g id="node2" class="node">
<title>games</title>
<polygon fill="#efefef" stroke="transparent" points="144,-192.5 144,-227.5 309,-227.5 309,-192.5 144,-192.5"/>
<polygon fill="none" stroke="#000000" points="144,-192.5 144,-227.5 309,-227.5 309,-192.5 144,-192.5"/>
<text text-anchor="start" x="150.8677" y="-205.3" font-family="Arial Bold" font-size="18.00" fill="#000000">games</text>
<text text-anchor="start" x="204.8785" y="-205.3" font-family="Arial" font-size="14.00" fill="#000000"> </text>
<text text-anchor="start" x="208.7691" y="-205.3" font-family="Arial" font-size="14.00" fill="#666666">[BASE TABLE]</text>
<polygon fill="none" stroke="#000000" points="144,-162.5 144,-192.5 309,-192.5 309,-162.5 144,-162.5"/>
<text text-anchor="start" x="151" y="-173.9" font-family="Arial" font-size="14.00" fill="#000000">id </text>
<text text-anchor="start" x="165.7798" y="-173.9" font-family="Arial" font-size="14.00" fill="#666666">[varchar(36)]</text>
<polygon fill="none" stroke="#000000" points="144,-132.5 144,-162.5 309,-162.5 309,-132.5 144,-132.5"/>
<text text-anchor="start" x="151" y="-143.9" font-family="Arial" font-size="14.00" fill="#000000">name </text>
<text text-anchor="start" x="189.899" y="-143.9" font-family="Arial" font-size="14.00" fill="#666666">[varchar(256)]</text>
<polygon fill="none" stroke="#000000" points="144,-102.5 144,-132.5 309,-132.5 309,-102.5 144,-102.5"/>
<text text-anchor="start" x="151" y="-113.9" font-family="Arial" font-size="14.00" fill="#000000">description </text>
<text text-anchor="start" x="222.568" y="-113.9" font-family="Arial" font-size="14.00" fill="#666666">[text]</text>
<polygon fill="none" stroke="#000000" points="144,-72.5 144,-102.5 309,-102.5 309,-72.5 144,-72.5"/>
<text text-anchor="start" x="151" y="-83.9" font-family="Arial" font-size="14.00" fill="#000000">created_at </text>
<text text-anchor="start" x="221.028" y="-83.9" font-family="Arial" font-size="14.00" fill="#666666">[datetime]</text>
<polygon fill="none" stroke="#000000" points="144,-42.5 144,-72.5 309,-72.5 309,-42.5 144,-42.5"/>
<text text-anchor="start" x="151" y="-53.9" font-family="Arial" font-size="14.00" fill="#000000">deleted_at </text>
<text text-anchor="start" x="220.2566" y="-53.9" font-family="Arial" font-size="14.00" fill="#666666">[datetime]</text>
</g>
<!-- game_management_roles&#45;&gt;games -->
<g id="edge1" class="edge">
<title>game_management_roles:game_id&#45;&gt;games:id</title>
<path fill="none" stroke="#000000" d="M240.8769,-426.4419C201.3072,-417.2691 226.7958,-350.5109 251,-307 265.7489,-280.4865 294.2511,-297.5135 309,-271 329.2012,-234.6851 350.5556,-177.5 309,-177.5"/>
<polygon fill="#000000" stroke="#000000" points="241.0542,-426.4603 250.5322,-431.9756 246.0271,-426.9802 251,-427.5 251,-427.5 251,-427.5 246.0271,-426.9802 251.4678,-423.0244 241.0542,-426.4603 241.0542,-426.4603"/>
<text text-anchor="start" x="7.386" y="-437.5" font-family="Arial" font-size="10.00" fill="#000000">FOREIGN KEY (game_id) REFERENCES games (id)</text>
</g>
<!-- game_management_role_types -->
<g id="node3" class="node">
<title>game_management_role_types</title>
<polygon fill="#efefef" stroke="transparent" points="413,-162.5 413,-197.5 777,-197.5 777,-162.5 413,-162.5"/>
<polygon fill="none" stroke="#000000" points="413,-162.5 413,-197.5 777,-197.5 777,-162.5 413,-162.5"/>
<text text-anchor="start" x="419.8367" y="-175.3" font-family="Arial Bold" font-size="18.00" fill="#000000">game_management_role_types</text>
<text text-anchor="start" x="672.9095" y="-175.3" font-family="Arial" font-size="14.00" fill="#000000"> </text>
<text text-anchor="start" x="676.8001" y="-175.3" font-family="Arial" font-size="14.00" fill="#666666">[BASE TABLE]</text>
<polygon fill="none" stroke="#000000" points="413,-132.5 413,-162.5 777,-162.5 777,-132.5 413,-132.5"/>
<text text-anchor="start" x="420" y="-143.9" font-family="Arial" font-size="14.00" fill="#000000">id </text>
<text text-anchor="start" x="434.7798" y="-143.9" font-family="Arial" font-size="14.00" fill="#666666">[tinyint(4)]</text>
<polygon fill="none" stroke="#000000" points="413,-102.5 413,-132.5 777,-132.5 777,-102.5 413,-102.5"/>
<text text-anchor="start" x="420" y="-113.9" font-family="Arial" font-size="14.00" fill="#000000">name </text>
<text text-anchor="start" x="458.899" y="-113.9" font-family="Arial" font-size="14.00" fill="#666666">[varchar(32)]</text>
<polygon fill="none" stroke="#000000" points="413,-72.5 413,-102.5 777,-102.5 777,-72.5 413,-72.5"/>
<text text-anchor="start" x="420" y="-83.9" font-family="Arial" font-size="14.00" fill="#000000">active </text>
<text text-anchor="start" x="460.453" y="-83.9" font-family="Arial" font-size="14.00" fill="#666666">[tinyint(1)]</text>
</g>
<!-- game_management_roles&#45;&gt;game_management_role_types -->
<g id="edge2" class="edge">
<title>game_management_roles:role_type_id&#45;&gt;game_management_role_types:id</title>
<path fill="none" stroke="#000000" d="M580.8942,-364.9134C594.0727,-355.9717 583.5763,-325.8828 571,-307 528.8143,-243.6599 455.1857,-304.3401 413,-241 389.9647,-206.4133 371.4444,-147.5 413,-147.5"/>
<polygon fill="#000000" stroke="#000000" points="580.6749,-364.9707 569.8618,-363.1463 575.8374,-366.2354 571,-367.5 571,-367.5 571,-367.5 575.8374,-366.2354 572.1382,-371.8537 580.6749,-364.9707 580.6749,-364.9707"/>
<text text-anchor="start" x="578.033" y="-377.5" font-family="Arial" font-size="10.00" fill="#000000">FOREIGN KEY (role_type_id) REFERENCES game_management_role_types (id)</text>
</g>
</g>
</svg>
