<?xml version="1.0" encoding="UTF-8" standalone="no"?>
<!DOCTYPE svg PUBLIC "-//W3C//DTD SVG 1.1//EN"
 "http://www.w3.org/Graphics/SVG/1.1/DTD/svg11.dtd">
<!-- Generated by graphviz version 2.40.1 (20161225.0304)
 -->
<!-- Title: game_creator_jobs Pages: 1 -->
<svg width="513pt" height="442pt"
 viewBox="0.00 0.00 513.00 442.00" xmlns="http://www.w3.org/2000/svg" xmlns:xlink="http://www.w3.org/1999/xlink">
<g id="graph0" class="graph" transform="scale(1 1) rotate(0) translate(4 438)">
<title>game_creator_jobs</title>
<polygon fill="#ffffff" stroke="transparent" points="-4,4 -4,-438 509,-438 509,4 -4,4"/>
<!-- game_creator_jobs -->
<g id="node1" class="node">
<title>game_creator_jobs</title>
<polygon fill="#efefef" stroke="transparent" points="162,-135.5 162,-170.5 427,-170.5 427,-135.5 162,-135.5"/>
<polygon fill="none" stroke="#000000" points="162,-135.5 162,-170.5 427,-170.5 427,-135.5 162,-135.5"/>
<text text-anchor="start" x="168.8556" y="-148.3" font-family="Arial Bold" font-size="18.00" fill="#000000">game_creator_jobs</text>
<text text-anchor="start" x="322.8906" y="-148.3" font-family="Arial" font-size="14.00" fill="#000000"> </text>
<text text-anchor="start" x="326.7812" y="-148.3" font-family="Arial" font-size="14.00" fill="#666666">[BASE TABLE]</text>
<polygon fill="none" stroke="#000000" points="162,-105.5 162,-135.5 427,-135.5 427,-105.5 162,-105.5"/>
<text text-anchor="start" x="169" y="-116.9" font-family="Arial" font-size="14.00" fill="#000000">id </text>
<text text-anchor="start" x="183.7798" y="-116.9" font-family="Arial" font-size="14.00" fill="#666666">[varchar(36)]</text>
<polygon fill="none" stroke="#000000" points="162,-75.5 162,-105.5 427,-105.5 427,-75.5 162,-75.5"/>
<text text-anchor="start" x="169" y="-86.9" font-family="Arial" font-size="14.00" fill="#000000">display_name </text>
<text text-anchor="start" x="259.2426" y="-86.9" font-family="Arial" font-size="14.00" fill="#666666">[varchar(64)]</text>
<polygon fill="none" stroke="#000000" points="162,-45.5 162,-75.5 427,-75.5 427,-45.5 162,-45.5"/>
<text text-anchor="start" x="169" y="-56.9" font-family="Arial" font-size="14.00" fill="#000000">created_at </text>
<text text-anchor="start" x="239.028" y="-56.9" font-family="Arial" font-size="14.00" fill="#666666">[datetime]</text>
<polygon fill="none" stroke="#000000" stroke-width="3" points="160,-44.5 160,-172.5 428,-172.5 428,-44.5 160,-44.5"/>
</g>
<!-- game_creator_job_relations -->
<g id="node2" class="node">
<title>game_creator_job_relations</title>
<polygon fill="#efefef" stroke="transparent" points="128,-355.5 128,-390.5 462,-390.5 462,-355.5 128,-355.5"/>
<polygon fill="none" stroke="#000000" points="128,-355.5 128,-390.5 462,-390.5 462,-355.5 128,-355.5"/>
<text text-anchor="start" x="134.8487" y="-368.3" font-family="Arial Bold" font-size="18.00" fill="#000000">game_creator_job_relations</text>
<text text-anchor="start" x="357.8975" y="-368.3" font-family="Arial" font-size="14.00" fill="#000000"> </text>
<text text-anchor="start" x="361.7881" y="-368.3" font-family="Arial" font-size="14.00" fill="#666666">[BASE TABLE]</text>
<polygon fill="none" stroke="#000000" points="128,-325.5 128,-355.5 462,-355.5 462,-325.5 128,-325.5"/>
<text text-anchor="start" x="135" y="-336.9" font-family="Arial" font-size="14.00" fill="#000000">game_creator_id </text>
<text text-anchor="start" x="243.913" y="-336.9" font-family="Arial" font-size="14.00" fill="#666666">[varchar(36)]</text>
<polygon fill="none" stroke="#000000" points="128,-295.5 128,-325.5 462,-325.5 462,-295.5 128,-295.5"/>
<text text-anchor="start" x="135" y="-306.9" font-family="Arial" font-size="14.00" fill="#000000">job_id </text>
<text text-anchor="start" x="176.2342" y="-306.9" font-family="Arial" font-size="14.00" fill="#666666">[varchar(36)]</text>
</g>
<!-- game_creator_job_relations&#45;&gt;game_creator_jobs -->
<g id="edge1" class="edge">
<title>game_creator_job_relations:job_id&#45;&gt;game_creator_jobs:id</title>
<path fill="none" stroke="#000000" d="M295.8549,-285.3175C305.5536,-232.2878 395.0994,-273.0867 427,-217 448.2042,-179.7195 469.8889,-120.5 427,-120.5"/>
<polygon fill="#000000" stroke="#000000" points="295.8368,-285.5351 290.5158,-295.1235 295.4184,-290.5175 295,-295.5 295,-295.5 295,-295.5 295.4184,-290.5175 299.4842,-295.8765 295.8368,-285.5351 295.8368,-285.5351"/>
<text text-anchor="start" x="7.436" y="-305.5" font-family="Arial" font-size="10.00" fill="#000000">FOREIGN KEY (job_id) REFERENCES game_creator_jobs (id)</text>
</g>
</g>
</svg>
