<?xml version="1.0" encoding="UTF-8" standalone="no"?>
<!DOCTYPE svg PUBLIC "-//W3C//DTD SVG 1.1//EN"
 "http://www.w3.org/Graphics/SVG/1.1/DTD/svg11.dtd">
<!-- Generated by graphviz version 2.40.1 (20161225.0304)
 -->
<!-- Title: games Pages: 1 -->
<svg width="3321pt" height="929pt"
 viewBox="0.00 0.00 3320.50 929.00" xmlns="http://www.w3.org/2000/svg" xmlns:xlink="http://www.w3.org/1999/xlink">
<g id="graph0" class="graph" transform="scale(1 1) rotate(0) translate(4 925)">
<title>games</title>
<polygon fill="#ffffff" stroke="transparent" points="-4,4 -4,-925 3316.5,-925 3316.5,4 -4,4"/>
<!-- games -->
<g id="node1" class="node">
<title>games</title>
<polygon fill="#efefef" stroke="transparent" points="994,-502.5 994,-537.5 1237,-537.5 1237,-502.5 994,-502.5"/>
<polygon fill="none" stroke="#000000" points="994,-502.5 994,-537.5 1237,-537.5 1237,-502.5 994,-502.5"/>
<text text-anchor="start" x="1039.8677" y="-515.3" font-family="Arial Bold" font-size="18.00" fill="#000000">games</text>
<text text-anchor="start" x="1093.8785" y="-515.3" font-family="Arial" font-size="14.00" fill="#000000"> </text>
<text text-anchor="start" x="1097.7691" y="-515.3" font-family="Arial" font-size="14.00" fill="#666666">[BASE TABLE]</text>
<polygon fill="none" stroke="#000000" points="994,-472.5 994,-502.5 1237,-502.5 1237,-472.5 994,-472.5"/>
<text text-anchor="start" x="1001" y="-483.9" font-family="Arial" font-size="14.00" fill="#000000">id </text>
<text text-anchor="start" x="1015.7798" y="-483.9" font-family="Arial" font-size="14.00" fill="#666666">[varchar(36)]</text>
<polygon fill="none" stroke="#000000" points="994,-442.5 994,-472.5 1237,-472.5 1237,-442.5 994,-442.5"/>
<text text-anchor="start" x="1001" y="-453.9" font-family="Arial" font-size="14.00" fill="#000000">name </text>
<text text-anchor="start" x="1039.899" y="-453.9" font-family="Arial" font-size="14.00" fill="#666666">[varchar(256)]</text>
<polygon fill="none" stroke="#000000" points="994,-412.5 994,-442.5 1237,-442.5 1237,-412.5 994,-412.5"/>
<text text-anchor="start" x="1001" y="-423.9" font-family="Arial" font-size="14.00" fill="#000000">description </text>
<text text-anchor="start" x="1072.568" y="-423.9" font-family="Arial" font-size="14.00" fill="#666666">[text]</text>
<polygon fill="none" stroke="#000000" points="994,-382.5 994,-412.5 1237,-412.5 1237,-382.5 994,-382.5"/>
<text text-anchor="start" x="1001" y="-393.9" font-family="Arial" font-size="14.00" fill="#000000">created_at </text>
<text text-anchor="start" x="1071.028" y="-393.9" font-family="Arial" font-size="14.00" fill="#666666">[datetime]</text>
<polygon fill="none" stroke="#000000" points="994,-352.5 994,-382.5 1237,-382.5 1237,-352.5 994,-352.5"/>
<text text-anchor="start" x="1001" y="-363.9" font-family="Arial" font-size="14.00" fill="#000000">deleted_at </text>
<text text-anchor="start" x="1070.2566" y="-363.9" font-family="Arial" font-size="14.00" fill="#666666">[datetime]</text>
<polygon fill="none" stroke="#000000" points="994,-322.5 994,-352.5 1237,-352.5 1237,-322.5 994,-322.5"/>
<text text-anchor="start" x="1001" y="-333.9" font-family="Arial" font-size="14.00" fill="#000000">visibility_type_id </text>
<text text-anchor="start" x="1106.007" y="-333.9" font-family="Arial" font-size="14.00" fill="#666666">[tinyint(4)]</text>
<polygon fill="none" stroke="#000000" points="994,-292.5 994,-322.5 1237,-322.5 1237,-292.5 994,-292.5"/>
<text text-anchor="start" x="1000.7371" y="-303.9" font-family="Arial" font-size="14.00" fill="#000000">latest_version_updated_at </text>
<text text-anchor="start" x="1168.8029" y="-303.9" font-family="Arial" font-size="14.00" fill="#666666">[datetime]</text>
<polygon fill="none" stroke="#000000" stroke-width="3" points="992,-291.5 992,-539.5 1238,-539.5 1238,-291.5 992,-291.5"/>
</g>
<!-- game_visibility_types -->
<g id="node11" class="node">
<title>game_visibility_types</title>
<polygon fill="#efefef" stroke="transparent" points="975,-132.5 975,-167.5 1256,-167.5 1256,-132.5 975,-132.5"/>
<polygon fill="none" stroke="#000000" points="975,-132.5 975,-167.5 1256,-167.5 1256,-132.5 975,-132.5"/>
<text text-anchor="start" x="981.8645" y="-145.3" font-family="Arial Bold" font-size="18.00" fill="#000000">game_visibility_types</text>
<text text-anchor="start" x="1151.8817" y="-145.3" font-family="Arial" font-size="14.00" fill="#000000"> </text>
<text text-anchor="start" x="1155.7723" y="-145.3" font-family="Arial" font-size="14.00" fill="#666666">[BASE TABLE]</text>
<polygon fill="none" stroke="#000000" points="975,-102.5 975,-132.5 1256,-132.5 1256,-102.5 975,-102.5"/>
<text text-anchor="start" x="982" y="-113.9" font-family="Arial" font-size="14.00" fill="#000000">id </text>
<text text-anchor="start" x="996.7798" y="-113.9" font-family="Arial" font-size="14.00" fill="#666666">[tinyint(4)]</text>
<polygon fill="none" stroke="#000000" points="975,-72.5 975,-102.5 1256,-102.5 1256,-72.5 975,-72.5"/>
<text text-anchor="start" x="982" y="-83.9" font-family="Arial" font-size="14.00" fill="#000000">name </text>
<text text-anchor="start" x="1020.899" y="-83.9" font-family="Arial" font-size="14.00" fill="#666666">[varchar(32)]</text>
<polygon fill="none" stroke="#000000" points="975,-42.5 975,-72.5 1256,-72.5 1256,-42.5 975,-42.5"/>
<text text-anchor="start" x="982" y="-53.9" font-family="Arial" font-size="14.00" fill="#000000">created_at </text>
<text text-anchor="start" x="1052.028" y="-53.9" font-family="Arial" font-size="14.00" fill="#666666">[datetime]</text>
</g>
<!-- games&#45;&gt;game_visibility_types -->
<g id="edge13" class="edge">
<title>games:visibility_type_id&#45;&gt;game_visibility_types:id</title>
<path fill="none" stroke="#000000" d="M983.9442,-336.7034C894.6671,-322.3032 880.3085,-117.5 975,-117.5"/>
<polygon fill="#000000" stroke="#000000" points="984.0312,-336.7102 993.6446,-341.9859 989.0156,-337.1051 994,-337.5 994,-337.5 994,-337.5 989.0156,-337.1051 994.3554,-333.0141 984.0312,-336.7102 984.0312,-336.7102"/>
<text text-anchor="start" x="652.2205" y="-347.5" font-family="Arial" font-size="10.00" fill="#000000">FOREIGN KEY (visibility_type_id) REFERENCES game_visibility_types (id)</text>
</g>
<!-- game_genre_relations -->
<g id="node2" class="node">
<title>game_genre_relations</title>
<polygon fill="#efefef" stroke="transparent" points="43,-782.5 43,-817.5 333,-817.5 333,-782.5 43,-782.5"/>
<polygon fill="none" stroke="#000000" points="43,-782.5 43,-817.5 333,-817.5 333,-782.5 43,-782.5"/>
<text text-anchor="start" x="49.8492" y="-795.3" font-family="Arial Bold" font-size="18.00" fill="#000000">game_genre_relations</text>
<text text-anchor="start" x="228.897" y="-795.3" font-family="Arial" font-size="14.00" fill="#000000"> </text>
<text text-anchor="start" x="232.7876" y="-795.3" font-family="Arial" font-size="14.00" fill="#666666">[BASE TABLE]</text>
<polygon fill="none" stroke="#000000" points="43,-752.5 43,-782.5 333,-782.5 333,-752.5 43,-752.5"/>
<text text-anchor="start" x="50" y="-763.9" font-family="Arial" font-size="14.00" fill="#000000">genre_id </text>
<text text-anchor="start" x="108.3534" y="-763.9" font-family="Arial" font-size="14.00" fill="#666666">[varchar(36)]</text>
<polygon fill="none" stroke="#000000" points="43,-722.5 43,-752.5 333,-752.5 333,-722.5 43,-722.5"/>
<text text-anchor="start" x="50" y="-733.9" font-family="Arial" font-size="14.00" fill="#000000">game_id </text>
<text text-anchor="start" x="107.5708" y="-733.9" font-family="Arial" font-size="14.00" fill="#666666">[varchar(36)]</text>
</g>
<!-- game_genre_relations&#45;&gt;games -->
<g id="edge1" class="edge">
<title>game_genre_relations:game_id&#45;&gt;games:id</title>
<path fill="none" stroke="#000000" d="M341.7204,-732.5335C350.516,-714.3312 320.3146,-650.7369 358,-620 465.3274,-532.4619 828.5006,-487.5 994,-487.5"/>
<polygon fill="#000000" stroke="#000000" points="341.6895,-732.551 330.7729,-733.5897 337.3448,-735.0255 333,-737.5 333,-737.5 333,-737.5 337.3448,-735.0255 335.2271,-741.4103 341.6895,-732.551 341.6895,-732.551"/>
<text text-anchor="start" x="214.886" y="-721.5" font-family="Arial" font-size="10.00" fill="#000000">FOREIGN KEY (game_id) REFERENCES games (id)</text>
</g>
<!-- game_genre_relations&#45;&gt;games -->
<g id="edge2" class="edge">
<title>game_genre_relations:game_id&#45;&gt;games:id</title>
<path fill="none" stroke="#000000" d="M343.1557,-735.8587C373.49,-724.1709 335.4551,-653.0691 376,-620 483.2226,-532.5474 845.7915,-487.5879 993.5673,-487.5001"/>
<polygon fill="#000000" stroke="#000000" points="343.1456,-735.8602 332.5433,-733.0599 338.2132,-736.6797 333.2808,-737.4991 333.2808,-737.4991 333.2808,-737.4991 338.2132,-736.6797 334.0182,-741.9382 343.1456,-735.8602 343.1456,-735.8602"/>
<text text-anchor="start" x="89.6668" y="-747.4991" font-family="Arial" font-size="10.00" fill="#000000">FOREIGN KEY (game_id) REFERENCES games (id)</text>
</g>
<!-- game_genre_relations&#45;&gt;games -->
<g id="edge3" class="edge">
<title>game_genre_relations:game_id&#45;&gt;games:id</title>
<path fill="none" stroke="#000000" d="M343.4556,-736.6901C393.6541,-728.1333 352.3337,-653.9838 394,-620 501.2226,-532.5474 863.7915,-487.5879 993.6199,-487.5001"/>
<polygon fill="#000000" stroke="#000000" points="343.3539,-736.6981 333.0256,-733.0135 338.37,-737.0986 333.386,-737.4991 333.386,-737.4991 333.386,-737.4991 338.37,-737.0986 333.7464,-741.9846 343.3539,-736.6981 343.3539,-736.6981"/>
<text text-anchor="start" x="340.772" y="-747.4991" font-family="Arial" font-size="10.00" fill="#000000">FOREIGN KEY (game_id) REFERENCES games (id)</text>
</g>
<!-- game_genre_relations&#45;&gt;games -->
<g id="edge4" class="edge">
<title>game_genre_relations:game_id&#45;&gt;games:id</title>
<path fill="none" stroke="#000000" d="M343.5291,-737.0204C412.8693,-730.291 369.7298,-654.4763 412,-620 519.2226,-532.5474 881.7915,-487.5879 993.6726,-487.5001"/>
<polygon fill="#000000" stroke="#000000" points="343.4799,-737.0227 333.2769,-733.0042 338.4856,-737.2609 333.4913,-737.4991 333.4913,-737.4991 333.4913,-737.4991 338.4856,-737.2609 333.7057,-741.994 343.4799,-737.0227 343.4799,-737.0227"/>
<text text-anchor="start" x="278.1273" y="-721.4991" font-family="Arial" font-size="10.00" fill="#000000">FOREIGN KEY (game_id) REFERENCES games (id)</text>
</g>
<!-- game_images -->
<g id="node3" class="node">
<title>game_images</title>
<polygon fill="#efefef" stroke="transparent" points="437,-812.5 437,-847.5 661,-847.5 661,-812.5 437,-812.5"/>
<polygon fill="none" stroke="#000000" points="437,-812.5 437,-847.5 661,-847.5 661,-812.5 437,-812.5"/>
<text text-anchor="start" x="443.8621" y="-825.3" font-family="Arial Bold" font-size="18.00" fill="#000000">game_images</text>
<text text-anchor="start" x="556.8841" y="-825.3" font-family="Arial" font-size="14.00" fill="#000000"> </text>
<text text-anchor="start" x="560.7747" y="-825.3" font-family="Arial" font-size="14.00" fill="#666666">[BASE TABLE]</text>
<polygon fill="none" stroke="#000000" points="437,-782.5 437,-812.5 661,-812.5 661,-782.5 437,-782.5"/>
<text text-anchor="start" x="444" y="-793.9" font-family="Arial" font-size="14.00" fill="#000000">id </text>
<text text-anchor="start" x="458.7798" y="-793.9" font-family="Arial" font-size="14.00" fill="#666666">[varchar(36)]</text>
<polygon fill="none" stroke="#000000" points="437,-752.5 437,-782.5 661,-782.5 661,-752.5 437,-752.5"/>
<text text-anchor="start" x="444" y="-763.9" font-family="Arial" font-size="14.00" fill="#000000">game_id </text>
<text text-anchor="start" x="501.5708" y="-763.9" font-family="Arial" font-size="14.00" fill="#666666">[varchar(36)]</text>
<polygon fill="none" stroke="#000000" points="437,-722.5 437,-752.5 661,-752.5 661,-722.5 437,-722.5"/>
<text text-anchor="start" x="444" y="-733.9" font-family="Arial" font-size="14.00" fill="#000000">image_type_id </text>
<text text-anchor="start" x="538.9158" y="-733.9" font-family="Arial" font-size="14.00" fill="#666666">[tinyint(4)]</text>
<polygon fill="none" stroke="#000000" points="437,-692.5 437,-722.5 661,-722.5 661,-692.5 437,-692.5"/>
<text text-anchor="start" x="444" y="-703.9" font-family="Arial" font-size="14.00" fill="#000000">created_at </text>
<text text-anchor="start" x="514.028" y="-703.9" font-family="Arial" font-size="14.00" fill="#666666">[datetime]</text>
</g>
<!-- game_images&#45;&gt;games -->
<g id="edge5" class="edge">
<title>game_images:game_id&#45;&gt;games:id</title>
<path fill="none" stroke="#000000" d="M671.2452,-766.6624C723.8302,-757.1419 668.958,-668.7642 713,-620 805.5473,-517.5299 855.9234,-487.5 994,-487.5"/>
<polygon fill="#000000" stroke="#000000" points="670.9667,-766.685 660.6333,-763.015 665.9834,-767.0925 661,-767.5 661,-767.5 661,-767.5 665.9834,-767.0925 661.3667,-771.985 670.9667,-766.685 670.9667,-766.685"/>
<text text-anchor="start" x="417.386" y="-777.5" font-family="Arial" font-size="10.00" fill="#000000">FOREIGN KEY (game_id) REFERENCES games (id)</text>
</g>
<!-- game_management_roles -->
<g id="node4" class="node">
<title>game_management_roles</title>
<polygon fill="#efefef" stroke="transparent" points="765,-797.5 765,-832.5 1085,-832.5 1085,-797.5 765,-797.5"/>
<polygon fill="none" stroke="#000000" points="765,-797.5 765,-832.5 1085,-832.5 1085,-797.5 765,-797.5"/>
<text text-anchor="start" x="771.8471" y="-810.3" font-family="Arial Bold" font-size="18.00" fill="#000000">game_management_roles</text>
<text text-anchor="start" x="980.8991" y="-810.3" font-family="Arial" font-size="14.00" fill="#000000"> </text>
<text text-anchor="start" x="984.7897" y="-810.3" font-family="Arial" font-size="14.00" fill="#666666">[BASE TABLE]</text>
<polygon fill="none" stroke="#000000" points="765,-767.5 765,-797.5 1085,-797.5 1085,-767.5 765,-767.5"/>
<text text-anchor="start" x="772" y="-778.9" font-family="Arial" font-size="14.00" fill="#000000">game_id </text>
<text text-anchor="start" x="829.5708" y="-778.9" font-family="Arial" font-size="14.00" fill="#666666">[varchar(36)]</text>
<polygon fill="none" stroke="#000000" points="765,-737.5 765,-767.5 1085,-767.5 1085,-737.5 765,-737.5"/>
<text text-anchor="start" x="772" y="-748.9" font-family="Arial" font-size="14.00" fill="#000000">user_id </text>
<text text-anchor="start" x="821.7882" y="-748.9" font-family="Arial" font-size="14.00" fill="#666666">[varchar(36)]</text>
<polygon fill="none" stroke="#000000" points="765,-707.5 765,-737.5 1085,-737.5 1085,-707.5 765,-707.5"/>
<text text-anchor="start" x="772" y="-718.9" font-family="Arial" font-size="14.00" fill="#000000">role_type_id </text>
<text text-anchor="start" x="852.1332" y="-718.9" font-family="Arial" font-size="14.00" fill="#666666">[tinyint(4)]</text>
</g>
<!-- game_management_roles&#45;&gt;games -->
<g id="edge6" class="edge">
<title>game_management_roles:game_id&#45;&gt;games:id</title>
<path fill="none" stroke="#000000" d="M1095.2927,-781.3833C1132.6958,-772.2534 1104.7903,-709.1102 1085,-665 1062.8357,-615.5986 1016.1643,-633.4014 994,-584 976.4436,-544.8691 951.1111,-487.5 994,-487.5"/>
<polygon fill="#000000" stroke="#000000" points="1094.9417,-781.4213 1084.5146,-778.0263 1089.9708,-781.9606 1085,-782.5 1085,-782.5 1085,-782.5 1089.9708,-781.9606 1085.4854,-786.9737 1094.9417,-781.4213 1094.9417,-781.4213"/>
<text text-anchor="start" x="1092.386" y="-792.5" font-family="Arial" font-size="10.00" fill="#000000">FOREIGN KEY (game_id) REFERENCES games (id)</text>
</g>
<!-- game_versions -->
<g id="node5" class="node">
<title>game_versions</title>
<polygon fill="#efefef" stroke="transparent" points="1190,-827.5 1190,-862.5 1423,-862.5 1423,-827.5 1190,-827.5"/>
<polygon fill="none" stroke="#000000" points="1190,-827.5 1190,-862.5 1423,-862.5 1423,-827.5 1190,-827.5"/>
<text text-anchor="start" x="1196.8621" y="-840.3" font-family="Arial Bold" font-size="18.00" fill="#000000">game_versions</text>
<text text-anchor="start" x="1318.8841" y="-840.3" font-family="Arial" font-size="14.00" fill="#000000"> </text>
<text text-anchor="start" x="1322.7747" y="-840.3" font-family="Arial" font-size="14.00" fill="#666666">[BASE TABLE]</text>
<polygon fill="none" stroke="#000000" points="1190,-797.5 1190,-827.5 1423,-827.5 1423,-797.5 1190,-797.5"/>
<text text-anchor="start" x="1197" y="-808.9" font-family="Arial" font-size="14.00" fill="#000000">id </text>
<text text-anchor="start" x="1211.7798" y="-808.9" font-family="Arial" font-size="14.00" fill="#666666">[varchar(36)]</text>
<polygon fill="none" stroke="#000000" points="1190,-767.5 1190,-797.5 1423,-797.5 1423,-767.5 1190,-767.5"/>
<text text-anchor="start" x="1197" y="-778.9" font-family="Arial" font-size="14.00" fill="#000000">game_id </text>
<text text-anchor="start" x="1254.5708" y="-778.9" font-family="Arial" font-size="14.00" fill="#666666">[varchar(36)]</text>
<polygon fill="none" stroke="#000000" points="1190,-737.5 1190,-767.5 1423,-767.5 1423,-737.5 1190,-737.5"/>
<text text-anchor="start" x="1197" y="-748.9" font-family="Arial" font-size="14.00" fill="#000000">name </text>
<text text-anchor="start" x="1235.899" y="-748.9" font-family="Arial" font-size="14.00" fill="#666666">[varchar(32)]</text>
<polygon fill="none" stroke="#000000" points="1190,-707.5 1190,-737.5 1423,-737.5 1423,-707.5 1190,-707.5"/>
<text text-anchor="start" x="1197" y="-718.9" font-family="Arial" font-size="14.00" fill="#000000">description </text>
<text text-anchor="start" x="1268.568" y="-718.9" font-family="Arial" font-size="14.00" fill="#666666">[text]</text>
<polygon fill="none" stroke="#000000" points="1190,-677.5 1190,-707.5 1423,-707.5 1423,-677.5 1190,-677.5"/>
<text text-anchor="start" x="1197" y="-688.9" font-family="Arial" font-size="14.00" fill="#000000">created_at </text>
<text text-anchor="start" x="1267.028" y="-688.9" font-family="Arial" font-size="14.00" fill="#666666">[datetime]</text>
</g>
<!-- game_versions&#45;&gt;games -->
<g id="edge7" class="edge">
<title>game_versions:game_id&#45;&gt;games:id</title>
<path fill="none" stroke="#000000" d="M1179.8703,-781.6884C1129.112,-772.7899 1167.5041,-692.6058 1190,-635 1201.2126,-606.2876 1225.7874,-612.7124 1237,-584 1252.6013,-544.0493 1279.8889,-487.5 1237,-487.5"/>
<polygon fill="#000000" stroke="#000000" points="1180.0319,-781.7013 1189.6406,-786.9856 1185.016,-782.1006 1190,-782.5 1190,-782.5 1190,-782.5 1185.016,-782.1006 1190.3594,-778.0144 1180.0319,-781.7013 1180.0319,-781.7013"/>
<text text-anchor="start" x="1197.386" y="-766.5" font-family="Arial" font-size="10.00" fill="#000000">FOREIGN KEY (game_id) REFERENCES games (id)</text>
</g>
<!-- game_videos -->
<g id="node6" class="node">
<title>game_videos</title>
<polygon fill="#efefef" stroke="transparent" points="1527,-812.5 1527,-847.5 1745,-847.5 1745,-812.5 1527,-812.5"/>
<polygon fill="none" stroke="#000000" points="1527,-812.5 1527,-847.5 1745,-847.5 1745,-812.5 1527,-812.5"/>
<text text-anchor="start" x="1533.8582" y="-825.3" font-family="Arial Bold" font-size="18.00" fill="#000000">game_videos</text>
<text text-anchor="start" x="1640.888" y="-825.3" font-family="Arial" font-size="14.00" fill="#000000"> </text>
<text text-anchor="start" x="1644.7786" y="-825.3" font-family="Arial" font-size="14.00" fill="#666666">[BASE TABLE]</text>
<polygon fill="none" stroke="#000000" points="1527,-782.5 1527,-812.5 1745,-812.5 1745,-782.5 1527,-782.5"/>
<text text-anchor="start" x="1534" y="-793.9" font-family="Arial" font-size="14.00" fill="#000000">id </text>
<text text-anchor="start" x="1548.7798" y="-793.9" font-family="Arial" font-size="14.00" fill="#666666">[varchar(36)]</text>
<polygon fill="none" stroke="#000000" points="1527,-752.5 1527,-782.5 1745,-782.5 1745,-752.5 1527,-752.5"/>
<text text-anchor="start" x="1534" y="-763.9" font-family="Arial" font-size="14.00" fill="#000000">game_id </text>
<text text-anchor="start" x="1591.5708" y="-763.9" font-family="Arial" font-size="14.00" fill="#666666">[varchar(36)]</text>
<polygon fill="none" stroke="#000000" points="1527,-722.5 1527,-752.5 1745,-752.5 1745,-722.5 1527,-722.5"/>
<text text-anchor="start" x="1534" y="-733.9" font-family="Arial" font-size="14.00" fill="#000000">video_type_id </text>
<text text-anchor="start" x="1624.2552" y="-733.9" font-family="Arial" font-size="14.00" fill="#666666">[tinyint(4)]</text>
<polygon fill="none" stroke="#000000" points="1527,-692.5 1527,-722.5 1745,-722.5 1745,-692.5 1527,-692.5"/>
<text text-anchor="start" x="1534" y="-703.9" font-family="Arial" font-size="14.00" fill="#000000">created_at </text>
<text text-anchor="start" x="1604.028" y="-703.9" font-family="Arial" font-size="14.00" fill="#666666">[datetime]</text>
</g>
<!-- game_videos&#45;&gt;games -->
<g id="edge8" class="edge">
<title>game_videos:game_id&#45;&gt;games:id</title>
<path fill="none" stroke="#000000" d="M1516.7399,-766.6754C1463.9874,-757.3011 1517.3746,-670.2199 1475,-620 1396.9268,-527.4721 1358.0654,-487.5 1237,-487.5"/>
<polygon fill="#000000" stroke="#000000" points="1517.0321,-766.6988 1526.6395,-771.9855 1522.0161,-767.0994 1527,-767.5 1527,-767.5 1527,-767.5 1522.0161,-767.0994 1527.3605,-763.0145 1517.0321,-766.6988 1517.0321,-766.6988"/>
<text text-anchor="start" x="1534.386" y="-777.5" font-family="Arial" font-size="10.00" fill="#000000">FOREIGN KEY (game_id) REFERENCES games (id)</text>
</g>
<!-- launcher_version_game_relations -->
<g id="node7" class="node">
<title>launcher_version_game_relations</title>
<polygon fill="#efefef" stroke="transparent" points="1850,-782.5 1850,-817.5 2231,-817.5 2231,-782.5 1850,-782.5"/>
<polygon fill="none" stroke="#000000" points="1850,-782.5 1850,-817.5 2231,-817.5 2231,-782.5 1850,-782.5"/>
<text text-anchor="start" x="1856.8434" y="-795.3" font-family="Arial Bold" font-size="18.00" fill="#000000">launcher_version_game_relations</text>
<text text-anchor="start" x="2126.9028" y="-795.3" font-family="Arial" font-size="14.00" fill="#000000"> </text>
<text text-anchor="start" x="2130.7934" y="-795.3" font-family="Arial" font-size="14.00" fill="#666666">[BASE TABLE]</text>
<polygon fill="none" stroke="#000000" points="1850,-752.5 1850,-782.5 2231,-782.5 2231,-752.5 1850,-752.5"/>
<text text-anchor="start" x="1857" y="-763.9" font-family="Arial" font-size="14.00" fill="#000000">launcher_version_table_id </text>
<text text-anchor="start" x="2024.2678" y="-763.9" font-family="Arial" font-size="14.00" fill="#666666">[varchar(36)]</text>
<polygon fill="none" stroke="#000000" points="1850,-722.5 1850,-752.5 2231,-752.5 2231,-722.5 1850,-722.5"/>
<text text-anchor="start" x="1857" y="-733.9" font-family="Arial" font-size="14.00" fill="#000000">game_table_id </text>
<text text-anchor="start" x="1952.6984" y="-733.9" font-family="Arial" font-size="14.00" fill="#666666">[varchar(36)]</text>
</g>
<!-- launcher_version_game_relations&#45;&gt;games -->
<g id="edge9" class="edge">
<title>launcher_version_game_relations:game_table_id&#45;&gt;games:id</title>
<path fill="none" stroke="#000000" d="M1839.9282,-736.4646C1798.7416,-726.9326 1838.2601,-654.0324 1797,-620 1698.348,-538.6293 1364.8804,-487.5 1237,-487.5"/>
<polygon fill="#000000" stroke="#000000" points="1840.0524,-736.4773 1849.5398,-741.9764 1845.0262,-736.9886 1850,-737.5 1850,-737.5 1850,-737.5 1845.0262,-736.9886 1850.4602,-733.0236 1840.0524,-736.4773 1840.0524,-736.4773"/>
<text text-anchor="start" x="1578.769" y="-747.5" font-family="Arial" font-size="10.00" fill="#000000">FOREIGN KEY (game_table_id) REFERENCES games (id)</text>
</g>
<!-- v2_game_files -->
<g id="node8" class="node">
<title>v2_game_files</title>
<polygon fill="#efefef" stroke="transparent" points="2335,-842.5 2335,-877.5 2562,-877.5 2562,-842.5 2335,-842.5"/>
<polygon fill="none" stroke="#000000" points="2335,-842.5 2335,-877.5 2562,-877.5 2562,-842.5 2335,-842.5"/>
<text text-anchor="start" x="2341.86" y="-855.3" font-family="Arial Bold" font-size="18.00" fill="#000000">v2_game_files</text>
<text text-anchor="start" x="2457.8862" y="-855.3" font-family="Arial" font-size="14.00" fill="#000000"> </text>
<text text-anchor="start" x="2461.7768" y="-855.3" font-family="Arial" font-size="14.00" fill="#666666">[BASE TABLE]</text>
<polygon fill="none" stroke="#000000" points="2335,-812.5 2335,-842.5 2562,-842.5 2562,-812.5 2335,-812.5"/>
<text text-anchor="start" x="2342" y="-823.9" font-family="Arial" font-size="14.00" fill="#000000">id </text>
<text text-anchor="start" x="2356.7798" y="-823.9" font-family="Arial" font-size="14.00" fill="#666666">[varchar(36)]</text>
<polygon fill="none" stroke="#000000" points="2335,-782.5 2335,-812.5 2562,-812.5 2562,-782.5 2335,-782.5"/>
<text text-anchor="start" x="2342" y="-793.9" font-family="Arial" font-size="14.00" fill="#000000">game_id </text>
<text text-anchor="start" x="2399.5708" y="-793.9" font-family="Arial" font-size="14.00" fill="#666666">[varchar(36)]</text>
<polygon fill="none" stroke="#000000" points="2335,-752.5 2335,-782.5 2562,-782.5 2562,-752.5 2335,-752.5"/>
<text text-anchor="start" x="2342" y="-763.9" font-family="Arial" font-size="14.00" fill="#000000">file_type_id </text>
<text text-anchor="start" x="2416.6872" y="-763.9" font-family="Arial" font-size="14.00" fill="#666666">[tinyint(4)]</text>
<polygon fill="none" stroke="#000000" points="2335,-722.5 2335,-752.5 2562,-752.5 2562,-722.5 2335,-722.5"/>
<text text-anchor="start" x="2342" y="-733.9" font-family="Arial" font-size="14.00" fill="#000000">hash </text>
<text text-anchor="start" x="2376.2384" y="-733.9" font-family="Arial" font-size="14.00" fill="#666666">[char(32)]</text>
<polygon fill="none" stroke="#000000" points="2335,-692.5 2335,-722.5 2562,-722.5 2562,-692.5 2335,-692.5"/>
<text text-anchor="start" x="2342" y="-703.9" font-family="Arial" font-size="14.00" fill="#000000">entry_point </text>
<text text-anchor="start" x="2415.1346" y="-703.9" font-family="Arial" font-size="14.00" fill="#666666">[text]</text>
<polygon fill="none" stroke="#000000" points="2335,-662.5 2335,-692.5 2562,-692.5 2562,-662.5 2335,-662.5"/>
<text text-anchor="start" x="2342" y="-673.9" font-family="Arial" font-size="14.00" fill="#000000">created_at </text>
<text text-anchor="start" x="2412.028" y="-673.9" font-family="Arial" font-size="14.00" fill="#666666">[datetime]</text>
</g>
<!-- v2_game_files&#45;&gt;games -->
<g id="edge10" class="edge">
<title>v2_game_files:game_id&#45;&gt;games:id</title>
<path fill="none" stroke="#000000" d="M2324.951,-796.766C2260.8163,-786.4869 2342.7492,-670.9325 2283,-620 2193.8454,-544.0013 1354.151,-487.5 1237,-487.5"/>
<polygon fill="#000000" stroke="#000000" points="2325.0266,-796.7714 2334.6721,-801.988 2330.0133,-797.1357 2335,-797.5 2335,-797.5 2335,-797.5 2330.0133,-797.1357 2335.3279,-793.012 2325.0266,-796.7714 2325.0266,-796.7714"/>
<text text-anchor="start" x="2091.386" y="-807.5" font-family="Arial" font-size="10.00" fill="#000000">FOREIGN KEY (game_id) REFERENCES games (id)</text>
</g>
<!-- v2_game_images -->
<g id="node9" class="node">
<title>v2_game_images</title>
<polygon fill="#efefef" stroke="transparent" points="2666,-812.5 2666,-847.5 2919,-847.5 2919,-812.5 2666,-812.5"/>
<polygon fill="none" stroke="#000000" points="2666,-812.5 2666,-847.5 2919,-847.5 2919,-812.5 2666,-812.5"/>
<text text-anchor="start" x="2672.8559" y="-825.3" font-family="Arial Bold" font-size="18.00" fill="#000000">v2_game_images</text>
<text text-anchor="start" x="2814.8903" y="-825.3" font-family="Arial" font-size="14.00" fill="#000000"> </text>
<text text-anchor="start" x="2818.7809" y="-825.3" font-family="Arial" font-size="14.00" fill="#666666">[BASE TABLE]</text>
<polygon fill="none" stroke="#000000" points="2666,-782.5 2666,-812.5 2919,-812.5 2919,-782.5 2666,-782.5"/>
<text text-anchor="start" x="2673" y="-793.9" font-family="Arial" font-size="14.00" fill="#000000">id </text>
<text text-anchor="start" x="2687.7798" y="-793.9" font-family="Arial" font-size="14.00" fill="#666666">[varchar(36)]</text>
<polygon fill="none" stroke="#000000" points="2666,-752.5 2666,-782.5 2919,-782.5 2919,-752.5 2666,-752.5"/>
<text text-anchor="start" x="2673" y="-763.9" font-family="Arial" font-size="14.00" fill="#000000">game_id </text>
<text text-anchor="start" x="2730.5708" y="-763.9" font-family="Arial" font-size="14.00" fill="#666666">[varchar(36)]</text>
<polygon fill="none" stroke="#000000" points="2666,-722.5 2666,-752.5 2919,-752.5 2919,-722.5 2666,-722.5"/>
<text text-anchor="start" x="2673" y="-733.9" font-family="Arial" font-size="14.00" fill="#000000">image_type_id </text>
<text text-anchor="start" x="2767.9158" y="-733.9" font-family="Arial" font-size="14.00" fill="#666666">[tinyint(4)]</text>
<polygon fill="none" stroke="#000000" points="2666,-692.5 2666,-722.5 2919,-722.5 2919,-692.5 2666,-692.5"/>
<text text-anchor="start" x="2673" y="-703.9" font-family="Arial" font-size="14.00" fill="#000000">created_at </text>
<text text-anchor="start" x="2743.028" y="-703.9" font-family="Arial" font-size="14.00" fill="#666666">[datetime]</text>
</g>
<!-- v2_game_images&#45;&gt;games -->
<g id="edge11" class="edge">
<title>v2_game_images:game_id&#45;&gt;games:id</title>
<path fill="none" stroke="#000000" d="M2655.824,-766.5881C2604.0131,-756.2368 2665.7522,-660.4889 2614,-620 2492.9407,-525.2878 1390.7067,-487.5 1237,-487.5"/>
<polygon fill="#000000" stroke="#000000" points="2656.0399,-766.6074 2665.5983,-771.982 2661.02,-767.0537 2666,-767.5 2666,-767.5 2666,-767.5 2661.02,-767.0537 2666.4017,-763.018 2656.0399,-766.6074 2656.0399,-766.6074"/>
<text text-anchor="start" x="2673.386" y="-777.5" font-family="Arial" font-size="10.00" fill="#000000">FOREIGN KEY (game_id) REFERENCES games (id)</text>
</g>
<!-- v2_game_videos -->
<g id="node10" class="node">
<title>v2_game_videos</title>
<polygon fill="#efefef" stroke="transparent" points="3023,-812.5 3023,-847.5 3270,-847.5 3270,-812.5 3023,-812.5"/>
<polygon fill="none" stroke="#000000" points="3023,-812.5 3023,-847.5 3270,-847.5 3270,-812.5 3023,-812.5"/>
<text text-anchor="start" x="3029.852" y="-825.3" font-family="Arial Bold" font-size="18.00" fill="#000000">v2_game_videos</text>
<text text-anchor="start" x="3165.8942" y="-825.3" font-family="Arial" font-size="14.00" fill="#000000"> </text>
<text text-anchor="start" x="3169.7848" y="-825.3" font-family="Arial" font-size="14.00" fill="#666666">[BASE TABLE]</text>
<polygon fill="none" stroke="#000000" points="3023,-782.5 3023,-812.5 3270,-812.5 3270,-782.5 3023,-782.5"/>
<text text-anchor="start" x="3030" y="-793.9" font-family="Arial" font-size="14.00" fill="#000000">id </text>
<text text-anchor="start" x="3044.7798" y="-793.9" font-family="Arial" font-size="14.00" fill="#666666">[varchar(36)]</text>
<polygon fill="none" stroke="#000000" points="3023,-752.5 3023,-782.5 3270,-782.5 3270,-752.5 3023,-752.5"/>
<text text-anchor="start" x="3030" y="-763.9" font-family="Arial" font-size="14.00" fill="#000000">game_id </text>
<text text-anchor="start" x="3087.5708" y="-763.9" font-family="Arial" font-size="14.00" fill="#666666">[varchar(36)]</text>
<polygon fill="none" stroke="#000000" points="3023,-722.5 3023,-752.5 3270,-752.5 3270,-722.5 3023,-722.5"/>
<text text-anchor="start" x="3030" y="-733.9" font-family="Arial" font-size="14.00" fill="#000000">video_type_id </text>
<text text-anchor="start" x="3120.2552" y="-733.9" font-family="Arial" font-size="14.00" fill="#666666">[tinyint(4)]</text>
<polygon fill="none" stroke="#000000" points="3023,-692.5 3023,-722.5 3270,-722.5 3270,-692.5 3023,-692.5"/>
<text text-anchor="start" x="3030" y="-703.9" font-family="Arial" font-size="14.00" fill="#000000">created_at </text>
<text text-anchor="start" x="3100.028" y="-703.9" font-family="Arial" font-size="14.00" fill="#666666">[datetime]</text>
</g>
<!-- v2_game_videos&#45;&gt;games -->
<g id="edge12" class="edge">
<title>v2_game_videos:game_id&#45;&gt;games:id</title>
<path fill="none" stroke="#000000" d="M3012.8275,-766.5835C2961.0564,-756.1809 3023.1477,-659.9782 2971,-620 2817.6503,-502.437 1430.2283,-487.5 1237,-487.5"/>
<polygon fill="#000000" stroke="#000000" points="3013.0403,-766.6026 3022.5962,-771.9818 3018.0202,-767.0513 3023,-767.5 3023,-767.5 3023,-767.5 3018.0202,-767.0513 3023.4038,-763.0182 3013.0403,-766.6026 3013.0403,-766.6026"/>
<text text-anchor="start" x="3030.386" y="-777.5" font-family="Arial" font-size="10.00" fill="#000000">FOREIGN KEY (game_id) REFERENCES games (id)</text>
</g>
</g>
</svg>
