<?xml version="1.0" encoding="UTF-8" standalone="no"?>
<!DOCTYPE svg PUBLIC "-//W3C//DTD SVG 1.1//EN"
 "http://www.w3.org/Graphics/SVG/1.1/DTD/svg11.dtd">
<!-- Generated by graphviz version 2.40.1 (20161225.0304)
 -->
<!-- Title: game_version_game_file_relations Pages: 1 -->
<svg width="1044pt" height="592pt"
 viewBox="0.00 0.00 1044.00 592.00" xmlns="http://www.w3.org/2000/svg" xmlns:xlink="http://www.w3.org/1999/xlink">
<g id="graph0" class="graph" transform="scale(1 1) rotate(0) translate(4 588)">
<title>game_version_game_file_relations</title>
<polygon fill="#ffffff" stroke="transparent" points="-4,4 -4,-588 1040,-588 1040,4 -4,4"/>
<!-- game_version_game_file_relations -->
<g id="node1" class="node">
<title>game_version_game_file_relations</title>
<polygon fill="#efefef" stroke="transparent" points="342,-502.5 342,-537.5 732,-537.5 732,-502.5 342,-502.5"/>
<polygon fill="none" stroke="#000000" points="342,-502.5 342,-537.5 732,-537.5 732,-502.5 342,-502.5"/>
<text text-anchor="start" x="348.8452" y="-515.3" font-family="Arial Bold" font-size="18.00" fill="#000000">game_version_game_file_relations</text>
<text text-anchor="start" x="627.901" y="-515.3" font-family="Arial" font-size="14.00" fill="#000000"> </text>
<text text-anchor="start" x="631.7916" y="-515.3" font-family="Arial" font-size="14.00" fill="#666666">[BASE TABLE]</text>
<polygon fill="none" stroke="#000000" points="342,-472.5 342,-502.5 732,-502.5 732,-472.5 342,-472.5"/>
<text text-anchor="start" x="349" y="-483.9" font-family="Arial" font-size="14.00" fill="#000000">game_version_id </text>
<text text-anchor="start" x="459.4684" y="-483.9" font-family="Arial" font-size="14.00" fill="#666666">[varchar(36)]</text>
<polygon fill="none" stroke="#000000" points="342,-442.5 342,-472.5 732,-472.5 732,-442.5 342,-442.5"/>
<text text-anchor="start" x="349" y="-453.9" font-family="Arial" font-size="14.00" fill="#000000">game_file_id </text>
<text text-anchor="start" x="432.2398" y="-453.9" font-family="Arial" font-size="14.00" fill="#666666">[varchar(36)]</text>
<polygon fill="none" stroke="#000000" stroke-width="3" points="340.5,-441.5 340.5,-539.5 733.5,-539.5 733.5,-441.5 340.5,-441.5"/>
</g>
<!-- v2_game_versions -->
<g id="node2" class="node">
<title>v2_game_versions</title>
<polygon fill="#efefef" stroke="transparent" points="231,-282.5 231,-317.5 493,-317.5 493,-282.5 231,-282.5"/>
<polygon fill="none" stroke="#000000" points="231,-282.5 231,-317.5 493,-317.5 493,-282.5 231,-282.5"/>
<text text-anchor="start" x="237.8559" y="-295.3" font-family="Arial Bold" font-size="18.00" fill="#000000">v2_game_versions</text>
<text text-anchor="start" x="388.8903" y="-295.3" font-family="Arial" font-size="14.00" fill="#000000"> </text>
<text text-anchor="start" x="392.7809" y="-295.3" font-family="Arial" font-size="14.00" fill="#666666">[BASE TABLE]</text>
<polygon fill="none" stroke="#000000" points="231,-252.5 231,-282.5 493,-282.5 493,-252.5 231,-252.5"/>
<text text-anchor="start" x="238" y="-263.9" font-family="Arial" font-size="14.00" fill="#000000">id </text>
<text text-anchor="start" x="252.7798" y="-263.9" font-family="Arial" font-size="14.00" fill="#666666">[varchar(36)]</text>
<polygon fill="none" stroke="#000000" points="231,-222.5 231,-252.5 493,-252.5 493,-222.5 231,-222.5"/>
<text text-anchor="start" x="238" y="-233.9" font-family="Arial" font-size="14.00" fill="#000000">game_id </text>
<text text-anchor="start" x="295.5708" y="-233.9" font-family="Arial" font-size="14.00" fill="#666666">[varchar(36)]</text>
<polygon fill="none" stroke="#000000" points="231,-192.5 231,-222.5 493,-222.5 493,-192.5 231,-192.5"/>
<text text-anchor="start" x="238" y="-203.9" font-family="Arial" font-size="14.00" fill="#000000">game_image_id </text>
<text text-anchor="start" x="341.4684" y="-203.9" font-family="Arial" font-size="14.00" fill="#666666">[varchar(36)]</text>
<polygon fill="none" stroke="#000000" points="231,-162.5 231,-192.5 493,-192.5 493,-162.5 231,-162.5"/>
<text text-anchor="start" x="238" y="-173.9" font-family="Arial" font-size="14.00" fill="#000000">game_video_id </text>
<text text-anchor="start" x="336.8078" y="-173.9" font-family="Arial" font-size="14.00" fill="#666666">[varchar(36)]</text>
<polygon fill="none" stroke="#000000" points="231,-132.5 231,-162.5 493,-162.5 493,-132.5 231,-132.5"/>
<text text-anchor="start" x="238" y="-143.9" font-family="Arial" font-size="14.00" fill="#000000">name </text>
<text text-anchor="start" x="276.899" y="-143.9" font-family="Arial" font-size="14.00" fill="#666666">[varchar(32)]</text>
<polygon fill="none" stroke="#000000" points="231,-102.5 231,-132.5 493,-132.5 493,-102.5 231,-102.5"/>
<text text-anchor="start" x="238" y="-113.9" font-family="Arial" font-size="14.00" fill="#000000">description </text>
<text text-anchor="start" x="309.568" y="-113.9" font-family="Arial" font-size="14.00" fill="#666666">[text]</text>
<polygon fill="none" stroke="#000000" points="231,-72.5 231,-102.5 493,-102.5 493,-72.5 231,-72.5"/>
<text text-anchor="start" x="238" y="-83.9" font-family="Arial" font-size="14.00" fill="#000000">created_at </text>
<text text-anchor="start" x="308.028" y="-83.9" font-family="Arial" font-size="14.00" fill="#666666">[datetime]</text>
<polygon fill="none" stroke="#000000" points="231,-42.5 231,-72.5 493,-72.5 493,-42.5 231,-42.5"/>
<text text-anchor="start" x="238" y="-53.9" font-family="Arial" font-size="14.00" fill="#000000">url </text>
<text text-anchor="start" x="257.4404" y="-53.9" font-family="Arial" font-size="14.00" fill="#666666">[text]</text>
</g>
<!-- game_version_game_file_relations&#45;&gt;v2_game_versions -->
<g id="edge1" class="edge">
<title>game_version_game_file_relations:game_version_id&#45;&gt;v2_game_versions:id</title>
<path fill="none" stroke="#000000" d="M331.7618,-485.8943C304.8571,-476.2507 319.508,-425.4848 342,-397 384.7553,-342.8531 450.2447,-415.1469 493,-361 518.7525,-328.386 534.5556,-267.5 493,-267.5"/>
<polygon fill="#000000" stroke="#000000" points="332.1208,-485.9505 341.3027,-491.9457 337.0604,-486.7253 342,-487.5 342,-487.5 342,-487.5 337.0604,-486.7253 342.6973,-483.0543 332.1208,-485.9505 332.1208,-485.9505"/>
<text text-anchor="start" x="6.543" y="-497.5" font-family="Arial" font-size="10.00" fill="#000000">FOREIGN KEY (game_version_id) REFERENCES v2_game_versions (id)</text>
</g>
<!-- v2_game_files -->
<g id="node3" class="node">
<title>v2_game_files</title>
<polygon fill="#efefef" stroke="transparent" points="598,-252.5 598,-287.5 825,-287.5 825,-252.5 598,-252.5"/>
<polygon fill="none" stroke="#000000" points="598,-252.5 598,-287.5 825,-287.5 825,-252.5 598,-252.5"/>
<text text-anchor="start" x="604.86" y="-265.3" font-family="Arial Bold" font-size="18.00" fill="#000000">v2_game_files</text>
<text text-anchor="start" x="720.8862" y="-265.3" font-family="Arial" font-size="14.00" fill="#000000"> </text>
<text text-anchor="start" x="724.7768" y="-265.3" font-family="Arial" font-size="14.00" fill="#666666">[BASE TABLE]</text>
<polygon fill="none" stroke="#000000" points="598,-222.5 598,-252.5 825,-252.5 825,-222.5 598,-222.5"/>
<text text-anchor="start" x="605" y="-233.9" font-family="Arial" font-size="14.00" fill="#000000">id </text>
<text text-anchor="start" x="619.7798" y="-233.9" font-family="Arial" font-size="14.00" fill="#666666">[varchar(36)]</text>
<polygon fill="none" stroke="#000000" points="598,-192.5 598,-222.5 825,-222.5 825,-192.5 598,-192.5"/>
<text text-anchor="start" x="605" y="-203.9" font-family="Arial" font-size="14.00" fill="#000000">game_id </text>
<text text-anchor="start" x="662.5708" y="-203.9" font-family="Arial" font-size="14.00" fill="#666666">[varchar(36)]</text>
<polygon fill="none" stroke="#000000" points="598,-162.5 598,-192.5 825,-192.5 825,-162.5 598,-162.5"/>
<text text-anchor="start" x="605" y="-173.9" font-family="Arial" font-size="14.00" fill="#000000">file_type_id </text>
<text text-anchor="start" x="679.6872" y="-173.9" font-family="Arial" font-size="14.00" fill="#666666">[tinyint(4)]</text>
<polygon fill="none" stroke="#000000" points="598,-132.5 598,-162.5 825,-162.5 825,-132.5 598,-132.5"/>
<text text-anchor="start" x="605" y="-143.9" font-family="Arial" font-size="14.00" fill="#000000">hash </text>
<text text-anchor="start" x="639.2384" y="-143.9" font-family="Arial" font-size="14.00" fill="#666666">[char(32)]</text>
<polygon fill="none" stroke="#000000" points="598,-102.5 598,-132.5 825,-132.5 825,-102.5 598,-102.5"/>
<text text-anchor="start" x="605" y="-113.9" font-family="Arial" font-size="14.00" fill="#000000">entry_point </text>
<text text-anchor="start" x="678.1346" y="-113.9" font-family="Arial" font-size="14.00" fill="#666666">[text]</text>
<polygon fill="none" stroke="#000000" points="598,-72.5 598,-102.5 825,-102.5 825,-72.5 598,-72.5"/>
<text text-anchor="start" x="605" y="-83.9" font-family="Arial" font-size="14.00" fill="#000000">created_at </text>
<text text-anchor="start" x="675.028" y="-83.9" font-family="Arial" font-size="14.00" fill="#666666">[datetime]</text>
</g>
<!-- game_version_game_file_relations&#45;&gt;v2_game_files -->
<g id="edge2" class="edge">
<title>game_version_game_file_relations:game_file_id&#45;&gt;v2_game_files:id</title>
<path fill="none" stroke="#000000" d="M741.8509,-454.9413C754.888,-446.0906 743.9853,-416.2633 732,-397 696.9291,-340.6321 633.0709,-387.3679 598,-331 576.0472,-295.7163 556.4444,-237.5 598,-237.5"/>
<polygon fill="#000000" stroke="#000000" points="741.6788,-454.9859 730.8687,-453.1445 736.8394,-456.243 732,-457.5 732,-457.5 732,-457.5 736.8394,-456.243 733.1313,-461.8555 741.6788,-454.9859 741.6788,-454.9859"/>
<text text-anchor="start" x="738.992" y="-467.5" font-family="Arial" font-size="10.00" fill="#000000">FOREIGN KEY (game_file_id) REFERENCES v2_game_files (id)</text>
</g>
</g>
</svg>
