<?xml version="1.0" encoding="UTF-8" standalone="no"?>
<!DOCTYPE svg PUBLIC "-//W3C//DTD SVG 1.1//EN"
 "http://www.w3.org/Graphics/SVG/1.1/DTD/svg11.dtd">
<!-- Generated by graphviz version 2.40.1 (20161225.0304)
 -->
<!-- Title: game_creators Pages: 1 -->
<svg width="934pt" height="839pt"
 viewBox="0.00 0.00 934.00 839.00" xmlns="http://www.w3.org/2000/svg" xmlns:xlink="http://www.w3.org/1999/xlink">
<g id="graph0" class="graph" transform="scale(1 1) rotate(0) translate(4 835)">
<title>game_creators</title>
<polygon fill="#ffffff" stroke="transparent" points="-4,4 -4,-835 930,-835 930,4 -4,4"/>
<!-- game_creators -->
<g id="node1" class="node">
<title>game_creators</title>
<polygon fill="#efefef" stroke="transparent" points="364,-532.5 364,-567.5 595,-567.5 595,-532.5 364,-532.5"/>
<polygon fill="none" stroke="#000000" points="364,-532.5 364,-567.5 595,-567.5 595,-532.5 364,-532.5"/>
<text text-anchor="start" x="370.862" y="-545.3" font-family="Arial Bold" font-size="18.00" fill="#000000">game_creators</text>
<text text-anchor="start" x="490.8842" y="-545.3" font-family="Arial" font-size="14.00" fill="#000000"> </text>
<text text-anchor="start" x="494.7748" y="-545.3" font-family="Arial" font-size="14.00" fill="#666666">[BASE TABLE]</text>
<polygon fill="none" stroke="#000000" points="364,-502.5 364,-532.5 595,-532.5 595,-502.5 364,-502.5"/>
<text text-anchor="start" x="371" y="-513.9" font-family="Arial" font-size="14.00" fill="#000000">id </text>
<text text-anchor="start" x="385.7798" y="-513.9" font-family="Arial" font-size="14.00" fill="#666666">[varchar(36)]</text>
<polygon fill="none" stroke="#000000" points="364,-472.5 364,-502.5 595,-502.5 595,-472.5 364,-472.5"/>
<text text-anchor="start" x="371" y="-483.9" font-family="Arial" font-size="14.00" fill="#000000">game_id </text>
<text text-anchor="start" x="428.5708" y="-483.9" font-family="Arial" font-size="14.00" fill="#666666">[varchar(36)]</text>
<polygon fill="none" stroke="#000000" points="364,-442.5 364,-472.5 595,-472.5 595,-442.5 364,-442.5"/>
<text text-anchor="start" x="371" y="-453.9" font-family="Arial" font-size="14.00" fill="#000000">user_id </text>
<text text-anchor="start" x="420.7882" y="-453.9" font-family="Arial" font-size="14.00" fill="#666666">[varchar(36)]</text>
<polygon fill="none" stroke="#000000" points="364,-412.5 364,-442.5 595,-442.5 595,-412.5 364,-412.5"/>
<text text-anchor="start" x="371" y="-423.9" font-family="Arial" font-size="14.00" fill="#000000">user_name </text>
<text text-anchor="start" x="444.9074" y="-423.9" font-family="Arial" font-size="14.00" fill="#666666">[varchar(32)]</text>
<polygon fill="none" stroke="#000000" points="364,-382.5 364,-412.5 595,-412.5 595,-382.5 364,-382.5"/>
<text text-anchor="start" x="371" y="-393.9" font-family="Arial" font-size="14.00" fill="#000000">created_at </text>
<text text-anchor="start" x="441.028" y="-393.9" font-family="Arial" font-size="14.00" fill="#666666">[datetime]</text>
<polygon fill="none" stroke="#000000" stroke-width="3" points="362,-381.5 362,-569.5 596,-569.5 596,-381.5 362,-381.5"/>
</g>
<!-- games -->
<g id="node4" class="node">
<title>games</title>
<polygon fill="#efefef" stroke="transparent" points="390,-222.5 390,-257.5 570,-257.5 570,-222.5 390,-222.5"/>
<polygon fill="none" stroke="#000000" points="390,-222.5 390,-257.5 570,-257.5 570,-222.5 390,-222.5"/>
<text text-anchor="start" x="404.3677" y="-235.3" font-family="Arial Bold" font-size="18.00" fill="#000000">games</text>
<text text-anchor="start" x="458.3785" y="-235.3" font-family="Arial" font-size="14.00" fill="#000000"> </text>
<text text-anchor="start" x="462.2691" y="-235.3" font-family="Arial" font-size="14.00" fill="#666666">[BASE TABLE]</text>
<polygon fill="none" stroke="#000000" points="390,-192.5 390,-222.5 570,-222.5 570,-192.5 390,-192.5"/>
<text text-anchor="start" x="397" y="-203.9" font-family="Arial" font-size="14.00" fill="#000000">id </text>
<text text-anchor="start" x="411.7798" y="-203.9" font-family="Arial" font-size="14.00" fill="#666666">[varchar(36)]</text>
<polygon fill="none" stroke="#000000" points="390,-162.5 390,-192.5 570,-192.5 570,-162.5 390,-162.5"/>
<text text-anchor="start" x="397" y="-173.9" font-family="Arial" font-size="14.00" fill="#000000">name </text>
<text text-anchor="start" x="435.899" y="-173.9" font-family="Arial" font-size="14.00" fill="#666666">[varchar(256)]</text>
<polygon fill="none" stroke="#000000" points="390,-132.5 390,-162.5 570,-162.5 570,-132.5 390,-132.5"/>
<text text-anchor="start" x="397" y="-143.9" font-family="Arial" font-size="14.00" fill="#000000">description </text>
<text text-anchor="start" x="468.568" y="-143.9" font-family="Arial" font-size="14.00" fill="#666666">[text]</text>
<polygon fill="none" stroke="#000000" points="390,-102.5 390,-132.5 570,-132.5 570,-102.5 390,-102.5"/>
<text text-anchor="start" x="397" y="-113.9" font-family="Arial" font-size="14.00" fill="#000000">created_at </text>
<text text-anchor="start" x="467.028" y="-113.9" font-family="Arial" font-size="14.00" fill="#666666">[datetime]</text>
<polygon fill="none" stroke="#000000" points="390,-72.5 390,-102.5 570,-102.5 570,-72.5 390,-72.5"/>
<text text-anchor="start" x="397" y="-83.9" font-family="Arial" font-size="14.00" fill="#000000">deleted_at </text>
<text text-anchor="start" x="466.2566" y="-83.9" font-family="Arial" font-size="14.00" fill="#666666">[datetime]</text>
<polygon fill="none" stroke="#000000" points="390,-42.5 390,-72.5 570,-72.5 570,-42.5 390,-42.5"/>
<text text-anchor="start" x="396.7742" y="-53.9" font-family="Arial" font-size="14.00" fill="#000000">visibility_type_id </text>
<text text-anchor="start" x="501.7812" y="-53.9" font-family="Arial" font-size="14.00" fill="#666666">[tinyint(4)]</text>
</g>
<!-- game_creators&#45;&gt;games -->
<g id="edge3" class="edge">
<title>game_creators:game_id&#45;&gt;games:id</title>
<path fill="none" stroke="#000000" d="M605.1713,-486.6334C659.2202,-476.7855 635.6609,-385.4235 595,-337 535.5141,-266.1575 449.4859,-371.8425 390,-301 363.2775,-269.1759 348.4444,-207.5 390,-207.5"/>
<polygon fill="#000000" stroke="#000000" points="604.9639,-486.651 594.6179,-483.0162 599.9819,-487.0755 595,-487.5 595,-487.5 595,-487.5 599.9819,-487.0755 595.3821,-491.9838 604.9639,-486.651 604.9639,-486.651"/>
<text text-anchor="start" x="602.386" y="-497.5" font-family="Arial" font-size="10.00" fill="#000000">FOREIGN KEY (game_id) REFERENCES games (id)</text>
</g>
<!-- game_creator_custom_job_relations -->
<g id="node2" class="node">
<title>game_creator_custom_job_relations</title>
<polygon fill="#efefef" stroke="transparent" points="43,-752.5 43,-787.5 445,-787.5 445,-752.5 43,-752.5"/>
<polygon fill="none" stroke="#000000" points="43,-752.5 43,-787.5 445,-787.5 445,-752.5 43,-752.5"/>
<text text-anchor="start" x="49.8422" y="-765.3" font-family="Arial Bold" font-size="18.00" fill="#000000">game_creator_custom_job_relations</text>
<text text-anchor="start" x="340.904" y="-765.3" font-family="Arial" font-size="14.00" fill="#000000"> </text>
<text text-anchor="start" x="344.7946" y="-765.3" font-family="Arial" font-size="14.00" fill="#666666">[BASE TABLE]</text>
<polygon fill="none" stroke="#000000" points="43,-722.5 43,-752.5 445,-752.5 445,-722.5 43,-722.5"/>
<text text-anchor="start" x="50" y="-733.9" font-family="Arial" font-size="14.00" fill="#000000">game_creator_id </text>
<text text-anchor="start" x="158.913" y="-733.9" font-family="Arial" font-size="14.00" fill="#666666">[varchar(36)]</text>
<polygon fill="none" stroke="#000000" points="43,-692.5 43,-722.5 445,-722.5 445,-692.5 43,-692.5"/>
<text text-anchor="start" x="50" y="-703.9" font-family="Arial" font-size="14.00" fill="#000000">custom_job_id </text>
<text text-anchor="start" x="144.1332" y="-703.9" font-family="Arial" font-size="14.00" fill="#666666">[varchar(36)]</text>
</g>
<!-- game_creator_custom_job_relations&#45;&gt;game_creators -->
<g id="edge1" class="edge">
<title>game_creator_custom_job_relations:game_creator_id&#45;&gt;game_creators:id</title>
<path fill="none" stroke="#000000" d="M455.1535,-735.8822C480.258,-726.5799 464.0389,-679.2963 445,-650 423.5329,-616.9672 385.4671,-647.0328 364,-614 340.6293,-578.038 321.1111,-517.5 364,-517.5"/>
<polygon fill="#000000" stroke="#000000" points="454.8754,-735.9265 444.2919,-733.0561 449.9377,-736.7132 445,-737.5 445,-737.5 445,-737.5 449.9377,-736.7132 445.7081,-741.9439 454.8754,-735.9265 454.8754,-735.9265"/>
<text text-anchor="start" x="451.713" y="-747.5" font-family="Arial" font-size="10.00" fill="#000000">FOREIGN KEY (game_creator_id) REFERENCES game_creators (id)</text>
</g>
<!-- game_creator_job_relations -->
<g id="node3" class="node">
<title>game_creator_job_relations</title>
<polygon fill="#efefef" stroke="transparent" points="549,-752.5 549,-787.5 883,-787.5 883,-752.5 549,-752.5"/>
<polygon fill="none" stroke="#000000" points="549,-752.5 549,-787.5 883,-787.5 883,-752.5 549,-752.5"/>
<text text-anchor="start" x="555.8487" y="-765.3" font-family="Arial Bold" font-size="18.00" fill="#000000">game_creator_job_relations</text>
<text text-anchor="start" x="778.8975" y="-765.3" font-family="Arial" font-size="14.00" fill="#000000"> </text>
<text text-anchor="start" x="782.7881" y="-765.3" font-family="Arial" font-size="14.00" fill="#666666">[BASE TABLE]</text>
<polygon fill="none" stroke="#000000" points="549,-722.5 549,-752.5 883,-752.5 883,-722.5 549,-722.5"/>
<text text-anchor="start" x="556" y="-733.9" font-family="Arial" font-size="14.00" fill="#000000">game_creator_id </text>
<text text-anchor="start" x="664.913" y="-733.9" font-family="Arial" font-size="14.00" fill="#666666">[varchar(36)]</text>
<polygon fill="none" stroke="#000000" points="549,-692.5 549,-722.5 883,-722.5 883,-692.5 549,-692.5"/>
<text text-anchor="start" x="556" y="-703.9" font-family="Arial" font-size="14.00" fill="#000000">job_id </text>
<text text-anchor="start" x="597.2342" y="-703.9" font-family="Arial" font-size="14.00" fill="#666666">[varchar(36)]</text>
</g>
<!-- game_creator_job_relations&#45;&gt;game_creators -->
<g id="edge2" class="edge">
<title>game_creator_job_relations:game_creator_id&#45;&gt;game_creators:id</title>
<path fill="none" stroke="#000000" d="M538.9621,-735.9476C514.5008,-727.0092 533.6965,-681.4095 549,-650 560.371,-626.6617 583.629,-637.3383 595,-614 613.7854,-575.444 637.8889,-517.5 595,-517.5"/>
<polygon fill="#000000" stroke="#000000" points="539.1175,-735.9716 548.3122,-741.9471 544.0587,-736.7358 549,-737.5 549,-737.5 549,-737.5 544.0587,-736.7358 549.6878,-733.0529 539.1175,-735.9716 539.1175,-735.9716"/>
<text text-anchor="start" x="555.713" y="-721.5" font-family="Arial" font-size="10.00" fill="#000000">FOREIGN KEY (game_creator_id) REFERENCES game_creators (id)</text>
</g>
</g>
</svg>
