<?xml version="1.0" encoding="UTF-8" standalone="no"?>
<!DOCTYPE svg PUBLIC "-//W3C//DTD SVG 1.1//EN"
 "http://www.w3.org/Graphics/SVG/1.1/DTD/svg11.dtd">
<!-- Generated by graphviz version 2.40.1 (20161225.0304)
 -->
<!-- Title: game_visibility_types Pages: 1 -->
<svg width="543pt" height="562pt"
 viewBox="0.00 0.00 542.50 562.00" xmlns="http://www.w3.org/2000/svg" xmlns:xlink="http://www.w3.org/1999/xlink">
<g id="graph0" class="graph" transform="scale(1 1) rotate(0) translate(4 558)">
<title>game_visibility_types</title>
<polygon fill="#ffffff" stroke="transparent" points="-4,4 -4,-558 538.5,-558 538.5,4 -4,4"/>
<!-- game_visibility_types -->
<g id="node1" class="node">
<title>game_visibility_types</title>
<polygon fill="#efefef" stroke="transparent" points="208,-135.5 208,-170.5 489,-170.5 489,-135.5 208,-135.5"/>
<polygon fill="none" stroke="#000000" points="208,-135.5 208,-170.5 489,-170.5 489,-135.5 208,-135.5"/>
<text text-anchor="start" x="214.8645" y="-148.3" font-family="Arial Bold" font-size="18.00" fill="#000000">game_visibility_types</text>
<text text-anchor="start" x="384.8817" y="-148.3" font-family="Arial" font-size="14.00" fill="#000000"> </text>
<text text-anchor="start" x="388.7723" y="-148.3" font-family="Arial" font-size="14.00" fill="#666666">[BASE TABLE]</text>
<polygon fill="none" stroke="#000000" points="208,-105.5 208,-135.5 489,-135.5 489,-105.5 208,-105.5"/>
<text text-anchor="start" x="215" y="-116.9" font-family="Arial" font-size="14.00" fill="#000000">id </text>
<text text-anchor="start" x="229.7798" y="-116.9" font-family="Arial" font-size="14.00" fill="#666666">[tinyint(4)]</text>
<polygon fill="none" stroke="#000000" points="208,-75.5 208,-105.5 489,-105.5 489,-75.5 208,-75.5"/>
<text text-anchor="start" x="215" y="-86.9" font-family="Arial" font-size="14.00" fill="#000000">name </text>
<text text-anchor="start" x="253.899" y="-86.9" font-family="Arial" font-size="14.00" fill="#666666">[varchar(32)]</text>
<polygon fill="none" stroke="#000000" points="208,-45.5 208,-75.5 489,-75.5 489,-45.5 208,-45.5"/>
<text text-anchor="start" x="215" y="-56.9" font-family="Arial" font-size="14.00" fill="#000000">created_at </text>
<text text-anchor="start" x="285.028" y="-56.9" font-family="Arial" font-size="14.00" fill="#666666">[datetime]</text>
<polygon fill="none" stroke="#000000" stroke-width="3" points="206,-44.5 206,-172.5 490,-172.5 490,-44.5 206,-44.5"/>
</g>
<!-- games -->
<g id="node2" class="node">
<title>games</title>
<polygon fill="#efefef" stroke="transparent" points="259,-475.5 259,-510.5 439,-510.5 439,-475.5 259,-475.5"/>
<polygon fill="none" stroke="#000000" points="259,-475.5 259,-510.5 439,-510.5 439,-475.5 259,-475.5"/>
<text text-anchor="start" x="273.3677" y="-488.3" font-family="Arial Bold" font-size="18.00" fill="#000000">games</text>
<text text-anchor="start" x="327.3785" y="-488.3" font-family="Arial" font-size="14.00" fill="#000000"> </text>
<text text-anchor="start" x="331.2691" y="-488.3" font-family="Arial" font-size="14.00" fill="#666666">[BASE TABLE]</text>
<polygon fill="none" stroke="#000000" points="259,-445.5 259,-475.5 439,-475.5 439,-445.5 259,-445.5"/>
<text text-anchor="start" x="266" y="-456.9" font-family="Arial" font-size="14.00" fill="#000000">id </text>
<text text-anchor="start" x="280.7798" y="-456.9" font-family="Arial" font-size="14.00" fill="#666666">[varchar(36)]</text>
<polygon fill="none" stroke="#000000" points="259,-415.5 259,-445.5 439,-445.5 439,-415.5 259,-415.5"/>
<text text-anchor="start" x="266" y="-426.9" font-family="Arial" font-size="14.00" fill="#000000">name </text>
<text text-anchor="start" x="304.899" y="-426.9" font-family="Arial" font-size="14.00" fill="#666666">[varchar(256)]</text>
<polygon fill="none" stroke="#000000" points="259,-385.5 259,-415.5 439,-415.5 439,-385.5 259,-385.5"/>
<text text-anchor="start" x="266" y="-396.9" font-family="Arial" font-size="14.00" fill="#000000">description </text>
<text text-anchor="start" x="337.568" y="-396.9" font-family="Arial" font-size="14.00" fill="#666666">[text]</text>
<polygon fill="none" stroke="#000000" points="259,-355.5 259,-385.5 439,-385.5 439,-355.5 259,-355.5"/>
<text text-anchor="start" x="266" y="-366.9" font-family="Arial" font-size="14.00" fill="#000000">created_at </text>
<text text-anchor="start" x="336.028" y="-366.9" font-family="Arial" font-size="14.00" fill="#666666">[datetime]</text>
<polygon fill="none" stroke="#000000" points="259,-325.5 259,-355.5 439,-355.5 439,-325.5 259,-325.5"/>
<text text-anchor="start" x="266" y="-336.9" font-family="Arial" font-size="14.00" fill="#000000">deleted_at </text>
<text text-anchor="start" x="335.2566" y="-336.9" font-family="Arial" font-size="14.00" fill="#666666">[datetime]</text>
<polygon fill="none" stroke="#000000" points="259,-295.5 259,-325.5 439,-325.5 439,-295.5 259,-295.5"/>
<text text-anchor="start" x="265.7742" y="-306.9" font-family="Arial" font-size="14.00" fill="#000000">visibility_type_id </text>
<text text-anchor="start" x="370.7812" y="-306.9" font-family="Arial" font-size="14.00" fill="#666666">[tinyint(4)]</text>
</g>
<!-- games&#45;&gt;game_visibility_types -->
<g id="edge1" class="edge">
<title>games:visibility_type_id&#45;&gt;game_visibility_types:id</title>
<path fill="none" stroke="#000000" d="M349.842,-285.2279C359.7741,-229.5779 454.8458,-275.3076 489,-217 510.6774,-179.9926 531.8889,-120.5 489,-120.5"/>
<polygon fill="#000000" stroke="#000000" points="349.817,-285.5334 344.515,-295.1323 349.4085,-290.5167 349,-295.5 349,-295.5 349,-295.5 349.4085,-290.5167 353.485,-295.8677 349.817,-285.5334 349.817,-285.5334"/>
<text text-anchor="start" x="7.2205" y="-305.5" font-family="Arial" font-size="10.00" fill="#000000">FOREIGN KEY (visibility_type_id) REFERENCES game_visibility_types (id)</text>
</g>
</g>
</svg>
