<?xml version="1.0" encoding="UTF-8" standalone="no"?>
<!DOCTYPE svg PUBLIC "-//W3C//DTD SVG 1.1//EN"
 "http://www.w3.org/Graphics/SVG/1.1/DTD/svg11.dtd">
<!-- Generated by graphviz version 2.40.1 (20161225.0304)
 -->
<!-- Title: game_play_logs Pages: 1 -->
<svg width="918pt" height="802pt"
 viewBox="0.00 0.00 917.50 802.00" xmlns="http://www.w3.org/2000/svg" xmlns:xlink="http://www.w3.org/1999/xlink">
<g id="graph0" class="graph" transform="scale(1 1) rotate(0) translate(4 798)">
<title>game_play_logs</title>
<polygon fill="#ffffff" stroke="transparent" points="-4,4 -4,-798 913.5,-798 913.5,4 -4,4"/>
<!-- game_play_logs -->
<g id="node1" class="node">
<title>game_play_logs</title>
<polygon fill="#efefef" stroke="transparent" points="289.5,-712.5 289.5,-747.5 531.5,-747.5 531.5,-712.5 289.5,-712.5"/>
<polygon fill="none" stroke="#000000" points="289.5,-712.5 289.5,-747.5 531.5,-747.5 531.5,-712.5 289.5,-712.5"/>
<text text-anchor="start" x="296.3549" y="-725.3" font-family="Arial Bold" font-size="18.00" fill="#000000">game_play_logs</text>
<text text-anchor="start" x="427.3913" y="-725.3" font-family="Arial" font-size="14.00" fill="#000000"> </text>
<text text-anchor="start" x="431.2819" y="-725.3" font-family="Arial" font-size="14.00" fill="#666666">[BASE TABLE]</text>
<polygon fill="none" stroke="#000000" points="289.5,-682.5 289.5,-712.5 531.5,-712.5 531.5,-682.5 289.5,-682.5"/>
<text text-anchor="start" x="296.5" y="-693.9" font-family="Arial" font-size="14.00" fill="#000000">id </text>
<text text-anchor="start" x="311.2798" y="-693.9" font-family="Arial" font-size="14.00" fill="#666666">[varchar(36)]</text>
<polygon fill="none" stroke="#000000" points="289.5,-652.5 289.5,-682.5 531.5,-682.5 531.5,-652.5 289.5,-652.5"/>
<text text-anchor="start" x="296.5" y="-663.9" font-family="Arial" font-size="14.00" fill="#000000">edition_id </text>
<text text-anchor="start" x="360.2966" y="-663.9" font-family="Arial" font-size="14.00" fill="#666666">[varchar(36)]</text>
<polygon fill="none" stroke="#000000" points="289.5,-622.5 289.5,-652.5 531.5,-652.5 531.5,-622.5 289.5,-622.5"/>
<text text-anchor="start" x="296.5" y="-633.9" font-family="Arial" font-size="14.00" fill="#000000">game_id </text>
<text text-anchor="start" x="354.0708" y="-633.9" font-family="Arial" font-size="14.00" fill="#666666">[varchar(36)]</text>
<polygon fill="none" stroke="#000000" points="289.5,-592.5 289.5,-622.5 531.5,-622.5 531.5,-592.5 289.5,-592.5"/>
<text text-anchor="start" x="296.5" y="-603.9" font-family="Arial" font-size="14.00" fill="#000000">game_version_id </text>
<text text-anchor="start" x="406.9684" y="-603.9" font-family="Arial" font-size="14.00" fill="#666666">[varchar(36)]</text>
<polygon fill="none" stroke="#000000" points="289.5,-562.5 289.5,-592.5 531.5,-592.5 531.5,-562.5 289.5,-562.5"/>
<text text-anchor="start" x="296.5" y="-573.9" font-family="Arial" font-size="14.00" fill="#000000">start_time </text>
<text text-anchor="start" x="361.838" y="-573.9" font-family="Arial" font-size="14.00" fill="#666666">[datetime]</text>
<polygon fill="none" stroke="#000000" points="289.5,-532.5 289.5,-562.5 531.5,-562.5 531.5,-532.5 289.5,-532.5"/>
<text text-anchor="start" x="296.5" y="-543.9" font-family="Arial" font-size="14.00" fill="#000000">end_time </text>
<text text-anchor="start" x="357.9614" y="-543.9" font-family="Arial" font-size="14.00" fill="#666666">[datetime]</text>
<polygon fill="none" stroke="#000000" points="289.5,-502.5 289.5,-532.5 531.5,-532.5 531.5,-502.5 289.5,-502.5"/>
<text text-anchor="start" x="296.5" y="-513.9" font-family="Arial" font-size="14.00" fill="#000000">created_at </text>
<text text-anchor="start" x="366.528" y="-513.9" font-family="Arial" font-size="14.00" fill="#666666">[datetime]</text>
<polygon fill="none" stroke="#000000" points="289.5,-472.5 289.5,-502.5 531.5,-502.5 531.5,-472.5 289.5,-472.5"/>
<text text-anchor="start" x="296.5" y="-483.9" font-family="Arial" font-size="14.00" fill="#000000">updated_at </text>
<text text-anchor="start" x="370.4326" y="-483.9" font-family="Arial" font-size="14.00" fill="#666666">[datetime]</text>
<polygon fill="none" stroke="#000000" points="289.5,-442.5 289.5,-472.5 531.5,-472.5 531.5,-442.5 289.5,-442.5"/>
<text text-anchor="start" x="296.5" y="-453.9" font-family="Arial" font-size="14.00" fill="#000000">deleted_at </text>
<text text-anchor="start" x="365.7566" y="-453.9" font-family="Arial" font-size="14.00" fill="#666666">[datetime]</text>
<polygon fill="none" stroke="#000000" stroke-width="3" points="288,-441.5 288,-749.5 533,-749.5 533,-441.5 288,-441.5"/>
</g>
<!-- editions -->
<g id="node2" class="node">
<title>editions</title>
<polygon fill="#efefef" stroke="transparent" points="43.5,-237.5 43.5,-272.5 216.5,-272.5 216.5,-237.5 43.5,-237.5"/>
<polygon fill="none" stroke="#000000" points="43.5,-237.5 43.5,-272.5 216.5,-272.5 216.5,-237.5 43.5,-237.5"/>
<text text-anchor="start" x="50.3654" y="-250.3" font-family="Arial Bold" font-size="18.00" fill="#000000">editions</text>
<text text-anchor="start" x="112.3808" y="-250.3" font-family="Arial" font-size="14.00" fill="#000000"> </text>
<text text-anchor="start" x="116.2714" y="-250.3" font-family="Arial" font-size="14.00" fill="#666666">[BASE TABLE]</text>
<polygon fill="none" stroke="#000000" points="43.5,-207.5 43.5,-237.5 216.5,-237.5 216.5,-207.5 43.5,-207.5"/>
<text text-anchor="start" x="50.5" y="-218.9" font-family="Arial" font-size="14.00" fill="#000000">id </text>
<text text-anchor="start" x="65.2798" y="-218.9" font-family="Arial" font-size="14.00" fill="#666666">[varchar(36)]</text>
<polygon fill="none" stroke="#000000" points="43.5,-177.5 43.5,-207.5 216.5,-207.5 216.5,-177.5 43.5,-177.5"/>
<text text-anchor="start" x="50.5" y="-188.9" font-family="Arial" font-size="14.00" fill="#000000">name </text>
<text text-anchor="start" x="89.399" y="-188.9" font-family="Arial" font-size="14.00" fill="#666666">[varchar(32)]</text>
<polygon fill="none" stroke="#000000" points="43.5,-147.5 43.5,-177.5 216.5,-177.5 216.5,-147.5 43.5,-147.5"/>
<text text-anchor="start" x="50.5" y="-158.9" font-family="Arial" font-size="14.00" fill="#000000">questionnaire_url </text>
<text text-anchor="start" x="161.7482" y="-158.9" font-family="Arial" font-size="14.00" fill="#666666">[text]</text>
<polygon fill="none" stroke="#000000" points="43.5,-117.5 43.5,-147.5 216.5,-147.5 216.5,-117.5 43.5,-117.5"/>
<text text-anchor="start" x="50.5" y="-128.9" font-family="Arial" font-size="14.00" fill="#000000">created_at </text>
<text text-anchor="start" x="120.528" y="-128.9" font-family="Arial" font-size="14.00" fill="#666666">[datetime]</text>
<polygon fill="none" stroke="#000000" points="43.5,-87.5 43.5,-117.5 216.5,-117.5 216.5,-87.5 43.5,-87.5"/>
<text text-anchor="start" x="50.5" y="-98.9" font-family="Arial" font-size="14.00" fill="#000000">deleted_at </text>
<text text-anchor="start" x="119.7566" y="-98.9" font-family="Arial" font-size="14.00" fill="#666666">[datetime]</text>
</g>
<!-- game_play_logs&#45;&gt;editions -->
<g id="edge1" class="edge">
<title>game_play_logs:edition_id&#45;&gt;editions:id</title>
<path fill="none" stroke="#000000" d="M279.2609,-665.707C198.4329,-635.0855 312.9919,-222.5 216.5,-222.5"/>
<polygon fill="#000000" stroke="#000000" points="279.6499,-665.7751 288.7238,-671.9326 284.5749,-666.6375 289.5,-667.5 289.5,-667.5 289.5,-667.5 284.5749,-666.6375 290.2762,-663.0674 279.6499,-665.7751 279.6499,-665.7751"/>
<text text-anchor="start" x="36.439" y="-677.5" font-family="Arial" font-size="10.00" fill="#000000">FOREIGN KEY (edition_id) REFERENCES editions (id)</text>
</g>
<!-- games -->
<g id="node3" class="node">
<title>games</title>
<polygon fill="#efefef" stroke="transparent" points="320.5,-252.5 320.5,-287.5 500.5,-287.5 500.5,-252.5 320.5,-252.5"/>
<polygon fill="none" stroke="#000000" points="320.5,-252.5 320.5,-287.5 500.5,-287.5 500.5,-252.5 320.5,-252.5"/>
<text text-anchor="start" x="334.8677" y="-265.3" font-family="Arial Bold" font-size="18.00" fill="#000000">games</text>
<text text-anchor="start" x="388.8785" y="-265.3" font-family="Arial" font-size="14.00" fill="#000000"> </text>
<text text-anchor="start" x="392.7691" y="-265.3" font-family="Arial" font-size="14.00" fill="#666666">[BASE TABLE]</text>
<polygon fill="none" stroke="#000000" points="320.5,-222.5 320.5,-252.5 500.5,-252.5 500.5,-222.5 320.5,-222.5"/>
<text text-anchor="start" x="327.5" y="-233.9" font-family="Arial" font-size="14.00" fill="#000000">id </text>
<text text-anchor="start" x="342.2798" y="-233.9" font-family="Arial" font-size="14.00" fill="#666666">[varchar(36)]</text>
<polygon fill="none" stroke="#000000" points="320.5,-192.5 320.5,-222.5 500.5,-222.5 500.5,-192.5 320.5,-192.5"/>
<text text-anchor="start" x="327.5" y="-203.9" font-family="Arial" font-size="14.00" fill="#000000">name </text>
<text text-anchor="start" x="366.399" y="-203.9" font-family="Arial" font-size="14.00" fill="#666666">[varchar(256)]</text>
<polygon fill="none" stroke="#000000" points="320.5,-162.5 320.5,-192.5 500.5,-192.5 500.5,-162.5 320.5,-162.5"/>
<text text-anchor="start" x="327.5" y="-173.9" font-family="Arial" font-size="14.00" fill="#000000">description </text>
<text text-anchor="start" x="399.068" y="-173.9" font-family="Arial" font-size="14.00" fill="#666666">[text]</text>
<polygon fill="none" stroke="#000000" points="320.5,-132.5 320.5,-162.5 500.5,-162.5 500.5,-132.5 320.5,-132.5"/>
<text text-anchor="start" x="327.5" y="-143.9" font-family="Arial" font-size="14.00" fill="#000000">created_at </text>
<text text-anchor="start" x="397.528" y="-143.9" font-family="Arial" font-size="14.00" fill="#666666">[datetime]</text>
<polygon fill="none" stroke="#000000" points="320.5,-102.5 320.5,-132.5 500.5,-132.5 500.5,-102.5 320.5,-102.5"/>
<text text-anchor="start" x="327.5" y="-113.9" font-family="Arial" font-size="14.00" fill="#000000">deleted_at </text>
<text text-anchor="start" x="396.7566" y="-113.9" font-family="Arial" font-size="14.00" fill="#666666">[datetime]</text>
<polygon fill="none" stroke="#000000" points="320.5,-72.5 320.5,-102.5 500.5,-102.5 500.5,-72.5 320.5,-72.5"/>
<text text-anchor="start" x="327.2742" y="-83.9" font-family="Arial" font-size="14.00" fill="#000000">visibility_type_id </text>
<text text-anchor="start" x="432.2812" y="-83.9" font-family="Arial" font-size="14.00" fill="#666666">[tinyint(4)]</text>
</g>
<!-- game_play_logs&#45;&gt;games -->
<g id="edge2" class="edge">
<title>game_play_logs:game_id&#45;&gt;games:id</title>
<path fill="none" stroke="#000000" d="M539.8037,-631.8455C571.6512,-583.2275 541.9433,-237.5 500.5,-237.5"/>
<polygon fill="#000000" stroke="#000000" points="539.7656,-631.8714 528.9671,-633.7805 535.6328,-634.6857 531.5,-637.5 531.5,-637.5 531.5,-637.5 535.6328,-634.6857 534.0329,-641.2195 539.7656,-631.8714 539.7656,-631.8714"/>
<text text-anchor="start" x="538.886" y="-647.5" font-family="Arial" font-size="10.00" fill="#000000">FOREIGN KEY (game_id) REFERENCES games (id)</text>
</g>
<!-- v2_game_versions -->
<g id="node4" class="node">
<title>v2_game_versions</title>
<polygon fill="#efefef" stroke="transparent" points="604.5,-282.5 604.5,-317.5 866.5,-317.5 866.5,-282.5 604.5,-282.5"/>
<polygon fill="none" stroke="#000000" points="604.5,-282.5 604.5,-317.5 866.5,-317.5 866.5,-282.5 604.5,-282.5"/>
<text text-anchor="start" x="611.3559" y="-295.3" font-family="Arial Bold" font-size="18.00" fill="#000000">v2_game_versions</text>
<text text-anchor="start" x="762.3903" y="-295.3" font-family="Arial" font-size="14.00" fill="#000000"> </text>
<text text-anchor="start" x="766.2809" y="-295.3" font-family="Arial" font-size="14.00" fill="#666666">[BASE TABLE]</text>
<polygon fill="none" stroke="#000000" points="604.5,-252.5 604.5,-282.5 866.5,-282.5 866.5,-252.5 604.5,-252.5"/>
<text text-anchor="start" x="611.5" y="-263.9" font-family="Arial" font-size="14.00" fill="#000000">id </text>
<text text-anchor="start" x="626.2798" y="-263.9" font-family="Arial" font-size="14.00" fill="#666666">[varchar(36)]</text>
<polygon fill="none" stroke="#000000" points="604.5,-222.5 604.5,-252.5 866.5,-252.5 866.5,-222.5 604.5,-222.5"/>
<text text-anchor="start" x="611.5" y="-233.9" font-family="Arial" font-size="14.00" fill="#000000">game_id </text>
<text text-anchor="start" x="669.0708" y="-233.9" font-family="Arial" font-size="14.00" fill="#666666">[varchar(36)]</text>
<polygon fill="none" stroke="#000000" points="604.5,-192.5 604.5,-222.5 866.5,-222.5 866.5,-192.5 604.5,-192.5"/>
<text text-anchor="start" x="611.5" y="-203.9" font-family="Arial" font-size="14.00" fill="#000000">game_image_id </text>
<text text-anchor="start" x="714.9684" y="-203.9" font-family="Arial" font-size="14.00" fill="#666666">[varchar(36)]</text>
<polygon fill="none" stroke="#000000" points="604.5,-162.5 604.5,-192.5 866.5,-192.5 866.5,-162.5 604.5,-162.5"/>
<text text-anchor="start" x="611.5" y="-173.9" font-family="Arial" font-size="14.00" fill="#000000">game_video_id </text>
<text text-anchor="start" x="710.3078" y="-173.9" font-family="Arial" font-size="14.00" fill="#666666">[varchar(36)]</text>
<polygon fill="none" stroke="#000000" points="604.5,-132.5 604.5,-162.5 866.5,-162.5 866.5,-132.5 604.5,-132.5"/>
<text text-anchor="start" x="611.5" y="-143.9" font-family="Arial" font-size="14.00" fill="#000000">name </text>
<text text-anchor="start" x="650.399" y="-143.9" font-family="Arial" font-size="14.00" fill="#666666">[varchar(32)]</text>
<polygon fill="none" stroke="#000000" points="604.5,-102.5 604.5,-132.5 866.5,-132.5 866.5,-102.5 604.5,-102.5"/>
<text text-anchor="start" x="611.5" y="-113.9" font-family="Arial" font-size="14.00" fill="#000000">description </text>
<text text-anchor="start" x="683.068" y="-113.9" font-family="Arial" font-size="14.00" fill="#666666">[text]</text>
<polygon fill="none" stroke="#000000" points="604.5,-72.5 604.5,-102.5 866.5,-102.5 866.5,-72.5 604.5,-72.5"/>
<text text-anchor="start" x="611.5" y="-83.9" font-family="Arial" font-size="14.00" fill="#000000">created_at </text>
<text text-anchor="start" x="681.528" y="-83.9" font-family="Arial" font-size="14.00" fill="#666666">[datetime]</text>
<polygon fill="none" stroke="#000000" points="604.5,-42.5 604.5,-72.5 866.5,-72.5 866.5,-42.5 604.5,-42.5"/>
<text text-anchor="start" x="611.5" y="-53.9" font-family="Arial" font-size="14.00" fill="#000000">url </text>
<text text-anchor="start" x="630.9404" y="-53.9" font-family="Arial" font-size="14.00" fill="#666666">[text]</text>
</g>
<!-- game_play_logs&#45;&gt;v2_game_versions -->
<g id="edge3" class="edge">
<title>game_play_logs:game_version_id&#45;&gt;v2_game_versions:id</title>
<path fill="none" stroke="#000000" d="M541.3529,-605.3288C601.4807,-576.3721 530.8449,-267.5 604.5,-267.5"/>
<polygon fill="#000000" stroke="#000000" points="541.2657,-605.348 530.5316,-603.1054 536.3829,-606.424 531.5,-607.5 531.5,-607.5 531.5,-607.5 536.3829,-606.424 532.4684,-611.8946 541.2657,-605.348 541.2657,-605.348"/>
<text text-anchor="start" x="538.043" y="-617.5" font-family="Arial" font-size="10.00" fill="#000000">FOREIGN KEY (game_version_id) REFERENCES v2_game_versions (id)</text>
</g>
</g>
</svg>
