<?xml version="1.0" encoding="UTF-8" standalone="no"?>
<!DOCTYPE svg PUBLIC "-//W3C//DTD SVG 1.1//EN"
 "http://www.w3.org/Graphics/SVG/1.1/DTD/svg11.dtd">
<!-- Generated by graphviz version 12.1.2 (20240928.0832)
 -->
<!-- Title: game_version_game_file_relations Pages: 1 -->
<svg width="1048pt" height="602pt"
 viewBox="0.00 0.00 1048.50 602.00" xmlns="http://www.w3.org/2000/svg" xmlns:xlink="http://www.w3.org/1999/xlink">
<g id="graph0" class="graph" transform="scale(1 1) rotate(0) translate(4 598)">
<title>game_version_game_file_relations</title>
<polygon fill="white" stroke="none" points="-4,4 -4,-598 1044.5,-598 1044.5,4 -4,4"/>
<!-- game_version_game_file_relations -->
<g id="node1" class="node">
<title>game_version_game_file_relations</title>
<polygon fill="#efefef" stroke="none" points="344,-512.2 344,-547.8 735.4,-547.8 735.4,-512.2 344,-512.2"/>
<polygon fill="none" stroke="black" points="344,-512.2 344,-547.8 735.4,-547.8 735.4,-512.2 344,-512.2"/>
<text text-anchor="start" x="351" y="-525.6" font-family="Arial Bold" font-size="18.00">game_version_game_file_relations</text>
<text text-anchor="start" x="603.91" y="-525.6" font-family="Arial" font-size="14.00">    </text>
<text text-anchor="start" x="635.03" y="-525.6" font-family="Arial" font-size="14.00" fill="#666666">[BASE TABLE]</text>
<polygon fill="none" stroke="black" points="344,-481.4 344,-512.2 735.4,-512.2 735.4,-481.4 344,-481.4"/>
<text text-anchor="start" x="351" y="-493.6" font-family="Arial" font-size="14.00">game_version_id </text>
<text text-anchor="start" x="461.51" y="-493.6" font-family="Arial" font-size="14.00" fill="#666666">[varchar(36)]</text>
<polygon fill="none" stroke="black" points="344,-450.6 344,-481.4 735.4,-481.4 735.4,-450.6 344,-450.6"/>
<text text-anchor="start" x="351" y="-462.8" font-family="Arial" font-size="14.00">game_file_id </text>
<text text-anchor="start" x="434.27" y="-462.8" font-family="Arial" font-size="14.00" fill="#666666">[varchar(36)]</text>
<polygon fill="none" stroke="black" stroke-width="3" points="342.5,-449.1 342.5,-549.3 736.9,-549.3 736.9,-449.1 342.5,-449.1"/>
</g>
<!-- v2_game_versions -->
<g id="node2" class="node">
<title>v2_game_versions</title>
<polygon fill="#efefef" stroke="none" points="221.97,-289.6 221.97,-325.2 495.43,-325.2 495.43,-289.6 221.97,-289.6"/>
<polygon fill="none" stroke="black" points="221.97,-289.6 221.97,-325.2 495.43,-325.2 495.43,-289.6 221.97,-289.6"/>
<text text-anchor="start" x="228.97" y="-303" font-family="Arial Bold" font-size="18.00">v2_game_versions</text>
<text text-anchor="start" x="363.94" y="-303" font-family="Arial" font-size="14.00">    </text>
<text text-anchor="start" x="395.06" y="-303" font-family="Arial" font-size="14.00" fill="#666666">[BASE TABLE]</text>
<polygon fill="none" stroke="black" points="221.97,-258.8 221.97,-289.6 495.43,-289.6 495.43,-258.8 221.97,-258.8"/>
<text text-anchor="start" x="228.97" y="-271" font-family="Arial" font-size="14.00">id </text>
<text text-anchor="start" x="243.76" y="-271" font-family="Arial" font-size="14.00" fill="#666666">[varchar(36)]</text>
<polygon fill="none" stroke="black" points="221.97,-228 221.97,-258.8 495.43,-258.8 495.43,-228 221.97,-228"/>
<text text-anchor="start" x="228.97" y="-240.2" font-family="Arial" font-size="14.00">game_id </text>
<text text-anchor="start" x="286.56" y="-240.2" font-family="Arial" font-size="14.00" fill="#666666">[varchar(36)]</text>
<polygon fill="none" stroke="black" points="221.97,-197.2 221.97,-228 495.43,-228 495.43,-197.2 221.97,-197.2"/>
<text text-anchor="start" x="228.97" y="-209.4" font-family="Arial" font-size="14.00">game_image_id </text>
<text text-anchor="start" x="332.48" y="-209.4" font-family="Arial" font-size="14.00" fill="#666666">[varchar(36)]</text>
<polygon fill="none" stroke="black" points="221.97,-166.4 221.97,-197.2 495.43,-197.2 495.43,-166.4 221.97,-166.4"/>
<text text-anchor="start" x="228.97" y="-178.6" font-family="Arial" font-size="14.00">game_video_id </text>
<text text-anchor="start" x="327.82" y="-178.6" font-family="Arial" font-size="14.00" fill="#666666">[varchar(36)]</text>
<polygon fill="none" stroke="black" points="221.97,-135.6 221.97,-166.4 495.43,-166.4 495.43,-135.6 221.97,-135.6"/>
<text text-anchor="start" x="228.97" y="-147.8" font-family="Arial" font-size="14.00">name </text>
<text text-anchor="start" x="267.88" y="-147.8" font-family="Arial" font-size="14.00" fill="#666666">[varchar(32)]</text>
<polygon fill="none" stroke="black" points="221.97,-104.8 221.97,-135.6 495.43,-135.6 495.43,-104.8 221.97,-104.8"/>
<text text-anchor="start" x="228.97" y="-117" font-family="Arial" font-size="14.00">description </text>
<text text-anchor="start" x="300.56" y="-117" font-family="Arial" font-size="14.00" fill="#666666">[text]</text>
<polygon fill="none" stroke="black" points="221.97,-74 221.97,-104.8 495.43,-104.8 495.43,-74 221.97,-74"/>
<text text-anchor="start" x="228.97" y="-86.2" font-family="Arial" font-size="14.00">created_at </text>
<text text-anchor="start" x="299.02" y="-86.2" font-family="Arial" font-size="14.00" fill="#666666">[datetime]</text>
<polygon fill="none" stroke="black" points="221.97,-43.2 221.97,-74 495.43,-74 495.43,-43.2 221.97,-43.2"/>
<text text-anchor="start" x="228.97" y="-55.4" font-family="Arial" font-size="14.00">url </text>
<text text-anchor="start" x="248.42" y="-55.4" font-family="Arial" font-size="14.00" fill="#666666">[text]</text>
</g>
<!-- game_version_game_file_relations&#45;&gt;v2_game_versions -->
<g id="edge1" class="edge">
<title>game_version_game_file_relations:game_version_id&#45;&gt;v2_game_versions:id</title>
<path fill="none" stroke="black" d="M332.92,-495.28C305.09,-485.74 320.77,-433.48 344,-404.4 387.18,-350.35 452.26,-422.45 495.43,-368.4 521.56,-335.69 538.3,-274.2 496.43,-274.2"/>
<polygon fill="black" stroke="black" points="332.78,-495.26 342,-501.2 338.05,-496.06 342.34,-496.7 342.34,-496.7 342.34,-496.7 338.05,-496.06 343.34,-492.3 332.78,-495.26"/>
<text text-anchor="start" x="7" y="-506.8" font-family="Arial" font-size="10.00">FOREIGN KEY (game_version_id) REFERENCES v2_game_versions (id)</text>
</g>
<!-- v2_game_files -->
<g id="node3" class="node">
<title>v2_game_files</title>
<polygon fill="#efefef" stroke="none" points="599.47,-258.8 599.47,-294.4 843.93,-294.4 843.93,-258.8 599.47,-258.8"/>
<polygon fill="none" stroke="black" points="599.47,-258.8 599.47,-294.4 843.93,-294.4 843.93,-258.8 599.47,-258.8"/>
<text text-anchor="start" x="606.47" y="-272.2" font-family="Arial Bold" font-size="18.00">v2_game_files</text>
<text text-anchor="start" x="712.44" y="-272.2" font-family="Arial" font-size="14.00">    </text>
<text text-anchor="start" x="743.56" y="-272.2" font-family="Arial" font-size="14.00" fill="#666666">[BASE TABLE]</text>
<polygon fill="none" stroke="black" points="599.47,-228 599.47,-258.8 843.93,-258.8 843.93,-228 599.47,-228"/>
<text text-anchor="start" x="606.47" y="-240.2" font-family="Arial" font-size="14.00">id </text>
<text text-anchor="start" x="621.26" y="-240.2" font-family="Arial" font-size="14.00" fill="#666666">[varchar(36)]</text>
<polygon fill="none" stroke="black" points="599.47,-197.2 599.47,-228 843.93,-228 843.93,-197.2 599.47,-197.2"/>
<text text-anchor="start" x="606.47" y="-209.4" font-family="Arial" font-size="14.00">game_id </text>
<text text-anchor="start" x="664.06" y="-209.4" font-family="Arial" font-size="14.00" fill="#666666">[varchar(36)]</text>
<polygon fill="none" stroke="black" points="599.47,-166.4 599.47,-197.2 843.93,-197.2 843.93,-166.4 599.47,-166.4"/>
<text text-anchor="start" x="606.47" y="-178.6" font-family="Arial" font-size="14.00">file_type_id </text>
<text text-anchor="start" x="681.19" y="-178.6" font-family="Arial" font-size="14.00" fill="#666666">[tinyint(4)]</text>
<polygon fill="none" stroke="black" points="599.47,-135.6 599.47,-166.4 843.93,-166.4 843.93,-135.6 599.47,-135.6"/>
<text text-anchor="start" x="606.47" y="-147.8" font-family="Arial" font-size="14.00">hash </text>
<text text-anchor="start" x="640.72" y="-147.8" font-family="Arial" font-size="14.00" fill="#666666">[char(32)]</text>
<polygon fill="none" stroke="black" points="599.47,-104.8 599.47,-135.6 843.93,-135.6 843.93,-104.8 599.47,-104.8"/>
<text text-anchor="start" x="606.47" y="-117" font-family="Arial" font-size="14.00">entry_point </text>
<text text-anchor="start" x="679.63" y="-117" font-family="Arial" font-size="14.00" fill="#666666">[text]</text>
<polygon fill="none" stroke="black" points="599.47,-74 599.47,-104.8 843.93,-104.8 843.93,-74 599.47,-74"/>
<text text-anchor="start" x="606.47" y="-86.2" font-family="Arial" font-size="14.00">created_at </text>
<text text-anchor="start" x="676.52" y="-86.2" font-family="Arial" font-size="14.00" fill="#666666">[datetime]</text>
</g>
<!-- game_version_game_file_relations&#45;&gt;v2_game_files -->
<g id="edge2" class="edge">
<title>game_version_game_file_relations:game_file_id&#45;&gt;v2_game_files:id</title>
<path fill="none" stroke="black" d="M746.38,-463.39C759.47,-454.35 747.77,-423.91 735.4,-404.4 699.35,-347.55 635.36,-394.55 599.47,-337.6 577.15,-302.18 556.6,-243.4 598.47,-243.4"/>
<polygon fill="black" stroke="black" points="746.4,-463.38 735.59,-461.56 741.24,-464.73 737.05,-465.83 737.05,-465.83 737.05,-465.83 741.24,-464.73 737.87,-470.27 746.4,-463.38"/>
<text text-anchor="start" x="743.4" y="-476" font-family="Arial" font-size="10.00">FOREIGN KEY (game_file_id) REFERENCES v2_game_files (id)</text>
</g>
</g>
</svg>
