<?xml version="1.0" encoding="UTF-8" standalone="no"?>
<!DOCTYPE svg PUBLIC "-//W3C//DTD SVG 1.1//EN"
 "http://www.w3.org/Graphics/SVG/1.1/DTD/svg11.dtd">
<!-- Generated by graphviz version 2.40.1 (20161225.0304)
 -->
<!-- Title: game_images Pages: 1 -->
<svg width="818pt" height="562pt"
 viewBox="0.00 0.00 818.00 562.00" xmlns="http://www.w3.org/2000/svg" xmlns:xlink="http://www.w3.org/1999/xlink">
<g id="graph0" class="graph" transform="scale(1 1) rotate(0) translate(4 558)">
<title>game_images</title>
<polygon fill="#ffffff" stroke="transparent" points="-4,4 -4,-558 814,-558 814,4 -4,4"/>
<!-- game_images -->
<g id="node1" class="node">
<title>game_images</title>
<polygon fill="#efefef" stroke="transparent" points="251,-472.5 251,-507.5 475,-507.5 475,-472.5 251,-472.5"/>
<polygon fill="none" stroke="#000000" points="251,-472.5 251,-507.5 475,-507.5 475,-472.5 251,-472.5"/>
<text text-anchor="start" x="257.8621" y="-485.3" font-family="Arial Bold" font-size="18.00" fill="#000000">game_images</text>
<text text-anchor="start" x="370.8841" y="-485.3" font-family="Arial" font-size="14.00" fill="#000000"> </text>
<text text-anchor="start" x="374.7747" y="-485.3" font-family="Arial" font-size="14.00" fill="#666666">[BASE TABLE]</text>
<polygon fill="none" stroke="#000000" points="251,-442.5 251,-472.5 475,-472.5 475,-442.5 251,-442.5"/>
<text text-anchor="start" x="258" y="-453.9" font-family="Arial" font-size="14.00" fill="#000000">id </text>
<text text-anchor="start" x="272.7798" y="-453.9" font-family="Arial" font-size="14.00" fill="#666666">[varchar(36)]</text>
<polygon fill="none" stroke="#000000" points="251,-412.5 251,-442.5 475,-442.5 475,-412.5 251,-412.5"/>
<text text-anchor="start" x="258" y="-423.9" font-family="Arial" font-size="14.00" fill="#000000">game_id </text>
<text text-anchor="start" x="315.5708" y="-423.9" font-family="Arial" font-size="14.00" fill="#666666">[varchar(36)]</text>
<polygon fill="none" stroke="#000000" points="251,-382.5 251,-412.5 475,-412.5 475,-382.5 251,-382.5"/>
<text text-anchor="start" x="258" y="-393.9" font-family="Arial" font-size="14.00" fill="#000000">image_type_id </text>
<text text-anchor="start" x="352.9158" y="-393.9" font-family="Arial" font-size="14.00" fill="#666666">[tinyint(4)]</text>
<polygon fill="none" stroke="#000000" points="251,-352.5 251,-382.5 475,-382.5 475,-352.5 251,-352.5"/>
<text text-anchor="start" x="258" y="-363.9" font-family="Arial" font-size="14.00" fill="#000000">created_at </text>
<text text-anchor="start" x="328.028" y="-363.9" font-family="Arial" font-size="14.00" fill="#666666">[datetime]</text>
<polygon fill="none" stroke="#000000" stroke-width="3" points="249.5,-351.5 249.5,-509.5 476.5,-509.5 476.5,-351.5 249.5,-351.5"/>
</g>
<!-- games -->
<g id="node2" class="node">
<title>games</title>
<polygon fill="#efefef" stroke="transparent" points="120,-192.5 120,-227.5 285,-227.5 285,-192.5 120,-192.5"/>
<polygon fill="none" stroke="#000000" points="120,-192.5 120,-227.5 285,-227.5 285,-192.5 120,-192.5"/>
<text text-anchor="start" x="126.8677" y="-205.3" font-family="Arial Bold" font-size="18.00" fill="#000000">games</text>
<text text-anchor="start" x="180.8785" y="-205.3" font-family="Arial" font-size="14.00" fill="#000000"> </text>
<text text-anchor="start" x="184.7691" y="-205.3" font-family="Arial" font-size="14.00" fill="#666666">[BASE TABLE]</text>
<polygon fill="none" stroke="#000000" points="120,-162.5 120,-192.5 285,-192.5 285,-162.5 120,-162.5"/>
<text text-anchor="start" x="127" y="-173.9" font-family="Arial" font-size="14.00" fill="#000000">id </text>
<text text-anchor="start" x="141.7798" y="-173.9" font-family="Arial" font-size="14.00" fill="#666666">[varchar(36)]</text>
<polygon fill="none" stroke="#000000" points="120,-132.5 120,-162.5 285,-162.5 285,-132.5 120,-132.5"/>
<text text-anchor="start" x="127" y="-143.9" font-family="Arial" font-size="14.00" fill="#000000">name </text>
<text text-anchor="start" x="165.899" y="-143.9" font-family="Arial" font-size="14.00" fill="#666666">[varchar(256)]</text>
<polygon fill="none" stroke="#000000" points="120,-102.5 120,-132.5 285,-132.5 285,-102.5 120,-102.5"/>
<text text-anchor="start" x="127" y="-113.9" font-family="Arial" font-size="14.00" fill="#000000">description </text>
<text text-anchor="start" x="198.568" y="-113.9" font-family="Arial" font-size="14.00" fill="#666666">[text]</text>
<polygon fill="none" stroke="#000000" points="120,-72.5 120,-102.5 285,-102.5 285,-72.5 120,-72.5"/>
<text text-anchor="start" x="127" y="-83.9" font-family="Arial" font-size="14.00" fill="#000000">created_at </text>
<text text-anchor="start" x="197.028" y="-83.9" font-family="Arial" font-size="14.00" fill="#666666">[datetime]</text>
<polygon fill="none" stroke="#000000" points="120,-42.5 120,-72.5 285,-72.5 285,-42.5 120,-42.5"/>
<text text-anchor="start" x="127" y="-53.9" font-family="Arial" font-size="14.00" fill="#000000">deleted_at </text>
<text text-anchor="start" x="196.2566" y="-53.9" font-family="Arial" font-size="14.00" fill="#666666">[datetime]</text>
</g>
<!-- game_images&#45;&gt;games -->
<g id="edge1" class="edge">
<title>game_images:game_id&#45;&gt;games:id</title>
<path fill="none" stroke="#000000" d="M240.9631,-426.4828C202.1241,-417.6568 232.6051,-353.2673 251,-307 259.1308,-286.5492 276.8692,-291.4508 285,-271 300.3527,-232.3845 326.5556,-177.5 285,-177.5"/>
<polygon fill="#000000" stroke="#000000" points="241.051,-426.4916 250.5462,-431.9771 246.0255,-426.9958 251,-427.5 251,-427.5 251,-427.5 246.0255,-426.9958 251.4538,-423.0229 241.051,-426.4916 241.051,-426.4916"/>
<text text-anchor="start" x="7.386" y="-437.5" font-family="Arial" font-size="10.00" fill="#000000">FOREIGN KEY (game_id) REFERENCES games (id)</text>
</g>
<!-- game_image_types -->
<g id="node3" class="node">
<title>game_image_types</title>
<polygon fill="#efefef" stroke="transparent" points="389,-162.5 389,-197.5 657,-197.5 657,-162.5 389,-162.5"/>
<polygon fill="none" stroke="#000000" points="389,-162.5 389,-197.5 657,-197.5 657,-162.5 389,-162.5"/>
<text text-anchor="start" x="395.8517" y="-175.3" font-family="Arial Bold" font-size="18.00" fill="#000000">game_image_types</text>
<text text-anchor="start" x="552.8945" y="-175.3" font-family="Arial" font-size="14.00" fill="#000000"> </text>
<text text-anchor="start" x="556.7851" y="-175.3" font-family="Arial" font-size="14.00" fill="#666666">[BASE TABLE]</text>
<polygon fill="none" stroke="#000000" points="389,-132.5 389,-162.5 657,-162.5 657,-132.5 389,-132.5"/>
<text text-anchor="start" x="396" y="-143.9" font-family="Arial" font-size="14.00" fill="#000000">id </text>
<text text-anchor="start" x="410.7798" y="-143.9" font-family="Arial" font-size="14.00" fill="#666666">[tinyint(4)]</text>
<polygon fill="none" stroke="#000000" points="389,-102.5 389,-132.5 657,-132.5 657,-102.5 389,-102.5"/>
<text text-anchor="start" x="396" y="-113.9" font-family="Arial" font-size="14.00" fill="#000000">name </text>
<text text-anchor="start" x="434.899" y="-113.9" font-family="Arial" font-size="14.00" fill="#666666">[varchar(32)]</text>
<polygon fill="none" stroke="#000000" points="389,-72.5 389,-102.5 657,-102.5 657,-72.5 389,-72.5"/>
<text text-anchor="start" x="396" y="-83.9" font-family="Arial" font-size="14.00" fill="#000000">active </text>
<text text-anchor="start" x="436.453" y="-83.9" font-family="Arial" font-size="14.00" fill="#666666">[tinyint(1)]</text>
</g>
<!-- game_images&#45;&gt;game_image_types -->
<g id="edge2" class="edge">
<title>game_images:image_type_id&#45;&gt;game_image_types:id</title>
<path fill="none" stroke="#000000" d="M485.0539,-396.0107C510.8849,-387.0451 491.0514,-339.5519 475,-307 453.6918,-263.7872 410.3082,-284.2128 389,-241 370.6218,-203.7293 347.4444,-147.5 389,-147.5"/>
<polygon fill="#000000" stroke="#000000" points="484.8921,-396.0346 474.3406,-393.0486 479.946,-396.7673 475,-397.5 475,-397.5 475,-397.5 479.946,-396.7673 475.6594,-401.9514 484.8921,-396.0346 484.8921,-396.0346"/>
<text text-anchor="start" x="482.4285" y="-407.5" font-family="Arial" font-size="10.00" fill="#000000">FOREIGN KEY (image_type_id) REFERENCES game_image_types (id)</text>
</g>
</g>
</svg>
