<?xml version="1.0" encoding="UTF-8" standalone="no"?>
<!DOCTYPE svg PUBLIC "-//W3C//DTD SVG 1.1//EN"
 "http://www.w3.org/Graphics/SVG/1.1/DTD/svg11.dtd">
<!-- Generated by graphviz version 12.1.2 (20240928.0832)
 -->
<!-- Title: game_creator_jobs Pages: 1 -->
<svg width="516pt" height="448pt"
 viewBox="0.00 0.00 516.10 448.00" xmlns="http://www.w3.org/2000/svg" xmlns:xlink="http://www.w3.org/1999/xlink">
<g id="graph0" class="graph" transform="scale(1 1) rotate(0) translate(4 444)">
<title>game_creator_jobs</title>
<polygon fill="white" stroke="none" points="-4,4 -4,-444 512.1,-444 512.1,4 -4,4"/>
<!-- game_creator_jobs -->
<g id="node1" class="node">
<title>game_creator_jobs</title>
<polygon fill="#efefef" stroke="none" points="157.49,-138.6 157.49,-174.2 432.92,-174.2 432.92,-138.6 157.49,-138.6"/>
<polygon fill="none" stroke="black" points="157.49,-138.6 157.49,-174.2 432.92,-174.2 432.92,-138.6 157.49,-138.6"/>
<text text-anchor="start" x="164.49" y="-152" font-family="Arial Bold" font-size="18.00">game_creator_jobs</text>
<text text-anchor="start" x="301.43" y="-152" font-family="Arial" font-size="14.00">    </text>
<text text-anchor="start" x="332.54" y="-152" font-family="Arial" font-size="14.00" fill="#666666">[BASE TABLE]</text>
<polygon fill="none" stroke="black" points="157.49,-107.8 157.49,-138.6 432.92,-138.6 432.92,-107.8 157.49,-107.8"/>
<text text-anchor="start" x="164.49" y="-120" font-family="Arial" font-size="14.00">id </text>
<text text-anchor="start" x="179.27" y="-120" font-family="Arial" font-size="14.00" fill="#666666">[varchar(36)]</text>
<polygon fill="none" stroke="black" points="157.49,-77 157.49,-107.8 432.92,-107.8 432.92,-77 157.49,-77"/>
<text text-anchor="start" x="164.49" y="-89.2" font-family="Arial" font-size="14.00">display_name </text>
<text text-anchor="start" x="254.76" y="-89.2" font-family="Arial" font-size="14.00" fill="#666666">[varchar(64)]</text>
<polygon fill="none" stroke="black" points="157.49,-46.2 157.49,-77 432.92,-77 432.92,-46.2 157.49,-46.2"/>
<text text-anchor="start" x="164.49" y="-58.4" font-family="Arial" font-size="14.00">created_at </text>
<text text-anchor="start" x="234.53" y="-58.4" font-family="Arial" font-size="14.00" fill="#666666">[datetime]</text>
<polygon fill="none" stroke="black" stroke-width="3" points="155.99,-44.7 155.99,-175.7 434.42,-175.7 434.42,-44.7 155.99,-44.7"/>
</g>
<!-- game_creator_job_relations -->
<g id="node2" class="node">
<title>game_creator_job_relations</title>
<polygon fill="#efefef" stroke="none" points="125.5,-361.2 125.5,-396.8 464.9,-396.8 464.9,-361.2 125.5,-361.2"/>
<polygon fill="none" stroke="black" points="125.5,-361.2 125.5,-396.8 464.9,-396.8 464.9,-361.2 125.5,-361.2"/>
<text text-anchor="start" x="132.5" y="-374.6" font-family="Arial Bold" font-size="18.00">game_creator_job_relations</text>
<text text-anchor="start" x="333.42" y="-374.6" font-family="Arial" font-size="14.00">    </text>
<text text-anchor="start" x="364.53" y="-374.6" font-family="Arial" font-size="14.00" fill="#666666">[BASE TABLE]</text>
<polygon fill="none" stroke="black" points="125.5,-330.4 125.5,-361.2 464.9,-361.2 464.9,-330.4 125.5,-330.4"/>
<text text-anchor="start" x="132.5" y="-342.6" font-family="Arial" font-size="14.00">game_creator_id </text>
<text text-anchor="start" x="241.45" y="-342.6" font-family="Arial" font-size="14.00" fill="#666666">[varchar(36)]</text>
<polygon fill="none" stroke="black" points="125.5,-299.6 125.5,-330.4 464.9,-330.4 464.9,-299.6 125.5,-299.6"/>
<text text-anchor="start" x="132.5" y="-311.8" font-family="Arial" font-size="14.00">job_id </text>
<text text-anchor="start" x="173.75" y="-311.8" font-family="Arial" font-size="14.00" fill="#666666">[varchar(36)]</text>
</g>
<!-- game_creator_job_relations&#45;&gt;game_creator_jobs -->
<g id="edge1" class="edge">
<title>game_creator_job_relations:job_id&#45;&gt;game_creator_jobs:id</title>
<path fill="none" stroke="black" d="M296.03,-288.46C305.77,-233.47 399.08,-277.85 432.92,-220.4 454.84,-183.18 477.12,-123.2 433.92,-123.2"/>
<polygon fill="black" stroke="black" points="296.04,-288.3 290.74,-297.9 295.61,-293.62 295.26,-297.93 295.26,-297.93 295.26,-297.93 295.61,-293.62 299.71,-298.63 296.04,-288.3"/>
<text text-anchor="start" x="7" y="-308.6" font-family="Arial" font-size="10.00">FOREIGN KEY (job_id) REFERENCES game_creator_jobs (id)</text>
</g>
</g>
</svg>
