<?xml version="1.0" encoding="UTF-8" standalone="no"?>
<!DOCTYPE svg PUBLIC "-//W3C//DTD SVG 1.1//EN"
 "http://www.w3.org/Graphics/SVG/1.1/DTD/svg11.dtd">
<!-- Generated by graphviz version 2.40.1 (20161225.0304)
 -->
<!-- Title: game_genre_relations Pages: 1 -->
<svg width="832pt" height="562pt"
 viewBox="0.00 0.00 831.70 562.00" xmlns="http://www.w3.org/2000/svg" xmlns:xlink="http://www.w3.org/1999/xlink">
<g id="graph0" class="graph" transform="scale(1 1) rotate(0) translate(4 558)">
<title>game_genre_relations</title>
<polygon fill="#ffffff" stroke="transparent" points="-4,4 -4,-558 827.7015,-558 827.7015,4 -4,4"/>
<!-- game_genre_relations -->
<g id="node1" class="node">
<title>game_genre_relations</title>
<polygon fill="#efefef" stroke="transparent" points="282.2876,-472.5 282.2876,-507.5 572.2876,-507.5 572.2876,-472.5 282.2876,-472.5"/>
<polygon fill="none" stroke="#000000" points="282.2876,-472.5 282.2876,-507.5 572.2876,-507.5 572.2876,-472.5 282.2876,-472.5"/>
<text text-anchor="start" x="289.1368" y="-485.3" font-family="Arial Bold" font-size="18.00" fill="#000000">game_genre_relations</text>
<text text-anchor="start" x="468.1846" y="-485.3" font-family="Arial" font-size="14.00" fill="#000000"> </text>
<text text-anchor="start" x="472.0752" y="-485.3" font-family="Arial" font-size="14.00" fill="#666666">[BASE TABLE]</text>
<polygon fill="none" stroke="#000000" points="282.2876,-442.5 282.2876,-472.5 572.2876,-472.5 572.2876,-442.5 282.2876,-442.5"/>
<text text-anchor="start" x="289.2876" y="-453.9" font-family="Arial" font-size="14.00" fill="#000000">genre_id </text>
<text text-anchor="start" x="347.641" y="-453.9" font-family="Arial" font-size="14.00" fill="#666666">[varchar(36)]</text>
<polygon fill="none" stroke="#000000" points="282.2876,-412.5 282.2876,-442.5 572.2876,-442.5 572.2876,-412.5 282.2876,-412.5"/>
<text text-anchor="start" x="289.2876" y="-423.9" font-family="Arial" font-size="14.00" fill="#000000">game_id </text>
<text text-anchor="start" x="346.8584" y="-423.9" font-family="Arial" font-size="14.00" fill="#666666">[varchar(36)]</text>
<polygon fill="none" stroke="#000000" stroke-width="3" points="280.7876,-411.5 280.7876,-509.5 573.7876,-509.5 573.7876,-411.5 280.7876,-411.5"/>
</g>
<!-- game_genres -->
<g id="node2" class="node">
<title>game_genres</title>
<polygon fill="#efefef" stroke="transparent" points="148.2876,-192.5 148.2876,-227.5 369.2876,-227.5 369.2876,-192.5 148.2876,-192.5"/>
<polygon fill="none" stroke="#000000" points="148.2876,-192.5 148.2876,-227.5 369.2876,-227.5 369.2876,-192.5 148.2876,-192.5"/>
<text text-anchor="start" x="155.1437" y="-205.3" font-family="Arial Bold" font-size="18.00" fill="#000000">game_genres</text>
<text text-anchor="start" x="265.1777" y="-205.3" font-family="Arial" font-size="14.00" fill="#000000"> </text>
<text text-anchor="start" x="269.0683" y="-205.3" font-family="Arial" font-size="14.00" fill="#666666">[BASE TABLE]</text>
<polygon fill="none" stroke="#000000" points="148.2876,-162.5 148.2876,-192.5 369.2876,-192.5 369.2876,-162.5 148.2876,-162.5"/>
<text text-anchor="start" x="155.2876" y="-173.9" font-family="Arial" font-size="14.00" fill="#000000">id </text>
<text text-anchor="start" x="170.0674" y="-173.9" font-family="Arial" font-size="14.00" fill="#666666">[varchar(36)]</text>
<polygon fill="none" stroke="#000000" points="148.2876,-132.5 148.2876,-162.5 369.2876,-162.5 369.2876,-132.5 148.2876,-132.5"/>
<text text-anchor="start" x="155.2876" y="-143.9" font-family="Arial" font-size="14.00" fill="#000000">name </text>
<text text-anchor="start" x="194.1866" y="-143.9" font-family="Arial" font-size="14.00" fill="#666666">[varchar(32)]</text>
<polygon fill="none" stroke="#000000" points="148.2876,-102.5 148.2876,-132.5 369.2876,-132.5 369.2876,-102.5 148.2876,-102.5"/>
<text text-anchor="start" x="155.2876" y="-113.9" font-family="Arial" font-size="14.00" fill="#000000">created_at </text>
<text text-anchor="start" x="225.3156" y="-113.9" font-family="Arial" font-size="14.00" fill="#666666">[datetime]</text>
</g>
<!-- game_genre_relations&#45;&gt;game_genres -->
<g id="edge1" class="edge">
<title>game_genre_relations:genre_id&#45;&gt;game_genres:id</title>
<path fill="none" stroke="#000000" d="M272.076,-457.0359C217.8477,-451.7523 241.6044,-402.4751 255.2876,-367 276.0092,-313.2769 321.5659,-324.7231 342.2876,-271 357.2422,-232.2286 383.8431,-177.5 369.2876,-177.5"/>
<polygon fill="#000000" stroke="#000000" points="272.2979,-457.0459 282.0832,-461.9954 277.2927,-457.273 282.2876,-457.5 282.2876,-457.5 282.2876,-457.5 277.2927,-457.273 282.4919,-453.0046 272.2979,-457.0459 272.2979,-457.0459"/>
<text text-anchor="start" x="6.8321" y="-467.5" font-family="Arial" font-size="10.00" fill="#000000">FOREIGN KEY (genre_id) REFERENCES game_genres (id)</text>
</g>
<!-- game_genre_relations&#45;&gt;game_genres -->
<g id="edge2" class="edge">
<title>game_genre_relations:genre_id&#45;&gt;game_genres:id</title>
<path fill="none" stroke="#000000" d="M271.8779,-456.5198C237.1091,-449.1309 259.9697,-401.528 273.2876,-367 294.0092,-313.2769 339.5659,-324.7231 360.2876,-271 375.1837,-232.38 401.6355,-177.9273 369.6664,-177.5025"/>
<polygon fill="#000000" stroke="#000000" points="272.0465,-456.536 281.5665,-461.9785 277.0233,-457.0177 282,-457.4994 282,-457.4994 282,-457.4994 277.0233,-457.0177 282.4335,-453.0203 272.0465,-456.536 272.0465,-456.536"/>
<text text-anchor="start" x="6.5445" y="-441.4994" font-family="Arial" font-size="10.00" fill="#000000">FOREIGN KEY (genre_id) REFERENCES game_genres (id)</text>
</g>
<!-- game_genre_relations&#45;&gt;game_genres -->
<g id="edge3" class="edge">
<title>game_genre_relations:genre_id&#45;&gt;game_genres:id</title>
<path fill="none" stroke="#000000" d="M272.1406,-454.4097C258.246,-442.566 278.8969,-399.1242 291.2876,-367 312.0092,-313.2769 357.5659,-324.7231 378.2876,-271 393.2129,-232.3043 419.7392,-177.7137 369.5829,-177.5006"/>
<polygon fill="#000000" stroke="#000000" points="272.388,-454.4877 280.5698,-461.7889 277.1561,-455.9926 281.9243,-457.4976 281.9243,-457.4976 281.9243,-457.4976 277.1561,-455.9926 283.2787,-453.2062 272.388,-454.4877 272.388,-454.4877"/>
<text text-anchor="start" x="288.4688" y="-467.4976" font-family="Arial" font-size="10.00" fill="#000000">FOREIGN KEY (genre_id) REFERENCES game_genres (id)</text>
</g>
<!-- game_genre_relations&#45;&gt;game_genres -->
<g id="edge4" class="edge">
<title>game_genre_relations:genre_id&#45;&gt;game_genres:id</title>
<path fill="none" stroke="#000000" d="M279.0347,-447.71C281.8566,-430.645 298.6285,-394.6348 309.2876,-367 330.0092,-313.2769 375.5659,-324.7231 396.2876,-271 411.2129,-232.3043 437.7392,-177.7137 369.6882,-177.5006"/>
<polygon fill="#000000" stroke="#000000" points="279.0969,-447.9164 277.6765,-458.7899 280.5408,-452.7034 281.9848,-457.4903 281.9848,-457.4903 281.9848,-457.4903 280.5408,-452.7034 286.2931,-456.1908 279.0969,-447.9164 279.0969,-447.9164"/>
<text text-anchor="start" x="288.5293" y="-441.4903" font-family="Arial" font-size="10.00" fill="#000000">FOREIGN KEY (genre_id) REFERENCES game_genres (id)</text>
</g>
<!-- games -->
<g id="node3" class="node">
<title>games</title>
<polygon fill="#efefef" stroke="transparent" points="473.2876,-252.5 473.2876,-287.5 716.2876,-287.5 716.2876,-252.5 473.2876,-252.5"/>
<polygon fill="none" stroke="#000000" points="473.2876,-252.5 473.2876,-287.5 716.2876,-287.5 716.2876,-252.5 473.2876,-252.5"/>
<text text-anchor="start" x="519.1553" y="-265.3" font-family="Arial Bold" font-size="18.00" fill="#000000">games</text>
<text text-anchor="start" x="573.1661" y="-265.3" font-family="Arial" font-size="14.00" fill="#000000"> </text>
<text text-anchor="start" x="577.0567" y="-265.3" font-family="Arial" font-size="14.00" fill="#666666">[BASE TABLE]</text>
<polygon fill="none" stroke="#000000" points="473.2876,-222.5 473.2876,-252.5 716.2876,-252.5 716.2876,-222.5 473.2876,-222.5"/>
<text text-anchor="start" x="480.2876" y="-233.9" font-family="Arial" font-size="14.00" fill="#000000">id </text>
<text text-anchor="start" x="495.0674" y="-233.9" font-family="Arial" font-size="14.00" fill="#666666">[varchar(36)]</text>
<polygon fill="none" stroke="#000000" points="473.2876,-192.5 473.2876,-222.5 716.2876,-222.5 716.2876,-192.5 473.2876,-192.5"/>
<text text-anchor="start" x="480.2876" y="-203.9" font-family="Arial" font-size="14.00" fill="#000000">name </text>
<text text-anchor="start" x="519.1866" y="-203.9" font-family="Arial" font-size="14.00" fill="#666666">[varchar(256)]</text>
<polygon fill="none" stroke="#000000" points="473.2876,-162.5 473.2876,-192.5 716.2876,-192.5 716.2876,-162.5 473.2876,-162.5"/>
<text text-anchor="start" x="480.2876" y="-173.9" font-family="Arial" font-size="14.00" fill="#000000">description </text>
<text text-anchor="start" x="551.8556" y="-173.9" font-family="Arial" font-size="14.00" fill="#666666">[text]</text>
<polygon fill="none" stroke="#000000" points="473.2876,-132.5 473.2876,-162.5 716.2876,-162.5 716.2876,-132.5 473.2876,-132.5"/>
<text text-anchor="start" x="480.2876" y="-143.9" font-family="Arial" font-size="14.00" fill="#000000">created_at </text>
<text text-anchor="start" x="550.3156" y="-143.9" font-family="Arial" font-size="14.00" fill="#666666">[datetime]</text>
<polygon fill="none" stroke="#000000" points="473.2876,-102.5 473.2876,-132.5 716.2876,-132.5 716.2876,-102.5 473.2876,-102.5"/>
<text text-anchor="start" x="480.2876" y="-113.9" font-family="Arial" font-size="14.00" fill="#000000">deleted_at </text>
<text text-anchor="start" x="549.5442" y="-113.9" font-family="Arial" font-size="14.00" fill="#666666">[datetime]</text>
<polygon fill="none" stroke="#000000" points="473.2876,-72.5 473.2876,-102.5 716.2876,-102.5 716.2876,-72.5 473.2876,-72.5"/>
<text text-anchor="start" x="480.2876" y="-83.9" font-family="Arial" font-size="14.00" fill="#000000">visibility_type_id </text>
<text text-anchor="start" x="585.2946" y="-83.9" font-family="Arial" font-size="14.00" fill="#666666">[tinyint(4)]</text>
<polygon fill="none" stroke="#000000" points="473.2876,-42.5 473.2876,-72.5 716.2876,-72.5 716.2876,-42.5 473.2876,-42.5"/>
<text text-anchor="start" x="480.0247" y="-53.9" font-family="Arial" font-size="14.00" fill="#000000">latest_version_updated_at </text>
<text text-anchor="start" x="648.0905" y="-53.9" font-family="Arial" font-size="14.00" fill="#666666">[datetime]</text>
</g>
<!-- game_genre_relations&#45;&gt;games -->
<g id="edge5" class="edge">
<title>game_genre_relations:game_id&#45;&gt;games:id</title>
<path fill="none" stroke="#000000" d="M569.0832,-417.904C564.6251,-405.0591 555.893,-382.1414 545.2876,-367 518.4277,-328.6522 473.1474,-369.3478 446.2876,-331 422.4472,-296.9632 404.732,-237.5 473.2876,-237.5"/>
<polygon fill="#000000" stroke="#000000" points="569.1201,-418.0149 568.0192,-428.9253 570.7038,-422.7574 572.2876,-427.5 572.2876,-427.5 572.2876,-427.5 570.7038,-422.7574 576.5559,-426.0747 569.1201,-418.0149 569.1201,-418.0149"/>
<text text-anchor="start" x="579.6736" y="-437.5" font-family="Arial" font-size="10.00" fill="#000000">FOREIGN KEY (game_id) REFERENCES games (id)</text>
</g>
<!-- game_genre_relations&#45;&gt;games -->
<g id="edge6" class="edge">
<title>game_genre_relations:game_id&#45;&gt;games:id</title>
<path fill="none" stroke="#000000" d="M580.57,-421.2334C584.2444,-409.4203 574.8863,-383.5595 563.2876,-367 536.4277,-328.6522 491.1474,-369.3478 464.2876,-331 440.4938,-297.0297 422.8012,-237.7322 472.9921,-237.5007"/>
<polygon fill="#000000" stroke="#000000" points="580.5272,-421.2674 569.8999,-423.9714 576.6144,-424.3802 572.7015,-427.493 572.7015,-427.493 572.7015,-427.493 576.6144,-424.3802 575.503,-431.0146 580.5272,-421.2674 580.5272,-421.2674"/>
<text text-anchor="start" x="580.0875" y="-411.493" font-family="Arial" font-size="10.00" fill="#000000">FOREIGN KEY (game_id) REFERENCES games (id)</text>
</g>
<!-- game_genre_relations&#45;&gt;games -->
<g id="edge7" class="edge">
<title>game_genre_relations:game_id&#45;&gt;games:id</title>
<path fill="none" stroke="#000000" d="M582.6913,-426.1088C605.5387,-419.0252 594.9727,-386.5383 581.2876,-367 554.4277,-328.6522 509.1474,-369.3478 482.2876,-331 458.5404,-297.0962 440.8705,-237.9642 472.9083,-237.5027"/>
<polygon fill="#000000" stroke="#000000" points="582.6105,-426.12 572.0858,-423.0412 577.6583,-426.8091 572.706,-427.4982 572.706,-427.4982 572.706,-427.4982 577.6583,-426.8091 573.3262,-431.9553 582.6105,-426.12 582.6105,-426.12"/>
<text text-anchor="start" x="329.092" y="-411.4982" font-family="Arial" font-size="10.00" fill="#000000">FOREIGN KEY (game_id) REFERENCES games (id)</text>
</g>
<!-- game_genre_relations&#45;&gt;games -->
<g id="edge8" class="edge">
<title>game_genre_relations:game_id&#45;&gt;games:id</title>
<path fill="none" stroke="#000000" d="M582.6888,-426.9505C624.548,-422.1806 613.631,-387.4782 599.2876,-367 572.4277,-328.6522 527.1474,-369.3478 500.2876,-331 476.6335,-297.2291 459.0092,-238.4276 472.9523,-237.5108"/>
<polygon fill="#000000" stroke="#000000" points="582.5878,-426.9559 572.3579,-423.0062 577.5952,-427.2277 572.6026,-427.4996 572.6026,-427.4996 572.6026,-427.4996 577.5952,-427.2277 572.8472,-431.9929 582.5878,-426.9559 582.5878,-426.9559"/>
<text text-anchor="start" x="579.9886" y="-437.4996" font-family="Arial" font-size="10.00" fill="#000000">FOREIGN KEY (game_id) REFERENCES games (id)</text>
</g>
</g>
</svg>
