<?xml version="1.0" encoding="UTF-8" standalone="no"?>
<!DOCTYPE svg PUBLIC "-//W3C//DTD SVG 1.1//EN"
 "http://www.w3.org/Graphics/SVG/1.1/DTD/svg11.dtd">
<!-- Generated by graphviz version 2.40.1 (20161225.0304)
 -->
<!-- Title: games Pages: 1 -->
<svg width="4369pt" height="1019pt"
 viewBox="0.00 0.00 4369.00 1019.00" xmlns="http://www.w3.org/2000/svg" xmlns:xlink="http://www.w3.org/1999/xlink">
<g id="graph0" class="graph" transform="scale(1 1) rotate(0) translate(4 1015)">
<title>games</title>
<polygon fill="#ffffff" stroke="transparent" points="-4,4 -4,-1015 4365,-1015 4365,4 -4,4"/>
<!-- games -->
<g id="node1" class="node">
<title>games</title>
<polygon fill="#efefef" stroke="transparent" points="2030.5,-502.5 2030.5,-537.5 2273.5,-537.5 2273.5,-502.5 2030.5,-502.5"/>
<polygon fill="none" stroke="#000000" points="2030.5,-502.5 2030.5,-537.5 2273.5,-537.5 2273.5,-502.5 2030.5,-502.5"/>
<text text-anchor="start" x="2076.3677" y="-515.3" font-family="Arial Bold" font-size="18.00" fill="#000000">games</text>
<text text-anchor="start" x="2130.3785" y="-515.3" font-family="Arial" font-size="14.00" fill="#000000"> </text>
<text text-anchor="start" x="2134.2691" y="-515.3" font-family="Arial" font-size="14.00" fill="#666666">[BASE TABLE]</text>
<polygon fill="none" stroke="#000000" points="2030.5,-472.5 2030.5,-502.5 2273.5,-502.5 2273.5,-472.5 2030.5,-472.5"/>
<text text-anchor="start" x="2037.5" y="-483.9" font-family="Arial" font-size="14.00" fill="#000000">id </text>
<text text-anchor="start" x="2052.2798" y="-483.9" font-family="Arial" font-size="14.00" fill="#666666">[varchar(36)]</text>
<polygon fill="none" stroke="#000000" points="2030.5,-442.5 2030.5,-472.5 2273.5,-472.5 2273.5,-442.5 2030.5,-442.5"/>
<text text-anchor="start" x="2037.5" y="-453.9" font-family="Arial" font-size="14.00" fill="#000000">name </text>
<text text-anchor="start" x="2076.399" y="-453.9" font-family="Arial" font-size="14.00" fill="#666666">[varchar(256)]</text>
<polygon fill="none" stroke="#000000" points="2030.5,-412.5 2030.5,-442.5 2273.5,-442.5 2273.5,-412.5 2030.5,-412.5"/>
<text text-anchor="start" x="2037.5" y="-423.9" font-family="Arial" font-size="14.00" fill="#000000">description </text>
<text text-anchor="start" x="2109.068" y="-423.9" font-family="Arial" font-size="14.00" fill="#666666">[text]</text>
<polygon fill="none" stroke="#000000" points="2030.5,-382.5 2030.5,-412.5 2273.5,-412.5 2273.5,-382.5 2030.5,-382.5"/>
<text text-anchor="start" x="2037.5" y="-393.9" font-family="Arial" font-size="14.00" fill="#000000">created_at </text>
<text text-anchor="start" x="2107.528" y="-393.9" font-family="Arial" font-size="14.00" fill="#666666">[datetime]</text>
<polygon fill="none" stroke="#000000" points="2030.5,-352.5 2030.5,-382.5 2273.5,-382.5 2273.5,-352.5 2030.5,-352.5"/>
<text text-anchor="start" x="2037.5" y="-363.9" font-family="Arial" font-size="14.00" fill="#000000">deleted_at </text>
<text text-anchor="start" x="2106.7566" y="-363.9" font-family="Arial" font-size="14.00" fill="#666666">[datetime]</text>
<polygon fill="none" stroke="#000000" points="2030.5,-322.5 2030.5,-352.5 2273.5,-352.5 2273.5,-322.5 2030.5,-322.5"/>
<text text-anchor="start" x="2037.5" y="-333.9" font-family="Arial" font-size="14.00" fill="#000000">visibility_type_id </text>
<text text-anchor="start" x="2142.507" y="-333.9" font-family="Arial" font-size="14.00" fill="#666666">[tinyint(4)]</text>
<polygon fill="none" stroke="#000000" points="2030.5,-292.5 2030.5,-322.5 2273.5,-322.5 2273.5,-292.5 2030.5,-292.5"/>
<text text-anchor="start" x="2037.2371" y="-303.9" font-family="Arial" font-size="14.00" fill="#000000">latest_version_updated_at </text>
<text text-anchor="start" x="2205.3029" y="-303.9" font-family="Arial" font-size="14.00" fill="#666666">[datetime]</text>
<polygon fill="none" stroke="#000000" stroke-width="3" points="2028.5,-291.5 2028.5,-539.5 2274.5,-539.5 2274.5,-291.5 2028.5,-291.5"/>
</g>
<!-- game_visibility_types -->
<g id="node14" class="node">
<title>game_visibility_types</title>
<polygon fill="#efefef" stroke="transparent" points="2011.5,-132.5 2011.5,-167.5 2292.5,-167.5 2292.5,-132.5 2011.5,-132.5"/>
<polygon fill="none" stroke="#000000" points="2011.5,-132.5 2011.5,-167.5 2292.5,-167.5 2292.5,-132.5 2011.5,-132.5"/>
<text text-anchor="start" x="2018.3645" y="-145.3" font-family="Arial Bold" font-size="18.00" fill="#000000">game_visibility_types</text>
<text text-anchor="start" x="2188.3817" y="-145.3" font-family="Arial" font-size="14.00" fill="#000000"> </text>
<text text-anchor="start" x="2192.2723" y="-145.3" font-family="Arial" font-size="14.00" fill="#666666">[BASE TABLE]</text>
<polygon fill="none" stroke="#000000" points="2011.5,-102.5 2011.5,-132.5 2292.5,-132.5 2292.5,-102.5 2011.5,-102.5"/>
<text text-anchor="start" x="2018.5" y="-113.9" font-family="Arial" font-size="14.00" fill="#000000">id </text>
<text text-anchor="start" x="2033.2798" y="-113.9" font-family="Arial" font-size="14.00" fill="#666666">[tinyint(4)]</text>
<polygon fill="none" stroke="#000000" points="2011.5,-72.5 2011.5,-102.5 2292.5,-102.5 2292.5,-72.5 2011.5,-72.5"/>
<text text-anchor="start" x="2018.5" y="-83.9" font-family="Arial" font-size="14.00" fill="#000000">name </text>
<text text-anchor="start" x="2057.399" y="-83.9" font-family="Arial" font-size="14.00" fill="#666666">[varchar(32)]</text>
<polygon fill="none" stroke="#000000" points="2011.5,-42.5 2011.5,-72.5 2292.5,-72.5 2292.5,-42.5 2011.5,-42.5"/>
<text text-anchor="start" x="2018.5" y="-53.9" font-family="Arial" font-size="14.00" fill="#000000">created_at </text>
<text text-anchor="start" x="2088.528" y="-53.9" font-family="Arial" font-size="14.00" fill="#666666">[datetime]</text>
</g>
<!-- games&#45;&gt;game_visibility_types -->
<g id="edge13" class="edge">
<title>games:visibility_type_id&#45;&gt;game_visibility_types:id</title>
<path fill="none" stroke="#000000" d="M2020.4442,-336.7034C1931.1671,-322.3032 1916.8085,-117.5 2011.5,-117.5"/>
<polygon fill="#000000" stroke="#000000" points="2020.5312,-336.7102 2030.1446,-341.9859 2025.5156,-337.1051 2030.5,-337.5 2030.5,-337.5 2030.5,-337.5 2025.5156,-337.1051 2030.8554,-333.0141 2020.5312,-336.7102 2020.5312,-336.7102"/>
<text text-anchor="start" x="1688.7205" y="-347.5" font-family="Arial" font-size="10.00" fill="#000000">FOREIGN KEY (visibility_type_id) REFERENCES game_visibility_types (id)</text>
</g>
<!-- game_creators -->
<g id="node2" class="node">
<title>game_creators</title>
<polygon fill="#efefef" stroke="transparent" points="43.5,-872.5 43.5,-907.5 274.5,-907.5 274.5,-872.5 43.5,-872.5"/>
<polygon fill="none" stroke="#000000" points="43.5,-872.5 43.5,-907.5 274.5,-907.5 274.5,-872.5 43.5,-872.5"/>
<text text-anchor="start" x="50.362" y="-885.3" font-family="Arial Bold" font-size="18.00" fill="#000000">game_creators</text>
<text text-anchor="start" x="170.3842" y="-885.3" font-family="Arial" font-size="14.00" fill="#000000"> </text>
<text text-anchor="start" x="174.2748" y="-885.3" font-family="Arial" font-size="14.00" fill="#666666">[BASE TABLE]</text>
<polygon fill="none" stroke="#000000" points="43.5,-842.5 43.5,-872.5 274.5,-872.5 274.5,-842.5 43.5,-842.5"/>
<text text-anchor="start" x="50.5" y="-853.9" font-family="Arial" font-size="14.00" fill="#000000">id </text>
<text text-anchor="start" x="65.2798" y="-853.9" font-family="Arial" font-size="14.00" fill="#666666">[varchar(36)]</text>
<polygon fill="none" stroke="#000000" points="43.5,-812.5 43.5,-842.5 274.5,-842.5 274.5,-812.5 43.5,-812.5"/>
<text text-anchor="start" x="50.5" y="-823.9" font-family="Arial" font-size="14.00" fill="#000000">game_id </text>
<text text-anchor="start" x="108.0708" y="-823.9" font-family="Arial" font-size="14.00" fill="#666666">[varchar(36)]</text>
<polygon fill="none" stroke="#000000" points="43.5,-782.5 43.5,-812.5 274.5,-812.5 274.5,-782.5 43.5,-782.5"/>
<text text-anchor="start" x="50.5" y="-793.9" font-family="Arial" font-size="14.00" fill="#000000">user_id </text>
<text text-anchor="start" x="100.2882" y="-793.9" font-family="Arial" font-size="14.00" fill="#666666">[varchar(36)]</text>
<polygon fill="none" stroke="#000000" points="43.5,-752.5 43.5,-782.5 274.5,-782.5 274.5,-752.5 43.5,-752.5"/>
<text text-anchor="start" x="50.5" y="-763.9" font-family="Arial" font-size="14.00" fill="#000000">user_name </text>
<text text-anchor="start" x="124.4074" y="-763.9" font-family="Arial" font-size="14.00" fill="#666666">[varchar(32)]</text>
<polygon fill="none" stroke="#000000" points="43.5,-722.5 43.5,-752.5 274.5,-752.5 274.5,-722.5 43.5,-722.5"/>
<text text-anchor="start" x="50.5" y="-733.9" font-family="Arial" font-size="14.00" fill="#000000">created_at </text>
<text text-anchor="start" x="120.528" y="-733.9" font-family="Arial" font-size="14.00" fill="#666666">[datetime]</text>
</g>
<!-- game_creators&#45;&gt;games -->
<g id="edge1" class="edge">
<title>game_creators:game_id&#45;&gt;games:id</title>
<path fill="none" stroke="#000000" d="M284.7004,-826.8448C360.822,-816.2116 256.7079,-678.9554 326.5,-620 471.5726,-497.4529 1840.5951,-487.5 2030.5,-487.5"/>
<polygon fill="#000000" stroke="#000000" points="284.4794,-826.8589 274.2115,-823.0093 279.4897,-827.1794 274.5,-827.5 274.5,-827.5 274.5,-827.5 279.4897,-827.1794 274.7885,-831.9907 284.4794,-826.8589 284.4794,-826.8589"/>
<text text-anchor="start" x="281.886" y="-837.5" font-family="Arial" font-size="10.00" fill="#000000">FOREIGN KEY (game_id) REFERENCES games (id)</text>
</g>
<!-- game_genre_relations -->
<g id="node3" class="node">
<title>game_genre_relations</title>
<polygon fill="#efefef" stroke="transparent" points="378.5,-827.5 378.5,-862.5 668.5,-862.5 668.5,-827.5 378.5,-827.5"/>
<polygon fill="none" stroke="#000000" points="378.5,-827.5 378.5,-862.5 668.5,-862.5 668.5,-827.5 378.5,-827.5"/>
<text text-anchor="start" x="385.3492" y="-840.3" font-family="Arial Bold" font-size="18.00" fill="#000000">game_genre_relations</text>
<text text-anchor="start" x="564.397" y="-840.3" font-family="Arial" font-size="14.00" fill="#000000"> </text>
<text text-anchor="start" x="568.2876" y="-840.3" font-family="Arial" font-size="14.00" fill="#666666">[BASE TABLE]</text>
<polygon fill="none" stroke="#000000" points="378.5,-797.5 378.5,-827.5 668.5,-827.5 668.5,-797.5 378.5,-797.5"/>
<text text-anchor="start" x="385.5" y="-808.9" font-family="Arial" font-size="14.00" fill="#000000">genre_id </text>
<text text-anchor="start" x="443.8534" y="-808.9" font-family="Arial" font-size="14.00" fill="#666666">[varchar(36)]</text>
<polygon fill="none" stroke="#000000" points="378.5,-767.5 378.5,-797.5 668.5,-797.5 668.5,-767.5 378.5,-767.5"/>
<text text-anchor="start" x="385.5" y="-778.9" font-family="Arial" font-size="14.00" fill="#000000">game_id </text>
<text text-anchor="start" x="443.0708" y="-778.9" font-family="Arial" font-size="14.00" fill="#666666">[varchar(36)]</text>
</g>
<!-- game_genre_relations&#45;&gt;games -->
<g id="edge2" class="edge">
<title>game_genre_relations:game_id&#45;&gt;games:id</title>
<path fill="none" stroke="#000000" d="M678.5086,-781.7003C736.5868,-771.4525 664.4588,-665.4063 720.5,-620 834.1702,-527.9009 1884.2018,-487.5 2030.5,-487.5"/>
<polygon fill="#000000" stroke="#000000" points="678.4682,-781.7034 668.1416,-778.0143 673.4841,-782.1017 668.5,-782.5 668.5,-782.5 668.5,-782.5 673.4841,-782.1017 668.8584,-786.9857 678.4682,-781.7034 678.4682,-781.7034"/>
<text text-anchor="start" x="675.886" y="-792.5" font-family="Arial" font-size="10.00" fill="#000000">FOREIGN KEY (game_id) REFERENCES games (id)</text>
</g>
<!-- game_images -->
<g id="node4" class="node">
<title>game_images</title>
<polygon fill="#efefef" stroke="transparent" points="772.5,-857.5 772.5,-892.5 996.5,-892.5 996.5,-857.5 772.5,-857.5"/>
<polygon fill="none" stroke="#000000" points="772.5,-857.5 772.5,-892.5 996.5,-892.5 996.5,-857.5 772.5,-857.5"/>
<text text-anchor="start" x="779.3621" y="-870.3" font-family="Arial Bold" font-size="18.00" fill="#000000">game_images</text>
<text text-anchor="start" x="892.3841" y="-870.3" font-family="Arial" font-size="14.00" fill="#000000"> </text>
<text text-anchor="start" x="896.2747" y="-870.3" font-family="Arial" font-size="14.00" fill="#666666">[BASE TABLE]</text>
<polygon fill="none" stroke="#000000" points="772.5,-827.5 772.5,-857.5 996.5,-857.5 996.5,-827.5 772.5,-827.5"/>
<text text-anchor="start" x="779.5" y="-838.9" font-family="Arial" font-size="14.00" fill="#000000">id </text>
<text text-anchor="start" x="794.2798" y="-838.9" font-family="Arial" font-size="14.00" fill="#666666">[varchar(36)]</text>
<polygon fill="none" stroke="#000000" points="772.5,-797.5 772.5,-827.5 996.5,-827.5 996.5,-797.5 772.5,-797.5"/>
<text text-anchor="start" x="779.5" y="-808.9" font-family="Arial" font-size="14.00" fill="#000000">game_id </text>
<text text-anchor="start" x="837.0708" y="-808.9" font-family="Arial" font-size="14.00" fill="#666666">[varchar(36)]</text>
<polygon fill="none" stroke="#000000" points="772.5,-767.5 772.5,-797.5 996.5,-797.5 996.5,-767.5 772.5,-767.5"/>
<text text-anchor="start" x="779.5" y="-778.9" font-family="Arial" font-size="14.00" fill="#000000">image_type_id </text>
<text text-anchor="start" x="874.4158" y="-778.9" font-family="Arial" font-size="14.00" fill="#666666">[tinyint(4)]</text>
<polygon fill="none" stroke="#000000" points="772.5,-737.5 772.5,-767.5 996.5,-767.5 996.5,-737.5 772.5,-737.5"/>
<text text-anchor="start" x="779.5" y="-748.9" font-family="Arial" font-size="14.00" fill="#000000">created_at </text>
<text text-anchor="start" x="849.528" y="-748.9" font-family="Arial" font-size="14.00" fill="#666666">[datetime]</text>
</g>
<!-- game_images&#45;&gt;games -->
<g id="edge3" class="edge">
<title>game_images:game_id&#45;&gt;games:id</title>
<path fill="none" stroke="#000000" d="M1006.89,-811.7743C1076.5654,-801.1215 984.7665,-675.9596 1048.5,-620 1131.2344,-547.3571 1920.4001,-487.5 2030.5,-487.5"/>
<polygon fill="#000000" stroke="#000000" points="1006.4757,-811.8031 996.1864,-808.0109 1001.4878,-812.1516 996.5,-812.5 996.5,-812.5 996.5,-812.5 1001.4878,-812.1516 996.8136,-816.9891 1006.4757,-811.8031 1006.4757,-811.8031"/>
<text text-anchor="start" x="752.886" y="-822.5" font-family="Arial" font-size="10.00" fill="#000000">FOREIGN KEY (game_id) REFERENCES games (id)</text>
</g>
<!-- game_management_roles -->
<g id="node5" class="node">
<title>game_management_roles</title>
<polygon fill="#efefef" stroke="transparent" points="1100.5,-842.5 1100.5,-877.5 1420.5,-877.5 1420.5,-842.5 1100.5,-842.5"/>
<polygon fill="none" stroke="#000000" points="1100.5,-842.5 1100.5,-877.5 1420.5,-877.5 1420.5,-842.5 1100.5,-842.5"/>
<text text-anchor="start" x="1107.3471" y="-855.3" font-family="Arial Bold" font-size="18.00" fill="#000000">game_management_roles</text>
<text text-anchor="start" x="1316.3991" y="-855.3" font-family="Arial" font-size="14.00" fill="#000000"> </text>
<text text-anchor="start" x="1320.2897" y="-855.3" font-family="Arial" font-size="14.00" fill="#666666">[BASE TABLE]</text>
<polygon fill="none" stroke="#000000" points="1100.5,-812.5 1100.5,-842.5 1420.5,-842.5 1420.5,-812.5 1100.5,-812.5"/>
<text text-anchor="start" x="1107.5" y="-823.9" font-family="Arial" font-size="14.00" fill="#000000">game_id </text>
<text text-anchor="start" x="1165.0708" y="-823.9" font-family="Arial" font-size="14.00" fill="#666666">[varchar(36)]</text>
<polygon fill="none" stroke="#000000" points="1100.5,-782.5 1100.5,-812.5 1420.5,-812.5 1420.5,-782.5 1100.5,-782.5"/>
<text text-anchor="start" x="1107.5" y="-793.9" font-family="Arial" font-size="14.00" fill="#000000">user_id </text>
<text text-anchor="start" x="1157.2882" y="-793.9" font-family="Arial" font-size="14.00" fill="#666666">[varchar(36)]</text>
<polygon fill="none" stroke="#000000" points="1100.5,-752.5 1100.5,-782.5 1420.5,-782.5 1420.5,-752.5 1100.5,-752.5"/>
<text text-anchor="start" x="1107.5" y="-763.9" font-family="Arial" font-size="14.00" fill="#000000">role_type_id </text>
<text text-anchor="start" x="1187.6332" y="-763.9" font-family="Arial" font-size="14.00" fill="#666666">[tinyint(4)]</text>
</g>
<!-- game_management_roles&#45;&gt;games -->
<g id="edge4" class="edge">
<title>game_management_roles:game_id&#45;&gt;games:id</title>
<path fill="none" stroke="#000000" d="M1430.7223,-826.8688C1507.1964,-816.6213 1407.4991,-684.1994 1472.5,-620 1563.1767,-530.4415 1903.0521,-487.5 2030.5,-487.5"/>
<polygon fill="#000000" stroke="#000000" points="1430.481,-826.8836 1420.2226,-823.0086 1425.4905,-827.1918 1420.5,-827.5 1420.5,-827.5 1420.5,-827.5 1425.4905,-827.1918 1420.7774,-831.9914 1430.481,-826.8836 1430.481,-826.8836"/>
<text text-anchor="start" x="1302.386" y="-811.5" font-family="Arial" font-size="10.00" fill="#000000">FOREIGN KEY (game_id) REFERENCES games (id)</text>
</g>
<!-- game_play_logs -->
<g id="node6" class="node">
<title>game_play_logs</title>
<polygon fill="#efefef" stroke="transparent" points="1524.5,-932.5 1524.5,-967.5 1766.5,-967.5 1766.5,-932.5 1524.5,-932.5"/>
<polygon fill="none" stroke="#000000" points="1524.5,-932.5 1524.5,-967.5 1766.5,-967.5 1766.5,-932.5 1524.5,-932.5"/>
<text text-anchor="start" x="1531.3549" y="-945.3" font-family="Arial Bold" font-size="18.00" fill="#000000">game_play_logs</text>
<text text-anchor="start" x="1662.3913" y="-945.3" font-family="Arial" font-size="14.00" fill="#000000"> </text>
<text text-anchor="start" x="1666.2819" y="-945.3" font-family="Arial" font-size="14.00" fill="#666666">[BASE TABLE]</text>
<polygon fill="none" stroke="#000000" points="1524.5,-902.5 1524.5,-932.5 1766.5,-932.5 1766.5,-902.5 1524.5,-902.5"/>
<text text-anchor="start" x="1531.5" y="-913.9" font-family="Arial" font-size="14.00" fill="#000000">id </text>
<text text-anchor="start" x="1546.2798" y="-913.9" font-family="Arial" font-size="14.00" fill="#666666">[varchar(36)]</text>
<polygon fill="none" stroke="#000000" points="1524.5,-872.5 1524.5,-902.5 1766.5,-902.5 1766.5,-872.5 1524.5,-872.5"/>
<text text-anchor="start" x="1531.5" y="-883.9" font-family="Arial" font-size="14.00" fill="#000000">edition_id </text>
<text text-anchor="start" x="1595.2966" y="-883.9" font-family="Arial" font-size="14.00" fill="#666666">[varchar(36)]</text>
<polygon fill="none" stroke="#000000" points="1524.5,-842.5 1524.5,-872.5 1766.5,-872.5 1766.5,-842.5 1524.5,-842.5"/>
<text text-anchor="start" x="1531.5" y="-853.9" font-family="Arial" font-size="14.00" fill="#000000">game_id </text>
<text text-anchor="start" x="1589.0708" y="-853.9" font-family="Arial" font-size="14.00" fill="#666666">[varchar(36)]</text>
<polygon fill="none" stroke="#000000" points="1524.5,-812.5 1524.5,-842.5 1766.5,-842.5 1766.5,-812.5 1524.5,-812.5"/>
<text text-anchor="start" x="1531.5" y="-823.9" font-family="Arial" font-size="14.00" fill="#000000">game_version_id </text>
<text text-anchor="start" x="1641.9684" y="-823.9" font-family="Arial" font-size="14.00" fill="#666666">[varchar(36)]</text>
<polygon fill="none" stroke="#000000" points="1524.5,-782.5 1524.5,-812.5 1766.5,-812.5 1766.5,-782.5 1524.5,-782.5"/>
<text text-anchor="start" x="1531.5" y="-793.9" font-family="Arial" font-size="14.00" fill="#000000">start_time </text>
<text text-anchor="start" x="1596.838" y="-793.9" font-family="Arial" font-size="14.00" fill="#666666">[datetime]</text>
<polygon fill="none" stroke="#000000" points="1524.5,-752.5 1524.5,-782.5 1766.5,-782.5 1766.5,-752.5 1524.5,-752.5"/>
<text text-anchor="start" x="1531.5" y="-763.9" font-family="Arial" font-size="14.00" fill="#000000">end_time </text>
<text text-anchor="start" x="1592.9614" y="-763.9" font-family="Arial" font-size="14.00" fill="#666666">[datetime]</text>
<polygon fill="none" stroke="#000000" points="1524.5,-722.5 1524.5,-752.5 1766.5,-752.5 1766.5,-722.5 1524.5,-722.5"/>
<text text-anchor="start" x="1531.5" y="-733.9" font-family="Arial" font-size="14.00" fill="#000000">created_at </text>
<text text-anchor="start" x="1601.528" y="-733.9" font-family="Arial" font-size="14.00" fill="#666666">[datetime]</text>
<polygon fill="none" stroke="#000000" points="1524.5,-692.5 1524.5,-722.5 1766.5,-722.5 1766.5,-692.5 1524.5,-692.5"/>
<text text-anchor="start" x="1531.5" y="-703.9" font-family="Arial" font-size="14.00" fill="#000000">updated_at </text>
<text text-anchor="start" x="1605.4326" y="-703.9" font-family="Arial" font-size="14.00" fill="#666666">[datetime]</text>
<polygon fill="none" stroke="#000000" points="1524.5,-662.5 1524.5,-692.5 1766.5,-692.5 1766.5,-662.5 1524.5,-662.5"/>
<text text-anchor="start" x="1531.5" y="-673.9" font-family="Arial" font-size="14.00" fill="#000000">deleted_at </text>
<text text-anchor="start" x="1600.7566" y="-673.9" font-family="Arial" font-size="14.00" fill="#666666">[datetime]</text>
</g>
<!-- game_play_logs&#45;&gt;games -->
<g id="edge5" class="edge">
<title>game_play_logs:game_id&#45;&gt;games:id</title>
<path fill="none" stroke="#000000" d="M1776.5296,-857.0143C1866.8992,-847.6611 1758.3225,-705.3948 1818.5,-620 1882.5042,-529.1749 1919.3887,-487.5 2030.5,-487.5"/>
<polygon fill="#000000" stroke="#000000" points="1776.4883,-857.0162 1766.2823,-853.0053 1771.4941,-857.2581 1766.5,-857.5 1766.5,-857.5 1766.5,-857.5 1771.4941,-857.2581 1766.7177,-861.9947 1776.4883,-857.0162 1776.4883,-857.0162"/>
<text text-anchor="start" x="1648.386" y="-841.5" font-family="Arial" font-size="10.00" fill="#000000">FOREIGN KEY (game_id) REFERENCES games (id)</text>
</g>
<!-- game_versions -->
<g id="node7" class="node">
<title>game_versions</title>
<polygon fill="#efefef" stroke="transparent" points="1871.5,-872.5 1871.5,-907.5 2104.5,-907.5 2104.5,-872.5 1871.5,-872.5"/>
<polygon fill="none" stroke="#000000" points="1871.5,-872.5 1871.5,-907.5 2104.5,-907.5 2104.5,-872.5 1871.5,-872.5"/>
<text text-anchor="start" x="1878.3621" y="-885.3" font-family="Arial Bold" font-size="18.00" fill="#000000">game_versions</text>
<text text-anchor="start" x="2000.3841" y="-885.3" font-family="Arial" font-size="14.00" fill="#000000"> </text>
<text text-anchor="start" x="2004.2747" y="-885.3" font-family="Arial" font-size="14.00" fill="#666666">[BASE TABLE]</text>
<polygon fill="none" stroke="#000000" points="1871.5,-842.5 1871.5,-872.5 2104.5,-872.5 2104.5,-842.5 1871.5,-842.5"/>
<text text-anchor="start" x="1878.5" y="-853.9" font-family="Arial" font-size="14.00" fill="#000000">id </text>
<text text-anchor="start" x="1893.2798" y="-853.9" font-family="Arial" font-size="14.00" fill="#666666">[varchar(36)]</text>
<polygon fill="none" stroke="#000000" points="1871.5,-812.5 1871.5,-842.5 2104.5,-842.5 2104.5,-812.5 1871.5,-812.5"/>
<text text-anchor="start" x="1878.5" y="-823.9" font-family="Arial" font-size="14.00" fill="#000000">game_id </text>
<text text-anchor="start" x="1936.0708" y="-823.9" font-family="Arial" font-size="14.00" fill="#666666">[varchar(36)]</text>
<polygon fill="none" stroke="#000000" points="1871.5,-782.5 1871.5,-812.5 2104.5,-812.5 2104.5,-782.5 1871.5,-782.5"/>
<text text-anchor="start" x="1878.5" y="-793.9" font-family="Arial" font-size="14.00" fill="#000000">name </text>
<text text-anchor="start" x="1917.399" y="-793.9" font-family="Arial" font-size="14.00" fill="#666666">[varchar(32)]</text>
<polygon fill="none" stroke="#000000" points="1871.5,-752.5 1871.5,-782.5 2104.5,-782.5 2104.5,-752.5 1871.5,-752.5"/>
<text text-anchor="start" x="1878.5" y="-763.9" font-family="Arial" font-size="14.00" fill="#000000">description </text>
<text text-anchor="start" x="1950.068" y="-763.9" font-family="Arial" font-size="14.00" fill="#666666">[text]</text>
<polygon fill="none" stroke="#000000" points="1871.5,-722.5 1871.5,-752.5 2104.5,-752.5 2104.5,-722.5 1871.5,-722.5"/>
<text text-anchor="start" x="1878.5" y="-733.9" font-family="Arial" font-size="14.00" fill="#000000">created_at </text>
<text text-anchor="start" x="1948.528" y="-733.9" font-family="Arial" font-size="14.00" fill="#666666">[datetime]</text>
</g>
<!-- game_versions&#45;&gt;games -->
<g id="edge6" class="edge">
<title>game_versions:game_id&#45;&gt;games:id</title>
<path fill="none" stroke="#000000" d="M2114.6051,-826.6974C2165.0988,-817.8955 2124.4431,-738.5385 2104.5,-680 2087.1274,-629.0067 2047.8726,-634.9933 2030.5,-584 2016.6691,-543.4024 1987.6111,-487.5 2030.5,-487.5"/>
<polygon fill="#000000" stroke="#000000" points="2114.4686,-826.7081 2104.1437,-823.0141 2109.4843,-827.1041 2104.5,-827.5 2104.5,-827.5 2104.5,-827.5 2109.4843,-827.1041 2104.8563,-831.9859 2114.4686,-826.7081 2114.4686,-826.7081"/>
<text text-anchor="start" x="2111.886" y="-837.5" font-family="Arial" font-size="10.00" fill="#000000">FOREIGN KEY (game_id) REFERENCES games (id)</text>
</g>
<!-- game_videos -->
<g id="node8" class="node">
<title>game_videos</title>
<polygon fill="#efefef" stroke="transparent" points="2208.5,-857.5 2208.5,-892.5 2426.5,-892.5 2426.5,-857.5 2208.5,-857.5"/>
<polygon fill="none" stroke="#000000" points="2208.5,-857.5 2208.5,-892.5 2426.5,-892.5 2426.5,-857.5 2208.5,-857.5"/>
<text text-anchor="start" x="2215.3582" y="-870.3" font-family="Arial Bold" font-size="18.00" fill="#000000">game_videos</text>
<text text-anchor="start" x="2322.388" y="-870.3" font-family="Arial" font-size="14.00" fill="#000000"> </text>
<text text-anchor="start" x="2326.2786" y="-870.3" font-family="Arial" font-size="14.00" fill="#666666">[BASE TABLE]</text>
<polygon fill="none" stroke="#000000" points="2208.5,-827.5 2208.5,-857.5 2426.5,-857.5 2426.5,-827.5 2208.5,-827.5"/>
<text text-anchor="start" x="2215.5" y="-838.9" font-family="Arial" font-size="14.00" fill="#000000">id </text>
<text text-anchor="start" x="2230.2798" y="-838.9" font-family="Arial" font-size="14.00" fill="#666666">[varchar(36)]</text>
<polygon fill="none" stroke="#000000" points="2208.5,-797.5 2208.5,-827.5 2426.5,-827.5 2426.5,-797.5 2208.5,-797.5"/>
<text text-anchor="start" x="2215.5" y="-808.9" font-family="Arial" font-size="14.00" fill="#000000">game_id </text>
<text text-anchor="start" x="2273.0708" y="-808.9" font-family="Arial" font-size="14.00" fill="#666666">[varchar(36)]</text>
<polygon fill="none" stroke="#000000" points="2208.5,-767.5 2208.5,-797.5 2426.5,-797.5 2426.5,-767.5 2208.5,-767.5"/>
<text text-anchor="start" x="2215.5" y="-778.9" font-family="Arial" font-size="14.00" fill="#000000">video_type_id </text>
<text text-anchor="start" x="2305.7552" y="-778.9" font-family="Arial" font-size="14.00" fill="#666666">[tinyint(4)]</text>
<polygon fill="none" stroke="#000000" points="2208.5,-737.5 2208.5,-767.5 2426.5,-767.5 2426.5,-737.5 2208.5,-737.5"/>
<text text-anchor="start" x="2215.5" y="-748.9" font-family="Arial" font-size="14.00" fill="#000000">created_at </text>
<text text-anchor="start" x="2285.528" y="-748.9" font-family="Arial" font-size="14.00" fill="#666666">[datetime]</text>
</g>
<!-- game_videos&#45;&gt;games -->
<g id="edge7" class="edge">
<title>game_videos:game_id&#45;&gt;games:id</title>
<path fill="none" stroke="#000000" d="M2198.3929,-811.9271C2105.683,-800.569 2262.7294,-623.7072 2273.5,-584 2284.7279,-542.6069 2316.3889,-487.5 2273.5,-487.5"/>
<polygon fill="#000000" stroke="#000000" points="2198.516,-811.934 2208.2453,-816.9928 2203.508,-812.217 2208.5,-812.5 2208.5,-812.5 2208.5,-812.5 2203.508,-812.217 2208.7547,-808.0072 2198.516,-811.934 2198.516,-811.934"/>
<text text-anchor="start" x="2215.886" y="-796.5" font-family="Arial" font-size="10.00" fill="#000000">FOREIGN KEY (game_id) REFERENCES games (id)</text>
</g>
<!-- launcher_version_game_relations -->
<g id="node9" class="node">
<title>launcher_version_game_relations</title>
<polygon fill="#efefef" stroke="transparent" points="2531.5,-827.5 2531.5,-862.5 2912.5,-862.5 2912.5,-827.5 2531.5,-827.5"/>
<polygon fill="none" stroke="#000000" points="2531.5,-827.5 2531.5,-862.5 2912.5,-862.5 2912.5,-827.5 2531.5,-827.5"/>
<text text-anchor="start" x="2538.3434" y="-840.3" font-family="Arial Bold" font-size="18.00" fill="#000000">launcher_version_game_relations</text>
<text text-anchor="start" x="2808.4028" y="-840.3" font-family="Arial" font-size="14.00" fill="#000000"> </text>
<text text-anchor="start" x="2812.2934" y="-840.3" font-family="Arial" font-size="14.00" fill="#666666">[BASE TABLE]</text>
<polygon fill="none" stroke="#000000" points="2531.5,-797.5 2531.5,-827.5 2912.5,-827.5 2912.5,-797.5 2531.5,-797.5"/>
<text text-anchor="start" x="2538.5" y="-808.9" font-family="Arial" font-size="14.00" fill="#000000">launcher_version_table_id </text>
<text text-anchor="start" x="2705.7678" y="-808.9" font-family="Arial" font-size="14.00" fill="#666666">[varchar(36)]</text>
<polygon fill="none" stroke="#000000" points="2531.5,-767.5 2531.5,-797.5 2912.5,-797.5 2912.5,-767.5 2531.5,-767.5"/>
<text text-anchor="start" x="2538.5" y="-778.9" font-family="Arial" font-size="14.00" fill="#000000">game_table_id </text>
<text text-anchor="start" x="2634.1984" y="-778.9" font-family="Arial" font-size="14.00" fill="#666666">[varchar(36)]</text>
</g>
<!-- launcher_version_game_relations&#45;&gt;games -->
<g id="edge8" class="edge">
<title>launcher_version_game_relations:game_table_id&#45;&gt;games:id</title>
<path fill="none" stroke="#000000" d="M2521.3808,-781.7851C2462.0263,-772.6094 2522.5812,-677.2534 2478.5,-620 2412.3173,-534.0408 2381.9856,-487.5 2273.5,-487.5"/>
<polygon fill="#000000" stroke="#000000" points="2521.5249,-781.7951 2531.1828,-786.9888 2526.5124,-782.1476 2531.5,-782.5 2531.5,-782.5 2531.5,-782.5 2526.5124,-782.1476 2531.8172,-778.0112 2521.5249,-781.7951 2521.5249,-781.7951"/>
<text text-anchor="start" x="2329.769" y="-766.5" font-family="Arial" font-size="10.00" fill="#000000">FOREIGN KEY (game_table_id) REFERENCES games (id)</text>
</g>
<!-- v2_game_files -->
<g id="node10" class="node">
<title>v2_game_files</title>
<polygon fill="#efefef" stroke="transparent" points="3016.5,-887.5 3016.5,-922.5 3243.5,-922.5 3243.5,-887.5 3016.5,-887.5"/>
<polygon fill="none" stroke="#000000" points="3016.5,-887.5 3016.5,-922.5 3243.5,-922.5 3243.5,-887.5 3016.5,-887.5"/>
<text text-anchor="start" x="3023.36" y="-900.3" font-family="Arial Bold" font-size="18.00" fill="#000000">v2_game_files</text>
<text text-anchor="start" x="3139.3862" y="-900.3" font-family="Arial" font-size="14.00" fill="#000000"> </text>
<text text-anchor="start" x="3143.2768" y="-900.3" font-family="Arial" font-size="14.00" fill="#666666">[BASE TABLE]</text>
<polygon fill="none" stroke="#000000" points="3016.5,-857.5 3016.5,-887.5 3243.5,-887.5 3243.5,-857.5 3016.5,-857.5"/>
<text text-anchor="start" x="3023.5" y="-868.9" font-family="Arial" font-size="14.00" fill="#000000">id </text>
<text text-anchor="start" x="3038.2798" y="-868.9" font-family="Arial" font-size="14.00" fill="#666666">[varchar(36)]</text>
<polygon fill="none" stroke="#000000" points="3016.5,-827.5 3016.5,-857.5 3243.5,-857.5 3243.5,-827.5 3016.5,-827.5"/>
<text text-anchor="start" x="3023.5" y="-838.9" font-family="Arial" font-size="14.00" fill="#000000">game_id </text>
<text text-anchor="start" x="3081.0708" y="-838.9" font-family="Arial" font-size="14.00" fill="#666666">[varchar(36)]</text>
<polygon fill="none" stroke="#000000" points="3016.5,-797.5 3016.5,-827.5 3243.5,-827.5 3243.5,-797.5 3016.5,-797.5"/>
<text text-anchor="start" x="3023.5" y="-808.9" font-family="Arial" font-size="14.00" fill="#000000">file_type_id </text>
<text text-anchor="start" x="3098.1872" y="-808.9" font-family="Arial" font-size="14.00" fill="#666666">[tinyint(4)]</text>
<polygon fill="none" stroke="#000000" points="3016.5,-767.5 3016.5,-797.5 3243.5,-797.5 3243.5,-767.5 3016.5,-767.5"/>
<text text-anchor="start" x="3023.5" y="-778.9" font-family="Arial" font-size="14.00" fill="#000000">hash </text>
<text text-anchor="start" x="3057.7384" y="-778.9" font-family="Arial" font-size="14.00" fill="#666666">[char(32)]</text>
<polygon fill="none" stroke="#000000" points="3016.5,-737.5 3016.5,-767.5 3243.5,-767.5 3243.5,-737.5 3016.5,-737.5"/>
<text text-anchor="start" x="3023.5" y="-748.9" font-family="Arial" font-size="14.00" fill="#000000">entry_point </text>
<text text-anchor="start" x="3096.6346" y="-748.9" font-family="Arial" font-size="14.00" fill="#666666">[text]</text>
<polygon fill="none" stroke="#000000" points="3016.5,-707.5 3016.5,-737.5 3243.5,-737.5 3243.5,-707.5 3016.5,-707.5"/>
<text text-anchor="start" x="3023.5" y="-718.9" font-family="Arial" font-size="14.00" fill="#000000">created_at </text>
<text text-anchor="start" x="3093.528" y="-718.9" font-family="Arial" font-size="14.00" fill="#666666">[datetime]</text>
</g>
<!-- v2_game_files&#45;&gt;games -->
<g id="edge9" class="edge">
<title>v2_game_files:game_id&#45;&gt;games:id</title>
<path fill="none" stroke="#000000" d="M3006.3506,-841.9151C2923.5639,-831.6118 3035.0895,-687.8117 2964.5,-620 2851.7454,-511.6825 2429.8531,-487.5 2273.5,-487.5"/>
<polygon fill="#000000" stroke="#000000" points="3006.5166,-841.9246 3016.2411,-846.9925 3011.5083,-842.2123 3016.5,-842.5 3016.5,-842.5 3016.5,-842.5 3011.5083,-842.2123 3016.7589,-838.0075 3006.5166,-841.9246 3006.5166,-841.9246"/>
<text text-anchor="start" x="2772.886" y="-852.5" font-family="Arial" font-size="10.00" fill="#000000">FOREIGN KEY (game_id) REFERENCES games (id)</text>
</g>
<!-- v2_game_images -->
<g id="node11" class="node">
<title>v2_game_images</title>
<polygon fill="#efefef" stroke="transparent" points="3347.5,-857.5 3347.5,-892.5 3600.5,-892.5 3600.5,-857.5 3347.5,-857.5"/>
<polygon fill="none" stroke="#000000" points="3347.5,-857.5 3347.5,-892.5 3600.5,-892.5 3600.5,-857.5 3347.5,-857.5"/>
<text text-anchor="start" x="3354.3559" y="-870.3" font-family="Arial Bold" font-size="18.00" fill="#000000">v2_game_images</text>
<text text-anchor="start" x="3496.3903" y="-870.3" font-family="Arial" font-size="14.00" fill="#000000"> </text>
<text text-anchor="start" x="3500.2809" y="-870.3" font-family="Arial" font-size="14.00" fill="#666666">[BASE TABLE]</text>
<polygon fill="none" stroke="#000000" points="3347.5,-827.5 3347.5,-857.5 3600.5,-857.5 3600.5,-827.5 3347.5,-827.5"/>
<text text-anchor="start" x="3354.5" y="-838.9" font-family="Arial" font-size="14.00" fill="#000000">id </text>
<text text-anchor="start" x="3369.2798" y="-838.9" font-family="Arial" font-size="14.00" fill="#666666">[varchar(36)]</text>
<polygon fill="none" stroke="#000000" points="3347.5,-797.5 3347.5,-827.5 3600.5,-827.5 3600.5,-797.5 3347.5,-797.5"/>
<text text-anchor="start" x="3354.5" y="-808.9" font-family="Arial" font-size="14.00" fill="#000000">game_id </text>
<text text-anchor="start" x="3412.0708" y="-808.9" font-family="Arial" font-size="14.00" fill="#666666">[varchar(36)]</text>
<polygon fill="none" stroke="#000000" points="3347.5,-767.5 3347.5,-797.5 3600.5,-797.5 3600.5,-767.5 3347.5,-767.5"/>
<text text-anchor="start" x="3354.5" y="-778.9" font-family="Arial" font-size="14.00" fill="#000000">image_type_id </text>
<text text-anchor="start" x="3449.4158" y="-778.9" font-family="Arial" font-size="14.00" fill="#666666">[tinyint(4)]</text>
<polygon fill="none" stroke="#000000" points="3347.5,-737.5 3347.5,-767.5 3600.5,-767.5 3600.5,-737.5 3347.5,-737.5"/>
<text text-anchor="start" x="3354.5" y="-748.9" font-family="Arial" font-size="14.00" fill="#000000">created_at </text>
<text text-anchor="start" x="3424.528" y="-748.9" font-family="Arial" font-size="14.00" fill="#666666">[datetime]</text>
</g>
<!-- v2_game_images&#45;&gt;games -->
<g id="edge10" class="edge">
<title>v2_game_images:game_id&#45;&gt;games:id</title>
<path fill="none" stroke="#000000" d="M3337.1108,-811.7733C3267.4471,-801.1072 3359.3785,-675.794 3295.5,-620 3209.2589,-544.6735 2388.0059,-487.5 2273.5,-487.5"/>
<polygon fill="#000000" stroke="#000000" points="3337.5244,-811.8022 3347.186,-816.989 3342.5122,-812.1511 3347.5,-812.5 3347.5,-812.5 3347.5,-812.5 3342.5122,-812.1511 3347.814,-808.011 3337.5244,-811.8022 3337.5244,-811.8022"/>
<text text-anchor="start" x="3103.886" y="-822.5" font-family="Arial" font-size="10.00" fill="#000000">FOREIGN KEY (game_id) REFERENCES games (id)</text>
</g>
<!-- v2_game_versions -->
<g id="node12" class="node">
<title>v2_game_versions</title>
<polygon fill="#efefef" stroke="transparent" points="3704.5,-917.5 3704.5,-952.5 3966.5,-952.5 3966.5,-917.5 3704.5,-917.5"/>
<polygon fill="none" stroke="#000000" points="3704.5,-917.5 3704.5,-952.5 3966.5,-952.5 3966.5,-917.5 3704.5,-917.5"/>
<text text-anchor="start" x="3711.3559" y="-930.3" font-family="Arial Bold" font-size="18.00" fill="#000000">v2_game_versions</text>
<text text-anchor="start" x="3862.3903" y="-930.3" font-family="Arial" font-size="14.00" fill="#000000"> </text>
<text text-anchor="start" x="3866.2809" y="-930.3" font-family="Arial" font-size="14.00" fill="#666666">[BASE TABLE]</text>
<polygon fill="none" stroke="#000000" points="3704.5,-887.5 3704.5,-917.5 3966.5,-917.5 3966.5,-887.5 3704.5,-887.5"/>
<text text-anchor="start" x="3711.5" y="-898.9" font-family="Arial" font-size="14.00" fill="#000000">id </text>
<text text-anchor="start" x="3726.2798" y="-898.9" font-family="Arial" font-size="14.00" fill="#666666">[varchar(36)]</text>
<polygon fill="none" stroke="#000000" points="3704.5,-857.5 3704.5,-887.5 3966.5,-887.5 3966.5,-857.5 3704.5,-857.5"/>
<text text-anchor="start" x="3711.5" y="-868.9" font-family="Arial" font-size="14.00" fill="#000000">game_id </text>
<text text-anchor="start" x="3769.0708" y="-868.9" font-family="Arial" font-size="14.00" fill="#666666">[varchar(36)]</text>
<polygon fill="none" stroke="#000000" points="3704.5,-827.5 3704.5,-857.5 3966.5,-857.5 3966.5,-827.5 3704.5,-827.5"/>
<text text-anchor="start" x="3711.5" y="-838.9" font-family="Arial" font-size="14.00" fill="#000000">game_image_id </text>
<text text-anchor="start" x="3814.9684" y="-838.9" font-family="Arial" font-size="14.00" fill="#666666">[varchar(36)]</text>
<polygon fill="none" stroke="#000000" points="3704.5,-797.5 3704.5,-827.5 3966.5,-827.5 3966.5,-797.5 3704.5,-797.5"/>
<text text-anchor="start" x="3711.5" y="-808.9" font-family="Arial" font-size="14.00" fill="#000000">game_video_id </text>
<text text-anchor="start" x="3810.3078" y="-808.9" font-family="Arial" font-size="14.00" fill="#666666">[varchar(36)]</text>
<polygon fill="none" stroke="#000000" points="3704.5,-767.5 3704.5,-797.5 3966.5,-797.5 3966.5,-767.5 3704.5,-767.5"/>
<text text-anchor="start" x="3711.5" y="-778.9" font-family="Arial" font-size="14.00" fill="#000000">name </text>
<text text-anchor="start" x="3750.399" y="-778.9" font-family="Arial" font-size="14.00" fill="#666666">[varchar(32)]</text>
<polygon fill="none" stroke="#000000" points="3704.5,-737.5 3704.5,-767.5 3966.5,-767.5 3966.5,-737.5 3704.5,-737.5"/>
<text text-anchor="start" x="3711.5" y="-748.9" font-family="Arial" font-size="14.00" fill="#000000">description </text>
<text text-anchor="start" x="3783.068" y="-748.9" font-family="Arial" font-size="14.00" fill="#666666">[text]</text>
<polygon fill="none" stroke="#000000" points="3704.5,-707.5 3704.5,-737.5 3966.5,-737.5 3966.5,-707.5 3704.5,-707.5"/>
<text text-anchor="start" x="3711.5" y="-718.9" font-family="Arial" font-size="14.00" fill="#000000">created_at </text>
<text text-anchor="start" x="3781.528" y="-718.9" font-family="Arial" font-size="14.00" fill="#666666">[datetime]</text>
<polygon fill="none" stroke="#000000" points="3704.5,-677.5 3704.5,-707.5 3966.5,-707.5 3966.5,-677.5 3704.5,-677.5"/>
<text text-anchor="start" x="3711.5" y="-688.9" font-family="Arial" font-size="14.00" fill="#000000">url </text>
<text text-anchor="start" x="3730.9404" y="-688.9" font-family="Arial" font-size="14.00" fill="#666666">[text]</text>
</g>
<!-- v2_game_versions&#45;&gt;games -->
<g id="edge11" class="edge">
<title>v2_game_versions:game_id&#45;&gt;games:id</title>
<path fill="none" stroke="#000000" d="M3694.512,-871.9929C3598.9341,-861.6006 3735.0828,-694.1644 3652.5,-620 3537.9759,-517.1504 2427.4279,-487.5 2273.5,-487.5"/>
<polygon fill="#000000" stroke="#000000" points="3694.5129,-871.9929 3704.2718,-876.9942 3699.5064,-872.2464 3704.5,-872.5 3704.5,-872.5 3704.5,-872.5 3699.5064,-872.2464 3704.7282,-868.0058 3694.5129,-871.9929 3694.5129,-871.9929"/>
<text text-anchor="start" x="3711.886" y="-882.5" font-family="Arial" font-size="10.00" fill="#000000">FOREIGN KEY (game_id) REFERENCES games (id)</text>
</g>
<!-- v2_game_videos -->
<g id="node13" class="node">
<title>v2_game_videos</title>
<polygon fill="#efefef" stroke="transparent" points="4071.5,-857.5 4071.5,-892.5 4318.5,-892.5 4318.5,-857.5 4071.5,-857.5"/>
<polygon fill="none" stroke="#000000" points="4071.5,-857.5 4071.5,-892.5 4318.5,-892.5 4318.5,-857.5 4071.5,-857.5"/>
<text text-anchor="start" x="4078.352" y="-870.3" font-family="Arial Bold" font-size="18.00" fill="#000000">v2_game_videos</text>
<text text-anchor="start" x="4214.3942" y="-870.3" font-family="Arial" font-size="14.00" fill="#000000"> </text>
<text text-anchor="start" x="4218.2848" y="-870.3" font-family="Arial" font-size="14.00" fill="#666666">[BASE TABLE]</text>
<polygon fill="none" stroke="#000000" points="4071.5,-827.5 4071.5,-857.5 4318.5,-857.5 4318.5,-827.5 4071.5,-827.5"/>
<text text-anchor="start" x="4078.5" y="-838.9" font-family="Arial" font-size="14.00" fill="#000000">id </text>
<text text-anchor="start" x="4093.2798" y="-838.9" font-family="Arial" font-size="14.00" fill="#666666">[varchar(36)]</text>
<polygon fill="none" stroke="#000000" points="4071.5,-797.5 4071.5,-827.5 4318.5,-827.5 4318.5,-797.5 4071.5,-797.5"/>
<text text-anchor="start" x="4078.5" y="-808.9" font-family="Arial" font-size="14.00" fill="#000000">game_id </text>
<text text-anchor="start" x="4136.0708" y="-808.9" font-family="Arial" font-size="14.00" fill="#666666">[varchar(36)]</text>
<polygon fill="none" stroke="#000000" points="4071.5,-767.5 4071.5,-797.5 4318.5,-797.5 4318.5,-767.5 4071.5,-767.5"/>
<text text-anchor="start" x="4078.5" y="-778.9" font-family="Arial" font-size="14.00" fill="#000000">video_type_id </text>
<text text-anchor="start" x="4168.7552" y="-778.9" font-family="Arial" font-size="14.00" fill="#666666">[tinyint(4)]</text>
<polygon fill="none" stroke="#000000" points="4071.5,-737.5 4071.5,-767.5 4318.5,-767.5 4318.5,-737.5 4071.5,-737.5"/>
<text text-anchor="start" x="4078.5" y="-748.9" font-family="Arial" font-size="14.00" fill="#000000">created_at </text>
<text text-anchor="start" x="4148.528" y="-748.9" font-family="Arial" font-size="14.00" fill="#666666">[datetime]</text>
</g>
<!-- v2_game_videos&#45;&gt;games -->
<g id="edge12" class="edge">
<title>v2_game_videos:game_id&#45;&gt;games:id</title>
<path fill="none" stroke="#000000" d="M4061.1009,-811.7633C3991.3999,-800.9522 4084.0552,-673.9902 4018.5,-620 3868.4045,-496.3837 2467.947,-487.5 2273.5,-487.5"/>
<polygon fill="#000000" stroke="#000000" points="4061.525,-811.7933 4071.182,-816.9888 4066.5125,-812.1467 4071.5,-812.5 4071.5,-812.5 4071.5,-812.5 4066.5125,-812.1467 4071.818,-808.0112 4061.525,-811.7933 4061.525,-811.7933"/>
<text text-anchor="start" x="4078.886" y="-822.5" font-family="Arial" font-size="10.00" fill="#000000">FOREIGN KEY (game_id) REFERENCES games (id)</text>
</g>
</g>
</svg>
