<?xml version="1.0" encoding="UTF-8" standalone="no"?>
<!DOCTYPE svg PUBLIC "-//W3C//DTD SVG 1.1//EN"
 "http://www.w3.org/Graphics/SVG/1.1/DTD/svg11.dtd">
<!-- Generated by graphviz version 12.1.2 (20240928.0832)
 -->
<!-- Title: game_genre_relations Pages: 1 -->
<svg width="842pt" height="571pt"
 viewBox="0.00 0.00 841.68 571.20" xmlns="http://www.w3.org/2000/svg" xmlns:xlink="http://www.w3.org/1999/xlink">
<g id="graph0" class="graph" transform="scale(1 1) rotate(0) translate(4 567.2)">
<title>game_genre_relations</title>
<polygon fill="white" stroke="none" points="-4,4 -4,-567.2 837.68,-567.2 837.68,4 -4,4"/>
<!-- game_genre_relations -->
<g id="node1" class="node">
<title>game_genre_relations</title>
<polygon fill="#efefef" stroke="none" points="283.98,-481.4 283.98,-517 581.4,-517 581.4,-481.4 283.98,-481.4"/>
<polygon fill="none" stroke="black" points="283.98,-481.4 283.98,-517 581.4,-517 581.4,-481.4 283.98,-481.4"/>
<text text-anchor="start" x="290.98" y="-494.8" font-family="Arial Bold" font-size="18.00">game_genre_relations</text>
<text text-anchor="start" x="449.91" y="-494.8" font-family="Arial" font-size="14.00">    </text>
<text text-anchor="start" x="481.03" y="-494.8" font-family="Arial" font-size="14.00" fill="#666666">[BASE TABLE]</text>
<polygon fill="none" stroke="black" points="283.98,-450.6 283.98,-481.4 581.4,-481.4 581.4,-450.6 283.98,-450.6"/>
<text text-anchor="start" x="290.98" y="-462.8" font-family="Arial" font-size="14.00">genre_id </text>
<text text-anchor="start" x="349.36" y="-462.8" font-family="Arial" font-size="14.00" fill="#666666">[varchar(36)]</text>
<polygon fill="none" stroke="black" points="283.98,-419.8 283.98,-450.6 581.4,-450.6 581.4,-419.8 283.98,-419.8"/>
<text text-anchor="start" x="290.98" y="-432" font-family="Arial" font-size="14.00">game_id </text>
<text text-anchor="start" x="348.57" y="-432" font-family="Arial" font-size="14.00" fill="#666666">[varchar(36)]</text>
<polygon fill="none" stroke="black" stroke-width="3" points="282.48,-418.3 282.48,-518.5 582.9,-518.5 582.9,-418.3 282.48,-418.3"/>
</g>
<!-- game_genres -->
<g id="node2" class="node">
<title>game_genres</title>
<polygon fill="#efefef" stroke="none" points="144.97,-197.2 144.97,-232.8 378.41,-232.8 378.41,-197.2 144.97,-197.2"/>
<polygon fill="none" stroke="black" points="144.97,-197.2 144.97,-232.8 378.41,-232.8 378.41,-197.2 144.97,-197.2"/>
<text text-anchor="start" x="151.97" y="-210.6" font-family="Arial Bold" font-size="18.00">game_genres</text>
<text text-anchor="start" x="246.92" y="-210.6" font-family="Arial" font-size="14.00">    </text>
<text text-anchor="start" x="278.04" y="-210.6" font-family="Arial" font-size="14.00" fill="#666666">[BASE TABLE]</text>
<polygon fill="none" stroke="black" points="144.97,-166.4 144.97,-197.2 378.41,-197.2 378.41,-166.4 144.97,-166.4"/>
<text text-anchor="start" x="151.97" y="-178.6" font-family="Arial" font-size="14.00">id </text>
<text text-anchor="start" x="166.75" y="-178.6" font-family="Arial" font-size="14.00" fill="#666666">[varchar(36)]</text>
<polygon fill="none" stroke="black" points="144.97,-135.6 144.97,-166.4 378.41,-166.4 378.41,-135.6 144.97,-135.6"/>
<text text-anchor="start" x="151.97" y="-147.8" font-family="Arial" font-size="14.00">name </text>
<text text-anchor="start" x="190.88" y="-147.8" font-family="Arial" font-size="14.00" fill="#666666">[varchar(32)]</text>
<polygon fill="none" stroke="black" points="144.97,-104.8 144.97,-135.6 378.41,-135.6 378.41,-104.8 144.97,-104.8"/>
<text text-anchor="start" x="151.97" y="-117" font-family="Arial" font-size="14.00">created_at </text>
<text text-anchor="start" x="222.02" y="-117" font-family="Arial" font-size="14.00" fill="#666666">[datetime]</text>
</g>
<!-- game_genre_relations&#45;&gt;game_genres -->
<g id="edge1" class="edge">
<title>game_genre_relations:genre_id&#45;&gt;game_genres:id</title>
<path fill="none" stroke="black" d="M272.81,-464.51C246.97,-455.53 269.89,-407.88 283.98,-373.6 306.92,-317.77 355.48,-331.83 378.41,-276 394.32,-237.27 421.28,-181.8 379.41,-181.8"/>
<polygon fill="black" stroke="black" points="272.75,-464.5 282,-470.4 278.03,-465.27 282.32,-465.9 282.32,-465.9 282.32,-465.9 278.03,-465.27 283.3,-461.5 272.75,-464.5"/>
<text text-anchor="start" x="7" y="-476" font-family="Arial" font-size="10.00">FOREIGN KEY (genre_id) REFERENCES game_genres (id)</text>
</g>
<!-- games -->
<g id="node3" class="node">
<title>games</title>
<polygon fill="#efefef" stroke="none" points="482.89,-258.8 482.89,-294.4 726.49,-294.4 726.49,-258.8 482.89,-258.8"/>
<polygon fill="none" stroke="black" points="482.89,-258.8 482.89,-294.4 726.49,-294.4 726.49,-258.8 482.89,-258.8"/>
<text text-anchor="start" x="519.45" y="-272.2" font-family="Arial Bold" font-size="18.00">games</text>
<text text-anchor="start" x="565.44" y="-272.2" font-family="Arial" font-size="14.00">    </text>
<text text-anchor="start" x="596.56" y="-272.2" font-family="Arial" font-size="14.00" fill="#666666">[BASE TABLE]</text>
<polygon fill="none" stroke="black" points="482.89,-228 482.89,-258.8 726.49,-258.8 726.49,-228 482.89,-228"/>
<text text-anchor="start" x="489.89" y="-240.2" font-family="Arial" font-size="14.00">id </text>
<text text-anchor="start" x="504.68" y="-240.2" font-family="Arial" font-size="14.00" fill="#666666">[varchar(36)]</text>
<polygon fill="none" stroke="black" points="482.89,-197.2 482.89,-228 726.49,-228 726.49,-197.2 482.89,-197.2"/>
<text text-anchor="start" x="489.89" y="-209.4" font-family="Arial" font-size="14.00">name </text>
<text text-anchor="start" x="528.8" y="-209.4" font-family="Arial" font-size="14.00" fill="#666666">[varchar(256)]</text>
<polygon fill="none" stroke="black" points="482.89,-166.4 482.89,-197.2 726.49,-197.2 726.49,-166.4 482.89,-166.4"/>
<text text-anchor="start" x="489.89" y="-178.6" font-family="Arial" font-size="14.00">description </text>
<text text-anchor="start" x="561.48" y="-178.6" font-family="Arial" font-size="14.00" fill="#666666">[text]</text>
<polygon fill="none" stroke="black" points="482.89,-135.6 482.89,-166.4 726.49,-166.4 726.49,-135.6 482.89,-135.6"/>
<text text-anchor="start" x="489.89" y="-147.8" font-family="Arial" font-size="14.00">created_at </text>
<text text-anchor="start" x="559.94" y="-147.8" font-family="Arial" font-size="14.00" fill="#666666">[datetime]</text>
<polygon fill="none" stroke="black" points="482.89,-104.8 482.89,-135.6 726.49,-135.6 726.49,-104.8 482.89,-104.8"/>
<text text-anchor="start" x="489.89" y="-117" font-family="Arial" font-size="14.00">deleted_at </text>
<text text-anchor="start" x="559.17" y="-117" font-family="Arial" font-size="14.00" fill="#666666">[datetime]</text>
<polygon fill="none" stroke="black" points="482.89,-74 482.89,-104.8 726.49,-104.8 726.49,-74 482.89,-74"/>
<text text-anchor="start" x="489.89" y="-86.2" font-family="Arial" font-size="14.00">visibility_type_id </text>
<text text-anchor="start" x="594.94" y="-86.2" font-family="Arial" font-size="14.00" fill="#666666">[tinyint(4)]</text>
<polygon fill="none" stroke="black" points="482.89,-43.2 482.89,-74 726.49,-74 726.49,-43.2 482.89,-43.2"/>
<text text-anchor="start" x="489.89" y="-55.4" font-family="Arial" font-size="14.00">latest_version_updated_at </text>
<text text-anchor="start" x="658.01" y="-55.4" font-family="Arial" font-size="14.00" fill="#666666">[datetime]</text>
</g>
<!-- game_genre_relations&#45;&gt;games -->
<g id="edge2" class="edge">
<title>game_genre_relations:game_id&#45;&gt;games:id</title>
<path fill="none" stroke="black" d="M592.45,-432.54C605.79,-423.34 594.79,-392.43 581.4,-373.6 554.38,-335.62 509.81,-375.66 482.89,-337.6 458.72,-303.42 440.02,-243.4 481.89,-243.4"/>
<polygon fill="black" stroke="black" points="592.39,-432.55 581.57,-430.76 587.23,-433.92 583.05,-435.03 583.05,-435.03 583.05,-435.03 587.23,-433.92 583.88,-439.46 592.39,-432.55"/>
<text text-anchor="start" x="589.4" y="-445.2" font-family="Arial" font-size="10.00">FOREIGN KEY (game_id) REFERENCES games (id)</text>
</g>
</g>
</svg>
