<?xml version="1.0" encoding="UTF-8" standalone="no"?>
<!DOCTYPE svg PUBLIC "-//W3C//DTD SVG 1.1//EN"
 "http://www.w3.org/Graphics/SVG/1.1/DTD/svg11.dtd">
<!-- Generated by graphviz version 2.40.1 (20161225.0304)
 -->
<!-- Title: game_creator_custom_jobs Pages: 1 -->
<svg width="670pt" height="839pt"
 viewBox="0.00 0.00 670.00 839.00" xmlns="http://www.w3.org/2000/svg" xmlns:xlink="http://www.w3.org/1999/xlink">
<g id="graph0" class="graph" transform="scale(1 1) rotate(0) translate(4 835)">
<title>game_creator_custom_jobs</title>
<polygon fill="#ffffff" stroke="transparent" points="-4,4 -4,-835 666,-835 666,4 -4,4"/>
<!-- game_creator_custom_jobs -->
<g id="node1" class="node">
<title>game_creator_custom_jobs</title>
<polygon fill="#efefef" stroke="transparent" points="251,-532.5 251,-567.5 584,-567.5 584,-532.5 251,-532.5"/>
<polygon fill="none" stroke="#000000" points="251,-532.5 251,-567.5 584,-567.5 584,-532.5 251,-532.5"/>
<text text-anchor="start" x="257.8491" y="-545.3" font-family="Arial Bold" font-size="18.00" fill="#000000">game_creator_custom_jobs</text>
<text text-anchor="start" x="479.8971" y="-545.3" font-family="Arial" font-size="14.00" fill="#000000"> </text>
<text text-anchor="start" x="483.7877" y="-545.3" font-family="Arial" font-size="14.00" fill="#666666">[BASE TABLE]</text>
<polygon fill="none" stroke="#000000" points="251,-502.5 251,-532.5 584,-532.5 584,-502.5 251,-502.5"/>
<text text-anchor="start" x="258" y="-513.9" font-family="Arial" font-size="14.00" fill="#000000">id </text>
<text text-anchor="start" x="272.7798" y="-513.9" font-family="Arial" font-size="14.00" fill="#666666">[varchar(36)]</text>
<polygon fill="none" stroke="#000000" points="251,-472.5 251,-502.5 584,-502.5 584,-472.5 251,-472.5"/>
<text text-anchor="start" x="258" y="-483.9" font-family="Arial" font-size="14.00" fill="#000000">game_id </text>
<text text-anchor="start" x="315.5708" y="-483.9" font-family="Arial" font-size="14.00" fill="#666666">[varchar(36)]</text>
<polygon fill="none" stroke="#000000" points="251,-442.5 251,-472.5 584,-472.5 584,-442.5 251,-442.5"/>
<text text-anchor="start" x="258" y="-453.9" font-family="Arial" font-size="14.00" fill="#000000">display_name </text>
<text text-anchor="start" x="348.2426" y="-453.9" font-family="Arial" font-size="14.00" fill="#666666">[varchar(64)]</text>
<polygon fill="none" stroke="#000000" points="251,-412.5 251,-442.5 584,-442.5 584,-412.5 251,-412.5"/>
<text text-anchor="start" x="258" y="-423.9" font-family="Arial" font-size="14.00" fill="#000000">created_at </text>
<text text-anchor="start" x="328.028" y="-423.9" font-family="Arial" font-size="14.00" fill="#666666">[datetime]</text>
<polygon fill="none" stroke="#000000" stroke-width="3" points="249,-411.5 249,-569.5 585,-569.5 585,-411.5 249,-411.5"/>
</g>
<!-- games -->
<g id="node3" class="node">
<title>games</title>
<polygon fill="#efefef" stroke="transparent" points="296,-252.5 296,-287.5 539,-287.5 539,-252.5 296,-252.5"/>
<polygon fill="none" stroke="#000000" points="296,-252.5 296,-287.5 539,-287.5 539,-252.5 296,-252.5"/>
<text text-anchor="start" x="341.8677" y="-265.3" font-family="Arial Bold" font-size="18.00" fill="#000000">games</text>
<text text-anchor="start" x="395.8785" y="-265.3" font-family="Arial" font-size="14.00" fill="#000000"> </text>
<text text-anchor="start" x="399.7691" y="-265.3" font-family="Arial" font-size="14.00" fill="#666666">[BASE TABLE]</text>
<polygon fill="none" stroke="#000000" points="296,-222.5 296,-252.5 539,-252.5 539,-222.5 296,-222.5"/>
<text text-anchor="start" x="303" y="-233.9" font-family="Arial" font-size="14.00" fill="#000000">id </text>
<text text-anchor="start" x="317.7798" y="-233.9" font-family="Arial" font-size="14.00" fill="#666666">[varchar(36)]</text>
<polygon fill="none" stroke="#000000" points="296,-192.5 296,-222.5 539,-222.5 539,-192.5 296,-192.5"/>
<text text-anchor="start" x="303" y="-203.9" font-family="Arial" font-size="14.00" fill="#000000">name </text>
<text text-anchor="start" x="341.899" y="-203.9" font-family="Arial" font-size="14.00" fill="#666666">[varchar(256)]</text>
<polygon fill="none" stroke="#000000" points="296,-162.5 296,-192.5 539,-192.5 539,-162.5 296,-162.5"/>
<text text-anchor="start" x="303" y="-173.9" font-family="Arial" font-size="14.00" fill="#000000">description </text>
<text text-anchor="start" x="374.568" y="-173.9" font-family="Arial" font-size="14.00" fill="#666666">[text]</text>
<polygon fill="none" stroke="#000000" points="296,-132.5 296,-162.5 539,-162.5 539,-132.5 296,-132.5"/>
<text text-anchor="start" x="303" y="-143.9" font-family="Arial" font-size="14.00" fill="#000000">created_at </text>
<text text-anchor="start" x="373.028" y="-143.9" font-family="Arial" font-size="14.00" fill="#666666">[datetime]</text>
<polygon fill="none" stroke="#000000" points="296,-102.5 296,-132.5 539,-132.5 539,-102.5 296,-102.5"/>
<text text-anchor="start" x="303" y="-113.9" font-family="Arial" font-size="14.00" fill="#000000">deleted_at </text>
<text text-anchor="start" x="372.2566" y="-113.9" font-family="Arial" font-size="14.00" fill="#666666">[datetime]</text>
<polygon fill="none" stroke="#000000" points="296,-72.5 296,-102.5 539,-102.5 539,-72.5 296,-72.5"/>
<text text-anchor="start" x="303" y="-83.9" font-family="Arial" font-size="14.00" fill="#000000">visibility_type_id </text>
<text text-anchor="start" x="408.007" y="-83.9" font-family="Arial" font-size="14.00" fill="#666666">[tinyint(4)]</text>
<polygon fill="none" stroke="#000000" points="296,-42.5 296,-72.5 539,-72.5 539,-42.5 296,-42.5"/>
<text text-anchor="start" x="302.7371" y="-53.9" font-family="Arial" font-size="14.00" fill="#000000">latest_version_updated_at </text>
<text text-anchor="start" x="470.8029" y="-53.9" font-family="Arial" font-size="14.00" fill="#666666">[datetime]</text>
</g>
<!-- game_creator_custom_jobs&#45;&gt;games -->
<g id="edge2" class="edge">
<title>game_creator_custom_jobs:game_id&#45;&gt;games:id</title>
<path fill="none" stroke="#000000" d="M240.8758,-486.7828C140.982,-472.1191 186.6313,-237.5 296,-237.5"/>
<polygon fill="#000000" stroke="#000000" points="241.025,-486.7933 250.682,-491.9888 246.0125,-487.1467 251,-487.5 251,-487.5 251,-487.5 246.0125,-487.1467 251.318,-483.0112 241.025,-486.7933 241.025,-486.7933"/>
<text text-anchor="start" x="7.386" y="-497.5" font-family="Arial" font-size="10.00" fill="#000000">FOREIGN KEY (game_id) REFERENCES games (id)</text>
</g>
<!-- game_creator_custom_job_relations -->
<g id="node2" class="node">
<title>game_creator_custom_job_relations</title>
<polygon fill="#efefef" stroke="transparent" points="217,-752.5 217,-787.5 619,-787.5 619,-752.5 217,-752.5"/>
<polygon fill="none" stroke="#000000" points="217,-752.5 217,-787.5 619,-787.5 619,-752.5 217,-752.5"/>
<text text-anchor="start" x="223.8422" y="-765.3" font-family="Arial Bold" font-size="18.00" fill="#000000">game_creator_custom_job_relations</text>
<text text-anchor="start" x="514.904" y="-765.3" font-family="Arial" font-size="14.00" fill="#000000"> </text>
<text text-anchor="start" x="518.7946" y="-765.3" font-family="Arial" font-size="14.00" fill="#666666">[BASE TABLE]</text>
<polygon fill="none" stroke="#000000" points="217,-722.5 217,-752.5 619,-752.5 619,-722.5 217,-722.5"/>
<text text-anchor="start" x="224" y="-733.9" font-family="Arial" font-size="14.00" fill="#000000">game_creator_id </text>
<text text-anchor="start" x="332.913" y="-733.9" font-family="Arial" font-size="14.00" fill="#666666">[varchar(36)]</text>
<polygon fill="none" stroke="#000000" points="217,-692.5 217,-722.5 619,-722.5 619,-692.5 217,-692.5"/>
<text text-anchor="start" x="224" y="-703.9" font-family="Arial" font-size="14.00" fill="#000000">custom_job_id </text>
<text text-anchor="start" x="318.1332" y="-703.9" font-family="Arial" font-size="14.00" fill="#666666">[varchar(36)]</text>
</g>
<!-- game_creator_custom_job_relations&#45;&gt;game_creator_custom_jobs -->
<g id="edge1" class="edge">
<title>game_creator_custom_job_relations:custom_job_id&#45;&gt;game_creator_custom_jobs:id</title>
<path fill="none" stroke="#000000" d="M418.7224,-682.4052C428.8324,-617.0783 542.2976,-679.851 584,-614 606.9465,-577.7659 626.8889,-517.5 584,-517.5"/>
<polygon fill="#000000" stroke="#000000" points="418.7139,-682.5255 413.5115,-692.1788 418.3569,-687.5128 418,-692.5 418,-692.5 418,-692.5 418.3569,-687.5128 422.4885,-692.8212 418.7139,-682.5255 418.7139,-682.5255"/>
<text text-anchor="start" x="54.651" y="-702.5" font-family="Arial" font-size="10.00" fill="#000000">FOREIGN KEY (custom_job_id) REFERENCES game_creator_custom_jobs (id)</text>
</g>
</g>
</svg>
