<?xml version="1.0" encoding="UTF-8" standalone="no"?>
<!DOCTYPE svg PUBLIC "-//W3C//DTD SVG 1.1//EN"
 "http://www.w3.org/Graphics/SVG/1.1/DTD/svg11.dtd">
<!-- Generated by graphviz version 12.1.2 (20240928.0832)
 -->
<!-- Title: game_feedbacks Pages: 1 -->
<svg width="684pt" height="945pt"
 viewBox="0.00 0.00 683.61 944.80" xmlns="http://www.w3.org/2000/svg" xmlns:xlink="http://www.w3.org/1999/xlink">
<g id="graph0" class="graph" transform="scale(1 1) rotate(0) translate(4 940.8)">
<title>game_feedbacks</title>
<polygon fill="white" stroke="none" points="-4,4 -4,-940.8 679.61,-940.8 679.61,4 -4,4"/>
<!-- game_feedbacks -->
<g id="node1" class="node">
<title>game_feedbacks</title>
<polygon fill="#efefef" stroke="none" points="73.19,-573.8 73.19,-609.4 331.61,-609.4 331.61,-573.8 73.19,-573.8"/>
<polygon fill="none" stroke="black" points="73.19,-573.8 73.19,-609.4 331.61,-609.4 331.61,-573.8 73.19,-573.8"/>
<text text-anchor="start" x="80.19" y="-587.2" font-family="Arial Bold" font-size="18.00">game_feedbacks</text>
<text text-anchor="start" x="200.12" y="-587.2" font-family="Arial" font-size="14.00">    </text>
<text text-anchor="start" x="231.24" y="-587.2" font-family="Arial" font-size="14.00" fill="#666666">[BASE TABLE]</text>
<polygon fill="none" stroke="black" points="73.19,-543 73.19,-573.8 331.61,-573.8 331.61,-543 73.19,-543"/>
<text text-anchor="start" x="80.19" y="-555.2" font-family="Arial" font-size="14.00">id </text>
<text text-anchor="start" x="94.97" y="-555.2" font-family="Arial" font-size="14.00" fill="#666666">[varchar(36)]</text>
<polygon fill="none" stroke="black" points="73.19,-512.2 73.19,-543 331.61,-543 331.61,-512.2 73.19,-512.2"/>
<text text-anchor="start" x="80.19" y="-524.4" font-family="Arial" font-size="14.00">game_version_id </text>
<text text-anchor="start" x="190.7" y="-524.4" font-family="Arial" font-size="14.00" fill="#666666">[varchar(36)]</text>
<polygon fill="none" stroke="black" points="73.19,-481.4 73.19,-512.2 331.61,-512.2 331.61,-481.4 73.19,-481.4"/>
<text text-anchor="start" x="80.19" y="-493.6" font-family="Arial" font-size="14.00">comment </text>
<text text-anchor="start" x="141.65" y="-493.6" font-family="Arial" font-size="14.00" fill="#666666">[text]</text>
<polygon fill="none" stroke="black" points="73.19,-450.6 73.19,-481.4 331.61,-481.4 331.61,-450.6 73.19,-450.6"/>
<text text-anchor="start" x="80.19" y="-462.8" font-family="Arial" font-size="14.00">created_at </text>
<text text-anchor="start" x="150.24" y="-462.8" font-family="Arial" font-size="14.00" fill="#666666">[datetime]</text>
<polygon fill="none" stroke="black" stroke-width="3" points="71.69,-449.1 71.69,-610.9 333.11,-610.9 333.11,-449.1 71.69,-449.1"/>
</g>
<!-- v2_game_versions -->
<g id="node3" class="node">
<title>v2_game_versions</title>
<polygon fill="#efefef" stroke="none" points="65.67,-289.6 65.67,-325.2 339.13,-325.2 339.13,-289.6 65.67,-289.6"/>
<polygon fill="none" stroke="black" points="65.67,-289.6 65.67,-325.2 339.13,-325.2 339.13,-289.6 65.67,-289.6"/>
<text text-anchor="start" x="72.67" y="-303" font-family="Arial Bold" font-size="18.00">v2_game_versions</text>
<text text-anchor="start" x="207.64" y="-303" font-family="Arial" font-size="14.00">    </text>
<text text-anchor="start" x="238.76" y="-303" font-family="Arial" font-size="14.00" fill="#666666">[BASE TABLE]</text>
<polygon fill="none" stroke="black" points="65.67,-258.8 65.67,-289.6 339.13,-289.6 339.13,-258.8 65.67,-258.8"/>
<text text-anchor="start" x="72.67" y="-271" font-family="Arial" font-size="14.00">id </text>
<text text-anchor="start" x="87.46" y="-271" font-family="Arial" font-size="14.00" fill="#666666">[varchar(36)]</text>
<polygon fill="none" stroke="black" points="65.67,-228 65.67,-258.8 339.13,-258.8 339.13,-228 65.67,-228"/>
<text text-anchor="start" x="72.67" y="-240.2" font-family="Arial" font-size="14.00">game_id </text>
<text text-anchor="start" x="130.26" y="-240.2" font-family="Arial" font-size="14.00" fill="#666666">[varchar(36)]</text>
<polygon fill="none" stroke="black" points="65.67,-197.2 65.67,-228 339.13,-228 339.13,-197.2 65.67,-197.2"/>
<text text-anchor="start" x="72.67" y="-209.4" font-family="Arial" font-size="14.00">game_image_id </text>
<text text-anchor="start" x="176.18" y="-209.4" font-family="Arial" font-size="14.00" fill="#666666">[varchar(36)]</text>
<polygon fill="none" stroke="black" points="65.67,-166.4 65.67,-197.2 339.13,-197.2 339.13,-166.4 65.67,-166.4"/>
<text text-anchor="start" x="72.67" y="-178.6" font-family="Arial" font-size="14.00">game_video_id </text>
<text text-anchor="start" x="171.52" y="-178.6" font-family="Arial" font-size="14.00" fill="#666666">[varchar(36)]</text>
<polygon fill="none" stroke="black" points="65.67,-135.6 65.67,-166.4 339.13,-166.4 339.13,-135.6 65.67,-135.6"/>
<text text-anchor="start" x="72.67" y="-147.8" font-family="Arial" font-size="14.00">name </text>
<text text-anchor="start" x="111.58" y="-147.8" font-family="Arial" font-size="14.00" fill="#666666">[varchar(32)]</text>
<polygon fill="none" stroke="black" points="65.67,-104.8 65.67,-135.6 339.13,-135.6 339.13,-104.8 65.67,-104.8"/>
<text text-anchor="start" x="72.67" y="-117" font-family="Arial" font-size="14.00">description </text>
<text text-anchor="start" x="144.26" y="-117" font-family="Arial" font-size="14.00" fill="#666666">[text]</text>
<polygon fill="none" stroke="black" points="65.67,-74 65.67,-104.8 339.13,-104.8 339.13,-74 65.67,-74"/>
<text text-anchor="start" x="72.67" y="-86.2" font-family="Arial" font-size="14.00">created_at </text>
<text text-anchor="start" x="142.72" y="-86.2" font-family="Arial" font-size="14.00" fill="#666666">[datetime]</text>
<polygon fill="none" stroke="black" points="65.67,-43.2 65.67,-74 339.13,-74 339.13,-43.2 65.67,-43.2"/>
<text text-anchor="start" x="72.67" y="-55.4" font-family="Arial" font-size="14.00">url </text>
<text text-anchor="start" x="92.12" y="-55.4" font-family="Arial" font-size="14.00" fill="#666666">[text]</text>
</g>
<!-- game_feedbacks&#45;&gt;v2_game_versions -->
<g id="edge2" class="edge">
<title>game_feedbacks:game_version_id&#45;&gt;v2_game_versions:id</title>
<path fill="none" stroke="black" d="M342.87,-526.87C445.64,-512.01 449.28,-274.2 340.13,-274.2"/>
<polygon fill="black" stroke="black" points="342.92,-526.87 332.63,-523.09 337.6,-527.25 333.28,-527.55 333.28,-527.55 333.28,-527.55 337.6,-527.25 333.26,-532.07 342.92,-526.87"/>
<text text-anchor="start" x="339.61" y="-537.6" font-family="Arial" font-size="10.00">FOREIGN KEY (game_version_id) REFERENCES v2_game_versions (id)</text>
</g>
<!-- game_feedback_answers -->
<g id="node2" class="node">
<title>game_feedback_answers</title>
<polygon fill="#efefef" stroke="none" points="43.2,-858 43.2,-893.6 361.6,-893.6 361.6,-858 43.2,-858"/>
<polygon fill="none" stroke="black" points="43.2,-858 43.2,-893.6 361.6,-893.6 361.6,-858 43.2,-858"/>
<text text-anchor="start" x="50.2" y="-871.4" font-family="Arial Bold" font-size="18.00">game_feedback_answers</text>
<text text-anchor="start" x="230.11" y="-871.4" font-family="Arial" font-size="14.00">    </text>
<text text-anchor="start" x="261.23" y="-871.4" font-family="Arial" font-size="14.00" fill="#666666">[BASE TABLE]</text>
<polygon fill="none" stroke="black" points="43.2,-827.2 43.2,-858 361.6,-858 361.6,-827.2 43.2,-827.2"/>
<text text-anchor="start" x="50.2" y="-839.4" font-family="Arial" font-size="14.00">id </text>
<text text-anchor="start" x="64.99" y="-839.4" font-family="Arial" font-size="14.00" fill="#666666">[varchar(36)]</text>
<polygon fill="none" stroke="black" points="43.2,-796.4 43.2,-827.2 361.6,-827.2 361.6,-796.4 43.2,-796.4"/>
<text text-anchor="start" x="50.2" y="-808.6" font-family="Arial" font-size="14.00">feedback_id </text>
<text text-anchor="start" x="129.59" y="-808.6" font-family="Arial" font-size="14.00" fill="#666666">[varchar(36)]</text>
<polygon fill="none" stroke="black" points="43.2,-765.6 43.2,-796.4 361.6,-796.4 361.6,-765.6 43.2,-765.6"/>
<text text-anchor="start" x="50.2" y="-777.8" font-family="Arial" font-size="14.00">question_id </text>
<text text-anchor="start" x="125.7" y="-777.8" font-family="Arial" font-size="14.00" fill="#666666">[varchar(36)]</text>
<polygon fill="none" stroke="black" points="43.2,-734.8 43.2,-765.6 361.6,-765.6 361.6,-734.8 43.2,-734.8"/>
<text text-anchor="start" x="50.2" y="-747" font-family="Arial" font-size="14.00">answer </text>
<text text-anchor="start" x="99.22" y="-747" font-family="Arial" font-size="14.00" fill="#666666">[bigint(20)]</text>
</g>
<!-- game_feedback_answers&#45;&gt;game_feedbacks -->
<g id="edge1" class="edge">
<title>game_feedback_answers:feedback_id&#45;&gt;game_feedbacks:id</title>
<path fill="none" stroke="black" d="M372.82,-811.07C474.05,-796.21 442.48,-558.4 332.61,-558.4"/>
<polygon fill="black" stroke="black" points="372.91,-811.07 362.62,-807.29 367.59,-811.45 363.27,-811.75 363.27,-811.75 363.27,-811.75 367.59,-811.45 363.25,-816.26 372.91,-811.07"/>
<text text-anchor="start" x="369.6" y="-821.8" font-family="Arial" font-size="10.00">FOREIGN KEY (feedback_id) REFERENCES game_feedbacks (id)</text>
</g>
</g>
</svg>
