<?xml version="1.0" encoding="UTF-8" standalone="no"?>
<!DOCTYPE svg PUBLIC "-//W3C//DTD SVG 1.1//EN"
 "http://www.w3.org/Graphics/SVG/1.1/DTD/svg11.dtd">
<!-- Generated by graphviz version 2.40.1 (20161225.0304)
 -->
<!-- Title: game_feedbacks Pages: 1 -->
<svg width="679pt" height="929pt"
 viewBox="0.00 0.00 679.00 929.00" xmlns="http://www.w3.org/2000/svg" xmlns:xlink="http://www.w3.org/1999/xlink">
<g id="graph0" class="graph" transform="scale(1 1) rotate(0) translate(4 925)">
<title>game_feedbacks</title>
<polygon fill="#ffffff" stroke="transparent" points="-4,4 -4,-925 675,-925 675,4 -4,4"/>
<!-- game_feedbacks -->
<g id="node1" class="node">
<title>game_feedbacks</title>
<polygon fill="#efefef" stroke="transparent" points="77,-562.5 77,-597.5 325,-597.5 325,-562.5 77,-562.5"/>
<polygon fill="none" stroke="#000000" points="77,-562.5 77,-597.5 325,-597.5 325,-562.5 77,-562.5"/>
<text text-anchor="start" x="83.848" y="-575.3" font-family="Arial Bold" font-size="18.00" fill="#000000">game_feedbacks</text>
<text text-anchor="start" x="220.8982" y="-575.3" font-family="Arial" font-size="14.00" fill="#000000"> </text>
<text text-anchor="start" x="224.7888" y="-575.3" font-family="Arial" font-size="14.00" fill="#666666">[BASE TABLE]</text>
<polygon fill="none" stroke="#000000" points="77,-532.5 77,-562.5 325,-562.5 325,-532.5 77,-532.5"/>
<text text-anchor="start" x="84" y="-543.9" font-family="Arial" font-size="14.00" fill="#000000">id </text>
<text text-anchor="start" x="98.7798" y="-543.9" font-family="Arial" font-size="14.00" fill="#666666">[varchar(36)]</text>
<polygon fill="none" stroke="#000000" points="77,-502.5 77,-532.5 325,-532.5 325,-502.5 77,-502.5"/>
<text text-anchor="start" x="84" y="-513.9" font-family="Arial" font-size="14.00" fill="#000000">game_version_id </text>
<text text-anchor="start" x="194.4684" y="-513.9" font-family="Arial" font-size="14.00" fill="#666666">[varchar(36)]</text>
<polygon fill="none" stroke="#000000" points="77,-472.5 77,-502.5 325,-502.5 325,-472.5 77,-472.5"/>
<text text-anchor="start" x="84" y="-483.9" font-family="Arial" font-size="14.00" fill="#000000">comment </text>
<text text-anchor="start" x="145.4502" y="-483.9" font-family="Arial" font-size="14.00" fill="#666666">[text]</text>
<polygon fill="none" stroke="#000000" points="77,-442.5 77,-472.5 325,-472.5 325,-442.5 77,-442.5"/>
<text text-anchor="start" x="84" y="-453.9" font-family="Arial" font-size="14.00" fill="#000000">created_at </text>
<text text-anchor="start" x="154.028" y="-453.9" font-family="Arial" font-size="14.00" fill="#666666">[datetime]</text>
<polygon fill="none" stroke="#000000" stroke-width="3" points="75.5,-441.5 75.5,-599.5 326.5,-599.5 326.5,-441.5 75.5,-441.5"/>
</g>
<!-- v2_game_versions -->
<g id="node3" class="node">
<title>v2_game_versions</title>
<polygon fill="#efefef" stroke="transparent" points="70,-282.5 70,-317.5 332,-317.5 332,-282.5 70,-282.5"/>
<polygon fill="none" stroke="#000000" points="70,-282.5 70,-317.5 332,-317.5 332,-282.5 70,-282.5"/>
<text text-anchor="start" x="76.8559" y="-295.3" font-family="Arial Bold" font-size="18.00" fill="#000000">v2_game_versions</text>
<text text-anchor="start" x="227.8903" y="-295.3" font-family="Arial" font-size="14.00" fill="#000000"> </text>
<text text-anchor="start" x="231.7809" y="-295.3" font-family="Arial" font-size="14.00" fill="#666666">[BASE TABLE]</text>
<polygon fill="none" stroke="#000000" points="70,-252.5 70,-282.5 332,-282.5 332,-252.5 70,-252.5"/>
<text text-anchor="start" x="77" y="-263.9" font-family="Arial" font-size="14.00" fill="#000000">id </text>
<text text-anchor="start" x="91.7798" y="-263.9" font-family="Arial" font-size="14.00" fill="#666666">[varchar(36)]</text>
<polygon fill="none" stroke="#000000" points="70,-222.5 70,-252.5 332,-252.5 332,-222.5 70,-222.5"/>
<text text-anchor="start" x="77" y="-233.9" font-family="Arial" font-size="14.00" fill="#000000">game_id </text>
<text text-anchor="start" x="134.5708" y="-233.9" font-family="Arial" font-size="14.00" fill="#666666">[varchar(36)]</text>
<polygon fill="none" stroke="#000000" points="70,-192.5 70,-222.5 332,-222.5 332,-192.5 70,-192.5"/>
<text text-anchor="start" x="77" y="-203.9" font-family="Arial" font-size="14.00" fill="#000000">game_image_id </text>
<text text-anchor="start" x="180.4684" y="-203.9" font-family="Arial" font-size="14.00" fill="#666666">[varchar(36)]</text>
<polygon fill="none" stroke="#000000" points="70,-162.5 70,-192.5 332,-192.5 332,-162.5 70,-162.5"/>
<text text-anchor="start" x="77" y="-173.9" font-family="Arial" font-size="14.00" fill="#000000">game_video_id </text>
<text text-anchor="start" x="175.8078" y="-173.9" font-family="Arial" font-size="14.00" fill="#666666">[varchar(36)]</text>
<polygon fill="none" stroke="#000000" points="70,-132.5 70,-162.5 332,-162.5 332,-132.5 70,-132.5"/>
<text text-anchor="start" x="77" y="-143.9" font-family="Arial" font-size="14.00" fill="#000000">name </text>
<text text-anchor="start" x="115.899" y="-143.9" font-family="Arial" font-size="14.00" fill="#666666">[varchar(32)]</text>
<polygon fill="none" stroke="#000000" points="70,-102.5 70,-132.5 332,-132.5 332,-102.5 70,-102.5"/>
<text text-anchor="start" x="77" y="-113.9" font-family="Arial" font-size="14.00" fill="#000000">description </text>
<text text-anchor="start" x="148.568" y="-113.9" font-family="Arial" font-size="14.00" fill="#666666">[text]</text>
<polygon fill="none" stroke="#000000" points="70,-72.5 70,-102.5 332,-102.5 332,-72.5 70,-72.5"/>
<text text-anchor="start" x="77" y="-83.9" font-family="Arial" font-size="14.00" fill="#000000">created_at </text>
<text text-anchor="start" x="147.028" y="-83.9" font-family="Arial" font-size="14.00" fill="#666666">[datetime]</text>
<polygon fill="none" stroke="#000000" points="70,-42.5 70,-72.5 332,-72.5 332,-42.5 70,-42.5"/>
<text text-anchor="start" x="77" y="-53.9" font-family="Arial" font-size="14.00" fill="#000000">url </text>
<text text-anchor="start" x="96.4404" y="-53.9" font-family="Arial" font-size="14.00" fill="#666666">[text]</text>
</g>
<!-- game_feedbacks&#45;&gt;v2_game_versions -->
<g id="edge2" class="edge">
<title>game_feedbacks:game_version_id&#45;&gt;v2_game_versions:id</title>
<path fill="none" stroke="#000000" d="M335.1152,-516.7828C436.4768,-502.1191 439.6811,-267.5 332,-267.5"/>
<polygon fill="#000000" stroke="#000000" points="334.975,-516.7927 324.6817,-513.0113 329.9875,-517.1463 325,-517.5 325,-517.5 325,-517.5 329.9875,-517.1463 325.3183,-521.9887 334.975,-516.7927 334.975,-516.7927"/>
<text text-anchor="start" x="331.543" y="-527.5" font-family="Arial" font-size="10.00" fill="#000000">FOREIGN KEY (game_version_id) REFERENCES v2_game_versions (id)</text>
</g>
<!-- game_feedback_answers -->
<g id="node2" class="node">
<title>game_feedback_answers</title>
<polygon fill="#efefef" stroke="transparent" points="43,-842.5 43,-877.5 359,-877.5 359,-842.5 43,-842.5"/>
<polygon fill="none" stroke="#000000" points="43,-842.5 43,-877.5 359,-877.5 359,-842.5 43,-842.5"/>
<text text-anchor="start" x="49.8424" y="-855.3" font-family="Arial Bold" font-size="18.00" fill="#000000">game_feedback_answers</text>
<text text-anchor="start" x="254.9038" y="-855.3" font-family="Arial" font-size="14.00" fill="#000000"> </text>
<text text-anchor="start" x="258.7944" y="-855.3" font-family="Arial" font-size="14.00" fill="#666666">[BASE TABLE]</text>
<polygon fill="none" stroke="#000000" points="43,-812.5 43,-842.5 359,-842.5 359,-812.5 43,-812.5"/>
<text text-anchor="start" x="50" y="-823.9" font-family="Arial" font-size="14.00" fill="#000000">id </text>
<text text-anchor="start" x="64.7798" y="-823.9" font-family="Arial" font-size="14.00" fill="#666666">[varchar(36)]</text>
<polygon fill="none" stroke="#000000" points="43,-782.5 43,-812.5 359,-812.5 359,-782.5 43,-782.5"/>
<text text-anchor="start" x="50" y="-793.9" font-family="Arial" font-size="14.00" fill="#000000">feedback_id </text>
<text text-anchor="start" x="129.366" y="-793.9" font-family="Arial" font-size="14.00" fill="#666666">[varchar(36)]</text>
<polygon fill="none" stroke="#000000" points="43,-752.5 43,-782.5 359,-782.5 359,-752.5 43,-752.5"/>
<text text-anchor="start" x="50" y="-763.9" font-family="Arial" font-size="14.00" fill="#000000">question_id </text>
<text text-anchor="start" x="125.4726" y="-763.9" font-family="Arial" font-size="14.00" fill="#666666">[varchar(36)]</text>
<polygon fill="none" stroke="#000000" points="43,-722.5 43,-752.5 359,-752.5 359,-722.5 43,-722.5"/>
<text text-anchor="start" x="50" y="-733.9" font-family="Arial" font-size="14.00" fill="#000000">answer </text>
<text text-anchor="start" x="99.0056" y="-733.9" font-family="Arial" font-size="14.00" fill="#666666">[int(11)]</text>
</g>
<!-- game_feedback_answers&#45;&gt;game_feedbacks -->
<g id="edge1" class="edge">
<title>game_feedback_answers:feedback_id&#45;&gt;game_feedbacks:id</title>
<path fill="none" stroke="#000000" d="M369.0865,-796.7828C468.9327,-782.1191 433.6298,-547.5 325,-547.5"/>
<polygon fill="#000000" stroke="#000000" points="368.9748,-796.7907 358.6808,-793.0113 363.9874,-797.1453 359,-797.5 359,-797.5 359,-797.5 363.9874,-797.1453 359.3192,-801.9887 368.9748,-796.7907 368.9748,-796.7907"/>
<text text-anchor="start" x="365.5355" y="-807.5" font-family="Arial" font-size="10.00" fill="#000000">FOREIGN KEY (feedback_id) REFERENCES game_feedbacks (id)</text>
</g>
</g>
</svg>
