<?xml version="1.0" encoding="UTF-8" standalone="no"?>
<!DOCTYPE svg PUBLIC "-//W3C//DTD SVG 1.1//EN"
 "http://www.w3.org/Graphics/SVG/1.1/DTD/svg11.dtd">
<!-- Generated by graphviz version 2.40.1 (20161225.0304)
 -->
<!-- Title: game_urls Pages: 1 -->
<svg width="595pt" height="562pt"
 viewBox="0.00 0.00 594.50 562.00" xmlns="http://www.w3.org/2000/svg" xmlns:xlink="http://www.w3.org/1999/xlink">
<g id="graph0" class="graph" transform="scale(1 1) rotate(0) translate(4 558)">
<title>game_urls</title>
<polygon fill="#ffffff" stroke="transparent" points="-4,4 -4,-558 590.5,-558 590.5,4 -4,4"/>
<!-- game_urls -->
<g id="node1" class="node">
<title>game_urls</title>
<polygon fill="#efefef" stroke="transparent" points="326,-472.5 326,-507.5 529,-507.5 529,-472.5 326,-472.5"/>
<polygon fill="none" stroke="#000000" points="326,-472.5 326,-507.5 529,-507.5 529,-472.5 326,-472.5"/>
<text text-anchor="start" x="336.8683" y="-485.3" font-family="Arial Bold" font-size="18.00" fill="#000000">game_urls</text>
<text text-anchor="start" x="420.8779" y="-485.3" font-family="Arial" font-size="14.00" fill="#000000"> </text>
<text text-anchor="start" x="424.7685" y="-485.3" font-family="Arial" font-size="14.00" fill="#666666">[BASE TABLE]</text>
<polygon fill="none" stroke="#000000" points="326,-442.5 326,-472.5 529,-472.5 529,-442.5 326,-442.5"/>
<text text-anchor="start" x="333" y="-453.9" font-family="Arial" font-size="14.00" fill="#000000">id </text>
<text text-anchor="start" x="347.7798" y="-453.9" font-family="Arial" font-size="14.00" fill="#666666">[varchar(36)]</text>
<polygon fill="none" stroke="#000000" points="326,-412.5 326,-442.5 529,-442.5 529,-412.5 326,-412.5"/>
<text text-anchor="start" x="332.5975" y="-423.9" font-family="Arial" font-size="14.00" fill="#000000">game_version_id </text>
<text text-anchor="start" x="443.0659" y="-423.9" font-family="Arial" font-size="14.00" fill="#666666">[varchar(36)]</text>
<polygon fill="none" stroke="#000000" points="326,-382.5 326,-412.5 529,-412.5 529,-382.5 326,-382.5"/>
<text text-anchor="start" x="333" y="-393.9" font-family="Arial" font-size="14.00" fill="#000000">url </text>
<text text-anchor="start" x="352.4404" y="-393.9" font-family="Arial" font-size="14.00" fill="#666666">[text]</text>
<polygon fill="none" stroke="#000000" points="326,-352.5 326,-382.5 529,-382.5 529,-352.5 326,-352.5"/>
<text text-anchor="start" x="333" y="-363.9" font-family="Arial" font-size="14.00" fill="#000000">created_at </text>
<text text-anchor="start" x="403.028" y="-363.9" font-family="Arial" font-size="14.00" fill="#666666">[datetime]</text>
<polygon fill="none" stroke="#000000" stroke-width="3" points="324,-351.5 324,-509.5 530,-509.5 530,-351.5 324,-351.5"/>
</g>
<!-- game_versions -->
<g id="node2" class="node">
<title>game_versions</title>
<polygon fill="#efefef" stroke="transparent" points="311,-192.5 311,-227.5 544,-227.5 544,-192.5 311,-192.5"/>
<polygon fill="none" stroke="#000000" points="311,-192.5 311,-227.5 544,-227.5 544,-192.5 311,-192.5"/>
<text text-anchor="start" x="317.8621" y="-205.3" font-family="Arial Bold" font-size="18.00" fill="#000000">game_versions</text>
<text text-anchor="start" x="439.8841" y="-205.3" font-family="Arial" font-size="14.00" fill="#000000"> </text>
<text text-anchor="start" x="443.7747" y="-205.3" font-family="Arial" font-size="14.00" fill="#666666">[BASE TABLE]</text>
<polygon fill="none" stroke="#000000" points="311,-162.5 311,-192.5 544,-192.5 544,-162.5 311,-162.5"/>
<text text-anchor="start" x="318" y="-173.9" font-family="Arial" font-size="14.00" fill="#000000">id </text>
<text text-anchor="start" x="332.7798" y="-173.9" font-family="Arial" font-size="14.00" fill="#666666">[varchar(36)]</text>
<polygon fill="none" stroke="#000000" points="311,-132.5 311,-162.5 544,-162.5 544,-132.5 311,-132.5"/>
<text text-anchor="start" x="318" y="-143.9" font-family="Arial" font-size="14.00" fill="#000000">game_id </text>
<text text-anchor="start" x="375.5708" y="-143.9" font-family="Arial" font-size="14.00" fill="#666666">[varchar(36)]</text>
<polygon fill="none" stroke="#000000" points="311,-102.5 311,-132.5 544,-132.5 544,-102.5 311,-102.5"/>
<text text-anchor="start" x="318" y="-113.9" font-family="Arial" font-size="14.00" fill="#000000">name </text>
<text text-anchor="start" x="356.899" y="-113.9" font-family="Arial" font-size="14.00" fill="#666666">[varchar(32)]</text>
<polygon fill="none" stroke="#000000" points="311,-72.5 311,-102.5 544,-102.5 544,-72.5 311,-72.5"/>
<text text-anchor="start" x="318" y="-83.9" font-family="Arial" font-size="14.00" fill="#000000">description </text>
<text text-anchor="start" x="389.568" y="-83.9" font-family="Arial" font-size="14.00" fill="#666666">[text]</text>
<polygon fill="none" stroke="#000000" points="311,-42.5 311,-72.5 544,-72.5 544,-42.5 311,-42.5"/>
<text text-anchor="start" x="318" y="-53.9" font-family="Arial" font-size="14.00" fill="#000000">created_at </text>
<text text-anchor="start" x="388.028" y="-53.9" font-family="Arial" font-size="14.00" fill="#666666">[datetime]</text>
</g>
<!-- game_urls&#45;&gt;game_versions -->
<g id="edge1" class="edge">
<title>game_urls:game_version_id&#45;&gt;game_versions:id</title>
<path fill="none" stroke="#000000" d="M316.3445,-424.8615C268.7871,-398.143 258.7143,-177.5 311,-177.5"/>
<polygon fill="#000000" stroke="#000000" points="316.3537,-424.864 324.8138,-431.8409 321.1768,-426.182 326,-427.5 326,-427.5 326,-427.5 321.1768,-426.182 327.1862,-423.1591 316.3537,-424.864 316.3537,-424.864"/>
<text text-anchor="start" x="6.602" y="-437.5" font-family="Arial" font-size="10.00" fill="#000000">FOREIGN KEY (game_version_id) REFERENCES game_versions (id)</text>
</g>
</g>
</svg>
