<?xml version="1.0" encoding="UTF-8" standalone="no"?>
<!DOCTYPE svg PUBLIC "-//W3C//DTD SVG 1.1//EN"
 "http://www.w3.org/Graphics/SVG/1.1/DTD/svg11.dtd">
<!-- Generated by graphviz version 2.40.1 (20161225.0304)
 -->
<!-- Title: game_videos Pages: 1 -->
<svg width="805pt" height="592pt"
 viewBox="0.00 0.00 805.00 592.00" xmlns="http://www.w3.org/2000/svg" xmlns:xlink="http://www.w3.org/1999/xlink">
<g id="graph0" class="graph" transform="scale(1 1) rotate(0) translate(4 588)">
<title>game_videos</title>
<polygon fill="#ffffff" stroke="transparent" points="-4,4 -4,-588 801,-588 801,4 -4,4"/>
<!-- game_videos -->
<g id="node1" class="node">
<title>game_videos</title>
<polygon fill="#efefef" stroke="transparent" points="251,-502.5 251,-537.5 469,-537.5 469,-502.5 251,-502.5"/>
<polygon fill="none" stroke="#000000" points="251,-502.5 251,-537.5 469,-537.5 469,-502.5 251,-502.5"/>
<text text-anchor="start" x="257.8582" y="-515.3" font-family="Arial Bold" font-size="18.00" fill="#000000">game_videos</text>
<text text-anchor="start" x="364.888" y="-515.3" font-family="Arial" font-size="14.00" fill="#000000"> </text>
<text text-anchor="start" x="368.7786" y="-515.3" font-family="Arial" font-size="14.00" fill="#666666">[BASE TABLE]</text>
<polygon fill="none" stroke="#000000" points="251,-472.5 251,-502.5 469,-502.5 469,-472.5 251,-472.5"/>
<text text-anchor="start" x="258" y="-483.9" font-family="Arial" font-size="14.00" fill="#000000">id </text>
<text text-anchor="start" x="272.7798" y="-483.9" font-family="Arial" font-size="14.00" fill="#666666">[varchar(36)]</text>
<polygon fill="none" stroke="#000000" points="251,-442.5 251,-472.5 469,-472.5 469,-442.5 251,-442.5"/>
<text text-anchor="start" x="258" y="-453.9" font-family="Arial" font-size="14.00" fill="#000000">game_id </text>
<text text-anchor="start" x="315.5708" y="-453.9" font-family="Arial" font-size="14.00" fill="#666666">[varchar(36)]</text>
<polygon fill="none" stroke="#000000" points="251,-412.5 251,-442.5 469,-442.5 469,-412.5 251,-412.5"/>
<text text-anchor="start" x="258" y="-423.9" font-family="Arial" font-size="14.00" fill="#000000">video_type_id </text>
<text text-anchor="start" x="348.2552" y="-423.9" font-family="Arial" font-size="14.00" fill="#666666">[tinyint(4)]</text>
<polygon fill="none" stroke="#000000" points="251,-382.5 251,-412.5 469,-412.5 469,-382.5 251,-382.5"/>
<text text-anchor="start" x="258" y="-393.9" font-family="Arial" font-size="14.00" fill="#000000">created_at </text>
<text text-anchor="start" x="328.028" y="-393.9" font-family="Arial" font-size="14.00" fill="#666666">[datetime]</text>
<polygon fill="none" stroke="#000000" stroke-width="3" points="249.5,-381.5 249.5,-539.5 470.5,-539.5 470.5,-381.5 249.5,-381.5"/>
</g>
<!-- games -->
<g id="node2" class="node">
<title>games</title>
<polygon fill="#efefef" stroke="transparent" points="108,-222.5 108,-257.5 288,-257.5 288,-222.5 108,-222.5"/>
<polygon fill="none" stroke="#000000" points="108,-222.5 108,-257.5 288,-257.5 288,-222.5 108,-222.5"/>
<text text-anchor="start" x="122.3677" y="-235.3" font-family="Arial Bold" font-size="18.00" fill="#000000">games</text>
<text text-anchor="start" x="176.3785" y="-235.3" font-family="Arial" font-size="14.00" fill="#000000"> </text>
<text text-anchor="start" x="180.2691" y="-235.3" font-family="Arial" font-size="14.00" fill="#666666">[BASE TABLE]</text>
<polygon fill="none" stroke="#000000" points="108,-192.5 108,-222.5 288,-222.5 288,-192.5 108,-192.5"/>
<text text-anchor="start" x="115" y="-203.9" font-family="Arial" font-size="14.00" fill="#000000">id </text>
<text text-anchor="start" x="129.7798" y="-203.9" font-family="Arial" font-size="14.00" fill="#666666">[varchar(36)]</text>
<polygon fill="none" stroke="#000000" points="108,-162.5 108,-192.5 288,-192.5 288,-162.5 108,-162.5"/>
<text text-anchor="start" x="115" y="-173.9" font-family="Arial" font-size="14.00" fill="#000000">name </text>
<text text-anchor="start" x="153.899" y="-173.9" font-family="Arial" font-size="14.00" fill="#666666">[varchar(256)]</text>
<polygon fill="none" stroke="#000000" points="108,-132.5 108,-162.5 288,-162.5 288,-132.5 108,-132.5"/>
<text text-anchor="start" x="115" y="-143.9" font-family="Arial" font-size="14.00" fill="#000000">description </text>
<text text-anchor="start" x="186.568" y="-143.9" font-family="Arial" font-size="14.00" fill="#666666">[text]</text>
<polygon fill="none" stroke="#000000" points="108,-102.5 108,-132.5 288,-132.5 288,-102.5 108,-102.5"/>
<text text-anchor="start" x="115" y="-113.9" font-family="Arial" font-size="14.00" fill="#000000">created_at </text>
<text text-anchor="start" x="185.028" y="-113.9" font-family="Arial" font-size="14.00" fill="#666666">[datetime]</text>
<polygon fill="none" stroke="#000000" points="108,-72.5 108,-102.5 288,-102.5 288,-72.5 108,-72.5"/>
<text text-anchor="start" x="115" y="-83.9" font-family="Arial" font-size="14.00" fill="#000000">deleted_at </text>
<text text-anchor="start" x="184.2566" y="-83.9" font-family="Arial" font-size="14.00" fill="#666666">[datetime]</text>
<polygon fill="none" stroke="#000000" points="108,-42.5 108,-72.5 288,-72.5 288,-42.5 108,-42.5"/>
<text text-anchor="start" x="114.7742" y="-53.9" font-family="Arial" font-size="14.00" fill="#000000">visibility_type_id </text>
<text text-anchor="start" x="219.7812" y="-53.9" font-family="Arial" font-size="14.00" fill="#666666">[tinyint(4)]</text>
</g>
<!-- game_videos&#45;&gt;games -->
<g id="edge1" class="edge">
<title>game_videos:game_id&#45;&gt;games:id</title>
<path fill="none" stroke="#000000" d="M240.9486,-456.4769C201.9872,-447.6007 231.6316,-382.8683 251,-337 259.9252,-315.8633 279.0748,-322.1367 288,-301 304.1652,-262.7175 329.5556,-207.5 288,-207.5"/>
<polygon fill="#000000" stroke="#000000" points="241.0514,-456.4872 250.5443,-461.9769 246.0257,-456.9936 251,-457.5 251,-457.5 251,-457.5 246.0257,-456.9936 251.4557,-453.0231 241.0514,-456.4872 241.0514,-456.4872"/>
<text text-anchor="start" x="7.386" y="-467.5" font-family="Arial" font-size="10.00" fill="#000000">FOREIGN KEY (game_id) REFERENCES games (id)</text>
</g>
<!-- game_video_types -->
<g id="node3" class="node">
<title>game_video_types</title>
<polygon fill="#efefef" stroke="transparent" points="392,-177.5 392,-212.5 654,-212.5 654,-177.5 392,-177.5"/>
<polygon fill="none" stroke="#000000" points="392,-177.5 392,-212.5 654,-212.5 654,-177.5 392,-177.5"/>
<text text-anchor="start" x="398.8478" y="-190.3" font-family="Arial Bold" font-size="18.00" fill="#000000">game_video_types</text>
<text text-anchor="start" x="549.8984" y="-190.3" font-family="Arial" font-size="14.00" fill="#000000"> </text>
<text text-anchor="start" x="553.789" y="-190.3" font-family="Arial" font-size="14.00" fill="#666666">[BASE TABLE]</text>
<polygon fill="none" stroke="#000000" points="392,-147.5 392,-177.5 654,-177.5 654,-147.5 392,-147.5"/>
<text text-anchor="start" x="399" y="-158.9" font-family="Arial" font-size="14.00" fill="#000000">id </text>
<text text-anchor="start" x="413.7798" y="-158.9" font-family="Arial" font-size="14.00" fill="#666666">[tinyint(4)]</text>
<polygon fill="none" stroke="#000000" points="392,-117.5 392,-147.5 654,-147.5 654,-117.5 392,-117.5"/>
<text text-anchor="start" x="399" y="-128.9" font-family="Arial" font-size="14.00" fill="#000000">name </text>
<text text-anchor="start" x="437.899" y="-128.9" font-family="Arial" font-size="14.00" fill="#666666">[varchar(32)]</text>
<polygon fill="none" stroke="#000000" points="392,-87.5 392,-117.5 654,-117.5 654,-87.5 392,-87.5"/>
<text text-anchor="start" x="399" y="-98.9" font-family="Arial" font-size="14.00" fill="#000000">active </text>
<text text-anchor="start" x="439.453" y="-98.9" font-family="Arial" font-size="14.00" fill="#666666">[tinyint(1)]</text>
</g>
<!-- game_videos&#45;&gt;game_video_types -->
<g id="edge2" class="edge">
<title>game_videos:video_type_id&#45;&gt;game_video_types:id</title>
<path fill="none" stroke="#000000" d="M478.9799,-426.0436C504.3795,-417.2702 482.4638,-370.7046 469,-337 450.5742,-290.8735 410.4258,-302.1265 392,-256 376.5845,-217.4095 350.4444,-162.5 392,-162.5"/>
<polygon fill="#000000" stroke="#000000" points="478.8952,-426.0559 468.3502,-423.0472 473.9476,-426.778 469,-427.5 469,-427.5 469,-427.5 473.9476,-426.778 469.6498,-431.9528 478.8952,-426.0559 478.8952,-426.0559"/>
<text text-anchor="start" x="475.7575" y="-437.5" font-family="Arial" font-size="10.00" fill="#000000">FOREIGN KEY (video_type_id) REFERENCES game_video_types (id)</text>
</g>
</g>
</svg>
