<?xml version="1.0" encoding="UTF-8" standalone="no"?>
<!DOCTYPE svg PUBLIC "-//W3C//DTD SVG 1.1//EN"
 "http://www.w3.org/Graphics/SVG/1.1/DTD/svg11.dtd">
<!-- Generated by graphviz version 2.40.1 (20161225.0304)
 -->
<!-- Title: game_creator_job_relations Pages: 1 -->
<svg width="961pt" height="502pt"
 viewBox="0.00 0.00 961.00 502.00" xmlns="http://www.w3.org/2000/svg" xmlns:xlink="http://www.w3.org/1999/xlink">
<g id="graph0" class="graph" transform="scale(1 1) rotate(0) translate(4 498)">
<title>game_creator_job_relations</title>
<polygon fill="#ffffff" stroke="transparent" points="-4,4 -4,-498 957,-498 957,4 -4,4"/>
<!-- game_creator_job_relations -->
<g id="node1" class="node">
<title>game_creator_job_relations</title>
<polygon fill="#efefef" stroke="transparent" points="324,-412.5 324,-447.5 658,-447.5 658,-412.5 324,-412.5"/>
<polygon fill="none" stroke="#000000" points="324,-412.5 324,-447.5 658,-447.5 658,-412.5 324,-412.5"/>
<text text-anchor="start" x="330.8487" y="-425.3" font-family="Arial Bold" font-size="18.00" fill="#000000">game_creator_job_relations</text>
<text text-anchor="start" x="553.8975" y="-425.3" font-family="Arial" font-size="14.00" fill="#000000"> </text>
<text text-anchor="start" x="557.7881" y="-425.3" font-family="Arial" font-size="14.00" fill="#666666">[BASE TABLE]</text>
<polygon fill="none" stroke="#000000" points="324,-382.5 324,-412.5 658,-412.5 658,-382.5 324,-382.5"/>
<text text-anchor="start" x="331" y="-393.9" font-family="Arial" font-size="14.00" fill="#000000">game_creator_id </text>
<text text-anchor="start" x="439.913" y="-393.9" font-family="Arial" font-size="14.00" fill="#666666">[varchar(36)]</text>
<polygon fill="none" stroke="#000000" points="324,-352.5 324,-382.5 658,-382.5 658,-352.5 324,-352.5"/>
<text text-anchor="start" x="331" y="-363.9" font-family="Arial" font-size="14.00" fill="#000000">job_id </text>
<text text-anchor="start" x="372.2342" y="-363.9" font-family="Arial" font-size="14.00" fill="#666666">[varchar(36)]</text>
<polygon fill="none" stroke="#000000" stroke-width="3" points="322.5,-351.5 322.5,-449.5 659.5,-449.5 659.5,-351.5 322.5,-351.5"/>
</g>
<!-- game_creators -->
<g id="node2" class="node">
<title>game_creators</title>
<polygon fill="#efefef" stroke="transparent" points="199,-192.5 199,-227.5 430,-227.5 430,-192.5 199,-192.5"/>
<polygon fill="none" stroke="#000000" points="199,-192.5 199,-227.5 430,-227.5 430,-192.5 199,-192.5"/>
<text text-anchor="start" x="205.862" y="-205.3" font-family="Arial Bold" font-size="18.00" fill="#000000">game_creators</text>
<text text-anchor="start" x="325.8842" y="-205.3" font-family="Arial" font-size="14.00" fill="#000000"> </text>
<text text-anchor="start" x="329.7748" y="-205.3" font-family="Arial" font-size="14.00" fill="#666666">[BASE TABLE]</text>
<polygon fill="none" stroke="#000000" points="199,-162.5 199,-192.5 430,-192.5 430,-162.5 199,-162.5"/>
<text text-anchor="start" x="206" y="-173.9" font-family="Arial" font-size="14.00" fill="#000000">id </text>
<text text-anchor="start" x="220.7798" y="-173.9" font-family="Arial" font-size="14.00" fill="#666666">[varchar(36)]</text>
<polygon fill="none" stroke="#000000" points="199,-132.5 199,-162.5 430,-162.5 430,-132.5 199,-132.5"/>
<text text-anchor="start" x="206" y="-143.9" font-family="Arial" font-size="14.00" fill="#000000">game_id </text>
<text text-anchor="start" x="263.5708" y="-143.9" font-family="Arial" font-size="14.00" fill="#666666">[varchar(36)]</text>
<polygon fill="none" stroke="#000000" points="199,-102.5 199,-132.5 430,-132.5 430,-102.5 199,-102.5"/>
<text text-anchor="start" x="206" y="-113.9" font-family="Arial" font-size="14.00" fill="#000000">user_id </text>
<text text-anchor="start" x="255.7882" y="-113.9" font-family="Arial" font-size="14.00" fill="#666666">[varchar(36)]</text>
<polygon fill="none" stroke="#000000" points="199,-72.5 199,-102.5 430,-102.5 430,-72.5 199,-72.5"/>
<text text-anchor="start" x="206" y="-83.9" font-family="Arial" font-size="14.00" fill="#000000">user_name </text>
<text text-anchor="start" x="279.9074" y="-83.9" font-family="Arial" font-size="14.00" fill="#666666">[varchar(32)]</text>
<polygon fill="none" stroke="#000000" points="199,-42.5 199,-72.5 430,-72.5 430,-42.5 199,-42.5"/>
<text text-anchor="start" x="206" y="-53.9" font-family="Arial" font-size="14.00" fill="#000000">created_at </text>
<text text-anchor="start" x="276.028" y="-53.9" font-family="Arial" font-size="14.00" fill="#666666">[datetime]</text>
</g>
<!-- game_creator_job_relations&#45;&gt;game_creators -->
<g id="edge1" class="edge">
<title>game_creator_job_relations:game_creator_id&#45;&gt;game_creators:id</title>
<path fill="none" stroke="#000000" d="M313.8005,-395.9234C287.1215,-386.4497 302.8616,-336.5033 324,-307 352.9775,-266.5555 401.0225,-311.4445 430,-271 454.2026,-237.2199 471.5556,-177.5 430,-177.5"/>
<polygon fill="#000000" stroke="#000000" points="314.1174,-395.9723 323.3125,-401.9472 319.0587,-396.7362 324,-397.5 324,-397.5 324,-397.5 319.0587,-396.7362 324.6875,-393.0528 314.1174,-395.9723 314.1174,-395.9723"/>
<text text-anchor="start" x="6.713" y="-407.5" font-family="Arial" font-size="10.00" fill="#000000">FOREIGN KEY (game_creator_id) REFERENCES game_creators (id)</text>
</g>
<!-- game_creator_jobs -->
<g id="node3" class="node">
<title>game_creator_jobs</title>
<polygon fill="#efefef" stroke="transparent" points="534,-162.5 534,-197.5 799,-197.5 799,-162.5 534,-162.5"/>
<polygon fill="none" stroke="#000000" points="534,-162.5 534,-197.5 799,-197.5 799,-162.5 534,-162.5"/>
<text text-anchor="start" x="540.8556" y="-175.3" font-family="Arial Bold" font-size="18.00" fill="#000000">game_creator_jobs</text>
<text text-anchor="start" x="694.8906" y="-175.3" font-family="Arial" font-size="14.00" fill="#000000"> </text>
<text text-anchor="start" x="698.7812" y="-175.3" font-family="Arial" font-size="14.00" fill="#666666">[BASE TABLE]</text>
<polygon fill="none" stroke="#000000" points="534,-132.5 534,-162.5 799,-162.5 799,-132.5 534,-132.5"/>
<text text-anchor="start" x="541" y="-143.9" font-family="Arial" font-size="14.00" fill="#000000">id </text>
<text text-anchor="start" x="555.7798" y="-143.9" font-family="Arial" font-size="14.00" fill="#666666">[varchar(36)]</text>
<polygon fill="none" stroke="#000000" points="534,-102.5 534,-132.5 799,-132.5 799,-102.5 534,-102.5"/>
<text text-anchor="start" x="541" y="-113.9" font-family="Arial" font-size="14.00" fill="#000000">display_name </text>
<text text-anchor="start" x="631.2426" y="-113.9" font-family="Arial" font-size="14.00" fill="#666666">[varchar(64)]</text>
<polygon fill="none" stroke="#000000" points="534,-72.5 534,-102.5 799,-102.5 799,-72.5 534,-72.5"/>
<text text-anchor="start" x="541" y="-83.9" font-family="Arial" font-size="14.00" fill="#000000">created_at </text>
<text text-anchor="start" x="611.028" y="-83.9" font-family="Arial" font-size="14.00" fill="#666666">[datetime]</text>
</g>
<!-- game_creator_job_relations&#45;&gt;game_creator_jobs -->
<g id="edge2" class="edge">
<title>game_creator_job_relations:job_id&#45;&gt;game_creator_jobs:id</title>
<path fill="none" stroke="#000000" d="M667.8286,-364.9549C680.7928,-356.1488 669.6808,-326.4495 658,-307 625.8569,-253.479 566.1431,-294.521 534,-241 512.6049,-205.3754 492.4444,-147.5 534,-147.5"/>
<polygon fill="#000000" stroke="#000000" points="667.6807,-364.9932 656.8719,-363.1437 662.8404,-366.2466 658,-367.5 658,-367.5 658,-367.5 662.8404,-366.2466 659.1281,-371.8563 667.6807,-364.9932 667.6807,-364.9932"/>
<text text-anchor="start" x="665.436" y="-377.5" font-family="Arial" font-size="10.00" fill="#000000">FOREIGN KEY (job_id) REFERENCES game_creator_jobs (id)</text>
</g>
</g>
</svg>
