<?xml version="1.0" encoding="UTF-8" standalone="no"?>
<!DOCTYPE svg PUBLIC "-//W3C//DTD SVG 1.1//EN"
 "http://www.w3.org/Graphics/SVG/1.1/DTD/svg11.dtd">
<!-- Generated by graphviz version 2.40.1 (20161225.0304)
 -->
<!-- Title: game_feedback_answers Pages: 1 -->
<svg width="958pt" height="562pt"
 viewBox="0.00 0.00 958.00 562.00" xmlns="http://www.w3.org/2000/svg" xmlns:xlink="http://www.w3.org/1999/xlink">
<g id="graph0" class="graph" transform="scale(1 1) rotate(0) translate(4 558)">
<title>game_feedback_answers</title>
<polygon fill="#ffffff" stroke="transparent" points="-4,4 -4,-558 954,-558 954,4 -4,4"/>
<!-- game_feedback_answers -->
<g id="node1" class="node">
<title>game_feedback_answers</title>
<polygon fill="#efefef" stroke="transparent" points="312,-472.5 312,-507.5 628,-507.5 628,-472.5 312,-472.5"/>
<polygon fill="none" stroke="#000000" points="312,-472.5 312,-507.5 628,-507.5 628,-472.5 312,-472.5"/>
<text text-anchor="start" x="318.8424" y="-485.3" font-family="Arial Bold" font-size="18.00" fill="#000000">game_feedback_answers</text>
<text text-anchor="start" x="523.9038" y="-485.3" font-family="Arial" font-size="14.00" fill="#000000"> </text>
<text text-anchor="start" x="527.7944" y="-485.3" font-family="Arial" font-size="14.00" fill="#666666">[BASE TABLE]</text>
<polygon fill="none" stroke="#000000" points="312,-442.5 312,-472.5 628,-472.5 628,-442.5 312,-442.5"/>
<text text-anchor="start" x="319" y="-453.9" font-family="Arial" font-size="14.00" fill="#000000">id </text>
<text text-anchor="start" x="333.7798" y="-453.9" font-family="Arial" font-size="14.00" fill="#666666">[varchar(36)]</text>
<polygon fill="none" stroke="#000000" points="312,-412.5 312,-442.5 628,-442.5 628,-412.5 312,-412.5"/>
<text text-anchor="start" x="319" y="-423.9" font-family="Arial" font-size="14.00" fill="#000000">feedback_id </text>
<text text-anchor="start" x="398.366" y="-423.9" font-family="Arial" font-size="14.00" fill="#666666">[varchar(36)]</text>
<polygon fill="none" stroke="#000000" points="312,-382.5 312,-412.5 628,-412.5 628,-382.5 312,-382.5"/>
<text text-anchor="start" x="319" y="-393.9" font-family="Arial" font-size="14.00" fill="#000000">question_id </text>
<text text-anchor="start" x="394.4726" y="-393.9" font-family="Arial" font-size="14.00" fill="#666666">[varchar(36)]</text>
<polygon fill="none" stroke="#000000" points="312,-352.5 312,-382.5 628,-382.5 628,-352.5 312,-352.5"/>
<text text-anchor="start" x="319" y="-363.9" font-family="Arial" font-size="14.00" fill="#000000">answer </text>
<text text-anchor="start" x="368.0056" y="-363.9" font-family="Arial" font-size="14.00" fill="#666666">[tinyint(1)]</text>
<polygon fill="none" stroke="#000000" stroke-width="3" points="310.5,-351.5 310.5,-509.5 629.5,-509.5 629.5,-351.5 310.5,-351.5"/>
</g>
<!-- game_feedbacks -->
<g id="node2" class="node">
<title>game_feedbacks</title>
<polygon fill="#efefef" stroke="transparent" points="164,-192.5 164,-227.5 412,-227.5 412,-192.5 164,-192.5"/>
<polygon fill="none" stroke="#000000" points="164,-192.5 164,-227.5 412,-227.5 412,-192.5 164,-192.5"/>
<text text-anchor="start" x="170.848" y="-205.3" font-family="Arial Bold" font-size="18.00" fill="#000000">game_feedbacks</text>
<text text-anchor="start" x="307.8982" y="-205.3" font-family="Arial" font-size="14.00" fill="#000000"> </text>
<text text-anchor="start" x="311.7888" y="-205.3" font-family="Arial" font-size="14.00" fill="#666666">[BASE TABLE]</text>
<polygon fill="none" stroke="#000000" points="164,-162.5 164,-192.5 412,-192.5 412,-162.5 164,-162.5"/>
<text text-anchor="start" x="171" y="-173.9" font-family="Arial" font-size="14.00" fill="#000000">id </text>
<text text-anchor="start" x="185.7798" y="-173.9" font-family="Arial" font-size="14.00" fill="#666666">[varchar(36)]</text>
<polygon fill="none" stroke="#000000" points="164,-132.5 164,-162.5 412,-162.5 412,-132.5 164,-132.5"/>
<text text-anchor="start" x="171" y="-143.9" font-family="Arial" font-size="14.00" fill="#000000">edition_id </text>
<text text-anchor="start" x="234.7966" y="-143.9" font-family="Arial" font-size="14.00" fill="#666666">[varchar(36)]</text>
<polygon fill="none" stroke="#000000" points="164,-102.5 164,-132.5 412,-132.5 412,-102.5 164,-102.5"/>
<text text-anchor="start" x="171" y="-113.9" font-family="Arial" font-size="14.00" fill="#000000">game_version_id </text>
<text text-anchor="start" x="281.4684" y="-113.9" font-family="Arial" font-size="14.00" fill="#666666">[varchar(36)]</text>
<polygon fill="none" stroke="#000000" points="164,-72.5 164,-102.5 412,-102.5 412,-72.5 164,-72.5"/>
<text text-anchor="start" x="171" y="-83.9" font-family="Arial" font-size="14.00" fill="#000000">comment </text>
<text text-anchor="start" x="232.4502" y="-83.9" font-family="Arial" font-size="14.00" fill="#666666">[text]</text>
<polygon fill="none" stroke="#000000" points="164,-42.5 164,-72.5 412,-72.5 412,-42.5 164,-42.5"/>
<text text-anchor="start" x="171" y="-53.9" font-family="Arial" font-size="14.00" fill="#000000">created_at </text>
<text text-anchor="start" x="241.028" y="-53.9" font-family="Arial" font-size="14.00" fill="#666666">[datetime]</text>
</g>
<!-- game_feedback_answers&#45;&gt;game_feedbacks -->
<g id="edge1" class="edge">
<title>game_feedback_answers:feedback_id&#45;&gt;game_feedbacks:id</title>
<path fill="none" stroke="#000000" d="M301.8113,-426.4007C261.6848,-416.8788 283.3701,-347.7353 312,-307 339.1617,-268.3535 384.8383,-309.6465 412,-271 435.895,-237.0016 453.5556,-177.5 412,-177.5"/>
<polygon fill="#000000" stroke="#000000" points="302.0577,-426.4272 311.5173,-431.974 307.0288,-426.9636 312,-427.5 312,-427.5 312,-427.5 307.0288,-426.9636 312.4827,-423.026 302.0577,-426.4272 302.0577,-426.4272"/>
<text text-anchor="start" x="6.5355" y="-437.5" font-family="Arial" font-size="10.00" fill="#000000">FOREIGN KEY (feedback_id) REFERENCES game_feedbacks (id)</text>
</g>
<!-- feedback_questions -->
<g id="node3" class="node">
<title>feedback_questions</title>
<polygon fill="#efefef" stroke="transparent" points="517,-192.5 517,-227.5 788,-227.5 788,-192.5 517,-192.5"/>
<polygon fill="none" stroke="#000000" points="517,-192.5 517,-227.5 788,-227.5 788,-192.5 517,-192.5"/>
<text text-anchor="start" x="523.8397" y="-205.3" font-family="Arial Bold" font-size="18.00" fill="#000000">feedback_questions</text>
<text text-anchor="start" x="683.9065" y="-205.3" font-family="Arial" font-size="14.00" fill="#000000"> </text>
<text text-anchor="start" x="687.7971" y="-205.3" font-family="Arial" font-size="14.00" fill="#666666">[BASE TABLE]</text>
<polygon fill="none" stroke="#000000" points="517,-162.5 517,-192.5 788,-192.5 788,-162.5 517,-162.5"/>
<text text-anchor="start" x="524" y="-173.9" font-family="Arial" font-size="14.00" fill="#000000">id </text>
<text text-anchor="start" x="538.7798" y="-173.9" font-family="Arial" font-size="14.00" fill="#666666">[varchar(36)]</text>
<polygon fill="none" stroke="#000000" points="517,-132.5 517,-162.5 788,-162.5 788,-132.5 517,-132.5"/>
<text text-anchor="start" x="524" y="-143.9" font-family="Arial" font-size="14.00" fill="#000000">question_text </text>
<text text-anchor="start" x="611.1472" y="-143.9" font-family="Arial" font-size="14.00" fill="#666666">[varchar(256)]</text>
<polygon fill="none" stroke="#000000" points="517,-102.5 517,-132.5 788,-132.5 788,-102.5 517,-102.5"/>
<text text-anchor="start" x="524" y="-113.9" font-family="Arial" font-size="14.00" fill="#000000">question_order </text>
<text text-anchor="start" x="621.2524" y="-113.9" font-family="Arial" font-size="14.00" fill="#666666">[bigint(20)]</text>
<polygon fill="none" stroke="#000000" points="517,-72.5 517,-102.5 788,-102.5 788,-72.5 517,-72.5"/>
<text text-anchor="start" x="524" y="-83.9" font-family="Arial" font-size="14.00" fill="#000000">is_active </text>
<text text-anchor="start" x="582.3422" y="-83.9" font-family="Arial" font-size="14.00" fill="#666666">[tinyint(1)]</text>
<polygon fill="none" stroke="#000000" points="517,-42.5 517,-72.5 788,-72.5 788,-42.5 517,-42.5"/>
<text text-anchor="start" x="524" y="-53.9" font-family="Arial" font-size="14.00" fill="#000000">created_at </text>
<text text-anchor="start" x="594.028" y="-53.9" font-family="Arial" font-size="14.00" fill="#666666">[datetime]</text>
</g>
<!-- game_feedback_answers&#45;&gt;feedback_questions -->
<g id="edge2" class="edge">
<title>game_feedback_answers:question_id&#45;&gt;feedback_questions:id</title>
<path fill="none" stroke="#000000" d="M638.2053,-395.9193C664.9181,-386.4211 649.3411,-336.3569 628,-307 597.5044,-265.0501 547.4956,-312.9499 517,-271 492.5652,-237.3874 475.4444,-177.5 517,-177.5"/>
<polygon fill="#000000" stroke="#000000" points="637.8822,-395.9692 627.3111,-393.053 632.9411,-396.7346 628,-397.5 628,-397.5 628,-397.5 632.9411,-396.7346 628.6889,-401.947 637.8822,-395.9692 637.8822,-395.9692"/>
<text text-anchor="start" x="634.5325" y="-407.5" font-family="Arial" font-size="10.00" fill="#000000">FOREIGN KEY (question_id) REFERENCES feedback_questions (id)</text>
</g>
</g>
</svg>
