<?xml version="1.0" encoding="UTF-8" standalone="no"?>
<!DOCTYPE svg PUBLIC "-//W3C//DTD SVG 1.1//EN"
 "http://www.w3.org/Graphics/SVG/1.1/DTD/svg11.dtd">
<!-- Generated by graphviz version 2.40.1 (20161225.0304)
 -->
<!-- Title: games Pages: 1 -->
<svg width="5269pt" height="1019pt"
 viewBox="0.00 0.00 5269.00 1019.00" xmlns="http://www.w3.org/2000/svg" xmlns:xlink="http://www.w3.org/1999/xlink">
<g id="graph0" class="graph" transform="scale(1 1) rotate(0) translate(4 1015)">
<title>games</title>
<polygon fill="#ffffff" stroke="transparent" points="-4,4 -4,-1015 5265,-1015 5265,4 -4,4"/>
<!-- games -->
<g id="node1" class="node">
<title>games</title>
<polygon fill="#efefef" stroke="transparent" points="2467.5,-502.5 2467.5,-537.5 2710.5,-537.5 2710.5,-502.5 2467.5,-502.5"/>
<polygon fill="none" stroke="#000000" points="2467.5,-502.5 2467.5,-537.5 2710.5,-537.5 2710.5,-502.5 2467.5,-502.5"/>
<text text-anchor="start" x="2513.3677" y="-515.3" font-family="Arial Bold" font-size="18.00" fill="#000000">games</text>
<text text-anchor="start" x="2567.3785" y="-515.3" font-family="Arial" font-size="14.00" fill="#000000"> </text>
<text text-anchor="start" x="2571.2691" y="-515.3" font-family="Arial" font-size="14.00" fill="#666666">[BASE TABLE]</text>
<polygon fill="none" stroke="#000000" points="2467.5,-472.5 2467.5,-502.5 2710.5,-502.5 2710.5,-472.5 2467.5,-472.5"/>
<text text-anchor="start" x="2474.5" y="-483.9" font-family="Arial" font-size="14.00" fill="#000000">id </text>
<text text-anchor="start" x="2489.2798" y="-483.9" font-family="Arial" font-size="14.00" fill="#666666">[varchar(36)]</text>
<polygon fill="none" stroke="#000000" points="2467.5,-442.5 2467.5,-472.5 2710.5,-472.5 2710.5,-442.5 2467.5,-442.5"/>
<text text-anchor="start" x="2474.5" y="-453.9" font-family="Arial" font-size="14.00" fill="#000000">name </text>
<text text-anchor="start" x="2513.399" y="-453.9" font-family="Arial" font-size="14.00" fill="#666666">[varchar(256)]</text>
<polygon fill="none" stroke="#000000" points="2467.5,-412.5 2467.5,-442.5 2710.5,-442.5 2710.5,-412.5 2467.5,-412.5"/>
<text text-anchor="start" x="2474.5" y="-423.9" font-family="Arial" font-size="14.00" fill="#000000">description </text>
<text text-anchor="start" x="2546.068" y="-423.9" font-family="Arial" font-size="14.00" fill="#666666">[text]</text>
<polygon fill="none" stroke="#000000" points="2467.5,-382.5 2467.5,-412.5 2710.5,-412.5 2710.5,-382.5 2467.5,-382.5"/>
<text text-anchor="start" x="2474.5" y="-393.9" font-family="Arial" font-size="14.00" fill="#000000">created_at </text>
<text text-anchor="start" x="2544.528" y="-393.9" font-family="Arial" font-size="14.00" fill="#666666">[datetime]</text>
<polygon fill="none" stroke="#000000" points="2467.5,-352.5 2467.5,-382.5 2710.5,-382.5 2710.5,-352.5 2467.5,-352.5"/>
<text text-anchor="start" x="2474.5" y="-363.9" font-family="Arial" font-size="14.00" fill="#000000">deleted_at </text>
<text text-anchor="start" x="2543.7566" y="-363.9" font-family="Arial" font-size="14.00" fill="#666666">[datetime]</text>
<polygon fill="none" stroke="#000000" points="2467.5,-322.5 2467.5,-352.5 2710.5,-352.5 2710.5,-322.5 2467.5,-322.5"/>
<text text-anchor="start" x="2474.5" y="-333.9" font-family="Arial" font-size="14.00" fill="#000000">visibility_type_id </text>
<text text-anchor="start" x="2579.507" y="-333.9" font-family="Arial" font-size="14.00" fill="#666666">[tinyint(4)]</text>
<polygon fill="none" stroke="#000000" points="2467.5,-292.5 2467.5,-322.5 2710.5,-322.5 2710.5,-292.5 2467.5,-292.5"/>
<text text-anchor="start" x="2474.2371" y="-303.9" font-family="Arial" font-size="14.00" fill="#000000">latest_version_updated_at </text>
<text text-anchor="start" x="2642.3029" y="-303.9" font-family="Arial" font-size="14.00" fill="#666666">[datetime]</text>
<polygon fill="none" stroke="#000000" stroke-width="3" points="2465.5,-291.5 2465.5,-539.5 2711.5,-539.5 2711.5,-291.5 2465.5,-291.5"/>
</g>
<!-- game_visibility_types -->
<g id="node16" class="node">
<title>game_visibility_types</title>
<polygon fill="#efefef" stroke="transparent" points="2448.5,-132.5 2448.5,-167.5 2729.5,-167.5 2729.5,-132.5 2448.5,-132.5"/>
<polygon fill="none" stroke="#000000" points="2448.5,-132.5 2448.5,-167.5 2729.5,-167.5 2729.5,-132.5 2448.5,-132.5"/>
<text text-anchor="start" x="2455.3645" y="-145.3" font-family="Arial Bold" font-size="18.00" fill="#000000">game_visibility_types</text>
<text text-anchor="start" x="2625.3817" y="-145.3" font-family="Arial" font-size="14.00" fill="#000000"> </text>
<text text-anchor="start" x="2629.2723" y="-145.3" font-family="Arial" font-size="14.00" fill="#666666">[BASE TABLE]</text>
<polygon fill="none" stroke="#000000" points="2448.5,-102.5 2448.5,-132.5 2729.5,-132.5 2729.5,-102.5 2448.5,-102.5"/>
<text text-anchor="start" x="2455.5" y="-113.9" font-family="Arial" font-size="14.00" fill="#000000">id </text>
<text text-anchor="start" x="2470.2798" y="-113.9" font-family="Arial" font-size="14.00" fill="#666666">[tinyint(4)]</text>
<polygon fill="none" stroke="#000000" points="2448.5,-72.5 2448.5,-102.5 2729.5,-102.5 2729.5,-72.5 2448.5,-72.5"/>
<text text-anchor="start" x="2455.5" y="-83.9" font-family="Arial" font-size="14.00" fill="#000000">name </text>
<text text-anchor="start" x="2494.399" y="-83.9" font-family="Arial" font-size="14.00" fill="#666666">[varchar(32)]</text>
<polygon fill="none" stroke="#000000" points="2448.5,-42.5 2448.5,-72.5 2729.5,-72.5 2729.5,-42.5 2448.5,-42.5"/>
<text text-anchor="start" x="2455.5" y="-53.9" font-family="Arial" font-size="14.00" fill="#000000">created_at </text>
<text text-anchor="start" x="2525.528" y="-53.9" font-family="Arial" font-size="14.00" fill="#666666">[datetime]</text>
</g>
<!-- games&#45;&gt;game_visibility_types -->
<g id="edge15" class="edge">
<title>games:visibility_type_id&#45;&gt;game_visibility_types:id</title>
<path fill="none" stroke="#000000" d="M2457.4442,-336.7034C2368.1671,-322.3032 2353.8085,-117.5 2448.5,-117.5"/>
<polygon fill="#000000" stroke="#000000" points="2457.5312,-336.7102 2467.1446,-341.9859 2462.5156,-337.1051 2467.5,-337.5 2467.5,-337.5 2467.5,-337.5 2462.5156,-337.1051 2467.8554,-333.0141 2457.5312,-336.7102 2457.5312,-336.7102"/>
<text text-anchor="start" x="2125.7205" y="-347.5" font-family="Arial" font-size="10.00" fill="#000000">FOREIGN KEY (visibility_type_id) REFERENCES game_visibility_types (id)</text>
</g>
<!-- game_creators -->
<g id="node2" class="node">
<title>game_creators</title>
<polygon fill="#efefef" stroke="transparent" points="43.5,-872.5 43.5,-907.5 274.5,-907.5 274.5,-872.5 43.5,-872.5"/>
<polygon fill="none" stroke="#000000" points="43.5,-872.5 43.5,-907.5 274.5,-907.5 274.5,-872.5 43.5,-872.5"/>
<text text-anchor="start" x="50.362" y="-885.3" font-family="Arial Bold" font-size="18.00" fill="#000000">game_creators</text>
<text text-anchor="start" x="170.3842" y="-885.3" font-family="Arial" font-size="14.00" fill="#000000"> </text>
<text text-anchor="start" x="174.2748" y="-885.3" font-family="Arial" font-size="14.00" fill="#666666">[BASE TABLE]</text>
<polygon fill="none" stroke="#000000" points="43.5,-842.5 43.5,-872.5 274.5,-872.5 274.5,-842.5 43.5,-842.5"/>
<text text-anchor="start" x="50.5" y="-853.9" font-family="Arial" font-size="14.00" fill="#000000">id </text>
<text text-anchor="start" x="65.2798" y="-853.9" font-family="Arial" font-size="14.00" fill="#666666">[varchar(36)]</text>
<polygon fill="none" stroke="#000000" points="43.5,-812.5 43.5,-842.5 274.5,-842.5 274.5,-812.5 43.5,-812.5"/>
<text text-anchor="start" x="50.5" y="-823.9" font-family="Arial" font-size="14.00" fill="#000000">game_id </text>
<text text-anchor="start" x="108.0708" y="-823.9" font-family="Arial" font-size="14.00" fill="#666666">[varchar(36)]</text>
<polygon fill="none" stroke="#000000" points="43.5,-782.5 43.5,-812.5 274.5,-812.5 274.5,-782.5 43.5,-782.5"/>
<text text-anchor="start" x="50.5" y="-793.9" font-family="Arial" font-size="14.00" fill="#000000">user_id </text>
<text text-anchor="start" x="100.2882" y="-793.9" font-family="Arial" font-size="14.00" fill="#666666">[varchar(36)]</text>
<polygon fill="none" stroke="#000000" points="43.5,-752.5 43.5,-782.5 274.5,-782.5 274.5,-752.5 43.5,-752.5"/>
<text text-anchor="start" x="50.5" y="-763.9" font-family="Arial" font-size="14.00" fill="#000000">user_name </text>
<text text-anchor="start" x="124.4074" y="-763.9" font-family="Arial" font-size="14.00" fill="#666666">[varchar(32)]</text>
<polygon fill="none" stroke="#000000" points="43.5,-722.5 43.5,-752.5 274.5,-752.5 274.5,-722.5 43.5,-722.5"/>
<text text-anchor="start" x="50.5" y="-733.9" font-family="Arial" font-size="14.00" fill="#000000">created_at </text>
<text text-anchor="start" x="120.528" y="-733.9" font-family="Arial" font-size="14.00" fill="#666666">[datetime]</text>
</g>
<!-- game_creators&#45;&gt;games -->
<g id="edge1" class="edge">
<title>game_creators:game_id&#45;&gt;games:id</title>
<path fill="none" stroke="#000000" d="M284.6832,-826.8426C360.6269,-816.1756 255.4554,-678.4948 325.5,-620 417.0131,-543.5766 2348.2725,-487.5 2467.5,-487.5"/>
<polygon fill="#000000" stroke="#000000" points="284.4792,-826.8557 274.2101,-823.0093 279.4896,-827.1779 274.5,-827.5 274.5,-827.5 274.5,-827.5 279.4896,-827.1779 274.7899,-831.9907 284.4792,-826.8557 284.4792,-826.8557"/>
<text text-anchor="start" x="156.386" y="-811.5" font-family="Arial" font-size="10.00" fill="#000000">FOREIGN KEY (game_id) REFERENCES games (id)</text>
</g>
<!-- game_creator_custom_jobs -->
<g id="node3" class="node">
<title>game_creator_custom_jobs</title>
<polygon fill="#efefef" stroke="transparent" points="378.5,-857.5 378.5,-892.5 711.5,-892.5 711.5,-857.5 378.5,-857.5"/>
<polygon fill="none" stroke="#000000" points="378.5,-857.5 378.5,-892.5 711.5,-892.5 711.5,-857.5 378.5,-857.5"/>
<text text-anchor="start" x="385.3491" y="-870.3" font-family="Arial Bold" font-size="18.00" fill="#000000">game_creator_custom_jobs</text>
<text text-anchor="start" x="607.3971" y="-870.3" font-family="Arial" font-size="14.00" fill="#000000"> </text>
<text text-anchor="start" x="611.2877" y="-870.3" font-family="Arial" font-size="14.00" fill="#666666">[BASE TABLE]</text>
<polygon fill="none" stroke="#000000" points="378.5,-827.5 378.5,-857.5 711.5,-857.5 711.5,-827.5 378.5,-827.5"/>
<text text-anchor="start" x="385.5" y="-838.9" font-family="Arial" font-size="14.00" fill="#000000">id </text>
<text text-anchor="start" x="400.2798" y="-838.9" font-family="Arial" font-size="14.00" fill="#666666">[varchar(36)]</text>
<polygon fill="none" stroke="#000000" points="378.5,-797.5 378.5,-827.5 711.5,-827.5 711.5,-797.5 378.5,-797.5"/>
<text text-anchor="start" x="385.5" y="-808.9" font-family="Arial" font-size="14.00" fill="#000000">game_id </text>
<text text-anchor="start" x="443.0708" y="-808.9" font-family="Arial" font-size="14.00" fill="#666666">[varchar(36)]</text>
<polygon fill="none" stroke="#000000" points="378.5,-767.5 378.5,-797.5 711.5,-797.5 711.5,-767.5 378.5,-767.5"/>
<text text-anchor="start" x="385.5" y="-778.9" font-family="Arial" font-size="14.00" fill="#000000">display_name </text>
<text text-anchor="start" x="475.7426" y="-778.9" font-family="Arial" font-size="14.00" fill="#666666">[varchar(64)]</text>
<polygon fill="none" stroke="#000000" points="378.5,-737.5 378.5,-767.5 711.5,-767.5 711.5,-737.5 378.5,-737.5"/>
<text text-anchor="start" x="385.5" y="-748.9" font-family="Arial" font-size="14.00" fill="#000000">created_at </text>
<text text-anchor="start" x="455.528" y="-748.9" font-family="Arial" font-size="14.00" fill="#666666">[datetime]</text>
</g>
<!-- game_creator_custom_jobs&#45;&gt;games -->
<g id="edge2" class="edge">
<title>game_creator_custom_jobs:game_id&#45;&gt;games:id</title>
<path fill="none" stroke="#000000" d="M721.8814,-811.7642C791.4317,-800.9648 698.2109,-674.1365 763.5,-620 909.687,-498.7845 2277.5951,-487.5 2467.5,-487.5"/>
<polygon fill="#000000" stroke="#000000" points="721.475,-811.7929 711.1818,-808.0113 716.4875,-812.1464 711.5,-812.5 711.5,-812.5 711.5,-812.5 716.4875,-812.1464 711.8182,-816.9887 721.475,-811.7929 721.475,-811.7929"/>
<text text-anchor="start" x="718.886" y="-822.5" font-family="Arial" font-size="10.00" fill="#000000">FOREIGN KEY (game_id) REFERENCES games (id)</text>
</g>
<!-- game_genre_relations -->
<g id="node4" class="node">
<title>game_genre_relations</title>
<polygon fill="#efefef" stroke="transparent" points="815.5,-827.5 815.5,-862.5 1105.5,-862.5 1105.5,-827.5 815.5,-827.5"/>
<polygon fill="none" stroke="#000000" points="815.5,-827.5 815.5,-862.5 1105.5,-862.5 1105.5,-827.5 815.5,-827.5"/>
<text text-anchor="start" x="822.3492" y="-840.3" font-family="Arial Bold" font-size="18.00" fill="#000000">game_genre_relations</text>
<text text-anchor="start" x="1001.397" y="-840.3" font-family="Arial" font-size="14.00" fill="#000000"> </text>
<text text-anchor="start" x="1005.2876" y="-840.3" font-family="Arial" font-size="14.00" fill="#666666">[BASE TABLE]</text>
<polygon fill="none" stroke="#000000" points="815.5,-797.5 815.5,-827.5 1105.5,-827.5 1105.5,-797.5 815.5,-797.5"/>
<text text-anchor="start" x="822.5" y="-808.9" font-family="Arial" font-size="14.00" fill="#000000">genre_id </text>
<text text-anchor="start" x="880.8534" y="-808.9" font-family="Arial" font-size="14.00" fill="#666666">[varchar(36)]</text>
<polygon fill="none" stroke="#000000" points="815.5,-767.5 815.5,-797.5 1105.5,-797.5 1105.5,-767.5 815.5,-767.5"/>
<text text-anchor="start" x="822.5" y="-778.9" font-family="Arial" font-size="14.00" fill="#000000">game_id </text>
<text text-anchor="start" x="880.0708" y="-778.9" font-family="Arial" font-size="14.00" fill="#666666">[varchar(36)]</text>
</g>
<!-- game_genre_relations&#45;&gt;games -->
<g id="edge3" class="edge">
<title>game_genre_relations:game_id&#45;&gt;games:id</title>
<path fill="none" stroke="#000000" d="M1115.5086,-781.7003C1173.5868,-771.4525 1101.4588,-665.4063 1157.5,-620 1271.1702,-527.9009 2321.2018,-487.5 2467.5,-487.5"/>
<polygon fill="#000000" stroke="#000000" points="1115.4682,-781.7034 1105.1416,-778.0143 1110.4841,-782.1017 1105.5,-782.5 1105.5,-782.5 1105.5,-782.5 1110.4841,-782.1017 1105.8584,-786.9857 1115.4682,-781.7034 1115.4682,-781.7034"/>
<text text-anchor="start" x="1112.886" y="-792.5" font-family="Arial" font-size="10.00" fill="#000000">FOREIGN KEY (game_id) REFERENCES games (id)</text>
</g>
<!-- game_images -->
<g id="node5" class="node">
<title>game_images</title>
<polygon fill="#efefef" stroke="transparent" points="1209.5,-857.5 1209.5,-892.5 1433.5,-892.5 1433.5,-857.5 1209.5,-857.5"/>
<polygon fill="none" stroke="#000000" points="1209.5,-857.5 1209.5,-892.5 1433.5,-892.5 1433.5,-857.5 1209.5,-857.5"/>
<text text-anchor="start" x="1216.3621" y="-870.3" font-family="Arial Bold" font-size="18.00" fill="#000000">game_images</text>
<text text-anchor="start" x="1329.3841" y="-870.3" font-family="Arial" font-size="14.00" fill="#000000"> </text>
<text text-anchor="start" x="1333.2747" y="-870.3" font-family="Arial" font-size="14.00" fill="#666666">[BASE TABLE]</text>
<polygon fill="none" stroke="#000000" points="1209.5,-827.5 1209.5,-857.5 1433.5,-857.5 1433.5,-827.5 1209.5,-827.5"/>
<text text-anchor="start" x="1216.5" y="-838.9" font-family="Arial" font-size="14.00" fill="#000000">id </text>
<text text-anchor="start" x="1231.2798" y="-838.9" font-family="Arial" font-size="14.00" fill="#666666">[varchar(36)]</text>
<polygon fill="none" stroke="#000000" points="1209.5,-797.5 1209.5,-827.5 1433.5,-827.5 1433.5,-797.5 1209.5,-797.5"/>
<text text-anchor="start" x="1216.5" y="-808.9" font-family="Arial" font-size="14.00" fill="#000000">game_id </text>
<text text-anchor="start" x="1274.0708" y="-808.9" font-family="Arial" font-size="14.00" fill="#666666">[varchar(36)]</text>
<polygon fill="none" stroke="#000000" points="1209.5,-767.5 1209.5,-797.5 1433.5,-797.5 1433.5,-767.5 1209.5,-767.5"/>
<text text-anchor="start" x="1216.5" y="-778.9" font-family="Arial" font-size="14.00" fill="#000000">image_type_id </text>
<text text-anchor="start" x="1311.4158" y="-778.9" font-family="Arial" font-size="14.00" fill="#666666">[tinyint(4)]</text>
<polygon fill="none" stroke="#000000" points="1209.5,-737.5 1209.5,-767.5 1433.5,-767.5 1433.5,-737.5 1209.5,-737.5"/>
<text text-anchor="start" x="1216.5" y="-748.9" font-family="Arial" font-size="14.00" fill="#000000">created_at </text>
<text text-anchor="start" x="1286.528" y="-748.9" font-family="Arial" font-size="14.00" fill="#666666">[datetime]</text>
</g>
<!-- game_images&#45;&gt;games -->
<g id="edge4" class="edge">
<title>game_images:game_id&#45;&gt;games:id</title>
<path fill="none" stroke="#000000" d="M1443.89,-811.7743C1513.5654,-801.1215 1421.7665,-675.9596 1485.5,-620 1568.2344,-547.3571 2357.4001,-487.5 2467.5,-487.5"/>
<polygon fill="#000000" stroke="#000000" points="1443.4757,-811.8031 1433.1864,-808.0109 1438.4878,-812.1516 1433.5,-812.5 1433.5,-812.5 1433.5,-812.5 1438.4878,-812.1516 1433.8136,-816.9891 1443.4757,-811.8031 1443.4757,-811.8031"/>
<text text-anchor="start" x="1189.886" y="-822.5" font-family="Arial" font-size="10.00" fill="#000000">FOREIGN KEY (game_id) REFERENCES games (id)</text>
</g>
<!-- game_management_roles -->
<g id="node6" class="node">
<title>game_management_roles</title>
<polygon fill="#efefef" stroke="transparent" points="1537.5,-842.5 1537.5,-877.5 1857.5,-877.5 1857.5,-842.5 1537.5,-842.5"/>
<polygon fill="none" stroke="#000000" points="1537.5,-842.5 1537.5,-877.5 1857.5,-877.5 1857.5,-842.5 1537.5,-842.5"/>
<text text-anchor="start" x="1544.3471" y="-855.3" font-family="Arial Bold" font-size="18.00" fill="#000000">game_management_roles</text>
<text text-anchor="start" x="1753.3991" y="-855.3" font-family="Arial" font-size="14.00" fill="#000000"> </text>
<text text-anchor="start" x="1757.2897" y="-855.3" font-family="Arial" font-size="14.00" fill="#666666">[BASE TABLE]</text>
<polygon fill="none" stroke="#000000" points="1537.5,-812.5 1537.5,-842.5 1857.5,-842.5 1857.5,-812.5 1537.5,-812.5"/>
<text text-anchor="start" x="1544.5" y="-823.9" font-family="Arial" font-size="14.00" fill="#000000">game_id </text>
<text text-anchor="start" x="1602.0708" y="-823.9" font-family="Arial" font-size="14.00" fill="#666666">[varchar(36)]</text>
<polygon fill="none" stroke="#000000" points="1537.5,-782.5 1537.5,-812.5 1857.5,-812.5 1857.5,-782.5 1537.5,-782.5"/>
<text text-anchor="start" x="1544.5" y="-793.9" font-family="Arial" font-size="14.00" fill="#000000">user_id </text>
<text text-anchor="start" x="1594.2882" y="-793.9" font-family="Arial" font-size="14.00" fill="#666666">[varchar(36)]</text>
<polygon fill="none" stroke="#000000" points="1537.5,-752.5 1537.5,-782.5 1857.5,-782.5 1857.5,-752.5 1537.5,-752.5"/>
<text text-anchor="start" x="1544.5" y="-763.9" font-family="Arial" font-size="14.00" fill="#000000">role_type_id </text>
<text text-anchor="start" x="1624.6332" y="-763.9" font-family="Arial" font-size="14.00" fill="#666666">[tinyint(4)]</text>
</g>
<!-- game_management_roles&#45;&gt;games -->
<g id="edge5" class="edge">
<title>game_management_roles:game_id&#45;&gt;games:id</title>
<path fill="none" stroke="#000000" d="M1867.7223,-826.8688C1944.1964,-816.6213 1844.4991,-684.1994 1909.5,-620 2000.1767,-530.4415 2340.0521,-487.5 2467.5,-487.5"/>
<polygon fill="#000000" stroke="#000000" points="1867.481,-826.8836 1857.2226,-823.0086 1862.4905,-827.1918 1857.5,-827.5 1857.5,-827.5 1857.5,-827.5 1862.4905,-827.1918 1857.7774,-831.9914 1867.481,-826.8836 1867.481,-826.8836"/>
<text text-anchor="start" x="1739.386" y="-811.5" font-family="Arial" font-size="10.00" fill="#000000">FOREIGN KEY (game_id) REFERENCES games (id)</text>
</g>
<!-- game_play_logs -->
<g id="node7" class="node">
<title>game_play_logs</title>
<polygon fill="#efefef" stroke="transparent" points="1961.5,-932.5 1961.5,-967.5 2203.5,-967.5 2203.5,-932.5 1961.5,-932.5"/>
<polygon fill="none" stroke="#000000" points="1961.5,-932.5 1961.5,-967.5 2203.5,-967.5 2203.5,-932.5 1961.5,-932.5"/>
<text text-anchor="start" x="1968.3549" y="-945.3" font-family="Arial Bold" font-size="18.00" fill="#000000">game_play_logs</text>
<text text-anchor="start" x="2099.3913" y="-945.3" font-family="Arial" font-size="14.00" fill="#000000"> </text>
<text text-anchor="start" x="2103.2819" y="-945.3" font-family="Arial" font-size="14.00" fill="#666666">[BASE TABLE]</text>
<polygon fill="none" stroke="#000000" points="1961.5,-902.5 1961.5,-932.5 2203.5,-932.5 2203.5,-902.5 1961.5,-902.5"/>
<text text-anchor="start" x="1968.5" y="-913.9" font-family="Arial" font-size="14.00" fill="#000000">id </text>
<text text-anchor="start" x="1983.2798" y="-913.9" font-family="Arial" font-size="14.00" fill="#666666">[varchar(36)]</text>
<polygon fill="none" stroke="#000000" points="1961.5,-872.5 1961.5,-902.5 2203.5,-902.5 2203.5,-872.5 1961.5,-872.5"/>
<text text-anchor="start" x="1968.5" y="-883.9" font-family="Arial" font-size="14.00" fill="#000000">edition_id </text>
<text text-anchor="start" x="2032.2966" y="-883.9" font-family="Arial" font-size="14.00" fill="#666666">[varchar(36)]</text>
<polygon fill="none" stroke="#000000" points="1961.5,-842.5 1961.5,-872.5 2203.5,-872.5 2203.5,-842.5 1961.5,-842.5"/>
<text text-anchor="start" x="1968.5" y="-853.9" font-family="Arial" font-size="14.00" fill="#000000">game_id </text>
<text text-anchor="start" x="2026.0708" y="-853.9" font-family="Arial" font-size="14.00" fill="#666666">[varchar(36)]</text>
<polygon fill="none" stroke="#000000" points="1961.5,-812.5 1961.5,-842.5 2203.5,-842.5 2203.5,-812.5 1961.5,-812.5"/>
<text text-anchor="start" x="1968.5" y="-823.9" font-family="Arial" font-size="14.00" fill="#000000">game_version_id </text>
<text text-anchor="start" x="2078.9684" y="-823.9" font-family="Arial" font-size="14.00" fill="#666666">[varchar(36)]</text>
<polygon fill="none" stroke="#000000" points="1961.5,-782.5 1961.5,-812.5 2203.5,-812.5 2203.5,-782.5 1961.5,-782.5"/>
<text text-anchor="start" x="1968.5" y="-793.9" font-family="Arial" font-size="14.00" fill="#000000">start_time </text>
<text text-anchor="start" x="2033.838" y="-793.9" font-family="Arial" font-size="14.00" fill="#666666">[datetime]</text>
<polygon fill="none" stroke="#000000" points="1961.5,-752.5 1961.5,-782.5 2203.5,-782.5 2203.5,-752.5 1961.5,-752.5"/>
<text text-anchor="start" x="1968.5" y="-763.9" font-family="Arial" font-size="14.00" fill="#000000">end_time </text>
<text text-anchor="start" x="2029.9614" y="-763.9" font-family="Arial" font-size="14.00" fill="#666666">[datetime]</text>
<polygon fill="none" stroke="#000000" points="1961.5,-722.5 1961.5,-752.5 2203.5,-752.5 2203.5,-722.5 1961.5,-722.5"/>
<text text-anchor="start" x="1968.5" y="-733.9" font-family="Arial" font-size="14.00" fill="#000000">created_at </text>
<text text-anchor="start" x="2038.528" y="-733.9" font-family="Arial" font-size="14.00" fill="#666666">[datetime]</text>
<polygon fill="none" stroke="#000000" points="1961.5,-692.5 1961.5,-722.5 2203.5,-722.5 2203.5,-692.5 1961.5,-692.5"/>
<text text-anchor="start" x="1968.5" y="-703.9" font-family="Arial" font-size="14.00" fill="#000000">updated_at </text>
<text text-anchor="start" x="2042.4326" y="-703.9" font-family="Arial" font-size="14.00" fill="#666666">[datetime]</text>
<polygon fill="none" stroke="#000000" points="1961.5,-662.5 1961.5,-692.5 2203.5,-692.5 2203.5,-662.5 1961.5,-662.5"/>
<text text-anchor="start" x="1968.5" y="-673.9" font-family="Arial" font-size="14.00" fill="#000000">deleted_at </text>
<text text-anchor="start" x="2037.7566" y="-673.9" font-family="Arial" font-size="14.00" fill="#666666">[datetime]</text>
</g>
<!-- game_play_logs&#45;&gt;games -->
<g id="edge6" class="edge">
<title>game_play_logs:game_id&#45;&gt;games:id</title>
<path fill="none" stroke="#000000" d="M2213.5296,-857.0143C2303.8992,-847.6611 2195.3225,-705.3948 2255.5,-620 2319.5042,-529.1749 2356.3887,-487.5 2467.5,-487.5"/>
<polygon fill="#000000" stroke="#000000" points="2213.4883,-857.0162 2203.2823,-853.0053 2208.4941,-857.2581 2203.5,-857.5 2203.5,-857.5 2203.5,-857.5 2208.4941,-857.2581 2203.7177,-861.9947 2213.4883,-857.0162 2213.4883,-857.0162"/>
<text text-anchor="start" x="2085.386" y="-841.5" font-family="Arial" font-size="10.00" fill="#000000">FOREIGN KEY (game_id) REFERENCES games (id)</text>
</g>
<!-- game_versions -->
<g id="node8" class="node">
<title>game_versions</title>
<polygon fill="#efefef" stroke="transparent" points="2308.5,-872.5 2308.5,-907.5 2541.5,-907.5 2541.5,-872.5 2308.5,-872.5"/>
<polygon fill="none" stroke="#000000" points="2308.5,-872.5 2308.5,-907.5 2541.5,-907.5 2541.5,-872.5 2308.5,-872.5"/>
<text text-anchor="start" x="2315.3621" y="-885.3" font-family="Arial Bold" font-size="18.00" fill="#000000">game_versions</text>
<text text-anchor="start" x="2437.3841" y="-885.3" font-family="Arial" font-size="14.00" fill="#000000"> </text>
<text text-anchor="start" x="2441.2747" y="-885.3" font-family="Arial" font-size="14.00" fill="#666666">[BASE TABLE]</text>
<polygon fill="none" stroke="#000000" points="2308.5,-842.5 2308.5,-872.5 2541.5,-872.5 2541.5,-842.5 2308.5,-842.5"/>
<text text-anchor="start" x="2315.5" y="-853.9" font-family="Arial" font-size="14.00" fill="#000000">id </text>
<text text-anchor="start" x="2330.2798" y="-853.9" font-family="Arial" font-size="14.00" fill="#666666">[varchar(36)]</text>
<polygon fill="none" stroke="#000000" points="2308.5,-812.5 2308.5,-842.5 2541.5,-842.5 2541.5,-812.5 2308.5,-812.5"/>
<text text-anchor="start" x="2315.5" y="-823.9" font-family="Arial" font-size="14.00" fill="#000000">game_id </text>
<text text-anchor="start" x="2373.0708" y="-823.9" font-family="Arial" font-size="14.00" fill="#666666">[varchar(36)]</text>
<polygon fill="none" stroke="#000000" points="2308.5,-782.5 2308.5,-812.5 2541.5,-812.5 2541.5,-782.5 2308.5,-782.5"/>
<text text-anchor="start" x="2315.5" y="-793.9" font-family="Arial" font-size="14.00" fill="#000000">name </text>
<text text-anchor="start" x="2354.399" y="-793.9" font-family="Arial" font-size="14.00" fill="#666666">[varchar(32)]</text>
<polygon fill="none" stroke="#000000" points="2308.5,-752.5 2308.5,-782.5 2541.5,-782.5 2541.5,-752.5 2308.5,-752.5"/>
<text text-anchor="start" x="2315.5" y="-763.9" font-family="Arial" font-size="14.00" fill="#000000">description </text>
<text text-anchor="start" x="2387.068" y="-763.9" font-family="Arial" font-size="14.00" fill="#666666">[text]</text>
<polygon fill="none" stroke="#000000" points="2308.5,-722.5 2308.5,-752.5 2541.5,-752.5 2541.5,-722.5 2308.5,-722.5"/>
<text text-anchor="start" x="2315.5" y="-733.9" font-family="Arial" font-size="14.00" fill="#000000">created_at </text>
<text text-anchor="start" x="2385.528" y="-733.9" font-family="Arial" font-size="14.00" fill="#666666">[datetime]</text>
</g>
<!-- game_versions&#45;&gt;games -->
<g id="edge7" class="edge">
<title>game_versions:game_id&#45;&gt;games:id</title>
<path fill="none" stroke="#000000" d="M2551.6051,-826.6974C2602.0988,-817.8955 2561.4431,-738.5385 2541.5,-680 2524.1274,-629.0067 2484.8726,-634.9933 2467.5,-584 2453.6691,-543.4024 2424.6111,-487.5 2467.5,-487.5"/>
<polygon fill="#000000" stroke="#000000" points="2551.4686,-826.7081 2541.1437,-823.0141 2546.4843,-827.1041 2541.5,-827.5 2541.5,-827.5 2541.5,-827.5 2546.4843,-827.1041 2541.8563,-831.9859 2551.4686,-826.7081 2551.4686,-826.7081"/>
<text text-anchor="start" x="2548.886" y="-837.5" font-family="Arial" font-size="10.00" fill="#000000">FOREIGN KEY (game_id) REFERENCES games (id)</text>
</g>
<!-- game_videos -->
<g id="node9" class="node">
<title>game_videos</title>
<polygon fill="#efefef" stroke="transparent" points="2645.5,-857.5 2645.5,-892.5 2863.5,-892.5 2863.5,-857.5 2645.5,-857.5"/>
<polygon fill="none" stroke="#000000" points="2645.5,-857.5 2645.5,-892.5 2863.5,-892.5 2863.5,-857.5 2645.5,-857.5"/>
<text text-anchor="start" x="2652.3582" y="-870.3" font-family="Arial Bold" font-size="18.00" fill="#000000">game_videos</text>
<text text-anchor="start" x="2759.388" y="-870.3" font-family="Arial" font-size="14.00" fill="#000000"> </text>
<text text-anchor="start" x="2763.2786" y="-870.3" font-family="Arial" font-size="14.00" fill="#666666">[BASE TABLE]</text>
<polygon fill="none" stroke="#000000" points="2645.5,-827.5 2645.5,-857.5 2863.5,-857.5 2863.5,-827.5 2645.5,-827.5"/>
<text text-anchor="start" x="2652.5" y="-838.9" font-family="Arial" font-size="14.00" fill="#000000">id </text>
<text text-anchor="start" x="2667.2798" y="-838.9" font-family="Arial" font-size="14.00" fill="#666666">[varchar(36)]</text>
<polygon fill="none" stroke="#000000" points="2645.5,-797.5 2645.5,-827.5 2863.5,-827.5 2863.5,-797.5 2645.5,-797.5"/>
<text text-anchor="start" x="2652.5" y="-808.9" font-family="Arial" font-size="14.00" fill="#000000">game_id </text>
<text text-anchor="start" x="2710.0708" y="-808.9" font-family="Arial" font-size="14.00" fill="#666666">[varchar(36)]</text>
<polygon fill="none" stroke="#000000" points="2645.5,-767.5 2645.5,-797.5 2863.5,-797.5 2863.5,-767.5 2645.5,-767.5"/>
<text text-anchor="start" x="2652.5" y="-778.9" font-family="Arial" font-size="14.00" fill="#000000">video_type_id </text>
<text text-anchor="start" x="2742.7552" y="-778.9" font-family="Arial" font-size="14.00" fill="#666666">[tinyint(4)]</text>
<polygon fill="none" stroke="#000000" points="2645.5,-737.5 2645.5,-767.5 2863.5,-767.5 2863.5,-737.5 2645.5,-737.5"/>
<text text-anchor="start" x="2652.5" y="-748.9" font-family="Arial" font-size="14.00" fill="#000000">created_at </text>
<text text-anchor="start" x="2722.528" y="-748.9" font-family="Arial" font-size="14.00" fill="#666666">[datetime]</text>
</g>
<!-- game_videos&#45;&gt;games -->
<g id="edge8" class="edge">
<title>game_videos:game_id&#45;&gt;games:id</title>
<path fill="none" stroke="#000000" d="M2635.3929,-811.9271C2542.683,-800.569 2699.7294,-623.7072 2710.5,-584 2721.7279,-542.6069 2753.3889,-487.5 2710.5,-487.5"/>
<polygon fill="#000000" stroke="#000000" points="2635.516,-811.934 2645.2453,-816.9928 2640.508,-812.217 2645.5,-812.5 2645.5,-812.5 2645.5,-812.5 2640.508,-812.217 2645.7547,-808.0072 2635.516,-811.934 2635.516,-811.934"/>
<text text-anchor="start" x="2652.886" y="-796.5" font-family="Arial" font-size="10.00" fill="#000000">FOREIGN KEY (game_id) REFERENCES games (id)</text>
</g>
<!-- launcher_version_game_relations -->
<g id="node10" class="node">
<title>launcher_version_game_relations</title>
<polygon fill="#efefef" stroke="transparent" points="2968.5,-827.5 2968.5,-862.5 3349.5,-862.5 3349.5,-827.5 2968.5,-827.5"/>
<polygon fill="none" stroke="#000000" points="2968.5,-827.5 2968.5,-862.5 3349.5,-862.5 3349.5,-827.5 2968.5,-827.5"/>
<text text-anchor="start" x="2975.3434" y="-840.3" font-family="Arial Bold" font-size="18.00" fill="#000000">launcher_version_game_relations</text>
<text text-anchor="start" x="3245.4028" y="-840.3" font-family="Arial" font-size="14.00" fill="#000000"> </text>
<text text-anchor="start" x="3249.2934" y="-840.3" font-family="Arial" font-size="14.00" fill="#666666">[BASE TABLE]</text>
<polygon fill="none" stroke="#000000" points="2968.5,-797.5 2968.5,-827.5 3349.5,-827.5 3349.5,-797.5 2968.5,-797.5"/>
<text text-anchor="start" x="2975.5" y="-808.9" font-family="Arial" font-size="14.00" fill="#000000">launcher_version_table_id </text>
<text text-anchor="start" x="3142.7678" y="-808.9" font-family="Arial" font-size="14.00" fill="#666666">[varchar(36)]</text>
<polygon fill="none" stroke="#000000" points="2968.5,-767.5 2968.5,-797.5 3349.5,-797.5 3349.5,-767.5 2968.5,-767.5"/>
<text text-anchor="start" x="2975.5" y="-778.9" font-family="Arial" font-size="14.00" fill="#000000">game_table_id </text>
<text text-anchor="start" x="3071.1984" y="-778.9" font-family="Arial" font-size="14.00" fill="#666666">[varchar(36)]</text>
</g>
<!-- launcher_version_game_relations&#45;&gt;games -->
<g id="edge9" class="edge">
<title>launcher_version_game_relations:game_table_id&#45;&gt;games:id</title>
<path fill="none" stroke="#000000" d="M2958.3808,-781.7851C2899.0263,-772.6094 2959.5812,-677.2534 2915.5,-620 2849.3173,-534.0408 2818.9856,-487.5 2710.5,-487.5"/>
<polygon fill="#000000" stroke="#000000" points="2958.5249,-781.7951 2968.1828,-786.9888 2963.5124,-782.1476 2968.5,-782.5 2968.5,-782.5 2968.5,-782.5 2963.5124,-782.1476 2968.8172,-778.0112 2958.5249,-781.7951 2958.5249,-781.7951"/>
<text text-anchor="start" x="2766.769" y="-766.5" font-family="Arial" font-size="10.00" fill="#000000">FOREIGN KEY (game_table_id) REFERENCES games (id)</text>
</g>
<!-- v2_game_files -->
<g id="node11" class="node">
<title>v2_game_files</title>
<polygon fill="#efefef" stroke="transparent" points="3453.5,-887.5 3453.5,-922.5 3680.5,-922.5 3680.5,-887.5 3453.5,-887.5"/>
<polygon fill="none" stroke="#000000" points="3453.5,-887.5 3453.5,-922.5 3680.5,-922.5 3680.5,-887.5 3453.5,-887.5"/>
<text text-anchor="start" x="3460.36" y="-900.3" font-family="Arial Bold" font-size="18.00" fill="#000000">v2_game_files</text>
<text text-anchor="start" x="3576.3862" y="-900.3" font-family="Arial" font-size="14.00" fill="#000000"> </text>
<text text-anchor="start" x="3580.2768" y="-900.3" font-family="Arial" font-size="14.00" fill="#666666">[BASE TABLE]</text>
<polygon fill="none" stroke="#000000" points="3453.5,-857.5 3453.5,-887.5 3680.5,-887.5 3680.5,-857.5 3453.5,-857.5"/>
<text text-anchor="start" x="3460.5" y="-868.9" font-family="Arial" font-size="14.00" fill="#000000">id </text>
<text text-anchor="start" x="3475.2798" y="-868.9" font-family="Arial" font-size="14.00" fill="#666666">[varchar(36)]</text>
<polygon fill="none" stroke="#000000" points="3453.5,-827.5 3453.5,-857.5 3680.5,-857.5 3680.5,-827.5 3453.5,-827.5"/>
<text text-anchor="start" x="3460.5" y="-838.9" font-family="Arial" font-size="14.00" fill="#000000">game_id </text>
<text text-anchor="start" x="3518.0708" y="-838.9" font-family="Arial" font-size="14.00" fill="#666666">[varchar(36)]</text>
<polygon fill="none" stroke="#000000" points="3453.5,-797.5 3453.5,-827.5 3680.5,-827.5 3680.5,-797.5 3453.5,-797.5"/>
<text text-anchor="start" x="3460.5" y="-808.9" font-family="Arial" font-size="14.00" fill="#000000">file_type_id </text>
<text text-anchor="start" x="3535.1872" y="-808.9" font-family="Arial" font-size="14.00" fill="#666666">[tinyint(4)]</text>
<polygon fill="none" stroke="#000000" points="3453.5,-767.5 3453.5,-797.5 3680.5,-797.5 3680.5,-767.5 3453.5,-767.5"/>
<text text-anchor="start" x="3460.5" y="-778.9" font-family="Arial" font-size="14.00" fill="#000000">hash </text>
<text text-anchor="start" x="3494.7384" y="-778.9" font-family="Arial" font-size="14.00" fill="#666666">[char(32)]</text>
<polygon fill="none" stroke="#000000" points="3453.5,-737.5 3453.5,-767.5 3680.5,-767.5 3680.5,-737.5 3453.5,-737.5"/>
<text text-anchor="start" x="3460.5" y="-748.9" font-family="Arial" font-size="14.00" fill="#000000">entry_point </text>
<text text-anchor="start" x="3533.6346" y="-748.9" font-family="Arial" font-size="14.00" fill="#666666">[text]</text>
<polygon fill="none" stroke="#000000" points="3453.5,-707.5 3453.5,-737.5 3680.5,-737.5 3680.5,-707.5 3453.5,-707.5"/>
<text text-anchor="start" x="3460.5" y="-718.9" font-family="Arial" font-size="14.00" fill="#000000">created_at </text>
<text text-anchor="start" x="3530.528" y="-718.9" font-family="Arial" font-size="14.00" fill="#666666">[datetime]</text>
</g>
<!-- v2_game_files&#45;&gt;games -->
<g id="edge10" class="edge">
<title>v2_game_files:game_id&#45;&gt;games:id</title>
<path fill="none" stroke="#000000" d="M3443.3506,-841.9151C3360.5639,-831.6118 3472.0895,-687.8117 3401.5,-620 3288.7454,-511.6825 2866.8531,-487.5 2710.5,-487.5"/>
<polygon fill="#000000" stroke="#000000" points="3443.5166,-841.9246 3453.2411,-846.9925 3448.5083,-842.2123 3453.5,-842.5 3453.5,-842.5 3453.5,-842.5 3448.5083,-842.2123 3453.7589,-838.0075 3443.5166,-841.9246 3443.5166,-841.9246"/>
<text text-anchor="start" x="3209.886" y="-852.5" font-family="Arial" font-size="10.00" fill="#000000">FOREIGN KEY (game_id) REFERENCES games (id)</text>
</g>
<!-- v2_game_images -->
<g id="node12" class="node">
<title>v2_game_images</title>
<polygon fill="#efefef" stroke="transparent" points="3784.5,-857.5 3784.5,-892.5 4037.5,-892.5 4037.5,-857.5 3784.5,-857.5"/>
<polygon fill="none" stroke="#000000" points="3784.5,-857.5 3784.5,-892.5 4037.5,-892.5 4037.5,-857.5 3784.5,-857.5"/>
<text text-anchor="start" x="3791.3559" y="-870.3" font-family="Arial Bold" font-size="18.00" fill="#000000">v2_game_images</text>
<text text-anchor="start" x="3933.3903" y="-870.3" font-family="Arial" font-size="14.00" fill="#000000"> </text>
<text text-anchor="start" x="3937.2809" y="-870.3" font-family="Arial" font-size="14.00" fill="#666666">[BASE TABLE]</text>
<polygon fill="none" stroke="#000000" points="3784.5,-827.5 3784.5,-857.5 4037.5,-857.5 4037.5,-827.5 3784.5,-827.5"/>
<text text-anchor="start" x="3791.5" y="-838.9" font-family="Arial" font-size="14.00" fill="#000000">id </text>
<text text-anchor="start" x="3806.2798" y="-838.9" font-family="Arial" font-size="14.00" fill="#666666">[varchar(36)]</text>
<polygon fill="none" stroke="#000000" points="3784.5,-797.5 3784.5,-827.5 4037.5,-827.5 4037.5,-797.5 3784.5,-797.5"/>
<text text-anchor="start" x="3791.5" y="-808.9" font-family="Arial" font-size="14.00" fill="#000000">game_id </text>
<text text-anchor="start" x="3849.0708" y="-808.9" font-family="Arial" font-size="14.00" fill="#666666">[varchar(36)]</text>
<polygon fill="none" stroke="#000000" points="3784.5,-767.5 3784.5,-797.5 4037.5,-797.5 4037.5,-767.5 3784.5,-767.5"/>
<text text-anchor="start" x="3791.5" y="-778.9" font-family="Arial" font-size="14.00" fill="#000000">image_type_id </text>
<text text-anchor="start" x="3886.4158" y="-778.9" font-family="Arial" font-size="14.00" fill="#666666">[tinyint(4)]</text>
<polygon fill="none" stroke="#000000" points="3784.5,-737.5 3784.5,-767.5 4037.5,-767.5 4037.5,-737.5 3784.5,-737.5"/>
<text text-anchor="start" x="3791.5" y="-748.9" font-family="Arial" font-size="14.00" fill="#000000">created_at </text>
<text text-anchor="start" x="3861.528" y="-748.9" font-family="Arial" font-size="14.00" fill="#666666">[datetime]</text>
</g>
<!-- v2_game_images&#45;&gt;games -->
<g id="edge11" class="edge">
<title>v2_game_images:game_id&#45;&gt;games:id</title>
<path fill="none" stroke="#000000" d="M3774.1108,-811.7733C3704.4471,-801.1072 3796.3785,-675.794 3732.5,-620 3646.2589,-544.6735 2825.0059,-487.5 2710.5,-487.5"/>
<polygon fill="#000000" stroke="#000000" points="3774.5244,-811.8022 3784.186,-816.989 3779.5122,-812.1511 3784.5,-812.5 3784.5,-812.5 3784.5,-812.5 3779.5122,-812.1511 3784.814,-808.011 3774.5244,-811.8022 3774.5244,-811.8022"/>
<text text-anchor="start" x="3540.886" y="-822.5" font-family="Arial" font-size="10.00" fill="#000000">FOREIGN KEY (game_id) REFERENCES games (id)</text>
</g>
<!-- v2_game_versions -->
<g id="node13" class="node">
<title>v2_game_versions</title>
<polygon fill="#efefef" stroke="transparent" points="4141.5,-917.5 4141.5,-952.5 4403.5,-952.5 4403.5,-917.5 4141.5,-917.5"/>
<polygon fill="none" stroke="#000000" points="4141.5,-917.5 4141.5,-952.5 4403.5,-952.5 4403.5,-917.5 4141.5,-917.5"/>
<text text-anchor="start" x="4148.3559" y="-930.3" font-family="Arial Bold" font-size="18.00" fill="#000000">v2_game_versions</text>
<text text-anchor="start" x="4299.3903" y="-930.3" font-family="Arial" font-size="14.00" fill="#000000"> </text>
<text text-anchor="start" x="4303.2809" y="-930.3" font-family="Arial" font-size="14.00" fill="#666666">[BASE TABLE]</text>
<polygon fill="none" stroke="#000000" points="4141.5,-887.5 4141.5,-917.5 4403.5,-917.5 4403.5,-887.5 4141.5,-887.5"/>
<text text-anchor="start" x="4148.5" y="-898.9" font-family="Arial" font-size="14.00" fill="#000000">id </text>
<text text-anchor="start" x="4163.2798" y="-898.9" font-family="Arial" font-size="14.00" fill="#666666">[varchar(36)]</text>
<polygon fill="none" stroke="#000000" points="4141.5,-857.5 4141.5,-887.5 4403.5,-887.5 4403.5,-857.5 4141.5,-857.5"/>
<text text-anchor="start" x="4148.5" y="-868.9" font-family="Arial" font-size="14.00" fill="#000000">game_id </text>
<text text-anchor="start" x="4206.0708" y="-868.9" font-family="Arial" font-size="14.00" fill="#666666">[varchar(36)]</text>
<polygon fill="none" stroke="#000000" points="4141.5,-827.5 4141.5,-857.5 4403.5,-857.5 4403.5,-827.5 4141.5,-827.5"/>
<text text-anchor="start" x="4148.5" y="-838.9" font-family="Arial" font-size="14.00" fill="#000000">game_image_id </text>
<text text-anchor="start" x="4251.9684" y="-838.9" font-family="Arial" font-size="14.00" fill="#666666">[varchar(36)]</text>
<polygon fill="none" stroke="#000000" points="4141.5,-797.5 4141.5,-827.5 4403.5,-827.5 4403.5,-797.5 4141.5,-797.5"/>
<text text-anchor="start" x="4148.5" y="-808.9" font-family="Arial" font-size="14.00" fill="#000000">game_video_id </text>
<text text-anchor="start" x="4247.3078" y="-808.9" font-family="Arial" font-size="14.00" fill="#666666">[varchar(36)]</text>
<polygon fill="none" stroke="#000000" points="4141.5,-767.5 4141.5,-797.5 4403.5,-797.5 4403.5,-767.5 4141.5,-767.5"/>
<text text-anchor="start" x="4148.5" y="-778.9" font-family="Arial" font-size="14.00" fill="#000000">name </text>
<text text-anchor="start" x="4187.399" y="-778.9" font-family="Arial" font-size="14.00" fill="#666666">[varchar(32)]</text>
<polygon fill="none" stroke="#000000" points="4141.5,-737.5 4141.5,-767.5 4403.5,-767.5 4403.5,-737.5 4141.5,-737.5"/>
<text text-anchor="start" x="4148.5" y="-748.9" font-family="Arial" font-size="14.00" fill="#000000">description </text>
<text text-anchor="start" x="4220.068" y="-748.9" font-family="Arial" font-size="14.00" fill="#666666">[text]</text>
<polygon fill="none" stroke="#000000" points="4141.5,-707.5 4141.5,-737.5 4403.5,-737.5 4403.5,-707.5 4141.5,-707.5"/>
<text text-anchor="start" x="4148.5" y="-718.9" font-family="Arial" font-size="14.00" fill="#000000">created_at </text>
<text text-anchor="start" x="4218.528" y="-718.9" font-family="Arial" font-size="14.00" fill="#666666">[datetime]</text>
<polygon fill="none" stroke="#000000" points="4141.5,-677.5 4141.5,-707.5 4403.5,-707.5 4403.5,-677.5 4141.5,-677.5"/>
<text text-anchor="start" x="4148.5" y="-688.9" font-family="Arial" font-size="14.00" fill="#000000">url </text>
<text text-anchor="start" x="4167.9404" y="-688.9" font-family="Arial" font-size="14.00" fill="#666666">[text]</text>
</g>
<!-- v2_game_versions&#45;&gt;games -->
<g id="edge12" class="edge">
<title>v2_game_versions:game_id&#45;&gt;games:id</title>
<path fill="none" stroke="#000000" d="M4131.512,-871.9929C4035.9341,-861.6006 4172.0828,-694.1644 4089.5,-620 3974.9759,-517.1504 2864.4279,-487.5 2710.5,-487.5"/>
<polygon fill="#000000" stroke="#000000" points="4131.5129,-871.9929 4141.2718,-876.9942 4136.5064,-872.2464 4141.5,-872.5 4141.5,-872.5 4141.5,-872.5 4136.5064,-872.2464 4141.7282,-868.0058 4131.5129,-871.9929 4131.5129,-871.9929"/>
<text text-anchor="start" x="4148.886" y="-882.5" font-family="Arial" font-size="10.00" fill="#000000">FOREIGN KEY (game_id) REFERENCES games (id)</text>
</g>
<!-- v2_game_videos -->
<g id="node14" class="node">
<title>v2_game_videos</title>
<polygon fill="#efefef" stroke="transparent" points="4508.5,-857.5 4508.5,-892.5 4755.5,-892.5 4755.5,-857.5 4508.5,-857.5"/>
<polygon fill="none" stroke="#000000" points="4508.5,-857.5 4508.5,-892.5 4755.5,-892.5 4755.5,-857.5 4508.5,-857.5"/>
<text text-anchor="start" x="4515.352" y="-870.3" font-family="Arial Bold" font-size="18.00" fill="#000000">v2_game_videos</text>
<text text-anchor="start" x="4651.3942" y="-870.3" font-family="Arial" font-size="14.00" fill="#000000"> </text>
<text text-anchor="start" x="4655.2848" y="-870.3" font-family="Arial" font-size="14.00" fill="#666666">[BASE TABLE]</text>
<polygon fill="none" stroke="#000000" points="4508.5,-827.5 4508.5,-857.5 4755.5,-857.5 4755.5,-827.5 4508.5,-827.5"/>
<text text-anchor="start" x="4515.5" y="-838.9" font-family="Arial" font-size="14.00" fill="#000000">id </text>
<text text-anchor="start" x="4530.2798" y="-838.9" font-family="Arial" font-size="14.00" fill="#666666">[varchar(36)]</text>
<polygon fill="none" stroke="#000000" points="4508.5,-797.5 4508.5,-827.5 4755.5,-827.5 4755.5,-797.5 4508.5,-797.5"/>
<text text-anchor="start" x="4515.5" y="-808.9" font-family="Arial" font-size="14.00" fill="#000000">game_id </text>
<text text-anchor="start" x="4573.0708" y="-808.9" font-family="Arial" font-size="14.00" fill="#666666">[varchar(36)]</text>
<polygon fill="none" stroke="#000000" points="4508.5,-767.5 4508.5,-797.5 4755.5,-797.5 4755.5,-767.5 4508.5,-767.5"/>
<text text-anchor="start" x="4515.5" y="-778.9" font-family="Arial" font-size="14.00" fill="#000000">video_type_id </text>
<text text-anchor="start" x="4605.7552" y="-778.9" font-family="Arial" font-size="14.00" fill="#666666">[tinyint(4)]</text>
<polygon fill="none" stroke="#000000" points="4508.5,-737.5 4508.5,-767.5 4755.5,-767.5 4755.5,-737.5 4508.5,-737.5"/>
<text text-anchor="start" x="4515.5" y="-748.9" font-family="Arial" font-size="14.00" fill="#000000">created_at </text>
<text text-anchor="start" x="4585.528" y="-748.9" font-family="Arial" font-size="14.00" fill="#666666">[datetime]</text>
</g>
<!-- v2_game_videos&#45;&gt;games -->
<g id="edge13" class="edge">
<title>v2_game_videos:game_id&#45;&gt;games:id</title>
<path fill="none" stroke="#000000" d="M4498.1009,-811.7633C4428.3999,-800.9522 4521.0552,-673.9902 4455.5,-620 4305.4045,-496.3837 2904.947,-487.5 2710.5,-487.5"/>
<polygon fill="#000000" stroke="#000000" points="4498.525,-811.7933 4508.182,-816.9888 4503.5125,-812.1467 4508.5,-812.5 4508.5,-812.5 4508.5,-812.5 4503.5125,-812.1467 4508.818,-808.0112 4498.525,-811.7933 4498.525,-811.7933"/>
<text text-anchor="start" x="4515.886" y="-822.5" font-family="Arial" font-size="10.00" fill="#000000">FOREIGN KEY (game_id) REFERENCES games (id)</text>
</g>
<!-- v2_latest_game_version_times -->
<g id="node15" class="node">
<title>v2_latest_game_version_times</title>
<polygon fill="#efefef" stroke="transparent" points="4859.5,-842.5 4859.5,-877.5 5218.5,-877.5 5218.5,-842.5 4859.5,-842.5"/>
<polygon fill="none" stroke="#000000" points="4859.5,-842.5 4859.5,-877.5 5218.5,-877.5 5218.5,-842.5 4859.5,-842.5"/>
<text text-anchor="start" x="4866.3468" y="-855.3" font-family="Arial Bold" font-size="18.00" fill="#000000">v2_latest_game_version_times</text>
<text text-anchor="start" x="5114.3994" y="-855.3" font-family="Arial" font-size="14.00" fill="#000000"> </text>
<text text-anchor="start" x="5118.29" y="-855.3" font-family="Arial" font-size="14.00" fill="#666666">[BASE TABLE]</text>
<polygon fill="none" stroke="#000000" points="4859.5,-812.5 4859.5,-842.5 5218.5,-842.5 5218.5,-812.5 4859.5,-812.5"/>
<text text-anchor="start" x="4866.5" y="-823.9" font-family="Arial" font-size="14.00" fill="#000000">game_id </text>
<text text-anchor="start" x="4924.0708" y="-823.9" font-family="Arial" font-size="14.00" fill="#666666">[varchar(36)]</text>
<polygon fill="none" stroke="#000000" points="4859.5,-782.5 4859.5,-812.5 5218.5,-812.5 5218.5,-782.5 4859.5,-782.5"/>
<text text-anchor="start" x="4866.5" y="-793.9" font-family="Arial" font-size="14.00" fill="#000000">latest_game_version_id </text>
<text text-anchor="start" x="5018.204" y="-793.9" font-family="Arial" font-size="14.00" fill="#666666">[varchar(36)]</text>
<polygon fill="none" stroke="#000000" points="4859.5,-752.5 4859.5,-782.5 5218.5,-782.5 5218.5,-752.5 4859.5,-752.5"/>
<text text-anchor="start" x="4866.5" y="-763.9" font-family="Arial" font-size="14.00" fill="#000000">latest_game_version_created_at </text>
<text text-anchor="start" x="5073.4522" y="-763.9" font-family="Arial" font-size="14.00" fill="#666666">[datetime]</text>
</g>
<!-- v2_latest_game_version_times&#45;&gt;games -->
<g id="edge14" class="edge">
<title>v2_latest_game_version_times:game_id&#45;&gt;games:id</title>
<path fill="none" stroke="#000000" d="M4849.3015,-826.8424C4773.2112,-816.1719 4877.7177,-678.4479 4807.5,-620 4717.7818,-545.3202 2827.2323,-487.5 2710.5,-487.5"/>
<polygon fill="#000000" stroke="#000000" points="4849.5207,-826.8565 4859.2104,-831.9907 4854.5104,-827.1782 4859.5,-827.5 4859.5,-827.5 4859.5,-827.5 4854.5104,-827.1782 4859.7896,-823.0093 4849.5207,-826.8565 4849.5207,-826.8565"/>
<text text-anchor="start" x="4866.886" y="-837.5" font-family="Arial" font-size="10.00" fill="#000000">FOREIGN KEY (game_id) REFERENCES games (id)</text>
</g>
</g>
</svg>
