<?xml version="1.0" encoding="UTF-8" standalone="no"?>
<!DOCTYPE svg PUBLIC "-//W3C//DTD SVG 1.1//EN"
 "http://www.w3.org/Graphics/SVG/1.1/DTD/svg11.dtd">
<!-- Generated by graphviz version 2.40.1 (20161225.0304)
 -->
<!-- Title: game_creator_custom_jobs Pages: 1 -->
<svg width="795pt" height="809pt"
 viewBox="0.00 0.00 795.00 809.00" xmlns="http://www.w3.org/2000/svg" xmlns:xlink="http://www.w3.org/1999/xlink">
<g id="graph0" class="graph" transform="scale(1 1) rotate(0) translate(4 805)">
<title>game_creator_custom_jobs</title>
<polygon fill="#ffffff" stroke="transparent" points="-4,4 -4,-805 791,-805 791,4 -4,4"/>
<!-- game_creator_custom_jobs -->
<g id="node1" class="node">
<title>game_creator_custom_jobs</title>
<polygon fill="#efefef" stroke="transparent" points="203,-502.5 203,-537.5 536,-537.5 536,-502.5 203,-502.5"/>
<polygon fill="none" stroke="#000000" points="203,-502.5 203,-537.5 536,-537.5 536,-502.5 203,-502.5"/>
<text text-anchor="start" x="209.8491" y="-515.3" font-family="Arial Bold" font-size="18.00" fill="#000000">game_creator_custom_jobs</text>
<text text-anchor="start" x="431.8971" y="-515.3" font-family="Arial" font-size="14.00" fill="#000000"> </text>
<text text-anchor="start" x="435.7877" y="-515.3" font-family="Arial" font-size="14.00" fill="#666666">[BASE TABLE]</text>
<polygon fill="none" stroke="#000000" points="203,-472.5 203,-502.5 536,-502.5 536,-472.5 203,-472.5"/>
<text text-anchor="start" x="210" y="-483.9" font-family="Arial" font-size="14.00" fill="#000000">id </text>
<text text-anchor="start" x="224.7798" y="-483.9" font-family="Arial" font-size="14.00" fill="#666666">[varchar(36)]</text>
<polygon fill="none" stroke="#000000" points="203,-442.5 203,-472.5 536,-472.5 536,-442.5 203,-442.5"/>
<text text-anchor="start" x="210" y="-453.9" font-family="Arial" font-size="14.00" fill="#000000">game_id </text>
<text text-anchor="start" x="267.5708" y="-453.9" font-family="Arial" font-size="14.00" fill="#666666">[varchar(36)]</text>
<polygon fill="none" stroke="#000000" points="203,-412.5 203,-442.5 536,-442.5 536,-412.5 203,-412.5"/>
<text text-anchor="start" x="210" y="-423.9" font-family="Arial" font-size="14.00" fill="#000000">display_name </text>
<text text-anchor="start" x="300.2426" y="-423.9" font-family="Arial" font-size="14.00" fill="#666666">[varchar(64)]</text>
<polygon fill="none" stroke="#000000" points="203,-382.5 203,-412.5 536,-412.5 536,-382.5 203,-382.5"/>
<text text-anchor="start" x="210" y="-393.9" font-family="Arial" font-size="14.00" fill="#000000">created_at </text>
<text text-anchor="start" x="280.028" y="-393.9" font-family="Arial" font-size="14.00" fill="#666666">[datetime]</text>
<polygon fill="none" stroke="#000000" stroke-width="3" points="201,-381.5 201,-539.5 537,-539.5 537,-381.5 201,-381.5"/>
</g>
<!-- games -->
<g id="node3" class="node">
<title>games</title>
<polygon fill="#efefef" stroke="transparent" points="280,-222.5 280,-257.5 460,-257.5 460,-222.5 280,-222.5"/>
<polygon fill="none" stroke="#000000" points="280,-222.5 280,-257.5 460,-257.5 460,-222.5 280,-222.5"/>
<text text-anchor="start" x="294.3677" y="-235.3" font-family="Arial Bold" font-size="18.00" fill="#000000">games</text>
<text text-anchor="start" x="348.3785" y="-235.3" font-family="Arial" font-size="14.00" fill="#000000"> </text>
<text text-anchor="start" x="352.2691" y="-235.3" font-family="Arial" font-size="14.00" fill="#666666">[BASE TABLE]</text>
<polygon fill="none" stroke="#000000" points="280,-192.5 280,-222.5 460,-222.5 460,-192.5 280,-192.5"/>
<text text-anchor="start" x="287" y="-203.9" font-family="Arial" font-size="14.00" fill="#000000">id </text>
<text text-anchor="start" x="301.7798" y="-203.9" font-family="Arial" font-size="14.00" fill="#666666">[varchar(36)]</text>
<polygon fill="none" stroke="#000000" points="280,-162.5 280,-192.5 460,-192.5 460,-162.5 280,-162.5"/>
<text text-anchor="start" x="287" y="-173.9" font-family="Arial" font-size="14.00" fill="#000000">name </text>
<text text-anchor="start" x="325.899" y="-173.9" font-family="Arial" font-size="14.00" fill="#666666">[varchar(256)]</text>
<polygon fill="none" stroke="#000000" points="280,-132.5 280,-162.5 460,-162.5 460,-132.5 280,-132.5"/>
<text text-anchor="start" x="287" y="-143.9" font-family="Arial" font-size="14.00" fill="#000000">description </text>
<text text-anchor="start" x="358.568" y="-143.9" font-family="Arial" font-size="14.00" fill="#666666">[text]</text>
<polygon fill="none" stroke="#000000" points="280,-102.5 280,-132.5 460,-132.5 460,-102.5 280,-102.5"/>
<text text-anchor="start" x="287" y="-113.9" font-family="Arial" font-size="14.00" fill="#000000">created_at </text>
<text text-anchor="start" x="357.028" y="-113.9" font-family="Arial" font-size="14.00" fill="#666666">[datetime]</text>
<polygon fill="none" stroke="#000000" points="280,-72.5 280,-102.5 460,-102.5 460,-72.5 280,-72.5"/>
<text text-anchor="start" x="287" y="-83.9" font-family="Arial" font-size="14.00" fill="#000000">deleted_at </text>
<text text-anchor="start" x="356.2566" y="-83.9" font-family="Arial" font-size="14.00" fill="#666666">[datetime]</text>
<polygon fill="none" stroke="#000000" points="280,-42.5 280,-72.5 460,-72.5 460,-42.5 280,-42.5"/>
<text text-anchor="start" x="286.7742" y="-53.9" font-family="Arial" font-size="14.00" fill="#000000">visibility_type_id </text>
<text text-anchor="start" x="391.7812" y="-53.9" font-family="Arial" font-size="14.00" fill="#666666">[tinyint(4)]</text>
</g>
<!-- game_creator_custom_jobs&#45;&gt;games -->
<g id="edge2" class="edge">
<title>game_creator_custom_jobs:game_id&#45;&gt;games:id</title>
<path fill="none" stroke="#000000" d="M545.9917,-456.4156C586.9589,-446.7369 568.7322,-374.6572 536,-337 460.6242,-250.2828 355.3758,-387.7172 280,-301 252.7384,-269.6365 238.4444,-207.5 280,-207.5"/>
<polygon fill="#000000" stroke="#000000" points="545.9416,-456.421 535.5144,-453.0263 540.9708,-456.9605 536,-457.5 536,-457.5 536,-457.5 540.9708,-456.9605 536.4856,-461.9737 545.9416,-456.421 545.9416,-456.421"/>
<text text-anchor="start" x="543.386" y="-467.5" font-family="Arial" font-size="10.00" fill="#000000">FOREIGN KEY (game_id) REFERENCES games (id)</text>
</g>
<!-- game_creator_custom_job_relations -->
<g id="node2" class="node">
<title>game_creator_custom_job_relations</title>
<polygon fill="#efefef" stroke="transparent" points="169,-722.5 169,-757.5 571,-757.5 571,-722.5 169,-722.5"/>
<polygon fill="none" stroke="#000000" points="169,-722.5 169,-757.5 571,-757.5 571,-722.5 169,-722.5"/>
<text text-anchor="start" x="175.8422" y="-735.3" font-family="Arial Bold" font-size="18.00" fill="#000000">game_creator_custom_job_relations</text>
<text text-anchor="start" x="466.904" y="-735.3" font-family="Arial" font-size="14.00" fill="#000000"> </text>
<text text-anchor="start" x="470.7946" y="-735.3" font-family="Arial" font-size="14.00" fill="#666666">[BASE TABLE]</text>
<polygon fill="none" stroke="#000000" points="169,-692.5 169,-722.5 571,-722.5 571,-692.5 169,-692.5"/>
<text text-anchor="start" x="176" y="-703.9" font-family="Arial" font-size="14.00" fill="#000000">game_creator_id </text>
<text text-anchor="start" x="284.913" y="-703.9" font-family="Arial" font-size="14.00" fill="#666666">[varchar(36)]</text>
<polygon fill="none" stroke="#000000" points="169,-662.5 169,-692.5 571,-692.5 571,-662.5 169,-662.5"/>
<text text-anchor="start" x="176" y="-673.9" font-family="Arial" font-size="14.00" fill="#000000">custom_job_id </text>
<text text-anchor="start" x="270.1332" y="-673.9" font-family="Arial" font-size="14.00" fill="#666666">[varchar(36)]</text>
</g>
<!-- game_creator_custom_job_relations&#45;&gt;game_creator_custom_jobs -->
<g id="edge1" class="edge">
<title>game_creator_custom_job_relations:custom_job_id&#45;&gt;game_creator_custom_jobs:id</title>
<path fill="none" stroke="#000000" d="M370.7224,-652.4052C380.8324,-587.0783 494.2976,-649.851 536,-584 558.9465,-547.7659 578.8889,-487.5 536,-487.5"/>
<polygon fill="#000000" stroke="#000000" points="370.7139,-652.5255 365.5115,-662.1788 370.3569,-657.5128 370,-662.5 370,-662.5 370,-662.5 370.3569,-657.5128 374.4885,-662.8212 370.7139,-652.5255 370.7139,-652.5255"/>
<text text-anchor="start" x="6.651" y="-672.5" font-family="Arial" font-size="10.00" fill="#000000">FOREIGN KEY (custom_job_id) REFERENCES game_creator_custom_jobs (id)</text>
</g>
</g>
</svg>
