<?xml version="1.0" encoding="UTF-8" standalone="no"?>
<!DOCTYPE svg PUBLIC "-//W3C//DTD SVG 1.1//EN"
 "http://www.w3.org/Graphics/SVG/1.1/DTD/svg11.dtd">
<!-- Generated by graphviz version 2.40.1 (20161225.0304)
 -->
<!-- Title: game_genre_relations Pages: 1 -->
<svg width="831pt" height="562pt"
 viewBox="0.00 0.00 831.00 562.00" xmlns="http://www.w3.org/2000/svg" xmlns:xlink="http://www.w3.org/1999/xlink">
<g id="graph0" class="graph" transform="scale(1 1) rotate(0) translate(4 558)">
<title>game_genre_relations</title>
<polygon fill="#ffffff" stroke="transparent" points="-4,4 -4,-558 827,-558 827,4 -4,4"/>
<!-- game_genre_relations -->
<g id="node1" class="node">
<title>game_genre_relations</title>
<polygon fill="#efefef" stroke="transparent" points="282,-472.5 282,-507.5 572,-507.5 572,-472.5 282,-472.5"/>
<polygon fill="none" stroke="#000000" points="282,-472.5 282,-507.5 572,-507.5 572,-472.5 282,-472.5"/>
<text text-anchor="start" x="288.8492" y="-485.3" font-family="Arial Bold" font-size="18.00" fill="#000000">game_genre_relations</text>
<text text-anchor="start" x="467.897" y="-485.3" font-family="Arial" font-size="14.00" fill="#000000"> </text>
<text text-anchor="start" x="471.7876" y="-485.3" font-family="Arial" font-size="14.00" fill="#666666">[BASE TABLE]</text>
<polygon fill="none" stroke="#000000" points="282,-442.5 282,-472.5 572,-472.5 572,-442.5 282,-442.5"/>
<text text-anchor="start" x="289" y="-453.9" font-family="Arial" font-size="14.00" fill="#000000">genre_id </text>
<text text-anchor="start" x="347.3534" y="-453.9" font-family="Arial" font-size="14.00" fill="#666666">[varchar(36)]</text>
<polygon fill="none" stroke="#000000" points="282,-412.5 282,-442.5 572,-442.5 572,-412.5 282,-412.5"/>
<text text-anchor="start" x="289" y="-423.9" font-family="Arial" font-size="14.00" fill="#000000">game_id </text>
<text text-anchor="start" x="346.5708" y="-423.9" font-family="Arial" font-size="14.00" fill="#666666">[varchar(36)]</text>
<polygon fill="none" stroke="#000000" stroke-width="3" points="280.5,-411.5 280.5,-509.5 573.5,-509.5 573.5,-411.5 280.5,-411.5"/>
</g>
<!-- game_genres -->
<g id="node2" class="node">
<title>game_genres</title>
<polygon fill="#efefef" stroke="transparent" points="148,-192.5 148,-227.5 369,-227.5 369,-192.5 148,-192.5"/>
<polygon fill="none" stroke="#000000" points="148,-192.5 148,-227.5 369,-227.5 369,-192.5 148,-192.5"/>
<text text-anchor="start" x="154.8561" y="-205.3" font-family="Arial Bold" font-size="18.00" fill="#000000">game_genres</text>
<text text-anchor="start" x="264.8901" y="-205.3" font-family="Arial" font-size="14.00" fill="#000000"> </text>
<text text-anchor="start" x="268.7807" y="-205.3" font-family="Arial" font-size="14.00" fill="#666666">[BASE TABLE]</text>
<polygon fill="none" stroke="#000000" points="148,-162.5 148,-192.5 369,-192.5 369,-162.5 148,-162.5"/>
<text text-anchor="start" x="155" y="-173.9" font-family="Arial" font-size="14.00" fill="#000000">id </text>
<text text-anchor="start" x="169.7798" y="-173.9" font-family="Arial" font-size="14.00" fill="#666666">[varchar(36)]</text>
<polygon fill="none" stroke="#000000" points="148,-132.5 148,-162.5 369,-162.5 369,-132.5 148,-132.5"/>
<text text-anchor="start" x="155" y="-143.9" font-family="Arial" font-size="14.00" fill="#000000">name </text>
<text text-anchor="start" x="193.899" y="-143.9" font-family="Arial" font-size="14.00" fill="#666666">[varchar(32)]</text>
<polygon fill="none" stroke="#000000" points="148,-102.5 148,-132.5 369,-132.5 369,-102.5 148,-102.5"/>
<text text-anchor="start" x="155" y="-113.9" font-family="Arial" font-size="14.00" fill="#000000">created_at </text>
<text text-anchor="start" x="225.028" y="-113.9" font-family="Arial" font-size="14.00" fill="#666666">[datetime]</text>
</g>
<!-- game_genre_relations&#45;&gt;game_genres -->
<g id="edge1" class="edge">
<title>game_genre_relations:genre_id&#45;&gt;game_genres:id</title>
<path fill="none" stroke="#000000" d="M272.0316,-456.0482C246.6991,-447.3011 268.9388,-400.8626 282,-367 302.7216,-313.2769 348.2784,-324.7231 369,-271 383.9546,-232.2286 410.5556,-177.5 369,-177.5"/>
<polygon fill="#000000" stroke="#000000" points="272.1044,-456.0587 281.3514,-461.953 277.0522,-456.7793 282,-457.5 282,-457.5 282,-457.5 277.0522,-456.7793 282.6486,-453.047 272.1044,-456.0587 272.1044,-456.0587"/>
<text text-anchor="start" x="6.5445" y="-467.5" font-family="Arial" font-size="10.00" fill="#000000">FOREIGN KEY (genre_id) REFERENCES game_genres (id)</text>
</g>
<!-- games -->
<g id="node3" class="node">
<title>games</title>
<polygon fill="#efefef" stroke="transparent" points="473,-252.5 473,-287.5 716,-287.5 716,-252.5 473,-252.5"/>
<polygon fill="none" stroke="#000000" points="473,-252.5 473,-287.5 716,-287.5 716,-252.5 473,-252.5"/>
<text text-anchor="start" x="518.8677" y="-265.3" font-family="Arial Bold" font-size="18.00" fill="#000000">games</text>
<text text-anchor="start" x="572.8785" y="-265.3" font-family="Arial" font-size="14.00" fill="#000000"> </text>
<text text-anchor="start" x="576.7691" y="-265.3" font-family="Arial" font-size="14.00" fill="#666666">[BASE TABLE]</text>
<polygon fill="none" stroke="#000000" points="473,-222.5 473,-252.5 716,-252.5 716,-222.5 473,-222.5"/>
<text text-anchor="start" x="480" y="-233.9" font-family="Arial" font-size="14.00" fill="#000000">id </text>
<text text-anchor="start" x="494.7798" y="-233.9" font-family="Arial" font-size="14.00" fill="#666666">[varchar(36)]</text>
<polygon fill="none" stroke="#000000" points="473,-192.5 473,-222.5 716,-222.5 716,-192.5 473,-192.5"/>
<text text-anchor="start" x="480" y="-203.9" font-family="Arial" font-size="14.00" fill="#000000">name </text>
<text text-anchor="start" x="518.899" y="-203.9" font-family="Arial" font-size="14.00" fill="#666666">[varchar(256)]</text>
<polygon fill="none" stroke="#000000" points="473,-162.5 473,-192.5 716,-192.5 716,-162.5 473,-162.5"/>
<text text-anchor="start" x="480" y="-173.9" font-family="Arial" font-size="14.00" fill="#000000">description </text>
<text text-anchor="start" x="551.568" y="-173.9" font-family="Arial" font-size="14.00" fill="#666666">[text]</text>
<polygon fill="none" stroke="#000000" points="473,-132.5 473,-162.5 716,-162.5 716,-132.5 473,-132.5"/>
<text text-anchor="start" x="480" y="-143.9" font-family="Arial" font-size="14.00" fill="#000000">created_at </text>
<text text-anchor="start" x="550.028" y="-143.9" font-family="Arial" font-size="14.00" fill="#666666">[datetime]</text>
<polygon fill="none" stroke="#000000" points="473,-102.5 473,-132.5 716,-132.5 716,-102.5 473,-102.5"/>
<text text-anchor="start" x="480" y="-113.9" font-family="Arial" font-size="14.00" fill="#000000">deleted_at </text>
<text text-anchor="start" x="549.2566" y="-113.9" font-family="Arial" font-size="14.00" fill="#666666">[datetime]</text>
<polygon fill="none" stroke="#000000" points="473,-72.5 473,-102.5 716,-102.5 716,-72.5 473,-72.5"/>
<text text-anchor="start" x="480" y="-83.9" font-family="Arial" font-size="14.00" fill="#000000">visibility_type_id </text>
<text text-anchor="start" x="585.007" y="-83.9" font-family="Arial" font-size="14.00" fill="#666666">[tinyint(4)]</text>
<polygon fill="none" stroke="#000000" points="473,-42.5 473,-72.5 716,-72.5 716,-42.5 473,-42.5"/>
<text text-anchor="start" x="479.7371" y="-53.9" font-family="Arial" font-size="14.00" fill="#000000">latest_version_updated_at </text>
<text text-anchor="start" x="647.8029" y="-53.9" font-family="Arial" font-size="14.00" fill="#666666">[datetime]</text>
</g>
<!-- game_genre_relations&#45;&gt;games -->
<g id="edge2" class="edge">
<title>game_genre_relations:game_id&#45;&gt;games:id</title>
<path fill="none" stroke="#000000" d="M581.9264,-424.8915C595.21,-415.8779 585.0158,-385.5826 572,-367 545.1402,-328.6522 499.8598,-369.3478 473,-331 449.1597,-296.9632 431.4444,-237.5 473,-237.5"/>
<polygon fill="#000000" stroke="#000000" points="581.6716,-424.9583 570.8562,-423.1478 576.8358,-426.2292 572,-427.5 572,-427.5 572,-427.5 576.8358,-426.2292 573.1438,-431.8522 581.6716,-424.9583 581.6716,-424.9583"/>
<text text-anchor="start" x="579.386" y="-437.5" font-family="Arial" font-size="10.00" fill="#000000">FOREIGN KEY (game_id) REFERENCES games (id)</text>
</g>
</g>
</svg>
