<?xml version="1.0" encoding="UTF-8" standalone="no"?>
<!DOCTYPE svg PUBLIC "-//W3C//DTD SVG 1.1//EN"
 "http://www.w3.org/Graphics/SVG/1.1/DTD/svg11.dtd">
<!-- Generated by graphviz version 2.40.1 (20161225.0304)
 -->
<!-- Title: game_video_types Pages: 1 -->
<svg width="769pt" height="502pt"
 viewBox="0.00 0.00 769.00 502.00" xmlns="http://www.w3.org/2000/svg" xmlns:xlink="http://www.w3.org/1999/xlink">
<g id="graph0" class="graph" transform="scale(1 1) rotate(0) translate(4 498)">
<title>game_video_types</title>
<polygon fill="#ffffff" stroke="transparent" points="-4,4 -4,-498 765,-498 765,4 -4,4"/>
<!-- game_video_types -->
<g id="node1" class="node">
<title>game_video_types</title>
<polygon fill="#efefef" stroke="transparent" points="257,-135.5 257,-170.5 519,-170.5 519,-135.5 257,-135.5"/>
<polygon fill="none" stroke="#000000" points="257,-135.5 257,-170.5 519,-170.5 519,-135.5 257,-135.5"/>
<text text-anchor="start" x="263.8478" y="-148.3" font-family="Arial Bold" font-size="18.00" fill="#000000">game_video_types</text>
<text text-anchor="start" x="414.8984" y="-148.3" font-family="Arial" font-size="14.00" fill="#000000"> </text>
<text text-anchor="start" x="418.789" y="-148.3" font-family="Arial" font-size="14.00" fill="#666666">[BASE TABLE]</text>
<polygon fill="none" stroke="#000000" points="257,-105.5 257,-135.5 519,-135.5 519,-105.5 257,-105.5"/>
<text text-anchor="start" x="264" y="-116.9" font-family="Arial" font-size="14.00" fill="#000000">id </text>
<text text-anchor="start" x="278.7798" y="-116.9" font-family="Arial" font-size="14.00" fill="#666666">[tinyint(4)]</text>
<polygon fill="none" stroke="#000000" points="257,-75.5 257,-105.5 519,-105.5 519,-75.5 257,-75.5"/>
<text text-anchor="start" x="264" y="-86.9" font-family="Arial" font-size="14.00" fill="#000000">name </text>
<text text-anchor="start" x="302.899" y="-86.9" font-family="Arial" font-size="14.00" fill="#666666">[varchar(32)]</text>
<polygon fill="none" stroke="#000000" points="257,-45.5 257,-75.5 519,-75.5 519,-45.5 257,-45.5"/>
<text text-anchor="start" x="264" y="-56.9" font-family="Arial" font-size="14.00" fill="#000000">active </text>
<text text-anchor="start" x="304.453" y="-56.9" font-family="Arial" font-size="14.00" fill="#666666">[tinyint(1)]</text>
<polygon fill="none" stroke="#000000" stroke-width="3" points="255.5,-44.5 255.5,-172.5 520.5,-172.5 520.5,-44.5 255.5,-44.5"/>
</g>
<!-- game_videos -->
<g id="node2" class="node">
<title>game_videos</title>
<polygon fill="#efefef" stroke="transparent" points="110,-415.5 110,-450.5 328,-450.5 328,-415.5 110,-415.5"/>
<polygon fill="none" stroke="#000000" points="110,-415.5 110,-450.5 328,-450.5 328,-415.5 110,-415.5"/>
<text text-anchor="start" x="116.8582" y="-428.3" font-family="Arial Bold" font-size="18.00" fill="#000000">game_videos</text>
<text text-anchor="start" x="223.888" y="-428.3" font-family="Arial" font-size="14.00" fill="#000000"> </text>
<text text-anchor="start" x="227.7786" y="-428.3" font-family="Arial" font-size="14.00" fill="#666666">[BASE TABLE]</text>
<polygon fill="none" stroke="#000000" points="110,-385.5 110,-415.5 328,-415.5 328,-385.5 110,-385.5"/>
<text text-anchor="start" x="117" y="-396.9" font-family="Arial" font-size="14.00" fill="#000000">id </text>
<text text-anchor="start" x="131.7798" y="-396.9" font-family="Arial" font-size="14.00" fill="#666666">[varchar(36)]</text>
<polygon fill="none" stroke="#000000" points="110,-355.5 110,-385.5 328,-385.5 328,-355.5 110,-355.5"/>
<text text-anchor="start" x="117" y="-366.9" font-family="Arial" font-size="14.00" fill="#000000">game_id </text>
<text text-anchor="start" x="174.5708" y="-366.9" font-family="Arial" font-size="14.00" fill="#666666">[varchar(36)]</text>
<polygon fill="none" stroke="#000000" points="110,-325.5 110,-355.5 328,-355.5 328,-325.5 110,-325.5"/>
<text text-anchor="start" x="117" y="-336.9" font-family="Arial" font-size="14.00" fill="#000000">video_type_id </text>
<text text-anchor="start" x="207.2552" y="-336.9" font-family="Arial" font-size="14.00" fill="#666666">[tinyint(4)]</text>
<polygon fill="none" stroke="#000000" points="110,-295.5 110,-325.5 328,-325.5 328,-295.5 110,-295.5"/>
<text text-anchor="start" x="117" y="-306.9" font-family="Arial" font-size="14.00" fill="#000000">created_at </text>
<text text-anchor="start" x="187.028" y="-306.9" font-family="Arial" font-size="14.00" fill="#666666">[datetime]</text>
</g>
<!-- game_videos&#45;&gt;game_video_types -->
<g id="edge1" class="edge">
<title>game_videos:video_type_id&#45;&gt;game_video_types:id</title>
<path fill="none" stroke="#000000" d="M338.1302,-338.897C363.1049,-329.6767 346.2851,-282.7726 328,-253 309.4842,-222.8517 275.5158,-247.1483 257,-217 234.5545,-180.4533 214.1111,-120.5 257,-120.5"/>
<polygon fill="#000000" stroke="#000000" points="337.8771,-338.9369 327.2966,-336.0553 332.9386,-339.7185 328,-340.5 328,-340.5 328,-340.5 332.9386,-339.7185 328.7034,-344.9447 337.8771,-338.9369 337.8771,-338.9369"/>
<text text-anchor="start" x="6.7575" y="-350.5" font-family="Arial" font-size="10.00" fill="#000000">FOREIGN KEY (video_type_id) REFERENCES game_video_types (id)</text>
</g>
<!-- v2_game_videos -->
<g id="node3" class="node">
<title>v2_game_videos</title>
<polygon fill="#efefef" stroke="transparent" points="433,-415.5 433,-450.5 680,-450.5 680,-415.5 433,-415.5"/>
<polygon fill="none" stroke="#000000" points="433,-415.5 433,-450.5 680,-450.5 680,-415.5 433,-415.5"/>
<text text-anchor="start" x="439.852" y="-428.3" font-family="Arial Bold" font-size="18.00" fill="#000000">v2_game_videos</text>
<text text-anchor="start" x="575.8942" y="-428.3" font-family="Arial" font-size="14.00" fill="#000000"> </text>
<text text-anchor="start" x="579.7848" y="-428.3" font-family="Arial" font-size="14.00" fill="#666666">[BASE TABLE]</text>
<polygon fill="none" stroke="#000000" points="433,-385.5 433,-415.5 680,-415.5 680,-385.5 433,-385.5"/>
<text text-anchor="start" x="440" y="-396.9" font-family="Arial" font-size="14.00" fill="#000000">id </text>
<text text-anchor="start" x="454.7798" y="-396.9" font-family="Arial" font-size="14.00" fill="#666666">[varchar(36)]</text>
<polygon fill="none" stroke="#000000" points="433,-355.5 433,-385.5 680,-385.5 680,-355.5 433,-355.5"/>
<text text-anchor="start" x="440" y="-366.9" font-family="Arial" font-size="14.00" fill="#000000">game_id </text>
<text text-anchor="start" x="497.5708" y="-366.9" font-family="Arial" font-size="14.00" fill="#666666">[varchar(36)]</text>
<polygon fill="none" stroke="#000000" points="433,-325.5 433,-355.5 680,-355.5 680,-325.5 433,-325.5"/>
<text text-anchor="start" x="440" y="-336.9" font-family="Arial" font-size="14.00" fill="#000000">video_type_id </text>
<text text-anchor="start" x="530.2552" y="-336.9" font-family="Arial" font-size="14.00" fill="#666666">[tinyint(4)]</text>
<polygon fill="none" stroke="#000000" points="433,-295.5 433,-325.5 680,-325.5 680,-295.5 433,-295.5"/>
<text text-anchor="start" x="440" y="-306.9" font-family="Arial" font-size="14.00" fill="#000000">created_at </text>
<text text-anchor="start" x="510.028" y="-306.9" font-family="Arial" font-size="14.00" fill="#666666">[datetime]</text>
</g>
<!-- v2_game_videos&#45;&gt;game_video_types -->
<g id="edge2" class="edge">
<title>v2_game_videos:video_type_id&#45;&gt;game_video_types:id</title>
<path fill="none" stroke="#000000" d="M422.8366,-338.8758C397.6774,-329.5375 413.6432,-282.0872 433,-253 455.9561,-218.5043 496.0439,-251.4957 519,-217 542.761,-181.2947 561.8889,-120.5 519,-120.5"/>
<polygon fill="#000000" stroke="#000000" points="423.1253,-338.9218 432.2898,-344.9436 428.0627,-339.7109 433,-340.5 433,-340.5 433,-340.5 428.0627,-339.7109 433.7102,-336.0564 423.1253,-338.9218 423.1253,-338.9218"/>
<text text-anchor="start" x="439.7575" y="-350.5" font-family="Arial" font-size="10.00" fill="#000000">FOREIGN KEY (video_type_id) REFERENCES game_video_types (id)</text>
</g>
</g>
</svg>
