<?xml version="1.0" encoding="UTF-8" standalone="no"?>
<!DOCTYPE svg PUBLIC "-//W3C//DTD SVG 1.1//EN"
 "http://www.w3.org/Graphics/SVG/1.1/DTD/svg11.dtd">
<!-- Generated by graphviz version 2.40.1 (20161225.0304)
 -->
<!-- Title: games Pages: 1 -->
<svg width="3688pt" height="989pt"
 viewBox="0.00 0.00 3687.50 989.00" xmlns="http://www.w3.org/2000/svg" xmlns:xlink="http://www.w3.org/1999/xlink">
<g id="graph0" class="graph" transform="scale(1 1) rotate(0) translate(4 985)">
<title>games</title>
<polygon fill="#ffffff" stroke="transparent" points="-4,4 -4,-985 3683.5,-985 3683.5,4 -4,4"/>
<!-- games -->
<g id="node1" class="node">
<title>games</title>
<polygon fill="#efefef" stroke="transparent" points="1716,-502.5 1716,-537.5 1959,-537.5 1959,-502.5 1716,-502.5"/>
<polygon fill="none" stroke="#000000" points="1716,-502.5 1716,-537.5 1959,-537.5 1959,-502.5 1716,-502.5"/>
<text text-anchor="start" x="1761.8677" y="-515.3" font-family="Arial Bold" font-size="18.00" fill="#000000">games</text>
<text text-anchor="start" x="1815.8785" y="-515.3" font-family="Arial" font-size="14.00" fill="#000000"> </text>
<text text-anchor="start" x="1819.7691" y="-515.3" font-family="Arial" font-size="14.00" fill="#666666">[BASE TABLE]</text>
<polygon fill="none" stroke="#000000" points="1716,-472.5 1716,-502.5 1959,-502.5 1959,-472.5 1716,-472.5"/>
<text text-anchor="start" x="1723" y="-483.9" font-family="Arial" font-size="14.00" fill="#000000">id </text>
<text text-anchor="start" x="1737.7798" y="-483.9" font-family="Arial" font-size="14.00" fill="#666666">[varchar(36)]</text>
<polygon fill="none" stroke="#000000" points="1716,-442.5 1716,-472.5 1959,-472.5 1959,-442.5 1716,-442.5"/>
<text text-anchor="start" x="1723" y="-453.9" font-family="Arial" font-size="14.00" fill="#000000">name </text>
<text text-anchor="start" x="1761.899" y="-453.9" font-family="Arial" font-size="14.00" fill="#666666">[varchar(256)]</text>
<polygon fill="none" stroke="#000000" points="1716,-412.5 1716,-442.5 1959,-442.5 1959,-412.5 1716,-412.5"/>
<text text-anchor="start" x="1723" y="-423.9" font-family="Arial" font-size="14.00" fill="#000000">description </text>
<text text-anchor="start" x="1794.568" y="-423.9" font-family="Arial" font-size="14.00" fill="#666666">[text]</text>
<polygon fill="none" stroke="#000000" points="1716,-382.5 1716,-412.5 1959,-412.5 1959,-382.5 1716,-382.5"/>
<text text-anchor="start" x="1723" y="-393.9" font-family="Arial" font-size="14.00" fill="#000000">created_at </text>
<text text-anchor="start" x="1793.028" y="-393.9" font-family="Arial" font-size="14.00" fill="#666666">[datetime]</text>
<polygon fill="none" stroke="#000000" points="1716,-352.5 1716,-382.5 1959,-382.5 1959,-352.5 1716,-352.5"/>
<text text-anchor="start" x="1723" y="-363.9" font-family="Arial" font-size="14.00" fill="#000000">deleted_at </text>
<text text-anchor="start" x="1792.2566" y="-363.9" font-family="Arial" font-size="14.00" fill="#666666">[datetime]</text>
<polygon fill="none" stroke="#000000" points="1716,-322.5 1716,-352.5 1959,-352.5 1959,-322.5 1716,-322.5"/>
<text text-anchor="start" x="1723" y="-333.9" font-family="Arial" font-size="14.00" fill="#000000">visibility_type_id </text>
<text text-anchor="start" x="1828.007" y="-333.9" font-family="Arial" font-size="14.00" fill="#666666">[tinyint(4)]</text>
<polygon fill="none" stroke="#000000" points="1716,-292.5 1716,-322.5 1959,-322.5 1959,-292.5 1716,-292.5"/>
<text text-anchor="start" x="1722.7371" y="-303.9" font-family="Arial" font-size="14.00" fill="#000000">latest_version_updated_at </text>
<text text-anchor="start" x="1890.8029" y="-303.9" font-family="Arial" font-size="14.00" fill="#666666">[datetime]</text>
<polygon fill="none" stroke="#000000" stroke-width="3" points="1714,-291.5 1714,-539.5 1960,-539.5 1960,-291.5 1714,-291.5"/>
</g>
<!-- game_visibility_types -->
<g id="node12" class="node">
<title>game_visibility_types</title>
<polygon fill="#efefef" stroke="transparent" points="1697,-132.5 1697,-167.5 1978,-167.5 1978,-132.5 1697,-132.5"/>
<polygon fill="none" stroke="#000000" points="1697,-132.5 1697,-167.5 1978,-167.5 1978,-132.5 1697,-132.5"/>
<text text-anchor="start" x="1703.8645" y="-145.3" font-family="Arial Bold" font-size="18.00" fill="#000000">game_visibility_types</text>
<text text-anchor="start" x="1873.8817" y="-145.3" font-family="Arial" font-size="14.00" fill="#000000"> </text>
<text text-anchor="start" x="1877.7723" y="-145.3" font-family="Arial" font-size="14.00" fill="#666666">[BASE TABLE]</text>
<polygon fill="none" stroke="#000000" points="1697,-102.5 1697,-132.5 1978,-132.5 1978,-102.5 1697,-102.5"/>
<text text-anchor="start" x="1704" y="-113.9" font-family="Arial" font-size="14.00" fill="#000000">id </text>
<text text-anchor="start" x="1718.7798" y="-113.9" font-family="Arial" font-size="14.00" fill="#666666">[tinyint(4)]</text>
<polygon fill="none" stroke="#000000" points="1697,-72.5 1697,-102.5 1978,-102.5 1978,-72.5 1697,-72.5"/>
<text text-anchor="start" x="1704" y="-83.9" font-family="Arial" font-size="14.00" fill="#000000">name </text>
<text text-anchor="start" x="1742.899" y="-83.9" font-family="Arial" font-size="14.00" fill="#666666">[varchar(32)]</text>
<polygon fill="none" stroke="#000000" points="1697,-42.5 1697,-72.5 1978,-72.5 1978,-42.5 1697,-42.5"/>
<text text-anchor="start" x="1704" y="-53.9" font-family="Arial" font-size="14.00" fill="#000000">created_at </text>
<text text-anchor="start" x="1774.028" y="-53.9" font-family="Arial" font-size="14.00" fill="#666666">[datetime]</text>
</g>
<!-- games&#45;&gt;game_visibility_types -->
<g id="edge11" class="edge">
<title>games:visibility_type_id&#45;&gt;game_visibility_types:id</title>
<path fill="none" stroke="#000000" d="M1705.9442,-336.7034C1616.6671,-322.3032 1602.3085,-117.5 1697,-117.5"/>
<polygon fill="#000000" stroke="#000000" points="1706.0312,-336.7102 1715.6446,-341.9859 1711.0156,-337.1051 1716,-337.5 1716,-337.5 1716,-337.5 1711.0156,-337.1051 1716.3554,-333.0141 1706.0312,-336.7102 1706.0312,-336.7102"/>
<text text-anchor="start" x="1374.2205" y="-347.5" font-family="Arial" font-size="10.00" fill="#000000">FOREIGN KEY (visibility_type_id) REFERENCES game_visibility_types (id)</text>
</g>
<!-- game_genre_relations -->
<g id="node2" class="node">
<title>game_genre_relations</title>
<polygon fill="#efefef" stroke="transparent" points="43,-812.5 43,-847.5 333,-847.5 333,-812.5 43,-812.5"/>
<polygon fill="none" stroke="#000000" points="43,-812.5 43,-847.5 333,-847.5 333,-812.5 43,-812.5"/>
<text text-anchor="start" x="49.8492" y="-825.3" font-family="Arial Bold" font-size="18.00" fill="#000000">game_genre_relations</text>
<text text-anchor="start" x="228.897" y="-825.3" font-family="Arial" font-size="14.00" fill="#000000"> </text>
<text text-anchor="start" x="232.7876" y="-825.3" font-family="Arial" font-size="14.00" fill="#666666">[BASE TABLE]</text>
<polygon fill="none" stroke="#000000" points="43,-782.5 43,-812.5 333,-812.5 333,-782.5 43,-782.5"/>
<text text-anchor="start" x="50" y="-793.9" font-family="Arial" font-size="14.00" fill="#000000">genre_id </text>
<text text-anchor="start" x="108.3534" y="-793.9" font-family="Arial" font-size="14.00" fill="#666666">[varchar(36)]</text>
<polygon fill="none" stroke="#000000" points="43,-752.5 43,-782.5 333,-782.5 333,-752.5 43,-752.5"/>
<text text-anchor="start" x="50" y="-763.9" font-family="Arial" font-size="14.00" fill="#000000">game_id </text>
<text text-anchor="start" x="107.5708" y="-763.9" font-family="Arial" font-size="14.00" fill="#666666">[varchar(36)]</text>
</g>
<!-- game_genre_relations&#45;&gt;games -->
<g id="edge1" class="edge">
<title>game_genre_relations:game_id&#45;&gt;games:id</title>
<path fill="none" stroke="#000000" d="M343.1766,-766.5889C394.9942,-756.2461 333.3146,-660.5741 385,-620 501.9019,-528.2296 1567.3801,-487.5 1716,-487.5"/>
<polygon fill="#000000" stroke="#000000" points="342.9602,-766.6082 332.5987,-763.0179 337.9801,-767.0541 333,-767.5 333,-767.5 333,-767.5 337.9801,-767.0541 333.4013,-771.9821 342.9602,-766.6082 342.9602,-766.6082"/>
<text text-anchor="start" x="340.386" y="-777.5" font-family="Arial" font-size="10.00" fill="#000000">FOREIGN KEY (game_id) REFERENCES games (id)</text>
</g>
<!-- game_images -->
<g id="node3" class="node">
<title>game_images</title>
<polygon fill="#efefef" stroke="transparent" points="437,-842.5 437,-877.5 661,-877.5 661,-842.5 437,-842.5"/>
<polygon fill="none" stroke="#000000" points="437,-842.5 437,-877.5 661,-877.5 661,-842.5 437,-842.5"/>
<text text-anchor="start" x="443.8621" y="-855.3" font-family="Arial Bold" font-size="18.00" fill="#000000">game_images</text>
<text text-anchor="start" x="556.8841" y="-855.3" font-family="Arial" font-size="14.00" fill="#000000"> </text>
<text text-anchor="start" x="560.7747" y="-855.3" font-family="Arial" font-size="14.00" fill="#666666">[BASE TABLE]</text>
<polygon fill="none" stroke="#000000" points="437,-812.5 437,-842.5 661,-842.5 661,-812.5 437,-812.5"/>
<text text-anchor="start" x="444" y="-823.9" font-family="Arial" font-size="14.00" fill="#000000">id </text>
<text text-anchor="start" x="458.7798" y="-823.9" font-family="Arial" font-size="14.00" fill="#666666">[varchar(36)]</text>
<polygon fill="none" stroke="#000000" points="437,-782.5 437,-812.5 661,-812.5 661,-782.5 437,-782.5"/>
<text text-anchor="start" x="444" y="-793.9" font-family="Arial" font-size="14.00" fill="#000000">game_id </text>
<text text-anchor="start" x="501.5708" y="-793.9" font-family="Arial" font-size="14.00" fill="#666666">[varchar(36)]</text>
<polygon fill="none" stroke="#000000" points="437,-752.5 437,-782.5 661,-782.5 661,-752.5 437,-752.5"/>
<text text-anchor="start" x="444" y="-763.9" font-family="Arial" font-size="14.00" fill="#000000">image_type_id </text>
<text text-anchor="start" x="538.9158" y="-763.9" font-family="Arial" font-size="14.00" fill="#666666">[tinyint(4)]</text>
<polygon fill="none" stroke="#000000" points="437,-722.5 437,-752.5 661,-752.5 661,-722.5 437,-722.5"/>
<text text-anchor="start" x="444" y="-733.9" font-family="Arial" font-size="14.00" fill="#000000">created_at </text>
<text text-anchor="start" x="514.028" y="-733.9" font-family="Arial" font-size="14.00" fill="#666666">[datetime]</text>
</g>
<!-- game_images&#45;&gt;games -->
<g id="edge2" class="edge">
<title>game_images:game_id&#45;&gt;games:id</title>
<path fill="none" stroke="#000000" d="M671.0499,-796.7669C735.1959,-786.5012 653.387,-671.0919 713,-620 798.3536,-546.8469 1603.5873,-487.5 1716,-487.5"/>
<polygon fill="#000000" stroke="#000000" points="670.9735,-796.7724 660.6726,-793.0119 665.9868,-797.1362 661,-797.5 661,-797.5 661,-797.5 665.9868,-797.1362 661.3274,-801.9881 670.9735,-796.7724 670.9735,-796.7724"/>
<text text-anchor="start" x="417.386" y="-807.5" font-family="Arial" font-size="10.00" fill="#000000">FOREIGN KEY (game_id) REFERENCES games (id)</text>
</g>
<!-- game_management_roles -->
<g id="node4" class="node">
<title>game_management_roles</title>
<polygon fill="#efefef" stroke="transparent" points="765,-827.5 765,-862.5 1085,-862.5 1085,-827.5 765,-827.5"/>
<polygon fill="none" stroke="#000000" points="765,-827.5 765,-862.5 1085,-862.5 1085,-827.5 765,-827.5"/>
<text text-anchor="start" x="771.8471" y="-840.3" font-family="Arial Bold" font-size="18.00" fill="#000000">game_management_roles</text>
<text text-anchor="start" x="980.8991" y="-840.3" font-family="Arial" font-size="14.00" fill="#000000"> </text>
<text text-anchor="start" x="984.7897" y="-840.3" font-family="Arial" font-size="14.00" fill="#666666">[BASE TABLE]</text>
<polygon fill="none" stroke="#000000" points="765,-797.5 765,-827.5 1085,-827.5 1085,-797.5 765,-797.5"/>
<text text-anchor="start" x="772" y="-808.9" font-family="Arial" font-size="14.00" fill="#000000">game_id </text>
<text text-anchor="start" x="829.5708" y="-808.9" font-family="Arial" font-size="14.00" fill="#666666">[varchar(36)]</text>
<polygon fill="none" stroke="#000000" points="765,-767.5 765,-797.5 1085,-797.5 1085,-767.5 765,-767.5"/>
<text text-anchor="start" x="772" y="-778.9" font-family="Arial" font-size="14.00" fill="#000000">user_id </text>
<text text-anchor="start" x="821.7882" y="-778.9" font-family="Arial" font-size="14.00" fill="#666666">[varchar(36)]</text>
<polygon fill="none" stroke="#000000" points="765,-737.5 765,-767.5 1085,-767.5 1085,-737.5 765,-737.5"/>
<text text-anchor="start" x="772" y="-748.9" font-family="Arial" font-size="14.00" fill="#000000">role_type_id </text>
<text text-anchor="start" x="852.1332" y="-748.9" font-family="Arial" font-size="14.00" fill="#666666">[tinyint(4)]</text>
</g>
<!-- game_management_roles&#45;&gt;games -->
<g id="edge3" class="edge">
<title>game_management_roles:game_id&#45;&gt;games:id</title>
<path fill="none" stroke="#000000" d="M1095.4045,-811.79C1165.2894,-801.3652 1075.8734,-678.796 1137,-620 1232.1289,-528.4982 1584.0072,-487.5 1716,-487.5"/>
<polygon fill="#000000" stroke="#000000" points="1094.9768,-811.8191 1084.6936,-808.0104 1089.9884,-812.1595 1085,-812.5 1085,-812.5 1085,-812.5 1089.9884,-812.1595 1085.3064,-816.9896 1094.9768,-811.8191 1094.9768,-811.8191"/>
<text text-anchor="start" x="1092.386" y="-822.5" font-family="Arial" font-size="10.00" fill="#000000">FOREIGN KEY (game_id) REFERENCES games (id)</text>
</g>
<!-- game_versions -->
<g id="node5" class="node">
<title>game_versions</title>
<polygon fill="#efefef" stroke="transparent" points="1190,-857.5 1190,-892.5 1423,-892.5 1423,-857.5 1190,-857.5"/>
<polygon fill="none" stroke="#000000" points="1190,-857.5 1190,-892.5 1423,-892.5 1423,-857.5 1190,-857.5"/>
<text text-anchor="start" x="1196.8621" y="-870.3" font-family="Arial Bold" font-size="18.00" fill="#000000">game_versions</text>
<text text-anchor="start" x="1318.8841" y="-870.3" font-family="Arial" font-size="14.00" fill="#000000"> </text>
<text text-anchor="start" x="1322.7747" y="-870.3" font-family="Arial" font-size="14.00" fill="#666666">[BASE TABLE]</text>
<polygon fill="none" stroke="#000000" points="1190,-827.5 1190,-857.5 1423,-857.5 1423,-827.5 1190,-827.5"/>
<text text-anchor="start" x="1197" y="-838.9" font-family="Arial" font-size="14.00" fill="#000000">id </text>
<text text-anchor="start" x="1211.7798" y="-838.9" font-family="Arial" font-size="14.00" fill="#666666">[varchar(36)]</text>
<polygon fill="none" stroke="#000000" points="1190,-797.5 1190,-827.5 1423,-827.5 1423,-797.5 1190,-797.5"/>
<text text-anchor="start" x="1197" y="-808.9" font-family="Arial" font-size="14.00" fill="#000000">game_id </text>
<text text-anchor="start" x="1254.5708" y="-808.9" font-family="Arial" font-size="14.00" fill="#666666">[varchar(36)]</text>
<polygon fill="none" stroke="#000000" points="1190,-767.5 1190,-797.5 1423,-797.5 1423,-767.5 1190,-767.5"/>
<text text-anchor="start" x="1197" y="-778.9" font-family="Arial" font-size="14.00" fill="#000000">name </text>
<text text-anchor="start" x="1235.899" y="-778.9" font-family="Arial" font-size="14.00" fill="#666666">[varchar(32)]</text>
<polygon fill="none" stroke="#000000" points="1190,-737.5 1190,-767.5 1423,-767.5 1423,-737.5 1190,-737.5"/>
<text text-anchor="start" x="1197" y="-748.9" font-family="Arial" font-size="14.00" fill="#000000">description </text>
<text text-anchor="start" x="1268.568" y="-748.9" font-family="Arial" font-size="14.00" fill="#666666">[text]</text>
<polygon fill="none" stroke="#000000" points="1190,-707.5 1190,-737.5 1423,-737.5 1423,-707.5 1190,-707.5"/>
<text text-anchor="start" x="1197" y="-718.9" font-family="Arial" font-size="14.00" fill="#000000">created_at </text>
<text text-anchor="start" x="1267.028" y="-718.9" font-family="Arial" font-size="14.00" fill="#666666">[datetime]</text>
</g>
<!-- game_versions&#45;&gt;games -->
<g id="edge4" class="edge">
<title>game_versions:game_id&#45;&gt;games:id</title>
<path fill="none" stroke="#000000" d="M1433.0188,-811.8923C1504.3723,-802.5147 1422.4928,-686.8268 1475,-620 1550.518,-523.8869 1593.7679,-487.5 1716,-487.5"/>
<polygon fill="#000000" stroke="#000000" points="1432.9817,-811.8945 1422.7275,-808.0083 1427.9908,-812.1972 1423,-812.5 1423,-812.5 1423,-812.5 1427.9908,-812.1972 1423.2725,-816.9917 1432.9817,-811.8945 1432.9817,-811.8945"/>
<text text-anchor="start" x="1430.386" y="-822.5" font-family="Arial" font-size="10.00" fill="#000000">FOREIGN KEY (game_id) REFERENCES games (id)</text>
</g>
<!-- game_videos -->
<g id="node6" class="node">
<title>game_videos</title>
<polygon fill="#efefef" stroke="transparent" points="1527,-842.5 1527,-877.5 1745,-877.5 1745,-842.5 1527,-842.5"/>
<polygon fill="none" stroke="#000000" points="1527,-842.5 1527,-877.5 1745,-877.5 1745,-842.5 1527,-842.5"/>
<text text-anchor="start" x="1533.8582" y="-855.3" font-family="Arial Bold" font-size="18.00" fill="#000000">game_videos</text>
<text text-anchor="start" x="1640.888" y="-855.3" font-family="Arial" font-size="14.00" fill="#000000"> </text>
<text text-anchor="start" x="1644.7786" y="-855.3" font-family="Arial" font-size="14.00" fill="#666666">[BASE TABLE]</text>
<polygon fill="none" stroke="#000000" points="1527,-812.5 1527,-842.5 1745,-842.5 1745,-812.5 1527,-812.5"/>
<text text-anchor="start" x="1534" y="-823.9" font-family="Arial" font-size="14.00" fill="#000000">id </text>
<text text-anchor="start" x="1548.7798" y="-823.9" font-family="Arial" font-size="14.00" fill="#666666">[varchar(36)]</text>
<polygon fill="none" stroke="#000000" points="1527,-782.5 1527,-812.5 1745,-812.5 1745,-782.5 1527,-782.5"/>
<text text-anchor="start" x="1534" y="-793.9" font-family="Arial" font-size="14.00" fill="#000000">game_id </text>
<text text-anchor="start" x="1591.5708" y="-793.9" font-family="Arial" font-size="14.00" fill="#666666">[varchar(36)]</text>
<polygon fill="none" stroke="#000000" points="1527,-752.5 1527,-782.5 1745,-782.5 1745,-752.5 1527,-752.5"/>
<text text-anchor="start" x="1534" y="-763.9" font-family="Arial" font-size="14.00" fill="#000000">video_type_id </text>
<text text-anchor="start" x="1624.2552" y="-763.9" font-family="Arial" font-size="14.00" fill="#666666">[tinyint(4)]</text>
<polygon fill="none" stroke="#000000" points="1527,-722.5 1527,-752.5 1745,-752.5 1745,-722.5 1527,-722.5"/>
<text text-anchor="start" x="1534" y="-733.9" font-family="Arial" font-size="14.00" fill="#000000">created_at </text>
<text text-anchor="start" x="1604.028" y="-733.9" font-family="Arial" font-size="14.00" fill="#666666">[datetime]</text>
</g>
<!-- game_videos&#45;&gt;games -->
<g id="edge5" class="edge">
<title>game_videos:game_id&#45;&gt;games:id</title>
<path fill="none" stroke="#000000" d="M1755.036,-796.8648C1867.5641,-781.3679 1581.2693,-487.5 1716,-487.5"/>
<polygon fill="#000000" stroke="#000000" points="1754.98,-796.8683 1744.7157,-793.009 1749.99,-797.1841 1745,-797.5 1745,-797.5 1745,-797.5 1749.99,-797.1841 1745.2843,-801.991 1754.98,-796.8683 1754.98,-796.8683"/>
<text text-anchor="start" x="1752.386" y="-807.5" font-family="Arial" font-size="10.00" fill="#000000">FOREIGN KEY (game_id) REFERENCES games (id)</text>
</g>
<!-- launcher_version_game_relations -->
<g id="node7" class="node">
<title>launcher_version_game_relations</title>
<polygon fill="#efefef" stroke="transparent" points="1850,-812.5 1850,-847.5 2231,-847.5 2231,-812.5 1850,-812.5"/>
<polygon fill="none" stroke="#000000" points="1850,-812.5 1850,-847.5 2231,-847.5 2231,-812.5 1850,-812.5"/>
<text text-anchor="start" x="1856.8434" y="-825.3" font-family="Arial Bold" font-size="18.00" fill="#000000">launcher_version_game_relations</text>
<text text-anchor="start" x="2126.9028" y="-825.3" font-family="Arial" font-size="14.00" fill="#000000"> </text>
<text text-anchor="start" x="2130.7934" y="-825.3" font-family="Arial" font-size="14.00" fill="#666666">[BASE TABLE]</text>
<polygon fill="none" stroke="#000000" points="1850,-782.5 1850,-812.5 2231,-812.5 2231,-782.5 1850,-782.5"/>
<text text-anchor="start" x="1857" y="-793.9" font-family="Arial" font-size="14.00" fill="#000000">launcher_version_table_id </text>
<text text-anchor="start" x="2024.2678" y="-793.9" font-family="Arial" font-size="14.00" fill="#666666">[varchar(36)]</text>
<polygon fill="none" stroke="#000000" points="1850,-752.5 1850,-782.5 2231,-782.5 2231,-752.5 1850,-752.5"/>
<text text-anchor="start" x="1857" y="-763.9" font-family="Arial" font-size="14.00" fill="#000000">game_table_id </text>
<text text-anchor="start" x="1952.6984" y="-763.9" font-family="Arial" font-size="14.00" fill="#666666">[varchar(36)]</text>
</g>
<!-- launcher_version_game_relations&#45;&gt;games -->
<g id="edge6" class="edge">
<title>launcher_version_game_relations:game_table_id&#45;&gt;games:id</title>
<path fill="none" stroke="#000000" d="M1840.3086,-764.7456C1829.9347,-756.2502 1842.6123,-729.8319 1850,-710 1875.8483,-640.6117 1933.1517,-653.3883 1959,-584 1973.9718,-543.8092 2001.8889,-487.5 1959,-487.5"/>
<polygon fill="#000000" stroke="#000000" points="1840.3809,-764.7661 1848.7698,-771.8286 1845.1905,-766.1331 1850,-767.5 1850,-767.5 1850,-767.5 1845.1905,-766.1331 1851.2302,-763.1714 1840.3809,-764.7661 1840.3809,-764.7661"/>
<text text-anchor="start" x="1856.769" y="-777.5" font-family="Arial" font-size="10.00" fill="#000000">FOREIGN KEY (game_table_id) REFERENCES games (id)</text>
</g>
<!-- v2_game_files -->
<g id="node8" class="node">
<title>v2_game_files</title>
<polygon fill="#efefef" stroke="transparent" points="2335,-872.5 2335,-907.5 2562,-907.5 2562,-872.5 2335,-872.5"/>
<polygon fill="none" stroke="#000000" points="2335,-872.5 2335,-907.5 2562,-907.5 2562,-872.5 2335,-872.5"/>
<text text-anchor="start" x="2341.86" y="-885.3" font-family="Arial Bold" font-size="18.00" fill="#000000">v2_game_files</text>
<text text-anchor="start" x="2457.8862" y="-885.3" font-family="Arial" font-size="14.00" fill="#000000"> </text>
<text text-anchor="start" x="2461.7768" y="-885.3" font-family="Arial" font-size="14.00" fill="#666666">[BASE TABLE]</text>
<polygon fill="none" stroke="#000000" points="2335,-842.5 2335,-872.5 2562,-872.5 2562,-842.5 2335,-842.5"/>
<text text-anchor="start" x="2342" y="-853.9" font-family="Arial" font-size="14.00" fill="#000000">id </text>
<text text-anchor="start" x="2356.7798" y="-853.9" font-family="Arial" font-size="14.00" fill="#666666">[varchar(36)]</text>
<polygon fill="none" stroke="#000000" points="2335,-812.5 2335,-842.5 2562,-842.5 2562,-812.5 2335,-812.5"/>
<text text-anchor="start" x="2342" y="-823.9" font-family="Arial" font-size="14.00" fill="#000000">game_id </text>
<text text-anchor="start" x="2399.5708" y="-823.9" font-family="Arial" font-size="14.00" fill="#666666">[varchar(36)]</text>
<polygon fill="none" stroke="#000000" points="2335,-782.5 2335,-812.5 2562,-812.5 2562,-782.5 2335,-782.5"/>
<text text-anchor="start" x="2342" y="-793.9" font-family="Arial" font-size="14.00" fill="#000000">file_type_id </text>
<text text-anchor="start" x="2416.6872" y="-793.9" font-family="Arial" font-size="14.00" fill="#666666">[tinyint(4)]</text>
<polygon fill="none" stroke="#000000" points="2335,-752.5 2335,-782.5 2562,-782.5 2562,-752.5 2335,-752.5"/>
<text text-anchor="start" x="2342" y="-763.9" font-family="Arial" font-size="14.00" fill="#000000">hash </text>
<text text-anchor="start" x="2376.2384" y="-763.9" font-family="Arial" font-size="14.00" fill="#666666">[char(32)]</text>
<polygon fill="none" stroke="#000000" points="2335,-722.5 2335,-752.5 2562,-752.5 2562,-722.5 2335,-722.5"/>
<text text-anchor="start" x="2342" y="-733.9" font-family="Arial" font-size="14.00" fill="#000000">entry_point </text>
<text text-anchor="start" x="2415.1346" y="-733.9" font-family="Arial" font-size="14.00" fill="#666666">[text]</text>
<polygon fill="none" stroke="#000000" points="2335,-692.5 2335,-722.5 2562,-722.5 2562,-692.5 2335,-692.5"/>
<text text-anchor="start" x="2342" y="-703.9" font-family="Arial" font-size="14.00" fill="#000000">created_at </text>
<text text-anchor="start" x="2412.028" y="-703.9" font-family="Arial" font-size="14.00" fill="#666666">[datetime]</text>
</g>
<!-- v2_game_files&#45;&gt;games -->
<g id="edge7" class="edge">
<title>v2_game_files:game_id&#45;&gt;games:id</title>
<path fill="none" stroke="#000000" d="M2324.754,-826.8909C2247.8999,-816.9995 2342.8332,-689.041 2283,-620 2181.1107,-502.431 2114.576,-487.5 1959,-487.5"/>
<polygon fill="#000000" stroke="#000000" points="2325.0176,-826.9065 2334.7329,-831.9921 2330.0088,-827.2033 2335,-827.5 2335,-827.5 2335,-827.5 2330.0088,-827.2033 2335.2671,-823.0079 2325.0176,-826.9065 2325.0176,-826.9065"/>
<text text-anchor="start" x="2342.386" y="-837.5" font-family="Arial" font-size="10.00" fill="#000000">FOREIGN KEY (game_id) REFERENCES games (id)</text>
</g>
<!-- v2_game_images -->
<g id="node9" class="node">
<title>v2_game_images</title>
<polygon fill="#efefef" stroke="transparent" points="2666,-842.5 2666,-877.5 2919,-877.5 2919,-842.5 2666,-842.5"/>
<polygon fill="none" stroke="#000000" points="2666,-842.5 2666,-877.5 2919,-877.5 2919,-842.5 2666,-842.5"/>
<text text-anchor="start" x="2672.8559" y="-855.3" font-family="Arial Bold" font-size="18.00" fill="#000000">v2_game_images</text>
<text text-anchor="start" x="2814.8903" y="-855.3" font-family="Arial" font-size="14.00" fill="#000000"> </text>
<text text-anchor="start" x="2818.7809" y="-855.3" font-family="Arial" font-size="14.00" fill="#666666">[BASE TABLE]</text>
<polygon fill="none" stroke="#000000" points="2666,-812.5 2666,-842.5 2919,-842.5 2919,-812.5 2666,-812.5"/>
<text text-anchor="start" x="2673" y="-823.9" font-family="Arial" font-size="14.00" fill="#000000">id </text>
<text text-anchor="start" x="2687.7798" y="-823.9" font-family="Arial" font-size="14.00" fill="#666666">[varchar(36)]</text>
<polygon fill="none" stroke="#000000" points="2666,-782.5 2666,-812.5 2919,-812.5 2919,-782.5 2666,-782.5"/>
<text text-anchor="start" x="2673" y="-793.9" font-family="Arial" font-size="14.00" fill="#000000">game_id </text>
<text text-anchor="start" x="2730.5708" y="-793.9" font-family="Arial" font-size="14.00" fill="#666666">[varchar(36)]</text>
<polygon fill="none" stroke="#000000" points="2666,-752.5 2666,-782.5 2919,-782.5 2919,-752.5 2666,-752.5"/>
<text text-anchor="start" x="2673" y="-763.9" font-family="Arial" font-size="14.00" fill="#000000">image_type_id </text>
<text text-anchor="start" x="2767.9158" y="-763.9" font-family="Arial" font-size="14.00" fill="#666666">[tinyint(4)]</text>
<polygon fill="none" stroke="#000000" points="2666,-722.5 2666,-752.5 2919,-752.5 2919,-722.5 2666,-722.5"/>
<text text-anchor="start" x="2673" y="-733.9" font-family="Arial" font-size="14.00" fill="#000000">created_at </text>
<text text-anchor="start" x="2743.028" y="-733.9" font-family="Arial" font-size="14.00" fill="#666666">[datetime]</text>
</g>
<!-- v2_game_images&#45;&gt;games -->
<g id="edge8" class="edge">
<title>v2_game_images:game_id&#45;&gt;games:id</title>
<path fill="none" stroke="#000000" d="M2655.9394,-796.779C2591.6443,-786.6813 2671.835,-673.0961 2614,-620 2504.6058,-519.5694 2107.5039,-487.5 1959,-487.5"/>
<polygon fill="#000000" stroke="#000000" points="2656.0256,-796.7851 2665.6783,-801.9885 2661.0128,-797.1426 2666,-797.5 2666,-797.5 2666,-797.5 2661.0128,-797.1426 2666.3217,-793.0115 2656.0256,-796.7851 2656.0256,-796.7851"/>
<text text-anchor="start" x="2673.386" y="-807.5" font-family="Arial" font-size="10.00" fill="#000000">FOREIGN KEY (game_id) REFERENCES games (id)</text>
</g>
<!-- v2_game_versions -->
<g id="node10" class="node">
<title>v2_game_versions</title>
<polygon fill="#efefef" stroke="transparent" points="3023,-902.5 3023,-937.5 3285,-937.5 3285,-902.5 3023,-902.5"/>
<polygon fill="none" stroke="#000000" points="3023,-902.5 3023,-937.5 3285,-937.5 3285,-902.5 3023,-902.5"/>
<text text-anchor="start" x="3029.8559" y="-915.3" font-family="Arial Bold" font-size="18.00" fill="#000000">v2_game_versions</text>
<text text-anchor="start" x="3180.8903" y="-915.3" font-family="Arial" font-size="14.00" fill="#000000"> </text>
<text text-anchor="start" x="3184.7809" y="-915.3" font-family="Arial" font-size="14.00" fill="#666666">[BASE TABLE]</text>
<polygon fill="none" stroke="#000000" points="3023,-872.5 3023,-902.5 3285,-902.5 3285,-872.5 3023,-872.5"/>
<text text-anchor="start" x="3030" y="-883.9" font-family="Arial" font-size="14.00" fill="#000000">id </text>
<text text-anchor="start" x="3044.7798" y="-883.9" font-family="Arial" font-size="14.00" fill="#666666">[varchar(36)]</text>
<polygon fill="none" stroke="#000000" points="3023,-842.5 3023,-872.5 3285,-872.5 3285,-842.5 3023,-842.5"/>
<text text-anchor="start" x="3030" y="-853.9" font-family="Arial" font-size="14.00" fill="#000000">game_id </text>
<text text-anchor="start" x="3087.5708" y="-853.9" font-family="Arial" font-size="14.00" fill="#666666">[varchar(36)]</text>
<polygon fill="none" stroke="#000000" points="3023,-812.5 3023,-842.5 3285,-842.5 3285,-812.5 3023,-812.5"/>
<text text-anchor="start" x="3030" y="-823.9" font-family="Arial" font-size="14.00" fill="#000000">game_image_id </text>
<text text-anchor="start" x="3133.4684" y="-823.9" font-family="Arial" font-size="14.00" fill="#666666">[varchar(36)]</text>
<polygon fill="none" stroke="#000000" points="3023,-782.5 3023,-812.5 3285,-812.5 3285,-782.5 3023,-782.5"/>
<text text-anchor="start" x="3030" y="-793.9" font-family="Arial" font-size="14.00" fill="#000000">game_video_id </text>
<text text-anchor="start" x="3128.8078" y="-793.9" font-family="Arial" font-size="14.00" fill="#666666">[varchar(36)]</text>
<polygon fill="none" stroke="#000000" points="3023,-752.5 3023,-782.5 3285,-782.5 3285,-752.5 3023,-752.5"/>
<text text-anchor="start" x="3030" y="-763.9" font-family="Arial" font-size="14.00" fill="#000000">name </text>
<text text-anchor="start" x="3068.899" y="-763.9" font-family="Arial" font-size="14.00" fill="#666666">[varchar(32)]</text>
<polygon fill="none" stroke="#000000" points="3023,-722.5 3023,-752.5 3285,-752.5 3285,-722.5 3023,-722.5"/>
<text text-anchor="start" x="3030" y="-733.9" font-family="Arial" font-size="14.00" fill="#000000">description </text>
<text text-anchor="start" x="3101.568" y="-733.9" font-family="Arial" font-size="14.00" fill="#666666">[text]</text>
<polygon fill="none" stroke="#000000" points="3023,-692.5 3023,-722.5 3285,-722.5 3285,-692.5 3023,-692.5"/>
<text text-anchor="start" x="3030" y="-703.9" font-family="Arial" font-size="14.00" fill="#000000">created_at </text>
<text text-anchor="start" x="3100.028" y="-703.9" font-family="Arial" font-size="14.00" fill="#666666">[datetime]</text>
<polygon fill="none" stroke="#000000" points="3023,-662.5 3023,-692.5 3285,-692.5 3285,-662.5 3023,-662.5"/>
<text text-anchor="start" x="3030" y="-673.9" font-family="Arial" font-size="14.00" fill="#000000">url </text>
<text text-anchor="start" x="3049.4404" y="-673.9" font-family="Arial" font-size="14.00" fill="#666666">[text]</text>
</g>
<!-- v2_game_versions&#45;&gt;games -->
<g id="edge9" class="edge">
<title>v2_game_versions:game_id&#45;&gt;games:id</title>
<path fill="none" stroke="#000000" d="M3012.7559,-856.934C2923.9657,-846.3669 3047.8769,-690.5798 2971,-620 2887.4629,-543.3055 2072.4041,-487.5 1959,-487.5"/>
<polygon fill="#000000" stroke="#000000" points="3013.0152,-856.9482 3022.7517,-861.9931 3018.0076,-857.2241 3023,-857.5 3023,-857.5 3023,-857.5 3018.0076,-857.2241 3023.2483,-853.0069 3013.0152,-856.9482 3013.0152,-856.9482"/>
<text text-anchor="start" x="2779.386" y="-867.5" font-family="Arial" font-size="10.00" fill="#000000">FOREIGN KEY (game_id) REFERENCES games (id)</text>
</g>
<!-- v2_game_videos -->
<g id="node11" class="node">
<title>v2_game_videos</title>
<polygon fill="#efefef" stroke="transparent" points="3390,-842.5 3390,-877.5 3637,-877.5 3637,-842.5 3390,-842.5"/>
<polygon fill="none" stroke="#000000" points="3390,-842.5 3390,-877.5 3637,-877.5 3637,-842.5 3390,-842.5"/>
<text text-anchor="start" x="3396.852" y="-855.3" font-family="Arial Bold" font-size="18.00" fill="#000000">v2_game_videos</text>
<text text-anchor="start" x="3532.8942" y="-855.3" font-family="Arial" font-size="14.00" fill="#000000"> </text>
<text text-anchor="start" x="3536.7848" y="-855.3" font-family="Arial" font-size="14.00" fill="#666666">[BASE TABLE]</text>
<polygon fill="none" stroke="#000000" points="3390,-812.5 3390,-842.5 3637,-842.5 3637,-812.5 3390,-812.5"/>
<text text-anchor="start" x="3397" y="-823.9" font-family="Arial" font-size="14.00" fill="#000000">id </text>
<text text-anchor="start" x="3411.7798" y="-823.9" font-family="Arial" font-size="14.00" fill="#666666">[varchar(36)]</text>
<polygon fill="none" stroke="#000000" points="3390,-782.5 3390,-812.5 3637,-812.5 3637,-782.5 3390,-782.5"/>
<text text-anchor="start" x="3397" y="-793.9" font-family="Arial" font-size="14.00" fill="#000000">game_id </text>
<text text-anchor="start" x="3454.5708" y="-793.9" font-family="Arial" font-size="14.00" fill="#666666">[varchar(36)]</text>
<polygon fill="none" stroke="#000000" points="3390,-752.5 3390,-782.5 3637,-782.5 3637,-752.5 3390,-752.5"/>
<text text-anchor="start" x="3397" y="-763.9" font-family="Arial" font-size="14.00" fill="#000000">video_type_id </text>
<text text-anchor="start" x="3487.2552" y="-763.9" font-family="Arial" font-size="14.00" fill="#666666">[tinyint(4)]</text>
<polygon fill="none" stroke="#000000" points="3390,-722.5 3390,-752.5 3637,-752.5 3637,-722.5 3390,-722.5"/>
<text text-anchor="start" x="3397" y="-733.9" font-family="Arial" font-size="14.00" fill="#000000">created_at </text>
<text text-anchor="start" x="3467.028" y="-733.9" font-family="Arial" font-size="14.00" fill="#666666">[datetime]</text>
</g>
<!-- v2_game_videos&#45;&gt;games -->
<g id="edge10" class="edge">
<title>v2_game_videos:game_id&#45;&gt;games:id</title>
<path fill="none" stroke="#000000" d="M3379.9355,-796.76C3315.7018,-786.3982 3397.7324,-669.9458 3337,-620 3218.1974,-522.2978 2112.8173,-487.5 1959,-487.5"/>
<polygon fill="#000000" stroke="#000000" points="3380.0269,-796.7666 3389.67,-801.9879 3385.0135,-797.1333 3390,-797.5 3390,-797.5 3390,-797.5 3385.0135,-797.1333 3390.33,-793.0121 3380.0269,-796.7666 3380.0269,-796.7666"/>
<text text-anchor="start" x="3397.386" y="-807.5" font-family="Arial" font-size="10.00" fill="#000000">FOREIGN KEY (game_id) REFERENCES games (id)</text>
</g>
</g>
</svg>
