<?xml version="1.0" encoding="UTF-8" standalone="no"?>
<!DOCTYPE svg PUBLIC "-//W3C//DTD SVG 1.1//EN"
 "http://www.w3.org/Graphics/SVG/1.1/DTD/svg11.dtd">
<!-- Generated by graphviz version 12.1.2 (20240928.0832)
 -->
<!-- Title: game_creators Pages: 1 -->
<svg width="938pt" height="883pt"
 viewBox="0.00 0.00 938.31 883.20" xmlns="http://www.w3.org/2000/svg" xmlns:xlink="http://www.w3.org/1999/xlink">
<g id="graph0" class="graph" transform="scale(1 1) rotate(0) translate(4 879.2)">
<title>game_creators</title>
<polygon fill="white" stroke="none" points="-4,4 -4,-879.2 934.31,-879.2 934.31,4 -4,4"/>
<!-- game_creators -->
<g id="node1" class="node">
<title>game_creators</title>
<polygon fill="#efefef" stroke="none" points="358.69,-573.8 358.69,-609.4 602.12,-609.4 602.12,-573.8 358.69,-573.8"/>
<polygon fill="none" stroke="black" points="358.69,-573.8 358.69,-609.4 602.12,-609.4 602.12,-573.8 358.69,-573.8"/>
<text text-anchor="start" x="365.69" y="-587.2" font-family="Arial Bold" font-size="18.00">game_creators</text>
<text text-anchor="start" x="470.63" y="-587.2" font-family="Arial" font-size="14.00">    </text>
<text text-anchor="start" x="501.74" y="-587.2" font-family="Arial" font-size="14.00" fill="#666666">[BASE TABLE]</text>
<polygon fill="none" stroke="black" points="358.69,-543 358.69,-573.8 602.12,-573.8 602.12,-543 358.69,-543"/>
<text text-anchor="start" x="365.69" y="-555.2" font-family="Arial" font-size="14.00">id </text>
<text text-anchor="start" x="380.47" y="-555.2" font-family="Arial" font-size="14.00" fill="#666666">[varchar(36)]</text>
<polygon fill="none" stroke="black" points="358.69,-512.2 358.69,-543 602.12,-543 602.12,-512.2 358.69,-512.2"/>
<text text-anchor="start" x="365.69" y="-524.4" font-family="Arial" font-size="14.00">game_id </text>
<text text-anchor="start" x="423.28" y="-524.4" font-family="Arial" font-size="14.00" fill="#666666">[varchar(36)]</text>
<polygon fill="none" stroke="black" points="358.69,-481.4 358.69,-512.2 602.12,-512.2 602.12,-481.4 358.69,-481.4"/>
<text text-anchor="start" x="365.69" y="-493.6" font-family="Arial" font-size="14.00">user_id </text>
<text text-anchor="start" x="415.49" y="-493.6" font-family="Arial" font-size="14.00" fill="#666666">[varchar(36)]</text>
<polygon fill="none" stroke="black" points="358.69,-450.6 358.69,-481.4 602.12,-481.4 602.12,-450.6 358.69,-450.6"/>
<text text-anchor="start" x="365.69" y="-462.8" font-family="Arial" font-size="14.00">user_name </text>
<text text-anchor="start" x="439.62" y="-462.8" font-family="Arial" font-size="14.00" fill="#666666">[varchar(32)]</text>
<polygon fill="none" stroke="black" points="358.69,-419.8 358.69,-450.6 602.12,-450.6 602.12,-419.8 358.69,-419.8"/>
<text text-anchor="start" x="365.69" y="-432" font-family="Arial" font-size="14.00">created_at </text>
<text text-anchor="start" x="435.73" y="-432" font-family="Arial" font-size="14.00" fill="#666666">[datetime]</text>
<polygon fill="none" stroke="black" stroke-width="3" points="357.19,-418.3 357.19,-610.9 603.62,-610.9 603.62,-418.3 357.19,-418.3"/>
</g>
<!-- games -->
<g id="node4" class="node">
<title>games</title>
<polygon fill="#efefef" stroke="none" points="358.6,-258.8 358.6,-294.4 602.2,-294.4 602.2,-258.8 358.6,-258.8"/>
<polygon fill="none" stroke="black" points="358.6,-258.8 358.6,-294.4 602.2,-294.4 602.2,-258.8 358.6,-258.8"/>
<text text-anchor="start" x="395.16" y="-272.2" font-family="Arial Bold" font-size="18.00">games</text>
<text text-anchor="start" x="441.15" y="-272.2" font-family="Arial" font-size="14.00">    </text>
<text text-anchor="start" x="472.27" y="-272.2" font-family="Arial" font-size="14.00" fill="#666666">[BASE TABLE]</text>
<polygon fill="none" stroke="black" points="358.6,-228 358.6,-258.8 602.2,-258.8 602.2,-228 358.6,-228"/>
<text text-anchor="start" x="365.6" y="-240.2" font-family="Arial" font-size="14.00">id </text>
<text text-anchor="start" x="380.39" y="-240.2" font-family="Arial" font-size="14.00" fill="#666666">[varchar(36)]</text>
<polygon fill="none" stroke="black" points="358.6,-197.2 358.6,-228 602.2,-228 602.2,-197.2 358.6,-197.2"/>
<text text-anchor="start" x="365.6" y="-209.4" font-family="Arial" font-size="14.00">name </text>
<text text-anchor="start" x="404.51" y="-209.4" font-family="Arial" font-size="14.00" fill="#666666">[varchar(256)]</text>
<polygon fill="none" stroke="black" points="358.6,-166.4 358.6,-197.2 602.2,-197.2 602.2,-166.4 358.6,-166.4"/>
<text text-anchor="start" x="365.6" y="-178.6" font-family="Arial" font-size="14.00">description </text>
<text text-anchor="start" x="437.2" y="-178.6" font-family="Arial" font-size="14.00" fill="#666666">[text]</text>
<polygon fill="none" stroke="black" points="358.6,-135.6 358.6,-166.4 602.2,-166.4 602.2,-135.6 358.6,-135.6"/>
<text text-anchor="start" x="365.6" y="-147.8" font-family="Arial" font-size="14.00">created_at </text>
<text text-anchor="start" x="435.65" y="-147.8" font-family="Arial" font-size="14.00" fill="#666666">[datetime]</text>
<polygon fill="none" stroke="black" points="358.6,-104.8 358.6,-135.6 602.2,-135.6 602.2,-104.8 358.6,-104.8"/>
<text text-anchor="start" x="365.6" y="-117" font-family="Arial" font-size="14.00">deleted_at </text>
<text text-anchor="start" x="434.88" y="-117" font-family="Arial" font-size="14.00" fill="#666666">[datetime]</text>
<polygon fill="none" stroke="black" points="358.6,-74 358.6,-104.8 602.2,-104.8 602.2,-74 358.6,-74"/>
<text text-anchor="start" x="365.6" y="-86.2" font-family="Arial" font-size="14.00">visibility_type_id </text>
<text text-anchor="start" x="470.65" y="-86.2" font-family="Arial" font-size="14.00" fill="#666666">[tinyint(4)]</text>
<polygon fill="none" stroke="black" points="358.6,-43.2 358.6,-74 602.2,-74 602.2,-43.2 358.6,-43.2"/>
<text text-anchor="start" x="365.6" y="-55.4" font-family="Arial" font-size="14.00">latest_version_updated_at </text>
<text text-anchor="start" x="533.73" y="-55.4" font-family="Arial" font-size="14.00" fill="#666666">[datetime]</text>
</g>
<!-- game_creators&#45;&gt;games -->
<g id="edge3" class="edge">
<title>game_creators:game_id&#45;&gt;games:id</title>
<path fill="none" stroke="black" d="M613.2,-526.97C729.34,-512.27 726.06,-243.4 603.2,-243.4"/>
<polygon fill="black" stroke="black" points="613.43,-526.96 603.17,-523.09 608.11,-527.29 603.78,-527.56 603.78,-527.56 603.78,-527.56 608.11,-527.29 603.73,-532.07 613.43,-526.96"/>
<text text-anchor="start" x="610.12" y="-537.6" font-family="Arial" font-size="10.00">FOREIGN KEY (game_id) REFERENCES games (id)</text>
</g>
<!-- game_creator_custom_job_relations -->
<g id="node2" class="node">
<title>game_creator_custom_job_relations</title>
<polygon fill="#efefef" stroke="none" points="43.2,-796.4 43.2,-832 443.6,-832 443.6,-796.4 43.2,-796.4"/>
<polygon fill="none" stroke="black" points="43.2,-796.4 43.2,-832 443.6,-832 443.6,-796.4 43.2,-796.4"/>
<text text-anchor="start" x="50.2" y="-809.8" font-family="Arial Bold" font-size="18.00">game_creator_custom_job_relations</text>
<text text-anchor="start" x="312.11" y="-809.8" font-family="Arial" font-size="14.00">    </text>
<text text-anchor="start" x="343.23" y="-809.8" font-family="Arial" font-size="14.00" fill="#666666">[BASE TABLE]</text>
<polygon fill="none" stroke="black" points="43.2,-765.6 43.2,-796.4 443.6,-796.4 443.6,-765.6 43.2,-765.6"/>
<text text-anchor="start" x="50.2" y="-777.8" font-family="Arial" font-size="14.00">game_creator_id </text>
<text text-anchor="start" x="159.15" y="-777.8" font-family="Arial" font-size="14.00" fill="#666666">[varchar(36)]</text>
<polygon fill="none" stroke="black" points="43.2,-734.8 43.2,-765.6 443.6,-765.6 443.6,-734.8 43.2,-734.8"/>
<text text-anchor="start" x="50.2" y="-747" font-family="Arial" font-size="14.00">custom_job_id </text>
<text text-anchor="start" x="144.37" y="-747" font-family="Arial" font-size="14.00" fill="#666666">[varchar(36)]</text>
</g>
<!-- game_creator_custom_job_relations&#45;&gt;game_creators -->
<g id="edge1" class="edge">
<title>game_creator_custom_job_relations:game_creator_id&#45;&gt;game_creators:id</title>
<path fill="none" stroke="black" d="M454.63,-779.46C480.67,-770.21 463.57,-721.38 443.6,-691.6 420.78,-657.55 381.49,-689.66 358.69,-655.6 334.65,-619.7 314.48,-558.4 357.69,-558.4"/>
<polygon fill="black" stroke="black" points="454.82,-779.43 444.25,-776.5 449.55,-780.24 445.26,-780.9 445.26,-780.9 445.26,-780.9 449.55,-780.24 445.62,-785.4 454.82,-779.43"/>
<text text-anchor="start" x="451.6" y="-791" font-family="Arial" font-size="10.00">FOREIGN KEY (game_creator_id) REFERENCES game_creators (id)</text>
</g>
<!-- game_creator_job_relations -->
<g id="node3" class="node">
<title>game_creator_job_relations</title>
<polygon fill="#efefef" stroke="none" points="547.7,-796.4 547.7,-832 887.11,-832 887.11,-796.4 547.7,-796.4"/>
<polygon fill="none" stroke="black" points="547.7,-796.4 547.7,-832 887.11,-832 887.11,-796.4 547.7,-796.4"/>
<text text-anchor="start" x="554.7" y="-809.8" font-family="Arial Bold" font-size="18.00">game_creator_job_relations</text>
<text text-anchor="start" x="755.62" y="-809.8" font-family="Arial" font-size="14.00">    </text>
<text text-anchor="start" x="786.73" y="-809.8" font-family="Arial" font-size="14.00" fill="#666666">[BASE TABLE]</text>
<polygon fill="none" stroke="black" points="547.7,-765.6 547.7,-796.4 887.11,-796.4 887.11,-765.6 547.7,-765.6"/>
<text text-anchor="start" x="554.7" y="-777.8" font-family="Arial" font-size="14.00">game_creator_id </text>
<text text-anchor="start" x="663.65" y="-777.8" font-family="Arial" font-size="14.00" fill="#666666">[varchar(36)]</text>
<polygon fill="none" stroke="black" points="547.7,-734.8 547.7,-765.6 887.11,-765.6 887.11,-734.8 547.7,-734.8"/>
<text text-anchor="start" x="554.7" y="-747" font-family="Arial" font-size="14.00">job_id </text>
<text text-anchor="start" x="595.95" y="-747" font-family="Arial" font-size="14.00" fill="#666666">[varchar(36)]</text>
</g>
<!-- game_creator_job_relations&#45;&gt;game_creators -->
<g id="edge2" class="edge">
<title>game_creator_job_relations:game_creator_id&#45;&gt;game_creators:id</title>
<path fill="none" stroke="black" d="M536.43,-779.39C511.35,-770.13 530.62,-722.95 547.7,-691.6 561.57,-666.13 588.26,-681.07 602.12,-655.6 622.77,-617.65 646.32,-558.4 603.12,-558.4"/>
<polygon fill="black" stroke="black" points="536.49,-779.4 545.67,-785.39 541.76,-780.23 546.04,-780.9 546.04,-780.9 546.04,-780.9 541.76,-780.23 547.06,-776.5 536.49,-779.4"/>
<text text-anchor="start" x="553.7" y="-765" font-family="Arial" font-size="10.00">FOREIGN KEY (game_creator_id) REFERENCES game_creators (id)</text>
</g>
</g>
</svg>
