<?xml version="1.0" encoding="UTF-8" standalone="no"?>
<!DOCTYPE svg PUBLIC "-//W3C//DTD SVG 1.1//EN"
 "http://www.w3.org/Graphics/SVG/1.1/DTD/svg11.dtd">
<!-- Generated by graphviz version 2.40.1 (20161225.0304)
 -->
<!-- Title: games Pages: 1 -->
<svg width="3321pt" height="899pt"
 viewBox="0.00 0.00 3320.50 899.00" xmlns="http://www.w3.org/2000/svg" xmlns:xlink="http://www.w3.org/1999/xlink">
<g id="graph0" class="graph" transform="scale(1 1) rotate(0) translate(4 895)">
<title>games</title>
<polygon fill="#ffffff" stroke="transparent" points="-4,4 -4,-895 3316.5,-895 3316.5,4 -4,4"/>
<!-- games -->
<g id="node1" class="node">
<title>games</title>
<polygon fill="#efefef" stroke="transparent" points="1381,-472.5 1381,-507.5 1561,-507.5 1561,-472.5 1381,-472.5"/>
<polygon fill="none" stroke="#000000" points="1381,-472.5 1381,-507.5 1561,-507.5 1561,-472.5 1381,-472.5"/>
<text text-anchor="start" x="1395.3677" y="-485.3" font-family="Arial Bold" font-size="18.00" fill="#000000">games</text>
<text text-anchor="start" x="1449.3785" y="-485.3" font-family="Arial" font-size="14.00" fill="#000000"> </text>
<text text-anchor="start" x="1453.2691" y="-485.3" font-family="Arial" font-size="14.00" fill="#666666">[BASE TABLE]</text>
<polygon fill="none" stroke="#000000" points="1381,-442.5 1381,-472.5 1561,-472.5 1561,-442.5 1381,-442.5"/>
<text text-anchor="start" x="1388" y="-453.9" font-family="Arial" font-size="14.00" fill="#000000">id </text>
<text text-anchor="start" x="1402.7798" y="-453.9" font-family="Arial" font-size="14.00" fill="#666666">[varchar(36)]</text>
<polygon fill="none" stroke="#000000" points="1381,-412.5 1381,-442.5 1561,-442.5 1561,-412.5 1381,-412.5"/>
<text text-anchor="start" x="1388" y="-423.9" font-family="Arial" font-size="14.00" fill="#000000">name </text>
<text text-anchor="start" x="1426.899" y="-423.9" font-family="Arial" font-size="14.00" fill="#666666">[varchar(256)]</text>
<polygon fill="none" stroke="#000000" points="1381,-382.5 1381,-412.5 1561,-412.5 1561,-382.5 1381,-382.5"/>
<text text-anchor="start" x="1388" y="-393.9" font-family="Arial" font-size="14.00" fill="#000000">description </text>
<text text-anchor="start" x="1459.568" y="-393.9" font-family="Arial" font-size="14.00" fill="#666666">[text]</text>
<polygon fill="none" stroke="#000000" points="1381,-352.5 1381,-382.5 1561,-382.5 1561,-352.5 1381,-352.5"/>
<text text-anchor="start" x="1388" y="-363.9" font-family="Arial" font-size="14.00" fill="#000000">created_at </text>
<text text-anchor="start" x="1458.028" y="-363.9" font-family="Arial" font-size="14.00" fill="#666666">[datetime]</text>
<polygon fill="none" stroke="#000000" points="1381,-322.5 1381,-352.5 1561,-352.5 1561,-322.5 1381,-322.5"/>
<text text-anchor="start" x="1388" y="-333.9" font-family="Arial" font-size="14.00" fill="#000000">deleted_at </text>
<text text-anchor="start" x="1457.2566" y="-333.9" font-family="Arial" font-size="14.00" fill="#666666">[datetime]</text>
<polygon fill="none" stroke="#000000" points="1381,-292.5 1381,-322.5 1561,-322.5 1561,-292.5 1381,-292.5"/>
<text text-anchor="start" x="1387.7742" y="-303.9" font-family="Arial" font-size="14.00" fill="#000000">visibility_type_id </text>
<text text-anchor="start" x="1492.7812" y="-303.9" font-family="Arial" font-size="14.00" fill="#666666">[tinyint(4)]</text>
<polygon fill="none" stroke="#000000" stroke-width="3" points="1379.5,-291.5 1379.5,-509.5 1562.5,-509.5 1562.5,-291.5 1379.5,-291.5"/>
</g>
<!-- game_visibility_types -->
<g id="node11" class="node">
<title>game_visibility_types</title>
<polygon fill="#efefef" stroke="transparent" points="1330,-132.5 1330,-167.5 1611,-167.5 1611,-132.5 1330,-132.5"/>
<polygon fill="none" stroke="#000000" points="1330,-132.5 1330,-167.5 1611,-167.5 1611,-132.5 1330,-132.5"/>
<text text-anchor="start" x="1336.8645" y="-145.3" font-family="Arial Bold" font-size="18.00" fill="#000000">game_visibility_types</text>
<text text-anchor="start" x="1506.8817" y="-145.3" font-family="Arial" font-size="14.00" fill="#000000"> </text>
<text text-anchor="start" x="1510.7723" y="-145.3" font-family="Arial" font-size="14.00" fill="#666666">[BASE TABLE]</text>
<polygon fill="none" stroke="#000000" points="1330,-102.5 1330,-132.5 1611,-132.5 1611,-102.5 1330,-102.5"/>
<text text-anchor="start" x="1337" y="-113.9" font-family="Arial" font-size="14.00" fill="#000000">id </text>
<text text-anchor="start" x="1351.7798" y="-113.9" font-family="Arial" font-size="14.00" fill="#666666">[tinyint(4)]</text>
<polygon fill="none" stroke="#000000" points="1330,-72.5 1330,-102.5 1611,-102.5 1611,-72.5 1330,-72.5"/>
<text text-anchor="start" x="1337" y="-83.9" font-family="Arial" font-size="14.00" fill="#000000">name </text>
<text text-anchor="start" x="1375.899" y="-83.9" font-family="Arial" font-size="14.00" fill="#666666">[varchar(32)]</text>
<polygon fill="none" stroke="#000000" points="1330,-42.5 1330,-72.5 1611,-72.5 1611,-42.5 1330,-42.5"/>
<text text-anchor="start" x="1337" y="-53.9" font-family="Arial" font-size="14.00" fill="#000000">created_at </text>
<text text-anchor="start" x="1407.028" y="-53.9" font-family="Arial" font-size="14.00" fill="#666666">[datetime]</text>
</g>
<!-- games&#45;&gt;game_visibility_types -->
<g id="edge11" class="edge">
<title>games:visibility_type_id&#45;&gt;game_visibility_types:id</title>
<path fill="none" stroke="#000000" d="M1471.7829,-282.4665C1481.398,-225.5791 1576.9355,-270.2466 1611,-211 1631.7132,-174.9746 1652.5556,-117.5 1611,-117.5"/>
<polygon fill="#000000" stroke="#000000" points="1471.778,-282.5303 1466.5136,-292.1499 1471.389,-287.5152 1471,-292.5 1471,-292.5 1471,-292.5 1471.389,-287.5152 1475.4864,-292.8501 1471.778,-282.5303 1471.778,-282.5303"/>
<text text-anchor="start" x="1129.2205" y="-302.5" font-family="Arial" font-size="10.00" fill="#000000">FOREIGN KEY (visibility_type_id) REFERENCES game_visibility_types (id)</text>
</g>
<!-- game_genre_relations -->
<g id="node2" class="node">
<title>game_genre_relations</title>
<polygon fill="#efefef" stroke="transparent" points="43,-752.5 43,-787.5 333,-787.5 333,-752.5 43,-752.5"/>
<polygon fill="none" stroke="#000000" points="43,-752.5 43,-787.5 333,-787.5 333,-752.5 43,-752.5"/>
<text text-anchor="start" x="49.8492" y="-765.3" font-family="Arial Bold" font-size="18.00" fill="#000000">game_genre_relations</text>
<text text-anchor="start" x="228.897" y="-765.3" font-family="Arial" font-size="14.00" fill="#000000"> </text>
<text text-anchor="start" x="232.7876" y="-765.3" font-family="Arial" font-size="14.00" fill="#666666">[BASE TABLE]</text>
<polygon fill="none" stroke="#000000" points="43,-722.5 43,-752.5 333,-752.5 333,-722.5 43,-722.5"/>
<text text-anchor="start" x="50" y="-733.9" font-family="Arial" font-size="14.00" fill="#000000">genre_id </text>
<text text-anchor="start" x="108.3534" y="-733.9" font-family="Arial" font-size="14.00" fill="#666666">[varchar(36)]</text>
<polygon fill="none" stroke="#000000" points="43,-692.5 43,-722.5 333,-722.5 333,-692.5 43,-692.5"/>
<text text-anchor="start" x="50" y="-703.9" font-family="Arial" font-size="14.00" fill="#000000">game_id </text>
<text text-anchor="start" x="107.5708" y="-703.9" font-family="Arial" font-size="14.00" fill="#666666">[varchar(36)]</text>
</g>
<!-- game_genre_relations&#45;&gt;games -->
<g id="edge1" class="edge">
<title>game_genre_relations:game_id&#45;&gt;games:id</title>
<path fill="none" stroke="#000000" d="M342.9501,-705.8924C373.422,-694.1717 334.0522,-621.4414 376,-590 465.3332,-523.0416 1260.3584,-457.5 1381,-457.5"/>
<polygon fill="#000000" stroke="#000000" points="342.872,-705.905 332.2822,-703.0576 337.936,-706.7025 333,-707.5 333,-707.5 333,-707.5 337.936,-706.7025 333.7178,-711.9424 342.872,-705.905 342.872,-705.905"/>
<text text-anchor="start" x="214.886" y="-691.5" font-family="Arial" font-size="10.00" fill="#000000">FOREIGN KEY (game_id) REFERENCES games (id)</text>
</g>
<!-- game_genre_relations&#45;&gt;games -->
<g id="edge2" class="edge">
<title>game_genre_relations:game_id&#45;&gt;games:id</title>
<path fill="none" stroke="#000000" d="M343.4416,-706.6722C393.4954,-697.9303 350.9762,-622.2479 394,-590 483.246,-523.1069 1276.8063,-457.628 1380.6973,-457.5002"/>
<polygon fill="#000000" stroke="#000000" points="343.3524,-706.6795 333.0172,-703.0142 338.3692,-707.0893 333.386,-707.499 333.386,-707.499 333.386,-707.499 338.3692,-707.0893 333.7548,-711.9839 343.3524,-706.6795 343.3524,-706.6795"/>
<text text-anchor="start" x="89.772" y="-717.499" font-family="Arial" font-size="10.00" fill="#000000">FOREIGN KEY (game_id) REFERENCES games (id)</text>
</g>
<!-- game_images -->
<g id="node3" class="node">
<title>game_images</title>
<polygon fill="#efefef" stroke="transparent" points="437,-782.5 437,-817.5 661,-817.5 661,-782.5 437,-782.5"/>
<polygon fill="none" stroke="#000000" points="437,-782.5 437,-817.5 661,-817.5 661,-782.5 437,-782.5"/>
<text text-anchor="start" x="443.8621" y="-795.3" font-family="Arial Bold" font-size="18.00" fill="#000000">game_images</text>
<text text-anchor="start" x="556.8841" y="-795.3" font-family="Arial" font-size="14.00" fill="#000000"> </text>
<text text-anchor="start" x="560.7747" y="-795.3" font-family="Arial" font-size="14.00" fill="#666666">[BASE TABLE]</text>
<polygon fill="none" stroke="#000000" points="437,-752.5 437,-782.5 661,-782.5 661,-752.5 437,-752.5"/>
<text text-anchor="start" x="444" y="-763.9" font-family="Arial" font-size="14.00" fill="#000000">id </text>
<text text-anchor="start" x="458.7798" y="-763.9" font-family="Arial" font-size="14.00" fill="#666666">[varchar(36)]</text>
<polygon fill="none" stroke="#000000" points="437,-722.5 437,-752.5 661,-752.5 661,-722.5 437,-722.5"/>
<text text-anchor="start" x="444" y="-733.9" font-family="Arial" font-size="14.00" fill="#000000">game_id </text>
<text text-anchor="start" x="501.5708" y="-733.9" font-family="Arial" font-size="14.00" fill="#666666">[varchar(36)]</text>
<polygon fill="none" stroke="#000000" points="437,-692.5 437,-722.5 661,-722.5 661,-692.5 437,-692.5"/>
<text text-anchor="start" x="444" y="-703.9" font-family="Arial" font-size="14.00" fill="#000000">image_type_id </text>
<text text-anchor="start" x="538.9158" y="-703.9" font-family="Arial" font-size="14.00" fill="#666666">[tinyint(4)]</text>
<polygon fill="none" stroke="#000000" points="437,-662.5 437,-692.5 661,-692.5 661,-662.5 437,-662.5"/>
<text text-anchor="start" x="444" y="-673.9" font-family="Arial" font-size="14.00" fill="#000000">created_at </text>
<text text-anchor="start" x="514.028" y="-673.9" font-family="Arial" font-size="14.00" fill="#666666">[datetime]</text>
</g>
<!-- game_images&#45;&gt;games -->
<g id="edge3" class="edge">
<title>game_images:game_id&#45;&gt;games:id</title>
<path fill="none" stroke="#000000" d="M671.1947,-736.6109C723.215,-726.5138 663.3336,-633.022 713,-590 827.3887,-490.9144 1229.6635,-457.5 1381,-457.5"/>
<polygon fill="#000000" stroke="#000000" points="670.9622,-736.631 660.609,-733.017 665.9811,-737.0655 661,-737.5 661,-737.5 661,-737.5 665.9811,-737.0655 661.391,-741.983 670.9622,-736.631 670.9622,-736.631"/>
<text text-anchor="start" x="542.886" y="-721.5" font-family="Arial" font-size="10.00" fill="#000000">FOREIGN KEY (game_id) REFERENCES games (id)</text>
</g>
<!-- game_management_roles -->
<g id="node4" class="node">
<title>game_management_roles</title>
<polygon fill="#efefef" stroke="transparent" points="765,-767.5 765,-802.5 1085,-802.5 1085,-767.5 765,-767.5"/>
<polygon fill="none" stroke="#000000" points="765,-767.5 765,-802.5 1085,-802.5 1085,-767.5 765,-767.5"/>
<text text-anchor="start" x="771.8471" y="-780.3" font-family="Arial Bold" font-size="18.00" fill="#000000">game_management_roles</text>
<text text-anchor="start" x="980.8991" y="-780.3" font-family="Arial" font-size="14.00" fill="#000000"> </text>
<text text-anchor="start" x="984.7897" y="-780.3" font-family="Arial" font-size="14.00" fill="#666666">[BASE TABLE]</text>
<polygon fill="none" stroke="#000000" points="765,-737.5 765,-767.5 1085,-767.5 1085,-737.5 765,-737.5"/>
<text text-anchor="start" x="772" y="-748.9" font-family="Arial" font-size="14.00" fill="#000000">game_id </text>
<text text-anchor="start" x="829.5708" y="-748.9" font-family="Arial" font-size="14.00" fill="#666666">[varchar(36)]</text>
<polygon fill="none" stroke="#000000" points="765,-707.5 765,-737.5 1085,-737.5 1085,-707.5 765,-707.5"/>
<text text-anchor="start" x="772" y="-718.9" font-family="Arial" font-size="14.00" fill="#000000">user_id </text>
<text text-anchor="start" x="821.7882" y="-718.9" font-family="Arial" font-size="14.00" fill="#666666">[varchar(36)]</text>
<polygon fill="none" stroke="#000000" points="765,-677.5 765,-707.5 1085,-707.5 1085,-677.5 765,-677.5"/>
<text text-anchor="start" x="772" y="-688.9" font-family="Arial" font-size="14.00" fill="#000000">role_type_id </text>
<text text-anchor="start" x="852.1332" y="-688.9" font-family="Arial" font-size="14.00" fill="#666666">[tinyint(4)]</text>
</g>
<!-- game_management_roles&#45;&gt;games -->
<g id="edge4" class="edge">
<title>game_management_roles:game_id&#45;&gt;games:id</title>
<path fill="none" stroke="#000000" d="M1095.0805,-751.7729C1154.0678,-742.4439 1091.0043,-645.5585 1137,-590 1215.6937,-494.9453 1257.5978,-457.5 1381,-457.5"/>
<polygon fill="#000000" stroke="#000000" points="1094.9741,-751.7805 1084.6762,-748.0117 1089.987,-752.1403 1085,-752.5 1085,-752.5 1085,-752.5 1089.987,-752.1403 1085.3238,-756.9883 1094.9741,-751.7805 1094.9741,-751.7805"/>
<text text-anchor="start" x="1092.386" y="-762.5" font-family="Arial" font-size="10.00" fill="#000000">FOREIGN KEY (game_id) REFERENCES games (id)</text>
</g>
<!-- game_versions -->
<g id="node5" class="node">
<title>game_versions</title>
<polygon fill="#efefef" stroke="transparent" points="1190,-797.5 1190,-832.5 1423,-832.5 1423,-797.5 1190,-797.5"/>
<polygon fill="none" stroke="#000000" points="1190,-797.5 1190,-832.5 1423,-832.5 1423,-797.5 1190,-797.5"/>
<text text-anchor="start" x="1196.8621" y="-810.3" font-family="Arial Bold" font-size="18.00" fill="#000000">game_versions</text>
<text text-anchor="start" x="1318.8841" y="-810.3" font-family="Arial" font-size="14.00" fill="#000000"> </text>
<text text-anchor="start" x="1322.7747" y="-810.3" font-family="Arial" font-size="14.00" fill="#666666">[BASE TABLE]</text>
<polygon fill="none" stroke="#000000" points="1190,-767.5 1190,-797.5 1423,-797.5 1423,-767.5 1190,-767.5"/>
<text text-anchor="start" x="1197" y="-778.9" font-family="Arial" font-size="14.00" fill="#000000">id </text>
<text text-anchor="start" x="1211.7798" y="-778.9" font-family="Arial" font-size="14.00" fill="#666666">[varchar(36)]</text>
<polygon fill="none" stroke="#000000" points="1190,-737.5 1190,-767.5 1423,-767.5 1423,-737.5 1190,-737.5"/>
<text text-anchor="start" x="1197" y="-748.9" font-family="Arial" font-size="14.00" fill="#000000">game_id </text>
<text text-anchor="start" x="1254.5708" y="-748.9" font-family="Arial" font-size="14.00" fill="#666666">[varchar(36)]</text>
<polygon fill="none" stroke="#000000" points="1190,-707.5 1190,-737.5 1423,-737.5 1423,-707.5 1190,-707.5"/>
<text text-anchor="start" x="1197" y="-718.9" font-family="Arial" font-size="14.00" fill="#000000">name </text>
<text text-anchor="start" x="1235.899" y="-718.9" font-family="Arial" font-size="14.00" fill="#666666">[varchar(32)]</text>
<polygon fill="none" stroke="#000000" points="1190,-677.5 1190,-707.5 1423,-707.5 1423,-677.5 1190,-677.5"/>
<text text-anchor="start" x="1197" y="-688.9" font-family="Arial" font-size="14.00" fill="#000000">description </text>
<text text-anchor="start" x="1268.568" y="-688.9" font-family="Arial" font-size="14.00" fill="#666666">[text]</text>
<polygon fill="none" stroke="#000000" points="1190,-647.5 1190,-677.5 1423,-677.5 1423,-647.5 1190,-647.5"/>
<text text-anchor="start" x="1197" y="-658.9" font-family="Arial" font-size="14.00" fill="#000000">created_at </text>
<text text-anchor="start" x="1267.028" y="-658.9" font-family="Arial" font-size="14.00" fill="#666666">[datetime]</text>
</g>
<!-- game_versions&#45;&gt;games -->
<g id="edge5" class="edge">
<title>game_versions:game_id&#45;&gt;games:id</title>
<path fill="none" stroke="#000000" d="M1433.1142,-751.6942C1483.7054,-742.8583 1443.8836,-663.2096 1423,-605 1413.0842,-577.3613 1390.9158,-581.6387 1381,-554 1366.5168,-513.6305 1338.1111,-457.5 1381,-457.5"/>
<polygon fill="#000000" stroke="#000000" points="1432.9684,-751.7058 1422.6426,-748.0142 1427.9842,-752.1029 1423,-752.5 1423,-752.5 1423,-752.5 1427.9842,-752.1029 1423.3574,-756.9858 1432.9684,-751.7058 1432.9684,-751.7058"/>
<text text-anchor="start" x="1430.386" y="-762.5" font-family="Arial" font-size="10.00" fill="#000000">FOREIGN KEY (game_id) REFERENCES games (id)</text>
</g>
<!-- game_videos -->
<g id="node6" class="node">
<title>game_videos</title>
<polygon fill="#efefef" stroke="transparent" points="1527,-782.5 1527,-817.5 1745,-817.5 1745,-782.5 1527,-782.5"/>
<polygon fill="none" stroke="#000000" points="1527,-782.5 1527,-817.5 1745,-817.5 1745,-782.5 1527,-782.5"/>
<text text-anchor="start" x="1533.8582" y="-795.3" font-family="Arial Bold" font-size="18.00" fill="#000000">game_videos</text>
<text text-anchor="start" x="1640.888" y="-795.3" font-family="Arial" font-size="14.00" fill="#000000"> </text>
<text text-anchor="start" x="1644.7786" y="-795.3" font-family="Arial" font-size="14.00" fill="#666666">[BASE TABLE]</text>
<polygon fill="none" stroke="#000000" points="1527,-752.5 1527,-782.5 1745,-782.5 1745,-752.5 1527,-752.5"/>
<text text-anchor="start" x="1534" y="-763.9" font-family="Arial" font-size="14.00" fill="#000000">id </text>
<text text-anchor="start" x="1548.7798" y="-763.9" font-family="Arial" font-size="14.00" fill="#666666">[varchar(36)]</text>
<polygon fill="none" stroke="#000000" points="1527,-722.5 1527,-752.5 1745,-752.5 1745,-722.5 1527,-722.5"/>
<text text-anchor="start" x="1534" y="-733.9" font-family="Arial" font-size="14.00" fill="#000000">game_id </text>
<text text-anchor="start" x="1591.5708" y="-733.9" font-family="Arial" font-size="14.00" fill="#666666">[varchar(36)]</text>
<polygon fill="none" stroke="#000000" points="1527,-692.5 1527,-722.5 1745,-722.5 1745,-692.5 1527,-692.5"/>
<text text-anchor="start" x="1534" y="-703.9" font-family="Arial" font-size="14.00" fill="#000000">video_type_id </text>
<text text-anchor="start" x="1624.2552" y="-703.9" font-family="Arial" font-size="14.00" fill="#666666">[tinyint(4)]</text>
<polygon fill="none" stroke="#000000" points="1527,-662.5 1527,-692.5 1745,-692.5 1745,-662.5 1527,-662.5"/>
<text text-anchor="start" x="1534" y="-673.9" font-family="Arial" font-size="14.00" fill="#000000">created_at </text>
<text text-anchor="start" x="1604.028" y="-673.9" font-family="Arial" font-size="14.00" fill="#666666">[datetime]</text>
</g>
<!-- game_videos&#45;&gt;games -->
<g id="edge6" class="edge">
<title>game_videos:game_id&#45;&gt;games:id</title>
<path fill="none" stroke="#000000" d="M1516.8461,-736.4308C1480.551,-727.6802 1515.609,-666.9853 1527,-620 1534.7744,-587.9321 1553.2256,-586.0679 1561,-554 1571.1051,-512.3185 1603.8889,-457.5 1561,-457.5"/>
<polygon fill="#000000" stroke="#000000" points="1517.055,-736.4527 1526.5287,-741.9753 1522.0275,-736.9764 1527,-737.5 1527,-737.5 1527,-737.5 1522.0275,-736.9764 1527.4713,-733.0247 1517.055,-736.4527 1517.055,-736.4527"/>
<text text-anchor="start" x="1534.386" y="-721.5" font-family="Arial" font-size="10.00" fill="#000000">FOREIGN KEY (game_id) REFERENCES games (id)</text>
</g>
<!-- launcher_version_game_relations -->
<g id="node7" class="node">
<title>launcher_version_game_relations</title>
<polygon fill="#efefef" stroke="transparent" points="1850,-752.5 1850,-787.5 2231,-787.5 2231,-752.5 1850,-752.5"/>
<polygon fill="none" stroke="#000000" points="1850,-752.5 1850,-787.5 2231,-787.5 2231,-752.5 1850,-752.5"/>
<text text-anchor="start" x="1856.8434" y="-765.3" font-family="Arial Bold" font-size="18.00" fill="#000000">launcher_version_game_relations</text>
<text text-anchor="start" x="2126.9028" y="-765.3" font-family="Arial" font-size="14.00" fill="#000000"> </text>
<text text-anchor="start" x="2130.7934" y="-765.3" font-family="Arial" font-size="14.00" fill="#666666">[BASE TABLE]</text>
<polygon fill="none" stroke="#000000" points="1850,-722.5 1850,-752.5 2231,-752.5 2231,-722.5 1850,-722.5"/>
<text text-anchor="start" x="1857" y="-733.9" font-family="Arial" font-size="14.00" fill="#000000">launcher_version_table_id </text>
<text text-anchor="start" x="2024.2678" y="-733.9" font-family="Arial" font-size="14.00" fill="#666666">[varchar(36)]</text>
<polygon fill="none" stroke="#000000" points="1850,-692.5 1850,-722.5 2231,-722.5 2231,-692.5 1850,-692.5"/>
<text text-anchor="start" x="1857" y="-703.9" font-family="Arial" font-size="14.00" fill="#000000">game_table_id </text>
<text text-anchor="start" x="1952.6984" y="-703.9" font-family="Arial" font-size="14.00" fill="#666666">[varchar(36)]</text>
</g>
<!-- launcher_version_game_relations&#45;&gt;games -->
<g id="edge7" class="edge">
<title>launcher_version_game_relations:game_table_id&#45;&gt;games:id</title>
<path fill="none" stroke="#000000" d="M1839.8602,-706.5362C1798.0592,-697.6513 1833.1223,-629.4435 1797,-590 1715.7593,-501.2897 1681.2896,-457.5 1561,-457.5"/>
<polygon fill="#000000" stroke="#000000" points="1840.0449,-706.5536 1849.5741,-711.9798 1845.0224,-707.0268 1850,-707.5 1850,-707.5 1850,-707.5 1845.0224,-707.0268 1850.4259,-703.0202 1840.0449,-706.5536 1840.0449,-706.5536"/>
<text text-anchor="start" x="1856.769" y="-717.5" font-family="Arial" font-size="10.00" fill="#000000">FOREIGN KEY (game_table_id) REFERENCES games (id)</text>
</g>
<!-- v2_game_files -->
<g id="node8" class="node">
<title>v2_game_files</title>
<polygon fill="#efefef" stroke="transparent" points="2335,-812.5 2335,-847.5 2562,-847.5 2562,-812.5 2335,-812.5"/>
<polygon fill="none" stroke="#000000" points="2335,-812.5 2335,-847.5 2562,-847.5 2562,-812.5 2335,-812.5"/>
<text text-anchor="start" x="2341.86" y="-825.3" font-family="Arial Bold" font-size="18.00" fill="#000000">v2_game_files</text>
<text text-anchor="start" x="2457.8862" y="-825.3" font-family="Arial" font-size="14.00" fill="#000000"> </text>
<text text-anchor="start" x="2461.7768" y="-825.3" font-family="Arial" font-size="14.00" fill="#666666">[BASE TABLE]</text>
<polygon fill="none" stroke="#000000" points="2335,-782.5 2335,-812.5 2562,-812.5 2562,-782.5 2335,-782.5"/>
<text text-anchor="start" x="2342" y="-793.9" font-family="Arial" font-size="14.00" fill="#000000">id </text>
<text text-anchor="start" x="2356.7798" y="-793.9" font-family="Arial" font-size="14.00" fill="#666666">[varchar(36)]</text>
<polygon fill="none" stroke="#000000" points="2335,-752.5 2335,-782.5 2562,-782.5 2562,-752.5 2335,-752.5"/>
<text text-anchor="start" x="2342" y="-763.9" font-family="Arial" font-size="14.00" fill="#000000">game_id </text>
<text text-anchor="start" x="2399.5708" y="-763.9" font-family="Arial" font-size="14.00" fill="#666666">[varchar(36)]</text>
<polygon fill="none" stroke="#000000" points="2335,-722.5 2335,-752.5 2562,-752.5 2562,-722.5 2335,-722.5"/>
<text text-anchor="start" x="2342" y="-733.9" font-family="Arial" font-size="14.00" fill="#000000">file_type_id </text>
<text text-anchor="start" x="2416.6872" y="-733.9" font-family="Arial" font-size="14.00" fill="#666666">[tinyint(4)]</text>
<polygon fill="none" stroke="#000000" points="2335,-692.5 2335,-722.5 2562,-722.5 2562,-692.5 2335,-692.5"/>
<text text-anchor="start" x="2342" y="-703.9" font-family="Arial" font-size="14.00" fill="#000000">hash </text>
<text text-anchor="start" x="2376.2384" y="-703.9" font-family="Arial" font-size="14.00" fill="#666666">[char(32)]</text>
<polygon fill="none" stroke="#000000" points="2335,-662.5 2335,-692.5 2562,-692.5 2562,-662.5 2335,-662.5"/>
<text text-anchor="start" x="2342" y="-673.9" font-family="Arial" font-size="14.00" fill="#000000">entry_point </text>
<text text-anchor="start" x="2415.1346" y="-673.9" font-family="Arial" font-size="14.00" fill="#666666">[text]</text>
<polygon fill="none" stroke="#000000" points="2335,-632.5 2335,-662.5 2562,-662.5 2562,-632.5 2335,-632.5"/>
<text text-anchor="start" x="2342" y="-643.9" font-family="Arial" font-size="14.00" fill="#000000">created_at </text>
<text text-anchor="start" x="2412.028" y="-643.9" font-family="Arial" font-size="14.00" fill="#666666">[datetime]</text>
</g>
<!-- v2_game_files&#45;&gt;games -->
<g id="edge8" class="edge">
<title>v2_game_files:game_id&#45;&gt;games:id</title>
<path fill="none" stroke="#000000" d="M2324.9423,-766.7759C2260.6873,-756.6341 2341.3131,-642.5706 2283,-590 2161.8427,-480.774 1724.1239,-457.5 1561,-457.5"/>
<polygon fill="#000000" stroke="#000000" points="2325.0258,-766.7818 2334.6768,-771.9884 2330.0129,-767.1409 2335,-767.5 2335,-767.5 2335,-767.5 2330.0129,-767.1409 2335.3232,-763.0116 2325.0258,-766.7818 2325.0258,-766.7818"/>
<text text-anchor="start" x="2091.386" y="-777.5" font-family="Arial" font-size="10.00" fill="#000000">FOREIGN KEY (game_id) REFERENCES games (id)</text>
</g>
<!-- v2_game_images -->
<g id="node9" class="node">
<title>v2_game_images</title>
<polygon fill="#efefef" stroke="transparent" points="2666,-782.5 2666,-817.5 2919,-817.5 2919,-782.5 2666,-782.5"/>
<polygon fill="none" stroke="#000000" points="2666,-782.5 2666,-817.5 2919,-817.5 2919,-782.5 2666,-782.5"/>
<text text-anchor="start" x="2672.8559" y="-795.3" font-family="Arial Bold" font-size="18.00" fill="#000000">v2_game_images</text>
<text text-anchor="start" x="2814.8903" y="-795.3" font-family="Arial" font-size="14.00" fill="#000000"> </text>
<text text-anchor="start" x="2818.7809" y="-795.3" font-family="Arial" font-size="14.00" fill="#666666">[BASE TABLE]</text>
<polygon fill="none" stroke="#000000" points="2666,-752.5 2666,-782.5 2919,-782.5 2919,-752.5 2666,-752.5"/>
<text text-anchor="start" x="2673" y="-763.9" font-family="Arial" font-size="14.00" fill="#000000">id </text>
<text text-anchor="start" x="2687.7798" y="-763.9" font-family="Arial" font-size="14.00" fill="#666666">[varchar(36)]</text>
<polygon fill="none" stroke="#000000" points="2666,-722.5 2666,-752.5 2919,-752.5 2919,-722.5 2666,-722.5"/>
<text text-anchor="start" x="2673" y="-733.9" font-family="Arial" font-size="14.00" fill="#000000">game_id </text>
<text text-anchor="start" x="2730.5708" y="-733.9" font-family="Arial" font-size="14.00" fill="#666666">[varchar(36)]</text>
<polygon fill="none" stroke="#000000" points="2666,-692.5 2666,-722.5 2919,-722.5 2919,-692.5 2666,-692.5"/>
<text text-anchor="start" x="2673" y="-703.9" font-family="Arial" font-size="14.00" fill="#000000">image_type_id </text>
<text text-anchor="start" x="2767.9158" y="-703.9" font-family="Arial" font-size="14.00" fill="#666666">[tinyint(4)]</text>
<polygon fill="none" stroke="#000000" points="2666,-662.5 2666,-692.5 2919,-692.5 2919,-662.5 2666,-662.5"/>
<text text-anchor="start" x="2673" y="-673.9" font-family="Arial" font-size="14.00" fill="#000000">created_at </text>
<text text-anchor="start" x="2743.028" y="-673.9" font-family="Arial" font-size="14.00" fill="#666666">[datetime]</text>
</g>
<!-- v2_game_images&#45;&gt;games -->
<g id="edge9" class="edge">
<title>v2_game_images:game_id&#45;&gt;games:id</title>
<path fill="none" stroke="#000000" d="M2655.8186,-736.5949C2603.9477,-726.3191 2665.1546,-631.2413 2614,-590 2522.1966,-515.9873 1678.9226,-457.5 1561,-457.5"/>
<polygon fill="#000000" stroke="#000000" points="2656.0393,-736.6144 2665.6015,-741.9823 2661.0196,-737.0572 2666,-737.5 2666,-737.5 2666,-737.5 2661.0196,-737.0572 2666.3985,-733.0177 2656.0393,-736.6144 2656.0393,-736.6144"/>
<text text-anchor="start" x="2422.386" y="-747.5" font-family="Arial" font-size="10.00" fill="#000000">FOREIGN KEY (game_id) REFERENCES games (id)</text>
</g>
<!-- v2_game_videos -->
<g id="node10" class="node">
<title>v2_game_videos</title>
<polygon fill="#efefef" stroke="transparent" points="3023,-782.5 3023,-817.5 3270,-817.5 3270,-782.5 3023,-782.5"/>
<polygon fill="none" stroke="#000000" points="3023,-782.5 3023,-817.5 3270,-817.5 3270,-782.5 3023,-782.5"/>
<text text-anchor="start" x="3029.852" y="-795.3" font-family="Arial Bold" font-size="18.00" fill="#000000">v2_game_videos</text>
<text text-anchor="start" x="3165.8942" y="-795.3" font-family="Arial" font-size="14.00" fill="#000000"> </text>
<text text-anchor="start" x="3169.7848" y="-795.3" font-family="Arial" font-size="14.00" fill="#666666">[BASE TABLE]</text>
<polygon fill="none" stroke="#000000" points="3023,-752.5 3023,-782.5 3270,-782.5 3270,-752.5 3023,-752.5"/>
<text text-anchor="start" x="3030" y="-763.9" font-family="Arial" font-size="14.00" fill="#000000">id </text>
<text text-anchor="start" x="3044.7798" y="-763.9" font-family="Arial" font-size="14.00" fill="#666666">[varchar(36)]</text>
<polygon fill="none" stroke="#000000" points="3023,-722.5 3023,-752.5 3270,-752.5 3270,-722.5 3023,-722.5"/>
<text text-anchor="start" x="3030" y="-733.9" font-family="Arial" font-size="14.00" fill="#000000">game_id </text>
<text text-anchor="start" x="3087.5708" y="-733.9" font-family="Arial" font-size="14.00" fill="#666666">[varchar(36)]</text>
<polygon fill="none" stroke="#000000" points="3023,-692.5 3023,-722.5 3270,-722.5 3270,-692.5 3023,-692.5"/>
<text text-anchor="start" x="3030" y="-703.9" font-family="Arial" font-size="14.00" fill="#000000">video_type_id </text>
<text text-anchor="start" x="3120.2552" y="-703.9" font-family="Arial" font-size="14.00" fill="#666666">[tinyint(4)]</text>
<polygon fill="none" stroke="#000000" points="3023,-662.5 3023,-692.5 3270,-692.5 3270,-662.5 3023,-662.5"/>
<text text-anchor="start" x="3030" y="-673.9" font-family="Arial" font-size="14.00" fill="#000000">created_at </text>
<text text-anchor="start" x="3100.028" y="-673.9" font-family="Arial" font-size="14.00" fill="#666666">[datetime]</text>
</g>
<!-- v2_game_videos&#45;&gt;games -->
<g id="edge10" class="edge">
<title>v2_game_videos:game_id&#45;&gt;games:id</title>
<path fill="none" stroke="#000000" d="M3012.8244,-736.5876C2961.018,-726.2305 3022.7973,-630.4312 2971,-590 2846.9577,-493.177 1718.3569,-457.5 1561,-457.5"/>
<polygon fill="#000000" stroke="#000000" points="3013.04,-736.6068 3022.5981,-741.982 3018.02,-737.0534 3023,-737.5 3023,-737.5 3023,-737.5 3018.02,-737.0534 3023.4019,-733.018 3013.04,-736.6068 3013.04,-736.6068"/>
<text text-anchor="start" x="3030.386" y="-747.5" font-family="Arial" font-size="10.00" fill="#000000">FOREIGN KEY (game_id) REFERENCES games (id)</text>
</g>
</g>
</svg>
