<?xml version="1.0" encoding="UTF-8" standalone="no"?>
<!DOCTYPE svg PUBLIC "-//W3C//DTD SVG 1.1//EN"
 "http://www.w3.org/Graphics/SVG/1.1/DTD/svg11.dtd">
<!-- Generated by graphviz version 12.1.2 (20240928.0832)
 -->
<!-- Title: games Pages: 1 -->
<svg width="4155pt" height="1006pt"
 viewBox="0.00 0.00 4155.34 1006.40" xmlns="http://www.w3.org/2000/svg" xmlns:xlink="http://www.w3.org/1999/xlink">
<g id="graph0" class="graph" transform="scale(1 1) rotate(0) translate(4 1002.4)">
<title>games</title>
<polygon fill="white" stroke="none" points="-4,4 -4,-1002.4 4151.34,-1002.4 4151.34,4 -4,4"/>
<!-- games -->
<g id="node1" class="node">
<title>games</title>
<polygon fill="#efefef" stroke="none" points="1920.11,-512.2 1920.11,-547.8 2163.71,-547.8 2163.71,-512.2 1920.11,-512.2"/>
<polygon fill="none" stroke="black" points="1920.11,-512.2 1920.11,-547.8 2163.71,-547.8 2163.71,-512.2 1920.11,-512.2"/>
<text text-anchor="start" x="1956.67" y="-525.6" font-family="Arial Bold" font-size="18.00">games</text>
<text text-anchor="start" x="2002.66" y="-525.6" font-family="Arial" font-size="14.00">    </text>
<text text-anchor="start" x="2033.78" y="-525.6" font-family="Arial" font-size="14.00" fill="#666666">[BASE TABLE]</text>
<polygon fill="none" stroke="black" points="1920.11,-481.4 1920.11,-512.2 2163.71,-512.2 2163.71,-481.4 1920.11,-481.4"/>
<text text-anchor="start" x="1927.11" y="-493.6" font-family="Arial" font-size="14.00">id </text>
<text text-anchor="start" x="1941.9" y="-493.6" font-family="Arial" font-size="14.00" fill="#666666">[varchar(36)]</text>
<polygon fill="none" stroke="black" points="1920.11,-450.6 1920.11,-481.4 2163.71,-481.4 2163.71,-450.6 1920.11,-450.6"/>
<text text-anchor="start" x="1927.11" y="-462.8" font-family="Arial" font-size="14.00">name </text>
<text text-anchor="start" x="1966.02" y="-462.8" font-family="Arial" font-size="14.00" fill="#666666">[varchar(256)]</text>
<polygon fill="none" stroke="black" points="1920.11,-419.8 1920.11,-450.6 2163.71,-450.6 2163.71,-419.8 1920.11,-419.8"/>
<text text-anchor="start" x="1927.11" y="-432" font-family="Arial" font-size="14.00">description </text>
<text text-anchor="start" x="1998.7" y="-432" font-family="Arial" font-size="14.00" fill="#666666">[text]</text>
<polygon fill="none" stroke="black" points="1920.11,-389 1920.11,-419.8 2163.71,-419.8 2163.71,-389 1920.11,-389"/>
<text text-anchor="start" x="1927.11" y="-401.2" font-family="Arial" font-size="14.00">created_at </text>
<text text-anchor="start" x="1997.16" y="-401.2" font-family="Arial" font-size="14.00" fill="#666666">[datetime]</text>
<polygon fill="none" stroke="black" points="1920.11,-358.2 1920.11,-389 2163.71,-389 2163.71,-358.2 1920.11,-358.2"/>
<text text-anchor="start" x="1927.11" y="-370.4" font-family="Arial" font-size="14.00">deleted_at </text>
<text text-anchor="start" x="1996.39" y="-370.4" font-family="Arial" font-size="14.00" fill="#666666">[datetime]</text>
<polygon fill="none" stroke="black" points="1920.11,-327.4 1920.11,-358.2 2163.71,-358.2 2163.71,-327.4 1920.11,-327.4"/>
<text text-anchor="start" x="1927.11" y="-339.6" font-family="Arial" font-size="14.00">visibility_type_id </text>
<text text-anchor="start" x="2032.16" y="-339.6" font-family="Arial" font-size="14.00" fill="#666666">[tinyint(4)]</text>
<polygon fill="none" stroke="black" points="1920.11,-296.6 1920.11,-327.4 2163.71,-327.4 2163.71,-296.6 1920.11,-296.6"/>
<text text-anchor="start" x="1927.11" y="-308.8" font-family="Arial" font-size="14.00">latest_version_updated_at </text>
<text text-anchor="start" x="2095.23" y="-308.8" font-family="Arial" font-size="14.00" fill="#666666">[datetime]</text>
<polygon fill="none" stroke="black" stroke-width="3" points="1918.61,-295.1 1918.61,-549.3 2165.21,-549.3 2165.21,-295.1 1918.61,-295.1"/>
</g>
<!-- game_visibility_types -->
<g id="node13" class="node">
<title>game_visibility_types</title>
<polygon fill="#efefef" stroke="none" points="1893.17,-135.6 1893.17,-171.2 2190.65,-171.2 2190.65,-135.6 1893.17,-135.6"/>
<polygon fill="none" stroke="black" points="1893.17,-135.6 1893.17,-171.2 2190.65,-171.2 2190.65,-135.6 1893.17,-135.6"/>
<text text-anchor="start" x="1900.17" y="-149" font-family="Arial Bold" font-size="18.00">game_visibility_types</text>
<text text-anchor="start" x="2059.16" y="-149" font-family="Arial" font-size="14.00">    </text>
<text text-anchor="start" x="2090.28" y="-149" font-family="Arial" font-size="14.00" fill="#666666">[BASE TABLE]</text>
<polygon fill="none" stroke="black" points="1893.17,-104.8 1893.17,-135.6 2190.65,-135.6 2190.65,-104.8 1893.17,-104.8"/>
<text text-anchor="start" x="1900.17" y="-117" font-family="Arial" font-size="14.00">id </text>
<text text-anchor="start" x="1914.96" y="-117" font-family="Arial" font-size="14.00" fill="#666666">[tinyint(4)]</text>
<polygon fill="none" stroke="black" points="1893.17,-74 1893.17,-104.8 2190.65,-104.8 2190.65,-74 1893.17,-74"/>
<text text-anchor="start" x="1900.17" y="-86.2" font-family="Arial" font-size="14.00">name </text>
<text text-anchor="start" x="1939.08" y="-86.2" font-family="Arial" font-size="14.00" fill="#666666">[varchar(32)]</text>
<polygon fill="none" stroke="black" points="1893.17,-43.2 1893.17,-74 2190.65,-74 2190.65,-43.2 1893.17,-43.2"/>
<text text-anchor="start" x="1900.17" y="-55.4" font-family="Arial" font-size="14.00">created_at </text>
<text text-anchor="start" x="1970.22" y="-55.4" font-family="Arial" font-size="14.00" fill="#666666">[datetime]</text>
</g>
<!-- games&#45;&gt;game_visibility_types -->
<g id="edge12" class="edge">
<title>games:visibility_type_id&#45;&gt;game_visibility_types:id</title>
<path fill="none" stroke="black" d="M2174.95,-341.99C2266.1,-327.42 2287.8,-120.2 2191.65,-120.2"/>
<polygon fill="black" stroke="black" points="2175.01,-341.99 2164.69,-338.29 2169.69,-342.41 2165.38,-342.75 2165.38,-342.75 2165.38,-342.75 2169.69,-342.41 2165.4,-347.26 2175.01,-341.99"/>
<text text-anchor="start" x="2171.71" y="-352.8" font-family="Arial" font-size="10.00">FOREIGN KEY (visibility_type_id) REFERENCES game_visibility_types (id)</text>
</g>
<!-- game_genre_relations -->
<g id="node2" class="node">
<title>game_genre_relations</title>
<polygon fill="#efefef" stroke="none" points="43.2,-827.2 43.2,-862.8 340.62,-862.8 340.62,-827.2 43.2,-827.2"/>
<polygon fill="none" stroke="black" points="43.2,-827.2 43.2,-862.8 340.62,-862.8 340.62,-827.2 43.2,-827.2"/>
<text text-anchor="start" x="50.2" y="-840.6" font-family="Arial Bold" font-size="18.00">game_genre_relations</text>
<text text-anchor="start" x="209.13" y="-840.6" font-family="Arial" font-size="14.00">    </text>
<text text-anchor="start" x="240.25" y="-840.6" font-family="Arial" font-size="14.00" fill="#666666">[BASE TABLE]</text>
<polygon fill="none" stroke="black" points="43.2,-796.4 43.2,-827.2 340.62,-827.2 340.62,-796.4 43.2,-796.4"/>
<text text-anchor="start" x="50.2" y="-808.6" font-family="Arial" font-size="14.00">genre_id </text>
<text text-anchor="start" x="108.58" y="-808.6" font-family="Arial" font-size="14.00" fill="#666666">[varchar(36)]</text>
<polygon fill="none" stroke="black" points="43.2,-765.6 43.2,-796.4 340.62,-796.4 340.62,-765.6 43.2,-765.6"/>
<text text-anchor="start" x="50.2" y="-777.8" font-family="Arial" font-size="14.00">game_id </text>
<text text-anchor="start" x="107.79" y="-777.8" font-family="Arial" font-size="14.00" fill="#666666">[varchar(36)]</text>
</g>
<!-- game_genre_relations&#45;&gt;games -->
<g id="edge1" class="edge">
<title>game_genre_relations:game_id&#45;&gt;games:id</title>
<path fill="none" stroke="black" d="M351.98,-780.07C404.65,-769.46 340.2,-671.35 392.91,-630 526.84,-524.93 1748.89,-496.8 1919.11,-496.8"/>
<polygon fill="black" stroke="black" points="351.91,-780.07 341.55,-776.49 346.6,-780.55 342.29,-780.94 342.29,-780.94 342.29,-780.94 346.6,-780.55 342.36,-785.45 351.91,-780.07"/>
<text text-anchor="start" x="348.62" y="-791" font-family="Arial" font-size="10.00">FOREIGN KEY (game_id) REFERENCES games (id)</text>
</g>
<!-- game_images -->
<g id="node3" class="node">
<title>game_images</title>
<polygon fill="#efefef" stroke="none" points="445.18,-858 445.18,-893.6 682.64,-893.6 682.64,-858 445.18,-858"/>
<polygon fill="none" stroke="black" points="445.18,-858 445.18,-893.6 682.64,-893.6 682.64,-858 445.18,-858"/>
<text text-anchor="start" x="452.18" y="-871.4" font-family="Arial Bold" font-size="18.00">game_images</text>
<text text-anchor="start" x="551.15" y="-871.4" font-family="Arial" font-size="14.00">    </text>
<text text-anchor="start" x="582.27" y="-871.4" font-family="Arial" font-size="14.00" fill="#666666">[BASE TABLE]</text>
<polygon fill="none" stroke="black" points="445.18,-827.2 445.18,-858 682.64,-858 682.64,-827.2 445.18,-827.2"/>
<text text-anchor="start" x="452.18" y="-839.4" font-family="Arial" font-size="14.00">id </text>
<text text-anchor="start" x="466.97" y="-839.4" font-family="Arial" font-size="14.00" fill="#666666">[varchar(36)]</text>
<polygon fill="none" stroke="black" points="445.18,-796.4 445.18,-827.2 682.64,-827.2 682.64,-796.4 445.18,-796.4"/>
<text text-anchor="start" x="452.18" y="-808.6" font-family="Arial" font-size="14.00">game_id </text>
<text text-anchor="start" x="509.78" y="-808.6" font-family="Arial" font-size="14.00" fill="#666666">[varchar(36)]</text>
<polygon fill="none" stroke="black" points="445.18,-765.6 445.18,-796.4 682.64,-796.4 682.64,-765.6 445.18,-765.6"/>
<text text-anchor="start" x="452.18" y="-777.8" font-family="Arial" font-size="14.00">image_type_id </text>
<text text-anchor="start" x="547.14" y="-777.8" font-family="Arial" font-size="14.00" fill="#666666">[tinyint(4)]</text>
<polygon fill="none" stroke="black" points="445.18,-734.8 445.18,-765.6 682.64,-765.6 682.64,-734.8 445.18,-734.8"/>
<text text-anchor="start" x="452.18" y="-747" font-family="Arial" font-size="14.00">created_at </text>
<text text-anchor="start" x="522.23" y="-747" font-family="Arial" font-size="14.00" fill="#666666">[datetime]</text>
</g>
<!-- game_images&#45;&gt;games -->
<g id="edge2" class="edge">
<title>game_images:game_id&#45;&gt;games:id</title>
<path fill="none" stroke="black" d="M693.89,-811.05C759.23,-800.5 673.79,-681.9 734.91,-630 835.84,-544.3 1786.7,-496.8 1919.11,-496.8"/>
<polygon fill="black" stroke="black" points="693.94,-811.04 683.64,-807.29 688.62,-811.43 684.31,-811.75 684.31,-811.75 684.31,-811.75 688.62,-811.43 684.3,-816.26 693.94,-811.04"/>
<text text-anchor="start" x="690.64" y="-821.8" font-family="Arial" font-size="10.00">FOREIGN KEY (game_id) REFERENCES games (id)</text>
</g>
<!-- game_management_roles -->
<g id="node4" class="node">
<title>game_management_roles</title>
<polygon fill="#efefef" stroke="none" points="786.7,-842.6 786.7,-878.2 1109.12,-878.2 1109.12,-842.6 786.7,-842.6"/>
<polygon fill="none" stroke="black" points="786.7,-842.6 786.7,-878.2 1109.12,-878.2 1109.12,-842.6 786.7,-842.6"/>
<text text-anchor="start" x="793.7" y="-856" font-family="Arial Bold" font-size="18.00">game_management_roles</text>
<text text-anchor="start" x="977.63" y="-856" font-family="Arial" font-size="14.00">    </text>
<text text-anchor="start" x="1008.75" y="-856" font-family="Arial" font-size="14.00" fill="#666666">[BASE TABLE]</text>
<polygon fill="none" stroke="black" points="786.7,-811.8 786.7,-842.6 1109.12,-842.6 1109.12,-811.8 786.7,-811.8"/>
<text text-anchor="start" x="793.7" y="-824" font-family="Arial" font-size="14.00">game_id </text>
<text text-anchor="start" x="851.29" y="-824" font-family="Arial" font-size="14.00" fill="#666666">[varchar(36)]</text>
<polygon fill="none" stroke="black" points="786.7,-781 786.7,-811.8 1109.12,-811.8 1109.12,-781 786.7,-781"/>
<text text-anchor="start" x="793.7" y="-793.2" font-family="Arial" font-size="14.00">user_id </text>
<text text-anchor="start" x="843.51" y="-793.2" font-family="Arial" font-size="14.00" fill="#666666">[varchar(36)]</text>
<polygon fill="none" stroke="black" points="786.7,-750.2 786.7,-781 1109.12,-781 1109.12,-750.2 786.7,-750.2"/>
<text text-anchor="start" x="793.7" y="-762.4" font-family="Arial" font-size="14.00">role_type_id </text>
<text text-anchor="start" x="873.87" y="-762.4" font-family="Arial" font-size="14.00" fill="#666666">[tinyint(4)]</text>
</g>
<!-- game_management_roles&#45;&gt;games -->
<g id="edge3" class="edge">
<title>game_management_roles:game_id&#45;&gt;games:id</title>
<path fill="none" stroke="black" d="M1120.31,-826.53C1192.37,-816.18 1097.98,-688.85 1161.91,-630 1287.61,-514.29 1748.26,-496.8 1919.11,-496.8"/>
<polygon fill="black" stroke="black" points="1120.43,-826.52 1110.16,-822.69 1115.11,-826.87 1110.79,-827.16 1110.79,-827.16 1110.79,-827.16 1115.11,-826.87 1110.75,-831.67 1120.43,-826.52"/>
<text text-anchor="start" x="991.48" y="-811.2" font-family="Arial" font-size="10.00">FOREIGN KEY (game_id) REFERENCES games (id)</text>
</g>
<!-- game_play_logs -->
<g id="node5" class="node">
<title>game_play_logs</title>
<polygon fill="#efefef" stroke="none" points="1213.68,-919.6 1213.68,-955.2 1470.14,-955.2 1470.14,-919.6 1213.68,-919.6"/>
<polygon fill="none" stroke="black" points="1213.68,-919.6 1213.68,-955.2 1470.14,-955.2 1470.14,-919.6 1213.68,-919.6"/>
<text text-anchor="start" x="1220.68" y="-933" font-family="Arial Bold" font-size="18.00">game_play_logs</text>
<text text-anchor="start" x="1338.65" y="-933" font-family="Arial" font-size="14.00">    </text>
<text text-anchor="start" x="1369.77" y="-933" font-family="Arial" font-size="14.00" fill="#666666">[BASE TABLE]</text>
<polygon fill="none" stroke="black" points="1213.68,-888.8 1213.68,-919.6 1470.14,-919.6 1470.14,-888.8 1213.68,-888.8"/>
<text text-anchor="start" x="1220.68" y="-901" font-family="Arial" font-size="14.00">id </text>
<text text-anchor="start" x="1235.46" y="-901" font-family="Arial" font-size="14.00" fill="#666666">[varchar(36)]</text>
<polygon fill="none" stroke="black" points="1213.68,-858 1213.68,-888.8 1470.14,-888.8 1470.14,-858 1213.68,-858"/>
<text text-anchor="start" x="1220.68" y="-870.2" font-family="Arial" font-size="14.00">edition_id </text>
<text text-anchor="start" x="1284.51" y="-870.2" font-family="Arial" font-size="14.00" fill="#666666">[varchar(36)]</text>
<polygon fill="none" stroke="black" points="1213.68,-827.2 1213.68,-858 1470.14,-858 1470.14,-827.2 1213.68,-827.2"/>
<text text-anchor="start" x="1220.68" y="-839.4" font-family="Arial" font-size="14.00">game_id </text>
<text text-anchor="start" x="1278.27" y="-839.4" font-family="Arial" font-size="14.00" fill="#666666">[varchar(36)]</text>
<polygon fill="none" stroke="black" points="1213.68,-796.4 1213.68,-827.2 1470.14,-827.2 1470.14,-796.4 1213.68,-796.4"/>
<text text-anchor="start" x="1220.68" y="-808.6" font-family="Arial" font-size="14.00">game_version_id </text>
<text text-anchor="start" x="1331.19" y="-808.6" font-family="Arial" font-size="14.00" fill="#666666">[varchar(36)]</text>
<polygon fill="none" stroke="black" points="1213.68,-765.6 1213.68,-796.4 1470.14,-796.4 1470.14,-765.6 1213.68,-765.6"/>
<text text-anchor="start" x="1220.68" y="-777.8" font-family="Arial" font-size="14.00">start_time </text>
<text text-anchor="start" x="1286.03" y="-777.8" font-family="Arial" font-size="14.00" fill="#666666">[datetime]</text>
<polygon fill="none" stroke="black" points="1213.68,-734.8 1213.68,-765.6 1470.14,-765.6 1470.14,-734.8 1213.68,-734.8"/>
<text text-anchor="start" x="1220.68" y="-747" font-family="Arial" font-size="14.00">end_time </text>
<text text-anchor="start" x="1282.16" y="-747" font-family="Arial" font-size="14.00" fill="#666666">[datetime]</text>
<polygon fill="none" stroke="black" points="1213.68,-704 1213.68,-734.8 1470.14,-734.8 1470.14,-704 1213.68,-704"/>
<text text-anchor="start" x="1220.68" y="-716.2" font-family="Arial" font-size="14.00">created_at </text>
<text text-anchor="start" x="1290.73" y="-716.2" font-family="Arial" font-size="14.00" fill="#666666">[datetime]</text>
<polygon fill="none" stroke="black" points="1213.68,-673.2 1213.68,-704 1470.14,-704 1470.14,-673.2 1213.68,-673.2"/>
<text text-anchor="start" x="1220.68" y="-685.4" font-family="Arial" font-size="14.00">updated_at </text>
<text text-anchor="start" x="1294.64" y="-685.4" font-family="Arial" font-size="14.00" fill="#666666">[datetime]</text>
</g>
<!-- game_play_logs&#45;&gt;games -->
<g id="edge4" class="edge">
<title>game_play_logs:game_id&#45;&gt;games:id</title>
<path fill="none" stroke="black" d="M1481.13,-842.03C1560.38,-832.23 1459.59,-698.98 1522.91,-630 1585.73,-561.57 1826.22,-496.8 1919.11,-496.8"/>
<polygon fill="black" stroke="black" points="1481.46,-842.01 1471.22,-838.09 1476.14,-842.31 1471.81,-842.56 1471.81,-842.56 1471.81,-842.56 1476.14,-842.31 1471.73,-847.07 1481.46,-842.01"/>
<text text-anchor="start" x="1352.5" y="-826.6" font-family="Arial" font-size="10.00">FOREIGN KEY (game_id) REFERENCES games (id)</text>
</g>
<!-- game_versions -->
<g id="node6" class="node">
<title>game_versions</title>
<polygon fill="#efefef" stroke="none" points="1574.68,-873.4 1574.68,-909 1821.14,-909 1821.14,-873.4 1574.68,-873.4"/>
<polygon fill="none" stroke="black" points="1574.68,-873.4 1574.68,-909 1821.14,-909 1821.14,-873.4 1574.68,-873.4"/>
<text text-anchor="start" x="1581.68" y="-886.8" font-family="Arial Bold" font-size="18.00">game_versions</text>
<text text-anchor="start" x="1689.65" y="-886.8" font-family="Arial" font-size="14.00">    </text>
<text text-anchor="start" x="1720.77" y="-886.8" font-family="Arial" font-size="14.00" fill="#666666">[BASE TABLE]</text>
<polygon fill="none" stroke="black" points="1574.68,-842.6 1574.68,-873.4 1821.14,-873.4 1821.14,-842.6 1574.68,-842.6"/>
<text text-anchor="start" x="1581.68" y="-854.8" font-family="Arial" font-size="14.00">id </text>
<text text-anchor="start" x="1596.47" y="-854.8" font-family="Arial" font-size="14.00" fill="#666666">[varchar(36)]</text>
<polygon fill="none" stroke="black" points="1574.68,-811.8 1574.68,-842.6 1821.14,-842.6 1821.14,-811.8 1574.68,-811.8"/>
<text text-anchor="start" x="1581.68" y="-824" font-family="Arial" font-size="14.00">game_id </text>
<text text-anchor="start" x="1639.27" y="-824" font-family="Arial" font-size="14.00" fill="#666666">[varchar(36)]</text>
<polygon fill="none" stroke="black" points="1574.68,-781 1574.68,-811.8 1821.14,-811.8 1821.14,-781 1574.68,-781"/>
<text text-anchor="start" x="1581.68" y="-793.2" font-family="Arial" font-size="14.00">name </text>
<text text-anchor="start" x="1620.59" y="-793.2" font-family="Arial" font-size="14.00" fill="#666666">[varchar(32)]</text>
<polygon fill="none" stroke="black" points="1574.68,-750.2 1574.68,-781 1821.14,-781 1821.14,-750.2 1574.68,-750.2"/>
<text text-anchor="start" x="1581.68" y="-762.4" font-family="Arial" font-size="14.00">description </text>
<text text-anchor="start" x="1653.27" y="-762.4" font-family="Arial" font-size="14.00" fill="#666666">[text]</text>
<polygon fill="none" stroke="black" points="1574.68,-719.4 1574.68,-750.2 1821.14,-750.2 1821.14,-719.4 1574.68,-719.4"/>
<text text-anchor="start" x="1581.68" y="-731.6" font-family="Arial" font-size="14.00">created_at </text>
<text text-anchor="start" x="1651.73" y="-731.6" font-family="Arial" font-size="14.00" fill="#666666">[datetime]</text>
</g>
<!-- game_versions&#45;&gt;games -->
<g id="edge5" class="edge">
<title>game_versions:game_id&#45;&gt;games:id</title>
<path fill="none" stroke="black" d="M1832.06,-825.09C1893.7,-796.95 1846.18,-496.8 1919.11,-496.8"/>
<polygon fill="black" stroke="black" points="1832.25,-825.05 1821.53,-822.73 1827.03,-826.16 1822.8,-827.06 1822.8,-827.06 1822.8,-827.06 1827.03,-826.16 1823.41,-831.53 1832.25,-825.05"/>
<text text-anchor="start" x="1829.14" y="-837.2" font-family="Arial" font-size="10.00">FOREIGN KEY (game_id) REFERENCES games (id)</text>
</g>
<!-- game_videos -->
<g id="node7" class="node">
<title>game_videos</title>
<polygon fill="#efefef" stroke="none" points="1925.18,-858 1925.18,-893.6 2158.64,-893.6 2158.64,-858 1925.18,-858"/>
<polygon fill="none" stroke="black" points="1925.18,-858 1925.18,-893.6 2158.64,-893.6 2158.64,-858 1925.18,-858"/>
<text text-anchor="start" x="1932.18" y="-871.4" font-family="Arial Bold" font-size="18.00">game_videos</text>
<text text-anchor="start" x="2027.15" y="-871.4" font-family="Arial" font-size="14.00">    </text>
<text text-anchor="start" x="2058.27" y="-871.4" font-family="Arial" font-size="14.00" fill="#666666">[BASE TABLE]</text>
<polygon fill="none" stroke="black" points="1925.18,-827.2 1925.18,-858 2158.64,-858 2158.64,-827.2 1925.18,-827.2"/>
<text text-anchor="start" x="1932.18" y="-839.4" font-family="Arial" font-size="14.00">id </text>
<text text-anchor="start" x="1946.97" y="-839.4" font-family="Arial" font-size="14.00" fill="#666666">[varchar(36)]</text>
<polygon fill="none" stroke="black" points="1925.18,-796.4 1925.18,-827.2 2158.64,-827.2 2158.64,-796.4 1925.18,-796.4"/>
<text text-anchor="start" x="1932.18" y="-808.6" font-family="Arial" font-size="14.00">game_id </text>
<text text-anchor="start" x="1989.77" y="-808.6" font-family="Arial" font-size="14.00" fill="#666666">[varchar(36)]</text>
<polygon fill="none" stroke="black" points="1925.18,-765.6 1925.18,-796.4 2158.64,-796.4 2158.64,-765.6 1925.18,-765.6"/>
<text text-anchor="start" x="1932.18" y="-777.8" font-family="Arial" font-size="14.00">video_type_id </text>
<text text-anchor="start" x="2022.47" y="-777.8" font-family="Arial" font-size="14.00" fill="#666666">[tinyint(4)]</text>
<polygon fill="none" stroke="black" points="1925.18,-734.8 1925.18,-765.6 2158.64,-765.6 2158.64,-734.8 1925.18,-734.8"/>
<text text-anchor="start" x="1932.18" y="-747" font-family="Arial" font-size="14.00">created_at </text>
<text text-anchor="start" x="2002.23" y="-747" font-family="Arial" font-size="14.00" fill="#666666">[datetime]</text>
</g>
<!-- game_videos&#45;&gt;games -->
<g id="edge6" class="edge">
<title>game_videos:game_id&#45;&gt;games:id</title>
<path fill="none" stroke="black" d="M2167.82,-805.51C2195.22,-761.11 2196.77,-496.8 2164.71,-496.8"/>
<polygon fill="black" stroke="black" points="2167.83,-805.5 2157.16,-808.03 2163.61,-808.75 2160.17,-811.39 2160.17,-811.39 2160.17,-811.39 2163.61,-808.75 2162.65,-815.16 2167.83,-805.5"/>
<text text-anchor="start" x="2041" y="-795.8" font-family="Arial" font-size="10.00">FOREIGN KEY (game_id) REFERENCES games (id)</text>
</g>
<!-- launcher_version_game_relations -->
<g id="node8" class="node">
<title>launcher_version_game_relations</title>
<polygon fill="#efefef" stroke="none" points="2263.21,-827.2 2263.21,-862.8 2644.61,-862.8 2644.61,-827.2 2263.21,-827.2"/>
<polygon fill="none" stroke="black" points="2263.21,-827.2 2263.21,-862.8 2644.61,-862.8 2644.61,-827.2 2263.21,-827.2"/>
<text text-anchor="start" x="2270.21" y="-840.6" font-family="Arial Bold" font-size="18.00">launcher_version_game_relations</text>
<text text-anchor="start" x="2513.12" y="-840.6" font-family="Arial" font-size="14.00">    </text>
<text text-anchor="start" x="2544.24" y="-840.6" font-family="Arial" font-size="14.00" fill="#666666">[BASE TABLE]</text>
<polygon fill="none" stroke="black" points="2263.21,-796.4 2263.21,-827.2 2644.61,-827.2 2644.61,-796.4 2263.21,-796.4"/>
<text text-anchor="start" x="2270.21" y="-808.6" font-family="Arial" font-size="14.00">launcher_version_table_id </text>
<text text-anchor="start" x="2437.55" y="-808.6" font-family="Arial" font-size="14.00" fill="#666666">[varchar(36)]</text>
<polygon fill="none" stroke="black" points="2263.21,-765.6 2263.21,-796.4 2644.61,-796.4 2644.61,-765.6 2263.21,-765.6"/>
<text text-anchor="start" x="2270.21" y="-777.8" font-family="Arial" font-size="14.00">game_table_id </text>
<text text-anchor="start" x="2365.95" y="-777.8" font-family="Arial" font-size="14.00" fill="#666666">[varchar(36)]</text>
</g>
<!-- launcher_version_game_relations&#45;&gt;games -->
<g id="edge7" class="edge">
<title>launcher_version_game_relations:game_table_id&#45;&gt;games:id</title>
<path fill="none" stroke="black" d="M2252.14,-778.54C2199.08,-750.77 2227.83,-496.8 2164.71,-496.8"/>
<polygon fill="black" stroke="black" points="2252.17,-778.55 2260.82,-785.29 2257.35,-779.81 2261.56,-780.84 2261.56,-780.84 2261.56,-780.84 2257.35,-779.81 2262.95,-776.55 2252.17,-778.55"/>
<text text-anchor="start" x="2060.32" y="-765" font-family="Arial" font-size="10.00">FOREIGN KEY (game_table_id) REFERENCES games (id)</text>
</g>
<!-- v2_game_files -->
<g id="node9" class="node">
<title>v2_game_files</title>
<polygon fill="#efefef" stroke="none" points="2748.68,-888.8 2748.68,-924.4 2993.14,-924.4 2993.14,-888.8 2748.68,-888.8"/>
<polygon fill="none" stroke="black" points="2748.68,-888.8 2748.68,-924.4 2993.14,-924.4 2993.14,-888.8 2748.68,-888.8"/>
<text text-anchor="start" x="2755.68" y="-902.2" font-family="Arial Bold" font-size="18.00">v2_game_files</text>
<text text-anchor="start" x="2861.65" y="-902.2" font-family="Arial" font-size="14.00">    </text>
<text text-anchor="start" x="2892.77" y="-902.2" font-family="Arial" font-size="14.00" fill="#666666">[BASE TABLE]</text>
<polygon fill="none" stroke="black" points="2748.68,-858 2748.68,-888.8 2993.14,-888.8 2993.14,-858 2748.68,-858"/>
<text text-anchor="start" x="2755.68" y="-870.2" font-family="Arial" font-size="14.00">id </text>
<text text-anchor="start" x="2770.47" y="-870.2" font-family="Arial" font-size="14.00" fill="#666666">[varchar(36)]</text>
<polygon fill="none" stroke="black" points="2748.68,-827.2 2748.68,-858 2993.14,-858 2993.14,-827.2 2748.68,-827.2"/>
<text text-anchor="start" x="2755.68" y="-839.4" font-family="Arial" font-size="14.00">game_id </text>
<text text-anchor="start" x="2813.27" y="-839.4" font-family="Arial" font-size="14.00" fill="#666666">[varchar(36)]</text>
<polygon fill="none" stroke="black" points="2748.68,-796.4 2748.68,-827.2 2993.14,-827.2 2993.14,-796.4 2748.68,-796.4"/>
<text text-anchor="start" x="2755.68" y="-808.6" font-family="Arial" font-size="14.00">file_type_id </text>
<text text-anchor="start" x="2830.4" y="-808.6" font-family="Arial" font-size="14.00" fill="#666666">[tinyint(4)]</text>
<polygon fill="none" stroke="black" points="2748.68,-765.6 2748.68,-796.4 2993.14,-796.4 2993.14,-765.6 2748.68,-765.6"/>
<text text-anchor="start" x="2755.68" y="-777.8" font-family="Arial" font-size="14.00">hash </text>
<text text-anchor="start" x="2789.93" y="-777.8" font-family="Arial" font-size="14.00" fill="#666666">[char(32)]</text>
<polygon fill="none" stroke="black" points="2748.68,-734.8 2748.68,-765.6 2993.14,-765.6 2993.14,-734.8 2748.68,-734.8"/>
<text text-anchor="start" x="2755.68" y="-747" font-family="Arial" font-size="14.00">entry_point </text>
<text text-anchor="start" x="2828.84" y="-747" font-family="Arial" font-size="14.00" fill="#666666">[text]</text>
<polygon fill="none" stroke="black" points="2748.68,-704 2748.68,-734.8 2993.14,-734.8 2993.14,-704 2748.68,-704"/>
<text text-anchor="start" x="2755.68" y="-716.2" font-family="Arial" font-size="14.00">created_at </text>
<text text-anchor="start" x="2825.73" y="-716.2" font-family="Arial" font-size="14.00" fill="#666666">[datetime]</text>
</g>
<!-- v2_game_files&#45;&gt;games -->
<g id="edge8" class="edge">
<title>v2_game_files:game_id&#45;&gt;games:id</title>
<path fill="none" stroke="black" d="M2737.72,-842.02C2658.8,-832.05 2762.7,-696.5 2696.91,-630 2611.17,-543.33 2286.62,-496.8 2164.71,-496.8"/>
<polygon fill="black" stroke="black" points="2737.36,-842 2747.09,-847.07 2742.69,-842.31 2747.01,-842.56 2747.01,-842.56 2747.01,-842.56 2742.69,-842.31 2747.61,-838.09 2737.36,-842"/>
<text text-anchor="start" x="2503.4" y="-852.6" font-family="Arial" font-size="10.00">FOREIGN KEY (game_id) REFERENCES games (id)</text>
</g>
<!-- v2_game_images -->
<g id="node10" class="node">
<title>v2_game_images</title>
<polygon fill="#efefef" stroke="none" points="3097.68,-858 3097.68,-893.6 3362.14,-893.6 3362.14,-858 3097.68,-858"/>
<polygon fill="none" stroke="black" points="3097.68,-858 3097.68,-893.6 3362.14,-893.6 3362.14,-858 3097.68,-858"/>
<text text-anchor="start" x="3104.68" y="-871.4" font-family="Arial Bold" font-size="18.00">v2_game_images</text>
<text text-anchor="start" x="3230.65" y="-871.4" font-family="Arial" font-size="14.00">    </text>
<text text-anchor="start" x="3261.77" y="-871.4" font-family="Arial" font-size="14.00" fill="#666666">[BASE TABLE]</text>
<polygon fill="none" stroke="black" points="3097.68,-827.2 3097.68,-858 3362.14,-858 3362.14,-827.2 3097.68,-827.2"/>
<text text-anchor="start" x="3104.68" y="-839.4" font-family="Arial" font-size="14.00">id </text>
<text text-anchor="start" x="3119.47" y="-839.4" font-family="Arial" font-size="14.00" fill="#666666">[varchar(36)]</text>
<polygon fill="none" stroke="black" points="3097.68,-796.4 3097.68,-827.2 3362.14,-827.2 3362.14,-796.4 3097.68,-796.4"/>
<text text-anchor="start" x="3104.68" y="-808.6" font-family="Arial" font-size="14.00">game_id </text>
<text text-anchor="start" x="3162.28" y="-808.6" font-family="Arial" font-size="14.00" fill="#666666">[varchar(36)]</text>
<polygon fill="none" stroke="black" points="3097.68,-765.6 3097.68,-796.4 3362.14,-796.4 3362.14,-765.6 3097.68,-765.6"/>
<text text-anchor="start" x="3104.68" y="-777.8" font-family="Arial" font-size="14.00">image_type_id </text>
<text text-anchor="start" x="3199.64" y="-777.8" font-family="Arial" font-size="14.00" fill="#666666">[tinyint(4)]</text>
<polygon fill="none" stroke="black" points="3097.68,-734.8 3097.68,-765.6 3362.14,-765.6 3362.14,-734.8 3097.68,-734.8"/>
<text text-anchor="start" x="3104.68" y="-747" font-family="Arial" font-size="14.00">created_at </text>
<text text-anchor="start" x="3174.73" y="-747" font-family="Arial" font-size="14.00" fill="#666666">[datetime]</text>
</g>
<!-- v2_game_images&#45;&gt;games -->
<g id="edge9" class="edge">
<title>v2_game_images:game_id&#45;&gt;games:id</title>
<path fill="none" stroke="black" d="M3086.42,-811.05C3020.91,-800.6 3105.14,-683.02 3044.91,-630 2896.42,-499.29 2362.54,-496.8 2164.71,-496.8"/>
<polygon fill="black" stroke="black" points="3086.38,-811.05 3096.02,-816.26 3091.7,-811.44 3096.02,-811.75 3096.02,-811.75 3096.02,-811.75 3091.7,-811.44 3096.68,-807.29 3086.38,-811.05"/>
<text text-anchor="start" x="2852.4" y="-821.8" font-family="Arial" font-size="10.00">FOREIGN KEY (game_id) REFERENCES games (id)</text>
</g>
<!-- v2_game_versions -->
<g id="node11" class="node">
<title>v2_game_versions</title>
<polygon fill="#efefef" stroke="none" points="3466.18,-919.6 3466.18,-955.2 3739.64,-955.2 3739.64,-919.6 3466.18,-919.6"/>
<polygon fill="none" stroke="black" points="3466.18,-919.6 3466.18,-955.2 3739.64,-955.2 3739.64,-919.6 3466.18,-919.6"/>
<text text-anchor="start" x="3473.18" y="-933" font-family="Arial Bold" font-size="18.00">v2_game_versions</text>
<text text-anchor="start" x="3608.15" y="-933" font-family="Arial" font-size="14.00">    </text>
<text text-anchor="start" x="3639.27" y="-933" font-family="Arial" font-size="14.00" fill="#666666">[BASE TABLE]</text>
<polygon fill="none" stroke="black" points="3466.18,-888.8 3466.18,-919.6 3739.64,-919.6 3739.64,-888.8 3466.18,-888.8"/>
<text text-anchor="start" x="3473.18" y="-901" font-family="Arial" font-size="14.00">id </text>
<text text-anchor="start" x="3487.97" y="-901" font-family="Arial" font-size="14.00" fill="#666666">[varchar(36)]</text>
<polygon fill="none" stroke="black" points="3466.18,-858 3466.18,-888.8 3739.64,-888.8 3739.64,-858 3466.18,-858"/>
<text text-anchor="start" x="3473.18" y="-870.2" font-family="Arial" font-size="14.00">game_id </text>
<text text-anchor="start" x="3530.77" y="-870.2" font-family="Arial" font-size="14.00" fill="#666666">[varchar(36)]</text>
<polygon fill="none" stroke="black" points="3466.18,-827.2 3466.18,-858 3739.64,-858 3739.64,-827.2 3466.18,-827.2"/>
<text text-anchor="start" x="3473.18" y="-839.4" font-family="Arial" font-size="14.00">game_image_id </text>
<text text-anchor="start" x="3576.69" y="-839.4" font-family="Arial" font-size="14.00" fill="#666666">[varchar(36)]</text>
<polygon fill="none" stroke="black" points="3466.18,-796.4 3466.18,-827.2 3739.64,-827.2 3739.64,-796.4 3466.18,-796.4"/>
<text text-anchor="start" x="3473.18" y="-808.6" font-family="Arial" font-size="14.00">game_video_id </text>
<text text-anchor="start" x="3572.03" y="-808.6" font-family="Arial" font-size="14.00" fill="#666666">[varchar(36)]</text>
<polygon fill="none" stroke="black" points="3466.18,-765.6 3466.18,-796.4 3739.64,-796.4 3739.64,-765.6 3466.18,-765.6"/>
<text text-anchor="start" x="3473.18" y="-777.8" font-family="Arial" font-size="14.00">name </text>
<text text-anchor="start" x="3512.09" y="-777.8" font-family="Arial" font-size="14.00" fill="#666666">[varchar(32)]</text>
<polygon fill="none" stroke="black" points="3466.18,-734.8 3466.18,-765.6 3739.64,-765.6 3739.64,-734.8 3466.18,-734.8"/>
<text text-anchor="start" x="3473.18" y="-747" font-family="Arial" font-size="14.00">description </text>
<text text-anchor="start" x="3544.77" y="-747" font-family="Arial" font-size="14.00" fill="#666666">[text]</text>
<polygon fill="none" stroke="black" points="3466.18,-704 3466.18,-734.8 3739.64,-734.8 3739.64,-704 3466.18,-704"/>
<text text-anchor="start" x="3473.18" y="-716.2" font-family="Arial" font-size="14.00">created_at </text>
<text text-anchor="start" x="3543.23" y="-716.2" font-family="Arial" font-size="14.00" fill="#666666">[datetime]</text>
<polygon fill="none" stroke="black" points="3466.18,-673.2 3466.18,-704 3739.64,-704 3739.64,-673.2 3466.18,-673.2"/>
<text text-anchor="start" x="3473.18" y="-685.4" font-family="Arial" font-size="14.00">url </text>
<text text-anchor="start" x="3492.63" y="-685.4" font-family="Arial" font-size="14.00" fill="#666666">[text]</text>
</g>
<!-- v2_game_versions&#45;&gt;games -->
<g id="edge10" class="edge">
<title>v2_game_versions:game_id&#45;&gt;games:id</title>
<path fill="none" stroke="black" d="M3454.98,-872.85C3363.77,-862.26 3493.22,-701.65 3413.91,-630 3310.33,-536.42 2304.3,-496.8 2164.71,-496.8"/>
<polygon fill="black" stroke="black" points="3454.86,-872.84 3464.6,-877.88 3460.19,-873.13 3464.51,-873.36 3464.51,-873.36 3464.51,-873.36 3460.19,-873.13 3465.09,-868.89 3454.86,-872.84"/>
<text text-anchor="start" x="3472.18" y="-883.4" font-family="Arial" font-size="10.00">FOREIGN KEY (game_id) REFERENCES games (id)</text>
</g>
<!-- v2_game_videos -->
<g id="node12" class="node">
<title>v2_game_videos</title>
<polygon fill="#efefef" stroke="none" points="3843.68,-858 3843.68,-893.6 4104.14,-893.6 4104.14,-858 3843.68,-858"/>
<polygon fill="none" stroke="black" points="3843.68,-858 3843.68,-893.6 4104.14,-893.6 4104.14,-858 3843.68,-858"/>
<text text-anchor="start" x="3850.68" y="-871.4" font-family="Arial Bold" font-size="18.00">v2_game_videos</text>
<text text-anchor="start" x="3972.65" y="-871.4" font-family="Arial" font-size="14.00">    </text>
<text text-anchor="start" x="4003.77" y="-871.4" font-family="Arial" font-size="14.00" fill="#666666">[BASE TABLE]</text>
<polygon fill="none" stroke="black" points="3843.68,-827.2 3843.68,-858 4104.14,-858 4104.14,-827.2 3843.68,-827.2"/>
<text text-anchor="start" x="3850.68" y="-839.4" font-family="Arial" font-size="14.00">id </text>
<text text-anchor="start" x="3865.47" y="-839.4" font-family="Arial" font-size="14.00" fill="#666666">[varchar(36)]</text>
<polygon fill="none" stroke="black" points="3843.68,-796.4 3843.68,-827.2 4104.14,-827.2 4104.14,-796.4 3843.68,-796.4"/>
<text text-anchor="start" x="3850.68" y="-808.6" font-family="Arial" font-size="14.00">game_id </text>
<text text-anchor="start" x="3908.27" y="-808.6" font-family="Arial" font-size="14.00" fill="#666666">[varchar(36)]</text>
<polygon fill="none" stroke="black" points="3843.68,-765.6 3843.68,-796.4 4104.14,-796.4 4104.14,-765.6 3843.68,-765.6"/>
<text text-anchor="start" x="3850.68" y="-777.8" font-family="Arial" font-size="14.00">video_type_id </text>
<text text-anchor="start" x="3940.97" y="-777.8" font-family="Arial" font-size="14.00" fill="#666666">[tinyint(4)]</text>
<polygon fill="none" stroke="black" points="3843.68,-734.8 3843.68,-765.6 4104.14,-765.6 4104.14,-734.8 3843.68,-734.8"/>
<text text-anchor="start" x="3850.68" y="-747" font-family="Arial" font-size="14.00">created_at </text>
<text text-anchor="start" x="3920.73" y="-747" font-family="Arial" font-size="14.00" fill="#666666">[datetime]</text>
</g>
<!-- v2_game_videos&#45;&gt;games -->
<g id="edge11" class="edge">
<title>v2_game_videos:game_id&#45;&gt;games:id</title>
<path fill="none" stroke="black" d="M3832.44,-811.04C3767.25,-800.42 3853.7,-681.01 3791.91,-630 3652.01,-514.52 2346.12,-496.8 2164.71,-496.8"/>
<polygon fill="black" stroke="black" points="3832.37,-811.04 3842.01,-816.26 3837.69,-811.43 3842.01,-811.75 3842.01,-811.75 3842.01,-811.75 3837.69,-811.43 3842.68,-807.29 3832.37,-811.04"/>
<text text-anchor="start" x="3849.68" y="-821.8" font-family="Arial" font-size="10.00">FOREIGN KEY (game_id) REFERENCES games (id)</text>
</g>
</g>
</svg>
