<?xml version="1.0" encoding="UTF-8" standalone="no"?>
<!DOCTYPE svg PUBLIC "-//W3C//DTD SVG 1.1//EN"
 "http://www.w3.org/Graphics/SVG/1.1/DTD/svg11.dtd">
<!-- Generated by graphviz version 2.40.1 (20161225.0304)
 -->
<!-- Title: games Pages: 1 -->
<svg width="2927pt" height="622pt"
 viewBox="0.00 0.00 2926.50 622.00" xmlns="http://www.w3.org/2000/svg" xmlns:xlink="http://www.w3.org/1999/xlink">
<g id="graph0" class="graph" transform="scale(1 1) rotate(0) translate(4 618)">
<title>games</title>
<polygon fill="#ffffff" stroke="transparent" points="-4,4 -4,-618 2922.5,-618 2922.5,4 -4,4"/>
<!-- games -->
<g id="node1" class="node">
<title>games</title>
<polygon fill="#efefef" stroke="transparent" points="1361,-195.5 1361,-230.5 1526,-230.5 1526,-195.5 1361,-195.5"/>
<polygon fill="none" stroke="#000000" points="1361,-195.5 1361,-230.5 1526,-230.5 1526,-195.5 1361,-195.5"/>
<text text-anchor="start" x="1367.8677" y="-208.3" font-family="Arial Bold" font-size="18.00" fill="#000000">games</text>
<text text-anchor="start" x="1421.8785" y="-208.3" font-family="Arial" font-size="14.00" fill="#000000"> </text>
<text text-anchor="start" x="1425.7691" y="-208.3" font-family="Arial" font-size="14.00" fill="#666666">[BASE TABLE]</text>
<polygon fill="none" stroke="#000000" points="1361,-165.5 1361,-195.5 1526,-195.5 1526,-165.5 1361,-165.5"/>
<text text-anchor="start" x="1368" y="-176.9" font-family="Arial" font-size="14.00" fill="#000000">id </text>
<text text-anchor="start" x="1382.7798" y="-176.9" font-family="Arial" font-size="14.00" fill="#666666">[varchar(36)]</text>
<polygon fill="none" stroke="#000000" points="1361,-135.5 1361,-165.5 1526,-165.5 1526,-135.5 1361,-135.5"/>
<text text-anchor="start" x="1368" y="-146.9" font-family="Arial" font-size="14.00" fill="#000000">name </text>
<text text-anchor="start" x="1406.899" y="-146.9" font-family="Arial" font-size="14.00" fill="#666666">[varchar(256)]</text>
<polygon fill="none" stroke="#000000" points="1361,-105.5 1361,-135.5 1526,-135.5 1526,-105.5 1361,-105.5"/>
<text text-anchor="start" x="1368" y="-116.9" font-family="Arial" font-size="14.00" fill="#000000">description </text>
<text text-anchor="start" x="1439.568" y="-116.9" font-family="Arial" font-size="14.00" fill="#666666">[text]</text>
<polygon fill="none" stroke="#000000" points="1361,-75.5 1361,-105.5 1526,-105.5 1526,-75.5 1361,-75.5"/>
<text text-anchor="start" x="1368" y="-86.9" font-family="Arial" font-size="14.00" fill="#000000">created_at </text>
<text text-anchor="start" x="1438.028" y="-86.9" font-family="Arial" font-size="14.00" fill="#666666">[datetime]</text>
<polygon fill="none" stroke="#000000" points="1361,-45.5 1361,-75.5 1526,-75.5 1526,-45.5 1361,-45.5"/>
<text text-anchor="start" x="1368" y="-56.9" font-family="Arial" font-size="14.00" fill="#000000">deleted_at </text>
<text text-anchor="start" x="1437.2566" y="-56.9" font-family="Arial" font-size="14.00" fill="#666666">[datetime]</text>
<polygon fill="none" stroke="#000000" stroke-width="3" points="1359,-44.5 1359,-232.5 1527,-232.5 1527,-44.5 1359,-44.5"/>
</g>
<!-- game_images -->
<g id="node2" class="node">
<title>game_images</title>
<polygon fill="#efefef" stroke="transparent" points="43,-505.5 43,-540.5 267,-540.5 267,-505.5 43,-505.5"/>
<polygon fill="none" stroke="#000000" points="43,-505.5 43,-540.5 267,-540.5 267,-505.5 43,-505.5"/>
<text text-anchor="start" x="49.8621" y="-518.3" font-family="Arial Bold" font-size="18.00" fill="#000000">game_images</text>
<text text-anchor="start" x="162.8841" y="-518.3" font-family="Arial" font-size="14.00" fill="#000000"> </text>
<text text-anchor="start" x="166.7747" y="-518.3" font-family="Arial" font-size="14.00" fill="#666666">[BASE TABLE]</text>
<polygon fill="none" stroke="#000000" points="43,-475.5 43,-505.5 267,-505.5 267,-475.5 43,-475.5"/>
<text text-anchor="start" x="50" y="-486.9" font-family="Arial" font-size="14.00" fill="#000000">id </text>
<text text-anchor="start" x="64.7798" y="-486.9" font-family="Arial" font-size="14.00" fill="#666666">[varchar(36)]</text>
<polygon fill="none" stroke="#000000" points="43,-445.5 43,-475.5 267,-475.5 267,-445.5 43,-445.5"/>
<text text-anchor="start" x="50" y="-456.9" font-family="Arial" font-size="14.00" fill="#000000">game_id </text>
<text text-anchor="start" x="107.5708" y="-456.9" font-family="Arial" font-size="14.00" fill="#666666">[varchar(36)]</text>
<polygon fill="none" stroke="#000000" points="43,-415.5 43,-445.5 267,-445.5 267,-415.5 43,-415.5"/>
<text text-anchor="start" x="50" y="-426.9" font-family="Arial" font-size="14.00" fill="#000000">image_type_id </text>
<text text-anchor="start" x="144.9158" y="-426.9" font-family="Arial" font-size="14.00" fill="#666666">[tinyint(4)]</text>
<polygon fill="none" stroke="#000000" points="43,-385.5 43,-415.5 267,-415.5 267,-385.5 43,-385.5"/>
<text text-anchor="start" x="50" y="-396.9" font-family="Arial" font-size="14.00" fill="#000000">created_at </text>
<text text-anchor="start" x="120.028" y="-396.9" font-family="Arial" font-size="14.00" fill="#666666">[datetime]</text>
</g>
<!-- game_images&#45;&gt;games -->
<g id="edge1" class="edge">
<title>game_images:game_id&#45;&gt;games:id</title>
<path fill="none" stroke="#000000" d="M277.1816,-459.5952C329.0552,-449.3227 267.8724,-354.2748 319,-313 409.8115,-239.6889 1244.2899,-180.5 1361,-180.5"/>
<polygon fill="#000000" stroke="#000000" points="276.9607,-459.6147 266.6016,-456.0177 271.9804,-460.0574 267,-460.5 267,-460.5 267,-460.5 271.9804,-460.0574 267.3984,-464.9823 276.9607,-459.6147 276.9607,-459.6147"/>
<text text-anchor="start" x="148.886" y="-444.5" font-family="Arial" font-size="10.00" fill="#000000">FOREIGN KEY (game_id) REFERENCES games (id)</text>
</g>
<!-- game_management_roles -->
<g id="node3" class="node">
<title>game_management_roles</title>
<polygon fill="#efefef" stroke="transparent" points="371,-490.5 371,-525.5 691,-525.5 691,-490.5 371,-490.5"/>
<polygon fill="none" stroke="#000000" points="371,-490.5 371,-525.5 691,-525.5 691,-490.5 371,-490.5"/>
<text text-anchor="start" x="377.8471" y="-503.3" font-family="Arial Bold" font-size="18.00" fill="#000000">game_management_roles</text>
<text text-anchor="start" x="586.8991" y="-503.3" font-family="Arial" font-size="14.00" fill="#000000"> </text>
<text text-anchor="start" x="590.7897" y="-503.3" font-family="Arial" font-size="14.00" fill="#666666">[BASE TABLE]</text>
<polygon fill="none" stroke="#000000" points="371,-460.5 371,-490.5 691,-490.5 691,-460.5 371,-460.5"/>
<text text-anchor="start" x="378" y="-471.9" font-family="Arial" font-size="14.00" fill="#000000">game_id </text>
<text text-anchor="start" x="435.5708" y="-471.9" font-family="Arial" font-size="14.00" fill="#666666">[varchar(36)]</text>
<polygon fill="none" stroke="#000000" points="371,-430.5 371,-460.5 691,-460.5 691,-430.5 371,-430.5"/>
<text text-anchor="start" x="378" y="-441.9" font-family="Arial" font-size="14.00" fill="#000000">user_id </text>
<text text-anchor="start" x="427.7882" y="-441.9" font-family="Arial" font-size="14.00" fill="#666666">[varchar(36)]</text>
<polygon fill="none" stroke="#000000" points="371,-400.5 371,-430.5 691,-430.5 691,-400.5 371,-400.5"/>
<text text-anchor="start" x="378" y="-411.9" font-family="Arial" font-size="14.00" fill="#000000">role_type_id </text>
<text text-anchor="start" x="458.1332" y="-411.9" font-family="Arial" font-size="14.00" fill="#666666">[tinyint(4)]</text>
</g>
<!-- game_management_roles&#45;&gt;games -->
<g id="edge2" class="edge">
<title>game_management_roles:game_id&#45;&gt;games:id</title>
<path fill="none" stroke="#000000" d="M701.0271,-474.7219C759.3398,-464.7477 689.5494,-361.429 743,-313 847.0851,-218.6935 1220.5457,-180.5 1361,-180.5"/>
<polygon fill="#000000" stroke="#000000" points="700.97,-474.7263 690.6518,-471.0135 695.985,-475.1131 691,-475.5 691,-475.5 691,-475.5 695.985,-475.1131 691.3482,-479.9865 700.97,-474.7263 700.97,-474.7263"/>
<text text-anchor="start" x="698.386" y="-485.5" font-family="Arial" font-size="10.00" fill="#000000">FOREIGN KEY (game_id) REFERENCES games (id)</text>
</g>
<!-- game_versions -->
<g id="node4" class="node">
<title>game_versions</title>
<polygon fill="#efefef" stroke="transparent" points="796,-520.5 796,-555.5 1029,-555.5 1029,-520.5 796,-520.5"/>
<polygon fill="none" stroke="#000000" points="796,-520.5 796,-555.5 1029,-555.5 1029,-520.5 796,-520.5"/>
<text text-anchor="start" x="802.8621" y="-533.3" font-family="Arial Bold" font-size="18.00" fill="#000000">game_versions</text>
<text text-anchor="start" x="924.8841" y="-533.3" font-family="Arial" font-size="14.00" fill="#000000"> </text>
<text text-anchor="start" x="928.7747" y="-533.3" font-family="Arial" font-size="14.00" fill="#666666">[BASE TABLE]</text>
<polygon fill="none" stroke="#000000" points="796,-490.5 796,-520.5 1029,-520.5 1029,-490.5 796,-490.5"/>
<text text-anchor="start" x="803" y="-501.9" font-family="Arial" font-size="14.00" fill="#000000">id </text>
<text text-anchor="start" x="817.7798" y="-501.9" font-family="Arial" font-size="14.00" fill="#666666">[varchar(36)]</text>
<polygon fill="none" stroke="#000000" points="796,-460.5 796,-490.5 1029,-490.5 1029,-460.5 796,-460.5"/>
<text text-anchor="start" x="803" y="-471.9" font-family="Arial" font-size="14.00" fill="#000000">game_id </text>
<text text-anchor="start" x="860.5708" y="-471.9" font-family="Arial" font-size="14.00" fill="#666666">[varchar(36)]</text>
<polygon fill="none" stroke="#000000" points="796,-430.5 796,-460.5 1029,-460.5 1029,-430.5 796,-430.5"/>
<text text-anchor="start" x="803" y="-441.9" font-family="Arial" font-size="14.00" fill="#000000">name </text>
<text text-anchor="start" x="841.899" y="-441.9" font-family="Arial" font-size="14.00" fill="#666666">[varchar(32)]</text>
<polygon fill="none" stroke="#000000" points="796,-400.5 796,-430.5 1029,-430.5 1029,-400.5 796,-400.5"/>
<text text-anchor="start" x="803" y="-411.9" font-family="Arial" font-size="14.00" fill="#000000">description </text>
<text text-anchor="start" x="874.568" y="-411.9" font-family="Arial" font-size="14.00" fill="#666666">[text]</text>
<polygon fill="none" stroke="#000000" points="796,-370.5 796,-400.5 1029,-400.5 1029,-370.5 796,-370.5"/>
<text text-anchor="start" x="803" y="-381.9" font-family="Arial" font-size="14.00" fill="#000000">created_at </text>
<text text-anchor="start" x="873.028" y="-381.9" font-family="Arial" font-size="14.00" fill="#666666">[datetime]</text>
</g>
<!-- game_versions&#45;&gt;games -->
<g id="edge3" class="edge">
<title>game_versions:game_id&#45;&gt;games:id</title>
<path fill="none" stroke="#000000" d="M1039.0696,-474.7637C1097.919,-465.3172 1033.4808,-367.2611 1081,-313 1171.7034,-209.4277 1223.3253,-180.5 1361,-180.5"/>
<polygon fill="#000000" stroke="#000000" points="1038.9734,-474.7706 1028.6718,-471.012 1033.9867,-475.1353 1029,-475.5 1029,-475.5 1029,-475.5 1033.9867,-475.1353 1029.3282,-479.988 1038.9734,-474.7706 1038.9734,-474.7706"/>
<text text-anchor="start" x="910.886" y="-459.5" font-family="Arial" font-size="10.00" fill="#000000">FOREIGN KEY (game_id) REFERENCES games (id)</text>
</g>
<!-- game_videos -->
<g id="node5" class="node">
<title>game_videos</title>
<polygon fill="#efefef" stroke="transparent" points="1133,-505.5 1133,-540.5 1351,-540.5 1351,-505.5 1133,-505.5"/>
<polygon fill="none" stroke="#000000" points="1133,-505.5 1133,-540.5 1351,-540.5 1351,-505.5 1133,-505.5"/>
<text text-anchor="start" x="1139.8582" y="-518.3" font-family="Arial Bold" font-size="18.00" fill="#000000">game_videos</text>
<text text-anchor="start" x="1246.888" y="-518.3" font-family="Arial" font-size="14.00" fill="#000000"> </text>
<text text-anchor="start" x="1250.7786" y="-518.3" font-family="Arial" font-size="14.00" fill="#666666">[BASE TABLE]</text>
<polygon fill="none" stroke="#000000" points="1133,-475.5 1133,-505.5 1351,-505.5 1351,-475.5 1133,-475.5"/>
<text text-anchor="start" x="1140" y="-486.9" font-family="Arial" font-size="14.00" fill="#000000">id </text>
<text text-anchor="start" x="1154.7798" y="-486.9" font-family="Arial" font-size="14.00" fill="#666666">[varchar(36)]</text>
<polygon fill="none" stroke="#000000" points="1133,-445.5 1133,-475.5 1351,-475.5 1351,-445.5 1133,-445.5"/>
<text text-anchor="start" x="1140" y="-456.9" font-family="Arial" font-size="14.00" fill="#000000">game_id </text>
<text text-anchor="start" x="1197.5708" y="-456.9" font-family="Arial" font-size="14.00" fill="#666666">[varchar(36)]</text>
<polygon fill="none" stroke="#000000" points="1133,-415.5 1133,-445.5 1351,-445.5 1351,-415.5 1133,-415.5"/>
<text text-anchor="start" x="1140" y="-426.9" font-family="Arial" font-size="14.00" fill="#000000">video_type_id </text>
<text text-anchor="start" x="1230.2552" y="-426.9" font-family="Arial" font-size="14.00" fill="#666666">[tinyint(4)]</text>
<polygon fill="none" stroke="#000000" points="1133,-385.5 1133,-415.5 1351,-415.5 1351,-385.5 1133,-385.5"/>
<text text-anchor="start" x="1140" y="-396.9" font-family="Arial" font-size="14.00" fill="#000000">created_at </text>
<text text-anchor="start" x="1210.028" y="-396.9" font-family="Arial" font-size="14.00" fill="#666666">[datetime]</text>
</g>
<!-- game_videos&#45;&gt;games -->
<g id="edge4" class="edge">
<title>game_videos:game_id&#45;&gt;games:id</title>
<path fill="none" stroke="#000000" d="M1361.0266,-459.7931C1461.8291,-444.3341 1240.1244,-180.5 1361,-180.5"/>
<polygon fill="#000000" stroke="#000000" points="1360.9752,-459.7966 1350.6835,-456.0111 1355.9876,-460.1483 1351,-460.5 1351,-460.5 1351,-460.5 1355.9876,-460.1483 1351.3165,-464.9889 1360.9752,-459.7966 1360.9752,-459.7966"/>
<text text-anchor="start" x="1358.386" y="-470.5" font-family="Arial" font-size="10.00" fill="#000000">FOREIGN KEY (game_id) REFERENCES games (id)</text>
</g>
<!-- launcher_version_game_relations -->
<g id="node6" class="node">
<title>launcher_version_game_relations</title>
<polygon fill="#efefef" stroke="transparent" points="1456,-475.5 1456,-510.5 1837,-510.5 1837,-475.5 1456,-475.5"/>
<polygon fill="none" stroke="#000000" points="1456,-475.5 1456,-510.5 1837,-510.5 1837,-475.5 1456,-475.5"/>
<text text-anchor="start" x="1462.8434" y="-488.3" font-family="Arial Bold" font-size="18.00" fill="#000000">launcher_version_game_relations</text>
<text text-anchor="start" x="1732.9028" y="-488.3" font-family="Arial" font-size="14.00" fill="#000000"> </text>
<text text-anchor="start" x="1736.7934" y="-488.3" font-family="Arial" font-size="14.00" fill="#666666">[BASE TABLE]</text>
<polygon fill="none" stroke="#000000" points="1456,-445.5 1456,-475.5 1837,-475.5 1837,-445.5 1456,-445.5"/>
<text text-anchor="start" x="1463" y="-456.9" font-family="Arial" font-size="14.00" fill="#000000">launcher_version_table_id </text>
<text text-anchor="start" x="1630.2678" y="-456.9" font-family="Arial" font-size="14.00" fill="#666666">[varchar(36)]</text>
<polygon fill="none" stroke="#000000" points="1456,-415.5 1456,-445.5 1837,-445.5 1837,-415.5 1456,-415.5"/>
<text text-anchor="start" x="1463" y="-426.9" font-family="Arial" font-size="14.00" fill="#000000">game_table_id </text>
<text text-anchor="start" x="1558.6984" y="-426.9" font-family="Arial" font-size="14.00" fill="#666666">[varchar(36)]</text>
</g>
<!-- launcher_version_game_relations&#45;&gt;games -->
<g id="edge5" class="edge">
<title>launcher_version_game_relations:game_table_id&#45;&gt;games:id</title>
<path fill="none" stroke="#000000" d="M1446.1008,-427.5282C1436.4691,-418.8555 1449.5048,-392.9319 1456,-373 1472.3606,-322.7937 1509.6394,-327.2063 1526,-277 1539.2884,-236.2216 1568.8889,-180.5 1526,-180.5"/>
<polygon fill="#000000" stroke="#000000" points="1446.4223,-427.6247 1454.7061,-434.81 1451.2111,-429.0623 1456,-430.5 1456,-430.5 1456,-430.5 1451.2111,-429.0623 1457.2939,-426.19 1446.4223,-427.6247 1446.4223,-427.6247"/>
<text text-anchor="start" x="1462.769" y="-440.5" font-family="Arial" font-size="10.00" fill="#000000">FOREIGN KEY (game_table_id) REFERENCES games (id)</text>
</g>
<!-- v2_game_files -->
<g id="node7" class="node">
<title>v2_game_files</title>
<polygon fill="#efefef" stroke="transparent" points="1941,-535.5 1941,-570.5 2168,-570.5 2168,-535.5 1941,-535.5"/>
<polygon fill="none" stroke="#000000" points="1941,-535.5 1941,-570.5 2168,-570.5 2168,-535.5 1941,-535.5"/>
<text text-anchor="start" x="1947.86" y="-548.3" font-family="Arial Bold" font-size="18.00" fill="#000000">v2_game_files</text>
<text text-anchor="start" x="2063.8862" y="-548.3" font-family="Arial" font-size="14.00" fill="#000000"> </text>
<text text-anchor="start" x="2067.7768" y="-548.3" font-family="Arial" font-size="14.00" fill="#666666">[BASE TABLE]</text>
<polygon fill="none" stroke="#000000" points="1941,-505.5 1941,-535.5 2168,-535.5 2168,-505.5 1941,-505.5"/>
<text text-anchor="start" x="1948" y="-516.9" font-family="Arial" font-size="14.00" fill="#000000">id </text>
<text text-anchor="start" x="1962.7798" y="-516.9" font-family="Arial" font-size="14.00" fill="#666666">[varchar(36)]</text>
<polygon fill="none" stroke="#000000" points="1941,-475.5 1941,-505.5 2168,-505.5 2168,-475.5 1941,-475.5"/>
<text text-anchor="start" x="1948" y="-486.9" font-family="Arial" font-size="14.00" fill="#000000">game_id </text>
<text text-anchor="start" x="2005.5708" y="-486.9" font-family="Arial" font-size="14.00" fill="#666666">[varchar(36)]</text>
<polygon fill="none" stroke="#000000" points="1941,-445.5 1941,-475.5 2168,-475.5 2168,-445.5 1941,-445.5"/>
<text text-anchor="start" x="1948" y="-456.9" font-family="Arial" font-size="14.00" fill="#000000">file_type_id </text>
<text text-anchor="start" x="2022.6872" y="-456.9" font-family="Arial" font-size="14.00" fill="#666666">[tinyint(4)]</text>
<polygon fill="none" stroke="#000000" points="1941,-415.5 1941,-445.5 2168,-445.5 2168,-415.5 1941,-415.5"/>
<text text-anchor="start" x="1948" y="-426.9" font-family="Arial" font-size="14.00" fill="#000000">hash </text>
<text text-anchor="start" x="1982.2384" y="-426.9" font-family="Arial" font-size="14.00" fill="#666666">[char(32)]</text>
<polygon fill="none" stroke="#000000" points="1941,-385.5 1941,-415.5 2168,-415.5 2168,-385.5 1941,-385.5"/>
<text text-anchor="start" x="1948" y="-396.9" font-family="Arial" font-size="14.00" fill="#000000">entry_point </text>
<text text-anchor="start" x="2021.1346" y="-396.9" font-family="Arial" font-size="14.00" fill="#666666">[text]</text>
<polygon fill="none" stroke="#000000" points="1941,-355.5 1941,-385.5 2168,-385.5 2168,-355.5 1941,-355.5"/>
<text text-anchor="start" x="1948" y="-366.9" font-family="Arial" font-size="14.00" fill="#000000">created_at </text>
<text text-anchor="start" x="2018.028" y="-366.9" font-family="Arial" font-size="14.00" fill="#666666">[datetime]</text>
</g>
<!-- v2_game_files&#45;&gt;games -->
<g id="edge6" class="edge">
<title>v2_game_files:game_id&#45;&gt;games:id</title>
<path fill="none" stroke="#000000" d="M1930.9142,-489.8044C1866.2713,-480.0582 1942.6828,-370.2909 1889,-313 1771.5685,-187.6757 1697.745,-180.5 1526,-180.5"/>
<polygon fill="#000000" stroke="#000000" points="1931.0237,-489.8119 1940.6904,-494.9893 1936.0118,-490.156 1941,-490.5 1941,-490.5 1941,-490.5 1936.0118,-490.156 1941.3096,-486.0107 1931.0237,-489.8119 1931.0237,-489.8119"/>
<text text-anchor="start" x="1697.386" y="-500.5" font-family="Arial" font-size="10.00" fill="#000000">FOREIGN KEY (game_id) REFERENCES games (id)</text>
</g>
<!-- v2_game_images -->
<g id="node8" class="node">
<title>v2_game_images</title>
<polygon fill="#efefef" stroke="transparent" points="2272,-505.5 2272,-540.5 2525,-540.5 2525,-505.5 2272,-505.5"/>
<polygon fill="none" stroke="#000000" points="2272,-505.5 2272,-540.5 2525,-540.5 2525,-505.5 2272,-505.5"/>
<text text-anchor="start" x="2278.8559" y="-518.3" font-family="Arial Bold" font-size="18.00" fill="#000000">v2_game_images</text>
<text text-anchor="start" x="2420.8903" y="-518.3" font-family="Arial" font-size="14.00" fill="#000000"> </text>
<text text-anchor="start" x="2424.7809" y="-518.3" font-family="Arial" font-size="14.00" fill="#666666">[BASE TABLE]</text>
<polygon fill="none" stroke="#000000" points="2272,-475.5 2272,-505.5 2525,-505.5 2525,-475.5 2272,-475.5"/>
<text text-anchor="start" x="2279" y="-486.9" font-family="Arial" font-size="14.00" fill="#000000">id </text>
<text text-anchor="start" x="2293.7798" y="-486.9" font-family="Arial" font-size="14.00" fill="#666666">[varchar(36)]</text>
<polygon fill="none" stroke="#000000" points="2272,-445.5 2272,-475.5 2525,-475.5 2525,-445.5 2272,-445.5"/>
<text text-anchor="start" x="2279" y="-456.9" font-family="Arial" font-size="14.00" fill="#000000">game_id </text>
<text text-anchor="start" x="2336.5708" y="-456.9" font-family="Arial" font-size="14.00" fill="#666666">[varchar(36)]</text>
<polygon fill="none" stroke="#000000" points="2272,-415.5 2272,-445.5 2525,-445.5 2525,-415.5 2272,-415.5"/>
<text text-anchor="start" x="2279" y="-426.9" font-family="Arial" font-size="14.00" fill="#000000">image_type_id </text>
<text text-anchor="start" x="2373.9158" y="-426.9" font-family="Arial" font-size="14.00" fill="#666666">[tinyint(4)]</text>
<polygon fill="none" stroke="#000000" points="2272,-385.5 2272,-415.5 2525,-415.5 2525,-385.5 2272,-385.5"/>
<text text-anchor="start" x="2279" y="-396.9" font-family="Arial" font-size="14.00" fill="#000000">created_at </text>
<text text-anchor="start" x="2349.028" y="-396.9" font-family="Arial" font-size="14.00" fill="#666666">[datetime]</text>
</g>
<!-- v2_game_images&#45;&gt;games -->
<g id="edge7" class="edge">
<title>v2_game_images:game_id&#45;&gt;games:id</title>
<path fill="none" stroke="#000000" d="M2261.8067,-459.6093C2209.8018,-449.4944 2269.8201,-355.8439 2220,-313 2100.9573,-210.6266 1683.0079,-180.5 1526,-180.5"/>
<polygon fill="#000000" stroke="#000000" points="2262.038,-459.6294 2271.6082,-464.9829 2267.019,-460.0647 2272,-460.5 2272,-460.5 2272,-460.5 2267.019,-460.0647 2272.3918,-456.0171 2262.038,-459.6294 2262.038,-459.6294"/>
<text text-anchor="start" x="2279.386" y="-470.5" font-family="Arial" font-size="10.00" fill="#000000">FOREIGN KEY (game_id) REFERENCES games (id)</text>
</g>
<!-- v2_game_videos -->
<g id="node9" class="node">
<title>v2_game_videos</title>
<polygon fill="#efefef" stroke="transparent" points="2629,-505.5 2629,-540.5 2876,-540.5 2876,-505.5 2629,-505.5"/>
<polygon fill="none" stroke="#000000" points="2629,-505.5 2629,-540.5 2876,-540.5 2876,-505.5 2629,-505.5"/>
<text text-anchor="start" x="2635.852" y="-518.3" font-family="Arial Bold" font-size="18.00" fill="#000000">v2_game_videos</text>
<text text-anchor="start" x="2771.8942" y="-518.3" font-family="Arial" font-size="14.00" fill="#000000"> </text>
<text text-anchor="start" x="2775.7848" y="-518.3" font-family="Arial" font-size="14.00" fill="#666666">[BASE TABLE]</text>
<polygon fill="none" stroke="#000000" points="2629,-475.5 2629,-505.5 2876,-505.5 2876,-475.5 2629,-475.5"/>
<text text-anchor="start" x="2636" y="-486.9" font-family="Arial" font-size="14.00" fill="#000000">id </text>
<text text-anchor="start" x="2650.7798" y="-486.9" font-family="Arial" font-size="14.00" fill="#666666">[varchar(36)]</text>
<polygon fill="none" stroke="#000000" points="2629,-445.5 2629,-475.5 2876,-475.5 2876,-445.5 2629,-445.5"/>
<text text-anchor="start" x="2636" y="-456.9" font-family="Arial" font-size="14.00" fill="#000000">game_id </text>
<text text-anchor="start" x="2693.5708" y="-456.9" font-family="Arial" font-size="14.00" fill="#666666">[varchar(36)]</text>
<polygon fill="none" stroke="#000000" points="2629,-415.5 2629,-445.5 2876,-445.5 2876,-415.5 2629,-415.5"/>
<text text-anchor="start" x="2636" y="-426.9" font-family="Arial" font-size="14.00" fill="#000000">video_type_id </text>
<text text-anchor="start" x="2726.2552" y="-426.9" font-family="Arial" font-size="14.00" fill="#666666">[tinyint(4)]</text>
<polygon fill="none" stroke="#000000" points="2629,-385.5 2629,-415.5 2876,-415.5 2876,-385.5 2629,-385.5"/>
<text text-anchor="start" x="2636" y="-396.9" font-family="Arial" font-size="14.00" fill="#000000">created_at </text>
<text text-anchor="start" x="2706.028" y="-396.9" font-family="Arial" font-size="14.00" fill="#666666">[datetime]</text>
</g>
<!-- v2_game_videos&#45;&gt;games -->
<g id="edge8" class="edge">
<title>v2_game_videos:game_id&#45;&gt;games:id</title>
<path fill="none" stroke="#000000" d="M2618.8186,-459.5949C2566.9472,-449.3197 2628.1498,-354.2474 2577,-313 2485.377,-239.1148 1643.7021,-180.5 1526,-180.5"/>
<polygon fill="#000000" stroke="#000000" points="2619.0393,-459.6145 2628.6015,-464.9823 2624.0196,-460.0572 2629,-460.5 2629,-460.5 2629,-460.5 2624.0196,-460.0572 2629.3985,-456.0177 2619.0393,-459.6145 2619.0393,-459.6145"/>
<text text-anchor="start" x="2448.136" y="-444.5" font-family="Arial" font-size="10.00" fill="#000000">FOREIGN KEY (game_id) REFERENCES games (id)</text>
</g>
</g>
</svg>
