<?xml version="1.0" encoding="UTF-8" standalone="no"?>
<!DOCTYPE svg PUBLIC "-//W3C//DTD SVG 1.1//EN"
 "http://www.w3.org/Graphics/SVG/1.1/DTD/svg11.dtd">
<!-- Generated by graphviz version 12.1.2 (20240928.0832)
 -->
<!-- Title: game_feedback_configs Pages: 1 -->
<svg width="620pt" height="571pt"
 viewBox="0.00 0.00 619.89 571.20" xmlns="http://www.w3.org/2000/svg" xmlns:xlink="http://www.w3.org/1999/xlink">
<g id="graph0" class="graph" transform="scale(1 1) rotate(0) translate(4 567.2)">
<title>game_feedback_configs</title>
<polygon fill="white" stroke="none" points="-4,4 -4,-567.2 615.89,-567.2 615.89,4 -4,4"/>
<!-- game_feedback_configs -->
<g id="node1" class="node">
<title>game_feedback_configs</title>
<polygon fill="#efefef" stroke="none" points="46.2,-481.4 46.2,-517 359.61,-517 359.61,-481.4 46.2,-481.4"/>
<polygon fill="none" stroke="black" points="46.2,-481.4 46.2,-517 359.61,-517 359.61,-481.4 46.2,-481.4"/>
<text text-anchor="start" x="53.2" y="-494.8" font-family="Arial Bold" font-size="18.00">game_feedback_configs</text>
<text text-anchor="start" x="228.12" y="-494.8" font-family="Arial" font-size="14.00">    </text>
<text text-anchor="start" x="259.24" y="-494.8" font-family="Arial" font-size="14.00" fill="#666666">[BASE TABLE]</text>
<polygon fill="none" stroke="black" points="46.2,-450.6 46.2,-481.4 359.61,-481.4 359.61,-450.6 46.2,-450.6"/>
<text text-anchor="start" x="53.2" y="-462.8" font-family="Arial" font-size="14.00">game_id </text>
<text text-anchor="start" x="110.79" y="-462.8" font-family="Arial" font-size="14.00" fill="#666666">[varchar(36)]</text>
<polygon fill="none" stroke="black" points="46.2,-419.8 46.2,-450.6 359.61,-450.6 359.61,-419.8 46.2,-419.8"/>
<text text-anchor="start" x="53.2" y="-432" font-family="Arial" font-size="14.00">enabled </text>
<text text-anchor="start" x="106.92" y="-432" font-family="Arial" font-size="14.00" fill="#666666">[tinyint(1)]</text>
<polygon fill="none" stroke="black" stroke-width="3" points="44.7,-418.3 44.7,-518.5 361.11,-518.5 361.11,-418.3 44.7,-418.3"/>
</g>
<!-- games -->
<g id="node2" class="node">
<title>games</title>
<polygon fill="#efefef" stroke="none" points="81.11,-258.8 81.11,-294.4 324.7,-294.4 324.7,-258.8 81.11,-258.8"/>
<polygon fill="none" stroke="black" points="81.11,-258.8 81.11,-294.4 324.7,-294.4 324.7,-258.8 81.11,-258.8"/>
<text text-anchor="start" x="117.67" y="-272.2" font-family="Arial Bold" font-size="18.00">games</text>
<text text-anchor="start" x="163.65" y="-272.2" font-family="Arial" font-size="14.00">    </text>
<text text-anchor="start" x="194.77" y="-272.2" font-family="Arial" font-size="14.00" fill="#666666">[BASE TABLE]</text>
<polygon fill="none" stroke="black" points="81.11,-228 81.11,-258.8 324.7,-258.8 324.7,-228 81.11,-228"/>
<text text-anchor="start" x="88.11" y="-240.2" font-family="Arial" font-size="14.00">id </text>
<text text-anchor="start" x="102.89" y="-240.2" font-family="Arial" font-size="14.00" fill="#666666">[varchar(36)]</text>
<polygon fill="none" stroke="black" points="81.11,-197.2 81.11,-228 324.7,-228 324.7,-197.2 81.11,-197.2"/>
<text text-anchor="start" x="88.11" y="-209.4" font-family="Arial" font-size="14.00">name </text>
<text text-anchor="start" x="127.02" y="-209.4" font-family="Arial" font-size="14.00" fill="#666666">[varchar(256)]</text>
<polygon fill="none" stroke="black" points="81.11,-166.4 81.11,-197.2 324.7,-197.2 324.7,-166.4 81.11,-166.4"/>
<text text-anchor="start" x="88.11" y="-178.6" font-family="Arial" font-size="14.00">description </text>
<text text-anchor="start" x="159.7" y="-178.6" font-family="Arial" font-size="14.00" fill="#666666">[text]</text>
<polygon fill="none" stroke="black" points="81.11,-135.6 81.11,-166.4 324.7,-166.4 324.7,-135.6 81.11,-135.6"/>
<text text-anchor="start" x="88.11" y="-147.8" font-family="Arial" font-size="14.00">created_at </text>
<text text-anchor="start" x="158.15" y="-147.8" font-family="Arial" font-size="14.00" fill="#666666">[datetime]</text>
<polygon fill="none" stroke="black" points="81.11,-104.8 81.11,-135.6 324.7,-135.6 324.7,-104.8 81.11,-104.8"/>
<text text-anchor="start" x="88.11" y="-117" font-family="Arial" font-size="14.00">deleted_at </text>
<text text-anchor="start" x="157.39" y="-117" font-family="Arial" font-size="14.00" fill="#666666">[datetime]</text>
<polygon fill="none" stroke="black" points="81.11,-74 81.11,-104.8 324.7,-104.8 324.7,-74 81.11,-74"/>
<text text-anchor="start" x="88.11" y="-86.2" font-family="Arial" font-size="14.00">visibility_type_id </text>
<text text-anchor="start" x="193.15" y="-86.2" font-family="Arial" font-size="14.00" fill="#666666">[tinyint(4)]</text>
<polygon fill="none" stroke="black" points="81.11,-43.2 81.11,-74 324.7,-74 324.7,-43.2 81.11,-43.2"/>
<text text-anchor="start" x="88.11" y="-55.4" font-family="Arial" font-size="14.00">latest_version_updated_at </text>
<text text-anchor="start" x="256.23" y="-55.4" font-family="Arial" font-size="14.00" fill="#666666">[datetime]</text>
</g>
<!-- game_feedback_configs&#45;&gt;games -->
<g id="edge1" class="edge">
<title>game_feedback_configs:game_id&#45;&gt;games:id</title>
<path fill="none" stroke="black" d="M370.94,-465.15C458.14,-450.2 422.23,-243.4 325.7,-243.4"/>
<polygon fill="black" stroke="black" points="370.91,-465.15 360.57,-461.49 365.59,-465.59 361.28,-465.95 361.28,-465.95 361.28,-465.95 365.59,-465.59 361.31,-470.46 370.91,-465.15"/>
<text text-anchor="start" x="367.61" y="-476" font-family="Arial" font-size="10.00">FOREIGN KEY (game_id) REFERENCES games (id)</text>
</g>
</g>
</svg>
