<?xml version="1.0" encoding="UTF-8" standalone="no"?>
<!DOCTYPE svg PUBLIC "-//W3C//DTD SVG 1.1//EN"
 "http://www.w3.org/Graphics/SVG/1.1/DTD/svg11.dtd">
<!-- Generated by graphviz version 2.40.1 (20161225.0304)
 -->
<!-- Title: game_feedback_configs Pages: 1 -->
<svg width="611pt" height="562pt"
 viewBox="0.00 0.00 611.00 562.00" xmlns="http://www.w3.org/2000/svg" xmlns:xlink="http://www.w3.org/1999/xlink">
<g id="graph0" class="graph" transform="scale(1 1) rotate(0) translate(4 558)">
<title>game_feedback_configs</title>
<polygon fill="#ffffff" stroke="transparent" points="-4,4 -4,-558 607,-558 607,4 -4,4"/>
<!-- game_feedback_configs -->
<g id="node1" class="node">
<title>game_feedback_configs</title>
<polygon fill="#efefef" stroke="transparent" points="251,-472.5 251,-507.5 557,-507.5 557,-472.5 251,-472.5"/>
<polygon fill="none" stroke="#000000" points="251,-472.5 251,-507.5 557,-507.5 557,-472.5 251,-472.5"/>
<text text-anchor="start" x="257.8374" y="-485.3" font-family="Arial Bold" font-size="18.00" fill="#000000">game_feedback_configs</text>
<text text-anchor="start" x="452.9088" y="-485.3" font-family="Arial" font-size="14.00" fill="#000000"> </text>
<text text-anchor="start" x="456.7994" y="-485.3" font-family="Arial" font-size="14.00" fill="#666666">[BASE TABLE]</text>
<polygon fill="none" stroke="#000000" points="251,-442.5 251,-472.5 557,-472.5 557,-442.5 251,-442.5"/>
<text text-anchor="start" x="258" y="-453.9" font-family="Arial" font-size="14.00" fill="#000000">game_id </text>
<text text-anchor="start" x="315.5708" y="-453.9" font-family="Arial" font-size="14.00" fill="#666666">[varchar(36)]</text>
<polygon fill="none" stroke="#000000" points="251,-412.5 251,-442.5 557,-442.5 557,-412.5 251,-412.5"/>
<text text-anchor="start" x="258" y="-423.9" font-family="Arial" font-size="14.00" fill="#000000">enabled </text>
<text text-anchor="start" x="311.6928" y="-423.9" font-family="Arial" font-size="14.00" fill="#666666">[tinyint(1)]</text>
<polygon fill="none" stroke="#000000" stroke-width="3" points="249.5,-411.5 249.5,-509.5 558.5,-509.5 558.5,-411.5 249.5,-411.5"/>
</g>
<!-- games -->
<g id="node2" class="node">
<title>games</title>
<polygon fill="#efefef" stroke="transparent" points="282,-252.5 282,-287.5 525,-287.5 525,-252.5 282,-252.5"/>
<polygon fill="none" stroke="#000000" points="282,-252.5 282,-287.5 525,-287.5 525,-252.5 282,-252.5"/>
<text text-anchor="start" x="327.8677" y="-265.3" font-family="Arial Bold" font-size="18.00" fill="#000000">games</text>
<text text-anchor="start" x="381.8785" y="-265.3" font-family="Arial" font-size="14.00" fill="#000000"> </text>
<text text-anchor="start" x="385.7691" y="-265.3" font-family="Arial" font-size="14.00" fill="#666666">[BASE TABLE]</text>
<polygon fill="none" stroke="#000000" points="282,-222.5 282,-252.5 525,-252.5 525,-222.5 282,-222.5"/>
<text text-anchor="start" x="289" y="-233.9" font-family="Arial" font-size="14.00" fill="#000000">id </text>
<text text-anchor="start" x="303.7798" y="-233.9" font-family="Arial" font-size="14.00" fill="#666666">[varchar(36)]</text>
<polygon fill="none" stroke="#000000" points="282,-192.5 282,-222.5 525,-222.5 525,-192.5 282,-192.5"/>
<text text-anchor="start" x="289" y="-203.9" font-family="Arial" font-size="14.00" fill="#000000">name </text>
<text text-anchor="start" x="327.899" y="-203.9" font-family="Arial" font-size="14.00" fill="#666666">[varchar(256)]</text>
<polygon fill="none" stroke="#000000" points="282,-162.5 282,-192.5 525,-192.5 525,-162.5 282,-162.5"/>
<text text-anchor="start" x="289" y="-173.9" font-family="Arial" font-size="14.00" fill="#000000">description </text>
<text text-anchor="start" x="360.568" y="-173.9" font-family="Arial" font-size="14.00" fill="#666666">[text]</text>
<polygon fill="none" stroke="#000000" points="282,-132.5 282,-162.5 525,-162.5 525,-132.5 282,-132.5"/>
<text text-anchor="start" x="289" y="-143.9" font-family="Arial" font-size="14.00" fill="#000000">created_at </text>
<text text-anchor="start" x="359.028" y="-143.9" font-family="Arial" font-size="14.00" fill="#666666">[datetime]</text>
<polygon fill="none" stroke="#000000" points="282,-102.5 282,-132.5 525,-132.5 525,-102.5 282,-102.5"/>
<text text-anchor="start" x="289" y="-113.9" font-family="Arial" font-size="14.00" fill="#000000">deleted_at </text>
<text text-anchor="start" x="358.2566" y="-113.9" font-family="Arial" font-size="14.00" fill="#666666">[datetime]</text>
<polygon fill="none" stroke="#000000" points="282,-72.5 282,-102.5 525,-102.5 525,-72.5 282,-72.5"/>
<text text-anchor="start" x="289" y="-83.9" font-family="Arial" font-size="14.00" fill="#000000">visibility_type_id </text>
<text text-anchor="start" x="394.007" y="-83.9" font-family="Arial" font-size="14.00" fill="#666666">[tinyint(4)]</text>
<polygon fill="none" stroke="#000000" points="282,-42.5 282,-72.5 525,-72.5 525,-42.5 282,-42.5"/>
<text text-anchor="start" x="288.7371" y="-53.9" font-family="Arial" font-size="14.00" fill="#000000">latest_version_updated_at </text>
<text text-anchor="start" x="456.8029" y="-53.9" font-family="Arial" font-size="14.00" fill="#666666">[datetime]</text>
</g>
<!-- game_feedback_configs&#45;&gt;games -->
<g id="edge1" class="edge">
<title>game_feedback_configs:game_id&#45;&gt;games:id</title>
<path fill="none" stroke="#000000" d="M241.0754,-455.9854C213.4589,-446.4646 226.9624,-394.4025 251,-367 331.9958,-274.6663 444.0042,-423.3337 525,-331 552.4036,-299.7605 566.5556,-237.5 525,-237.5"/>
<polygon fill="#000000" stroke="#000000" points="241.1144,-455.9913 250.3211,-461.9485 246.0572,-456.7457 251,-457.5 251,-457.5 251,-457.5 246.0572,-456.7457 251.6789,-453.0515 241.1144,-455.9913 241.1144,-455.9913"/>
<text text-anchor="start" x="7.386" y="-467.5" font-family="Arial" font-size="10.00" fill="#000000">FOREIGN KEY (game_id) REFERENCES games (id)</text>
</g>
</g>
</svg>
