<?xml version="1.0" encoding="UTF-8" standalone="no"?>
<!DOCTYPE svg PUBLIC "-//W3C//DTD SVG 1.1//EN"
 "http://www.w3.org/Graphics/SVG/1.1/DTD/svg11.dtd">
<!-- Generated by graphviz version 2.40.1 (20161225.0304)
 -->
<!-- Title: game_management_role_types Pages: 1 -->
<svg width="613pt" height="472pt"
 viewBox="0.00 0.00 613.00 472.00" xmlns="http://www.w3.org/2000/svg" xmlns:xlink="http://www.w3.org/1999/xlink">
<g id="graph0" class="graph" transform="scale(1 1) rotate(0) translate(4 468)">
<title>game_management_role_types</title>
<polygon fill="#ffffff" stroke="transparent" points="-4,4 -4,-468 609,-468 609,4 -4,4"/>
<!-- game_management_role_types -->
<g id="node1" class="node">
<title>game_management_role_types</title>
<polygon fill="#efefef" stroke="transparent" points="195,-135.5 195,-170.5 559,-170.5 559,-135.5 195,-135.5"/>
<polygon fill="none" stroke="#000000" points="195,-135.5 195,-170.5 559,-170.5 559,-135.5 195,-135.5"/>
<text text-anchor="start" x="201.8367" y="-148.3" font-family="Arial Bold" font-size="18.00" fill="#000000">game_management_role_types</text>
<text text-anchor="start" x="454.9095" y="-148.3" font-family="Arial" font-size="14.00" fill="#000000"> </text>
<text text-anchor="start" x="458.8001" y="-148.3" font-family="Arial" font-size="14.00" fill="#666666">[BASE TABLE]</text>
<polygon fill="none" stroke="#000000" points="195,-105.5 195,-135.5 559,-135.5 559,-105.5 195,-105.5"/>
<text text-anchor="start" x="202" y="-116.9" font-family="Arial" font-size="14.00" fill="#000000">id </text>
<text text-anchor="start" x="216.7798" y="-116.9" font-family="Arial" font-size="14.00" fill="#666666">[tinyint(4)]</text>
<polygon fill="none" stroke="#000000" points="195,-75.5 195,-105.5 559,-105.5 559,-75.5 195,-75.5"/>
<text text-anchor="start" x="202" y="-86.9" font-family="Arial" font-size="14.00" fill="#000000">name </text>
<text text-anchor="start" x="240.899" y="-86.9" font-family="Arial" font-size="14.00" fill="#666666">[varchar(32)]</text>
<polygon fill="none" stroke="#000000" points="195,-45.5 195,-75.5 559,-75.5 559,-45.5 195,-45.5"/>
<text text-anchor="start" x="202" y="-56.9" font-family="Arial" font-size="14.00" fill="#000000">active </text>
<text text-anchor="start" x="242.453" y="-56.9" font-family="Arial" font-size="14.00" fill="#666666">[tinyint(1)]</text>
<polygon fill="none" stroke="#000000" stroke-width="3" points="193.5,-44.5 193.5,-172.5 560.5,-172.5 560.5,-44.5 193.5,-44.5"/>
</g>
<!-- game_management_roles -->
<g id="node2" class="node">
<title>game_management_roles</title>
<polygon fill="#efefef" stroke="transparent" points="217,-385.5 217,-420.5 537,-420.5 537,-385.5 217,-385.5"/>
<polygon fill="none" stroke="#000000" points="217,-385.5 217,-420.5 537,-420.5 537,-385.5 217,-385.5"/>
<text text-anchor="start" x="223.8471" y="-398.3" font-family="Arial Bold" font-size="18.00" fill="#000000">game_management_roles</text>
<text text-anchor="start" x="432.8991" y="-398.3" font-family="Arial" font-size="14.00" fill="#000000"> </text>
<text text-anchor="start" x="436.7897" y="-398.3" font-family="Arial" font-size="14.00" fill="#666666">[BASE TABLE]</text>
<polygon fill="none" stroke="#000000" points="217,-355.5 217,-385.5 537,-385.5 537,-355.5 217,-355.5"/>
<text text-anchor="start" x="224" y="-366.9" font-family="Arial" font-size="14.00" fill="#000000">game_id </text>
<text text-anchor="start" x="281.5708" y="-366.9" font-family="Arial" font-size="14.00" fill="#666666">[varchar(36)]</text>
<polygon fill="none" stroke="#000000" points="217,-325.5 217,-355.5 537,-355.5 537,-325.5 217,-325.5"/>
<text text-anchor="start" x="224" y="-336.9" font-family="Arial" font-size="14.00" fill="#000000">user_id </text>
<text text-anchor="start" x="273.7882" y="-336.9" font-family="Arial" font-size="14.00" fill="#666666">[varchar(36)]</text>
<polygon fill="none" stroke="#000000" points="217,-295.5 217,-325.5 537,-325.5 537,-295.5 217,-295.5"/>
<text text-anchor="start" x="224" y="-306.9" font-family="Arial" font-size="14.00" fill="#000000">role_type_id </text>
<text text-anchor="start" x="304.1332" y="-306.9" font-family="Arial" font-size="14.00" fill="#666666">[tinyint(4)]</text>
</g>
<!-- game_management_roles&#45;&gt;game_management_role_types -->
<g id="edge1" class="edge">
<title>game_management_roles:role_type_id&#45;&gt;game_management_role_types:id</title>
<path fill="none" stroke="#000000" d="M377.6591,-285.5023C387.8154,-213.9683 512.5768,-287.5805 559,-217 582.5684,-181.1672 601.8889,-120.5 559,-120.5"/>
<polygon fill="#000000" stroke="#000000" points="377.6579,-285.5217 372.5097,-295.2039 377.329,-290.5108 377,-295.5 377,-295.5 377,-295.5 377.329,-290.5108 381.4903,-295.7961 377.6579,-285.5217 377.6579,-285.5217"/>
<text text-anchor="start" x="7.033" y="-305.5" font-family="Arial" font-size="10.00" fill="#000000">FOREIGN KEY (role_type_id) REFERENCES game_management_role_types (id)</text>
</g>
</g>
</svg>
