<?xml version="1.0" encoding="UTF-8" standalone="no"?>
<!DOCTYPE svg PUBLIC "-//W3C//DTD SVG 1.1//EN"
 "http://www.w3.org/Graphics/SVG/1.1/DTD/svg11.dtd">
<!-- Generated by graphviz version 2.40.1 (20161225.0304)
 -->
<!-- Title: game_creator_custom_jobs Pages: 1 -->
<svg width="711pt" height="562pt"
 viewBox="0.00 0.00 710.50 562.00" xmlns="http://www.w3.org/2000/svg" xmlns:xlink="http://www.w3.org/1999/xlink">
<g id="graph0" class="graph" transform="scale(1 1) rotate(0) translate(4 558)">
<title>game_creator_custom_jobs</title>
<polygon fill="#ffffff" stroke="transparent" points="-4,4 -4,-558 706.5,-558 706.5,4 -4,4"/>
<!-- game_creator_custom_jobs -->
<g id="node1" class="node">
<title>game_creator_custom_jobs</title>
<polygon fill="#efefef" stroke="transparent" points="324,-472.5 324,-507.5 657,-507.5 657,-472.5 324,-472.5"/>
<polygon fill="none" stroke="#000000" points="324,-472.5 324,-507.5 657,-507.5 657,-472.5 324,-472.5"/>
<text text-anchor="start" x="330.8491" y="-485.3" font-family="Arial Bold" font-size="18.00" fill="#000000">game_creator_custom_jobs</text>
<text text-anchor="start" x="552.8971" y="-485.3" font-family="Arial" font-size="14.00" fill="#000000"> </text>
<text text-anchor="start" x="556.7877" y="-485.3" font-family="Arial" font-size="14.00" fill="#666666">[BASE TABLE]</text>
<polygon fill="none" stroke="#000000" points="324,-442.5 324,-472.5 657,-472.5 657,-442.5 324,-442.5"/>
<text text-anchor="start" x="331" y="-453.9" font-family="Arial" font-size="14.00" fill="#000000">id </text>
<text text-anchor="start" x="345.7798" y="-453.9" font-family="Arial" font-size="14.00" fill="#666666">[varchar(36)]</text>
<polygon fill="none" stroke="#000000" points="324,-412.5 324,-442.5 657,-442.5 657,-412.5 324,-412.5"/>
<text text-anchor="start" x="331" y="-423.9" font-family="Arial" font-size="14.00" fill="#000000">game_creator_id </text>
<text text-anchor="start" x="439.913" y="-423.9" font-family="Arial" font-size="14.00" fill="#666666">[varchar(36)]</text>
<polygon fill="none" stroke="#000000" points="324,-382.5 324,-412.5 657,-412.5 657,-382.5 324,-382.5"/>
<text text-anchor="start" x="331" y="-393.9" font-family="Arial" font-size="14.00" fill="#000000">custom_name </text>
<text text-anchor="start" x="422.798" y="-393.9" font-family="Arial" font-size="14.00" fill="#666666">[varchar(64)]</text>
<polygon fill="none" stroke="#000000" points="324,-352.5 324,-382.5 657,-382.5 657,-352.5 324,-352.5"/>
<text text-anchor="start" x="331" y="-363.9" font-family="Arial" font-size="14.00" fill="#000000">created_at </text>
<text text-anchor="start" x="401.028" y="-363.9" font-family="Arial" font-size="14.00" fill="#666666">[datetime]</text>
<polygon fill="none" stroke="#000000" stroke-width="3" points="322,-351.5 322,-509.5 658,-509.5 658,-351.5 322,-351.5"/>
</g>
<!-- game_creators -->
<g id="node2" class="node">
<title>game_creators</title>
<polygon fill="#efefef" stroke="transparent" points="375,-192.5 375,-227.5 606,-227.5 606,-192.5 375,-192.5"/>
<polygon fill="none" stroke="#000000" points="375,-192.5 375,-227.5 606,-227.5 606,-192.5 375,-192.5"/>
<text text-anchor="start" x="381.862" y="-205.3" font-family="Arial Bold" font-size="18.00" fill="#000000">game_creators</text>
<text text-anchor="start" x="501.8842" y="-205.3" font-family="Arial" font-size="14.00" fill="#000000"> </text>
<text text-anchor="start" x="505.7748" y="-205.3" font-family="Arial" font-size="14.00" fill="#666666">[BASE TABLE]</text>
<polygon fill="none" stroke="#000000" points="375,-162.5 375,-192.5 606,-192.5 606,-162.5 375,-162.5"/>
<text text-anchor="start" x="382" y="-173.9" font-family="Arial" font-size="14.00" fill="#000000">id </text>
<text text-anchor="start" x="396.7798" y="-173.9" font-family="Arial" font-size="14.00" fill="#666666">[varchar(36)]</text>
<polygon fill="none" stroke="#000000" points="375,-132.5 375,-162.5 606,-162.5 606,-132.5 375,-132.5"/>
<text text-anchor="start" x="382" y="-143.9" font-family="Arial" font-size="14.00" fill="#000000">game_id </text>
<text text-anchor="start" x="439.5708" y="-143.9" font-family="Arial" font-size="14.00" fill="#666666">[varchar(36)]</text>
<polygon fill="none" stroke="#000000" points="375,-102.5 375,-132.5 606,-132.5 606,-102.5 375,-102.5"/>
<text text-anchor="start" x="382" y="-113.9" font-family="Arial" font-size="14.00" fill="#000000">user_id </text>
<text text-anchor="start" x="431.7882" y="-113.9" font-family="Arial" font-size="14.00" fill="#666666">[varchar(36)]</text>
<polygon fill="none" stroke="#000000" points="375,-72.5 375,-102.5 606,-102.5 606,-72.5 375,-72.5"/>
<text text-anchor="start" x="382" y="-83.9" font-family="Arial" font-size="14.00" fill="#000000">user_name </text>
<text text-anchor="start" x="455.9074" y="-83.9" font-family="Arial" font-size="14.00" fill="#666666">[varchar(32)]</text>
<polygon fill="none" stroke="#000000" points="375,-42.5 375,-72.5 606,-72.5 606,-42.5 375,-42.5"/>
<text text-anchor="start" x="382" y="-53.9" font-family="Arial" font-size="14.00" fill="#000000">created_at </text>
<text text-anchor="start" x="452.028" y="-53.9" font-family="Arial" font-size="14.00" fill="#666666">[datetime]</text>
</g>
<!-- game_creator_custom_jobs&#45;&gt;game_creators -->
<g id="edge1" class="edge">
<title>game_creator_custom_jobs:game_creator_id&#45;&gt;game_creators:id</title>
<path fill="none" stroke="#000000" d="M313.8473,-426.7828C213.8489,-412.1191 265.1442,-177.5 375,-177.5"/>
<polygon fill="#000000" stroke="#000000" points="314.0249,-426.7953 323.6829,-431.9888 319.0124,-427.1476 324,-427.5 324,-427.5 324,-427.5 319.0124,-427.1476 324.3171,-423.0112 314.0249,-426.7953 314.0249,-426.7953"/>
<text text-anchor="start" x="6.713" y="-437.5" font-family="Arial" font-size="10.00" fill="#000000">FOREIGN KEY (game_creator_id) REFERENCES game_creators (id)</text>
</g>
</g>
</svg>
