<?xml version="1.0" encoding="UTF-8" standalone="no"?>
<!DOCTYPE svg PUBLIC "-//W3C//DTD SVG 1.1//EN"
 "http://www.w3.org/Graphics/SVG/1.1/DTD/svg11.dtd">
<!-- Generated by graphviz version 12.1.2 (20240928.0832)
 -->
<!-- Title: game_file_types Pages: 1 -->
<svg width="723pt" height="571pt"
 viewBox="0.00 0.00 722.68 571.20" xmlns="http://www.w3.org/2000/svg" xmlns:xlink="http://www.w3.org/1999/xlink">
<g id="graph0" class="graph" transform="scale(1 1) rotate(0) translate(4 567.2)">
<title>game_file_types</title>
<polygon fill="white" stroke="none" points="-4,4 -4,-567.2 718.68,-567.2 718.68,4 -4,4"/>
<!-- game_file_types -->
<g id="node1" class="node">
<title>game_file_types</title>
<polygon fill="#efefef" stroke="none" points="234.87,-138.6 234.87,-174.2 492.31,-174.2 492.31,-138.6 234.87,-138.6"/>
<polygon fill="none" stroke="black" points="234.87,-138.6 234.87,-174.2 492.31,-174.2 492.31,-138.6 234.87,-138.6"/>
<text text-anchor="start" x="241.87" y="-152" font-family="Arial Bold" font-size="18.00">game_file_types</text>
<text text-anchor="start" x="360.83" y="-152" font-family="Arial" font-size="14.00">    </text>
<text text-anchor="start" x="391.94" y="-152" font-family="Arial" font-size="14.00" fill="#666666">[BASE TABLE]</text>
<polygon fill="none" stroke="black" points="234.87,-107.8 234.87,-138.6 492.31,-138.6 492.31,-107.8 234.87,-107.8"/>
<text text-anchor="start" x="241.87" y="-120" font-family="Arial" font-size="14.00">id </text>
<text text-anchor="start" x="256.65" y="-120" font-family="Arial" font-size="14.00" fill="#666666">[tinyint(4)]</text>
<polygon fill="none" stroke="black" points="234.87,-77 234.87,-107.8 492.31,-107.8 492.31,-77 234.87,-77"/>
<text text-anchor="start" x="241.87" y="-89.2" font-family="Arial" font-size="14.00">name </text>
<text text-anchor="start" x="280.78" y="-89.2" font-family="Arial" font-size="14.00" fill="#666666">[varchar(32)]</text>
<polygon fill="none" stroke="black" points="234.87,-46.2 234.87,-77 492.31,-77 492.31,-46.2 234.87,-46.2"/>
<text text-anchor="start" x="241.87" y="-58.4" font-family="Arial" font-size="14.00">active </text>
<text text-anchor="start" x="282.33" y="-58.4" font-family="Arial" font-size="14.00" fill="#666666">[tinyint(1)]</text>
<polygon fill="none" stroke="black" stroke-width="3" points="233.37,-44.7 233.37,-175.7 493.81,-175.7 493.81,-44.7 233.37,-44.7"/>
</g>
<!-- game_files -->
<g id="node2" class="node">
<title>game_files</title>
<polygon fill="#efefef" stroke="none" points="87.86,-484.4 87.86,-520 305.32,-520 305.32,-484.4 87.86,-484.4"/>
<polygon fill="none" stroke="black" points="87.86,-484.4 87.86,-520 305.32,-520 305.32,-484.4 87.86,-484.4"/>
<text text-anchor="start" x="94.86" y="-497.8" font-family="Arial Bold" font-size="18.00">game_files</text>
<text text-anchor="start" x="173.83" y="-497.8" font-family="Arial" font-size="14.00">    </text>
<text text-anchor="start" x="204.95" y="-497.8" font-family="Arial" font-size="14.00" fill="#666666">[BASE TABLE]</text>
<polygon fill="none" stroke="black" points="87.86,-453.6 87.86,-484.4 305.32,-484.4 305.32,-453.6 87.86,-453.6"/>
<text text-anchor="start" x="94.86" y="-465.8" font-family="Arial" font-size="14.00">id </text>
<text text-anchor="start" x="109.65" y="-465.8" font-family="Arial" font-size="14.00" fill="#666666">[varchar(36)]</text>
<polygon fill="none" stroke="black" points="87.86,-422.8 87.86,-453.6 305.32,-453.6 305.32,-422.8 87.86,-422.8"/>
<text text-anchor="start" x="94.86" y="-435" font-family="Arial" font-size="14.00">game_version_id </text>
<text text-anchor="start" x="205.37" y="-435" font-family="Arial" font-size="14.00" fill="#666666">[varchar(36)]</text>
<polygon fill="none" stroke="black" points="87.86,-392 87.86,-422.8 305.32,-422.8 305.32,-392 87.86,-392"/>
<text text-anchor="start" x="94.86" y="-404.2" font-family="Arial" font-size="14.00">file_type_id </text>
<text text-anchor="start" x="169.58" y="-404.2" font-family="Arial" font-size="14.00" fill="#666666">[tinyint(4)]</text>
<polygon fill="none" stroke="black" points="87.86,-361.2 87.86,-392 305.32,-392 305.32,-361.2 87.86,-361.2"/>
<text text-anchor="start" x="94.86" y="-373.4" font-family="Arial" font-size="14.00">hash </text>
<text text-anchor="start" x="129.11" y="-373.4" font-family="Arial" font-size="14.00" fill="#666666">[char(32)]</text>
<polygon fill="none" stroke="black" points="87.86,-330.4 87.86,-361.2 305.32,-361.2 305.32,-330.4 87.86,-330.4"/>
<text text-anchor="start" x="94.86" y="-342.6" font-family="Arial" font-size="14.00">entry_point </text>
<text text-anchor="start" x="168.02" y="-342.6" font-family="Arial" font-size="14.00" fill="#666666">[text]</text>
<polygon fill="none" stroke="black" points="87.86,-299.6 87.86,-330.4 305.32,-330.4 305.32,-299.6 87.86,-299.6"/>
<text text-anchor="start" x="94.86" y="-311.8" font-family="Arial" font-size="14.00">created_at </text>
<text text-anchor="start" x="164.91" y="-311.8" font-family="Arial" font-size="14.00" fill="#666666">[datetime]</text>
</g>
<!-- game_files&#45;&gt;game_file_types -->
<g id="edge1" class="edge">
<title>game_files:file_type_id&#45;&gt;game_file_types:id</title>
<path fill="none" stroke="black" d="M316.45,-406.58C369.83,-397.24 338.62,-310.4 305.32,-256.4 286.86,-226.47 253.38,-250.3 234.87,-220.4 212.12,-183.67 190.66,-123.2 233.87,-123.2"/>
<polygon fill="black" stroke="black" points="316.62,-406.57 306.29,-402.89 311.3,-407 306.99,-407.35 306.99,-407.35 306.99,-407.35 311.3,-407 307.02,-411.86 316.62,-406.57"/>
<text text-anchor="start" x="7" y="-417.4" font-family="Arial" font-size="10.00">FOREIGN KEY (file_type_id) REFERENCES game_file_types (id)</text>
</g>
<!-- v2_game_files -->
<g id="node3" class="node">
<title>v2_game_files</title>
<polygon fill="#efefef" stroke="none" points="409.36,-484.4 409.36,-520 653.82,-520 653.82,-484.4 409.36,-484.4"/>
<polygon fill="none" stroke="black" points="409.36,-484.4 409.36,-520 653.82,-520 653.82,-484.4 409.36,-484.4"/>
<text text-anchor="start" x="416.36" y="-497.8" font-family="Arial Bold" font-size="18.00">v2_game_files</text>
<text text-anchor="start" x="522.33" y="-497.8" font-family="Arial" font-size="14.00">    </text>
<text text-anchor="start" x="553.45" y="-497.8" font-family="Arial" font-size="14.00" fill="#666666">[BASE TABLE]</text>
<polygon fill="none" stroke="black" points="409.36,-453.6 409.36,-484.4 653.82,-484.4 653.82,-453.6 409.36,-453.6"/>
<text text-anchor="start" x="416.36" y="-465.8" font-family="Arial" font-size="14.00">id </text>
<text text-anchor="start" x="431.15" y="-465.8" font-family="Arial" font-size="14.00" fill="#666666">[varchar(36)]</text>
<polygon fill="none" stroke="black" points="409.36,-422.8 409.36,-453.6 653.82,-453.6 653.82,-422.8 409.36,-422.8"/>
<text text-anchor="start" x="416.36" y="-435" font-family="Arial" font-size="14.00">game_id </text>
<text text-anchor="start" x="473.95" y="-435" font-family="Arial" font-size="14.00" fill="#666666">[varchar(36)]</text>
<polygon fill="none" stroke="black" points="409.36,-392 409.36,-422.8 653.82,-422.8 653.82,-392 409.36,-392"/>
<text text-anchor="start" x="416.36" y="-404.2" font-family="Arial" font-size="14.00">file_type_id </text>
<text text-anchor="start" x="491.08" y="-404.2" font-family="Arial" font-size="14.00" fill="#666666">[tinyint(4)]</text>
<polygon fill="none" stroke="black" points="409.36,-361.2 409.36,-392 653.82,-392 653.82,-361.2 409.36,-361.2"/>
<text text-anchor="start" x="416.36" y="-373.4" font-family="Arial" font-size="14.00">hash </text>
<text text-anchor="start" x="450.61" y="-373.4" font-family="Arial" font-size="14.00" fill="#666666">[char(32)]</text>
<polygon fill="none" stroke="black" points="409.36,-330.4 409.36,-361.2 653.82,-361.2 653.82,-330.4 409.36,-330.4"/>
<text text-anchor="start" x="416.36" y="-342.6" font-family="Arial" font-size="14.00">entry_point </text>
<text text-anchor="start" x="489.52" y="-342.6" font-family="Arial" font-size="14.00" fill="#666666">[text]</text>
<polygon fill="none" stroke="black" points="409.36,-299.6 409.36,-330.4 653.82,-330.4 653.82,-299.6 409.36,-299.6"/>
<text text-anchor="start" x="416.36" y="-311.8" font-family="Arial" font-size="14.00">created_at </text>
<text text-anchor="start" x="486.41" y="-311.8" font-family="Arial" font-size="14.00" fill="#666666">[datetime]</text>
</g>
<!-- v2_game_files&#45;&gt;game_file_types -->
<g id="edge2" class="edge">
<title>v2_game_files:file_type_id&#45;&gt;game_file_types:id</title>
<path fill="none" stroke="black" d="M398.22,-406.57C344.67,-397.12 374.38,-309.33 409.36,-256.4 431.52,-222.87 470.09,-253.89 492.31,-220.4 516.2,-184.4 536.52,-123.2 493.31,-123.2"/>
<polygon fill="black" stroke="black" points="398.06,-406.56 407.66,-411.86 403.38,-406.99 407.69,-407.35 407.69,-407.35 407.69,-407.35 403.38,-406.99 408.39,-402.89 398.06,-406.56"/>
<text text-anchor="start" x="415.36" y="-417.4" font-family="Arial" font-size="10.00">FOREIGN KEY (file_type_id) REFERENCES game_file_types (id)</text>
</g>
</g>
</svg>
