<?xml version="1.0" encoding="UTF-8" standalone="no"?>
<!DOCTYPE svg PUBLIC "-//W3C//DTD SVG 1.1//EN"
 "http://www.w3.org/Graphics/SVG/1.1/DTD/svg11.dtd">
<!-- Generated by graphviz version 2.40.1 (20161225.0304)
 -->
<!-- Title: game_genre_relations Pages: 1 -->
<svg width="832pt" height="532pt"
 viewBox="0.00 0.00 831.78 532.00" xmlns="http://www.w3.org/2000/svg" xmlns:xlink="http://www.w3.org/1999/xlink">
<g id="graph0" class="graph" transform="scale(1 1) rotate(0) translate(4 528)">
<title>game_genre_relations</title>
<polygon fill="#ffffff" stroke="transparent" points="-4,4 -4,-528 827.7818,-528 827.7818,4 -4,4"/>
<!-- game_genre_relations -->
<g id="node1" class="node">
<title>game_genre_relations</title>
<polygon fill="#efefef" stroke="transparent" points="282.3634,-442.5 282.3634,-477.5 572.3634,-477.5 572.3634,-442.5 282.3634,-442.5"/>
<polygon fill="none" stroke="#000000" points="282.3634,-442.5 282.3634,-477.5 572.3634,-477.5 572.3634,-442.5 282.3634,-442.5"/>
<text text-anchor="start" x="289.2126" y="-455.3" font-family="Arial Bold" font-size="18.00" fill="#000000">game_genre_relations</text>
<text text-anchor="start" x="468.2604" y="-455.3" font-family="Arial" font-size="14.00" fill="#000000"> </text>
<text text-anchor="start" x="472.151" y="-455.3" font-family="Arial" font-size="14.00" fill="#666666">[BASE TABLE]</text>
<polygon fill="none" stroke="#000000" points="282.3634,-412.5 282.3634,-442.5 572.3634,-442.5 572.3634,-412.5 282.3634,-412.5"/>
<text text-anchor="start" x="289.3634" y="-423.9" font-family="Arial" font-size="14.00" fill="#000000">genre_id </text>
<text text-anchor="start" x="347.7168" y="-423.9" font-family="Arial" font-size="14.00" fill="#666666">[varchar(36)]</text>
<polygon fill="none" stroke="#000000" points="282.3634,-382.5 282.3634,-412.5 572.3634,-412.5 572.3634,-382.5 282.3634,-382.5"/>
<text text-anchor="start" x="289.3634" y="-393.9" font-family="Arial" font-size="14.00" fill="#000000">game_id </text>
<text text-anchor="start" x="346.9342" y="-393.9" font-family="Arial" font-size="14.00" fill="#666666">[varchar(36)]</text>
<polygon fill="none" stroke="#000000" stroke-width="3" points="280.8634,-381.5 280.8634,-479.5 573.8634,-479.5 573.8634,-381.5 280.8634,-381.5"/>
</g>
<!-- game_genres -->
<g id="node2" class="node">
<title>game_genres</title>
<polygon fill="#efefef" stroke="transparent" points="164.3634,-177.5 164.3634,-212.5 385.3634,-212.5 385.3634,-177.5 164.3634,-177.5"/>
<polygon fill="none" stroke="#000000" points="164.3634,-177.5 164.3634,-212.5 385.3634,-212.5 385.3634,-177.5 164.3634,-177.5"/>
<text text-anchor="start" x="171.2195" y="-190.3" font-family="Arial Bold" font-size="18.00" fill="#000000">game_genres</text>
<text text-anchor="start" x="281.2535" y="-190.3" font-family="Arial" font-size="14.00" fill="#000000"> </text>
<text text-anchor="start" x="285.1441" y="-190.3" font-family="Arial" font-size="14.00" fill="#666666">[BASE TABLE]</text>
<polygon fill="none" stroke="#000000" points="164.3634,-147.5 164.3634,-177.5 385.3634,-177.5 385.3634,-147.5 164.3634,-147.5"/>
<text text-anchor="start" x="171.3634" y="-158.9" font-family="Arial" font-size="14.00" fill="#000000">id </text>
<text text-anchor="start" x="186.1432" y="-158.9" font-family="Arial" font-size="14.00" fill="#666666">[varchar(36)]</text>
<polygon fill="none" stroke="#000000" points="164.3634,-117.5 164.3634,-147.5 385.3634,-147.5 385.3634,-117.5 164.3634,-117.5"/>
<text text-anchor="start" x="171.3634" y="-128.9" font-family="Arial" font-size="14.00" fill="#000000">name </text>
<text text-anchor="start" x="210.2624" y="-128.9" font-family="Arial" font-size="14.00" fill="#666666">[varchar(32)]</text>
<polygon fill="none" stroke="#000000" points="164.3634,-87.5 164.3634,-117.5 385.3634,-117.5 385.3634,-87.5 164.3634,-87.5"/>
<text text-anchor="start" x="171.3634" y="-98.9" font-family="Arial" font-size="14.00" fill="#000000">created_at </text>
<text text-anchor="start" x="241.3914" y="-98.9" font-family="Arial" font-size="14.00" fill="#666666">[datetime]</text>
</g>
<!-- game_genre_relations&#45;&gt;game_genres -->
<g id="edge1" class="edge">
<title>game_genre_relations:genre_id&#45;&gt;game_genres:id</title>
<path fill="none" stroke="#000000" d="M272.1062,-426.5399C236.6489,-419.1231 257.1616,-370.3529 273.3634,-337 298.81,-284.6161 350.9169,-308.3839 376.3634,-256 394.5209,-218.6213 417.919,-162.5 385.3634,-162.5"/>
<polygon fill="#000000" stroke="#000000" points="272.4069,-426.568 281.944,-431.9804 277.3852,-427.034 282.3634,-427.5 282.3634,-427.5 282.3634,-427.5 277.3852,-427.034 282.7828,-423.0196 272.4069,-426.568 272.4069,-426.568"/>
<text text-anchor="start" x="6.9079" y="-437.5" font-family="Arial" font-size="10.00" fill="#000000">FOREIGN KEY (genre_id) REFERENCES game_genres (id)</text>
</g>
<!-- game_genre_relations&#45;&gt;game_genres -->
<g id="edge2" class="edge">
<title>game_genre_relations:genre_id&#45;&gt;game_genres:id</title>
<path fill="none" stroke="#000000" d="M272.0515,-424.338C257.5577,-412.2337 276.319,-367.9702 291.3634,-337 316.81,-284.6161 368.9169,-308.3839 394.3634,-256 412.4854,-218.6943 435.8276,-162.7192 385.6588,-162.5006"/>
<polygon fill="#000000" stroke="#000000" points="272.4691,-424.4705 280.6379,-431.7864 277.2346,-425.984 282,-427.4975 282,-427.4975 282,-427.4975 277.2346,-425.984 283.3621,-423.2086 272.4691,-424.4705 272.4691,-424.4705"/>
<text text-anchor="start" x="6.5445" y="-411.4975" font-family="Arial" font-size="10.00" fill="#000000">FOREIGN KEY (genre_id) REFERENCES game_genres (id)</text>
</g>
<!-- games -->
<g id="node3" class="node">
<title>games</title>
<polygon fill="#efefef" stroke="transparent" points="489.3634,-222.5 489.3634,-257.5 669.3634,-257.5 669.3634,-222.5 489.3634,-222.5"/>
<polygon fill="none" stroke="#000000" points="489.3634,-222.5 489.3634,-257.5 669.3634,-257.5 669.3634,-222.5 489.3634,-222.5"/>
<text text-anchor="start" x="503.7311" y="-235.3" font-family="Arial Bold" font-size="18.00" fill="#000000">games</text>
<text text-anchor="start" x="557.7419" y="-235.3" font-family="Arial" font-size="14.00" fill="#000000"> </text>
<text text-anchor="start" x="561.6325" y="-235.3" font-family="Arial" font-size="14.00" fill="#666666">[BASE TABLE]</text>
<polygon fill="none" stroke="#000000" points="489.3634,-192.5 489.3634,-222.5 669.3634,-222.5 669.3634,-192.5 489.3634,-192.5"/>
<text text-anchor="start" x="496.3634" y="-203.9" font-family="Arial" font-size="14.00" fill="#000000">id </text>
<text text-anchor="start" x="511.1432" y="-203.9" font-family="Arial" font-size="14.00" fill="#666666">[varchar(36)]</text>
<polygon fill="none" stroke="#000000" points="489.3634,-162.5 489.3634,-192.5 669.3634,-192.5 669.3634,-162.5 489.3634,-162.5"/>
<text text-anchor="start" x="496.3634" y="-173.9" font-family="Arial" font-size="14.00" fill="#000000">name </text>
<text text-anchor="start" x="535.2624" y="-173.9" font-family="Arial" font-size="14.00" fill="#666666">[varchar(256)]</text>
<polygon fill="none" stroke="#000000" points="489.3634,-132.5 489.3634,-162.5 669.3634,-162.5 669.3634,-132.5 489.3634,-132.5"/>
<text text-anchor="start" x="496.3634" y="-143.9" font-family="Arial" font-size="14.00" fill="#000000">description </text>
<text text-anchor="start" x="567.9314" y="-143.9" font-family="Arial" font-size="14.00" fill="#666666">[text]</text>
<polygon fill="none" stroke="#000000" points="489.3634,-102.5 489.3634,-132.5 669.3634,-132.5 669.3634,-102.5 489.3634,-102.5"/>
<text text-anchor="start" x="496.3634" y="-113.9" font-family="Arial" font-size="14.00" fill="#000000">created_at </text>
<text text-anchor="start" x="566.3914" y="-113.9" font-family="Arial" font-size="14.00" fill="#666666">[datetime]</text>
<polygon fill="none" stroke="#000000" points="489.3634,-72.5 489.3634,-102.5 669.3634,-102.5 669.3634,-72.5 489.3634,-72.5"/>
<text text-anchor="start" x="496.3634" y="-83.9" font-family="Arial" font-size="14.00" fill="#000000">deleted_at </text>
<text text-anchor="start" x="565.62" y="-83.9" font-family="Arial" font-size="14.00" fill="#666666">[datetime]</text>
<polygon fill="none" stroke="#000000" points="489.3634,-42.5 489.3634,-72.5 669.3634,-72.5 669.3634,-42.5 489.3634,-42.5"/>
<text text-anchor="start" x="496.1376" y="-53.9" font-family="Arial" font-size="14.00" fill="#000000">visibility_type_id </text>
<text text-anchor="start" x="601.1446" y="-53.9" font-family="Arial" font-size="14.00" fill="#666666">[tinyint(4)]</text>
</g>
<!-- game_genre_relations&#45;&gt;games -->
<g id="edge3" class="edge">
<title>game_genre_relations:game_id&#45;&gt;games:id</title>
<path fill="none" stroke="#000000" d="M580.4669,-391.5707C584.2206,-379.9956 574.5436,-354.0357 563.3634,-337 541.3017,-303.3835 502.4252,-334.6165 480.3634,-301 457.563,-266.258 438.8079,-207.5 489.3634,-207.5"/>
<polygon fill="#000000" stroke="#000000" points="580.4338,-391.5949 569.7061,-393.8683 576.3986,-394.5474 572.3634,-397.5 572.3634,-397.5 572.3634,-397.5 576.3986,-394.5474 575.0207,-401.1317 580.4338,-391.5949 580.4338,-391.5949"/>
<text text-anchor="start" x="579.7494" y="-407.5" font-family="Arial" font-size="10.00" fill="#000000">FOREIGN KEY (game_id) REFERENCES games (id)</text>
</g>
<!-- game_genre_relations&#45;&gt;games -->
<g id="edge4" class="edge">
<title>game_genre_relations:game_id&#45;&gt;games:id</title>
<path fill="none" stroke="#000000" d="M582.7444,-396.1243C605.4799,-389.1165 594.4517,-356.9431 581.3634,-337 559.3017,-303.3835 520.4252,-334.6165 498.3634,-301 475.6521,-266.3937 456.9545,-207.9587 488.9843,-207.5027"/>
<polygon fill="#000000" stroke="#000000" points="582.688,-396.132 572.167,-393.0405 577.7349,-396.8151 572.7818,-397.4983 572.7818,-397.4983 572.7818,-397.4983 577.7349,-396.8151 573.3966,-401.9561 582.688,-396.132 582.688,-396.132"/>
<text text-anchor="start" x="580.1678" y="-381.4983" font-family="Arial" font-size="10.00" fill="#000000">FOREIGN KEY (game_id) REFERENCES games (id)</text>
</g>
</g>
</svg>
