<?xml version="1.0" encoding="UTF-8" standalone="no"?>
<!DOCTYPE svg PUBLIC "-//W3C//DTD SVG 1.1//EN"
 "http://www.w3.org/Graphics/SVG/1.1/DTD/svg11.dtd">
<!-- Generated by graphviz version 12.1.2 (20240928.0832)
 -->
<!-- Title: game_visibility_types Pages: 1 -->
<svg width="675pt" height="602pt"
 viewBox="0.00 0.00 675.39 602.00" xmlns="http://www.w3.org/2000/svg" xmlns:xlink="http://www.w3.org/1999/xlink">
<g id="graph0" class="graph" transform="scale(1 1) rotate(0) translate(4 598)">
<title>game_visibility_types</title>
<polygon fill="white" stroke="none" points="-4,4 -4,-598 671.39,-598 671.39,4 -4,4"/>
<!-- game_visibility_types -->
<g id="node1" class="node">
<title>game_visibility_types</title>
<polygon fill="#efefef" stroke="none" points="46.2,-138.6 46.2,-174.2 343.67,-174.2 343.67,-138.6 46.2,-138.6"/>
<polygon fill="none" stroke="black" points="46.2,-138.6 46.2,-174.2 343.67,-174.2 343.67,-138.6 46.2,-138.6"/>
<text text-anchor="start" x="53.2" y="-152" font-family="Arial Bold" font-size="18.00">game_visibility_types</text>
<text text-anchor="start" x="212.19" y="-152" font-family="Arial" font-size="14.00">    </text>
<text text-anchor="start" x="243.3" y="-152" font-family="Arial" font-size="14.00" fill="#666666">[BASE TABLE]</text>
<polygon fill="none" stroke="black" points="46.2,-107.8 46.2,-138.6 343.67,-138.6 343.67,-107.8 46.2,-107.8"/>
<text text-anchor="start" x="53.2" y="-120" font-family="Arial" font-size="14.00">id </text>
<text text-anchor="start" x="67.99" y="-120" font-family="Arial" font-size="14.00" fill="#666666">[tinyint(4)]</text>
<polygon fill="none" stroke="black" points="46.2,-77 46.2,-107.8 343.67,-107.8 343.67,-77 46.2,-77"/>
<text text-anchor="start" x="53.2" y="-89.2" font-family="Arial" font-size="14.00">name </text>
<text text-anchor="start" x="92.11" y="-89.2" font-family="Arial" font-size="14.00" fill="#666666">[varchar(32)]</text>
<polygon fill="none" stroke="black" points="46.2,-46.2 46.2,-77 343.67,-77 343.67,-46.2 46.2,-46.2"/>
<text text-anchor="start" x="53.2" y="-58.4" font-family="Arial" font-size="14.00">created_at </text>
<text text-anchor="start" x="123.25" y="-58.4" font-family="Arial" font-size="14.00" fill="#666666">[datetime]</text>
<polygon fill="none" stroke="black" stroke-width="3" points="44.7,-44.7 44.7,-175.7 345.17,-175.7 345.17,-44.7 44.7,-44.7"/>
</g>
<!-- games -->
<g id="node2" class="node">
<title>games</title>
<polygon fill="#efefef" stroke="none" points="73.14,-515.2 73.14,-550.8 316.74,-550.8 316.74,-515.2 73.14,-515.2"/>
<polygon fill="none" stroke="black" points="73.14,-515.2 73.14,-550.8 316.74,-550.8 316.74,-515.2 73.14,-515.2"/>
<text text-anchor="start" x="109.7" y="-528.6" font-family="Arial Bold" font-size="18.00">games</text>
<text text-anchor="start" x="155.68" y="-528.6" font-family="Arial" font-size="14.00">    </text>
<text text-anchor="start" x="186.8" y="-528.6" font-family="Arial" font-size="14.00" fill="#666666">[BASE TABLE]</text>
<polygon fill="none" stroke="black" points="73.14,-484.4 73.14,-515.2 316.74,-515.2 316.74,-484.4 73.14,-484.4"/>
<text text-anchor="start" x="80.14" y="-496.6" font-family="Arial" font-size="14.00">id </text>
<text text-anchor="start" x="94.92" y="-496.6" font-family="Arial" font-size="14.00" fill="#666666">[varchar(36)]</text>
<polygon fill="none" stroke="black" points="73.14,-453.6 73.14,-484.4 316.74,-484.4 316.74,-453.6 73.14,-453.6"/>
<text text-anchor="start" x="80.14" y="-465.8" font-family="Arial" font-size="14.00">name </text>
<text text-anchor="start" x="119.05" y="-465.8" font-family="Arial" font-size="14.00" fill="#666666">[varchar(256)]</text>
<polygon fill="none" stroke="black" points="73.14,-422.8 73.14,-453.6 316.74,-453.6 316.74,-422.8 73.14,-422.8"/>
<text text-anchor="start" x="80.14" y="-435" font-family="Arial" font-size="14.00">description </text>
<text text-anchor="start" x="151.73" y="-435" font-family="Arial" font-size="14.00" fill="#666666">[text]</text>
<polygon fill="none" stroke="black" points="73.14,-392 73.14,-422.8 316.74,-422.8 316.74,-392 73.14,-392"/>
<text text-anchor="start" x="80.14" y="-404.2" font-family="Arial" font-size="14.00">created_at </text>
<text text-anchor="start" x="150.19" y="-404.2" font-family="Arial" font-size="14.00" fill="#666666">[datetime]</text>
<polygon fill="none" stroke="black" points="73.14,-361.2 73.14,-392 316.74,-392 316.74,-361.2 73.14,-361.2"/>
<text text-anchor="start" x="80.14" y="-373.4" font-family="Arial" font-size="14.00">deleted_at </text>
<text text-anchor="start" x="149.42" y="-373.4" font-family="Arial" font-size="14.00" fill="#666666">[datetime]</text>
<polygon fill="none" stroke="black" points="73.14,-330.4 73.14,-361.2 316.74,-361.2 316.74,-330.4 73.14,-330.4"/>
<text text-anchor="start" x="80.14" y="-342.6" font-family="Arial" font-size="14.00">visibility_type_id </text>
<text text-anchor="start" x="185.19" y="-342.6" font-family="Arial" font-size="14.00" fill="#666666">[tinyint(4)]</text>
<polygon fill="none" stroke="black" points="73.14,-299.6 73.14,-330.4 316.74,-330.4 316.74,-299.6 73.14,-299.6"/>
<text text-anchor="start" x="80.14" y="-311.8" font-family="Arial" font-size="14.00">latest_version_updated_at </text>
<text text-anchor="start" x="248.26" y="-311.8" font-family="Arial" font-size="14.00" fill="#666666">[datetime]</text>
</g>
<!-- games&#45;&gt;game_visibility_types -->
<g id="edge1" class="edge">
<title>games:visibility_type_id&#45;&gt;game_visibility_types:id</title>
<path fill="none" stroke="black" d="M327.62,-342.82C370.89,-316.41 391.1,-123.2 344.67,-123.2"/>
<polygon fill="black" stroke="black" points="327.63,-342.82 316.76,-341.39 322.52,-344.36 318.38,-345.61 318.38,-345.61 318.38,-345.61 322.52,-344.36 319.36,-350.01 327.63,-342.82"/>
<text text-anchor="start" x="324.74" y="-355.8" font-family="Arial" font-size="10.00">FOREIGN KEY (visibility_type_id) REFERENCES game_visibility_types (id)</text>
</g>
</g>
</svg>
