<?xml version="1.0" encoding="UTF-8" standalone="no"?>
<!DOCTYPE svg PUBLIC "-//W3C//DTD SVG 1.1//EN"
 "http://www.w3.org/Graphics/SVG/1.1/DTD/svg11.dtd">
<!-- Generated by graphviz version 2.40.1 (20161225.0304)
 -->
<!-- Title: game_versions Pages: 1 -->
<svg width="764pt" height="929pt"
 viewBox="0.00 0.00 764.00 929.00" xmlns="http://www.w3.org/2000/svg" xmlns:xlink="http://www.w3.org/1999/xlink">
<g id="graph0" class="graph" transform="scale(1 1) rotate(0) translate(4 925)">
<title>game_versions</title>
<polygon fill="#ffffff" stroke="transparent" points="-4,4 -4,-925 760,-925 760,4 -4,4"/>
<!-- game_versions -->
<g id="node1" class="node">
<title>game_versions</title>
<polygon fill="#efefef" stroke="transparent" points="261,-502.5 261,-537.5 494,-537.5 494,-502.5 261,-502.5"/>
<polygon fill="none" stroke="#000000" points="261,-502.5 261,-537.5 494,-537.5 494,-502.5 261,-502.5"/>
<text text-anchor="start" x="267.8621" y="-515.3" font-family="Arial Bold" font-size="18.00" fill="#000000">game_versions</text>
<text text-anchor="start" x="389.8841" y="-515.3" font-family="Arial" font-size="14.00" fill="#000000"> </text>
<text text-anchor="start" x="393.7747" y="-515.3" font-family="Arial" font-size="14.00" fill="#666666">[BASE TABLE]</text>
<polygon fill="none" stroke="#000000" points="261,-472.5 261,-502.5 494,-502.5 494,-472.5 261,-472.5"/>
<text text-anchor="start" x="268" y="-483.9" font-family="Arial" font-size="14.00" fill="#000000">id </text>
<text text-anchor="start" x="282.7798" y="-483.9" font-family="Arial" font-size="14.00" fill="#666666">[varchar(36)]</text>
<polygon fill="none" stroke="#000000" points="261,-442.5 261,-472.5 494,-472.5 494,-442.5 261,-442.5"/>
<text text-anchor="start" x="268" y="-453.9" font-family="Arial" font-size="14.00" fill="#000000">game_id </text>
<text text-anchor="start" x="325.5708" y="-453.9" font-family="Arial" font-size="14.00" fill="#666666">[varchar(36)]</text>
<polygon fill="none" stroke="#000000" points="261,-412.5 261,-442.5 494,-442.5 494,-412.5 261,-412.5"/>
<text text-anchor="start" x="268" y="-423.9" font-family="Arial" font-size="14.00" fill="#000000">name </text>
<text text-anchor="start" x="306.899" y="-423.9" font-family="Arial" font-size="14.00" fill="#666666">[varchar(32)]</text>
<polygon fill="none" stroke="#000000" points="261,-382.5 261,-412.5 494,-412.5 494,-382.5 261,-382.5"/>
<text text-anchor="start" x="268" y="-393.9" font-family="Arial" font-size="14.00" fill="#000000">description </text>
<text text-anchor="start" x="339.568" y="-393.9" font-family="Arial" font-size="14.00" fill="#666666">[text]</text>
<polygon fill="none" stroke="#000000" points="261,-352.5 261,-382.5 494,-382.5 494,-352.5 261,-352.5"/>
<text text-anchor="start" x="268" y="-363.9" font-family="Arial" font-size="14.00" fill="#000000">created_at </text>
<text text-anchor="start" x="338.028" y="-363.9" font-family="Arial" font-size="14.00" fill="#666666">[datetime]</text>
<polygon fill="none" stroke="#000000" stroke-width="3" points="259,-351.5 259,-539.5 495,-539.5 495,-351.5 259,-351.5"/>
</g>
<!-- games -->
<g id="node4" class="node">
<title>games</title>
<polygon fill="#efefef" stroke="transparent" points="295,-192.5 295,-227.5 460,-227.5 460,-192.5 295,-192.5"/>
<polygon fill="none" stroke="#000000" points="295,-192.5 295,-227.5 460,-227.5 460,-192.5 295,-192.5"/>
<text text-anchor="start" x="301.8677" y="-205.3" font-family="Arial Bold" font-size="18.00" fill="#000000">games</text>
<text text-anchor="start" x="355.8785" y="-205.3" font-family="Arial" font-size="14.00" fill="#000000"> </text>
<text text-anchor="start" x="359.7691" y="-205.3" font-family="Arial" font-size="14.00" fill="#666666">[BASE TABLE]</text>
<polygon fill="none" stroke="#000000" points="295,-162.5 295,-192.5 460,-192.5 460,-162.5 295,-162.5"/>
<text text-anchor="start" x="302" y="-173.9" font-family="Arial" font-size="14.00" fill="#000000">id </text>
<text text-anchor="start" x="316.7798" y="-173.9" font-family="Arial" font-size="14.00" fill="#666666">[varchar(36)]</text>
<polygon fill="none" stroke="#000000" points="295,-132.5 295,-162.5 460,-162.5 460,-132.5 295,-132.5"/>
<text text-anchor="start" x="302" y="-143.9" font-family="Arial" font-size="14.00" fill="#000000">name </text>
<text text-anchor="start" x="340.899" y="-143.9" font-family="Arial" font-size="14.00" fill="#666666">[varchar(256)]</text>
<polygon fill="none" stroke="#000000" points="295,-102.5 295,-132.5 460,-132.5 460,-102.5 295,-102.5"/>
<text text-anchor="start" x="302" y="-113.9" font-family="Arial" font-size="14.00" fill="#000000">description </text>
<text text-anchor="start" x="373.568" y="-113.9" font-family="Arial" font-size="14.00" fill="#666666">[text]</text>
<polygon fill="none" stroke="#000000" points="295,-72.5 295,-102.5 460,-102.5 460,-72.5 295,-72.5"/>
<text text-anchor="start" x="302" y="-83.9" font-family="Arial" font-size="14.00" fill="#000000">created_at </text>
<text text-anchor="start" x="372.028" y="-83.9" font-family="Arial" font-size="14.00" fill="#666666">[datetime]</text>
<polygon fill="none" stroke="#000000" points="295,-42.5 295,-72.5 460,-72.5 460,-42.5 295,-42.5"/>
<text text-anchor="start" x="302" y="-53.9" font-family="Arial" font-size="14.00" fill="#000000">deleted_at </text>
<text text-anchor="start" x="371.2566" y="-53.9" font-family="Arial" font-size="14.00" fill="#666666">[datetime]</text>
</g>
<!-- game_versions&#45;&gt;games -->
<g id="edge3" class="edge">
<title>game_versions:game_id&#45;&gt;games:id</title>
<path fill="none" stroke="#000000" d="M250.7313,-456.839C137.6405,-441.8652 173.1916,-177.5 295,-177.5"/>
<polygon fill="#000000" stroke="#000000" points="251.0207,-456.8575 260.7109,-461.9907 256.0103,-457.1788 261,-457.5 261,-457.5 261,-457.5 256.0103,-457.1788 261.2891,-453.0093 251.0207,-456.8575 251.0207,-456.8575"/>
<text text-anchor="start" x="17.386" y="-467.5" font-family="Arial" font-size="10.00" fill="#000000">FOREIGN KEY (game_id) REFERENCES games (id)</text>
</g>
<!-- game_files -->
<g id="node2" class="node">
<title>game_files</title>
<polygon fill="#efefef" stroke="transparent" points="123,-842.5 123,-877.5 326,-877.5 326,-842.5 123,-842.5"/>
<polygon fill="none" stroke="#000000" points="123,-842.5 123,-877.5 326,-877.5 326,-842.5 123,-842.5"/>
<text text-anchor="start" x="132.3662" y="-855.3" font-family="Arial Bold" font-size="18.00" fill="#000000">game_files</text>
<text text-anchor="start" x="219.38" y="-855.3" font-family="Arial" font-size="14.00" fill="#000000"> </text>
<text text-anchor="start" x="223.2706" y="-855.3" font-family="Arial" font-size="14.00" fill="#666666">[BASE TABLE]</text>
<polygon fill="none" stroke="#000000" points="123,-812.5 123,-842.5 326,-842.5 326,-812.5 123,-812.5"/>
<text text-anchor="start" x="130" y="-823.9" font-family="Arial" font-size="14.00" fill="#000000">id </text>
<text text-anchor="start" x="144.7798" y="-823.9" font-family="Arial" font-size="14.00" fill="#666666">[varchar(36)]</text>
<polygon fill="none" stroke="#000000" points="123,-782.5 123,-812.5 326,-812.5 326,-782.5 123,-782.5"/>
<text text-anchor="start" x="129.5975" y="-793.9" font-family="Arial" font-size="14.00" fill="#000000">game_version_id </text>
<text text-anchor="start" x="240.0659" y="-793.9" font-family="Arial" font-size="14.00" fill="#666666">[varchar(36)]</text>
<polygon fill="none" stroke="#000000" points="123,-752.5 123,-782.5 326,-782.5 326,-752.5 123,-752.5"/>
<text text-anchor="start" x="130" y="-763.9" font-family="Arial" font-size="14.00" fill="#000000">file_type_id </text>
<text text-anchor="start" x="204.6872" y="-763.9" font-family="Arial" font-size="14.00" fill="#666666">[tinyint(4)]</text>
<polygon fill="none" stroke="#000000" points="123,-722.5 123,-752.5 326,-752.5 326,-722.5 123,-722.5"/>
<text text-anchor="start" x="130" y="-733.9" font-family="Arial" font-size="14.00" fill="#000000">hash </text>
<text text-anchor="start" x="164.2384" y="-733.9" font-family="Arial" font-size="14.00" fill="#666666">[char(32)]</text>
<polygon fill="none" stroke="#000000" points="123,-692.5 123,-722.5 326,-722.5 326,-692.5 123,-692.5"/>
<text text-anchor="start" x="130" y="-703.9" font-family="Arial" font-size="14.00" fill="#000000">entry_point </text>
<text text-anchor="start" x="203.1346" y="-703.9" font-family="Arial" font-size="14.00" fill="#666666">[text]</text>
<polygon fill="none" stroke="#000000" points="123,-662.5 123,-692.5 326,-692.5 326,-662.5 123,-662.5"/>
<text text-anchor="start" x="130" y="-673.9" font-family="Arial" font-size="14.00" fill="#000000">created_at </text>
<text text-anchor="start" x="200.028" y="-673.9" font-family="Arial" font-size="14.00" fill="#666666">[datetime]</text>
</g>
<!-- game_files&#45;&gt;game_versions -->
<g id="edge1" class="edge">
<title>game_files:game_version_id&#45;&gt;game_versions:id</title>
<path fill="none" stroke="#000000" d="M336.3297,-796.7935C401.2452,-787.3225 364.1738,-684.78 326,-620 309.2341,-591.5487 277.7659,-612.4513 261,-584 239.2257,-547.0495 218.1111,-487.5 261,-487.5"/>
<polygon fill="#000000" stroke="#000000" points="335.9767,-796.8176 325.6929,-793.0105 330.9883,-797.1588 326,-797.5 326,-797.5 326,-797.5 330.9883,-797.1588 326.3071,-801.9895 335.9767,-796.8176 335.9767,-796.8176"/>
<text text-anchor="start" x="6.602" y="-807.5" font-family="Arial" font-size="10.00" fill="#000000">FOREIGN KEY (game_version_id) REFERENCES game_versions (id)</text>
</g>
<!-- game_urls -->
<g id="node3" class="node">
<title>game_urls</title>
<polygon fill="#efefef" stroke="transparent" points="430,-812.5 430,-847.5 633,-847.5 633,-812.5 430,-812.5"/>
<polygon fill="none" stroke="#000000" points="430,-812.5 430,-847.5 633,-847.5 633,-812.5 430,-812.5"/>
<text text-anchor="start" x="440.8683" y="-825.3" font-family="Arial Bold" font-size="18.00" fill="#000000">game_urls</text>
<text text-anchor="start" x="524.8779" y="-825.3" font-family="Arial" font-size="14.00" fill="#000000"> </text>
<text text-anchor="start" x="528.7685" y="-825.3" font-family="Arial" font-size="14.00" fill="#666666">[BASE TABLE]</text>
<polygon fill="none" stroke="#000000" points="430,-782.5 430,-812.5 633,-812.5 633,-782.5 430,-782.5"/>
<text text-anchor="start" x="437" y="-793.9" font-family="Arial" font-size="14.00" fill="#000000">id </text>
<text text-anchor="start" x="451.7798" y="-793.9" font-family="Arial" font-size="14.00" fill="#666666">[varchar(36)]</text>
<polygon fill="none" stroke="#000000" points="430,-752.5 430,-782.5 633,-782.5 633,-752.5 430,-752.5"/>
<text text-anchor="start" x="436.5975" y="-763.9" font-family="Arial" font-size="14.00" fill="#000000">game_version_id </text>
<text text-anchor="start" x="547.0659" y="-763.9" font-family="Arial" font-size="14.00" fill="#666666">[varchar(36)]</text>
<polygon fill="none" stroke="#000000" points="430,-722.5 430,-752.5 633,-752.5 633,-722.5 430,-722.5"/>
<text text-anchor="start" x="437" y="-733.9" font-family="Arial" font-size="14.00" fill="#000000">url </text>
<text text-anchor="start" x="456.4404" y="-733.9" font-family="Arial" font-size="14.00" fill="#666666">[text]</text>
<polygon fill="none" stroke="#000000" points="430,-692.5 430,-722.5 633,-722.5 633,-692.5 430,-692.5"/>
<text text-anchor="start" x="437" y="-703.9" font-family="Arial" font-size="14.00" fill="#000000">created_at </text>
<text text-anchor="start" x="507.028" y="-703.9" font-family="Arial" font-size="14.00" fill="#666666">[datetime]</text>
</g>
<!-- game_urls&#45;&gt;game_versions -->
<g id="edge2" class="edge">
<title>game_urls:game_version_id&#45;&gt;game_versions:id</title>
<path fill="none" stroke="#000000" d="M419.7343,-766.3948C382.5466,-757.3569 411.8428,-694.8072 430,-650 445.3456,-612.1312 478.6544,-621.8688 494,-584 510.1076,-544.2508 536.8889,-487.5 494,-487.5"/>
<polygon fill="#000000" stroke="#000000" points="420.0575,-766.4295 429.5183,-771.9741 425.0287,-766.9648 430,-767.5 430,-767.5 430,-767.5 425.0287,-766.9648 430.4817,-763.0259 420.0575,-766.4295 420.0575,-766.4295"/>
<text text-anchor="start" x="436.602" y="-777.5" font-family="Arial" font-size="10.00" fill="#000000">FOREIGN KEY (game_version_id) REFERENCES game_versions (id)</text>
</g>
</g>
</svg>
