<?xml version="1.0" encoding="UTF-8" standalone="no"?>
<!DOCTYPE svg PUBLIC "-//W3C//DTD SVG 1.1//EN"
 "http://www.w3.org/Graphics/SVG/1.1/DTD/svg11.dtd">
<!-- Generated by graphviz version 2.40.1 (20161225.0304)
 -->
<!-- Title: game_genres Pages: 1 -->
<svg width="623pt" height="442pt"
 viewBox="0.00 0.00 623.00 442.00" xmlns="http://www.w3.org/2000/svg" xmlns:xlink="http://www.w3.org/1999/xlink">
<g id="graph0" class="graph" transform="scale(1 1) rotate(0) translate(4 438)">
<title>game_genres</title>
<polygon fill="#ffffff" stroke="transparent" points="-4,4 -4,-438 619,-438 619,4 -4,4"/>
<!-- game_genres -->
<g id="node1" class="node">
<title>game_genres</title>
<polygon fill="#efefef" stroke="transparent" points="316,-135.5 316,-170.5 537,-170.5 537,-135.5 316,-135.5"/>
<polygon fill="none" stroke="#000000" points="316,-135.5 316,-170.5 537,-170.5 537,-135.5 316,-135.5"/>
<text text-anchor="start" x="322.8561" y="-148.3" font-family="Arial Bold" font-size="18.00" fill="#000000">game_genres</text>
<text text-anchor="start" x="432.8901" y="-148.3" font-family="Arial" font-size="14.00" fill="#000000"> </text>
<text text-anchor="start" x="436.7807" y="-148.3" font-family="Arial" font-size="14.00" fill="#666666">[BASE TABLE]</text>
<polygon fill="none" stroke="#000000" points="316,-105.5 316,-135.5 537,-135.5 537,-105.5 316,-105.5"/>
<text text-anchor="start" x="323" y="-116.9" font-family="Arial" font-size="14.00" fill="#000000">id </text>
<text text-anchor="start" x="337.7798" y="-116.9" font-family="Arial" font-size="14.00" fill="#666666">[varchar(36)]</text>
<polygon fill="none" stroke="#000000" points="316,-75.5 316,-105.5 537,-105.5 537,-75.5 316,-75.5"/>
<text text-anchor="start" x="323" y="-86.9" font-family="Arial" font-size="14.00" fill="#000000">name </text>
<text text-anchor="start" x="361.899" y="-86.9" font-family="Arial" font-size="14.00" fill="#666666">[varchar(32)]</text>
<polygon fill="none" stroke="#000000" points="316,-45.5 316,-75.5 537,-75.5 537,-45.5 316,-45.5"/>
<text text-anchor="start" x="323" y="-56.9" font-family="Arial" font-size="14.00" fill="#000000">created_at </text>
<text text-anchor="start" x="393.028" y="-56.9" font-family="Arial" font-size="14.00" fill="#666666">[datetime]</text>
<polygon fill="none" stroke="#000000" stroke-width="3" points="314,-44.5 314,-172.5 538,-172.5 538,-44.5 314,-44.5"/>
</g>
<!-- game_genre_relations -->
<g id="node2" class="node">
<title>game_genre_relations</title>
<polygon fill="#efefef" stroke="transparent" points="282,-355.5 282,-390.5 572,-390.5 572,-355.5 282,-355.5"/>
<polygon fill="none" stroke="#000000" points="282,-355.5 282,-390.5 572,-390.5 572,-355.5 282,-355.5"/>
<text text-anchor="start" x="288.8492" y="-368.3" font-family="Arial Bold" font-size="18.00" fill="#000000">game_genre_relations</text>
<text text-anchor="start" x="467.897" y="-368.3" font-family="Arial" font-size="14.00" fill="#000000"> </text>
<text text-anchor="start" x="471.7876" y="-368.3" font-family="Arial" font-size="14.00" fill="#666666">[BASE TABLE]</text>
<polygon fill="none" stroke="#000000" points="282,-325.5 282,-355.5 572,-355.5 572,-325.5 282,-325.5"/>
<text text-anchor="start" x="289" y="-336.9" font-family="Arial" font-size="14.00" fill="#000000">genre_id </text>
<text text-anchor="start" x="347.3534" y="-336.9" font-family="Arial" font-size="14.00" fill="#666666">[varchar(36)]</text>
<polygon fill="none" stroke="#000000" points="282,-295.5 282,-325.5 572,-325.5 572,-295.5 282,-295.5"/>
<text text-anchor="start" x="289" y="-306.9" font-family="Arial" font-size="14.00" fill="#000000">game_id </text>
<text text-anchor="start" x="346.5708" y="-306.9" font-family="Arial" font-size="14.00" fill="#666666">[varchar(36)]</text>
</g>
<!-- game_genre_relations&#45;&gt;game_genres -->
<g id="edge1" class="edge">
<title>game_genre_relations:genre_id&#45;&gt;game_genres:id</title>
<path fill="none" stroke="#000000" d="M272.0649,-338.9175C245.8409,-329.4186 258.9864,-279.4908 282,-253 357.0637,-166.5947 461.9363,-303.4053 537,-217 565.1276,-184.6226 579.8889,-120.5 537,-120.5"/>
<polygon fill="#000000" stroke="#000000" points="272.1245,-338.9269 281.2921,-344.944 277.0622,-339.7134 282,-340.5 282,-340.5 282,-340.5 277.0622,-339.7134 282.7079,-336.056 272.1245,-338.9269 272.1245,-338.9269"/>
<text text-anchor="start" x="6.5445" y="-350.5" font-family="Arial" font-size="10.00" fill="#000000">FOREIGN KEY (genre_id) REFERENCES game_genres (id)</text>
</g>
</g>
</svg>
