<?xml version="1.0" encoding="UTF-8" standalone="no"?>
<!DOCTYPE svg PUBLIC "-//W3C//DTD SVG 1.1//EN"
 "http://www.w3.org/Graphics/SVG/1.1/DTD/svg11.dtd">
<!-- Generated by graphviz version 12.1.2 (20240928.0832)
 -->
<!-- Title: game_urls Pages: 1 -->
<svg width="609pt" height="571pt"
 viewBox="0.00 0.00 609.04 571.20" xmlns="http://www.w3.org/2000/svg" xmlns:xlink="http://www.w3.org/1999/xlink">
<g id="graph0" class="graph" transform="scale(1 1) rotate(0) translate(4 567.2)">
<title>game_urls</title>
<polygon fill="white" stroke="none" points="-4,4 -4,-567.2 605.04,-567.2 605.04,4 -4,4"/>
<!-- game_urls -->
<g id="node1" class="node">
<title>game_urls</title>
<polygon fill="#efefef" stroke="none" points="59.7,-481.4 59.7,-517 273.17,-517 273.17,-481.4 59.7,-481.4"/>
<polygon fill="none" stroke="black" points="59.7,-481.4 59.7,-517 273.17,-517 273.17,-481.4 59.7,-481.4"/>
<text text-anchor="start" x="66.7" y="-494.8" font-family="Arial Bold" font-size="18.00">game_urls</text>
<text text-anchor="start" x="141.68" y="-494.8" font-family="Arial" font-size="14.00">    </text>
<text text-anchor="start" x="172.79" y="-494.8" font-family="Arial" font-size="14.00" fill="#666666">[BASE TABLE]</text>
<polygon fill="none" stroke="black" points="59.7,-450.6 59.7,-481.4 273.17,-481.4 273.17,-450.6 59.7,-450.6"/>
<text text-anchor="start" x="66.7" y="-462.8" font-family="Arial" font-size="14.00">id </text>
<text text-anchor="start" x="81.48" y="-462.8" font-family="Arial" font-size="14.00" fill="#666666">[varchar(36)]</text>
<polygon fill="none" stroke="black" points="59.7,-419.8 59.7,-450.6 273.17,-450.6 273.17,-419.8 59.7,-419.8"/>
<text text-anchor="start" x="66.7" y="-432" font-family="Arial" font-size="14.00">game_version_id </text>
<text text-anchor="start" x="177.21" y="-432" font-family="Arial" font-size="14.00" fill="#666666">[varchar(36)]</text>
<polygon fill="none" stroke="black" points="59.7,-389 59.7,-419.8 273.17,-419.8 273.17,-389 59.7,-389"/>
<text text-anchor="start" x="66.7" y="-401.2" font-family="Arial" font-size="14.00">url </text>
<text text-anchor="start" x="86.15" y="-401.2" font-family="Arial" font-size="14.00" fill="#666666">[text]</text>
<polygon fill="none" stroke="black" points="59.7,-358.2 59.7,-389 273.17,-389 273.17,-358.2 59.7,-358.2"/>
<text text-anchor="start" x="66.7" y="-370.4" font-family="Arial" font-size="14.00">created_at </text>
<text text-anchor="start" x="136.74" y="-370.4" font-family="Arial" font-size="14.00" fill="#666666">[datetime]</text>
<polygon fill="none" stroke="black" stroke-width="3" points="58.2,-356.7 58.2,-518.5 274.67,-518.5 274.67,-356.7 58.2,-356.7"/>
</g>
<!-- game_versions -->
<g id="node2" class="node">
<title>game_versions</title>
<polygon fill="#efefef" stroke="none" points="43.2,-197.2 43.2,-232.8 289.66,-232.8 289.66,-197.2 43.2,-197.2"/>
<polygon fill="none" stroke="black" points="43.2,-197.2 43.2,-232.8 289.66,-232.8 289.66,-197.2 43.2,-197.2"/>
<text text-anchor="start" x="50.2" y="-210.6" font-family="Arial Bold" font-size="18.00">game_versions</text>
<text text-anchor="start" x="158.17" y="-210.6" font-family="Arial" font-size="14.00">    </text>
<text text-anchor="start" x="189.29" y="-210.6" font-family="Arial" font-size="14.00" fill="#666666">[BASE TABLE]</text>
<polygon fill="none" stroke="black" points="43.2,-166.4 43.2,-197.2 289.66,-197.2 289.66,-166.4 43.2,-166.4"/>
<text text-anchor="start" x="50.2" y="-178.6" font-family="Arial" font-size="14.00">id </text>
<text text-anchor="start" x="64.99" y="-178.6" font-family="Arial" font-size="14.00" fill="#666666">[varchar(36)]</text>
<polygon fill="none" stroke="black" points="43.2,-135.6 43.2,-166.4 289.66,-166.4 289.66,-135.6 43.2,-135.6"/>
<text text-anchor="start" x="50.2" y="-147.8" font-family="Arial" font-size="14.00">game_id </text>
<text text-anchor="start" x="107.79" y="-147.8" font-family="Arial" font-size="14.00" fill="#666666">[varchar(36)]</text>
<polygon fill="none" stroke="black" points="43.2,-104.8 43.2,-135.6 289.66,-135.6 289.66,-104.8 43.2,-104.8"/>
<text text-anchor="start" x="50.2" y="-117" font-family="Arial" font-size="14.00">name </text>
<text text-anchor="start" x="89.11" y="-117" font-family="Arial" font-size="14.00" fill="#666666">[varchar(32)]</text>
<polygon fill="none" stroke="black" points="43.2,-74 43.2,-104.8 289.66,-104.8 289.66,-74 43.2,-74"/>
<text text-anchor="start" x="50.2" y="-86.2" font-family="Arial" font-size="14.00">description </text>
<text text-anchor="start" x="121.79" y="-86.2" font-family="Arial" font-size="14.00" fill="#666666">[text]</text>
<polygon fill="none" stroke="black" points="43.2,-43.2 43.2,-74 289.66,-74 289.66,-43.2 43.2,-43.2"/>
<text text-anchor="start" x="50.2" y="-55.4" font-family="Arial" font-size="14.00">created_at </text>
<text text-anchor="start" x="120.25" y="-55.4" font-family="Arial" font-size="14.00" fill="#666666">[datetime]</text>
</g>
<!-- game_urls&#45;&gt;game_versions -->
<g id="edge1" class="edge">
<title>game_urls:game_version_id&#45;&gt;game_versions:id</title>
<path fill="none" stroke="black" d="M283.97,-432.53C332.33,-405.44 343.68,-181.8 290.66,-181.8"/>
<polygon fill="black" stroke="black" points="284.14,-432.48 273.3,-430.77 278.99,-433.88 274.81,-435.02 274.81,-435.02 274.81,-435.02 278.99,-433.88 275.67,-439.45 284.14,-432.48"/>
<text text-anchor="start" x="281.17" y="-445.2" font-family="Arial" font-size="10.00">FOREIGN KEY (game_version_id) REFERENCES game_versions (id)</text>
</g>
</g>
</svg>
