<?xml version="1.0" encoding="UTF-8" standalone="no"?>
<!DOCTYPE svg PUBLIC "-//W3C//DTD SVG 1.1//EN"
 "http://www.w3.org/Graphics/SVG/1.1/DTD/svg11.dtd">
<!-- Generated by graphviz version 2.40.1 (20161225.0304)
 -->
<!-- Title: game_management_roles Pages: 1 -->
<svg width="956pt" height="562pt"
 viewBox="0.00 0.00 956.00 562.00" xmlns="http://www.w3.org/2000/svg" xmlns:xlink="http://www.w3.org/1999/xlink">
<g id="graph0" class="graph" transform="scale(1 1) rotate(0) translate(4 558)">
<title>game_management_roles</title>
<polygon fill="#ffffff" stroke="transparent" points="-4,4 -4,-558 952,-558 952,4 -4,4"/>
<!-- game_management_roles -->
<g id="node1" class="node">
<title>game_management_roles</title>
<polygon fill="#efefef" stroke="transparent" points="251,-472.5 251,-507.5 571,-507.5 571,-472.5 251,-472.5"/>
<polygon fill="none" stroke="#000000" points="251,-472.5 251,-507.5 571,-507.5 571,-472.5 251,-472.5"/>
<text text-anchor="start" x="257.8471" y="-485.3" font-family="Arial Bold" font-size="18.00" fill="#000000">game_management_roles</text>
<text text-anchor="start" x="466.8991" y="-485.3" font-family="Arial" font-size="14.00" fill="#000000"> </text>
<text text-anchor="start" x="470.7897" y="-485.3" font-family="Arial" font-size="14.00" fill="#666666">[BASE TABLE]</text>
<polygon fill="none" stroke="#000000" points="251,-442.5 251,-472.5 571,-472.5 571,-442.5 251,-442.5"/>
<text text-anchor="start" x="258" y="-453.9" font-family="Arial" font-size="14.00" fill="#000000">game_id </text>
<text text-anchor="start" x="315.5708" y="-453.9" font-family="Arial" font-size="14.00" fill="#666666">[varchar(36)]</text>
<polygon fill="none" stroke="#000000" points="251,-412.5 251,-442.5 571,-442.5 571,-412.5 251,-412.5"/>
<text text-anchor="start" x="258" y="-423.9" font-family="Arial" font-size="14.00" fill="#000000">user_id </text>
<text text-anchor="start" x="307.7882" y="-423.9" font-family="Arial" font-size="14.00" fill="#666666">[varchar(36)]</text>
<polygon fill="none" stroke="#000000" points="251,-382.5 251,-412.5 571,-412.5 571,-382.5 251,-382.5"/>
<text text-anchor="start" x="258" y="-393.9" font-family="Arial" font-size="14.00" fill="#000000">role_type_id </text>
<text text-anchor="start" x="338.1332" y="-393.9" font-family="Arial" font-size="14.00" fill="#666666">[tinyint(4)]</text>
<polygon fill="none" stroke="#000000" stroke-width="3" points="249.5,-381.5 249.5,-509.5 572.5,-509.5 572.5,-381.5 249.5,-381.5"/>
</g>
<!-- games -->
<g id="node2" class="node">
<title>games</title>
<polygon fill="#efefef" stroke="transparent" points="133,-222.5 133,-257.5 313,-257.5 313,-222.5 133,-222.5"/>
<polygon fill="none" stroke="#000000" points="133,-222.5 133,-257.5 313,-257.5 313,-222.5 133,-222.5"/>
<text text-anchor="start" x="147.3677" y="-235.3" font-family="Arial Bold" font-size="18.00" fill="#000000">games</text>
<text text-anchor="start" x="201.3785" y="-235.3" font-family="Arial" font-size="14.00" fill="#000000"> </text>
<text text-anchor="start" x="205.2691" y="-235.3" font-family="Arial" font-size="14.00" fill="#666666">[BASE TABLE]</text>
<polygon fill="none" stroke="#000000" points="133,-192.5 133,-222.5 313,-222.5 313,-192.5 133,-192.5"/>
<text text-anchor="start" x="140" y="-203.9" font-family="Arial" font-size="14.00" fill="#000000">id </text>
<text text-anchor="start" x="154.7798" y="-203.9" font-family="Arial" font-size="14.00" fill="#666666">[varchar(36)]</text>
<polygon fill="none" stroke="#000000" points="133,-162.5 133,-192.5 313,-192.5 313,-162.5 133,-162.5"/>
<text text-anchor="start" x="140" y="-173.9" font-family="Arial" font-size="14.00" fill="#000000">name </text>
<text text-anchor="start" x="178.899" y="-173.9" font-family="Arial" font-size="14.00" fill="#666666">[varchar(256)]</text>
<polygon fill="none" stroke="#000000" points="133,-132.5 133,-162.5 313,-162.5 313,-132.5 133,-132.5"/>
<text text-anchor="start" x="140" y="-143.9" font-family="Arial" font-size="14.00" fill="#000000">description </text>
<text text-anchor="start" x="211.568" y="-143.9" font-family="Arial" font-size="14.00" fill="#666666">[text]</text>
<polygon fill="none" stroke="#000000" points="133,-102.5 133,-132.5 313,-132.5 313,-102.5 133,-102.5"/>
<text text-anchor="start" x="140" y="-113.9" font-family="Arial" font-size="14.00" fill="#000000">created_at </text>
<text text-anchor="start" x="210.028" y="-113.9" font-family="Arial" font-size="14.00" fill="#666666">[datetime]</text>
<polygon fill="none" stroke="#000000" points="133,-72.5 133,-102.5 313,-102.5 313,-72.5 133,-72.5"/>
<text text-anchor="start" x="140" y="-83.9" font-family="Arial" font-size="14.00" fill="#000000">deleted_at </text>
<text text-anchor="start" x="209.2566" y="-83.9" font-family="Arial" font-size="14.00" fill="#666666">[datetime]</text>
<polygon fill="none" stroke="#000000" points="133,-42.5 133,-72.5 313,-72.5 313,-42.5 133,-42.5"/>
<text text-anchor="start" x="139.7742" y="-53.9" font-family="Arial" font-size="14.00" fill="#000000">visibility_type_id </text>
<text text-anchor="start" x="244.7812" y="-53.9" font-family="Arial" font-size="14.00" fill="#666666">[tinyint(4)]</text>
</g>
<!-- game_management_roles&#45;&gt;games -->
<g id="edge1" class="edge">
<title>game_management_roles:game_id&#45;&gt;games:id</title>
<path fill="none" stroke="#000000" d="M240.8675,-456.4366C201.2176,-447.2184 226.1583,-380.15 251,-337 266.8979,-309.3854 297.1021,-328.6146 313,-301 333.7334,-264.9862 354.5556,-207.5 313,-207.5"/>
<polygon fill="#000000" stroke="#000000" points="241.0546,-456.4561 250.5303,-461.9754 246.0273,-456.9781 251,-457.5 251,-457.5 251,-457.5 246.0273,-456.9781 251.4697,-453.0246 241.0546,-456.4561 241.0546,-456.4561"/>
<text text-anchor="start" x="7.386" y="-467.5" font-family="Arial" font-size="10.00" fill="#000000">FOREIGN KEY (game_id) REFERENCES games (id)</text>
</g>
<!-- game_management_role_types -->
<g id="node3" class="node">
<title>game_management_role_types</title>
<polygon fill="#efefef" stroke="transparent" points="417,-177.5 417,-212.5 781,-212.5 781,-177.5 417,-177.5"/>
<polygon fill="none" stroke="#000000" points="417,-177.5 417,-212.5 781,-212.5 781,-177.5 417,-177.5"/>
<text text-anchor="start" x="423.8367" y="-190.3" font-family="Arial Bold" font-size="18.00" fill="#000000">game_management_role_types</text>
<text text-anchor="start" x="676.9095" y="-190.3" font-family="Arial" font-size="14.00" fill="#000000"> </text>
<text text-anchor="start" x="680.8001" y="-190.3" font-family="Arial" font-size="14.00" fill="#666666">[BASE TABLE]</text>
<polygon fill="none" stroke="#000000" points="417,-147.5 417,-177.5 781,-177.5 781,-147.5 417,-147.5"/>
<text text-anchor="start" x="424" y="-158.9" font-family="Arial" font-size="14.00" fill="#000000">id </text>
<text text-anchor="start" x="438.7798" y="-158.9" font-family="Arial" font-size="14.00" fill="#666666">[tinyint(4)]</text>
<polygon fill="none" stroke="#000000" points="417,-117.5 417,-147.5 781,-147.5 781,-117.5 417,-117.5"/>
<text text-anchor="start" x="424" y="-128.9" font-family="Arial" font-size="14.00" fill="#000000">name </text>
<text text-anchor="start" x="462.899" y="-128.9" font-family="Arial" font-size="14.00" fill="#666666">[varchar(32)]</text>
<polygon fill="none" stroke="#000000" points="417,-87.5 417,-117.5 781,-117.5 781,-87.5 417,-87.5"/>
<text text-anchor="start" x="424" y="-98.9" font-family="Arial" font-size="14.00" fill="#000000">active </text>
<text text-anchor="start" x="464.453" y="-98.9" font-family="Arial" font-size="14.00" fill="#666666">[tinyint(1)]</text>
</g>
<!-- game_management_roles&#45;&gt;game_management_role_types -->
<g id="edge2" class="edge">
<title>game_management_roles:role_type_id&#45;&gt;game_management_role_types:id</title>
<path fill="none" stroke="#000000" d="M580.8321,-394.9528C593.8077,-386.1398 582.7285,-356.4207 571,-337 531.0213,-270.8007 456.9787,-322.1993 417,-256 395.5175,-220.428 375.4444,-162.5 417,-162.5"/>
<polygon fill="#000000" stroke="#000000" points="580.6804,-394.9921 569.8714,-393.1438 575.8402,-396.246 571,-397.5 571,-397.5 571,-397.5 575.8402,-396.246 572.1286,-401.8562 580.6804,-394.9921 580.6804,-394.9921"/>
<text text-anchor="start" x="578.033" y="-407.5" font-family="Arial" font-size="10.00" fill="#000000">FOREIGN KEY (role_type_id) REFERENCES game_management_role_types (id)</text>
</g>
</g>
</svg>
