<?xml version="1.0" encoding="UTF-8" standalone="no"?>
<!DOCTYPE svg PUBLIC "-//W3C//DTD SVG 1.1//EN"
 "http://www.w3.org/Graphics/SVG/1.1/DTD/svg11.dtd">
<!-- Generated by graphviz version 2.40.1 (20161225.0304)
 -->
<!-- Title: game_feedbacks Pages: 1 -->
<svg width="862pt" height="959pt"
 viewBox="0.00 0.00 862.00 959.00" xmlns="http://www.w3.org/2000/svg" xmlns:xlink="http://www.w3.org/1999/xlink">
<g id="graph0" class="graph" transform="scale(1 1) rotate(0) translate(4 955)">
<title>game_feedbacks</title>
<polygon fill="#ffffff" stroke="transparent" points="-4,4 -4,-955 858,-955 858,4 -4,4"/>
<!-- game_feedbacks -->
<g id="node1" class="node">
<title>game_feedbacks</title>
<polygon fill="#efefef" stroke="transparent" points="260,-592.5 260,-627.5 508,-627.5 508,-592.5 260,-592.5"/>
<polygon fill="none" stroke="#000000" points="260,-592.5 260,-627.5 508,-627.5 508,-592.5 260,-592.5"/>
<text text-anchor="start" x="266.848" y="-605.3" font-family="Arial Bold" font-size="18.00" fill="#000000">game_feedbacks</text>
<text text-anchor="start" x="403.8982" y="-605.3" font-family="Arial" font-size="14.00" fill="#000000"> </text>
<text text-anchor="start" x="407.7888" y="-605.3" font-family="Arial" font-size="14.00" fill="#666666">[BASE TABLE]</text>
<polygon fill="none" stroke="#000000" points="260,-562.5 260,-592.5 508,-592.5 508,-562.5 260,-562.5"/>
<text text-anchor="start" x="267" y="-573.9" font-family="Arial" font-size="14.00" fill="#000000">id </text>
<text text-anchor="start" x="281.7798" y="-573.9" font-family="Arial" font-size="14.00" fill="#666666">[varchar(36)]</text>
<polygon fill="none" stroke="#000000" points="260,-532.5 260,-562.5 508,-562.5 508,-532.5 260,-532.5"/>
<text text-anchor="start" x="267" y="-543.9" font-family="Arial" font-size="14.00" fill="#000000">edition_id </text>
<text text-anchor="start" x="330.7966" y="-543.9" font-family="Arial" font-size="14.00" fill="#666666">[varchar(36)]</text>
<polygon fill="none" stroke="#000000" points="260,-502.5 260,-532.5 508,-532.5 508,-502.5 260,-502.5"/>
<text text-anchor="start" x="267" y="-513.9" font-family="Arial" font-size="14.00" fill="#000000">game_version_id </text>
<text text-anchor="start" x="377.4684" y="-513.9" font-family="Arial" font-size="14.00" fill="#666666">[varchar(36)]</text>
<polygon fill="none" stroke="#000000" points="260,-472.5 260,-502.5 508,-502.5 508,-472.5 260,-472.5"/>
<text text-anchor="start" x="267" y="-483.9" font-family="Arial" font-size="14.00" fill="#000000">comment </text>
<text text-anchor="start" x="328.4502" y="-483.9" font-family="Arial" font-size="14.00" fill="#666666">[text]</text>
<polygon fill="none" stroke="#000000" points="260,-442.5 260,-472.5 508,-472.5 508,-442.5 260,-442.5"/>
<text text-anchor="start" x="267" y="-453.9" font-family="Arial" font-size="14.00" fill="#000000">created_at </text>
<text text-anchor="start" x="337.028" y="-453.9" font-family="Arial" font-size="14.00" fill="#666666">[datetime]</text>
<polygon fill="none" stroke="#000000" stroke-width="3" points="258.5,-441.5 258.5,-629.5 509.5,-629.5 509.5,-441.5 258.5,-441.5"/>
</g>
<!-- editions -->
<g id="node3" class="node">
<title>editions</title>
<polygon fill="#efefef" stroke="transparent" points="137,-237.5 137,-272.5 310,-272.5 310,-237.5 137,-237.5"/>
<polygon fill="none" stroke="#000000" points="137,-237.5 137,-272.5 310,-272.5 310,-237.5 137,-237.5"/>
<text text-anchor="start" x="143.8654" y="-250.3" font-family="Arial Bold" font-size="18.00" fill="#000000">editions</text>
<text text-anchor="start" x="205.8808" y="-250.3" font-family="Arial" font-size="14.00" fill="#000000"> </text>
<text text-anchor="start" x="209.7714" y="-250.3" font-family="Arial" font-size="14.00" fill="#666666">[BASE TABLE]</text>
<polygon fill="none" stroke="#000000" points="137,-207.5 137,-237.5 310,-237.5 310,-207.5 137,-207.5"/>
<text text-anchor="start" x="144" y="-218.9" font-family="Arial" font-size="14.00" fill="#000000">id </text>
<text text-anchor="start" x="158.7798" y="-218.9" font-family="Arial" font-size="14.00" fill="#666666">[varchar(36)]</text>
<polygon fill="none" stroke="#000000" points="137,-177.5 137,-207.5 310,-207.5 310,-177.5 137,-177.5"/>
<text text-anchor="start" x="144" y="-188.9" font-family="Arial" font-size="14.00" fill="#000000">name </text>
<text text-anchor="start" x="182.899" y="-188.9" font-family="Arial" font-size="14.00" fill="#666666">[varchar(32)]</text>
<polygon fill="none" stroke="#000000" points="137,-147.5 137,-177.5 310,-177.5 310,-147.5 137,-147.5"/>
<text text-anchor="start" x="144" y="-158.9" font-family="Arial" font-size="14.00" fill="#000000">questionnaire_url </text>
<text text-anchor="start" x="255.2482" y="-158.9" font-family="Arial" font-size="14.00" fill="#666666">[text]</text>
<polygon fill="none" stroke="#000000" points="137,-117.5 137,-147.5 310,-147.5 310,-117.5 137,-117.5"/>
<text text-anchor="start" x="144" y="-128.9" font-family="Arial" font-size="14.00" fill="#000000">created_at </text>
<text text-anchor="start" x="214.028" y="-128.9" font-family="Arial" font-size="14.00" fill="#666666">[datetime]</text>
<polygon fill="none" stroke="#000000" points="137,-87.5 137,-117.5 310,-117.5 310,-87.5 137,-87.5"/>
<text text-anchor="start" x="144" y="-98.9" font-family="Arial" font-size="14.00" fill="#000000">deleted_at </text>
<text text-anchor="start" x="213.2566" y="-98.9" font-family="Arial" font-size="14.00" fill="#666666">[datetime]</text>
</g>
<!-- game_feedbacks&#45;&gt;editions -->
<g id="edge2" class="edge">
<title>game_feedbacks:edition_id&#45;&gt;editions:id</title>
<path fill="none" stroke="#000000" d="M249.7194,-546.6904C198.5223,-537.8105 242.7733,-457.7032 260,-397 271.5499,-356.3008 298.4501,-356.6992 310,-316 321.3449,-276.023 351.5556,-222.5 310,-222.5"/>
<polygon fill="#000000" stroke="#000000" points="250.0309,-546.7149 259.6467,-551.9861 255.0154,-547.1074 260,-547.5 260,-547.5 260,-547.5 255.0154,-547.1074 260.3533,-543.0139 250.0309,-546.7149 250.0309,-546.7149"/>
<text text-anchor="start" x="6.939" y="-557.5" font-family="Arial" font-size="10.00" fill="#000000">FOREIGN KEY (edition_id) REFERENCES editions (id)</text>
</g>
<!-- v2_game_versions -->
<g id="node4" class="node">
<title>v2_game_versions</title>
<polygon fill="#efefef" stroke="transparent" points="414,-282.5 414,-317.5 676,-317.5 676,-282.5 414,-282.5"/>
<polygon fill="none" stroke="#000000" points="414,-282.5 414,-317.5 676,-317.5 676,-282.5 414,-282.5"/>
<text text-anchor="start" x="420.8559" y="-295.3" font-family="Arial Bold" font-size="18.00" fill="#000000">v2_game_versions</text>
<text text-anchor="start" x="571.8903" y="-295.3" font-family="Arial" font-size="14.00" fill="#000000"> </text>
<text text-anchor="start" x="575.7809" y="-295.3" font-family="Arial" font-size="14.00" fill="#666666">[BASE TABLE]</text>
<polygon fill="none" stroke="#000000" points="414,-252.5 414,-282.5 676,-282.5 676,-252.5 414,-252.5"/>
<text text-anchor="start" x="421" y="-263.9" font-family="Arial" font-size="14.00" fill="#000000">id </text>
<text text-anchor="start" x="435.7798" y="-263.9" font-family="Arial" font-size="14.00" fill="#666666">[varchar(36)]</text>
<polygon fill="none" stroke="#000000" points="414,-222.5 414,-252.5 676,-252.5 676,-222.5 414,-222.5"/>
<text text-anchor="start" x="421" y="-233.9" font-family="Arial" font-size="14.00" fill="#000000">game_id </text>
<text text-anchor="start" x="478.5708" y="-233.9" font-family="Arial" font-size="14.00" fill="#666666">[varchar(36)]</text>
<polygon fill="none" stroke="#000000" points="414,-192.5 414,-222.5 676,-222.5 676,-192.5 414,-192.5"/>
<text text-anchor="start" x="421" y="-203.9" font-family="Arial" font-size="14.00" fill="#000000">game_image_id </text>
<text text-anchor="start" x="524.4684" y="-203.9" font-family="Arial" font-size="14.00" fill="#666666">[varchar(36)]</text>
<polygon fill="none" stroke="#000000" points="414,-162.5 414,-192.5 676,-192.5 676,-162.5 414,-162.5"/>
<text text-anchor="start" x="421" y="-173.9" font-family="Arial" font-size="14.00" fill="#000000">game_video_id </text>
<text text-anchor="start" x="519.8078" y="-173.9" font-family="Arial" font-size="14.00" fill="#666666">[varchar(36)]</text>
<polygon fill="none" stroke="#000000" points="414,-132.5 414,-162.5 676,-162.5 676,-132.5 414,-132.5"/>
<text text-anchor="start" x="421" y="-143.9" font-family="Arial" font-size="14.00" fill="#000000">name </text>
<text text-anchor="start" x="459.899" y="-143.9" font-family="Arial" font-size="14.00" fill="#666666">[varchar(32)]</text>
<polygon fill="none" stroke="#000000" points="414,-102.5 414,-132.5 676,-132.5 676,-102.5 414,-102.5"/>
<text text-anchor="start" x="421" y="-113.9" font-family="Arial" font-size="14.00" fill="#000000">description </text>
<text text-anchor="start" x="492.568" y="-113.9" font-family="Arial" font-size="14.00" fill="#666666">[text]</text>
<polygon fill="none" stroke="#000000" points="414,-72.5 414,-102.5 676,-102.5 676,-72.5 414,-72.5"/>
<text text-anchor="start" x="421" y="-83.9" font-family="Arial" font-size="14.00" fill="#000000">created_at </text>
<text text-anchor="start" x="491.028" y="-83.9" font-family="Arial" font-size="14.00" fill="#666666">[datetime]</text>
<polygon fill="none" stroke="#000000" points="414,-42.5 414,-72.5 676,-72.5 676,-42.5 414,-42.5"/>
<text text-anchor="start" x="421" y="-53.9" font-family="Arial" font-size="14.00" fill="#000000">url </text>
<text text-anchor="start" x="440.4404" y="-53.9" font-family="Arial" font-size="14.00" fill="#666666">[text]</text>
</g>
<!-- game_feedbacks&#45;&gt;v2_game_versions -->
<g id="edge3" class="edge">
<title>game_feedbacks:game_version_id&#45;&gt;v2_game_versions:id</title>
<path fill="none" stroke="#000000" d="M518.1826,-516.405C558.2571,-506.9192 536.2172,-438.0223 508,-397 482.6466,-360.141 439.3534,-397.859 414,-361 390.4495,-326.7621 372.4444,-267.5 414,-267.5"/>
<polygon fill="#000000" stroke="#000000" points="517.9427,-516.4307 507.5188,-513.0258 512.9713,-516.9654 508,-517.5 508,-517.5 508,-517.5 512.9713,-516.9654 508.4812,-521.9742 517.9427,-516.4307 517.9427,-516.4307"/>
<text text-anchor="start" x="514.543" y="-527.5" font-family="Arial" font-size="10.00" fill="#000000">FOREIGN KEY (game_version_id) REFERENCES v2_game_versions (id)</text>
</g>
<!-- game_feedback_answers -->
<g id="node2" class="node">
<title>game_feedback_answers</title>
<polygon fill="#efefef" stroke="transparent" points="226,-872.5 226,-907.5 542,-907.5 542,-872.5 226,-872.5"/>
<polygon fill="none" stroke="#000000" points="226,-872.5 226,-907.5 542,-907.5 542,-872.5 226,-872.5"/>
<text text-anchor="start" x="232.8424" y="-885.3" font-family="Arial Bold" font-size="18.00" fill="#000000">game_feedback_answers</text>
<text text-anchor="start" x="437.9038" y="-885.3" font-family="Arial" font-size="14.00" fill="#000000"> </text>
<text text-anchor="start" x="441.7944" y="-885.3" font-family="Arial" font-size="14.00" fill="#666666">[BASE TABLE]</text>
<polygon fill="none" stroke="#000000" points="226,-842.5 226,-872.5 542,-872.5 542,-842.5 226,-842.5"/>
<text text-anchor="start" x="233" y="-853.9" font-family="Arial" font-size="14.00" fill="#000000">id </text>
<text text-anchor="start" x="247.7798" y="-853.9" font-family="Arial" font-size="14.00" fill="#666666">[varchar(36)]</text>
<polygon fill="none" stroke="#000000" points="226,-812.5 226,-842.5 542,-842.5 542,-812.5 226,-812.5"/>
<text text-anchor="start" x="233" y="-823.9" font-family="Arial" font-size="14.00" fill="#000000">feedback_id </text>
<text text-anchor="start" x="312.366" y="-823.9" font-family="Arial" font-size="14.00" fill="#666666">[varchar(36)]</text>
<polygon fill="none" stroke="#000000" points="226,-782.5 226,-812.5 542,-812.5 542,-782.5 226,-782.5"/>
<text text-anchor="start" x="233" y="-793.9" font-family="Arial" font-size="14.00" fill="#000000">question_id </text>
<text text-anchor="start" x="308.4726" y="-793.9" font-family="Arial" font-size="14.00" fill="#666666">[varchar(36)]</text>
<polygon fill="none" stroke="#000000" points="226,-752.5 226,-782.5 542,-782.5 542,-752.5 226,-752.5"/>
<text text-anchor="start" x="233" y="-763.9" font-family="Arial" font-size="14.00" fill="#000000">answer </text>
<text text-anchor="start" x="282.0056" y="-763.9" font-family="Arial" font-size="14.00" fill="#666666">[tinyint(1)]</text>
</g>
<!-- game_feedback_answers&#45;&gt;game_feedbacks -->
<g id="edge1" class="edge">
<title>game_feedback_answers:feedback_id&#45;&gt;game_feedbacks:id</title>
<path fill="none" stroke="#000000" d="M552.0865,-826.7828C651.9327,-812.1191 616.6298,-577.5 508,-577.5"/>
<polygon fill="#000000" stroke="#000000" points="551.9748,-826.7907 541.6808,-823.0113 546.9874,-827.1453 542,-827.5 542,-827.5 542,-827.5 546.9874,-827.1453 542.3192,-831.9887 551.9748,-826.7907 551.9748,-826.7907"/>
<text text-anchor="start" x="548.5355" y="-837.5" font-family="Arial" font-size="10.00" fill="#000000">FOREIGN KEY (feedback_id) REFERENCES game_feedbacks (id)</text>
</g>
</g>
</svg>
