<?xml version="1.0" encoding="UTF-8" standalone="no"?>
<!DOCTYPE svg PUBLIC "-//W3C//DTD SVG 1.1//EN"
 "http://www.w3.org/Graphics/SVG/1.1/DTD/svg11.dtd">
<!-- Generated by graphviz version 2.40.1 (20161225.0304)
 -->
<!-- Title: game_images Pages: 1 -->
<svg width="818pt" height="592pt"
 viewBox="0.00 0.00 818.00 592.00" xmlns="http://www.w3.org/2000/svg" xmlns:xlink="http://www.w3.org/1999/xlink">
<g id="graph0" class="graph" transform="scale(1 1) rotate(0) translate(4 588)">
<title>game_images</title>
<polygon fill="#ffffff" stroke="transparent" points="-4,4 -4,-588 814,-588 814,4 -4,4"/>
<!-- game_images -->
<g id="node1" class="node">
<title>game_images</title>
<polygon fill="#efefef" stroke="transparent" points="251,-502.5 251,-537.5 475,-537.5 475,-502.5 251,-502.5"/>
<polygon fill="none" stroke="#000000" points="251,-502.5 251,-537.5 475,-537.5 475,-502.5 251,-502.5"/>
<text text-anchor="start" x="257.8621" y="-515.3" font-family="Arial Bold" font-size="18.00" fill="#000000">game_images</text>
<text text-anchor="start" x="370.8841" y="-515.3" font-family="Arial" font-size="14.00" fill="#000000"> </text>
<text text-anchor="start" x="374.7747" y="-515.3" font-family="Arial" font-size="14.00" fill="#666666">[BASE TABLE]</text>
<polygon fill="none" stroke="#000000" points="251,-472.5 251,-502.5 475,-502.5 475,-472.5 251,-472.5"/>
<text text-anchor="start" x="258" y="-483.9" font-family="Arial" font-size="14.00" fill="#000000">id </text>
<text text-anchor="start" x="272.7798" y="-483.9" font-family="Arial" font-size="14.00" fill="#666666">[varchar(36)]</text>
<polygon fill="none" stroke="#000000" points="251,-442.5 251,-472.5 475,-472.5 475,-442.5 251,-442.5"/>
<text text-anchor="start" x="258" y="-453.9" font-family="Arial" font-size="14.00" fill="#000000">game_id </text>
<text text-anchor="start" x="315.5708" y="-453.9" font-family="Arial" font-size="14.00" fill="#666666">[varchar(36)]</text>
<polygon fill="none" stroke="#000000" points="251,-412.5 251,-442.5 475,-442.5 475,-412.5 251,-412.5"/>
<text text-anchor="start" x="258" y="-423.9" font-family="Arial" font-size="14.00" fill="#000000">image_type_id </text>
<text text-anchor="start" x="352.9158" y="-423.9" font-family="Arial" font-size="14.00" fill="#666666">[tinyint(4)]</text>
<polygon fill="none" stroke="#000000" points="251,-382.5 251,-412.5 475,-412.5 475,-382.5 251,-382.5"/>
<text text-anchor="start" x="258" y="-393.9" font-family="Arial" font-size="14.00" fill="#000000">created_at </text>
<text text-anchor="start" x="328.028" y="-393.9" font-family="Arial" font-size="14.00" fill="#666666">[datetime]</text>
<polygon fill="none" stroke="#000000" stroke-width="3" points="249.5,-381.5 249.5,-539.5 476.5,-539.5 476.5,-381.5 249.5,-381.5"/>
</g>
<!-- games -->
<g id="node2" class="node">
<title>games</title>
<polygon fill="#efefef" stroke="transparent" points="109,-222.5 109,-257.5 289,-257.5 289,-222.5 109,-222.5"/>
<polygon fill="none" stroke="#000000" points="109,-222.5 109,-257.5 289,-257.5 289,-222.5 109,-222.5"/>
<text text-anchor="start" x="123.3677" y="-235.3" font-family="Arial Bold" font-size="18.00" fill="#000000">games</text>
<text text-anchor="start" x="177.3785" y="-235.3" font-family="Arial" font-size="14.00" fill="#000000"> </text>
<text text-anchor="start" x="181.2691" y="-235.3" font-family="Arial" font-size="14.00" fill="#666666">[BASE TABLE]</text>
<polygon fill="none" stroke="#000000" points="109,-192.5 109,-222.5 289,-222.5 289,-192.5 109,-192.5"/>
<text text-anchor="start" x="116" y="-203.9" font-family="Arial" font-size="14.00" fill="#000000">id </text>
<text text-anchor="start" x="130.7798" y="-203.9" font-family="Arial" font-size="14.00" fill="#666666">[varchar(36)]</text>
<polygon fill="none" stroke="#000000" points="109,-162.5 109,-192.5 289,-192.5 289,-162.5 109,-162.5"/>
<text text-anchor="start" x="116" y="-173.9" font-family="Arial" font-size="14.00" fill="#000000">name </text>
<text text-anchor="start" x="154.899" y="-173.9" font-family="Arial" font-size="14.00" fill="#666666">[varchar(256)]</text>
<polygon fill="none" stroke="#000000" points="109,-132.5 109,-162.5 289,-162.5 289,-132.5 109,-132.5"/>
<text text-anchor="start" x="116" y="-143.9" font-family="Arial" font-size="14.00" fill="#000000">description </text>
<text text-anchor="start" x="187.568" y="-143.9" font-family="Arial" font-size="14.00" fill="#666666">[text]</text>
<polygon fill="none" stroke="#000000" points="109,-102.5 109,-132.5 289,-132.5 289,-102.5 109,-102.5"/>
<text text-anchor="start" x="116" y="-113.9" font-family="Arial" font-size="14.00" fill="#000000">created_at </text>
<text text-anchor="start" x="186.028" y="-113.9" font-family="Arial" font-size="14.00" fill="#666666">[datetime]</text>
<polygon fill="none" stroke="#000000" points="109,-72.5 109,-102.5 289,-102.5 289,-72.5 109,-72.5"/>
<text text-anchor="start" x="116" y="-83.9" font-family="Arial" font-size="14.00" fill="#000000">deleted_at </text>
<text text-anchor="start" x="185.2566" y="-83.9" font-family="Arial" font-size="14.00" fill="#666666">[datetime]</text>
<polygon fill="none" stroke="#000000" points="109,-42.5 109,-72.5 289,-72.5 289,-42.5 109,-42.5"/>
<text text-anchor="start" x="115.7742" y="-53.9" font-family="Arial" font-size="14.00" fill="#000000">visibility_type_id </text>
<text text-anchor="start" x="220.7812" y="-53.9" font-family="Arial" font-size="14.00" fill="#666666">[tinyint(4)]</text>
</g>
<!-- game_images&#45;&gt;games -->
<g id="edge1" class="edge">
<title>game_images:game_id&#45;&gt;games:id</title>
<path fill="none" stroke="#000000" d="M240.9441,-456.4749C201.9443,-447.5824 231.3265,-382.7383 251,-337 260.1925,-315.6287 279.8075,-322.3713 289,-301 305.4198,-262.826 330.5556,-207.5 289,-207.5"/>
<polygon fill="#000000" stroke="#000000" points="241.0516,-456.4858 250.5436,-461.9768 246.0258,-456.9929 251,-457.5 251,-457.5 251,-457.5 246.0258,-456.9929 251.4564,-453.0232 241.0516,-456.4858 241.0516,-456.4858"/>
<text text-anchor="start" x="7.386" y="-467.5" font-family="Arial" font-size="10.00" fill="#000000">FOREIGN KEY (game_id) REFERENCES games (id)</text>
</g>
<!-- game_image_types -->
<g id="node3" class="node">
<title>game_image_types</title>
<polygon fill="#efefef" stroke="transparent" points="393,-177.5 393,-212.5 661,-212.5 661,-177.5 393,-177.5"/>
<polygon fill="none" stroke="#000000" points="393,-177.5 393,-212.5 661,-212.5 661,-177.5 393,-177.5"/>
<text text-anchor="start" x="399.8517" y="-190.3" font-family="Arial Bold" font-size="18.00" fill="#000000">game_image_types</text>
<text text-anchor="start" x="556.8945" y="-190.3" font-family="Arial" font-size="14.00" fill="#000000"> </text>
<text text-anchor="start" x="560.7851" y="-190.3" font-family="Arial" font-size="14.00" fill="#666666">[BASE TABLE]</text>
<polygon fill="none" stroke="#000000" points="393,-147.5 393,-177.5 661,-177.5 661,-147.5 393,-147.5"/>
<text text-anchor="start" x="400" y="-158.9" font-family="Arial" font-size="14.00" fill="#000000">id </text>
<text text-anchor="start" x="414.7798" y="-158.9" font-family="Arial" font-size="14.00" fill="#666666">[tinyint(4)]</text>
<polygon fill="none" stroke="#000000" points="393,-117.5 393,-147.5 661,-147.5 661,-117.5 393,-117.5"/>
<text text-anchor="start" x="400" y="-128.9" font-family="Arial" font-size="14.00" fill="#000000">name </text>
<text text-anchor="start" x="438.899" y="-128.9" font-family="Arial" font-size="14.00" fill="#666666">[varchar(32)]</text>
<polygon fill="none" stroke="#000000" points="393,-87.5 393,-117.5 661,-117.5 661,-87.5 393,-87.5"/>
<text text-anchor="start" x="400" y="-98.9" font-family="Arial" font-size="14.00" fill="#000000">active </text>
<text text-anchor="start" x="440.453" y="-98.9" font-family="Arial" font-size="14.00" fill="#666666">[tinyint(1)]</text>
</g>
<!-- game_images&#45;&gt;game_image_types -->
<g id="edge2" class="edge">
<title>game_images:image_type_id&#45;&gt;game_image_types:id</title>
<path fill="none" stroke="#000000" d="M484.995,-426.0375C510.4827,-417.2281 488.992,-370.4888 475,-337 455.2512,-289.7329 412.7488,-303.2671 393,-256 376.9797,-217.6566 351.4444,-162.5 393,-162.5"/>
<polygon fill="#000000" stroke="#000000" points="484.8946,-426.0521 474.3484,-423.0474 479.9473,-426.776 475,-427.5 475,-427.5 475,-427.5 479.9473,-426.776 475.6516,-431.9526 484.8946,-426.0521 484.8946,-426.0521"/>
<text text-anchor="start" x="482.4285" y="-437.5" font-family="Arial" font-size="10.00" fill="#000000">FOREIGN KEY (image_type_id) REFERENCES game_image_types (id)</text>
</g>
</g>
</svg>
