<?xml version="1.0" encoding="UTF-8" standalone="no"?>
<!DOCTYPE svg PUBLIC "-//W3C//DTD SVG 1.1//EN"
 "http://www.w3.org/Graphics/SVG/1.1/DTD/svg11.dtd">
<!-- Generated by graphviz version 2.40.1 (20161225.0304)
 -->
<!-- Title: game_visibility_types Pages: 1 -->
<svg width="665pt" height="592pt"
 viewBox="0.00 0.00 664.50 592.00" xmlns="http://www.w3.org/2000/svg" xmlns:xlink="http://www.w3.org/1999/xlink">
<g id="graph0" class="graph" transform="scale(1 1) rotate(0) translate(4 588)">
<title>game_visibility_types</title>
<polygon fill="#ffffff" stroke="transparent" points="-4,4 -4,-588 660.5,-588 660.5,4 -4,4"/>
<!-- game_visibility_types -->
<g id="node1" class="node">
<title>game_visibility_types</title>
<polygon fill="#efefef" stroke="transparent" points="330,-135.5 330,-170.5 611,-170.5 611,-135.5 330,-135.5"/>
<polygon fill="none" stroke="#000000" points="330,-135.5 330,-170.5 611,-170.5 611,-135.5 330,-135.5"/>
<text text-anchor="start" x="336.8645" y="-148.3" font-family="Arial Bold" font-size="18.00" fill="#000000">game_visibility_types</text>
<text text-anchor="start" x="506.8817" y="-148.3" font-family="Arial" font-size="14.00" fill="#000000"> </text>
<text text-anchor="start" x="510.7723" y="-148.3" font-family="Arial" font-size="14.00" fill="#666666">[BASE TABLE]</text>
<polygon fill="none" stroke="#000000" points="330,-105.5 330,-135.5 611,-135.5 611,-105.5 330,-105.5"/>
<text text-anchor="start" x="337" y="-116.9" font-family="Arial" font-size="14.00" fill="#000000">id </text>
<text text-anchor="start" x="351.7798" y="-116.9" font-family="Arial" font-size="14.00" fill="#666666">[tinyint(4)]</text>
<polygon fill="none" stroke="#000000" points="330,-75.5 330,-105.5 611,-105.5 611,-75.5 330,-75.5"/>
<text text-anchor="start" x="337" y="-86.9" font-family="Arial" font-size="14.00" fill="#000000">name </text>
<text text-anchor="start" x="375.899" y="-86.9" font-family="Arial" font-size="14.00" fill="#666666">[varchar(32)]</text>
<polygon fill="none" stroke="#000000" points="330,-45.5 330,-75.5 611,-75.5 611,-45.5 330,-45.5"/>
<text text-anchor="start" x="337" y="-56.9" font-family="Arial" font-size="14.00" fill="#000000">created_at </text>
<text text-anchor="start" x="407.028" y="-56.9" font-family="Arial" font-size="14.00" fill="#666666">[datetime]</text>
<polygon fill="none" stroke="#000000" stroke-width="3" points="328,-44.5 328,-172.5 612,-172.5 612,-44.5 328,-44.5"/>
</g>
<!-- games -->
<g id="node2" class="node">
<title>games</title>
<polygon fill="#efefef" stroke="transparent" points="349,-505.5 349,-540.5 592,-540.5 592,-505.5 349,-505.5"/>
<polygon fill="none" stroke="#000000" points="349,-505.5 349,-540.5 592,-540.5 592,-505.5 349,-505.5"/>
<text text-anchor="start" x="394.8677" y="-518.3" font-family="Arial Bold" font-size="18.00" fill="#000000">games</text>
<text text-anchor="start" x="448.8785" y="-518.3" font-family="Arial" font-size="14.00" fill="#000000"> </text>
<text text-anchor="start" x="452.7691" y="-518.3" font-family="Arial" font-size="14.00" fill="#666666">[BASE TABLE]</text>
<polygon fill="none" stroke="#000000" points="349,-475.5 349,-505.5 592,-505.5 592,-475.5 349,-475.5"/>
<text text-anchor="start" x="356" y="-486.9" font-family="Arial" font-size="14.00" fill="#000000">id </text>
<text text-anchor="start" x="370.7798" y="-486.9" font-family="Arial" font-size="14.00" fill="#666666">[varchar(36)]</text>
<polygon fill="none" stroke="#000000" points="349,-445.5 349,-475.5 592,-475.5 592,-445.5 349,-445.5"/>
<text text-anchor="start" x="356" y="-456.9" font-family="Arial" font-size="14.00" fill="#000000">name </text>
<text text-anchor="start" x="394.899" y="-456.9" font-family="Arial" font-size="14.00" fill="#666666">[varchar(256)]</text>
<polygon fill="none" stroke="#000000" points="349,-415.5 349,-445.5 592,-445.5 592,-415.5 349,-415.5"/>
<text text-anchor="start" x="356" y="-426.9" font-family="Arial" font-size="14.00" fill="#000000">description </text>
<text text-anchor="start" x="427.568" y="-426.9" font-family="Arial" font-size="14.00" fill="#666666">[text]</text>
<polygon fill="none" stroke="#000000" points="349,-385.5 349,-415.5 592,-415.5 592,-385.5 349,-385.5"/>
<text text-anchor="start" x="356" y="-396.9" font-family="Arial" font-size="14.00" fill="#000000">created_at </text>
<text text-anchor="start" x="426.028" y="-396.9" font-family="Arial" font-size="14.00" fill="#666666">[datetime]</text>
<polygon fill="none" stroke="#000000" points="349,-355.5 349,-385.5 592,-385.5 592,-355.5 349,-355.5"/>
<text text-anchor="start" x="356" y="-366.9" font-family="Arial" font-size="14.00" fill="#000000">deleted_at </text>
<text text-anchor="start" x="425.2566" y="-366.9" font-family="Arial" font-size="14.00" fill="#666666">[datetime]</text>
<polygon fill="none" stroke="#000000" points="349,-325.5 349,-355.5 592,-355.5 592,-325.5 349,-325.5"/>
<text text-anchor="start" x="356" y="-336.9" font-family="Arial" font-size="14.00" fill="#000000">visibility_type_id </text>
<text text-anchor="start" x="461.007" y="-336.9" font-family="Arial" font-size="14.00" fill="#666666">[tinyint(4)]</text>
<polygon fill="none" stroke="#000000" points="349,-295.5 349,-325.5 592,-325.5 592,-295.5 349,-295.5"/>
<text text-anchor="start" x="355.7371" y="-306.9" font-family="Arial" font-size="14.00" fill="#000000">latest_version_updated_at </text>
<text text-anchor="start" x="523.8029" y="-306.9" font-family="Arial" font-size="14.00" fill="#666666">[datetime]</text>
</g>
<!-- games&#45;&gt;game_visibility_types -->
<g id="edge1" class="edge">
<title>games:visibility_type_id&#45;&gt;game_visibility_types:id</title>
<path fill="none" stroke="#000000" d="M339.3703,-337.5564C297.6496,-311.4499 284.2836,-120.5 330,-120.5"/>
<polygon fill="#000000" stroke="#000000" points="339.4368,-337.5766 347.6845,-344.8034 344.2184,-339.0383 349,-340.5 349,-340.5 349,-340.5 344.2184,-339.0383 350.3155,-336.1966 339.4368,-337.5766 339.4368,-337.5766"/>
<text text-anchor="start" x="7.2205" y="-350.5" font-family="Arial" font-size="10.00" fill="#000000">FOREIGN KEY (visibility_type_id) REFERENCES game_visibility_types (id)</text>
</g>
</g>
</svg>
