<?xml version="1.0" encoding="UTF-8" standalone="no"?>
<!DOCTYPE svg PUBLIC "-//W3C//DTD SVG 1.1//EN"
 "http://www.w3.org/Graphics/SVG/1.1/DTD/svg11.dtd">
<!-- Generated by graphviz version 2.40.1 (20161225.0304)
 -->
<!-- Title: game_file_types Pages: 1 -->
<svg width="724pt" height="562pt"
 viewBox="0.00 0.00 724.00 562.00" xmlns="http://www.w3.org/2000/svg" xmlns:xlink="http://www.w3.org/1999/xlink">
<g id="graph0" class="graph" transform="scale(1 1) rotate(0) translate(4 558)">
<title>game_file_types</title>
<polygon fill="#ffffff" stroke="transparent" points="-4,4 -4,-558 720,-558 720,4 -4,4"/>
<!-- game_file_types -->
<g id="node1" class="node">
<title>game_file_types</title>
<polygon fill="#efefef" stroke="transparent" points="243,-135.5 243,-170.5 485,-170.5 485,-135.5 243,-135.5"/>
<polygon fill="none" stroke="#000000" points="243,-135.5 243,-170.5 485,-170.5 485,-135.5 243,-135.5"/>
<text text-anchor="start" x="249.8558" y="-148.3" font-family="Arial Bold" font-size="18.00" fill="#000000">game_file_types</text>
<text text-anchor="start" x="380.8904" y="-148.3" font-family="Arial" font-size="14.00" fill="#000000"> </text>
<text text-anchor="start" x="384.781" y="-148.3" font-family="Arial" font-size="14.00" fill="#666666">[BASE TABLE]</text>
<polygon fill="none" stroke="#000000" points="243,-105.5 243,-135.5 485,-135.5 485,-105.5 243,-105.5"/>
<text text-anchor="start" x="250" y="-116.9" font-family="Arial" font-size="14.00" fill="#000000">id </text>
<text text-anchor="start" x="264.7798" y="-116.9" font-family="Arial" font-size="14.00" fill="#666666">[tinyint(4)]</text>
<polygon fill="none" stroke="#000000" points="243,-75.5 243,-105.5 485,-105.5 485,-75.5 243,-75.5"/>
<text text-anchor="start" x="250" y="-86.9" font-family="Arial" font-size="14.00" fill="#000000">name </text>
<text text-anchor="start" x="288.899" y="-86.9" font-family="Arial" font-size="14.00" fill="#666666">[varchar(32)]</text>
<polygon fill="none" stroke="#000000" points="243,-45.5 243,-75.5 485,-75.5 485,-45.5 243,-45.5"/>
<text text-anchor="start" x="250" y="-56.9" font-family="Arial" font-size="14.00" fill="#000000">active </text>
<text text-anchor="start" x="290.453" y="-56.9" font-family="Arial" font-size="14.00" fill="#666666">[tinyint(1)]</text>
<polygon fill="none" stroke="#000000" stroke-width="3" points="241.5,-44.5 241.5,-172.5 486.5,-172.5 486.5,-44.5 241.5,-44.5"/>
</g>
<!-- game_files -->
<g id="node2" class="node">
<title>game_files</title>
<polygon fill="#efefef" stroke="transparent" points="103,-475.5 103,-510.5 306,-510.5 306,-475.5 103,-475.5"/>
<polygon fill="none" stroke="#000000" points="103,-475.5 103,-510.5 306,-510.5 306,-475.5 103,-475.5"/>
<text text-anchor="start" x="112.3662" y="-488.3" font-family="Arial Bold" font-size="18.00" fill="#000000">game_files</text>
<text text-anchor="start" x="199.38" y="-488.3" font-family="Arial" font-size="14.00" fill="#000000"> </text>
<text text-anchor="start" x="203.2706" y="-488.3" font-family="Arial" font-size="14.00" fill="#666666">[BASE TABLE]</text>
<polygon fill="none" stroke="#000000" points="103,-445.5 103,-475.5 306,-475.5 306,-445.5 103,-445.5"/>
<text text-anchor="start" x="110" y="-456.9" font-family="Arial" font-size="14.00" fill="#000000">id </text>
<text text-anchor="start" x="124.7798" y="-456.9" font-family="Arial" font-size="14.00" fill="#666666">[varchar(36)]</text>
<polygon fill="none" stroke="#000000" points="103,-415.5 103,-445.5 306,-445.5 306,-415.5 103,-415.5"/>
<text text-anchor="start" x="109.5975" y="-426.9" font-family="Arial" font-size="14.00" fill="#000000">game_version_id </text>
<text text-anchor="start" x="220.0659" y="-426.9" font-family="Arial" font-size="14.00" fill="#666666">[varchar(36)]</text>
<polygon fill="none" stroke="#000000" points="103,-385.5 103,-415.5 306,-415.5 306,-385.5 103,-385.5"/>
<text text-anchor="start" x="110" y="-396.9" font-family="Arial" font-size="14.00" fill="#000000">file_type_id </text>
<text text-anchor="start" x="184.6872" y="-396.9" font-family="Arial" font-size="14.00" fill="#666666">[tinyint(4)]</text>
<polygon fill="none" stroke="#000000" points="103,-355.5 103,-385.5 306,-385.5 306,-355.5 103,-355.5"/>
<text text-anchor="start" x="110" y="-366.9" font-family="Arial" font-size="14.00" fill="#000000">hash </text>
<text text-anchor="start" x="144.2384" y="-366.9" font-family="Arial" font-size="14.00" fill="#666666">[char(32)]</text>
<polygon fill="none" stroke="#000000" points="103,-325.5 103,-355.5 306,-355.5 306,-325.5 103,-325.5"/>
<text text-anchor="start" x="110" y="-336.9" font-family="Arial" font-size="14.00" fill="#000000">entry_point </text>
<text text-anchor="start" x="183.1346" y="-336.9" font-family="Arial" font-size="14.00" fill="#666666">[text]</text>
<polygon fill="none" stroke="#000000" points="103,-295.5 103,-325.5 306,-325.5 306,-295.5 103,-295.5"/>
<text text-anchor="start" x="110" y="-306.9" font-family="Arial" font-size="14.00" fill="#000000">created_at </text>
<text text-anchor="start" x="180.028" y="-306.9" font-family="Arial" font-size="14.00" fill="#666666">[datetime]</text>
</g>
<!-- game_files&#45;&gt;game_file_types -->
<g id="edge1" class="edge">
<title>game_files:file_type_id&#45;&gt;game_file_types:id</title>
<path fill="none" stroke="#000000" d="M316.2119,-399.6488C367.8559,-390.3234 337.0404,-306.4882 306,-253 289.8133,-225.1075 259.1867,-244.8925 243,-217 221.4729,-179.905 200.1111,-120.5 243,-120.5"/>
<polygon fill="#000000" stroke="#000000" points="315.9654,-399.6692 305.6262,-396.0156 310.9827,-400.0846 306,-400.5 306,-400.5 306,-400.5 310.9827,-400.0846 306.3738,-404.9844 315.9654,-399.6692 315.9654,-399.6692"/>
<text text-anchor="start" x="6.8775" y="-410.5" font-family="Arial" font-size="10.00" fill="#000000">FOREIGN KEY (file_type_id) REFERENCES game_file_types (id)</text>
</g>
<!-- v2_game_files -->
<g id="node3" class="node">
<title>v2_game_files</title>
<polygon fill="#efefef" stroke="transparent" points="410,-475.5 410,-510.5 637,-510.5 637,-475.5 410,-475.5"/>
<polygon fill="none" stroke="#000000" points="410,-475.5 410,-510.5 637,-510.5 637,-475.5 410,-475.5"/>
<text text-anchor="start" x="416.86" y="-488.3" font-family="Arial Bold" font-size="18.00" fill="#000000">v2_game_files</text>
<text text-anchor="start" x="532.8862" y="-488.3" font-family="Arial" font-size="14.00" fill="#000000"> </text>
<text text-anchor="start" x="536.7768" y="-488.3" font-family="Arial" font-size="14.00" fill="#666666">[BASE TABLE]</text>
<polygon fill="none" stroke="#000000" points="410,-445.5 410,-475.5 637,-475.5 637,-445.5 410,-445.5"/>
<text text-anchor="start" x="417" y="-456.9" font-family="Arial" font-size="14.00" fill="#000000">id </text>
<text text-anchor="start" x="431.7798" y="-456.9" font-family="Arial" font-size="14.00" fill="#666666">[varchar(36)]</text>
<polygon fill="none" stroke="#000000" points="410,-415.5 410,-445.5 637,-445.5 637,-415.5 410,-415.5"/>
<text text-anchor="start" x="417" y="-426.9" font-family="Arial" font-size="14.00" fill="#000000">game_id </text>
<text text-anchor="start" x="474.5708" y="-426.9" font-family="Arial" font-size="14.00" fill="#666666">[varchar(36)]</text>
<polygon fill="none" stroke="#000000" points="410,-385.5 410,-415.5 637,-415.5 637,-385.5 410,-385.5"/>
<text text-anchor="start" x="417" y="-396.9" font-family="Arial" font-size="14.00" fill="#000000">file_type_id </text>
<text text-anchor="start" x="491.6872" y="-396.9" font-family="Arial" font-size="14.00" fill="#666666">[tinyint(4)]</text>
<polygon fill="none" stroke="#000000" points="410,-355.5 410,-385.5 637,-385.5 637,-355.5 410,-355.5"/>
<text text-anchor="start" x="417" y="-366.9" font-family="Arial" font-size="14.00" fill="#000000">hash </text>
<text text-anchor="start" x="451.2384" y="-366.9" font-family="Arial" font-size="14.00" fill="#666666">[char(32)]</text>
<polygon fill="none" stroke="#000000" points="410,-325.5 410,-355.5 637,-355.5 637,-325.5 410,-325.5"/>
<text text-anchor="start" x="417" y="-336.9" font-family="Arial" font-size="14.00" fill="#000000">entry_point </text>
<text text-anchor="start" x="490.1346" y="-336.9" font-family="Arial" font-size="14.00" fill="#666666">[text]</text>
<polygon fill="none" stroke="#000000" points="410,-295.5 410,-325.5 637,-325.5 637,-295.5 410,-295.5"/>
<text text-anchor="start" x="417" y="-306.9" font-family="Arial" font-size="14.00" fill="#000000">created_at </text>
<text text-anchor="start" x="487.028" y="-306.9" font-family="Arial" font-size="14.00" fill="#666666">[datetime]</text>
</g>
<!-- v2_game_files&#45;&gt;game_file_types -->
<g id="edge2" class="edge">
<title>v2_game_files:file_type_id&#45;&gt;game_file_types:id</title>
<path fill="none" stroke="#000000" d="M399.7698,-399.6378C347.9294,-390.1936 377.0644,-305.3424 410,-253 429.6916,-221.7054 465.3084,-248.2946 485,-217 507.8415,-180.6995 527.8889,-120.5 485,-120.5"/>
<polygon fill="#000000" stroke="#000000" points="400.0353,-399.6601 409.622,-404.9841 405.0177,-400.08 410,-400.5 410,-400.5 410,-400.5 405.0177,-400.08 410.378,-396.0159 400.0353,-399.6601 400.0353,-399.6601"/>
<text text-anchor="start" x="416.8775" y="-410.5" font-family="Arial" font-size="10.00" fill="#000000">FOREIGN KEY (file_type_id) REFERENCES game_file_types (id)</text>
</g>
</g>
</svg>
