<?xml version="1.0" encoding="UTF-8" standalone="no"?>
<!DOCTYPE svg PUBLIC "-//W3C//DTD SVG 1.1//EN"
 "http://www.w3.org/Graphics/SVG/1.1/DTD/svg11.dtd">
<!-- Generated by graphviz version 2.40.1 (20161225.0304)
 -->
<!-- Title: game_version_game_file_relations Pages: 1 -->
<svg width="786pt" height="592pt"
 viewBox="0.00 0.00 786.29 592.00" xmlns="http://www.w3.org/2000/svg" xmlns:xlink="http://www.w3.org/1999/xlink">
<g id="graph0" class="graph" transform="scale(1 1) rotate(0) translate(4 588)">
<title>game_version_game_file_relations</title>
<polygon fill="#ffffff" stroke="transparent" points="-4,4 -4,-588 782.2875,-588 782.2875,4 -4,4"/>
<!-- game_version_game_file_relations -->
<g id="node1" class="node">
<title>game_version_game_file_relations</title>
<polygon fill="#efefef" stroke="transparent" points="46,-502.5 46,-537.5 436,-537.5 436,-502.5 46,-502.5"/>
<polygon fill="none" stroke="#000000" points="46,-502.5 46,-537.5 436,-537.5 436,-502.5 46,-502.5"/>
<text text-anchor="start" x="52.8452" y="-515.3" font-family="Arial Bold" font-size="18.00" fill="#000000">game_version_game_file_relations</text>
<text text-anchor="start" x="331.901" y="-515.3" font-family="Arial" font-size="14.00" fill="#000000"> </text>
<text text-anchor="start" x="335.7916" y="-515.3" font-family="Arial" font-size="14.00" fill="#666666">[BASE TABLE]</text>
<polygon fill="none" stroke="#000000" points="46,-472.5 46,-502.5 436,-502.5 436,-472.5 46,-472.5"/>
<text text-anchor="start" x="53" y="-483.9" font-family="Arial" font-size="14.00" fill="#000000">game_version_id </text>
<text text-anchor="start" x="163.4684" y="-483.9" font-family="Arial" font-size="14.00" fill="#666666">[varchar(36)]</text>
<polygon fill="none" stroke="#000000" points="46,-442.5 46,-472.5 436,-472.5 436,-442.5 46,-442.5"/>
<text text-anchor="start" x="53" y="-453.9" font-family="Arial" font-size="14.00" fill="#000000">game_file_id </text>
<text text-anchor="start" x="136.2398" y="-453.9" font-family="Arial" font-size="14.00" fill="#666666">[varchar(36)]</text>
<polygon fill="none" stroke="#000000" stroke-width="3" points="44.5,-441.5 44.5,-539.5 437.5,-539.5 437.5,-441.5 44.5,-441.5"/>
</g>
<!-- v2_game_versions -->
<g id="node2" class="node">
<title>v2_game_versions</title>
<polygon fill="#efefef" stroke="transparent" points="110,-282.5 110,-317.5 372,-317.5 372,-282.5 110,-282.5"/>
<polygon fill="none" stroke="#000000" points="110,-282.5 110,-317.5 372,-317.5 372,-282.5 110,-282.5"/>
<text text-anchor="start" x="116.8559" y="-295.3" font-family="Arial Bold" font-size="18.00" fill="#000000">v2_game_versions</text>
<text text-anchor="start" x="267.8903" y="-295.3" font-family="Arial" font-size="14.00" fill="#000000"> </text>
<text text-anchor="start" x="271.7809" y="-295.3" font-family="Arial" font-size="14.00" fill="#666666">[BASE TABLE]</text>
<polygon fill="none" stroke="#000000" points="110,-252.5 110,-282.5 372,-282.5 372,-252.5 110,-252.5"/>
<text text-anchor="start" x="117" y="-263.9" font-family="Arial" font-size="14.00" fill="#000000">id </text>
<text text-anchor="start" x="131.7798" y="-263.9" font-family="Arial" font-size="14.00" fill="#666666">[varchar(36)]</text>
<polygon fill="none" stroke="#000000" points="110,-222.5 110,-252.5 372,-252.5 372,-222.5 110,-222.5"/>
<text text-anchor="start" x="117" y="-233.9" font-family="Arial" font-size="14.00" fill="#000000">game_id </text>
<text text-anchor="start" x="174.5708" y="-233.9" font-family="Arial" font-size="14.00" fill="#666666">[varchar(36)]</text>
<polygon fill="none" stroke="#000000" points="110,-192.5 110,-222.5 372,-222.5 372,-192.5 110,-192.5"/>
<text text-anchor="start" x="117" y="-203.9" font-family="Arial" font-size="14.00" fill="#000000">game_image_id </text>
<text text-anchor="start" x="220.4684" y="-203.9" font-family="Arial" font-size="14.00" fill="#666666">[varchar(36)]</text>
<polygon fill="none" stroke="#000000" points="110,-162.5 110,-192.5 372,-192.5 372,-162.5 110,-162.5"/>
<text text-anchor="start" x="117" y="-173.9" font-family="Arial" font-size="14.00" fill="#000000">game_video_id </text>
<text text-anchor="start" x="215.8078" y="-173.9" font-family="Arial" font-size="14.00" fill="#666666">[varchar(36)]</text>
<polygon fill="none" stroke="#000000" points="110,-132.5 110,-162.5 372,-162.5 372,-132.5 110,-132.5"/>
<text text-anchor="start" x="117" y="-143.9" font-family="Arial" font-size="14.00" fill="#000000">name </text>
<text text-anchor="start" x="155.899" y="-143.9" font-family="Arial" font-size="14.00" fill="#666666">[varchar(32)]</text>
<polygon fill="none" stroke="#000000" points="110,-102.5 110,-132.5 372,-132.5 372,-102.5 110,-102.5"/>
<text text-anchor="start" x="117" y="-113.9" font-family="Arial" font-size="14.00" fill="#000000">description </text>
<text text-anchor="start" x="188.568" y="-113.9" font-family="Arial" font-size="14.00" fill="#666666">[text]</text>
<polygon fill="none" stroke="#000000" points="110,-72.5 110,-102.5 372,-102.5 372,-72.5 110,-72.5"/>
<text text-anchor="start" x="117" y="-83.9" font-family="Arial" font-size="14.00" fill="#000000">created_at </text>
<text text-anchor="start" x="187.028" y="-83.9" font-family="Arial" font-size="14.00" fill="#666666">[datetime]</text>
<polygon fill="none" stroke="#000000" points="110,-42.5 110,-72.5 372,-72.5 372,-42.5 110,-42.5"/>
<text text-anchor="start" x="117" y="-53.9" font-family="Arial" font-size="14.00" fill="#000000">url </text>
<text text-anchor="start" x="136.4404" y="-53.9" font-family="Arial" font-size="14.00" fill="#666666">[text]</text>
</g>
<!-- game_version_game_file_relations&#45;&gt;v2_game_versions -->
<g id="edge1" class="edge">
<title>game_version_game_file_relations:game_version_id&#45;&gt;v2_game_versions:id</title>
<path fill="none" stroke="#000000" d="M445.7104,-484.6312C458.9167,-473.3033 434.8635,-430.6596 427,-397 423.3487,-381.3707 379.0502,-267.5 372,-267.5"/>
<polygon fill="#000000" stroke="#000000" points="445.5902,-484.6667 434.725,-483.1844 440.7951,-486.0833 436,-487.5 436,-487.5 436,-487.5 440.7951,-486.0833 437.275,-491.8156 445.5902,-484.6667 445.5902,-484.6667"/>
<text text-anchor="start" x="442.543" y="-497.5" font-family="Arial" font-size="10.00" fill="#000000">FOREIGN KEY (game_version_id) REFERENCES v2_game_versions (id)</text>
</g>
<!-- game_version_game_file_relations&#45;&gt;v2_game_versions -->
<g id="edge2" class="edge">
<title>game_version_game_file_relations:game_version_id&#45;&gt;v2_game_versions:id</title>
<path fill="none" stroke="#000000" d="M446.3157,-486.5487C480.3954,-479.3722 453.4189,-433.0371 445,-397 441.363,-381.4317 397.3956,-268.3881 372.2944,-267.5052"/>
<polygon fill="#000000" stroke="#000000" points="446.2429,-486.5555 435.8627,-483.0195 441.2652,-487.0275 436.2875,-487.4994 436.2875,-487.4994 436.2875,-487.4994 441.2652,-487.0275 436.7123,-491.9793 446.2429,-486.5555 446.2429,-486.5555"/>
<text text-anchor="start" x="442.8305" y="-471.4994" font-family="Arial" font-size="10.00" fill="#000000">FOREIGN KEY (game_version_id) REFERENCES v2_game_versions (id)</text>
</g>
<!-- v2_game_files -->
<g id="node3" class="node">
<title>v2_game_files</title>
<polygon fill="#efefef" stroke="transparent" points="477,-252.5 477,-287.5 704,-287.5 704,-252.5 477,-252.5"/>
<polygon fill="none" stroke="#000000" points="477,-252.5 477,-287.5 704,-287.5 704,-252.5 477,-252.5"/>
<text text-anchor="start" x="483.86" y="-265.3" font-family="Arial Bold" font-size="18.00" fill="#000000">v2_game_files</text>
<text text-anchor="start" x="599.8862" y="-265.3" font-family="Arial" font-size="14.00" fill="#000000"> </text>
<text text-anchor="start" x="603.7768" y="-265.3" font-family="Arial" font-size="14.00" fill="#666666">[BASE TABLE]</text>
<polygon fill="none" stroke="#000000" points="477,-222.5 477,-252.5 704,-252.5 704,-222.5 477,-222.5"/>
<text text-anchor="start" x="484" y="-233.9" font-family="Arial" font-size="14.00" fill="#000000">id </text>
<text text-anchor="start" x="498.7798" y="-233.9" font-family="Arial" font-size="14.00" fill="#666666">[varchar(36)]</text>
<polygon fill="none" stroke="#000000" points="477,-192.5 477,-222.5 704,-222.5 704,-192.5 477,-192.5"/>
<text text-anchor="start" x="484" y="-203.9" font-family="Arial" font-size="14.00" fill="#000000">game_id </text>
<text text-anchor="start" x="541.5708" y="-203.9" font-family="Arial" font-size="14.00" fill="#666666">[varchar(36)]</text>
<polygon fill="none" stroke="#000000" points="477,-162.5 477,-192.5 704,-192.5 704,-162.5 477,-162.5"/>
<text text-anchor="start" x="484" y="-173.9" font-family="Arial" font-size="14.00" fill="#000000">file_type_id </text>
<text text-anchor="start" x="558.6872" y="-173.9" font-family="Arial" font-size="14.00" fill="#666666">[tinyint(4)]</text>
<polygon fill="none" stroke="#000000" points="477,-132.5 477,-162.5 704,-162.5 704,-132.5 477,-132.5"/>
<text text-anchor="start" x="484" y="-143.9" font-family="Arial" font-size="14.00" fill="#000000">hash </text>
<text text-anchor="start" x="518.2384" y="-143.9" font-family="Arial" font-size="14.00" fill="#666666">[char(32)]</text>
<polygon fill="none" stroke="#000000" points="477,-102.5 477,-132.5 704,-132.5 704,-102.5 477,-102.5"/>
<text text-anchor="start" x="484" y="-113.9" font-family="Arial" font-size="14.00" fill="#000000">entry_point </text>
<text text-anchor="start" x="557.1346" y="-113.9" font-family="Arial" font-size="14.00" fill="#666666">[text]</text>
<polygon fill="none" stroke="#000000" points="477,-72.5 477,-102.5 704,-102.5 704,-72.5 477,-72.5"/>
<text text-anchor="start" x="484" y="-83.9" font-family="Arial" font-size="14.00" fill="#000000">created_at </text>
<text text-anchor="start" x="554.028" y="-83.9" font-family="Arial" font-size="14.00" fill="#666666">[datetime]</text>
</g>
<!-- game_version_game_file_relations&#45;&gt;v2_game_files -->
<g id="edge3" class="edge">
<title>game_version_game_file_relations:game_file_id&#45;&gt;v2_game_files:id</title>
<path fill="none" stroke="#000000" d="M446.0358,-456.6136C524.0949,-441.4748 381.2297,-237.5 477,-237.5"/>
<polygon fill="#000000" stroke="#000000" points="445.9612,-456.6201 435.604,-453.0175 440.9806,-457.06 436,-457.5 436,-457.5 436,-457.5 440.9806,-457.06 436.396,-461.9825 445.9612,-456.6201 445.9612,-456.6201"/>
<text text-anchor="start" x="442.992" y="-441.5" font-family="Arial" font-size="10.00" fill="#000000">FOREIGN KEY (game_file_id) REFERENCES v2_game_files (id)</text>
</g>
</g>
</svg>
