<?xml version="1.0" encoding="UTF-8" standalone="no"?>
<!DOCTYPE svg PUBLIC "-//W3C//DTD SVG 1.1//EN"
 "http://www.w3.org/Graphics/SVG/1.1/DTD/svg11.dtd">
<!-- Generated by graphviz version 2.40.1 (20161225.0304)
 -->
<!-- Title: game_files Pages: 1 -->
<svg width="843pt" height="622pt"
 viewBox="0.00 0.00 843.00 622.00" xmlns="http://www.w3.org/2000/svg" xmlns:xlink="http://www.w3.org/1999/xlink">
<g id="graph0" class="graph" transform="scale(1 1) rotate(0) translate(4 618)">
<title>game_files</title>
<polygon fill="#ffffff" stroke="transparent" points="-4,4 -4,-618 839,-618 839,4 -4,4"/>
<!-- game_files -->
<g id="node1" class="node">
<title>game_files</title>
<polygon fill="#efefef" stroke="transparent" points="326,-532.5 326,-567.5 529,-567.5 529,-532.5 326,-532.5"/>
<polygon fill="none" stroke="#000000" points="326,-532.5 326,-567.5 529,-567.5 529,-532.5 326,-532.5"/>
<text text-anchor="start" x="335.3662" y="-545.3" font-family="Arial Bold" font-size="18.00" fill="#000000">game_files</text>
<text text-anchor="start" x="422.38" y="-545.3" font-family="Arial" font-size="14.00" fill="#000000"> </text>
<text text-anchor="start" x="426.2706" y="-545.3" font-family="Arial" font-size="14.00" fill="#666666">[BASE TABLE]</text>
<polygon fill="none" stroke="#000000" points="326,-502.5 326,-532.5 529,-532.5 529,-502.5 326,-502.5"/>
<text text-anchor="start" x="333" y="-513.9" font-family="Arial" font-size="14.00" fill="#000000">id </text>
<text text-anchor="start" x="347.7798" y="-513.9" font-family="Arial" font-size="14.00" fill="#666666">[varchar(36)]</text>
<polygon fill="none" stroke="#000000" points="326,-472.5 326,-502.5 529,-502.5 529,-472.5 326,-472.5"/>
<text text-anchor="start" x="332.5975" y="-483.9" font-family="Arial" font-size="14.00" fill="#000000">game_version_id </text>
<text text-anchor="start" x="443.0659" y="-483.9" font-family="Arial" font-size="14.00" fill="#666666">[varchar(36)]</text>
<polygon fill="none" stroke="#000000" points="326,-442.5 326,-472.5 529,-472.5 529,-442.5 326,-442.5"/>
<text text-anchor="start" x="333" y="-453.9" font-family="Arial" font-size="14.00" fill="#000000">file_type_id </text>
<text text-anchor="start" x="407.6872" y="-453.9" font-family="Arial" font-size="14.00" fill="#666666">[tinyint(4)]</text>
<polygon fill="none" stroke="#000000" points="326,-412.5 326,-442.5 529,-442.5 529,-412.5 326,-412.5"/>
<text text-anchor="start" x="333" y="-423.9" font-family="Arial" font-size="14.00" fill="#000000">hash </text>
<text text-anchor="start" x="367.2384" y="-423.9" font-family="Arial" font-size="14.00" fill="#666666">[char(32)]</text>
<polygon fill="none" stroke="#000000" points="326,-382.5 326,-412.5 529,-412.5 529,-382.5 326,-382.5"/>
<text text-anchor="start" x="333" y="-393.9" font-family="Arial" font-size="14.00" fill="#000000">entry_point </text>
<text text-anchor="start" x="406.1346" y="-393.9" font-family="Arial" font-size="14.00" fill="#666666">[text]</text>
<polygon fill="none" stroke="#000000" points="326,-352.5 326,-382.5 529,-382.5 529,-352.5 326,-352.5"/>
<text text-anchor="start" x="333" y="-363.9" font-family="Arial" font-size="14.00" fill="#000000">created_at </text>
<text text-anchor="start" x="403.028" y="-363.9" font-family="Arial" font-size="14.00" fill="#666666">[datetime]</text>
<polygon fill="none" stroke="#000000" stroke-width="3" points="324,-351.5 324,-569.5 530,-569.5 530,-351.5 324,-351.5"/>
</g>
<!-- game_versions -->
<g id="node2" class="node">
<title>game_versions</title>
<polygon fill="#efefef" stroke="transparent" points="141,-192.5 141,-227.5 374,-227.5 374,-192.5 141,-192.5"/>
<polygon fill="none" stroke="#000000" points="141,-192.5 141,-227.5 374,-227.5 374,-192.5 141,-192.5"/>
<text text-anchor="start" x="147.8621" y="-205.3" font-family="Arial Bold" font-size="18.00" fill="#000000">game_versions</text>
<text text-anchor="start" x="269.8841" y="-205.3" font-family="Arial" font-size="14.00" fill="#000000"> </text>
<text text-anchor="start" x="273.7747" y="-205.3" font-family="Arial" font-size="14.00" fill="#666666">[BASE TABLE]</text>
<polygon fill="none" stroke="#000000" points="141,-162.5 141,-192.5 374,-192.5 374,-162.5 141,-162.5"/>
<text text-anchor="start" x="148" y="-173.9" font-family="Arial" font-size="14.00" fill="#000000">id </text>
<text text-anchor="start" x="162.7798" y="-173.9" font-family="Arial" font-size="14.00" fill="#666666">[varchar(36)]</text>
<polygon fill="none" stroke="#000000" points="141,-132.5 141,-162.5 374,-162.5 374,-132.5 141,-132.5"/>
<text text-anchor="start" x="148" y="-143.9" font-family="Arial" font-size="14.00" fill="#000000">game_id </text>
<text text-anchor="start" x="205.5708" y="-143.9" font-family="Arial" font-size="14.00" fill="#666666">[varchar(36)]</text>
<polygon fill="none" stroke="#000000" points="141,-102.5 141,-132.5 374,-132.5 374,-102.5 141,-102.5"/>
<text text-anchor="start" x="148" y="-113.9" font-family="Arial" font-size="14.00" fill="#000000">name </text>
<text text-anchor="start" x="186.899" y="-113.9" font-family="Arial" font-size="14.00" fill="#666666">[varchar(32)]</text>
<polygon fill="none" stroke="#000000" points="141,-72.5 141,-102.5 374,-102.5 374,-72.5 141,-72.5"/>
<text text-anchor="start" x="148" y="-83.9" font-family="Arial" font-size="14.00" fill="#000000">description </text>
<text text-anchor="start" x="219.568" y="-83.9" font-family="Arial" font-size="14.00" fill="#666666">[text]</text>
<polygon fill="none" stroke="#000000" points="141,-42.5 141,-72.5 374,-72.5 374,-42.5 141,-42.5"/>
<text text-anchor="start" x="148" y="-53.9" font-family="Arial" font-size="14.00" fill="#000000">created_at </text>
<text text-anchor="start" x="218.028" y="-53.9" font-family="Arial" font-size="14.00" fill="#666666">[datetime]</text>
</g>
<!-- game_files&#45;&gt;game_versions -->
<g id="edge1" class="edge">
<title>game_files:game_version_id&#45;&gt;game_versions:id</title>
<path fill="none" stroke="#000000" d="M315.9309,-486.8549C249.7449,-477.8044 291.7352,-375.5297 326,-307 337.9257,-283.1486 362.0743,-294.8514 374,-271 392.5842,-233.8316 415.5556,-177.5 374,-177.5"/>
<polygon fill="#000000" stroke="#000000" points="316.0205,-486.8605 325.7122,-491.9908 321.0102,-487.1803 326,-487.5 326,-487.5 326,-487.5 321.0102,-487.1803 326.2878,-483.0092 316.0205,-486.8605 316.0205,-486.8605"/>
<text text-anchor="start" x="6.602" y="-497.5" font-family="Arial" font-size="10.00" fill="#000000">FOREIGN KEY (game_version_id) REFERENCES game_versions (id)</text>
</g>
<!-- game_file_types -->
<g id="node3" class="node">
<title>game_file_types</title>
<polygon fill="#efefef" stroke="transparent" points="478,-162.5 478,-197.5 720,-197.5 720,-162.5 478,-162.5"/>
<polygon fill="none" stroke="#000000" points="478,-162.5 478,-197.5 720,-197.5 720,-162.5 478,-162.5"/>
<text text-anchor="start" x="484.8558" y="-175.3" font-family="Arial Bold" font-size="18.00" fill="#000000">game_file_types</text>
<text text-anchor="start" x="615.8904" y="-175.3" font-family="Arial" font-size="14.00" fill="#000000"> </text>
<text text-anchor="start" x="619.781" y="-175.3" font-family="Arial" font-size="14.00" fill="#666666">[BASE TABLE]</text>
<polygon fill="none" stroke="#000000" points="478,-132.5 478,-162.5 720,-162.5 720,-132.5 478,-132.5"/>
<text text-anchor="start" x="485" y="-143.9" font-family="Arial" font-size="14.00" fill="#000000">id </text>
<text text-anchor="start" x="499.7798" y="-143.9" font-family="Arial" font-size="14.00" fill="#666666">[tinyint(4)]</text>
<polygon fill="none" stroke="#000000" points="478,-102.5 478,-132.5 720,-132.5 720,-102.5 478,-102.5"/>
<text text-anchor="start" x="485" y="-113.9" font-family="Arial" font-size="14.00" fill="#000000">name </text>
<text text-anchor="start" x="523.899" y="-113.9" font-family="Arial" font-size="14.00" fill="#666666">[varchar(32)]</text>
<polygon fill="none" stroke="#000000" points="478,-72.5 478,-102.5 720,-102.5 720,-72.5 478,-72.5"/>
<text text-anchor="start" x="485" y="-83.9" font-family="Arial" font-size="14.00" fill="#000000">active </text>
<text text-anchor="start" x="525.453" y="-83.9" font-family="Arial" font-size="14.00" fill="#666666">[tinyint(1)]</text>
</g>
<!-- game_files&#45;&gt;game_file_types -->
<g id="edge2" class="edge">
<title>game_files:file_type_id&#45;&gt;game_file_types:id</title>
<path fill="none" stroke="#000000" d="M538.9898,-456.7358C591.0071,-448.0342 549.4264,-366.8407 529,-307 517.0246,-271.9171 489.9754,-276.0829 478,-241 464.5757,-201.6725 436.4444,-147.5 478,-147.5"/>
<polygon fill="#000000" stroke="#000000" points="538.9709,-456.7372 528.6567,-453.0131 533.9854,-457.1186 529,-457.5 529,-457.5 529,-457.5 533.9854,-457.1186 529.3433,-461.9869 538.9709,-456.7372 538.9709,-456.7372"/>
<text text-anchor="start" x="535.8775" y="-467.5" font-family="Arial" font-size="10.00" fill="#000000">FOREIGN KEY (file_type_id) REFERENCES game_file_types (id)</text>
</g>
</g>
</svg>
