<?xml version="1.0" encoding="UTF-8" standalone="no"?>
<!DOCTYPE svg PUBLIC "-//W3C//DTD SVG 1.1//EN"
 "http://www.w3.org/Graphics/SVG/1.1/DTD/svg11.dtd">
<!-- Generated by graphviz version 2.40.1 (20161225.0304)
 -->
<!-- Title: games Pages: 1 -->
<svg width="3321pt" height="899pt"
 viewBox="0.00 0.00 3320.50 899.00" xmlns="http://www.w3.org/2000/svg" xmlns:xlink="http://www.w3.org/1999/xlink">
<g id="graph0" class="graph" transform="scale(1 1) rotate(0) translate(4 895)">
<title>games</title>
<polygon fill="#ffffff" stroke="transparent" points="-4,4 -4,-895 3316.5,-895 3316.5,4 -4,4"/>
<!-- games -->
<g id="node1" class="node">
<title>games</title>
<polygon fill="#efefef" stroke="transparent" points="1217,-472.5 1217,-507.5 1397,-507.5 1397,-472.5 1217,-472.5"/>
<polygon fill="none" stroke="#000000" points="1217,-472.5 1217,-507.5 1397,-507.5 1397,-472.5 1217,-472.5"/>
<text text-anchor="start" x="1231.3677" y="-485.3" font-family="Arial Bold" font-size="18.00" fill="#000000">games</text>
<text text-anchor="start" x="1285.3785" y="-485.3" font-family="Arial" font-size="14.00" fill="#000000"> </text>
<text text-anchor="start" x="1289.2691" y="-485.3" font-family="Arial" font-size="14.00" fill="#666666">[BASE TABLE]</text>
<polygon fill="none" stroke="#000000" points="1217,-442.5 1217,-472.5 1397,-472.5 1397,-442.5 1217,-442.5"/>
<text text-anchor="start" x="1224" y="-453.9" font-family="Arial" font-size="14.00" fill="#000000">id </text>
<text text-anchor="start" x="1238.7798" y="-453.9" font-family="Arial" font-size="14.00" fill="#666666">[varchar(36)]</text>
<polygon fill="none" stroke="#000000" points="1217,-412.5 1217,-442.5 1397,-442.5 1397,-412.5 1217,-412.5"/>
<text text-anchor="start" x="1224" y="-423.9" font-family="Arial" font-size="14.00" fill="#000000">name </text>
<text text-anchor="start" x="1262.899" y="-423.9" font-family="Arial" font-size="14.00" fill="#666666">[varchar(256)]</text>
<polygon fill="none" stroke="#000000" points="1217,-382.5 1217,-412.5 1397,-412.5 1397,-382.5 1217,-382.5"/>
<text text-anchor="start" x="1224" y="-393.9" font-family="Arial" font-size="14.00" fill="#000000">description </text>
<text text-anchor="start" x="1295.568" y="-393.9" font-family="Arial" font-size="14.00" fill="#666666">[text]</text>
<polygon fill="none" stroke="#000000" points="1217,-352.5 1217,-382.5 1397,-382.5 1397,-352.5 1217,-352.5"/>
<text text-anchor="start" x="1224" y="-363.9" font-family="Arial" font-size="14.00" fill="#000000">created_at </text>
<text text-anchor="start" x="1294.028" y="-363.9" font-family="Arial" font-size="14.00" fill="#666666">[datetime]</text>
<polygon fill="none" stroke="#000000" points="1217,-322.5 1217,-352.5 1397,-352.5 1397,-322.5 1217,-322.5"/>
<text text-anchor="start" x="1224" y="-333.9" font-family="Arial" font-size="14.00" fill="#000000">deleted_at </text>
<text text-anchor="start" x="1293.2566" y="-333.9" font-family="Arial" font-size="14.00" fill="#666666">[datetime]</text>
<polygon fill="none" stroke="#000000" points="1217,-292.5 1217,-322.5 1397,-322.5 1397,-292.5 1217,-292.5"/>
<text text-anchor="start" x="1223.7742" y="-303.9" font-family="Arial" font-size="14.00" fill="#000000">visibility_type_id </text>
<text text-anchor="start" x="1328.7812" y="-303.9" font-family="Arial" font-size="14.00" fill="#666666">[tinyint(4)]</text>
<polygon fill="none" stroke="#000000" stroke-width="3" points="1215.5,-291.5 1215.5,-509.5 1398.5,-509.5 1398.5,-291.5 1215.5,-291.5"/>
</g>
<!-- game_visibility_types -->
<g id="node11" class="node">
<title>game_visibility_types</title>
<polygon fill="#efefef" stroke="transparent" points="1166,-132.5 1166,-167.5 1447,-167.5 1447,-132.5 1166,-132.5"/>
<polygon fill="none" stroke="#000000" points="1166,-132.5 1166,-167.5 1447,-167.5 1447,-132.5 1166,-132.5"/>
<text text-anchor="start" x="1172.8645" y="-145.3" font-family="Arial Bold" font-size="18.00" fill="#000000">game_visibility_types</text>
<text text-anchor="start" x="1342.8817" y="-145.3" font-family="Arial" font-size="14.00" fill="#000000"> </text>
<text text-anchor="start" x="1346.7723" y="-145.3" font-family="Arial" font-size="14.00" fill="#666666">[BASE TABLE]</text>
<polygon fill="none" stroke="#000000" points="1166,-102.5 1166,-132.5 1447,-132.5 1447,-102.5 1166,-102.5"/>
<text text-anchor="start" x="1173" y="-113.9" font-family="Arial" font-size="14.00" fill="#000000">id </text>
<text text-anchor="start" x="1187.7798" y="-113.9" font-family="Arial" font-size="14.00" fill="#666666">[tinyint(4)]</text>
<polygon fill="none" stroke="#000000" points="1166,-72.5 1166,-102.5 1447,-102.5 1447,-72.5 1166,-72.5"/>
<text text-anchor="start" x="1173" y="-83.9" font-family="Arial" font-size="14.00" fill="#000000">name </text>
<text text-anchor="start" x="1211.899" y="-83.9" font-family="Arial" font-size="14.00" fill="#666666">[varchar(32)]</text>
<polygon fill="none" stroke="#000000" points="1166,-42.5 1166,-72.5 1447,-72.5 1447,-42.5 1166,-42.5"/>
<text text-anchor="start" x="1173" y="-53.9" font-family="Arial" font-size="14.00" fill="#000000">created_at </text>
<text text-anchor="start" x="1243.028" y="-53.9" font-family="Arial" font-size="14.00" fill="#666666">[datetime]</text>
</g>
<!-- games&#45;&gt;game_visibility_types -->
<g id="edge12" class="edge">
<title>games:visibility_type_id&#45;&gt;game_visibility_types:id</title>
<path fill="none" stroke="#000000" d="M1307.7829,-282.4665C1317.398,-225.5791 1412.9355,-270.2466 1447,-211 1467.7132,-174.9746 1488.5556,-117.5 1447,-117.5"/>
<polygon fill="#000000" stroke="#000000" points="1307.778,-282.5303 1302.5136,-292.1499 1307.389,-287.5152 1307,-292.5 1307,-292.5 1307,-292.5 1307.389,-287.5152 1311.4864,-292.8501 1307.778,-282.5303 1307.778,-282.5303"/>
<text text-anchor="start" x="965.2205" y="-302.5" font-family="Arial" font-size="10.00" fill="#000000">FOREIGN KEY (visibility_type_id) REFERENCES game_visibility_types (id)</text>
</g>
<!-- game_genre_relations -->
<g id="node2" class="node">
<title>game_genre_relations</title>
<polygon fill="#efefef" stroke="transparent" points="43,-752.5 43,-787.5 333,-787.5 333,-752.5 43,-752.5"/>
<polygon fill="none" stroke="#000000" points="43,-752.5 43,-787.5 333,-787.5 333,-752.5 43,-752.5"/>
<text text-anchor="start" x="49.8492" y="-765.3" font-family="Arial Bold" font-size="18.00" fill="#000000">game_genre_relations</text>
<text text-anchor="start" x="228.897" y="-765.3" font-family="Arial" font-size="14.00" fill="#000000"> </text>
<text text-anchor="start" x="232.7876" y="-765.3" font-family="Arial" font-size="14.00" fill="#666666">[BASE TABLE]</text>
<polygon fill="none" stroke="#000000" points="43,-722.5 43,-752.5 333,-752.5 333,-722.5 43,-722.5"/>
<text text-anchor="start" x="50" y="-733.9" font-family="Arial" font-size="14.00" fill="#000000">genre_id </text>
<text text-anchor="start" x="108.3534" y="-733.9" font-family="Arial" font-size="14.00" fill="#666666">[varchar(36)]</text>
<polygon fill="none" stroke="#000000" points="43,-692.5 43,-722.5 333,-722.5 333,-692.5 43,-692.5"/>
<text text-anchor="start" x="50" y="-703.9" font-family="Arial" font-size="14.00" fill="#000000">game_id </text>
<text text-anchor="start" x="107.5708" y="-703.9" font-family="Arial" font-size="14.00" fill="#666666">[varchar(36)]</text>
</g>
<!-- game_genre_relations&#45;&gt;games -->
<g id="edge1" class="edge">
<title>game_genre_relations:game_id&#45;&gt;games:id</title>
<path fill="none" stroke="#000000" d="M342.8635,-704.704C362.2351,-689.9892 326.6966,-621.0247 367,-590 515.3547,-475.7995 1011.7812,-457.5 1217,-457.5"/>
<polygon fill="#000000" stroke="#000000" points="342.6209,-704.7727 331.7727,-703.1706 337.8105,-706.1363 333,-707.5 333,-707.5 333,-707.5 337.8105,-706.1363 334.2273,-711.8294 342.6209,-704.7727 342.6209,-704.7727"/>
<text text-anchor="start" x="214.886" y="-691.5" font-family="Arial" font-size="10.00" fill="#000000">FOREIGN KEY (game_id) REFERENCES games (id)</text>
</g>
<!-- game_genre_relations&#45;&gt;games -->
<g id="edge2" class="edge">
<title>game_genre_relations:game_id&#45;&gt;games:id</title>
<path fill="none" stroke="#000000" d="M343.5056,-706.3237C383.5101,-696.1328 342.9229,-622.3901 385,-590 533.2823,-475.8553 1029.2965,-457.5179 1216.7255,-457.5"/>
<polygon fill="#000000" stroke="#000000" points="343.2673,-706.3512 332.8168,-703.0288 338.3003,-706.9251 333.3334,-707.4991 333.3334,-707.4991 333.3334,-707.4991 338.3003,-706.9251 333.8499,-711.9693 343.2673,-706.3512 343.2673,-706.3512"/>
<text text-anchor="start" x="89.7194" y="-717.4991" font-family="Arial" font-size="10.00" fill="#000000">FOREIGN KEY (game_id) REFERENCES games (id)</text>
</g>
<!-- game_genre_relations&#45;&gt;games -->
<g id="edge3" class="edge">
<title>game_genre_relations:game_id&#45;&gt;games:id</title>
<path fill="none" stroke="#000000" d="M343.4825,-706.8799C403.2482,-699.243 360.0408,-623.0691 403,-590 551.2099,-475.911 1046.812,-457.5358 1216.5033,-457.5001"/>
<polygon fill="#000000" stroke="#000000" points="343.4197,-706.8837 333.1617,-703.0076 338.4292,-707.1914 333.4386,-707.4991 333.4386,-707.4991 333.4386,-707.4991 338.4292,-707.1914 333.7156,-711.9905 343.4197,-706.8837 343.4197,-706.8837"/>
<text text-anchor="start" x="340.8246" y="-717.4991" font-family="Arial" font-size="10.00" fill="#000000">FOREIGN KEY (game_id) REFERENCES games (id)</text>
</g>
<!-- game_images -->
<g id="node3" class="node">
<title>game_images</title>
<polygon fill="#efefef" stroke="transparent" points="437,-782.5 437,-817.5 661,-817.5 661,-782.5 437,-782.5"/>
<polygon fill="none" stroke="#000000" points="437,-782.5 437,-817.5 661,-817.5 661,-782.5 437,-782.5"/>
<text text-anchor="start" x="443.8621" y="-795.3" font-family="Arial Bold" font-size="18.00" fill="#000000">game_images</text>
<text text-anchor="start" x="556.8841" y="-795.3" font-family="Arial" font-size="14.00" fill="#000000"> </text>
<text text-anchor="start" x="560.7747" y="-795.3" font-family="Arial" font-size="14.00" fill="#666666">[BASE TABLE]</text>
<polygon fill="none" stroke="#000000" points="437,-752.5 437,-782.5 661,-782.5 661,-752.5 437,-752.5"/>
<text text-anchor="start" x="444" y="-763.9" font-family="Arial" font-size="14.00" fill="#000000">id </text>
<text text-anchor="start" x="458.7798" y="-763.9" font-family="Arial" font-size="14.00" fill="#666666">[varchar(36)]</text>
<polygon fill="none" stroke="#000000" points="437,-722.5 437,-752.5 661,-752.5 661,-722.5 437,-722.5"/>
<text text-anchor="start" x="444" y="-733.9" font-family="Arial" font-size="14.00" fill="#000000">game_id </text>
<text text-anchor="start" x="501.5708" y="-733.9" font-family="Arial" font-size="14.00" fill="#666666">[varchar(36)]</text>
<polygon fill="none" stroke="#000000" points="437,-692.5 437,-722.5 661,-722.5 661,-692.5 437,-692.5"/>
<text text-anchor="start" x="444" y="-703.9" font-family="Arial" font-size="14.00" fill="#000000">image_type_id </text>
<text text-anchor="start" x="538.9158" y="-703.9" font-family="Arial" font-size="14.00" fill="#666666">[tinyint(4)]</text>
<polygon fill="none" stroke="#000000" points="437,-662.5 437,-692.5 661,-692.5 661,-662.5 437,-662.5"/>
<text text-anchor="start" x="444" y="-673.9" font-family="Arial" font-size="14.00" fill="#000000">created_at </text>
<text text-anchor="start" x="514.028" y="-673.9" font-family="Arial" font-size="14.00" fill="#666666">[datetime]</text>
</g>
<!-- game_images&#45;&gt;games -->
<g id="edge4" class="edge">
<title>game_images:game_id&#45;&gt;games:id</title>
<path fill="none" stroke="#000000" d="M671.2068,-736.6243C723.3617,-726.678 664.6746,-634.523 713,-590 798.1691,-511.5322 1101.1942,-457.5 1217,-457.5"/>
<polygon fill="#000000" stroke="#000000" points="670.9634,-736.6451 660.6153,-733.0165 665.9817,-737.0726 661,-737.5 661,-737.5 661,-737.5 665.9817,-737.0726 661.3847,-741.9835 670.9634,-736.6451 670.9634,-736.6451"/>
<text text-anchor="start" x="668.386" y="-747.5" font-family="Arial" font-size="10.00" fill="#000000">FOREIGN KEY (game_id) REFERENCES games (id)</text>
</g>
<!-- game_management_roles -->
<g id="node4" class="node">
<title>game_management_roles</title>
<polygon fill="#efefef" stroke="transparent" points="765,-767.5 765,-802.5 1085,-802.5 1085,-767.5 765,-767.5"/>
<polygon fill="none" stroke="#000000" points="765,-767.5 765,-802.5 1085,-802.5 1085,-767.5 765,-767.5"/>
<text text-anchor="start" x="771.8471" y="-780.3" font-family="Arial Bold" font-size="18.00" fill="#000000">game_management_roles</text>
<text text-anchor="start" x="980.8991" y="-780.3" font-family="Arial" font-size="14.00" fill="#000000"> </text>
<text text-anchor="start" x="984.7897" y="-780.3" font-family="Arial" font-size="14.00" fill="#666666">[BASE TABLE]</text>
<polygon fill="none" stroke="#000000" points="765,-737.5 765,-767.5 1085,-767.5 1085,-737.5 765,-737.5"/>
<text text-anchor="start" x="772" y="-748.9" font-family="Arial" font-size="14.00" fill="#000000">game_id </text>
<text text-anchor="start" x="829.5708" y="-748.9" font-family="Arial" font-size="14.00" fill="#666666">[varchar(36)]</text>
<polygon fill="none" stroke="#000000" points="765,-707.5 765,-737.5 1085,-737.5 1085,-707.5 765,-707.5"/>
<text text-anchor="start" x="772" y="-718.9" font-family="Arial" font-size="14.00" fill="#000000">user_id </text>
<text text-anchor="start" x="821.7882" y="-718.9" font-family="Arial" font-size="14.00" fill="#666666">[varchar(36)]</text>
<polygon fill="none" stroke="#000000" points="765,-677.5 765,-707.5 1085,-707.5 1085,-677.5 765,-677.5"/>
<text text-anchor="start" x="772" y="-688.9" font-family="Arial" font-size="14.00" fill="#000000">role_type_id </text>
<text text-anchor="start" x="852.1332" y="-688.9" font-family="Arial" font-size="14.00" fill="#666666">[tinyint(4)]</text>
</g>
<!-- game_management_roles&#45;&gt;games -->
<g id="edge5" class="edge">
<title>game_management_roles:game_id&#45;&gt;games:id</title>
<path fill="none" stroke="#000000" d="M1095.1961,-751.8452C1155.646,-743.4311 1107.1654,-655.6677 1137,-590 1165.4543,-527.3705 1148.2097,-457.5 1217,-457.5"/>
<polygon fill="#000000" stroke="#000000" points="1094.9794,-751.8591 1084.7116,-748.0093 1089.9897,-752.1795 1085,-752.5 1085,-752.5 1085,-752.5 1089.9897,-752.1795 1085.2884,-756.9907 1094.9794,-751.8591 1094.9794,-751.8591"/>
<text text-anchor="start" x="1092.386" y="-762.5" font-family="Arial" font-size="10.00" fill="#000000">FOREIGN KEY (game_id) REFERENCES games (id)</text>
</g>
<!-- game_versions -->
<g id="node5" class="node">
<title>game_versions</title>
<polygon fill="#efefef" stroke="transparent" points="1190,-797.5 1190,-832.5 1423,-832.5 1423,-797.5 1190,-797.5"/>
<polygon fill="none" stroke="#000000" points="1190,-797.5 1190,-832.5 1423,-832.5 1423,-797.5 1190,-797.5"/>
<text text-anchor="start" x="1196.8621" y="-810.3" font-family="Arial Bold" font-size="18.00" fill="#000000">game_versions</text>
<text text-anchor="start" x="1318.8841" y="-810.3" font-family="Arial" font-size="14.00" fill="#000000"> </text>
<text text-anchor="start" x="1322.7747" y="-810.3" font-family="Arial" font-size="14.00" fill="#666666">[BASE TABLE]</text>
<polygon fill="none" stroke="#000000" points="1190,-767.5 1190,-797.5 1423,-797.5 1423,-767.5 1190,-767.5"/>
<text text-anchor="start" x="1197" y="-778.9" font-family="Arial" font-size="14.00" fill="#000000">id </text>
<text text-anchor="start" x="1211.7798" y="-778.9" font-family="Arial" font-size="14.00" fill="#666666">[varchar(36)]</text>
<polygon fill="none" stroke="#000000" points="1190,-737.5 1190,-767.5 1423,-767.5 1423,-737.5 1190,-737.5"/>
<text text-anchor="start" x="1197" y="-748.9" font-family="Arial" font-size="14.00" fill="#000000">game_id </text>
<text text-anchor="start" x="1254.5708" y="-748.9" font-family="Arial" font-size="14.00" fill="#666666">[varchar(36)]</text>
<polygon fill="none" stroke="#000000" points="1190,-707.5 1190,-737.5 1423,-737.5 1423,-707.5 1190,-707.5"/>
<text text-anchor="start" x="1197" y="-718.9" font-family="Arial" font-size="14.00" fill="#000000">name </text>
<text text-anchor="start" x="1235.899" y="-718.9" font-family="Arial" font-size="14.00" fill="#666666">[varchar(32)]</text>
<polygon fill="none" stroke="#000000" points="1190,-677.5 1190,-707.5 1423,-707.5 1423,-677.5 1190,-677.5"/>
<text text-anchor="start" x="1197" y="-688.9" font-family="Arial" font-size="14.00" fill="#000000">description </text>
<text text-anchor="start" x="1268.568" y="-688.9" font-family="Arial" font-size="14.00" fill="#666666">[text]</text>
<polygon fill="none" stroke="#000000" points="1190,-647.5 1190,-677.5 1423,-677.5 1423,-647.5 1190,-647.5"/>
<text text-anchor="start" x="1197" y="-658.9" font-family="Arial" font-size="14.00" fill="#000000">created_at </text>
<text text-anchor="start" x="1267.028" y="-658.9" font-family="Arial" font-size="14.00" fill="#666666">[datetime]</text>
</g>
<!-- game_versions&#45;&gt;games -->
<g id="edge6" class="edge">
<title>game_versions:game_id&#45;&gt;games:id</title>
<path fill="none" stroke="#000000" d="M1433.28,-751.6027C1485.6573,-741.7811 1461.1143,-653.701 1423,-605 1364.8696,-530.7231 1275.1304,-628.2769 1217,-554 1190.567,-520.2249 1174.1111,-457.5 1217,-457.5"/>
<polygon fill="#000000" stroke="#000000" points="1432.9621,-751.6304 1422.6087,-748.017 1427.9811,-752.0652 1423,-752.5 1423,-752.5 1423,-752.5 1427.9811,-752.0652 1423.3913,-756.983 1432.9621,-751.6304 1432.9621,-751.6304"/>
<text text-anchor="start" x="1430.386" y="-762.5" font-family="Arial" font-size="10.00" fill="#000000">FOREIGN KEY (game_id) REFERENCES games (id)</text>
</g>
<!-- game_videos -->
<g id="node6" class="node">
<title>game_videos</title>
<polygon fill="#efefef" stroke="transparent" points="1527,-782.5 1527,-817.5 1745,-817.5 1745,-782.5 1527,-782.5"/>
<polygon fill="none" stroke="#000000" points="1527,-782.5 1527,-817.5 1745,-817.5 1745,-782.5 1527,-782.5"/>
<text text-anchor="start" x="1533.8582" y="-795.3" font-family="Arial Bold" font-size="18.00" fill="#000000">game_videos</text>
<text text-anchor="start" x="1640.888" y="-795.3" font-family="Arial" font-size="14.00" fill="#000000"> </text>
<text text-anchor="start" x="1644.7786" y="-795.3" font-family="Arial" font-size="14.00" fill="#666666">[BASE TABLE]</text>
<polygon fill="none" stroke="#000000" points="1527,-752.5 1527,-782.5 1745,-782.5 1745,-752.5 1527,-752.5"/>
<text text-anchor="start" x="1534" y="-763.9" font-family="Arial" font-size="14.00" fill="#000000">id </text>
<text text-anchor="start" x="1548.7798" y="-763.9" font-family="Arial" font-size="14.00" fill="#666666">[varchar(36)]</text>
<polygon fill="none" stroke="#000000" points="1527,-722.5 1527,-752.5 1745,-752.5 1745,-722.5 1527,-722.5"/>
<text text-anchor="start" x="1534" y="-733.9" font-family="Arial" font-size="14.00" fill="#000000">game_id </text>
<text text-anchor="start" x="1591.5708" y="-733.9" font-family="Arial" font-size="14.00" fill="#666666">[varchar(36)]</text>
<polygon fill="none" stroke="#000000" points="1527,-692.5 1527,-722.5 1745,-722.5 1745,-692.5 1527,-692.5"/>
<text text-anchor="start" x="1534" y="-703.9" font-family="Arial" font-size="14.00" fill="#000000">video_type_id </text>
<text text-anchor="start" x="1624.2552" y="-703.9" font-family="Arial" font-size="14.00" fill="#666666">[tinyint(4)]</text>
<polygon fill="none" stroke="#000000" points="1527,-662.5 1527,-692.5 1745,-692.5 1745,-662.5 1527,-662.5"/>
<text text-anchor="start" x="1534" y="-673.9" font-family="Arial" font-size="14.00" fill="#000000">created_at </text>
<text text-anchor="start" x="1604.028" y="-673.9" font-family="Arial" font-size="14.00" fill="#666666">[datetime]</text>
</g>
<!-- game_videos&#45;&gt;games -->
<g id="edge7" class="edge">
<title>game_videos:game_id&#45;&gt;games:id</title>
<path fill="none" stroke="#000000" d="M1516.9457,-736.8108C1462.2176,-728.6499 1502.7772,-649.6987 1475,-590 1446.1722,-528.0433 1465.335,-457.5 1397,-457.5"/>
<polygon fill="#000000" stroke="#000000" points="1517.0234,-736.816 1526.6922,-741.9895 1522.0117,-737.158 1527,-737.5 1527,-737.5 1527,-737.5 1522.0117,-737.158 1527.3078,-733.0105 1517.0234,-736.816 1517.0234,-736.816"/>
<text text-anchor="start" x="1534.386" y="-721.5" font-family="Arial" font-size="10.00" fill="#000000">FOREIGN KEY (game_id) REFERENCES games (id)</text>
</g>
<!-- launcher_version_game_relations -->
<g id="node7" class="node">
<title>launcher_version_game_relations</title>
<polygon fill="#efefef" stroke="transparent" points="1850,-752.5 1850,-787.5 2231,-787.5 2231,-752.5 1850,-752.5"/>
<polygon fill="none" stroke="#000000" points="1850,-752.5 1850,-787.5 2231,-787.5 2231,-752.5 1850,-752.5"/>
<text text-anchor="start" x="1856.8434" y="-765.3" font-family="Arial Bold" font-size="18.00" fill="#000000">launcher_version_game_relations</text>
<text text-anchor="start" x="2126.9028" y="-765.3" font-family="Arial" font-size="14.00" fill="#000000"> </text>
<text text-anchor="start" x="2130.7934" y="-765.3" font-family="Arial" font-size="14.00" fill="#666666">[BASE TABLE]</text>
<polygon fill="none" stroke="#000000" points="1850,-722.5 1850,-752.5 2231,-752.5 2231,-722.5 1850,-722.5"/>
<text text-anchor="start" x="1857" y="-733.9" font-family="Arial" font-size="14.00" fill="#000000">launcher_version_table_id </text>
<text text-anchor="start" x="2024.2678" y="-733.9" font-family="Arial" font-size="14.00" fill="#666666">[varchar(36)]</text>
<polygon fill="none" stroke="#000000" points="1850,-692.5 1850,-722.5 2231,-722.5 2231,-692.5 1850,-692.5"/>
<text text-anchor="start" x="1857" y="-703.9" font-family="Arial" font-size="14.00" fill="#000000">game_table_id </text>
<text text-anchor="start" x="1952.6984" y="-703.9" font-family="Arial" font-size="14.00" fill="#666666">[varchar(36)]</text>
</g>
<!-- launcher_version_game_relations&#45;&gt;games -->
<g id="edge8" class="edge">
<title>launcher_version_game_relations:game_table_id&#45;&gt;games:id</title>
<path fill="none" stroke="#000000" d="M1839.9079,-706.488C1798.5386,-697.1681 1836.7315,-625.8052 1797,-590 1657.8794,-464.6274 1584.2774,-457.5 1397,-457.5"/>
<polygon fill="#000000" stroke="#000000" points="1840.0499,-706.5022 1849.551,-711.9775 1845.0249,-707.0011 1850,-707.5 1850,-707.5 1850,-707.5 1845.0249,-707.0011 1850.449,-703.0225 1840.0499,-706.5022 1840.0499,-706.5022"/>
<text text-anchor="start" x="1856.769" y="-717.5" font-family="Arial" font-size="10.00" fill="#000000">FOREIGN KEY (game_table_id) REFERENCES games (id)</text>
</g>
<!-- v2_game_files -->
<g id="node8" class="node">
<title>v2_game_files</title>
<polygon fill="#efefef" stroke="transparent" points="2335,-812.5 2335,-847.5 2562,-847.5 2562,-812.5 2335,-812.5"/>
<polygon fill="none" stroke="#000000" points="2335,-812.5 2335,-847.5 2562,-847.5 2562,-812.5 2335,-812.5"/>
<text text-anchor="start" x="2341.86" y="-825.3" font-family="Arial Bold" font-size="18.00" fill="#000000">v2_game_files</text>
<text text-anchor="start" x="2457.8862" y="-825.3" font-family="Arial" font-size="14.00" fill="#000000"> </text>
<text text-anchor="start" x="2461.7768" y="-825.3" font-family="Arial" font-size="14.00" fill="#666666">[BASE TABLE]</text>
<polygon fill="none" stroke="#000000" points="2335,-782.5 2335,-812.5 2562,-812.5 2562,-782.5 2335,-782.5"/>
<text text-anchor="start" x="2342" y="-793.9" font-family="Arial" font-size="14.00" fill="#000000">id </text>
<text text-anchor="start" x="2356.7798" y="-793.9" font-family="Arial" font-size="14.00" fill="#666666">[varchar(36)]</text>
<polygon fill="none" stroke="#000000" points="2335,-752.5 2335,-782.5 2562,-782.5 2562,-752.5 2335,-752.5"/>
<text text-anchor="start" x="2342" y="-763.9" font-family="Arial" font-size="14.00" fill="#000000">game_id </text>
<text text-anchor="start" x="2399.5708" y="-763.9" font-family="Arial" font-size="14.00" fill="#666666">[varchar(36)]</text>
<polygon fill="none" stroke="#000000" points="2335,-722.5 2335,-752.5 2562,-752.5 2562,-722.5 2335,-722.5"/>
<text text-anchor="start" x="2342" y="-733.9" font-family="Arial" font-size="14.00" fill="#000000">file_type_id </text>
<text text-anchor="start" x="2416.6872" y="-733.9" font-family="Arial" font-size="14.00" fill="#666666">[tinyint(4)]</text>
<polygon fill="none" stroke="#000000" points="2335,-692.5 2335,-722.5 2562,-722.5 2562,-692.5 2335,-692.5"/>
<text text-anchor="start" x="2342" y="-703.9" font-family="Arial" font-size="14.00" fill="#000000">hash </text>
<text text-anchor="start" x="2376.2384" y="-703.9" font-family="Arial" font-size="14.00" fill="#666666">[char(32)]</text>
<polygon fill="none" stroke="#000000" points="2335,-662.5 2335,-692.5 2562,-692.5 2562,-662.5 2335,-662.5"/>
<text text-anchor="start" x="2342" y="-673.9" font-family="Arial" font-size="14.00" fill="#000000">entry_point </text>
<text text-anchor="start" x="2415.1346" y="-673.9" font-family="Arial" font-size="14.00" fill="#666666">[text]</text>
<polygon fill="none" stroke="#000000" points="2335,-632.5 2335,-662.5 2562,-662.5 2562,-632.5 2335,-632.5"/>
<text text-anchor="start" x="2342" y="-643.9" font-family="Arial" font-size="14.00" fill="#000000">created_at </text>
<text text-anchor="start" x="2412.028" y="-643.9" font-family="Arial" font-size="14.00" fill="#666666">[datetime]</text>
</g>
<!-- v2_game_files&#45;&gt;games -->
<g id="edge9" class="edge">
<title>v2_game_files:game_id&#45;&gt;games:id</title>
<path fill="none" stroke="#000000" d="M2324.9475,-766.77C2260.7646,-756.5468 2342.1739,-641.5998 2283,-590 2132.9557,-459.1608 1596.0784,-457.5 1397,-457.5"/>
<polygon fill="#000000" stroke="#000000" points="2325.0263,-766.7756 2334.674,-771.9882 2330.0131,-767.1378 2335,-767.5 2335,-767.5 2335,-767.5 2330.0131,-767.1378 2335.326,-763.0118 2325.0263,-766.7756 2325.0263,-766.7756"/>
<text text-anchor="start" x="2091.386" y="-777.5" font-family="Arial" font-size="10.00" fill="#000000">FOREIGN KEY (game_id) REFERENCES games (id)</text>
</g>
<!-- v2_game_images -->
<g id="node9" class="node">
<title>v2_game_images</title>
<polygon fill="#efefef" stroke="transparent" points="2666,-782.5 2666,-817.5 2919,-817.5 2919,-782.5 2666,-782.5"/>
<polygon fill="none" stroke="#000000" points="2666,-782.5 2666,-817.5 2919,-817.5 2919,-782.5 2666,-782.5"/>
<text text-anchor="start" x="2672.8559" y="-795.3" font-family="Arial Bold" font-size="18.00" fill="#000000">v2_game_images</text>
<text text-anchor="start" x="2814.8903" y="-795.3" font-family="Arial" font-size="14.00" fill="#000000"> </text>
<text text-anchor="start" x="2818.7809" y="-795.3" font-family="Arial" font-size="14.00" fill="#666666">[BASE TABLE]</text>
<polygon fill="none" stroke="#000000" points="2666,-752.5 2666,-782.5 2919,-782.5 2919,-752.5 2666,-752.5"/>
<text text-anchor="start" x="2673" y="-763.9" font-family="Arial" font-size="14.00" fill="#000000">id </text>
<text text-anchor="start" x="2687.7798" y="-763.9" font-family="Arial" font-size="14.00" fill="#666666">[varchar(36)]</text>
<polygon fill="none" stroke="#000000" points="2666,-722.5 2666,-752.5 2919,-752.5 2919,-722.5 2666,-722.5"/>
<text text-anchor="start" x="2673" y="-733.9" font-family="Arial" font-size="14.00" fill="#000000">game_id </text>
<text text-anchor="start" x="2730.5708" y="-733.9" font-family="Arial" font-size="14.00" fill="#666666">[varchar(36)]</text>
<polygon fill="none" stroke="#000000" points="2666,-692.5 2666,-722.5 2919,-722.5 2919,-692.5 2666,-692.5"/>
<text text-anchor="start" x="2673" y="-703.9" font-family="Arial" font-size="14.00" fill="#000000">image_type_id </text>
<text text-anchor="start" x="2767.9158" y="-703.9" font-family="Arial" font-size="14.00" fill="#666666">[tinyint(4)]</text>
<polygon fill="none" stroke="#000000" points="2666,-662.5 2666,-692.5 2919,-692.5 2919,-662.5 2666,-662.5"/>
<text text-anchor="start" x="2673" y="-673.9" font-family="Arial" font-size="14.00" fill="#000000">created_at </text>
<text text-anchor="start" x="2743.028" y="-673.9" font-family="Arial" font-size="14.00" fill="#666666">[datetime]</text>
</g>
<!-- v2_game_images&#45;&gt;games -->
<g id="edge10" class="edge">
<title>v2_game_images:game_id&#45;&gt;games:id</title>
<path fill="none" stroke="#000000" d="M2655.8217,-736.591C2603.9853,-726.2721 2665.4977,-630.8121 2614,-590 2507.3965,-505.5164 1533.0213,-457.5 1397,-457.5"/>
<polygon fill="#000000" stroke="#000000" points="2656.0396,-736.6104 2665.5997,-741.9822 2661.0198,-737.0552 2666,-737.5 2666,-737.5 2666,-737.5 2661.0198,-737.0552 2666.4003,-733.0178 2656.0396,-736.6104 2656.0396,-736.6104"/>
<text text-anchor="start" x="2422.386" y="-747.5" font-family="Arial" font-size="10.00" fill="#000000">FOREIGN KEY (game_id) REFERENCES games (id)</text>
</g>
<!-- v2_game_videos -->
<g id="node10" class="node">
<title>v2_game_videos</title>
<polygon fill="#efefef" stroke="transparent" points="3023,-782.5 3023,-817.5 3270,-817.5 3270,-782.5 3023,-782.5"/>
<polygon fill="none" stroke="#000000" points="3023,-782.5 3023,-817.5 3270,-817.5 3270,-782.5 3023,-782.5"/>
<text text-anchor="start" x="3029.852" y="-795.3" font-family="Arial Bold" font-size="18.00" fill="#000000">v2_game_videos</text>
<text text-anchor="start" x="3165.8942" y="-795.3" font-family="Arial" font-size="14.00" fill="#000000"> </text>
<text text-anchor="start" x="3169.7848" y="-795.3" font-family="Arial" font-size="14.00" fill="#666666">[BASE TABLE]</text>
<polygon fill="none" stroke="#000000" points="3023,-752.5 3023,-782.5 3270,-782.5 3270,-752.5 3023,-752.5"/>
<text text-anchor="start" x="3030" y="-763.9" font-family="Arial" font-size="14.00" fill="#000000">id </text>
<text text-anchor="start" x="3044.7798" y="-763.9" font-family="Arial" font-size="14.00" fill="#666666">[varchar(36)]</text>
<polygon fill="none" stroke="#000000" points="3023,-722.5 3023,-752.5 3270,-752.5 3270,-722.5 3023,-722.5"/>
<text text-anchor="start" x="3030" y="-733.9" font-family="Arial" font-size="14.00" fill="#000000">game_id </text>
<text text-anchor="start" x="3087.5708" y="-733.9" font-family="Arial" font-size="14.00" fill="#666666">[varchar(36)]</text>
<polygon fill="none" stroke="#000000" points="3023,-692.5 3023,-722.5 3270,-722.5 3270,-692.5 3023,-692.5"/>
<text text-anchor="start" x="3030" y="-703.9" font-family="Arial" font-size="14.00" fill="#000000">video_type_id </text>
<text text-anchor="start" x="3120.2552" y="-703.9" font-family="Arial" font-size="14.00" fill="#666666">[tinyint(4)]</text>
<polygon fill="none" stroke="#000000" points="3023,-662.5 3023,-692.5 3270,-692.5 3270,-662.5 3023,-662.5"/>
<text text-anchor="start" x="3030" y="-673.9" font-family="Arial" font-size="14.00" fill="#000000">created_at </text>
<text text-anchor="start" x="3100.028" y="-673.9" font-family="Arial" font-size="14.00" fill="#666666">[datetime]</text>
</g>
<!-- v2_game_videos&#45;&gt;games -->
<g id="edge11" class="edge">
<title>v2_game_videos:game_id&#45;&gt;games:id</title>
<path fill="none" stroke="#000000" d="M3012.8262,-736.5853C2961.0394,-726.2029 3022.9931,-630.1791 2971,-590 2832.127,-482.682 1572.5075,-457.5 1397,-457.5"/>
<polygon fill="#000000" stroke="#000000" points="3013.0402,-736.6045 3022.597,-741.9819 3018.0201,-737.0522 3023,-737.5 3023,-737.5 3023,-737.5 3018.0201,-737.0522 3023.403,-733.0181 3013.0402,-736.6045 3013.0402,-736.6045"/>
<text text-anchor="start" x="3030.386" y="-747.5" font-family="Arial" font-size="10.00" fill="#000000">FOREIGN KEY (game_id) REFERENCES games (id)</text>
</g>
</g>
</svg>
