<?xml version="1.0" encoding="UTF-8" standalone="no"?>
<!DOCTYPE svg PUBLIC "-//W3C//DTD SVG 1.1//EN"
 "http://www.w3.org/Graphics/SVG/1.1/DTD/svg11.dtd">
<!-- Generated by graphviz version 2.40.1 (20161225.0304)
 -->
<!-- Title: game_versions Pages: 1 -->
<svg width="764pt" height="989pt"
 viewBox="0.00 0.00 764.00 989.00" xmlns="http://www.w3.org/2000/svg" xmlns:xlink="http://www.w3.org/1999/xlink">
<g id="graph0" class="graph" transform="scale(1 1) rotate(0) translate(4 985)">
<title>game_versions</title>
<polygon fill="#ffffff" stroke="transparent" points="-4,4 -4,-985 760,-985 760,4 -4,4"/>
<!-- game_versions -->
<g id="node1" class="node">
<title>game_versions</title>
<polygon fill="#efefef" stroke="transparent" points="261,-562.5 261,-597.5 494,-597.5 494,-562.5 261,-562.5"/>
<polygon fill="none" stroke="#000000" points="261,-562.5 261,-597.5 494,-597.5 494,-562.5 261,-562.5"/>
<text text-anchor="start" x="267.8621" y="-575.3" font-family="Arial Bold" font-size="18.00" fill="#000000">game_versions</text>
<text text-anchor="start" x="389.8841" y="-575.3" font-family="Arial" font-size="14.00" fill="#000000"> </text>
<text text-anchor="start" x="393.7747" y="-575.3" font-family="Arial" font-size="14.00" fill="#666666">[BASE TABLE]</text>
<polygon fill="none" stroke="#000000" points="261,-532.5 261,-562.5 494,-562.5 494,-532.5 261,-532.5"/>
<text text-anchor="start" x="268" y="-543.9" font-family="Arial" font-size="14.00" fill="#000000">id </text>
<text text-anchor="start" x="282.7798" y="-543.9" font-family="Arial" font-size="14.00" fill="#666666">[varchar(36)]</text>
<polygon fill="none" stroke="#000000" points="261,-502.5 261,-532.5 494,-532.5 494,-502.5 261,-502.5"/>
<text text-anchor="start" x="268" y="-513.9" font-family="Arial" font-size="14.00" fill="#000000">game_id </text>
<text text-anchor="start" x="325.5708" y="-513.9" font-family="Arial" font-size="14.00" fill="#666666">[varchar(36)]</text>
<polygon fill="none" stroke="#000000" points="261,-472.5 261,-502.5 494,-502.5 494,-472.5 261,-472.5"/>
<text text-anchor="start" x="268" y="-483.9" font-family="Arial" font-size="14.00" fill="#000000">name </text>
<text text-anchor="start" x="306.899" y="-483.9" font-family="Arial" font-size="14.00" fill="#666666">[varchar(32)]</text>
<polygon fill="none" stroke="#000000" points="261,-442.5 261,-472.5 494,-472.5 494,-442.5 261,-442.5"/>
<text text-anchor="start" x="268" y="-453.9" font-family="Arial" font-size="14.00" fill="#000000">description </text>
<text text-anchor="start" x="339.568" y="-453.9" font-family="Arial" font-size="14.00" fill="#666666">[text]</text>
<polygon fill="none" stroke="#000000" points="261,-412.5 261,-442.5 494,-442.5 494,-412.5 261,-412.5"/>
<text text-anchor="start" x="268" y="-423.9" font-family="Arial" font-size="14.00" fill="#000000">created_at </text>
<text text-anchor="start" x="338.028" y="-423.9" font-family="Arial" font-size="14.00" fill="#666666">[datetime]</text>
<polygon fill="none" stroke="#000000" stroke-width="3" points="259,-411.5 259,-599.5 495,-599.5 495,-411.5 259,-411.5"/>
</g>
<!-- games -->
<g id="node4" class="node">
<title>games</title>
<polygon fill="#efefef" stroke="transparent" points="256,-252.5 256,-287.5 499,-287.5 499,-252.5 256,-252.5"/>
<polygon fill="none" stroke="#000000" points="256,-252.5 256,-287.5 499,-287.5 499,-252.5 256,-252.5"/>
<text text-anchor="start" x="301.8677" y="-265.3" font-family="Arial Bold" font-size="18.00" fill="#000000">games</text>
<text text-anchor="start" x="355.8785" y="-265.3" font-family="Arial" font-size="14.00" fill="#000000"> </text>
<text text-anchor="start" x="359.7691" y="-265.3" font-family="Arial" font-size="14.00" fill="#666666">[BASE TABLE]</text>
<polygon fill="none" stroke="#000000" points="256,-222.5 256,-252.5 499,-252.5 499,-222.5 256,-222.5"/>
<text text-anchor="start" x="263" y="-233.9" font-family="Arial" font-size="14.00" fill="#000000">id </text>
<text text-anchor="start" x="277.7798" y="-233.9" font-family="Arial" font-size="14.00" fill="#666666">[varchar(36)]</text>
<polygon fill="none" stroke="#000000" points="256,-192.5 256,-222.5 499,-222.5 499,-192.5 256,-192.5"/>
<text text-anchor="start" x="263" y="-203.9" font-family="Arial" font-size="14.00" fill="#000000">name </text>
<text text-anchor="start" x="301.899" y="-203.9" font-family="Arial" font-size="14.00" fill="#666666">[varchar(256)]</text>
<polygon fill="none" stroke="#000000" points="256,-162.5 256,-192.5 499,-192.5 499,-162.5 256,-162.5"/>
<text text-anchor="start" x="263" y="-173.9" font-family="Arial" font-size="14.00" fill="#000000">description </text>
<text text-anchor="start" x="334.568" y="-173.9" font-family="Arial" font-size="14.00" fill="#666666">[text]</text>
<polygon fill="none" stroke="#000000" points="256,-132.5 256,-162.5 499,-162.5 499,-132.5 256,-132.5"/>
<text text-anchor="start" x="263" y="-143.9" font-family="Arial" font-size="14.00" fill="#000000">created_at </text>
<text text-anchor="start" x="333.028" y="-143.9" font-family="Arial" font-size="14.00" fill="#666666">[datetime]</text>
<polygon fill="none" stroke="#000000" points="256,-102.5 256,-132.5 499,-132.5 499,-102.5 256,-102.5"/>
<text text-anchor="start" x="263" y="-113.9" font-family="Arial" font-size="14.00" fill="#000000">deleted_at </text>
<text text-anchor="start" x="332.2566" y="-113.9" font-family="Arial" font-size="14.00" fill="#666666">[datetime]</text>
<polygon fill="none" stroke="#000000" points="256,-72.5 256,-102.5 499,-102.5 499,-72.5 256,-72.5"/>
<text text-anchor="start" x="263" y="-83.9" font-family="Arial" font-size="14.00" fill="#000000">visibility_type_id </text>
<text text-anchor="start" x="368.007" y="-83.9" font-family="Arial" font-size="14.00" fill="#666666">[tinyint(4)]</text>
<polygon fill="none" stroke="#000000" points="256,-42.5 256,-72.5 499,-72.5 499,-42.5 256,-42.5"/>
<text text-anchor="start" x="262.7371" y="-53.9" font-family="Arial" font-size="14.00" fill="#000000">latest_version_updated_at </text>
<text text-anchor="start" x="430.8029" y="-53.9" font-family="Arial" font-size="14.00" fill="#666666">[datetime]</text>
</g>
<!-- game_versions&#45;&gt;games -->
<g id="edge3" class="edge">
<title>game_versions:game_id&#45;&gt;games:id</title>
<path fill="none" stroke="#000000" d="M250.7131,-516.839C136.3563,-501.8652 135.0606,-237.5 256,-237.5"/>
<polygon fill="#000000" stroke="#000000" points="251.0206,-516.8587 260.7114,-521.9907 256.0103,-517.1793 261,-517.5 261,-517.5 261,-517.5 256.0103,-517.1793 261.2886,-513.0093 251.0206,-516.8587 251.0206,-516.8587"/>
<text text-anchor="start" x="17.386" y="-527.5" font-family="Arial" font-size="10.00" fill="#000000">FOREIGN KEY (game_id) REFERENCES games (id)</text>
</g>
<!-- game_files -->
<g id="node2" class="node">
<title>game_files</title>
<polygon fill="#efefef" stroke="transparent" points="123,-902.5 123,-937.5 326,-937.5 326,-902.5 123,-902.5"/>
<polygon fill="none" stroke="#000000" points="123,-902.5 123,-937.5 326,-937.5 326,-902.5 123,-902.5"/>
<text text-anchor="start" x="132.3662" y="-915.3" font-family="Arial Bold" font-size="18.00" fill="#000000">game_files</text>
<text text-anchor="start" x="219.38" y="-915.3" font-family="Arial" font-size="14.00" fill="#000000"> </text>
<text text-anchor="start" x="223.2706" y="-915.3" font-family="Arial" font-size="14.00" fill="#666666">[BASE TABLE]</text>
<polygon fill="none" stroke="#000000" points="123,-872.5 123,-902.5 326,-902.5 326,-872.5 123,-872.5"/>
<text text-anchor="start" x="130" y="-883.9" font-family="Arial" font-size="14.00" fill="#000000">id </text>
<text text-anchor="start" x="144.7798" y="-883.9" font-family="Arial" font-size="14.00" fill="#666666">[varchar(36)]</text>
<polygon fill="none" stroke="#000000" points="123,-842.5 123,-872.5 326,-872.5 326,-842.5 123,-842.5"/>
<text text-anchor="start" x="129.5975" y="-853.9" font-family="Arial" font-size="14.00" fill="#000000">game_version_id </text>
<text text-anchor="start" x="240.0659" y="-853.9" font-family="Arial" font-size="14.00" fill="#666666">[varchar(36)]</text>
<polygon fill="none" stroke="#000000" points="123,-812.5 123,-842.5 326,-842.5 326,-812.5 123,-812.5"/>
<text text-anchor="start" x="130" y="-823.9" font-family="Arial" font-size="14.00" fill="#000000">file_type_id </text>
<text text-anchor="start" x="204.6872" y="-823.9" font-family="Arial" font-size="14.00" fill="#666666">[tinyint(4)]</text>
<polygon fill="none" stroke="#000000" points="123,-782.5 123,-812.5 326,-812.5 326,-782.5 123,-782.5"/>
<text text-anchor="start" x="130" y="-793.9" font-family="Arial" font-size="14.00" fill="#000000">hash </text>
<text text-anchor="start" x="164.2384" y="-793.9" font-family="Arial" font-size="14.00" fill="#666666">[char(32)]</text>
<polygon fill="none" stroke="#000000" points="123,-752.5 123,-782.5 326,-782.5 326,-752.5 123,-752.5"/>
<text text-anchor="start" x="130" y="-763.9" font-family="Arial" font-size="14.00" fill="#000000">entry_point </text>
<text text-anchor="start" x="203.1346" y="-763.9" font-family="Arial" font-size="14.00" fill="#666666">[text]</text>
<polygon fill="none" stroke="#000000" points="123,-722.5 123,-752.5 326,-752.5 326,-722.5 123,-722.5"/>
<text text-anchor="start" x="130" y="-733.9" font-family="Arial" font-size="14.00" fill="#000000">created_at </text>
<text text-anchor="start" x="200.028" y="-733.9" font-family="Arial" font-size="14.00" fill="#666666">[datetime]</text>
</g>
<!-- game_files&#45;&gt;game_versions -->
<g id="edge1" class="edge">
<title>game_files:game_version_id&#45;&gt;game_versions:id</title>
<path fill="none" stroke="#000000" d="M336.3297,-856.7935C401.2452,-847.3225 364.1738,-744.78 326,-680 309.2341,-651.5487 277.7659,-672.4513 261,-644 239.2257,-607.0495 218.1111,-547.5 261,-547.5"/>
<polygon fill="#000000" stroke="#000000" points="335.9767,-856.8176 325.6929,-853.0105 330.9883,-857.1588 326,-857.5 326,-857.5 326,-857.5 330.9883,-857.1588 326.3071,-861.9895 335.9767,-856.8176 335.9767,-856.8176"/>
<text text-anchor="start" x="6.602" y="-867.5" font-family="Arial" font-size="10.00" fill="#000000">FOREIGN KEY (game_version_id) REFERENCES game_versions (id)</text>
</g>
<!-- game_urls -->
<g id="node3" class="node">
<title>game_urls</title>
<polygon fill="#efefef" stroke="transparent" points="430,-872.5 430,-907.5 633,-907.5 633,-872.5 430,-872.5"/>
<polygon fill="none" stroke="#000000" points="430,-872.5 430,-907.5 633,-907.5 633,-872.5 430,-872.5"/>
<text text-anchor="start" x="440.8683" y="-885.3" font-family="Arial Bold" font-size="18.00" fill="#000000">game_urls</text>
<text text-anchor="start" x="524.8779" y="-885.3" font-family="Arial" font-size="14.00" fill="#000000"> </text>
<text text-anchor="start" x="528.7685" y="-885.3" font-family="Arial" font-size="14.00" fill="#666666">[BASE TABLE]</text>
<polygon fill="none" stroke="#000000" points="430,-842.5 430,-872.5 633,-872.5 633,-842.5 430,-842.5"/>
<text text-anchor="start" x="437" y="-853.9" font-family="Arial" font-size="14.00" fill="#000000">id </text>
<text text-anchor="start" x="451.7798" y="-853.9" font-family="Arial" font-size="14.00" fill="#666666">[varchar(36)]</text>
<polygon fill="none" stroke="#000000" points="430,-812.5 430,-842.5 633,-842.5 633,-812.5 430,-812.5"/>
<text text-anchor="start" x="436.5975" y="-823.9" font-family="Arial" font-size="14.00" fill="#000000">game_version_id </text>
<text text-anchor="start" x="547.0659" y="-823.9" font-family="Arial" font-size="14.00" fill="#666666">[varchar(36)]</text>
<polygon fill="none" stroke="#000000" points="430,-782.5 430,-812.5 633,-812.5 633,-782.5 430,-782.5"/>
<text text-anchor="start" x="437" y="-793.9" font-family="Arial" font-size="14.00" fill="#000000">url </text>
<text text-anchor="start" x="456.4404" y="-793.9" font-family="Arial" font-size="14.00" fill="#666666">[text]</text>
<polygon fill="none" stroke="#000000" points="430,-752.5 430,-782.5 633,-782.5 633,-752.5 430,-752.5"/>
<text text-anchor="start" x="437" y="-763.9" font-family="Arial" font-size="14.00" fill="#000000">created_at </text>
<text text-anchor="start" x="507.028" y="-763.9" font-family="Arial" font-size="14.00" fill="#666666">[datetime]</text>
</g>
<!-- game_urls&#45;&gt;game_versions -->
<g id="edge2" class="edge">
<title>game_urls:game_version_id&#45;&gt;game_versions:id</title>
<path fill="none" stroke="#000000" d="M419.7343,-826.3948C382.5466,-817.3569 411.8428,-754.8072 430,-710 445.3456,-672.1312 478.6544,-681.8688 494,-644 510.1076,-604.2508 536.8889,-547.5 494,-547.5"/>
<polygon fill="#000000" stroke="#000000" points="420.0575,-826.4295 429.5183,-831.9741 425.0287,-826.9648 430,-827.5 430,-827.5 430,-827.5 425.0287,-826.9648 430.4817,-823.0259 420.0575,-826.4295 420.0575,-826.4295"/>
<text text-anchor="start" x="436.602" y="-837.5" font-family="Arial" font-size="10.00" fill="#000000">FOREIGN KEY (game_version_id) REFERENCES game_versions (id)</text>
</g>
</g>
</svg>
