<?xml version="1.0" encoding="UTF-8" standalone="no"?>
<!DOCTYPE svg PUBLIC "-//W3C//DTD SVG 1.1//EN"
 "http://www.w3.org/Graphics/SVG/1.1/DTD/svg11.dtd">
<!-- Generated by graphviz version 2.40.1 (20161225.0304)
 -->
<!-- Title: games Pages: 1 -->
<svg width="1888pt" height="592pt"
 viewBox="0.00 0.00 1887.50 592.00" xmlns="http://www.w3.org/2000/svg" xmlns:xlink="http://www.w3.org/1999/xlink">
<g id="graph0" class="graph" transform="scale(1 1) rotate(0) translate(4 588)">
<title>games</title>
<polygon fill="#ffffff" stroke="transparent" points="-4,4 -4,-588 1883.5,-588 1883.5,4 -4,4"/>
<!-- games -->
<g id="node1" class="node">
<title>games</title>
<polygon fill="#efefef" stroke="transparent" points="830,-195.5 830,-230.5 995,-230.5 995,-195.5 830,-195.5"/>
<polygon fill="none" stroke="#000000" points="830,-195.5 830,-230.5 995,-230.5 995,-195.5 830,-195.5"/>
<text text-anchor="start" x="836.8677" y="-208.3" font-family="Arial Bold" font-size="18.00" fill="#000000">games</text>
<text text-anchor="start" x="890.8785" y="-208.3" font-family="Arial" font-size="14.00" fill="#000000"> </text>
<text text-anchor="start" x="894.7691" y="-208.3" font-family="Arial" font-size="14.00" fill="#666666">[BASE TABLE]</text>
<polygon fill="none" stroke="#000000" points="830,-165.5 830,-195.5 995,-195.5 995,-165.5 830,-165.5"/>
<text text-anchor="start" x="837" y="-176.9" font-family="Arial" font-size="14.00" fill="#000000">id </text>
<text text-anchor="start" x="851.7798" y="-176.9" font-family="Arial" font-size="14.00" fill="#666666">[varchar(36)]</text>
<polygon fill="none" stroke="#000000" points="830,-135.5 830,-165.5 995,-165.5 995,-135.5 830,-135.5"/>
<text text-anchor="start" x="837" y="-146.9" font-family="Arial" font-size="14.00" fill="#000000">name </text>
<text text-anchor="start" x="875.899" y="-146.9" font-family="Arial" font-size="14.00" fill="#666666">[varchar(256)]</text>
<polygon fill="none" stroke="#000000" points="830,-105.5 830,-135.5 995,-135.5 995,-105.5 830,-105.5"/>
<text text-anchor="start" x="837" y="-116.9" font-family="Arial" font-size="14.00" fill="#000000">description </text>
<text text-anchor="start" x="908.568" y="-116.9" font-family="Arial" font-size="14.00" fill="#666666">[text]</text>
<polygon fill="none" stroke="#000000" points="830,-75.5 830,-105.5 995,-105.5 995,-75.5 830,-75.5"/>
<text text-anchor="start" x="837" y="-86.9" font-family="Arial" font-size="14.00" fill="#000000">created_at </text>
<text text-anchor="start" x="907.028" y="-86.9" font-family="Arial" font-size="14.00" fill="#666666">[datetime]</text>
<polygon fill="none" stroke="#000000" points="830,-45.5 830,-75.5 995,-75.5 995,-45.5 830,-45.5"/>
<text text-anchor="start" x="837" y="-56.9" font-family="Arial" font-size="14.00" fill="#000000">deleted_at </text>
<text text-anchor="start" x="906.2566" y="-56.9" font-family="Arial" font-size="14.00" fill="#666666">[datetime]</text>
<polygon fill="none" stroke="#000000" stroke-width="3" points="828,-44.5 828,-232.5 996,-232.5 996,-44.5 828,-44.5"/>
</g>
<!-- game_images -->
<g id="node2" class="node">
<title>game_images</title>
<polygon fill="#efefef" stroke="transparent" points="43,-490.5 43,-525.5 267,-525.5 267,-490.5 43,-490.5"/>
<polygon fill="none" stroke="#000000" points="43,-490.5 43,-525.5 267,-525.5 267,-490.5 43,-490.5"/>
<text text-anchor="start" x="49.8621" y="-503.3" font-family="Arial Bold" font-size="18.00" fill="#000000">game_images</text>
<text text-anchor="start" x="162.8841" y="-503.3" font-family="Arial" font-size="14.00" fill="#000000"> </text>
<text text-anchor="start" x="166.7747" y="-503.3" font-family="Arial" font-size="14.00" fill="#666666">[BASE TABLE]</text>
<polygon fill="none" stroke="#000000" points="43,-460.5 43,-490.5 267,-490.5 267,-460.5 43,-460.5"/>
<text text-anchor="start" x="50" y="-471.9" font-family="Arial" font-size="14.00" fill="#000000">id </text>
<text text-anchor="start" x="64.7798" y="-471.9" font-family="Arial" font-size="14.00" fill="#666666">[varchar(36)]</text>
<polygon fill="none" stroke="#000000" points="43,-430.5 43,-460.5 267,-460.5 267,-430.5 43,-430.5"/>
<text text-anchor="start" x="50" y="-441.9" font-family="Arial" font-size="14.00" fill="#000000">game_id </text>
<text text-anchor="start" x="107.5708" y="-441.9" font-family="Arial" font-size="14.00" fill="#666666">[varchar(36)]</text>
<polygon fill="none" stroke="#000000" points="43,-400.5 43,-430.5 267,-430.5 267,-400.5 43,-400.5"/>
<text text-anchor="start" x="50" y="-411.9" font-family="Arial" font-size="14.00" fill="#000000">image_type_id </text>
<text text-anchor="start" x="144.9158" y="-411.9" font-family="Arial" font-size="14.00" fill="#666666">[tinyint(4)]</text>
<polygon fill="none" stroke="#000000" points="43,-370.5 43,-400.5 267,-400.5 267,-370.5 43,-370.5"/>
<text text-anchor="start" x="50" y="-381.9" font-family="Arial" font-size="14.00" fill="#000000">created_at </text>
<text text-anchor="start" x="120.028" y="-381.9" font-family="Arial" font-size="14.00" fill="#666666">[datetime]</text>
</g>
<!-- game_images&#45;&gt;games -->
<g id="edge1" class="edge">
<title>game_images:game_id&#45;&gt;games:id</title>
<path fill="none" stroke="#000000" d="M277.2012,-444.5352C323.5536,-434.7146 274.526,-352.4226 319,-313 406.7868,-235.1841 712.6891,-180.5 830,-180.5"/>
<polygon fill="#000000" stroke="#000000" points="276.9556,-444.5583 266.5762,-441.02 271.9778,-445.0292 267,-445.5 267,-445.5 267,-445.5 271.9778,-445.0292 267.4238,-449.98 276.9556,-444.5583 276.9556,-444.5583"/>
<text text-anchor="start" x="148.886" y="-429.5" font-family="Arial" font-size="10.00" fill="#000000">FOREIGN KEY (game_id) REFERENCES games (id)</text>
</g>
<!-- game_management_roles -->
<g id="node3" class="node">
<title>game_management_roles</title>
<polygon fill="#efefef" stroke="transparent" points="371,-475.5 371,-510.5 691,-510.5 691,-475.5 371,-475.5"/>
<polygon fill="none" stroke="#000000" points="371,-475.5 371,-510.5 691,-510.5 691,-475.5 371,-475.5"/>
<text text-anchor="start" x="377.8471" y="-488.3" font-family="Arial Bold" font-size="18.00" fill="#000000">game_management_roles</text>
<text text-anchor="start" x="586.8991" y="-488.3" font-family="Arial" font-size="14.00" fill="#000000"> </text>
<text text-anchor="start" x="590.7897" y="-488.3" font-family="Arial" font-size="14.00" fill="#666666">[BASE TABLE]</text>
<polygon fill="none" stroke="#000000" points="371,-445.5 371,-475.5 691,-475.5 691,-445.5 371,-445.5"/>
<text text-anchor="start" x="378" y="-456.9" font-family="Arial" font-size="14.00" fill="#000000">game_id </text>
<text text-anchor="start" x="435.5708" y="-456.9" font-family="Arial" font-size="14.00" fill="#666666">[varchar(36)]</text>
<polygon fill="none" stroke="#000000" points="371,-415.5 371,-445.5 691,-445.5 691,-415.5 371,-415.5"/>
<text text-anchor="start" x="378" y="-426.9" font-family="Arial" font-size="14.00" fill="#000000">user_id </text>
<text text-anchor="start" x="427.7882" y="-426.9" font-family="Arial" font-size="14.00" fill="#666666">[varchar(36)]</text>
<polygon fill="none" stroke="#000000" points="371,-385.5 371,-415.5 691,-415.5 691,-385.5 371,-385.5"/>
<text text-anchor="start" x="378" y="-396.9" font-family="Arial" font-size="14.00" fill="#000000">role_type_id </text>
<text text-anchor="start" x="458.1332" y="-396.9" font-family="Arial" font-size="14.00" fill="#666666">[tinyint(4)]</text>
</g>
<!-- game_management_roles&#45;&gt;games -->
<g id="edge2" class="edge">
<title>game_management_roles:game_id&#45;&gt;games:id</title>
<path fill="none" stroke="#000000" d="M701.0422,-459.8049C755.6292,-451.5763 713.7702,-372.001 743,-313 774.2737,-249.8734 759.5513,-180.5 830,-180.5"/>
<polygon fill="#000000" stroke="#000000" points="700.9761,-459.8094 690.6892,-456.0107 695.9881,-460.1547 691,-460.5 691,-460.5 691,-460.5 695.9881,-460.1547 691.3108,-464.9893 700.9761,-459.8094 700.9761,-459.8094"/>
<text text-anchor="start" x="698.386" y="-470.5" font-family="Arial" font-size="10.00" fill="#000000">FOREIGN KEY (game_id) REFERENCES games (id)</text>
</g>
<!-- game_versions -->
<g id="node4" class="node">
<title>game_versions</title>
<polygon fill="#efefef" stroke="transparent" points="796,-505.5 796,-540.5 1029,-540.5 1029,-505.5 796,-505.5"/>
<polygon fill="none" stroke="#000000" points="796,-505.5 796,-540.5 1029,-540.5 1029,-505.5 796,-505.5"/>
<text text-anchor="start" x="802.8621" y="-518.3" font-family="Arial Bold" font-size="18.00" fill="#000000">game_versions</text>
<text text-anchor="start" x="924.8841" y="-518.3" font-family="Arial" font-size="14.00" fill="#000000"> </text>
<text text-anchor="start" x="928.7747" y="-518.3" font-family="Arial" font-size="14.00" fill="#666666">[BASE TABLE]</text>
<polygon fill="none" stroke="#000000" points="796,-475.5 796,-505.5 1029,-505.5 1029,-475.5 796,-475.5"/>
<text text-anchor="start" x="803" y="-486.9" font-family="Arial" font-size="14.00" fill="#000000">id </text>
<text text-anchor="start" x="817.7798" y="-486.9" font-family="Arial" font-size="14.00" fill="#666666">[varchar(36)]</text>
<polygon fill="none" stroke="#000000" points="796,-445.5 796,-475.5 1029,-475.5 1029,-445.5 796,-445.5"/>
<text text-anchor="start" x="803" y="-456.9" font-family="Arial" font-size="14.00" fill="#000000">game_id </text>
<text text-anchor="start" x="860.5708" y="-456.9" font-family="Arial" font-size="14.00" fill="#666666">[varchar(36)]</text>
<polygon fill="none" stroke="#000000" points="796,-415.5 796,-445.5 1029,-445.5 1029,-415.5 796,-415.5"/>
<text text-anchor="start" x="803" y="-426.9" font-family="Arial" font-size="14.00" fill="#000000">name </text>
<text text-anchor="start" x="841.899" y="-426.9" font-family="Arial" font-size="14.00" fill="#666666">[varchar(32)]</text>
<polygon fill="none" stroke="#000000" points="796,-385.5 796,-415.5 1029,-415.5 1029,-385.5 796,-385.5"/>
<text text-anchor="start" x="803" y="-396.9" font-family="Arial" font-size="14.00" fill="#000000">description </text>
<text text-anchor="start" x="874.568" y="-396.9" font-family="Arial" font-size="14.00" fill="#666666">[text]</text>
<polygon fill="none" stroke="#000000" points="796,-355.5 796,-385.5 1029,-385.5 1029,-355.5 796,-355.5"/>
<text text-anchor="start" x="803" y="-366.9" font-family="Arial" font-size="14.00" fill="#000000">created_at </text>
<text text-anchor="start" x="873.028" y="-366.9" font-family="Arial" font-size="14.00" fill="#666666">[datetime]</text>
</g>
<!-- game_versions&#45;&gt;games -->
<g id="edge3" class="edge">
<title>game_versions:game_id&#45;&gt;games:id</title>
<path fill="none" stroke="#000000" d="M786.2676,-457.9069C737.2643,-429.6795 770.8709,-180.5 830,-180.5"/>
<polygon fill="#000000" stroke="#000000" points="786.3371,-457.9254 794.8414,-464.8483 791.1685,-459.2127 796,-460.5 796,-460.5 796,-460.5 791.1685,-459.2127 797.1586,-456.1517 786.3371,-457.9254 786.3371,-457.9254"/>
<text text-anchor="start" x="740.636" y="-444.5" font-family="Arial" font-size="10.00" fill="#000000">FOREIGN KEY (game_id) REFERENCES games (id)</text>
</g>
<!-- game_videos -->
<g id="node5" class="node">
<title>game_videos</title>
<polygon fill="#efefef" stroke="transparent" points="1133,-490.5 1133,-525.5 1351,-525.5 1351,-490.5 1133,-490.5"/>
<polygon fill="none" stroke="#000000" points="1133,-490.5 1133,-525.5 1351,-525.5 1351,-490.5 1133,-490.5"/>
<text text-anchor="start" x="1139.8582" y="-503.3" font-family="Arial Bold" font-size="18.00" fill="#000000">game_videos</text>
<text text-anchor="start" x="1246.888" y="-503.3" font-family="Arial" font-size="14.00" fill="#000000"> </text>
<text text-anchor="start" x="1250.7786" y="-503.3" font-family="Arial" font-size="14.00" fill="#666666">[BASE TABLE]</text>
<polygon fill="none" stroke="#000000" points="1133,-460.5 1133,-490.5 1351,-490.5 1351,-460.5 1133,-460.5"/>
<text text-anchor="start" x="1140" y="-471.9" font-family="Arial" font-size="14.00" fill="#000000">id </text>
<text text-anchor="start" x="1154.7798" y="-471.9" font-family="Arial" font-size="14.00" fill="#666666">[varchar(36)]</text>
<polygon fill="none" stroke="#000000" points="1133,-430.5 1133,-460.5 1351,-460.5 1351,-430.5 1133,-430.5"/>
<text text-anchor="start" x="1140" y="-441.9" font-family="Arial" font-size="14.00" fill="#000000">game_id </text>
<text text-anchor="start" x="1197.5708" y="-441.9" font-family="Arial" font-size="14.00" fill="#666666">[varchar(36)]</text>
<polygon fill="none" stroke="#000000" points="1133,-400.5 1133,-430.5 1351,-430.5 1351,-400.5 1133,-400.5"/>
<text text-anchor="start" x="1140" y="-411.9" font-family="Arial" font-size="14.00" fill="#000000">video_type_id </text>
<text text-anchor="start" x="1230.2552" y="-411.9" font-family="Arial" font-size="14.00" fill="#666666">[tinyint(4)]</text>
<polygon fill="none" stroke="#000000" points="1133,-370.5 1133,-400.5 1351,-400.5 1351,-370.5 1133,-370.5"/>
<text text-anchor="start" x="1140" y="-381.9" font-family="Arial" font-size="14.00" fill="#000000">created_at </text>
<text text-anchor="start" x="1210.028" y="-381.9" font-family="Arial" font-size="14.00" fill="#666666">[datetime]</text>
</g>
<!-- game_videos&#45;&gt;games -->
<g id="edge4" class="edge">
<title>game_videos:game_id&#45;&gt;games:id</title>
<path fill="none" stroke="#000000" d="M1122.9106,-444.7341C1074.2103,-436.6345 1108.2286,-365.9658 1081,-313 1048.9018,-250.5617 1065.2057,-180.5 995,-180.5"/>
<polygon fill="#000000" stroke="#000000" points="1123.0287,-444.743 1132.6594,-449.9871 1128.0143,-445.1215 1133,-445.5 1133,-445.5 1133,-445.5 1128.0143,-445.1215 1133.3406,-441.0129 1123.0287,-444.743 1123.0287,-444.743"/>
<text text-anchor="start" x="1140.386" y="-455.5" font-family="Arial" font-size="10.00" fill="#000000">FOREIGN KEY (game_id) REFERENCES games (id)</text>
</g>
<!-- launcher_version_game_relations -->
<g id="node6" class="node">
<title>launcher_version_game_relations</title>
<polygon fill="#efefef" stroke="transparent" points="1456,-460.5 1456,-495.5 1837,-495.5 1837,-460.5 1456,-460.5"/>
<polygon fill="none" stroke="#000000" points="1456,-460.5 1456,-495.5 1837,-495.5 1837,-460.5 1456,-460.5"/>
<text text-anchor="start" x="1462.8434" y="-473.3" font-family="Arial Bold" font-size="18.00" fill="#000000">launcher_version_game_relations</text>
<text text-anchor="start" x="1732.9028" y="-473.3" font-family="Arial" font-size="14.00" fill="#000000"> </text>
<text text-anchor="start" x="1736.7934" y="-473.3" font-family="Arial" font-size="14.00" fill="#666666">[BASE TABLE]</text>
<polygon fill="none" stroke="#000000" points="1456,-430.5 1456,-460.5 1837,-460.5 1837,-430.5 1456,-430.5"/>
<text text-anchor="start" x="1463" y="-441.9" font-family="Arial" font-size="14.00" fill="#000000">launcher_version_table_id </text>
<text text-anchor="start" x="1630.2678" y="-441.9" font-family="Arial" font-size="14.00" fill="#666666">[varchar(36)]</text>
<polygon fill="none" stroke="#000000" points="1456,-400.5 1456,-430.5 1837,-430.5 1837,-400.5 1456,-400.5"/>
<text text-anchor="start" x="1463" y="-411.9" font-family="Arial" font-size="14.00" fill="#000000">game_table_id </text>
<text text-anchor="start" x="1558.6984" y="-411.9" font-family="Arial" font-size="14.00" fill="#666666">[varchar(36)]</text>
</g>
<!-- launcher_version_game_relations&#45;&gt;games -->
<g id="edge5" class="edge">
<title>launcher_version_game_relations:game_table_id&#45;&gt;games:id</title>
<path fill="none" stroke="#000000" d="M1445.9788,-414.3977C1409.8428,-405.4104 1439.1975,-343.7244 1403,-313 1257.6457,-189.6233 1185.6559,-180.5 995,-180.5"/>
<polygon fill="#000000" stroke="#000000" points="1446.06,-414.4065 1455.5079,-419.973 1451.03,-414.9533 1456,-415.5 1456,-415.5 1456,-415.5 1451.03,-414.9533 1456.4921,-411.027 1446.06,-414.4065 1446.06,-414.4065"/>
<text text-anchor="start" x="1184.769" y="-425.5" font-family="Arial" font-size="10.00" fill="#000000">FOREIGN KEY (game_table_id) REFERENCES games (id)</text>
</g>
</g>
</svg>
