<?xml version="1.0" encoding="UTF-8" standalone="no"?>
<!DOCTYPE svg PUBLIC "-//W3C//DTD SVG 1.1//EN"
 "http://www.w3.org/Graphics/SVG/1.1/DTD/svg11.dtd">
<!-- Generated by graphviz version 2.40.1 (20161225.0304)
 -->
<!-- Title: game_feedback_configs Pages: 1 -->
<svg width="825pt" height="592pt"
 viewBox="0.00 0.00 825.00 592.00" xmlns="http://www.w3.org/2000/svg" xmlns:xlink="http://www.w3.org/1999/xlink">
<g id="graph0" class="graph" transform="scale(1 1) rotate(0) translate(4 588)">
<title>game_feedback_configs</title>
<polygon fill="#ffffff" stroke="transparent" points="-4,4 -4,-588 821,-588 821,4 -4,4"/>
<!-- game_feedback_configs -->
<g id="node1" class="node">
<title>game_feedback_configs</title>
<polygon fill="#efefef" stroke="transparent" points="260,-502.5 260,-537.5 566,-537.5 566,-502.5 260,-502.5"/>
<polygon fill="none" stroke="#000000" points="260,-502.5 260,-537.5 566,-537.5 566,-502.5 260,-502.5"/>
<text text-anchor="start" x="266.8374" y="-515.3" font-family="Arial Bold" font-size="18.00" fill="#000000">game_feedback_configs</text>
<text text-anchor="start" x="461.9088" y="-515.3" font-family="Arial" font-size="14.00" fill="#000000"> </text>
<text text-anchor="start" x="465.7994" y="-515.3" font-family="Arial" font-size="14.00" fill="#666666">[BASE TABLE]</text>
<polygon fill="none" stroke="#000000" points="260,-472.5 260,-502.5 566,-502.5 566,-472.5 260,-472.5"/>
<text text-anchor="start" x="267" y="-483.9" font-family="Arial" font-size="14.00" fill="#000000">edition_id </text>
<text text-anchor="start" x="330.7966" y="-483.9" font-family="Arial" font-size="14.00" fill="#666666">[varchar(36)]</text>
<polygon fill="none" stroke="#000000" points="260,-442.5 260,-472.5 566,-472.5 566,-442.5 260,-442.5"/>
<text text-anchor="start" x="267" y="-453.9" font-family="Arial" font-size="14.00" fill="#000000">game_id </text>
<text text-anchor="start" x="324.5708" y="-453.9" font-family="Arial" font-size="14.00" fill="#666666">[varchar(36)]</text>
<polygon fill="none" stroke="#000000" points="260,-412.5 260,-442.5 566,-442.5 566,-412.5 260,-412.5"/>
<text text-anchor="start" x="267" y="-423.9" font-family="Arial" font-size="14.00" fill="#000000">enabled </text>
<text text-anchor="start" x="320.6928" y="-423.9" font-family="Arial" font-size="14.00" fill="#666666">[tinyint(1)]</text>
<polygon fill="none" stroke="#000000" stroke-width="3" points="258.5,-411.5 258.5,-539.5 567.5,-539.5 567.5,-411.5 258.5,-411.5"/>
</g>
<!-- editions -->
<g id="node2" class="node">
<title>editions</title>
<polygon fill="#efefef" stroke="transparent" points="170,-222.5 170,-257.5 343,-257.5 343,-222.5 170,-222.5"/>
<polygon fill="none" stroke="#000000" points="170,-222.5 170,-257.5 343,-257.5 343,-222.5 170,-222.5"/>
<text text-anchor="start" x="176.8654" y="-235.3" font-family="Arial Bold" font-size="18.00" fill="#000000">editions</text>
<text text-anchor="start" x="238.8808" y="-235.3" font-family="Arial" font-size="14.00" fill="#000000"> </text>
<text text-anchor="start" x="242.7714" y="-235.3" font-family="Arial" font-size="14.00" fill="#666666">[BASE TABLE]</text>
<polygon fill="none" stroke="#000000" points="170,-192.5 170,-222.5 343,-222.5 343,-192.5 170,-192.5"/>
<text text-anchor="start" x="177" y="-203.9" font-family="Arial" font-size="14.00" fill="#000000">id </text>
<text text-anchor="start" x="191.7798" y="-203.9" font-family="Arial" font-size="14.00" fill="#666666">[varchar(36)]</text>
<polygon fill="none" stroke="#000000" points="170,-162.5 170,-192.5 343,-192.5 343,-162.5 170,-162.5"/>
<text text-anchor="start" x="177" y="-173.9" font-family="Arial" font-size="14.00" fill="#000000">name </text>
<text text-anchor="start" x="215.899" y="-173.9" font-family="Arial" font-size="14.00" fill="#666666">[varchar(32)]</text>
<polygon fill="none" stroke="#000000" points="170,-132.5 170,-162.5 343,-162.5 343,-132.5 170,-132.5"/>
<text text-anchor="start" x="177" y="-143.9" font-family="Arial" font-size="14.00" fill="#000000">questionnaire_url </text>
<text text-anchor="start" x="288.2482" y="-143.9" font-family="Arial" font-size="14.00" fill="#666666">[text]</text>
<polygon fill="none" stroke="#000000" points="170,-102.5 170,-132.5 343,-132.5 343,-102.5 170,-102.5"/>
<text text-anchor="start" x="177" y="-113.9" font-family="Arial" font-size="14.00" fill="#000000">created_at </text>
<text text-anchor="start" x="247.028" y="-113.9" font-family="Arial" font-size="14.00" fill="#666666">[datetime]</text>
<polygon fill="none" stroke="#000000" points="170,-72.5 170,-102.5 343,-102.5 343,-72.5 170,-72.5"/>
<text text-anchor="start" x="177" y="-83.9" font-family="Arial" font-size="14.00" fill="#000000">deleted_at </text>
<text text-anchor="start" x="246.2566" y="-83.9" font-family="Arial" font-size="14.00" fill="#666666">[datetime]</text>
</g>
<!-- game_feedback_configs&#45;&gt;editions -->
<g id="edge1" class="edge">
<title>game_feedback_configs:edition_id&#45;&gt;editions:id</title>
<path fill="none" stroke="#000000" d="M249.915,-486.4617C210.6686,-477.4566 238.3655,-411.844 260,-367 280.4787,-324.5517 322.5213,-343.4483 343,-301 361.0565,-263.5724 384.5556,-207.5 343,-207.5"/>
<polygon fill="#000000" stroke="#000000" points="250.0526,-486.4758 259.5391,-491.9763 255.0263,-486.9879 260,-487.5 260,-487.5 260,-487.5 255.0263,-486.9879 260.4609,-483.0237 250.0526,-486.4758 250.0526,-486.4758"/>
<text text-anchor="start" x="6.939" y="-497.5" font-family="Arial" font-size="10.00" fill="#000000">FOREIGN KEY (edition_id) REFERENCES editions (id)</text>
</g>
<!-- games -->
<g id="node3" class="node">
<title>games</title>
<polygon fill="#efefef" stroke="transparent" points="447,-252.5 447,-287.5 690,-287.5 690,-252.5 447,-252.5"/>
<polygon fill="none" stroke="#000000" points="447,-252.5 447,-287.5 690,-287.5 690,-252.5 447,-252.5"/>
<text text-anchor="start" x="492.8677" y="-265.3" font-family="Arial Bold" font-size="18.00" fill="#000000">games</text>
<text text-anchor="start" x="546.8785" y="-265.3" font-family="Arial" font-size="14.00" fill="#000000"> </text>
<text text-anchor="start" x="550.7691" y="-265.3" font-family="Arial" font-size="14.00" fill="#666666">[BASE TABLE]</text>
<polygon fill="none" stroke="#000000" points="447,-222.5 447,-252.5 690,-252.5 690,-222.5 447,-222.5"/>
<text text-anchor="start" x="454" y="-233.9" font-family="Arial" font-size="14.00" fill="#000000">id </text>
<text text-anchor="start" x="468.7798" y="-233.9" font-family="Arial" font-size="14.00" fill="#666666">[varchar(36)]</text>
<polygon fill="none" stroke="#000000" points="447,-192.5 447,-222.5 690,-222.5 690,-192.5 447,-192.5"/>
<text text-anchor="start" x="454" y="-203.9" font-family="Arial" font-size="14.00" fill="#000000">name </text>
<text text-anchor="start" x="492.899" y="-203.9" font-family="Arial" font-size="14.00" fill="#666666">[varchar(256)]</text>
<polygon fill="none" stroke="#000000" points="447,-162.5 447,-192.5 690,-192.5 690,-162.5 447,-162.5"/>
<text text-anchor="start" x="454" y="-173.9" font-family="Arial" font-size="14.00" fill="#000000">description </text>
<text text-anchor="start" x="525.568" y="-173.9" font-family="Arial" font-size="14.00" fill="#666666">[text]</text>
<polygon fill="none" stroke="#000000" points="447,-132.5 447,-162.5 690,-162.5 690,-132.5 447,-132.5"/>
<text text-anchor="start" x="454" y="-143.9" font-family="Arial" font-size="14.00" fill="#000000">created_at </text>
<text text-anchor="start" x="524.028" y="-143.9" font-family="Arial" font-size="14.00" fill="#666666">[datetime]</text>
<polygon fill="none" stroke="#000000" points="447,-102.5 447,-132.5 690,-132.5 690,-102.5 447,-102.5"/>
<text text-anchor="start" x="454" y="-113.9" font-family="Arial" font-size="14.00" fill="#000000">deleted_at </text>
<text text-anchor="start" x="523.2566" y="-113.9" font-family="Arial" font-size="14.00" fill="#666666">[datetime]</text>
<polygon fill="none" stroke="#000000" points="447,-72.5 447,-102.5 690,-102.5 690,-72.5 447,-72.5"/>
<text text-anchor="start" x="454" y="-83.9" font-family="Arial" font-size="14.00" fill="#000000">visibility_type_id </text>
<text text-anchor="start" x="559.007" y="-83.9" font-family="Arial" font-size="14.00" fill="#666666">[tinyint(4)]</text>
<polygon fill="none" stroke="#000000" points="447,-42.5 447,-72.5 690,-72.5 690,-42.5 447,-42.5"/>
<text text-anchor="start" x="453.7371" y="-53.9" font-family="Arial" font-size="14.00" fill="#000000">latest_version_updated_at </text>
<text text-anchor="start" x="621.8029" y="-53.9" font-family="Arial" font-size="14.00" fill="#666666">[datetime]</text>
</g>
<!-- game_feedback_configs&#45;&gt;games -->
<g id="edge2" class="edge">
<title>game_feedback_configs:game_id&#45;&gt;games:id</title>
<path fill="none" stroke="#000000" d="M576.2136,-455.9132C602.9748,-446.3794 587.6315,-396.1437 566,-367 533.0672,-322.6303 479.9328,-375.3697 447,-331 422.2328,-297.6316 405.4444,-237.5 447,-237.5"/>
<polygon fill="#000000" stroke="#000000" points="575.8814,-455.9647 565.3091,-453.0533 570.9407,-456.7323 566,-457.5 566,-457.5 566,-457.5 570.9407,-456.7323 566.6909,-461.9467 575.8814,-455.9647 575.8814,-455.9647"/>
<text text-anchor="start" x="573.386" y="-467.5" font-family="Arial" font-size="10.00" fill="#000000">FOREIGN KEY (game_id) REFERENCES games (id)</text>
</g>
</g>
</svg>
