<?xml version="1.0" encoding="UTF-8" standalone="no"?>
<!DOCTYPE svg PUBLIC "-//W3C//DTD SVG 1.1//EN"
 "http://www.w3.org/Graphics/SVG/1.1/DTD/svg11.dtd">
<!-- Generated by graphviz version 2.40.1 (20161225.0304)
 -->
<!-- Title: game_play_logs Pages: 1 -->
<svg width="981pt" height="772pt"
 viewBox="0.00 0.00 980.50 772.00" xmlns="http://www.w3.org/2000/svg" xmlns:xlink="http://www.w3.org/1999/xlink">
<g id="graph0" class="graph" transform="scale(1 1) rotate(0) translate(4 768)">
<title>game_play_logs</title>
<polygon fill="#ffffff" stroke="transparent" points="-4,4 -4,-768 976.5,-768 976.5,4 -4,4"/>
<!-- game_play_logs -->
<g id="node1" class="node">
<title>game_play_logs</title>
<polygon fill="#efefef" stroke="transparent" points="321.5,-682.5 321.5,-717.5 563.5,-717.5 563.5,-682.5 321.5,-682.5"/>
<polygon fill="none" stroke="#000000" points="321.5,-682.5 321.5,-717.5 563.5,-717.5 563.5,-682.5 321.5,-682.5"/>
<text text-anchor="start" x="328.3549" y="-695.3" font-family="Arial Bold" font-size="18.00" fill="#000000">game_play_logs</text>
<text text-anchor="start" x="459.3913" y="-695.3" font-family="Arial" font-size="14.00" fill="#000000"> </text>
<text text-anchor="start" x="463.2819" y="-695.3" font-family="Arial" font-size="14.00" fill="#666666">[BASE TABLE]</text>
<polygon fill="none" stroke="#000000" points="321.5,-652.5 321.5,-682.5 563.5,-682.5 563.5,-652.5 321.5,-652.5"/>
<text text-anchor="start" x="328.5" y="-663.9" font-family="Arial" font-size="14.00" fill="#000000">id </text>
<text text-anchor="start" x="343.2798" y="-663.9" font-family="Arial" font-size="14.00" fill="#666666">[varchar(36)]</text>
<polygon fill="none" stroke="#000000" points="321.5,-622.5 321.5,-652.5 563.5,-652.5 563.5,-622.5 321.5,-622.5"/>
<text text-anchor="start" x="328.5" y="-633.9" font-family="Arial" font-size="14.00" fill="#000000">edition_id </text>
<text text-anchor="start" x="392.2966" y="-633.9" font-family="Arial" font-size="14.00" fill="#666666">[varchar(36)]</text>
<polygon fill="none" stroke="#000000" points="321.5,-592.5 321.5,-622.5 563.5,-622.5 563.5,-592.5 321.5,-592.5"/>
<text text-anchor="start" x="328.5" y="-603.9" font-family="Arial" font-size="14.00" fill="#000000">game_id </text>
<text text-anchor="start" x="386.0708" y="-603.9" font-family="Arial" font-size="14.00" fill="#666666">[varchar(36)]</text>
<polygon fill="none" stroke="#000000" points="321.5,-562.5 321.5,-592.5 563.5,-592.5 563.5,-562.5 321.5,-562.5"/>
<text text-anchor="start" x="328.5" y="-573.9" font-family="Arial" font-size="14.00" fill="#000000">game_version_id </text>
<text text-anchor="start" x="438.9684" y="-573.9" font-family="Arial" font-size="14.00" fill="#666666">[varchar(36)]</text>
<polygon fill="none" stroke="#000000" points="321.5,-532.5 321.5,-562.5 563.5,-562.5 563.5,-532.5 321.5,-532.5"/>
<text text-anchor="start" x="328.5" y="-543.9" font-family="Arial" font-size="14.00" fill="#000000">start_time </text>
<text text-anchor="start" x="393.838" y="-543.9" font-family="Arial" font-size="14.00" fill="#666666">[datetime]</text>
<polygon fill="none" stroke="#000000" points="321.5,-502.5 321.5,-532.5 563.5,-532.5 563.5,-502.5 321.5,-502.5"/>
<text text-anchor="start" x="328.5" y="-513.9" font-family="Arial" font-size="14.00" fill="#000000">end_time </text>
<text text-anchor="start" x="389.9614" y="-513.9" font-family="Arial" font-size="14.00" fill="#666666">[datetime]</text>
<polygon fill="none" stroke="#000000" points="321.5,-472.5 321.5,-502.5 563.5,-502.5 563.5,-472.5 321.5,-472.5"/>
<text text-anchor="start" x="328.5" y="-483.9" font-family="Arial" font-size="14.00" fill="#000000">created_at </text>
<text text-anchor="start" x="398.528" y="-483.9" font-family="Arial" font-size="14.00" fill="#666666">[datetime]</text>
<polygon fill="none" stroke="#000000" points="321.5,-442.5 321.5,-472.5 563.5,-472.5 563.5,-442.5 321.5,-442.5"/>
<text text-anchor="start" x="328.5" y="-453.9" font-family="Arial" font-size="14.00" fill="#000000">updated_at </text>
<text text-anchor="start" x="402.4326" y="-453.9" font-family="Arial" font-size="14.00" fill="#666666">[datetime]</text>
<polygon fill="none" stroke="#000000" stroke-width="3" points="320,-441.5 320,-719.5 565,-719.5 565,-441.5 320,-441.5"/>
</g>
<!-- editions -->
<g id="node2" class="node">
<title>editions</title>
<polygon fill="#efefef" stroke="transparent" points="43.5,-237.5 43.5,-272.5 216.5,-272.5 216.5,-237.5 43.5,-237.5"/>
<polygon fill="none" stroke="#000000" points="43.5,-237.5 43.5,-272.5 216.5,-272.5 216.5,-237.5 43.5,-237.5"/>
<text text-anchor="start" x="50.3654" y="-250.3" font-family="Arial Bold" font-size="18.00" fill="#000000">editions</text>
<text text-anchor="start" x="112.3808" y="-250.3" font-family="Arial" font-size="14.00" fill="#000000"> </text>
<text text-anchor="start" x="116.2714" y="-250.3" font-family="Arial" font-size="14.00" fill="#666666">[BASE TABLE]</text>
<polygon fill="none" stroke="#000000" points="43.5,-207.5 43.5,-237.5 216.5,-237.5 216.5,-207.5 43.5,-207.5"/>
<text text-anchor="start" x="50.5" y="-218.9" font-family="Arial" font-size="14.00" fill="#000000">id </text>
<text text-anchor="start" x="65.2798" y="-218.9" font-family="Arial" font-size="14.00" fill="#666666">[varchar(36)]</text>
<polygon fill="none" stroke="#000000" points="43.5,-177.5 43.5,-207.5 216.5,-207.5 216.5,-177.5 43.5,-177.5"/>
<text text-anchor="start" x="50.5" y="-188.9" font-family="Arial" font-size="14.00" fill="#000000">name </text>
<text text-anchor="start" x="89.399" y="-188.9" font-family="Arial" font-size="14.00" fill="#666666">[varchar(32)]</text>
<polygon fill="none" stroke="#000000" points="43.5,-147.5 43.5,-177.5 216.5,-177.5 216.5,-147.5 43.5,-147.5"/>
<text text-anchor="start" x="50.5" y="-158.9" font-family="Arial" font-size="14.00" fill="#000000">questionnaire_url </text>
<text text-anchor="start" x="161.7482" y="-158.9" font-family="Arial" font-size="14.00" fill="#666666">[text]</text>
<polygon fill="none" stroke="#000000" points="43.5,-117.5 43.5,-147.5 216.5,-147.5 216.5,-117.5 43.5,-117.5"/>
<text text-anchor="start" x="50.5" y="-128.9" font-family="Arial" font-size="14.00" fill="#000000">created_at </text>
<text text-anchor="start" x="120.528" y="-128.9" font-family="Arial" font-size="14.00" fill="#666666">[datetime]</text>
<polygon fill="none" stroke="#000000" points="43.5,-87.5 43.5,-117.5 216.5,-117.5 216.5,-87.5 43.5,-87.5"/>
<text text-anchor="start" x="50.5" y="-98.9" font-family="Arial" font-size="14.00" fill="#000000">deleted_at </text>
<text text-anchor="start" x="119.7566" y="-98.9" font-family="Arial" font-size="14.00" fill="#666666">[datetime]</text>
</g>
<!-- game_play_logs&#45;&gt;editions -->
<g id="edge1" class="edge">
<title>game_play_logs:edition_id&#45;&gt;editions:id</title>
<path fill="none" stroke="#000000" d="M311.6363,-635.8279C232.451,-607.2707 308.0981,-222.5 216.5,-222.5"/>
<polygon fill="#000000" stroke="#000000" points="311.6407,-635.8286 320.7479,-641.9367 316.5703,-636.6643 321.5,-637.5 321.5,-637.5 321.5,-637.5 316.5703,-636.6643 322.2521,-633.0633 311.6407,-635.8286 311.6407,-635.8286"/>
<text text-anchor="start" x="68.439" y="-647.5" font-family="Arial" font-size="10.00" fill="#000000">FOREIGN KEY (edition_id) REFERENCES editions (id)</text>
</g>
<!-- games -->
<g id="node3" class="node">
<title>games</title>
<polygon fill="#efefef" stroke="transparent" points="320.5,-267.5 320.5,-302.5 563.5,-302.5 563.5,-267.5 320.5,-267.5"/>
<polygon fill="none" stroke="#000000" points="320.5,-267.5 320.5,-302.5 563.5,-302.5 563.5,-267.5 320.5,-267.5"/>
<text text-anchor="start" x="366.3677" y="-280.3" font-family="Arial Bold" font-size="18.00" fill="#000000">games</text>
<text text-anchor="start" x="420.3785" y="-280.3" font-family="Arial" font-size="14.00" fill="#000000"> </text>
<text text-anchor="start" x="424.2691" y="-280.3" font-family="Arial" font-size="14.00" fill="#666666">[BASE TABLE]</text>
<polygon fill="none" stroke="#000000" points="320.5,-237.5 320.5,-267.5 563.5,-267.5 563.5,-237.5 320.5,-237.5"/>
<text text-anchor="start" x="327.5" y="-248.9" font-family="Arial" font-size="14.00" fill="#000000">id </text>
<text text-anchor="start" x="342.2798" y="-248.9" font-family="Arial" font-size="14.00" fill="#666666">[varchar(36)]</text>
<polygon fill="none" stroke="#000000" points="320.5,-207.5 320.5,-237.5 563.5,-237.5 563.5,-207.5 320.5,-207.5"/>
<text text-anchor="start" x="327.5" y="-218.9" font-family="Arial" font-size="14.00" fill="#000000">name </text>
<text text-anchor="start" x="366.399" y="-218.9" font-family="Arial" font-size="14.00" fill="#666666">[varchar(256)]</text>
<polygon fill="none" stroke="#000000" points="320.5,-177.5 320.5,-207.5 563.5,-207.5 563.5,-177.5 320.5,-177.5"/>
<text text-anchor="start" x="327.5" y="-188.9" font-family="Arial" font-size="14.00" fill="#000000">description </text>
<text text-anchor="start" x="399.068" y="-188.9" font-family="Arial" font-size="14.00" fill="#666666">[text]</text>
<polygon fill="none" stroke="#000000" points="320.5,-147.5 320.5,-177.5 563.5,-177.5 563.5,-147.5 320.5,-147.5"/>
<text text-anchor="start" x="327.5" y="-158.9" font-family="Arial" font-size="14.00" fill="#000000">created_at </text>
<text text-anchor="start" x="397.528" y="-158.9" font-family="Arial" font-size="14.00" fill="#666666">[datetime]</text>
<polygon fill="none" stroke="#000000" points="320.5,-117.5 320.5,-147.5 563.5,-147.5 563.5,-117.5 320.5,-117.5"/>
<text text-anchor="start" x="327.5" y="-128.9" font-family="Arial" font-size="14.00" fill="#000000">deleted_at </text>
<text text-anchor="start" x="396.7566" y="-128.9" font-family="Arial" font-size="14.00" fill="#666666">[datetime]</text>
<polygon fill="none" stroke="#000000" points="320.5,-87.5 320.5,-117.5 563.5,-117.5 563.5,-87.5 320.5,-87.5"/>
<text text-anchor="start" x="327.5" y="-98.9" font-family="Arial" font-size="14.00" fill="#000000">visibility_type_id </text>
<text text-anchor="start" x="432.507" y="-98.9" font-family="Arial" font-size="14.00" fill="#666666">[tinyint(4)]</text>
<polygon fill="none" stroke="#000000" points="320.5,-57.5 320.5,-87.5 563.5,-87.5 563.5,-57.5 320.5,-57.5"/>
<text text-anchor="start" x="327.2371" y="-68.9" font-family="Arial" font-size="14.00" fill="#000000">latest_version_updated_at </text>
<text text-anchor="start" x="495.3029" y="-68.9" font-family="Arial" font-size="14.00" fill="#666666">[datetime]</text>
</g>
<!-- game_play_logs&#45;&gt;games -->
<g id="edge2" class="edge">
<title>game_play_logs:game_id&#45;&gt;games:id</title>
<path fill="none" stroke="#000000" d="M311.117,-606.8811C230.6859,-596.8303 264.8629,-466.8171 321.5,-397 390.7477,-311.6377 494.2523,-431.3623 563.5,-346 589.6798,-313.728 605.0556,-252.5 563.5,-252.5"/>
<polygon fill="#000000" stroke="#000000" points="311.5177,-606.9049 321.2322,-611.992 316.5089,-607.2024 321.5,-607.5 321.5,-607.5 321.5,-607.5 316.5089,-607.2024 321.7678,-603.008 311.5177,-606.9049 311.5177,-606.9049"/>
<text text-anchor="start" x="77.886" y="-617.5" font-family="Arial" font-size="10.00" fill="#000000">FOREIGN KEY (game_id) REFERENCES games (id)</text>
</g>
<!-- v2_game_versions -->
<g id="node4" class="node">
<title>v2_game_versions</title>
<polygon fill="#efefef" stroke="transparent" points="667.5,-282.5 667.5,-317.5 929.5,-317.5 929.5,-282.5 667.5,-282.5"/>
<polygon fill="none" stroke="#000000" points="667.5,-282.5 667.5,-317.5 929.5,-317.5 929.5,-282.5 667.5,-282.5"/>
<text text-anchor="start" x="674.3559" y="-295.3" font-family="Arial Bold" font-size="18.00" fill="#000000">v2_game_versions</text>
<text text-anchor="start" x="825.3903" y="-295.3" font-family="Arial" font-size="14.00" fill="#000000"> </text>
<text text-anchor="start" x="829.2809" y="-295.3" font-family="Arial" font-size="14.00" fill="#666666">[BASE TABLE]</text>
<polygon fill="none" stroke="#000000" points="667.5,-252.5 667.5,-282.5 929.5,-282.5 929.5,-252.5 667.5,-252.5"/>
<text text-anchor="start" x="674.5" y="-263.9" font-family="Arial" font-size="14.00" fill="#000000">id </text>
<text text-anchor="start" x="689.2798" y="-263.9" font-family="Arial" font-size="14.00" fill="#666666">[varchar(36)]</text>
<polygon fill="none" stroke="#000000" points="667.5,-222.5 667.5,-252.5 929.5,-252.5 929.5,-222.5 667.5,-222.5"/>
<text text-anchor="start" x="674.5" y="-233.9" font-family="Arial" font-size="14.00" fill="#000000">game_id </text>
<text text-anchor="start" x="732.0708" y="-233.9" font-family="Arial" font-size="14.00" fill="#666666">[varchar(36)]</text>
<polygon fill="none" stroke="#000000" points="667.5,-192.5 667.5,-222.5 929.5,-222.5 929.5,-192.5 667.5,-192.5"/>
<text text-anchor="start" x="674.5" y="-203.9" font-family="Arial" font-size="14.00" fill="#000000">game_image_id </text>
<text text-anchor="start" x="777.9684" y="-203.9" font-family="Arial" font-size="14.00" fill="#666666">[varchar(36)]</text>
<polygon fill="none" stroke="#000000" points="667.5,-162.5 667.5,-192.5 929.5,-192.5 929.5,-162.5 667.5,-162.5"/>
<text text-anchor="start" x="674.5" y="-173.9" font-family="Arial" font-size="14.00" fill="#000000">game_video_id </text>
<text text-anchor="start" x="773.3078" y="-173.9" font-family="Arial" font-size="14.00" fill="#666666">[varchar(36)]</text>
<polygon fill="none" stroke="#000000" points="667.5,-132.5 667.5,-162.5 929.5,-162.5 929.5,-132.5 667.5,-132.5"/>
<text text-anchor="start" x="674.5" y="-143.9" font-family="Arial" font-size="14.00" fill="#000000">name </text>
<text text-anchor="start" x="713.399" y="-143.9" font-family="Arial" font-size="14.00" fill="#666666">[varchar(32)]</text>
<polygon fill="none" stroke="#000000" points="667.5,-102.5 667.5,-132.5 929.5,-132.5 929.5,-102.5 667.5,-102.5"/>
<text text-anchor="start" x="674.5" y="-113.9" font-family="Arial" font-size="14.00" fill="#000000">description </text>
<text text-anchor="start" x="746.068" y="-113.9" font-family="Arial" font-size="14.00" fill="#666666">[text]</text>
<polygon fill="none" stroke="#000000" points="667.5,-72.5 667.5,-102.5 929.5,-102.5 929.5,-72.5 667.5,-72.5"/>
<text text-anchor="start" x="674.5" y="-83.9" font-family="Arial" font-size="14.00" fill="#000000">created_at </text>
<text text-anchor="start" x="744.528" y="-83.9" font-family="Arial" font-size="14.00" fill="#666666">[datetime]</text>
<polygon fill="none" stroke="#000000" points="667.5,-42.5 667.5,-72.5 929.5,-72.5 929.5,-42.5 667.5,-42.5"/>
<text text-anchor="start" x="674.5" y="-53.9" font-family="Arial" font-size="14.00" fill="#000000">url </text>
<text text-anchor="start" x="693.9404" y="-53.9" font-family="Arial" font-size="14.00" fill="#666666">[text]</text>
</g>
<!-- game_play_logs&#45;&gt;v2_game_versions -->
<g id="edge3" class="edge">
<title>game_play_logs:game_version_id&#45;&gt;v2_game_versions:id</title>
<path fill="none" stroke="#000000" d="M573.3551,-575.3549C632.3984,-547.9657 598.3857,-267.5 667.5,-267.5"/>
<polygon fill="#000000" stroke="#000000" points="573.2712,-575.3731 562.5429,-573.103 568.3856,-576.4365 563.5,-577.5 563.5,-577.5 563.5,-577.5 568.3856,-576.4365 564.4571,-581.897 573.2712,-575.3731 573.2712,-575.3731"/>
<text text-anchor="start" x="570.043" y="-587.5" font-family="Arial" font-size="10.00" fill="#000000">FOREIGN KEY (game_version_id) REFERENCES v2_game_versions (id)</text>
</g>
</g>
</svg>
