<?xml version="1.0" encoding="UTF-8" standalone="no"?>
<!DOCTYPE svg PUBLIC "-//W3C//DTD SVG 1.1//EN"
 "http://www.w3.org/Graphics/SVG/1.1/DTD/svg11.dtd">
<!-- Generated by graphviz version 2.40.1 (20161225.0304)
 -->
<!-- Title: game_image_types Pages: 1 -->
<svg width="783pt" height="502pt"
 viewBox="0.00 0.00 783.00 502.00" xmlns="http://www.w3.org/2000/svg" xmlns:xlink="http://www.w3.org/1999/xlink">
<g id="graph0" class="graph" transform="scale(1 1) rotate(0) translate(4 498)">
<title>game_image_types</title>
<polygon fill="#ffffff" stroke="transparent" points="-4,4 -4,-498 779,-498 779,4 -4,4"/>
<!-- game_image_types -->
<g id="node1" class="node">
<title>game_image_types</title>
<polygon fill="#efefef" stroke="transparent" points="261,-135.5 261,-170.5 529,-170.5 529,-135.5 261,-135.5"/>
<polygon fill="none" stroke="#000000" points="261,-135.5 261,-170.5 529,-170.5 529,-135.5 261,-135.5"/>
<text text-anchor="start" x="267.8517" y="-148.3" font-family="Arial Bold" font-size="18.00" fill="#000000">game_image_types</text>
<text text-anchor="start" x="424.8945" y="-148.3" font-family="Arial" font-size="14.00" fill="#000000"> </text>
<text text-anchor="start" x="428.7851" y="-148.3" font-family="Arial" font-size="14.00" fill="#666666">[BASE TABLE]</text>
<polygon fill="none" stroke="#000000" points="261,-105.5 261,-135.5 529,-135.5 529,-105.5 261,-105.5"/>
<text text-anchor="start" x="268" y="-116.9" font-family="Arial" font-size="14.00" fill="#000000">id </text>
<text text-anchor="start" x="282.7798" y="-116.9" font-family="Arial" font-size="14.00" fill="#666666">[tinyint(4)]</text>
<polygon fill="none" stroke="#000000" points="261,-75.5 261,-105.5 529,-105.5 529,-75.5 261,-75.5"/>
<text text-anchor="start" x="268" y="-86.9" font-family="Arial" font-size="14.00" fill="#000000">name </text>
<text text-anchor="start" x="306.899" y="-86.9" font-family="Arial" font-size="14.00" fill="#666666">[varchar(32)]</text>
<polygon fill="none" stroke="#000000" points="261,-45.5 261,-75.5 529,-75.5 529,-45.5 261,-45.5"/>
<text text-anchor="start" x="268" y="-56.9" font-family="Arial" font-size="14.00" fill="#000000">active </text>
<text text-anchor="start" x="308.453" y="-56.9" font-family="Arial" font-size="14.00" fill="#666666">[tinyint(1)]</text>
<polygon fill="none" stroke="#000000" stroke-width="3" points="259.5,-44.5 259.5,-172.5 530.5,-172.5 530.5,-44.5 259.5,-44.5"/>
</g>
<!-- game_images -->
<g id="node2" class="node">
<title>game_images</title>
<polygon fill="#efefef" stroke="transparent" points="111,-415.5 111,-450.5 335,-450.5 335,-415.5 111,-415.5"/>
<polygon fill="none" stroke="#000000" points="111,-415.5 111,-450.5 335,-450.5 335,-415.5 111,-415.5"/>
<text text-anchor="start" x="117.8621" y="-428.3" font-family="Arial Bold" font-size="18.00" fill="#000000">game_images</text>
<text text-anchor="start" x="230.8841" y="-428.3" font-family="Arial" font-size="14.00" fill="#000000"> </text>
<text text-anchor="start" x="234.7747" y="-428.3" font-family="Arial" font-size="14.00" fill="#666666">[BASE TABLE]</text>
<polygon fill="none" stroke="#000000" points="111,-385.5 111,-415.5 335,-415.5 335,-385.5 111,-385.5"/>
<text text-anchor="start" x="118" y="-396.9" font-family="Arial" font-size="14.00" fill="#000000">id </text>
<text text-anchor="start" x="132.7798" y="-396.9" font-family="Arial" font-size="14.00" fill="#666666">[varchar(36)]</text>
<polygon fill="none" stroke="#000000" points="111,-355.5 111,-385.5 335,-385.5 335,-355.5 111,-355.5"/>
<text text-anchor="start" x="118" y="-366.9" font-family="Arial" font-size="14.00" fill="#000000">game_id </text>
<text text-anchor="start" x="175.5708" y="-366.9" font-family="Arial" font-size="14.00" fill="#666666">[varchar(36)]</text>
<polygon fill="none" stroke="#000000" points="111,-325.5 111,-355.5 335,-355.5 335,-325.5 111,-325.5"/>
<text text-anchor="start" x="118" y="-336.9" font-family="Arial" font-size="14.00" fill="#000000">image_type_id </text>
<text text-anchor="start" x="212.9158" y="-336.9" font-family="Arial" font-size="14.00" fill="#666666">[tinyint(4)]</text>
<polygon fill="none" stroke="#000000" points="111,-295.5 111,-325.5 335,-325.5 335,-295.5 111,-295.5"/>
<text text-anchor="start" x="118" y="-306.9" font-family="Arial" font-size="14.00" fill="#000000">created_at </text>
<text text-anchor="start" x="188.028" y="-306.9" font-family="Arial" font-size="14.00" fill="#666666">[datetime]</text>
</g>
<!-- game_images&#45;&gt;game_image_types -->
<g id="edge1" class="edge">
<title>game_images:image_type_id&#45;&gt;game_image_types:id</title>
<path fill="none" stroke="#000000" d="M345.1378,-338.8923C370.1546,-329.6459 353.5299,-282.6208 335,-253 315.603,-221.993 280.397,-248.007 261,-217 238.254,-180.6396 218.1111,-120.5 261,-120.5"/>
<polygon fill="#000000" stroke="#000000" points="344.8766,-338.9336 334.2951,-336.0555 339.9383,-339.7168 335,-340.5 335,-340.5 335,-340.5 339.9383,-339.7168 335.7049,-344.9445 344.8766,-338.9336 344.8766,-338.9336"/>
<text text-anchor="start" x="7.4285" y="-350.5" font-family="Arial" font-size="10.00" fill="#000000">FOREIGN KEY (image_type_id) REFERENCES game_image_types (id)</text>
</g>
<!-- v2_game_images -->
<g id="node3" class="node">
<title>v2_game_images</title>
<polygon fill="#efefef" stroke="transparent" points="440,-415.5 440,-450.5 693,-450.5 693,-415.5 440,-415.5"/>
<polygon fill="none" stroke="#000000" points="440,-415.5 440,-450.5 693,-450.5 693,-415.5 440,-415.5"/>
<text text-anchor="start" x="446.8559" y="-428.3" font-family="Arial Bold" font-size="18.00" fill="#000000">v2_game_images</text>
<text text-anchor="start" x="588.8903" y="-428.3" font-family="Arial" font-size="14.00" fill="#000000"> </text>
<text text-anchor="start" x="592.7809" y="-428.3" font-family="Arial" font-size="14.00" fill="#666666">[BASE TABLE]</text>
<polygon fill="none" stroke="#000000" points="440,-385.5 440,-415.5 693,-415.5 693,-385.5 440,-385.5"/>
<text text-anchor="start" x="447" y="-396.9" font-family="Arial" font-size="14.00" fill="#000000">id </text>
<text text-anchor="start" x="461.7798" y="-396.9" font-family="Arial" font-size="14.00" fill="#666666">[varchar(36)]</text>
<polygon fill="none" stroke="#000000" points="440,-355.5 440,-385.5 693,-385.5 693,-355.5 440,-355.5"/>
<text text-anchor="start" x="447" y="-366.9" font-family="Arial" font-size="14.00" fill="#000000">game_id </text>
<text text-anchor="start" x="504.5708" y="-366.9" font-family="Arial" font-size="14.00" fill="#666666">[varchar(36)]</text>
<polygon fill="none" stroke="#000000" points="440,-325.5 440,-355.5 693,-355.5 693,-325.5 440,-325.5"/>
<text text-anchor="start" x="447" y="-336.9" font-family="Arial" font-size="14.00" fill="#000000">image_type_id </text>
<text text-anchor="start" x="541.9158" y="-336.9" font-family="Arial" font-size="14.00" fill="#666666">[tinyint(4)]</text>
<polygon fill="none" stroke="#000000" points="440,-295.5 440,-325.5 693,-325.5 693,-295.5 440,-295.5"/>
<text text-anchor="start" x="447" y="-306.9" font-family="Arial" font-size="14.00" fill="#000000">created_at </text>
<text text-anchor="start" x="517.028" y="-306.9" font-family="Arial" font-size="14.00" fill="#666666">[datetime]</text>
</g>
<!-- v2_game_images&#45;&gt;game_image_types -->
<g id="edge2" class="edge">
<title>v2_game_images:image_type_id&#45;&gt;game_image_types:id</title>
<path fill="none" stroke="#000000" d="M429.8312,-338.8721C404.6419,-329.5136 420.4681,-281.9699 440,-253 463.8531,-217.621 505.1469,-252.379 529,-217 552.976,-181.4387 571.8889,-120.5 529,-120.5"/>
<polygon fill="#000000" stroke="#000000" points="430.1257,-338.9192 439.2886,-344.9434 435.0629,-339.7096 440,-340.5 440,-340.5 440,-340.5 435.0629,-339.7096 440.7114,-336.0566 430.1257,-338.9192 430.1257,-338.9192"/>
<text text-anchor="start" x="447.4285" y="-350.5" font-family="Arial" font-size="10.00" fill="#000000">FOREIGN KEY (image_type_id) REFERENCES game_image_types (id)</text>
</g>
</g>
</svg>
