<?xml version="1.0" encoding="UTF-8" standalone="no"?>
<!DOCTYPE svg PUBLIC "-//W3C//DTD SVG 1.1//EN"
 "http://www.w3.org/Graphics/SVG/1.1/DTD/svg11.dtd">
<!-- Generated by graphviz version 2.40.1 (20161225.0304)
 -->
<!-- Title: game_videos Pages: 1 -->
<svg width="805pt" height="562pt"
 viewBox="0.00 0.00 805.00 562.00" xmlns="http://www.w3.org/2000/svg" xmlns:xlink="http://www.w3.org/1999/xlink">
<g id="graph0" class="graph" transform="scale(1 1) rotate(0) translate(4 558)">
<title>game_videos</title>
<polygon fill="#ffffff" stroke="transparent" points="-4,4 -4,-558 801,-558 801,4 -4,4"/>
<!-- game_videos -->
<g id="node1" class="node">
<title>game_videos</title>
<polygon fill="#efefef" stroke="transparent" points="251,-472.5 251,-507.5 469,-507.5 469,-472.5 251,-472.5"/>
<polygon fill="none" stroke="#000000" points="251,-472.5 251,-507.5 469,-507.5 469,-472.5 251,-472.5"/>
<text text-anchor="start" x="257.8582" y="-485.3" font-family="Arial Bold" font-size="18.00" fill="#000000">game_videos</text>
<text text-anchor="start" x="364.888" y="-485.3" font-family="Arial" font-size="14.00" fill="#000000"> </text>
<text text-anchor="start" x="368.7786" y="-485.3" font-family="Arial" font-size="14.00" fill="#666666">[BASE TABLE]</text>
<polygon fill="none" stroke="#000000" points="251,-442.5 251,-472.5 469,-472.5 469,-442.5 251,-442.5"/>
<text text-anchor="start" x="258" y="-453.9" font-family="Arial" font-size="14.00" fill="#000000">id </text>
<text text-anchor="start" x="272.7798" y="-453.9" font-family="Arial" font-size="14.00" fill="#666666">[varchar(36)]</text>
<polygon fill="none" stroke="#000000" points="251,-412.5 251,-442.5 469,-442.5 469,-412.5 251,-412.5"/>
<text text-anchor="start" x="258" y="-423.9" font-family="Arial" font-size="14.00" fill="#000000">game_id </text>
<text text-anchor="start" x="315.5708" y="-423.9" font-family="Arial" font-size="14.00" fill="#666666">[varchar(36)]</text>
<polygon fill="none" stroke="#000000" points="251,-382.5 251,-412.5 469,-412.5 469,-382.5 251,-382.5"/>
<text text-anchor="start" x="258" y="-393.9" font-family="Arial" font-size="14.00" fill="#000000">video_type_id </text>
<text text-anchor="start" x="348.2552" y="-393.9" font-family="Arial" font-size="14.00" fill="#666666">[tinyint(4)]</text>
<polygon fill="none" stroke="#000000" points="251,-352.5 251,-382.5 469,-382.5 469,-352.5 251,-352.5"/>
<text text-anchor="start" x="258" y="-363.9" font-family="Arial" font-size="14.00" fill="#000000">created_at </text>
<text text-anchor="start" x="328.028" y="-363.9" font-family="Arial" font-size="14.00" fill="#666666">[datetime]</text>
<polygon fill="none" stroke="#000000" stroke-width="3" points="249.5,-351.5 249.5,-509.5 470.5,-509.5 470.5,-351.5 249.5,-351.5"/>
</g>
<!-- games -->
<g id="node2" class="node">
<title>games</title>
<polygon fill="#efefef" stroke="transparent" points="119,-192.5 119,-227.5 284,-227.5 284,-192.5 119,-192.5"/>
<polygon fill="none" stroke="#000000" points="119,-192.5 119,-227.5 284,-227.5 284,-192.5 119,-192.5"/>
<text text-anchor="start" x="125.8677" y="-205.3" font-family="Arial Bold" font-size="18.00" fill="#000000">games</text>
<text text-anchor="start" x="179.8785" y="-205.3" font-family="Arial" font-size="14.00" fill="#000000"> </text>
<text text-anchor="start" x="183.7691" y="-205.3" font-family="Arial" font-size="14.00" fill="#666666">[BASE TABLE]</text>
<polygon fill="none" stroke="#000000" points="119,-162.5 119,-192.5 284,-192.5 284,-162.5 119,-162.5"/>
<text text-anchor="start" x="126" y="-173.9" font-family="Arial" font-size="14.00" fill="#000000">id </text>
<text text-anchor="start" x="140.7798" y="-173.9" font-family="Arial" font-size="14.00" fill="#666666">[varchar(36)]</text>
<polygon fill="none" stroke="#000000" points="119,-132.5 119,-162.5 284,-162.5 284,-132.5 119,-132.5"/>
<text text-anchor="start" x="126" y="-143.9" font-family="Arial" font-size="14.00" fill="#000000">name </text>
<text text-anchor="start" x="164.899" y="-143.9" font-family="Arial" font-size="14.00" fill="#666666">[varchar(256)]</text>
<polygon fill="none" stroke="#000000" points="119,-102.5 119,-132.5 284,-132.5 284,-102.5 119,-102.5"/>
<text text-anchor="start" x="126" y="-113.9" font-family="Arial" font-size="14.00" fill="#000000">description </text>
<text text-anchor="start" x="197.568" y="-113.9" font-family="Arial" font-size="14.00" fill="#666666">[text]</text>
<polygon fill="none" stroke="#000000" points="119,-72.5 119,-102.5 284,-102.5 284,-72.5 119,-72.5"/>
<text text-anchor="start" x="126" y="-83.9" font-family="Arial" font-size="14.00" fill="#000000">created_at </text>
<text text-anchor="start" x="196.028" y="-83.9" font-family="Arial" font-size="14.00" fill="#666666">[datetime]</text>
<polygon fill="none" stroke="#000000" points="119,-42.5 119,-72.5 284,-72.5 284,-42.5 119,-42.5"/>
<text text-anchor="start" x="126" y="-53.9" font-family="Arial" font-size="14.00" fill="#000000">deleted_at </text>
<text text-anchor="start" x="195.2566" y="-53.9" font-family="Arial" font-size="14.00" fill="#666666">[datetime]</text>
</g>
<!-- game_videos&#45;&gt;games -->
<g id="edge1" class="edge">
<title>game_videos:game_id&#45;&gt;games:id</title>
<path fill="none" stroke="#000000" d="M240.9682,-426.4848C202.1726,-417.6758 232.95,-353.403 251,-307 258.8686,-286.7714 276.1314,-291.2286 284,-271 299.0648,-232.2713 325.5556,-177.5 284,-177.5"/>
<polygon fill="#000000" stroke="#000000" points="241.0508,-426.4931 250.5469,-431.9771 246.0254,-426.9965 251,-427.5 251,-427.5 251,-427.5 246.0254,-426.9965 251.4531,-423.0229 241.0508,-426.4931 241.0508,-426.4931"/>
<text text-anchor="start" x="7.386" y="-437.5" font-family="Arial" font-size="10.00" fill="#000000">FOREIGN KEY (game_id) REFERENCES games (id)</text>
</g>
<!-- game_video_types -->
<g id="node3" class="node">
<title>game_video_types</title>
<polygon fill="#efefef" stroke="transparent" points="388,-162.5 388,-197.5 650,-197.5 650,-162.5 388,-162.5"/>
<polygon fill="none" stroke="#000000" points="388,-162.5 388,-197.5 650,-197.5 650,-162.5 388,-162.5"/>
<text text-anchor="start" x="394.8478" y="-175.3" font-family="Arial Bold" font-size="18.00" fill="#000000">game_video_types</text>
<text text-anchor="start" x="545.8984" y="-175.3" font-family="Arial" font-size="14.00" fill="#000000"> </text>
<text text-anchor="start" x="549.789" y="-175.3" font-family="Arial" font-size="14.00" fill="#666666">[BASE TABLE]</text>
<polygon fill="none" stroke="#000000" points="388,-132.5 388,-162.5 650,-162.5 650,-132.5 388,-132.5"/>
<text text-anchor="start" x="395" y="-143.9" font-family="Arial" font-size="14.00" fill="#000000">id </text>
<text text-anchor="start" x="409.7798" y="-143.9" font-family="Arial" font-size="14.00" fill="#666666">[tinyint(4)]</text>
<polygon fill="none" stroke="#000000" points="388,-102.5 388,-132.5 650,-132.5 650,-102.5 388,-102.5"/>
<text text-anchor="start" x="395" y="-113.9" font-family="Arial" font-size="14.00" fill="#000000">name </text>
<text text-anchor="start" x="433.899" y="-113.9" font-family="Arial" font-size="14.00" fill="#666666">[varchar(32)]</text>
<polygon fill="none" stroke="#000000" points="388,-72.5 388,-102.5 650,-102.5 650,-72.5 388,-72.5"/>
<text text-anchor="start" x="395" y="-83.9" font-family="Arial" font-size="14.00" fill="#000000">active </text>
<text text-anchor="start" x="435.453" y="-83.9" font-family="Arial" font-size="14.00" fill="#666666">[tinyint(1)]</text>
</g>
<!-- game_videos&#45;&gt;game_video_types -->
<g id="edge2" class="edge">
<title>game_videos:video_type_id&#45;&gt;game_video_types:id</title>
<path fill="none" stroke="#000000" d="M479.0403,-396.0173C504.792,-387.0901 484.5754,-339.7823 469,-307 449.0717,-265.0559 407.9283,-282.9441 388,-241 370.1667,-203.4655 346.4444,-147.5 388,-147.5"/>
<polygon fill="#000000" stroke="#000000" points="478.8927,-396.039 468.3425,-393.0483 473.9464,-396.7695 469,-397.5 469,-397.5 469,-397.5 473.9464,-396.7695 469.6575,-401.9517 478.8927,-396.039 478.8927,-396.039"/>
<text text-anchor="start" x="475.7575" y="-407.5" font-family="Arial" font-size="10.00" fill="#000000">FOREIGN KEY (video_type_id) REFERENCES game_video_types (id)</text>
</g>
</g>
</svg>
