<?xml version="1.0" encoding="UTF-8" standalone="no"?>
<!DOCTYPE svg PUBLIC "-//W3C//DTD SVG 1.1//EN"
 "http://www.w3.org/Graphics/SVG/1.1/DTD/svg11.dtd">
<!-- Generated by graphviz version 2.40.1 (20161225.0304)
 -->
<!-- Title: game_genre_relations Pages: 1 -->
<svg width="831pt" height="532pt"
 viewBox="0.00 0.00 831.00 532.00" xmlns="http://www.w3.org/2000/svg" xmlns:xlink="http://www.w3.org/1999/xlink">
<g id="graph0" class="graph" transform="scale(1 1) rotate(0) translate(4 528)">
<title>game_genre_relations</title>
<polygon fill="#ffffff" stroke="transparent" points="-4,4 -4,-528 827,-528 827,4 -4,4"/>
<!-- game_genre_relations -->
<g id="node1" class="node">
<title>game_genre_relations</title>
<polygon fill="#efefef" stroke="transparent" points="282,-442.5 282,-477.5 572,-477.5 572,-442.5 282,-442.5"/>
<polygon fill="none" stroke="#000000" points="282,-442.5 282,-477.5 572,-477.5 572,-442.5 282,-442.5"/>
<text text-anchor="start" x="288.8492" y="-455.3" font-family="Arial Bold" font-size="18.00" fill="#000000">game_genre_relations</text>
<text text-anchor="start" x="467.897" y="-455.3" font-family="Arial" font-size="14.00" fill="#000000"> </text>
<text text-anchor="start" x="471.7876" y="-455.3" font-family="Arial" font-size="14.00" fill="#666666">[BASE TABLE]</text>
<polygon fill="none" stroke="#000000" points="282,-412.5 282,-442.5 572,-442.5 572,-412.5 282,-412.5"/>
<text text-anchor="start" x="289" y="-423.9" font-family="Arial" font-size="14.00" fill="#000000">genre_id </text>
<text text-anchor="start" x="347.3534" y="-423.9" font-family="Arial" font-size="14.00" fill="#666666">[varchar(36)]</text>
<polygon fill="none" stroke="#000000" points="282,-382.5 282,-412.5 572,-412.5 572,-382.5 282,-382.5"/>
<text text-anchor="start" x="289" y="-393.9" font-family="Arial" font-size="14.00" fill="#000000">game_id </text>
<text text-anchor="start" x="346.5708" y="-393.9" font-family="Arial" font-size="14.00" fill="#666666">[varchar(36)]</text>
<polygon fill="none" stroke="#000000" stroke-width="3" points="280.5,-381.5 280.5,-479.5 573.5,-479.5 573.5,-381.5 280.5,-381.5"/>
</g>
<!-- game_genres -->
<g id="node2" class="node">
<title>game_genres</title>
<polygon fill="#efefef" stroke="transparent" points="164,-177.5 164,-212.5 385,-212.5 385,-177.5 164,-177.5"/>
<polygon fill="none" stroke="#000000" points="164,-177.5 164,-212.5 385,-212.5 385,-177.5 164,-177.5"/>
<text text-anchor="start" x="170.8561" y="-190.3" font-family="Arial Bold" font-size="18.00" fill="#000000">game_genres</text>
<text text-anchor="start" x="280.8901" y="-190.3" font-family="Arial" font-size="14.00" fill="#000000"> </text>
<text text-anchor="start" x="284.7807" y="-190.3" font-family="Arial" font-size="14.00" fill="#666666">[BASE TABLE]</text>
<polygon fill="none" stroke="#000000" points="164,-147.5 164,-177.5 385,-177.5 385,-147.5 164,-147.5"/>
<text text-anchor="start" x="171" y="-158.9" font-family="Arial" font-size="14.00" fill="#000000">id </text>
<text text-anchor="start" x="185.7798" y="-158.9" font-family="Arial" font-size="14.00" fill="#666666">[varchar(36)]</text>
<polygon fill="none" stroke="#000000" points="164,-117.5 164,-147.5 385,-147.5 385,-117.5 164,-117.5"/>
<text text-anchor="start" x="171" y="-128.9" font-family="Arial" font-size="14.00" fill="#000000">name </text>
<text text-anchor="start" x="209.899" y="-128.9" font-family="Arial" font-size="14.00" fill="#666666">[varchar(32)]</text>
<polygon fill="none" stroke="#000000" points="164,-87.5 164,-117.5 385,-117.5 385,-87.5 164,-87.5"/>
<text text-anchor="start" x="171" y="-98.9" font-family="Arial" font-size="14.00" fill="#000000">created_at </text>
<text text-anchor="start" x="241.028" y="-98.9" font-family="Arial" font-size="14.00" fill="#666666">[datetime]</text>
</g>
<!-- game_genre_relations&#45;&gt;game_genres -->
<g id="edge1" class="edge">
<title>game_genre_relations:genre_id&#45;&gt;game_genres:id</title>
<path fill="none" stroke="#000000" d="M271.9516,-426.0134C246.1527,-417.0635 266.1414,-369.6463 282,-337 307.4466,-284.6161 359.5534,-308.3839 385,-256 403.1575,-218.6213 426.5556,-162.5 385,-162.5"/>
<polygon fill="#000000" stroke="#000000" points="272.1077,-426.0364 281.3414,-431.9515 277.0538,-426.7682 282,-427.5 282,-427.5 282,-427.5 277.0538,-426.7682 282.6586,-423.0485 272.1077,-426.0364 272.1077,-426.0364"/>
<text text-anchor="start" x="6.5445" y="-437.5" font-family="Arial" font-size="10.00" fill="#000000">FOREIGN KEY (genre_id) REFERENCES game_genres (id)</text>
</g>
<!-- games -->
<g id="node3" class="node">
<title>games</title>
<polygon fill="#efefef" stroke="transparent" points="489,-222.5 489,-257.5 669,-257.5 669,-222.5 489,-222.5"/>
<polygon fill="none" stroke="#000000" points="489,-222.5 489,-257.5 669,-257.5 669,-222.5 489,-222.5"/>
<text text-anchor="start" x="503.3677" y="-235.3" font-family="Arial Bold" font-size="18.00" fill="#000000">games</text>
<text text-anchor="start" x="557.3785" y="-235.3" font-family="Arial" font-size="14.00" fill="#000000"> </text>
<text text-anchor="start" x="561.2691" y="-235.3" font-family="Arial" font-size="14.00" fill="#666666">[BASE TABLE]</text>
<polygon fill="none" stroke="#000000" points="489,-192.5 489,-222.5 669,-222.5 669,-192.5 489,-192.5"/>
<text text-anchor="start" x="496" y="-203.9" font-family="Arial" font-size="14.00" fill="#000000">id </text>
<text text-anchor="start" x="510.7798" y="-203.9" font-family="Arial" font-size="14.00" fill="#666666">[varchar(36)]</text>
<polygon fill="none" stroke="#000000" points="489,-162.5 489,-192.5 669,-192.5 669,-162.5 489,-162.5"/>
<text text-anchor="start" x="496" y="-173.9" font-family="Arial" font-size="14.00" fill="#000000">name </text>
<text text-anchor="start" x="534.899" y="-173.9" font-family="Arial" font-size="14.00" fill="#666666">[varchar(256)]</text>
<polygon fill="none" stroke="#000000" points="489,-132.5 489,-162.5 669,-162.5 669,-132.5 489,-132.5"/>
<text text-anchor="start" x="496" y="-143.9" font-family="Arial" font-size="14.00" fill="#000000">description </text>
<text text-anchor="start" x="567.568" y="-143.9" font-family="Arial" font-size="14.00" fill="#666666">[text]</text>
<polygon fill="none" stroke="#000000" points="489,-102.5 489,-132.5 669,-132.5 669,-102.5 489,-102.5"/>
<text text-anchor="start" x="496" y="-113.9" font-family="Arial" font-size="14.00" fill="#000000">created_at </text>
<text text-anchor="start" x="566.028" y="-113.9" font-family="Arial" font-size="14.00" fill="#666666">[datetime]</text>
<polygon fill="none" stroke="#000000" points="489,-72.5 489,-102.5 669,-102.5 669,-72.5 489,-72.5"/>
<text text-anchor="start" x="496" y="-83.9" font-family="Arial" font-size="14.00" fill="#000000">deleted_at </text>
<text text-anchor="start" x="565.2566" y="-83.9" font-family="Arial" font-size="14.00" fill="#666666">[datetime]</text>
<polygon fill="none" stroke="#000000" points="489,-42.5 489,-72.5 669,-72.5 669,-42.5 489,-42.5"/>
<text text-anchor="start" x="495.7742" y="-53.9" font-family="Arial" font-size="14.00" fill="#000000">visibility_type_id </text>
<text text-anchor="start" x="600.7812" y="-53.9" font-family="Arial" font-size="14.00" fill="#666666">[tinyint(4)]</text>
</g>
<!-- game_genre_relations&#45;&gt;games -->
<g id="edge2" class="edge">
<title>game_genre_relations:game_id&#45;&gt;games:id</title>
<path fill="none" stroke="#000000" d="M581.8848,-394.9197C595.0326,-385.9982 584.448,-355.9676 572,-337 549.9383,-303.3835 511.0617,-334.6165 489,-301 466.1996,-266.258 447.4444,-207.5 489,-207.5"/>
<polygon fill="#000000" stroke="#000000" points="581.6758,-394.9741 570.8634,-393.1459 576.8379,-396.2371 572,-397.5 572,-397.5 572,-397.5 576.8379,-396.2371 573.1366,-401.8541 581.6758,-394.9741 581.6758,-394.9741"/>
<text text-anchor="start" x="579.386" y="-407.5" font-family="Arial" font-size="10.00" fill="#000000">FOREIGN KEY (game_id) REFERENCES games (id)</text>
</g>
</g>
</svg>
