<?xml version="1.0" encoding="UTF-8" standalone="no"?>
<!DOCTYPE svg PUBLIC "-//W3C//DTD SVG 1.1//EN"
 "http://www.w3.org/Graphics/SVG/1.1/DTD/svg11.dtd">
<!-- Generated by graphviz version 2.40.1 (20161225.0304)
 -->
<!-- Title: games Pages: 1 -->
<svg width="4806pt" height="989pt"
 viewBox="0.00 0.00 4806.00 989.00" xmlns="http://www.w3.org/2000/svg" xmlns:xlink="http://www.w3.org/1999/xlink">
<g id="graph0" class="graph" transform="scale(1 1) rotate(0) translate(4 985)">
<title>games</title>
<polygon fill="#ffffff" stroke="transparent" points="-4,4 -4,-985 4802,-985 4802,4 -4,4"/>
<!-- games -->
<g id="node1" class="node">
<title>games</title>
<polygon fill="#efefef" stroke="transparent" points="2335.5,-472.5 2335.5,-507.5 2515.5,-507.5 2515.5,-472.5 2335.5,-472.5"/>
<polygon fill="none" stroke="#000000" points="2335.5,-472.5 2335.5,-507.5 2515.5,-507.5 2515.5,-472.5 2335.5,-472.5"/>
<text text-anchor="start" x="2349.8677" y="-485.3" font-family="Arial Bold" font-size="18.00" fill="#000000">games</text>
<text text-anchor="start" x="2403.8785" y="-485.3" font-family="Arial" font-size="14.00" fill="#000000"> </text>
<text text-anchor="start" x="2407.7691" y="-485.3" font-family="Arial" font-size="14.00" fill="#666666">[BASE TABLE]</text>
<polygon fill="none" stroke="#000000" points="2335.5,-442.5 2335.5,-472.5 2515.5,-472.5 2515.5,-442.5 2335.5,-442.5"/>
<text text-anchor="start" x="2342.5" y="-453.9" font-family="Arial" font-size="14.00" fill="#000000">id </text>
<text text-anchor="start" x="2357.2798" y="-453.9" font-family="Arial" font-size="14.00" fill="#666666">[varchar(36)]</text>
<polygon fill="none" stroke="#000000" points="2335.5,-412.5 2335.5,-442.5 2515.5,-442.5 2515.5,-412.5 2335.5,-412.5"/>
<text text-anchor="start" x="2342.5" y="-423.9" font-family="Arial" font-size="14.00" fill="#000000">name </text>
<text text-anchor="start" x="2381.399" y="-423.9" font-family="Arial" font-size="14.00" fill="#666666">[varchar(256)]</text>
<polygon fill="none" stroke="#000000" points="2335.5,-382.5 2335.5,-412.5 2515.5,-412.5 2515.5,-382.5 2335.5,-382.5"/>
<text text-anchor="start" x="2342.5" y="-393.9" font-family="Arial" font-size="14.00" fill="#000000">description </text>
<text text-anchor="start" x="2414.068" y="-393.9" font-family="Arial" font-size="14.00" fill="#666666">[text]</text>
<polygon fill="none" stroke="#000000" points="2335.5,-352.5 2335.5,-382.5 2515.5,-382.5 2515.5,-352.5 2335.5,-352.5"/>
<text text-anchor="start" x="2342.5" y="-363.9" font-family="Arial" font-size="14.00" fill="#000000">created_at </text>
<text text-anchor="start" x="2412.528" y="-363.9" font-family="Arial" font-size="14.00" fill="#666666">[datetime]</text>
<polygon fill="none" stroke="#000000" points="2335.5,-322.5 2335.5,-352.5 2515.5,-352.5 2515.5,-322.5 2335.5,-322.5"/>
<text text-anchor="start" x="2342.5" y="-333.9" font-family="Arial" font-size="14.00" fill="#000000">deleted_at </text>
<text text-anchor="start" x="2411.7566" y="-333.9" font-family="Arial" font-size="14.00" fill="#666666">[datetime]</text>
<polygon fill="none" stroke="#000000" points="2335.5,-292.5 2335.5,-322.5 2515.5,-322.5 2515.5,-292.5 2335.5,-292.5"/>
<text text-anchor="start" x="2342.2742" y="-303.9" font-family="Arial" font-size="14.00" fill="#000000">visibility_type_id </text>
<text text-anchor="start" x="2447.2812" y="-303.9" font-family="Arial" font-size="14.00" fill="#666666">[tinyint(4)]</text>
<polygon fill="none" stroke="#000000" stroke-width="3" points="2334,-291.5 2334,-509.5 2517,-509.5 2517,-291.5 2334,-291.5"/>
</g>
<!-- game_visibility_types -->
<g id="node15" class="node">
<title>game_visibility_types</title>
<polygon fill="#efefef" stroke="transparent" points="2284.5,-132.5 2284.5,-167.5 2565.5,-167.5 2565.5,-132.5 2284.5,-132.5"/>
<polygon fill="none" stroke="#000000" points="2284.5,-132.5 2284.5,-167.5 2565.5,-167.5 2565.5,-132.5 2284.5,-132.5"/>
<text text-anchor="start" x="2291.3645" y="-145.3" font-family="Arial Bold" font-size="18.00" fill="#000000">game_visibility_types</text>
<text text-anchor="start" x="2461.3817" y="-145.3" font-family="Arial" font-size="14.00" fill="#000000"> </text>
<text text-anchor="start" x="2465.2723" y="-145.3" font-family="Arial" font-size="14.00" fill="#666666">[BASE TABLE]</text>
<polygon fill="none" stroke="#000000" points="2284.5,-102.5 2284.5,-132.5 2565.5,-132.5 2565.5,-102.5 2284.5,-102.5"/>
<text text-anchor="start" x="2291.5" y="-113.9" font-family="Arial" font-size="14.00" fill="#000000">id </text>
<text text-anchor="start" x="2306.2798" y="-113.9" font-family="Arial" font-size="14.00" fill="#666666">[tinyint(4)]</text>
<polygon fill="none" stroke="#000000" points="2284.5,-72.5 2284.5,-102.5 2565.5,-102.5 2565.5,-72.5 2284.5,-72.5"/>
<text text-anchor="start" x="2291.5" y="-83.9" font-family="Arial" font-size="14.00" fill="#000000">name </text>
<text text-anchor="start" x="2330.399" y="-83.9" font-family="Arial" font-size="14.00" fill="#666666">[varchar(32)]</text>
<polygon fill="none" stroke="#000000" points="2284.5,-42.5 2284.5,-72.5 2565.5,-72.5 2565.5,-42.5 2284.5,-42.5"/>
<text text-anchor="start" x="2291.5" y="-53.9" font-family="Arial" font-size="14.00" fill="#000000">created_at </text>
<text text-anchor="start" x="2361.528" y="-53.9" font-family="Arial" font-size="14.00" fill="#666666">[datetime]</text>
</g>
<!-- games&#45;&gt;game_visibility_types -->
<g id="edge14" class="edge">
<title>games:visibility_type_id&#45;&gt;game_visibility_types:id</title>
<path fill="none" stroke="#000000" d="M2426.2829,-282.4665C2435.898,-225.5791 2531.4355,-270.2466 2565.5,-211 2586.2132,-174.9746 2607.0556,-117.5 2565.5,-117.5"/>
<polygon fill="#000000" stroke="#000000" points="2426.278,-282.5303 2421.0136,-292.1499 2425.889,-287.5152 2425.5,-292.5 2425.5,-292.5 2425.5,-292.5 2425.889,-287.5152 2429.9864,-292.8501 2426.278,-282.5303 2426.278,-282.5303"/>
<text text-anchor="start" x="2083.7205" y="-302.5" font-family="Arial" font-size="10.00" fill="#000000">FOREIGN KEY (visibility_type_id) REFERENCES game_visibility_types (id)</text>
</g>
<!-- game_creators -->
<g id="node2" class="node">
<title>game_creators</title>
<polygon fill="#efefef" stroke="transparent" points="43.5,-842.5 43.5,-877.5 274.5,-877.5 274.5,-842.5 43.5,-842.5"/>
<polygon fill="none" stroke="#000000" points="43.5,-842.5 43.5,-877.5 274.5,-877.5 274.5,-842.5 43.5,-842.5"/>
<text text-anchor="start" x="50.362" y="-855.3" font-family="Arial Bold" font-size="18.00" fill="#000000">game_creators</text>
<text text-anchor="start" x="170.3842" y="-855.3" font-family="Arial" font-size="14.00" fill="#000000"> </text>
<text text-anchor="start" x="174.2748" y="-855.3" font-family="Arial" font-size="14.00" fill="#666666">[BASE TABLE]</text>
<polygon fill="none" stroke="#000000" points="43.5,-812.5 43.5,-842.5 274.5,-842.5 274.5,-812.5 43.5,-812.5"/>
<text text-anchor="start" x="50.5" y="-823.9" font-family="Arial" font-size="14.00" fill="#000000">id </text>
<text text-anchor="start" x="65.2798" y="-823.9" font-family="Arial" font-size="14.00" fill="#666666">[varchar(36)]</text>
<polygon fill="none" stroke="#000000" points="43.5,-782.5 43.5,-812.5 274.5,-812.5 274.5,-782.5 43.5,-782.5"/>
<text text-anchor="start" x="50.5" y="-793.9" font-family="Arial" font-size="14.00" fill="#000000">game_id </text>
<text text-anchor="start" x="108.0708" y="-793.9" font-family="Arial" font-size="14.00" fill="#666666">[varchar(36)]</text>
<polygon fill="none" stroke="#000000" points="43.5,-752.5 43.5,-782.5 274.5,-782.5 274.5,-752.5 43.5,-752.5"/>
<text text-anchor="start" x="50.5" y="-763.9" font-family="Arial" font-size="14.00" fill="#000000">user_id </text>
<text text-anchor="start" x="100.2882" y="-763.9" font-family="Arial" font-size="14.00" fill="#666666">[varchar(36)]</text>
<polygon fill="none" stroke="#000000" points="43.5,-722.5 43.5,-752.5 274.5,-752.5 274.5,-722.5 43.5,-722.5"/>
<text text-anchor="start" x="50.5" y="-733.9" font-family="Arial" font-size="14.00" fill="#000000">user_name </text>
<text text-anchor="start" x="124.4074" y="-733.9" font-family="Arial" font-size="14.00" fill="#666666">[varchar(32)]</text>
<polygon fill="none" stroke="#000000" points="43.5,-692.5 43.5,-722.5 274.5,-722.5 274.5,-692.5 43.5,-692.5"/>
<text text-anchor="start" x="50.5" y="-703.9" font-family="Arial" font-size="14.00" fill="#000000">created_at </text>
<text text-anchor="start" x="120.528" y="-703.9" font-family="Arial" font-size="14.00" fill="#666666">[datetime]</text>
</g>
<!-- game_creators&#45;&gt;games -->
<g id="edge1" class="edge">
<title>game_creators:game_id&#45;&gt;games:id</title>
<path fill="none" stroke="#000000" d="M284.6838,-796.8433C360.6361,-786.1867 255.5739,-648.6364 325.5,-590 411.2506,-518.094 2223.591,-457.5 2335.5,-457.5"/>
<polygon fill="#000000" stroke="#000000" points="284.4793,-796.8564 274.2104,-793.0093 279.4896,-797.1782 274.5,-797.5 274.5,-797.5 274.5,-797.5 279.4896,-797.1782 274.7896,-801.9907 284.4793,-796.8564 284.4793,-796.8564"/>
<text text-anchor="start" x="156.386" y="-781.5" font-family="Arial" font-size="10.00" fill="#000000">FOREIGN KEY (game_id) REFERENCES games (id)</text>
</g>
<!-- game_creator_custom_jobs -->
<g id="node3" class="node">
<title>game_creator_custom_jobs</title>
<polygon fill="#efefef" stroke="transparent" points="378.5,-827.5 378.5,-862.5 711.5,-862.5 711.5,-827.5 378.5,-827.5"/>
<polygon fill="none" stroke="#000000" points="378.5,-827.5 378.5,-862.5 711.5,-862.5 711.5,-827.5 378.5,-827.5"/>
<text text-anchor="start" x="385.3491" y="-840.3" font-family="Arial Bold" font-size="18.00" fill="#000000">game_creator_custom_jobs</text>
<text text-anchor="start" x="607.3971" y="-840.3" font-family="Arial" font-size="14.00" fill="#000000"> </text>
<text text-anchor="start" x="611.2877" y="-840.3" font-family="Arial" font-size="14.00" fill="#666666">[BASE TABLE]</text>
<polygon fill="none" stroke="#000000" points="378.5,-797.5 378.5,-827.5 711.5,-827.5 711.5,-797.5 378.5,-797.5"/>
<text text-anchor="start" x="385.5" y="-808.9" font-family="Arial" font-size="14.00" fill="#000000">id </text>
<text text-anchor="start" x="400.2798" y="-808.9" font-family="Arial" font-size="14.00" fill="#666666">[varchar(36)]</text>
<polygon fill="none" stroke="#000000" points="378.5,-767.5 378.5,-797.5 711.5,-797.5 711.5,-767.5 378.5,-767.5"/>
<text text-anchor="start" x="385.5" y="-778.9" font-family="Arial" font-size="14.00" fill="#000000">game_id </text>
<text text-anchor="start" x="443.0708" y="-778.9" font-family="Arial" font-size="14.00" fill="#666666">[varchar(36)]</text>
<polygon fill="none" stroke="#000000" points="378.5,-737.5 378.5,-767.5 711.5,-767.5 711.5,-737.5 378.5,-737.5"/>
<text text-anchor="start" x="385.5" y="-748.9" font-family="Arial" font-size="14.00" fill="#000000">display_name </text>
<text text-anchor="start" x="475.7426" y="-748.9" font-family="Arial" font-size="14.00" fill="#666666">[varchar(64)]</text>
<polygon fill="none" stroke="#000000" points="378.5,-707.5 378.5,-737.5 711.5,-737.5 711.5,-707.5 378.5,-707.5"/>
<text text-anchor="start" x="385.5" y="-718.9" font-family="Arial" font-size="14.00" fill="#000000">created_at </text>
<text text-anchor="start" x="455.528" y="-718.9" font-family="Arial" font-size="14.00" fill="#666666">[datetime]</text>
</g>
<!-- game_creator_custom_jobs&#45;&gt;games -->
<g id="edge2" class="edge">
<title>game_creator_custom_jobs:game_id&#45;&gt;games:id</title>
<path fill="none" stroke="#000000" d="M721.8824,-781.7653C791.4468,-770.983 698.3868,-644.348 763.5,-590 898.07,-477.6786 2160.214,-457.5 2335.5,-457.5"/>
<polygon fill="#000000" stroke="#000000" points="721.4751,-781.7941 711.1823,-778.0112 716.4875,-782.147 711.5,-782.5 711.5,-782.5 711.5,-782.5 716.4875,-782.147 711.8177,-786.9888 721.4751,-781.7941 721.4751,-781.7941"/>
<text text-anchor="start" x="718.886" y="-792.5" font-family="Arial" font-size="10.00" fill="#000000">FOREIGN KEY (game_id) REFERENCES games (id)</text>
</g>
<!-- game_genre_relations -->
<g id="node4" class="node">
<title>game_genre_relations</title>
<polygon fill="#efefef" stroke="transparent" points="815.5,-797.5 815.5,-832.5 1105.5,-832.5 1105.5,-797.5 815.5,-797.5"/>
<polygon fill="none" stroke="#000000" points="815.5,-797.5 815.5,-832.5 1105.5,-832.5 1105.5,-797.5 815.5,-797.5"/>
<text text-anchor="start" x="822.3492" y="-810.3" font-family="Arial Bold" font-size="18.00" fill="#000000">game_genre_relations</text>
<text text-anchor="start" x="1001.397" y="-810.3" font-family="Arial" font-size="14.00" fill="#000000"> </text>
<text text-anchor="start" x="1005.2876" y="-810.3" font-family="Arial" font-size="14.00" fill="#666666">[BASE TABLE]</text>
<polygon fill="none" stroke="#000000" points="815.5,-767.5 815.5,-797.5 1105.5,-797.5 1105.5,-767.5 815.5,-767.5"/>
<text text-anchor="start" x="822.5" y="-778.9" font-family="Arial" font-size="14.00" fill="#000000">genre_id </text>
<text text-anchor="start" x="880.8534" y="-778.9" font-family="Arial" font-size="14.00" fill="#666666">[varchar(36)]</text>
<polygon fill="none" stroke="#000000" points="815.5,-737.5 815.5,-767.5 1105.5,-767.5 1105.5,-737.5 815.5,-737.5"/>
<text text-anchor="start" x="822.5" y="-748.9" font-family="Arial" font-size="14.00" fill="#000000">game_id </text>
<text text-anchor="start" x="880.0708" y="-748.9" font-family="Arial" font-size="14.00" fill="#666666">[varchar(36)]</text>
</g>
<!-- game_genre_relations&#45;&gt;games -->
<g id="edge3" class="edge">
<title>game_genre_relations:game_id&#45;&gt;games:id</title>
<path fill="none" stroke="#000000" d="M1115.5104,-751.7026C1173.6117,-741.4831 1101.7141,-635.7195 1157.5,-590 1259.3727,-506.5099 2203.7857,-457.5 2335.5,-457.5"/>
<polygon fill="#000000" stroke="#000000" points="1115.4684,-751.7058 1105.1426,-748.0142 1110.4842,-752.1029 1105.5,-752.5 1105.5,-752.5 1105.5,-752.5 1110.4842,-752.1029 1105.8574,-756.9858 1115.4684,-751.7058 1115.4684,-751.7058"/>
<text text-anchor="start" x="1112.886" y="-762.5" font-family="Arial" font-size="10.00" fill="#000000">FOREIGN KEY (game_id) REFERENCES games (id)</text>
</g>
<!-- game_images -->
<g id="node5" class="node">
<title>game_images</title>
<polygon fill="#efefef" stroke="transparent" points="1209.5,-827.5 1209.5,-862.5 1433.5,-862.5 1433.5,-827.5 1209.5,-827.5"/>
<polygon fill="none" stroke="#000000" points="1209.5,-827.5 1209.5,-862.5 1433.5,-862.5 1433.5,-827.5 1209.5,-827.5"/>
<text text-anchor="start" x="1216.3621" y="-840.3" font-family="Arial Bold" font-size="18.00" fill="#000000">game_images</text>
<text text-anchor="start" x="1329.3841" y="-840.3" font-family="Arial" font-size="14.00" fill="#000000"> </text>
<text text-anchor="start" x="1333.2747" y="-840.3" font-family="Arial" font-size="14.00" fill="#666666">[BASE TABLE]</text>
<polygon fill="none" stroke="#000000" points="1209.5,-797.5 1209.5,-827.5 1433.5,-827.5 1433.5,-797.5 1209.5,-797.5"/>
<text text-anchor="start" x="1216.5" y="-808.9" font-family="Arial" font-size="14.00" fill="#000000">id </text>
<text text-anchor="start" x="1231.2798" y="-808.9" font-family="Arial" font-size="14.00" fill="#666666">[varchar(36)]</text>
<polygon fill="none" stroke="#000000" points="1209.5,-767.5 1209.5,-797.5 1433.5,-797.5 1433.5,-767.5 1209.5,-767.5"/>
<text text-anchor="start" x="1216.5" y="-778.9" font-family="Arial" font-size="14.00" fill="#000000">game_id </text>
<text text-anchor="start" x="1274.0708" y="-778.9" font-family="Arial" font-size="14.00" fill="#666666">[varchar(36)]</text>
<polygon fill="none" stroke="#000000" points="1209.5,-737.5 1209.5,-767.5 1433.5,-767.5 1433.5,-737.5 1209.5,-737.5"/>
<text text-anchor="start" x="1216.5" y="-748.9" font-family="Arial" font-size="14.00" fill="#000000">image_type_id </text>
<text text-anchor="start" x="1311.4158" y="-748.9" font-family="Arial" font-size="14.00" fill="#666666">[tinyint(4)]</text>
<polygon fill="none" stroke="#000000" points="1209.5,-707.5 1209.5,-737.5 1433.5,-737.5 1433.5,-707.5 1209.5,-707.5"/>
<text text-anchor="start" x="1216.5" y="-718.9" font-family="Arial" font-size="14.00" fill="#000000">created_at </text>
<text text-anchor="start" x="1286.528" y="-718.9" font-family="Arial" font-size="14.00" fill="#666666">[datetime]</text>
</g>
<!-- game_images&#45;&gt;games -->
<g id="edge4" class="edge">
<title>game_images:game_id&#45;&gt;games:id</title>
<path fill="none" stroke="#000000" d="M1443.8932,-781.7779C1513.615,-771.1774 1422.344,-646.6105 1485.5,-590 1627.8529,-462.4005 2144.33,-457.5 2335.5,-457.5"/>
<polygon fill="#000000" stroke="#000000" points="1443.4759,-781.8068 1433.188,-778.0108 1438.488,-782.1534 1433.5,-782.5 1433.5,-782.5 1433.5,-782.5 1438.488,-782.1534 1433.812,-786.9892 1443.4759,-781.8068 1443.4759,-781.8068"/>
<text text-anchor="start" x="1189.886" y="-792.5" font-family="Arial" font-size="10.00" fill="#000000">FOREIGN KEY (game_id) REFERENCES games (id)</text>
</g>
<!-- game_management_roles -->
<g id="node6" class="node">
<title>game_management_roles</title>
<polygon fill="#efefef" stroke="transparent" points="1537.5,-812.5 1537.5,-847.5 1857.5,-847.5 1857.5,-812.5 1537.5,-812.5"/>
<polygon fill="none" stroke="#000000" points="1537.5,-812.5 1537.5,-847.5 1857.5,-847.5 1857.5,-812.5 1537.5,-812.5"/>
<text text-anchor="start" x="1544.3471" y="-825.3" font-family="Arial Bold" font-size="18.00" fill="#000000">game_management_roles</text>
<text text-anchor="start" x="1753.3991" y="-825.3" font-family="Arial" font-size="14.00" fill="#000000"> </text>
<text text-anchor="start" x="1757.2897" y="-825.3" font-family="Arial" font-size="14.00" fill="#666666">[BASE TABLE]</text>
<polygon fill="none" stroke="#000000" points="1537.5,-782.5 1537.5,-812.5 1857.5,-812.5 1857.5,-782.5 1537.5,-782.5"/>
<text text-anchor="start" x="1544.5" y="-793.9" font-family="Arial" font-size="14.00" fill="#000000">game_id </text>
<text text-anchor="start" x="1602.0708" y="-793.9" font-family="Arial" font-size="14.00" fill="#666666">[varchar(36)]</text>
<polygon fill="none" stroke="#000000" points="1537.5,-752.5 1537.5,-782.5 1857.5,-782.5 1857.5,-752.5 1537.5,-752.5"/>
<text text-anchor="start" x="1544.5" y="-763.9" font-family="Arial" font-size="14.00" fill="#000000">user_id </text>
<text text-anchor="start" x="1594.2882" y="-763.9" font-family="Arial" font-size="14.00" fill="#666666">[varchar(36)]</text>
<polygon fill="none" stroke="#000000" points="1537.5,-722.5 1537.5,-752.5 1857.5,-752.5 1857.5,-722.5 1537.5,-722.5"/>
<text text-anchor="start" x="1544.5" y="-733.9" font-family="Arial" font-size="14.00" fill="#000000">role_type_id </text>
<text text-anchor="start" x="1624.6332" y="-733.9" font-family="Arial" font-size="14.00" fill="#666666">[tinyint(4)]</text>
</g>
<!-- game_management_roles&#45;&gt;games -->
<g id="edge5" class="edge">
<title>game_management_roles:game_id&#45;&gt;games:id</title>
<path fill="none" stroke="#000000" d="M1867.7326,-796.8788C1944.3708,-786.792 1846.7326,-656.3847 1909.5,-590 1977.6124,-517.9622 2236.3599,-457.5 2335.5,-457.5"/>
<polygon fill="#000000" stroke="#000000" points="1867.4816,-796.8939 1857.2273,-793.0083 1862.4908,-797.197 1857.5,-797.5 1857.5,-797.5 1857.5,-797.5 1862.4908,-797.197 1857.7727,-801.9917 1867.4816,-796.8939 1867.4816,-796.8939"/>
<text text-anchor="start" x="1739.386" y="-781.5" font-family="Arial" font-size="10.00" fill="#000000">FOREIGN KEY (game_id) REFERENCES games (id)</text>
</g>
<!-- game_play_logs -->
<g id="node7" class="node">
<title>game_play_logs</title>
<polygon fill="#efefef" stroke="transparent" points="1961.5,-902.5 1961.5,-937.5 2203.5,-937.5 2203.5,-902.5 1961.5,-902.5"/>
<polygon fill="none" stroke="#000000" points="1961.5,-902.5 1961.5,-937.5 2203.5,-937.5 2203.5,-902.5 1961.5,-902.5"/>
<text text-anchor="start" x="1968.3549" y="-915.3" font-family="Arial Bold" font-size="18.00" fill="#000000">game_play_logs</text>
<text text-anchor="start" x="2099.3913" y="-915.3" font-family="Arial" font-size="14.00" fill="#000000"> </text>
<text text-anchor="start" x="2103.2819" y="-915.3" font-family="Arial" font-size="14.00" fill="#666666">[BASE TABLE]</text>
<polygon fill="none" stroke="#000000" points="1961.5,-872.5 1961.5,-902.5 2203.5,-902.5 2203.5,-872.5 1961.5,-872.5"/>
<text text-anchor="start" x="1968.5" y="-883.9" font-family="Arial" font-size="14.00" fill="#000000">id </text>
<text text-anchor="start" x="1983.2798" y="-883.9" font-family="Arial" font-size="14.00" fill="#666666">[varchar(36)]</text>
<polygon fill="none" stroke="#000000" points="1961.5,-842.5 1961.5,-872.5 2203.5,-872.5 2203.5,-842.5 1961.5,-842.5"/>
<text text-anchor="start" x="1968.5" y="-853.9" font-family="Arial" font-size="14.00" fill="#000000">edition_id </text>
<text text-anchor="start" x="2032.2966" y="-853.9" font-family="Arial" font-size="14.00" fill="#666666">[varchar(36)]</text>
<polygon fill="none" stroke="#000000" points="1961.5,-812.5 1961.5,-842.5 2203.5,-842.5 2203.5,-812.5 1961.5,-812.5"/>
<text text-anchor="start" x="1968.5" y="-823.9" font-family="Arial" font-size="14.00" fill="#000000">game_id </text>
<text text-anchor="start" x="2026.0708" y="-823.9" font-family="Arial" font-size="14.00" fill="#666666">[varchar(36)]</text>
<polygon fill="none" stroke="#000000" points="1961.5,-782.5 1961.5,-812.5 2203.5,-812.5 2203.5,-782.5 1961.5,-782.5"/>
<text text-anchor="start" x="1968.5" y="-793.9" font-family="Arial" font-size="14.00" fill="#000000">game_version_id </text>
<text text-anchor="start" x="2078.9684" y="-793.9" font-family="Arial" font-size="14.00" fill="#666666">[varchar(36)]</text>
<polygon fill="none" stroke="#000000" points="1961.5,-752.5 1961.5,-782.5 2203.5,-782.5 2203.5,-752.5 1961.5,-752.5"/>
<text text-anchor="start" x="1968.5" y="-763.9" font-family="Arial" font-size="14.00" fill="#000000">start_time </text>
<text text-anchor="start" x="2033.838" y="-763.9" font-family="Arial" font-size="14.00" fill="#666666">[datetime]</text>
<polygon fill="none" stroke="#000000" points="1961.5,-722.5 1961.5,-752.5 2203.5,-752.5 2203.5,-722.5 1961.5,-722.5"/>
<text text-anchor="start" x="1968.5" y="-733.9" font-family="Arial" font-size="14.00" fill="#000000">end_time </text>
<text text-anchor="start" x="2029.9614" y="-733.9" font-family="Arial" font-size="14.00" fill="#666666">[datetime]</text>
<polygon fill="none" stroke="#000000" points="1961.5,-692.5 1961.5,-722.5 2203.5,-722.5 2203.5,-692.5 1961.5,-692.5"/>
<text text-anchor="start" x="1968.5" y="-703.9" font-family="Arial" font-size="14.00" fill="#000000">created_at </text>
<text text-anchor="start" x="2038.528" y="-703.9" font-family="Arial" font-size="14.00" fill="#666666">[datetime]</text>
<polygon fill="none" stroke="#000000" points="1961.5,-662.5 1961.5,-692.5 2203.5,-692.5 2203.5,-662.5 1961.5,-662.5"/>
<text text-anchor="start" x="1968.5" y="-673.9" font-family="Arial" font-size="14.00" fill="#000000">updated_at </text>
<text text-anchor="start" x="2042.4326" y="-673.9" font-family="Arial" font-size="14.00" fill="#666666">[datetime]</text>
<polygon fill="none" stroke="#000000" points="1961.5,-632.5 1961.5,-662.5 2203.5,-662.5 2203.5,-632.5 1961.5,-632.5"/>
<text text-anchor="start" x="1968.5" y="-643.9" font-family="Arial" font-size="14.00" fill="#000000">deleted_at </text>
<text text-anchor="start" x="2037.7566" y="-643.9" font-family="Arial" font-size="14.00" fill="#666666">[datetime]</text>
</g>
<!-- game_play_logs&#45;&gt;games -->
<g id="edge6" class="edge">
<title>game_play_logs:game_id&#45;&gt;games:id</title>
<path fill="none" stroke="#000000" d="M2213.2917,-825.117C2254.7867,-803.2271 2236.8203,-636.8539 2255.5,-590 2280.9753,-526.1008 2266.7097,-457.5 2335.5,-457.5"/>
<polygon fill="#000000" stroke="#000000" points="2213.2164,-825.1352 2202.4358,-823.1276 2208.3582,-826.3176 2203.5,-827.5 2203.5,-827.5 2203.5,-827.5 2208.3582,-826.3176 2204.5642,-831.8724 2213.2164,-825.1352 2213.2164,-825.1352"/>
<text text-anchor="start" x="2210.886" y="-837.5" font-family="Arial" font-size="10.00" fill="#000000">FOREIGN KEY (game_id) REFERENCES games (id)</text>
</g>
<!-- game_versions -->
<g id="node8" class="node">
<title>game_versions</title>
<polygon fill="#efefef" stroke="transparent" points="2308.5,-842.5 2308.5,-877.5 2541.5,-877.5 2541.5,-842.5 2308.5,-842.5"/>
<polygon fill="none" stroke="#000000" points="2308.5,-842.5 2308.5,-877.5 2541.5,-877.5 2541.5,-842.5 2308.5,-842.5"/>
<text text-anchor="start" x="2315.3621" y="-855.3" font-family="Arial Bold" font-size="18.00" fill="#000000">game_versions</text>
<text text-anchor="start" x="2437.3841" y="-855.3" font-family="Arial" font-size="14.00" fill="#000000"> </text>
<text text-anchor="start" x="2441.2747" y="-855.3" font-family="Arial" font-size="14.00" fill="#666666">[BASE TABLE]</text>
<polygon fill="none" stroke="#000000" points="2308.5,-812.5 2308.5,-842.5 2541.5,-842.5 2541.5,-812.5 2308.5,-812.5"/>
<text text-anchor="start" x="2315.5" y="-823.9" font-family="Arial" font-size="14.00" fill="#000000">id </text>
<text text-anchor="start" x="2330.2798" y="-823.9" font-family="Arial" font-size="14.00" fill="#666666">[varchar(36)]</text>
<polygon fill="none" stroke="#000000" points="2308.5,-782.5 2308.5,-812.5 2541.5,-812.5 2541.5,-782.5 2308.5,-782.5"/>
<text text-anchor="start" x="2315.5" y="-793.9" font-family="Arial" font-size="14.00" fill="#000000">game_id </text>
<text text-anchor="start" x="2373.0708" y="-793.9" font-family="Arial" font-size="14.00" fill="#666666">[varchar(36)]</text>
<polygon fill="none" stroke="#000000" points="2308.5,-752.5 2308.5,-782.5 2541.5,-782.5 2541.5,-752.5 2308.5,-752.5"/>
<text text-anchor="start" x="2315.5" y="-763.9" font-family="Arial" font-size="14.00" fill="#000000">name </text>
<text text-anchor="start" x="2354.399" y="-763.9" font-family="Arial" font-size="14.00" fill="#666666">[varchar(32)]</text>
<polygon fill="none" stroke="#000000" points="2308.5,-722.5 2308.5,-752.5 2541.5,-752.5 2541.5,-722.5 2308.5,-722.5"/>
<text text-anchor="start" x="2315.5" y="-733.9" font-family="Arial" font-size="14.00" fill="#000000">description </text>
<text text-anchor="start" x="2387.068" y="-733.9" font-family="Arial" font-size="14.00" fill="#666666">[text]</text>
<polygon fill="none" stroke="#000000" points="2308.5,-692.5 2308.5,-722.5 2541.5,-722.5 2541.5,-692.5 2308.5,-692.5"/>
<text text-anchor="start" x="2315.5" y="-703.9" font-family="Arial" font-size="14.00" fill="#000000">created_at </text>
<text text-anchor="start" x="2385.528" y="-703.9" font-family="Arial" font-size="14.00" fill="#666666">[datetime]</text>
</g>
<!-- game_versions&#45;&gt;games -->
<g id="edge7" class="edge">
<title>game_versions:game_id&#45;&gt;games:id</title>
<path fill="none" stroke="#000000" d="M2551.733,-796.6359C2603.6045,-787.1722 2574.7341,-702.1535 2541.5,-650 2487.2177,-564.8161 2389.7823,-639.1839 2335.5,-554 2312.4515,-517.8306 2292.6111,-457.5 2335.5,-457.5"/>
<polygon fill="#000000" stroke="#000000" points="2551.4645,-796.6585 2541.1213,-793.016 2546.4823,-797.0793 2541.5,-797.5 2541.5,-797.5 2541.5,-797.5 2546.4823,-797.0793 2541.8787,-801.984 2551.4645,-796.6585 2551.4645,-796.6585"/>
<text text-anchor="start" x="2423.386" y="-781.5" font-family="Arial" font-size="10.00" fill="#000000">FOREIGN KEY (game_id) REFERENCES games (id)</text>
</g>
<!-- game_videos -->
<g id="node9" class="node">
<title>game_videos</title>
<polygon fill="#efefef" stroke="transparent" points="2645.5,-827.5 2645.5,-862.5 2863.5,-862.5 2863.5,-827.5 2645.5,-827.5"/>
<polygon fill="none" stroke="#000000" points="2645.5,-827.5 2645.5,-862.5 2863.5,-862.5 2863.5,-827.5 2645.5,-827.5"/>
<text text-anchor="start" x="2652.3582" y="-840.3" font-family="Arial Bold" font-size="18.00" fill="#000000">game_videos</text>
<text text-anchor="start" x="2759.388" y="-840.3" font-family="Arial" font-size="14.00" fill="#000000"> </text>
<text text-anchor="start" x="2763.2786" y="-840.3" font-family="Arial" font-size="14.00" fill="#666666">[BASE TABLE]</text>
<polygon fill="none" stroke="#000000" points="2645.5,-797.5 2645.5,-827.5 2863.5,-827.5 2863.5,-797.5 2645.5,-797.5"/>
<text text-anchor="start" x="2652.5" y="-808.9" font-family="Arial" font-size="14.00" fill="#000000">id </text>
<text text-anchor="start" x="2667.2798" y="-808.9" font-family="Arial" font-size="14.00" fill="#666666">[varchar(36)]</text>
<polygon fill="none" stroke="#000000" points="2645.5,-767.5 2645.5,-797.5 2863.5,-797.5 2863.5,-767.5 2645.5,-767.5"/>
<text text-anchor="start" x="2652.5" y="-778.9" font-family="Arial" font-size="14.00" fill="#000000">game_id </text>
<text text-anchor="start" x="2710.0708" y="-778.9" font-family="Arial" font-size="14.00" fill="#666666">[varchar(36)]</text>
<polygon fill="none" stroke="#000000" points="2645.5,-737.5 2645.5,-767.5 2863.5,-767.5 2863.5,-737.5 2645.5,-737.5"/>
<text text-anchor="start" x="2652.5" y="-748.9" font-family="Arial" font-size="14.00" fill="#000000">video_type_id </text>
<text text-anchor="start" x="2742.7552" y="-748.9" font-family="Arial" font-size="14.00" fill="#666666">[tinyint(4)]</text>
<polygon fill="none" stroke="#000000" points="2645.5,-707.5 2645.5,-737.5 2863.5,-737.5 2863.5,-707.5 2645.5,-707.5"/>
<text text-anchor="start" x="2652.5" y="-718.9" font-family="Arial" font-size="14.00" fill="#000000">created_at </text>
<text text-anchor="start" x="2722.528" y="-718.9" font-family="Arial" font-size="14.00" fill="#666666">[datetime]</text>
</g>
<!-- game_videos&#45;&gt;games -->
<g id="edge8" class="edge">
<title>game_videos:game_id&#45;&gt;games:id</title>
<path fill="none" stroke="#000000" d="M2635.3825,-781.9504C2562.5221,-773.4597 2626.4345,-668.3463 2593.5,-590 2567.0186,-527.0047 2583.835,-457.5 2515.5,-457.5"/>
<polygon fill="#000000" stroke="#000000" points="2635.5147,-781.9575 2645.2559,-786.9934 2640.5074,-782.2288 2645.5,-782.5 2645.5,-782.5 2645.5,-782.5 2640.5074,-782.2288 2645.7441,-778.0066 2635.5147,-781.9575 2635.5147,-781.9575"/>
<text text-anchor="start" x="2464.636" y="-766.5" font-family="Arial" font-size="10.00" fill="#000000">FOREIGN KEY (game_id) REFERENCES games (id)</text>
</g>
<!-- launcher_version_game_relations -->
<g id="node10" class="node">
<title>launcher_version_game_relations</title>
<polygon fill="#efefef" stroke="transparent" points="2968.5,-797.5 2968.5,-832.5 3349.5,-832.5 3349.5,-797.5 2968.5,-797.5"/>
<polygon fill="none" stroke="#000000" points="2968.5,-797.5 2968.5,-832.5 3349.5,-832.5 3349.5,-797.5 2968.5,-797.5"/>
<text text-anchor="start" x="2975.3434" y="-810.3" font-family="Arial Bold" font-size="18.00" fill="#000000">launcher_version_game_relations</text>
<text text-anchor="start" x="3245.4028" y="-810.3" font-family="Arial" font-size="14.00" fill="#000000"> </text>
<text text-anchor="start" x="3249.2934" y="-810.3" font-family="Arial" font-size="14.00" fill="#666666">[BASE TABLE]</text>
<polygon fill="none" stroke="#000000" points="2968.5,-767.5 2968.5,-797.5 3349.5,-797.5 3349.5,-767.5 2968.5,-767.5"/>
<text text-anchor="start" x="2975.5" y="-778.9" font-family="Arial" font-size="14.00" fill="#000000">launcher_version_table_id </text>
<text text-anchor="start" x="3142.7678" y="-778.9" font-family="Arial" font-size="14.00" fill="#666666">[varchar(36)]</text>
<polygon fill="none" stroke="#000000" points="2968.5,-737.5 2968.5,-767.5 3349.5,-767.5 3349.5,-737.5 2968.5,-737.5"/>
<text text-anchor="start" x="2975.5" y="-748.9" font-family="Arial" font-size="14.00" fill="#000000">game_table_id </text>
<text text-anchor="start" x="3071.1984" y="-748.9" font-family="Arial" font-size="14.00" fill="#666666">[varchar(36)]</text>
</g>
<!-- launcher_version_game_relations&#45;&gt;games -->
<g id="edge9" class="edge">
<title>launcher_version_game_relations:game_table_id&#45;&gt;games:id</title>
<path fill="none" stroke="#000000" d="M2958.4301,-751.7418C2899.6997,-742.0194 2966.4759,-641.2109 2915.5,-590 2849.4399,-523.6353 2609.1387,-457.5 2515.5,-457.5"/>
<polygon fill="#000000" stroke="#000000" points="2958.5282,-751.7491 2968.1621,-756.9873 2963.5141,-752.1246 2968.5,-752.5 2968.5,-752.5 2968.5,-752.5 2963.5141,-752.1246 2968.8379,-748.0127 2958.5282,-751.7491 2958.5282,-751.7491"/>
<text text-anchor="start" x="2766.769" y="-736.5" font-family="Arial" font-size="10.00" fill="#000000">FOREIGN KEY (game_table_id) REFERENCES games (id)</text>
</g>
<!-- v2_game_files -->
<g id="node11" class="node">
<title>v2_game_files</title>
<polygon fill="#efefef" stroke="transparent" points="3453.5,-857.5 3453.5,-892.5 3680.5,-892.5 3680.5,-857.5 3453.5,-857.5"/>
<polygon fill="none" stroke="#000000" points="3453.5,-857.5 3453.5,-892.5 3680.5,-892.5 3680.5,-857.5 3453.5,-857.5"/>
<text text-anchor="start" x="3460.36" y="-870.3" font-family="Arial Bold" font-size="18.00" fill="#000000">v2_game_files</text>
<text text-anchor="start" x="3576.3862" y="-870.3" font-family="Arial" font-size="14.00" fill="#000000"> </text>
<text text-anchor="start" x="3580.2768" y="-870.3" font-family="Arial" font-size="14.00" fill="#666666">[BASE TABLE]</text>
<polygon fill="none" stroke="#000000" points="3453.5,-827.5 3453.5,-857.5 3680.5,-857.5 3680.5,-827.5 3453.5,-827.5"/>
<text text-anchor="start" x="3460.5" y="-838.9" font-family="Arial" font-size="14.00" fill="#000000">id </text>
<text text-anchor="start" x="3475.2798" y="-838.9" font-family="Arial" font-size="14.00" fill="#666666">[varchar(36)]</text>
<polygon fill="none" stroke="#000000" points="3453.5,-797.5 3453.5,-827.5 3680.5,-827.5 3680.5,-797.5 3453.5,-797.5"/>
<text text-anchor="start" x="3460.5" y="-808.9" font-family="Arial" font-size="14.00" fill="#000000">game_id </text>
<text text-anchor="start" x="3518.0708" y="-808.9" font-family="Arial" font-size="14.00" fill="#666666">[varchar(36)]</text>
<polygon fill="none" stroke="#000000" points="3453.5,-767.5 3453.5,-797.5 3680.5,-797.5 3680.5,-767.5 3453.5,-767.5"/>
<text text-anchor="start" x="3460.5" y="-778.9" font-family="Arial" font-size="14.00" fill="#000000">file_type_id </text>
<text text-anchor="start" x="3535.1872" y="-778.9" font-family="Arial" font-size="14.00" fill="#666666">[tinyint(4)]</text>
<polygon fill="none" stroke="#000000" points="3453.5,-737.5 3453.5,-767.5 3680.5,-767.5 3680.5,-737.5 3453.5,-737.5"/>
<text text-anchor="start" x="3460.5" y="-748.9" font-family="Arial" font-size="14.00" fill="#000000">hash </text>
<text text-anchor="start" x="3494.7384" y="-748.9" font-family="Arial" font-size="14.00" fill="#666666">[char(32)]</text>
<polygon fill="none" stroke="#000000" points="3453.5,-707.5 3453.5,-737.5 3680.5,-737.5 3680.5,-707.5 3453.5,-707.5"/>
<text text-anchor="start" x="3460.5" y="-718.9" font-family="Arial" font-size="14.00" fill="#000000">entry_point </text>
<text text-anchor="start" x="3533.6346" y="-718.9" font-family="Arial" font-size="14.00" fill="#666666">[text]</text>
<polygon fill="none" stroke="#000000" points="3453.5,-677.5 3453.5,-707.5 3680.5,-707.5 3680.5,-677.5 3453.5,-677.5"/>
<text text-anchor="start" x="3460.5" y="-688.9" font-family="Arial" font-size="14.00" fill="#000000">created_at </text>
<text text-anchor="start" x="3530.528" y="-688.9" font-family="Arial" font-size="14.00" fill="#666666">[datetime]</text>
</g>
<!-- v2_game_files&#45;&gt;games -->
<g id="edge10" class="edge">
<title>v2_game_files:game_id&#45;&gt;games:id</title>
<path fill="none" stroke="#000000" d="M3443.356,-811.9094C3360.6633,-801.5062 3473.4648,-656.3504 3401.5,-590 3328.3184,-522.5278 2615.0392,-457.5 2515.5,-457.5"/>
<polygon fill="#000000" stroke="#000000" points="3443.5169,-811.9187 3453.2384,-816.9924 3448.5085,-812.2093 3453.5,-812.5 3453.5,-812.5 3453.5,-812.5 3448.5085,-812.2093 3453.7616,-808.0076 3443.5169,-811.9187 3443.5169,-811.9187"/>
<text text-anchor="start" x="3209.886" y="-822.5" font-family="Arial" font-size="10.00" fill="#000000">FOREIGN KEY (game_id) REFERENCES games (id)</text>
</g>
<!-- v2_game_images -->
<g id="node12" class="node">
<title>v2_game_images</title>
<polygon fill="#efefef" stroke="transparent" points="3784.5,-827.5 3784.5,-862.5 4037.5,-862.5 4037.5,-827.5 3784.5,-827.5"/>
<polygon fill="none" stroke="#000000" points="3784.5,-827.5 3784.5,-862.5 4037.5,-862.5 4037.5,-827.5 3784.5,-827.5"/>
<text text-anchor="start" x="3791.3559" y="-840.3" font-family="Arial Bold" font-size="18.00" fill="#000000">v2_game_images</text>
<text text-anchor="start" x="3933.3903" y="-840.3" font-family="Arial" font-size="14.00" fill="#000000"> </text>
<text text-anchor="start" x="3937.2809" y="-840.3" font-family="Arial" font-size="14.00" fill="#666666">[BASE TABLE]</text>
<polygon fill="none" stroke="#000000" points="3784.5,-797.5 3784.5,-827.5 4037.5,-827.5 4037.5,-797.5 3784.5,-797.5"/>
<text text-anchor="start" x="3791.5" y="-808.9" font-family="Arial" font-size="14.00" fill="#000000">id </text>
<text text-anchor="start" x="3806.2798" y="-808.9" font-family="Arial" font-size="14.00" fill="#666666">[varchar(36)]</text>
<polygon fill="none" stroke="#000000" points="3784.5,-767.5 3784.5,-797.5 4037.5,-797.5 4037.5,-767.5 3784.5,-767.5"/>
<text text-anchor="start" x="3791.5" y="-778.9" font-family="Arial" font-size="14.00" fill="#000000">game_id </text>
<text text-anchor="start" x="3849.0708" y="-778.9" font-family="Arial" font-size="14.00" fill="#666666">[varchar(36)]</text>
<polygon fill="none" stroke="#000000" points="3784.5,-737.5 3784.5,-767.5 4037.5,-767.5 4037.5,-737.5 3784.5,-737.5"/>
<text text-anchor="start" x="3791.5" y="-748.9" font-family="Arial" font-size="14.00" fill="#000000">image_type_id </text>
<text text-anchor="start" x="3886.4158" y="-748.9" font-family="Arial" font-size="14.00" fill="#666666">[tinyint(4)]</text>
<polygon fill="none" stroke="#000000" points="3784.5,-707.5 3784.5,-737.5 4037.5,-737.5 4037.5,-707.5 3784.5,-707.5"/>
<text text-anchor="start" x="3791.5" y="-718.9" font-family="Arial" font-size="14.00" fill="#000000">created_at </text>
<text text-anchor="start" x="3861.528" y="-718.9" font-family="Arial" font-size="14.00" fill="#666666">[datetime]</text>
</g>
<!-- v2_game_images&#45;&gt;games -->
<g id="edge11" class="edge">
<title>v2_game_images:game_id&#45;&gt;games:id</title>
<path fill="none" stroke="#000000" d="M3774.1139,-781.7697C3704.4959,-771.0508 3796.9465,-645.137 3732.5,-590 3629.1434,-501.5737 2651.5213,-457.5 2515.5,-457.5"/>
<polygon fill="#000000" stroke="#000000" points="3774.5246,-781.7985 3784.1843,-786.9889 3779.5123,-782.1492 3784.5,-782.5 3784.5,-782.5 3784.5,-782.5 3779.5123,-782.1492 3784.8157,-778.0111 3774.5246,-781.7985 3774.5246,-781.7985"/>
<text text-anchor="start" x="3791.886" y="-792.5" font-family="Arial" font-size="10.00" fill="#000000">FOREIGN KEY (game_id) REFERENCES games (id)</text>
</g>
<!-- v2_game_versions -->
<g id="node13" class="node">
<title>v2_game_versions</title>
<polygon fill="#efefef" stroke="transparent" points="4141.5,-887.5 4141.5,-922.5 4403.5,-922.5 4403.5,-887.5 4141.5,-887.5"/>
<polygon fill="none" stroke="#000000" points="4141.5,-887.5 4141.5,-922.5 4403.5,-922.5 4403.5,-887.5 4141.5,-887.5"/>
<text text-anchor="start" x="4148.3559" y="-900.3" font-family="Arial Bold" font-size="18.00" fill="#000000">v2_game_versions</text>
<text text-anchor="start" x="4299.3903" y="-900.3" font-family="Arial" font-size="14.00" fill="#000000"> </text>
<text text-anchor="start" x="4303.2809" y="-900.3" font-family="Arial" font-size="14.00" fill="#666666">[BASE TABLE]</text>
<polygon fill="none" stroke="#000000" points="4141.5,-857.5 4141.5,-887.5 4403.5,-887.5 4403.5,-857.5 4141.5,-857.5"/>
<text text-anchor="start" x="4148.5" y="-868.9" font-family="Arial" font-size="14.00" fill="#000000">id </text>
<text text-anchor="start" x="4163.2798" y="-868.9" font-family="Arial" font-size="14.00" fill="#666666">[varchar(36)]</text>
<polygon fill="none" stroke="#000000" points="4141.5,-827.5 4141.5,-857.5 4403.5,-857.5 4403.5,-827.5 4141.5,-827.5"/>
<text text-anchor="start" x="4148.5" y="-838.9" font-family="Arial" font-size="14.00" fill="#000000">game_id </text>
<text text-anchor="start" x="4206.0708" y="-838.9" font-family="Arial" font-size="14.00" fill="#666666">[varchar(36)]</text>
<polygon fill="none" stroke="#000000" points="4141.5,-797.5 4141.5,-827.5 4403.5,-827.5 4403.5,-797.5 4141.5,-797.5"/>
<text text-anchor="start" x="4148.5" y="-808.9" font-family="Arial" font-size="14.00" fill="#000000">game_image_id </text>
<text text-anchor="start" x="4251.9684" y="-808.9" font-family="Arial" font-size="14.00" fill="#666666">[varchar(36)]</text>
<polygon fill="none" stroke="#000000" points="4141.5,-767.5 4141.5,-797.5 4403.5,-797.5 4403.5,-767.5 4141.5,-767.5"/>
<text text-anchor="start" x="4148.5" y="-778.9" font-family="Arial" font-size="14.00" fill="#000000">game_video_id </text>
<text text-anchor="start" x="4247.3078" y="-778.9" font-family="Arial" font-size="14.00" fill="#666666">[varchar(36)]</text>
<polygon fill="none" stroke="#000000" points="4141.5,-737.5 4141.5,-767.5 4403.5,-767.5 4403.5,-737.5 4141.5,-737.5"/>
<text text-anchor="start" x="4148.5" y="-748.9" font-family="Arial" font-size="14.00" fill="#000000">name </text>
<text text-anchor="start" x="4187.399" y="-748.9" font-family="Arial" font-size="14.00" fill="#666666">[varchar(32)]</text>
<polygon fill="none" stroke="#000000" points="4141.5,-707.5 4141.5,-737.5 4403.5,-737.5 4403.5,-707.5 4141.5,-707.5"/>
<text text-anchor="start" x="4148.5" y="-718.9" font-family="Arial" font-size="14.00" fill="#000000">description </text>
<text text-anchor="start" x="4220.068" y="-718.9" font-family="Arial" font-size="14.00" fill="#666666">[text]</text>
<polygon fill="none" stroke="#000000" points="4141.5,-677.5 4141.5,-707.5 4403.5,-707.5 4403.5,-677.5 4141.5,-677.5"/>
<text text-anchor="start" x="4148.5" y="-688.9" font-family="Arial" font-size="14.00" fill="#000000">created_at </text>
<text text-anchor="start" x="4218.528" y="-688.9" font-family="Arial" font-size="14.00" fill="#666666">[datetime]</text>
<polygon fill="none" stroke="#000000" points="4141.5,-647.5 4141.5,-677.5 4403.5,-677.5 4403.5,-647.5 4141.5,-647.5"/>
<text text-anchor="start" x="4148.5" y="-658.9" font-family="Arial" font-size="14.00" fill="#000000">url </text>
<text text-anchor="start" x="4167.9404" y="-658.9" font-family="Arial" font-size="14.00" fill="#666666">[text]</text>
</g>
<!-- v2_game_versions&#45;&gt;games -->
<g id="edge12" class="edge">
<title>v2_game_versions:game_id&#45;&gt;games:id</title>
<path fill="none" stroke="#000000" d="M4131.225,-841.9595C4036.2365,-831.2317 4172.4355,-663.6013 4089.5,-590 3958.2304,-473.5046 2691.0075,-457.5 2515.5,-457.5"/>
<polygon fill="#000000" stroke="#000000" points="4131.5138,-841.9746 4141.2636,-846.9938 4136.5069,-842.2373 4141.5,-842.5 4141.5,-842.5 4141.5,-842.5 4136.5069,-842.2373 4141.7364,-838.0062 4131.5138,-841.9746 4131.5138,-841.9746"/>
<text text-anchor="start" x="4148.886" y="-852.5" font-family="Arial" font-size="10.00" fill="#000000">FOREIGN KEY (game_id) REFERENCES games (id)</text>
</g>
<!-- v2_game_videos -->
<g id="node14" class="node">
<title>v2_game_videos</title>
<polygon fill="#efefef" stroke="transparent" points="4508.5,-827.5 4508.5,-862.5 4755.5,-862.5 4755.5,-827.5 4508.5,-827.5"/>
<polygon fill="none" stroke="#000000" points="4508.5,-827.5 4508.5,-862.5 4755.5,-862.5 4755.5,-827.5 4508.5,-827.5"/>
<text text-anchor="start" x="4515.352" y="-840.3" font-family="Arial Bold" font-size="18.00" fill="#000000">v2_game_videos</text>
<text text-anchor="start" x="4651.3942" y="-840.3" font-family="Arial" font-size="14.00" fill="#000000"> </text>
<text text-anchor="start" x="4655.2848" y="-840.3" font-family="Arial" font-size="14.00" fill="#666666">[BASE TABLE]</text>
<polygon fill="none" stroke="#000000" points="4508.5,-797.5 4508.5,-827.5 4755.5,-827.5 4755.5,-797.5 4508.5,-797.5"/>
<text text-anchor="start" x="4515.5" y="-808.9" font-family="Arial" font-size="14.00" fill="#000000">id </text>
<text text-anchor="start" x="4530.2798" y="-808.9" font-family="Arial" font-size="14.00" fill="#666666">[varchar(36)]</text>
<polygon fill="none" stroke="#000000" points="4508.5,-767.5 4508.5,-797.5 4755.5,-797.5 4755.5,-767.5 4508.5,-767.5"/>
<text text-anchor="start" x="4515.5" y="-778.9" font-family="Arial" font-size="14.00" fill="#000000">game_id </text>
<text text-anchor="start" x="4573.0708" y="-778.9" font-family="Arial" font-size="14.00" fill="#666666">[varchar(36)]</text>
<polygon fill="none" stroke="#000000" points="4508.5,-737.5 4508.5,-767.5 4755.5,-767.5 4755.5,-737.5 4508.5,-737.5"/>
<text text-anchor="start" x="4515.5" y="-748.9" font-family="Arial" font-size="14.00" fill="#000000">video_type_id </text>
<text text-anchor="start" x="4605.7552" y="-748.9" font-family="Arial" font-size="14.00" fill="#666666">[tinyint(4)]</text>
<polygon fill="none" stroke="#000000" points="4508.5,-707.5 4508.5,-737.5 4755.5,-737.5 4755.5,-707.5 4508.5,-707.5"/>
<text text-anchor="start" x="4515.5" y="-718.9" font-family="Arial" font-size="14.00" fill="#000000">created_at </text>
<text text-anchor="start" x="4585.528" y="-718.9" font-family="Arial" font-size="14.00" fill="#666666">[datetime]</text>
</g>
<!-- v2_game_videos&#45;&gt;games -->
<g id="edge13" class="edge">
<title>v2_game_videos:game_id&#45;&gt;games:id</title>
<path fill="none" stroke="#000000" d="M4498.102,-781.762C4428.4175,-770.9308 4521.2597,-643.741 4455.5,-590 4371.8514,-521.6396 2623.5289,-457.5 2515.5,-457.5"/>
<polygon fill="#000000" stroke="#000000" points="4498.5251,-781.7919 4508.1814,-786.9887 4503.5125,-782.146 4508.5,-782.5 4508.5,-782.5 4508.5,-782.5 4503.5125,-782.146 4508.8186,-778.0113 4498.5251,-781.7919 4498.5251,-781.7919"/>
<text text-anchor="start" x="4264.886" y="-792.5" font-family="Arial" font-size="10.00" fill="#000000">FOREIGN KEY (game_id) REFERENCES games (id)</text>
</g>
</g>
</svg>
