<?xml version="1.0" encoding="UTF-8" standalone="no"?>
<!DOCTYPE svg PUBLIC "-//W3C//DTD SVG 1.1//EN"
 "http://www.w3.org/Graphics/SVG/1.1/DTD/svg11.dtd">
<!-- Generated by graphviz version 2.40.1 (20161225.0304)
 -->
<!-- Title: game_genre_relations Pages: 1 -->
<svg width="831pt" height="502pt"
 viewBox="0.00 0.00 831.00 502.00" xmlns="http://www.w3.org/2000/svg" xmlns:xlink="http://www.w3.org/1999/xlink">
<g id="graph0" class="graph" transform="scale(1 1) rotate(0) translate(4 498)">
<title>game_genre_relations</title>
<polygon fill="#ffffff" stroke="transparent" points="-4,4 -4,-498 827,-498 827,4 -4,4"/>
<!-- game_genre_relations -->
<g id="node1" class="node">
<title>game_genre_relations</title>
<polygon fill="#efefef" stroke="transparent" points="282,-412.5 282,-447.5 572,-447.5 572,-412.5 282,-412.5"/>
<polygon fill="none" stroke="#000000" points="282,-412.5 282,-447.5 572,-447.5 572,-412.5 282,-412.5"/>
<text text-anchor="start" x="288.8492" y="-425.3" font-family="Arial Bold" font-size="18.00" fill="#000000">game_genre_relations</text>
<text text-anchor="start" x="467.897" y="-425.3" font-family="Arial" font-size="14.00" fill="#000000"> </text>
<text text-anchor="start" x="471.7876" y="-425.3" font-family="Arial" font-size="14.00" fill="#666666">[BASE TABLE]</text>
<polygon fill="none" stroke="#000000" points="282,-382.5 282,-412.5 572,-412.5 572,-382.5 282,-382.5"/>
<text text-anchor="start" x="289" y="-393.9" font-family="Arial" font-size="14.00" fill="#000000">genre_id </text>
<text text-anchor="start" x="347.3534" y="-393.9" font-family="Arial" font-size="14.00" fill="#666666">[varchar(36)]</text>
<polygon fill="none" stroke="#000000" points="282,-352.5 282,-382.5 572,-382.5 572,-352.5 282,-352.5"/>
<text text-anchor="start" x="289" y="-363.9" font-family="Arial" font-size="14.00" fill="#000000">game_id </text>
<text text-anchor="start" x="346.5708" y="-363.9" font-family="Arial" font-size="14.00" fill="#666666">[varchar(36)]</text>
<polygon fill="none" stroke="#000000" stroke-width="3" points="280.5,-351.5 280.5,-449.5 573.5,-449.5 573.5,-351.5 280.5,-351.5"/>
</g>
<!-- game_genres -->
<g id="node2" class="node">
<title>game_genres</title>
<polygon fill="#efefef" stroke="transparent" points="168,-162.5 168,-197.5 389,-197.5 389,-162.5 168,-162.5"/>
<polygon fill="none" stroke="#000000" points="168,-162.5 168,-197.5 389,-197.5 389,-162.5 168,-162.5"/>
<text text-anchor="start" x="174.8561" y="-175.3" font-family="Arial Bold" font-size="18.00" fill="#000000">game_genres</text>
<text text-anchor="start" x="284.8901" y="-175.3" font-family="Arial" font-size="14.00" fill="#000000"> </text>
<text text-anchor="start" x="288.7807" y="-175.3" font-family="Arial" font-size="14.00" fill="#666666">[BASE TABLE]</text>
<polygon fill="none" stroke="#000000" points="168,-132.5 168,-162.5 389,-162.5 389,-132.5 168,-132.5"/>
<text text-anchor="start" x="175" y="-143.9" font-family="Arial" font-size="14.00" fill="#000000">id </text>
<text text-anchor="start" x="189.7798" y="-143.9" font-family="Arial" font-size="14.00" fill="#666666">[varchar(36)]</text>
<polygon fill="none" stroke="#000000" points="168,-102.5 168,-132.5 389,-132.5 389,-102.5 168,-102.5"/>
<text text-anchor="start" x="175" y="-113.9" font-family="Arial" font-size="14.00" fill="#000000">name </text>
<text text-anchor="start" x="213.899" y="-113.9" font-family="Arial" font-size="14.00" fill="#666666">[varchar(32)]</text>
<polygon fill="none" stroke="#000000" points="168,-72.5 168,-102.5 389,-102.5 389,-72.5 168,-72.5"/>
<text text-anchor="start" x="175" y="-83.9" font-family="Arial" font-size="14.00" fill="#000000">created_at </text>
<text text-anchor="start" x="245.028" y="-83.9" font-family="Arial" font-size="14.00" fill="#666666">[datetime]</text>
</g>
<!-- game_genre_relations&#45;&gt;game_genres -->
<g id="edge1" class="edge">
<title>game_genre_relations:genre_id&#45;&gt;game_genres:id</title>
<path fill="none" stroke="#000000" d="M271.8992,-395.9861C245.7954,-386.8772 264.3121,-338.6925 282,-307 309.2304,-258.2098 361.7696,-289.7902 389,-241 409.252,-204.7134 430.5556,-147.5 389,-147.5"/>
<polygon fill="#000000" stroke="#000000" points="272.1105,-396.0176 281.3329,-401.9503 277.0552,-396.7588 282,-397.5 282,-397.5 282,-397.5 277.0552,-396.7588 282.6671,-393.0497 272.1105,-396.0176 272.1105,-396.0176"/>
<text text-anchor="start" x="6.5445" y="-407.5" font-family="Arial" font-size="10.00" fill="#000000">FOREIGN KEY (genre_id) REFERENCES game_genres (id)</text>
</g>
<!-- games -->
<g id="node3" class="node">
<title>games</title>
<polygon fill="#efefef" stroke="transparent" points="493,-192.5 493,-227.5 658,-227.5 658,-192.5 493,-192.5"/>
<polygon fill="none" stroke="#000000" points="493,-192.5 493,-227.5 658,-227.5 658,-192.5 493,-192.5"/>
<text text-anchor="start" x="499.8677" y="-205.3" font-family="Arial Bold" font-size="18.00" fill="#000000">games</text>
<text text-anchor="start" x="553.8785" y="-205.3" font-family="Arial" font-size="14.00" fill="#000000"> </text>
<text text-anchor="start" x="557.7691" y="-205.3" font-family="Arial" font-size="14.00" fill="#666666">[BASE TABLE]</text>
<polygon fill="none" stroke="#000000" points="493,-162.5 493,-192.5 658,-192.5 658,-162.5 493,-162.5"/>
<text text-anchor="start" x="500" y="-173.9" font-family="Arial" font-size="14.00" fill="#000000">id </text>
<text text-anchor="start" x="514.7798" y="-173.9" font-family="Arial" font-size="14.00" fill="#666666">[varchar(36)]</text>
<polygon fill="none" stroke="#000000" points="493,-132.5 493,-162.5 658,-162.5 658,-132.5 493,-132.5"/>
<text text-anchor="start" x="500" y="-143.9" font-family="Arial" font-size="14.00" fill="#000000">name </text>
<text text-anchor="start" x="538.899" y="-143.9" font-family="Arial" font-size="14.00" fill="#666666">[varchar(256)]</text>
<polygon fill="none" stroke="#000000" points="493,-102.5 493,-132.5 658,-132.5 658,-102.5 493,-102.5"/>
<text text-anchor="start" x="500" y="-113.9" font-family="Arial" font-size="14.00" fill="#000000">description </text>
<text text-anchor="start" x="571.568" y="-113.9" font-family="Arial" font-size="14.00" fill="#666666">[text]</text>
<polygon fill="none" stroke="#000000" points="493,-72.5 493,-102.5 658,-102.5 658,-72.5 493,-72.5"/>
<text text-anchor="start" x="500" y="-83.9" font-family="Arial" font-size="14.00" fill="#000000">created_at </text>
<text text-anchor="start" x="570.028" y="-83.9" font-family="Arial" font-size="14.00" fill="#666666">[datetime]</text>
<polygon fill="none" stroke="#000000" points="493,-42.5 493,-72.5 658,-72.5 658,-42.5 493,-42.5"/>
<text text-anchor="start" x="500" y="-53.9" font-family="Arial" font-size="14.00" fill="#000000">deleted_at </text>
<text text-anchor="start" x="569.2566" y="-53.9" font-family="Arial" font-size="14.00" fill="#666666">[datetime]</text>
</g>
<!-- game_genre_relations&#45;&gt;games -->
<g id="edge2" class="edge">
<title>game_genre_relations:game_id&#45;&gt;games:id</title>
<path fill="none" stroke="#000000" d="M581.872,-364.928C594.9781,-356.0336 584.2736,-326.0809 572,-307 551.1262,-274.5489 513.8738,-303.4511 493,-271 470.5191,-236.0504 451.4444,-177.5 493,-177.5"/>
<polygon fill="#000000" stroke="#000000" points="581.677,-364.9787 570.8654,-363.1454 576.8385,-366.2394 572,-367.5 572,-367.5 572,-367.5 576.8385,-366.2394 573.1346,-371.8546 581.677,-364.9787 581.677,-364.9787"/>
<text text-anchor="start" x="579.386" y="-377.5" font-family="Arial" font-size="10.00" fill="#000000">FOREIGN KEY (game_id) REFERENCES games (id)</text>
</g>
</g>
</svg>
