<?xml version="1.0" encoding="UTF-8" standalone="no"?>
<!DOCTYPE svg PUBLIC "-//W3C//DTD SVG 1.1//EN"
 "http://www.w3.org/Graphics/SVG/1.1/DTD/svg11.dtd">
<!-- Generated by graphviz version 2.40.1 (20161225.0304)
 -->
<!-- Title: game_images Pages: 1 -->
<svg width="818pt" height="622pt"
 viewBox="0.00 0.00 818.00 622.00" xmlns="http://www.w3.org/2000/svg" xmlns:xlink="http://www.w3.org/1999/xlink">
<g id="graph0" class="graph" transform="scale(1 1) rotate(0) translate(4 618)">
<title>game_images</title>
<polygon fill="#ffffff" stroke="transparent" points="-4,4 -4,-618 814,-618 814,4 -4,4"/>
<!-- game_images -->
<g id="node1" class="node">
<title>game_images</title>
<polygon fill="#efefef" stroke="transparent" points="251,-532.5 251,-567.5 475,-567.5 475,-532.5 251,-532.5"/>
<polygon fill="none" stroke="#000000" points="251,-532.5 251,-567.5 475,-567.5 475,-532.5 251,-532.5"/>
<text text-anchor="start" x="257.8621" y="-545.3" font-family="Arial Bold" font-size="18.00" fill="#000000">game_images</text>
<text text-anchor="start" x="370.8841" y="-545.3" font-family="Arial" font-size="14.00" fill="#000000"> </text>
<text text-anchor="start" x="374.7747" y="-545.3" font-family="Arial" font-size="14.00" fill="#666666">[BASE TABLE]</text>
<polygon fill="none" stroke="#000000" points="251,-502.5 251,-532.5 475,-532.5 475,-502.5 251,-502.5"/>
<text text-anchor="start" x="258" y="-513.9" font-family="Arial" font-size="14.00" fill="#000000">id </text>
<text text-anchor="start" x="272.7798" y="-513.9" font-family="Arial" font-size="14.00" fill="#666666">[varchar(36)]</text>
<polygon fill="none" stroke="#000000" points="251,-472.5 251,-502.5 475,-502.5 475,-472.5 251,-472.5"/>
<text text-anchor="start" x="258" y="-483.9" font-family="Arial" font-size="14.00" fill="#000000">game_id </text>
<text text-anchor="start" x="315.5708" y="-483.9" font-family="Arial" font-size="14.00" fill="#666666">[varchar(36)]</text>
<polygon fill="none" stroke="#000000" points="251,-442.5 251,-472.5 475,-472.5 475,-442.5 251,-442.5"/>
<text text-anchor="start" x="258" y="-453.9" font-family="Arial" font-size="14.00" fill="#000000">image_type_id </text>
<text text-anchor="start" x="352.9158" y="-453.9" font-family="Arial" font-size="14.00" fill="#666666">[tinyint(4)]</text>
<polygon fill="none" stroke="#000000" points="251,-412.5 251,-442.5 475,-442.5 475,-412.5 251,-412.5"/>
<text text-anchor="start" x="258" y="-423.9" font-family="Arial" font-size="14.00" fill="#000000">created_at </text>
<text text-anchor="start" x="328.028" y="-423.9" font-family="Arial" font-size="14.00" fill="#666666">[datetime]</text>
<polygon fill="none" stroke="#000000" stroke-width="3" points="249.5,-411.5 249.5,-569.5 476.5,-569.5 476.5,-411.5 249.5,-411.5"/>
</g>
<!-- games -->
<g id="node2" class="node">
<title>games</title>
<polygon fill="#efefef" stroke="transparent" points="62,-252.5 62,-287.5 305,-287.5 305,-252.5 62,-252.5"/>
<polygon fill="none" stroke="#000000" points="62,-252.5 62,-287.5 305,-287.5 305,-252.5 62,-252.5"/>
<text text-anchor="start" x="107.8677" y="-265.3" font-family="Arial Bold" font-size="18.00" fill="#000000">games</text>
<text text-anchor="start" x="161.8785" y="-265.3" font-family="Arial" font-size="14.00" fill="#000000"> </text>
<text text-anchor="start" x="165.7691" y="-265.3" font-family="Arial" font-size="14.00" fill="#666666">[BASE TABLE]</text>
<polygon fill="none" stroke="#000000" points="62,-222.5 62,-252.5 305,-252.5 305,-222.5 62,-222.5"/>
<text text-anchor="start" x="69" y="-233.9" font-family="Arial" font-size="14.00" fill="#000000">id </text>
<text text-anchor="start" x="83.7798" y="-233.9" font-family="Arial" font-size="14.00" fill="#666666">[varchar(36)]</text>
<polygon fill="none" stroke="#000000" points="62,-192.5 62,-222.5 305,-222.5 305,-192.5 62,-192.5"/>
<text text-anchor="start" x="69" y="-203.9" font-family="Arial" font-size="14.00" fill="#000000">name </text>
<text text-anchor="start" x="107.899" y="-203.9" font-family="Arial" font-size="14.00" fill="#666666">[varchar(256)]</text>
<polygon fill="none" stroke="#000000" points="62,-162.5 62,-192.5 305,-192.5 305,-162.5 62,-162.5"/>
<text text-anchor="start" x="69" y="-173.9" font-family="Arial" font-size="14.00" fill="#000000">description </text>
<text text-anchor="start" x="140.568" y="-173.9" font-family="Arial" font-size="14.00" fill="#666666">[text]</text>
<polygon fill="none" stroke="#000000" points="62,-132.5 62,-162.5 305,-162.5 305,-132.5 62,-132.5"/>
<text text-anchor="start" x="69" y="-143.9" font-family="Arial" font-size="14.00" fill="#000000">created_at </text>
<text text-anchor="start" x="139.028" y="-143.9" font-family="Arial" font-size="14.00" fill="#666666">[datetime]</text>
<polygon fill="none" stroke="#000000" points="62,-102.5 62,-132.5 305,-132.5 305,-102.5 62,-102.5"/>
<text text-anchor="start" x="69" y="-113.9" font-family="Arial" font-size="14.00" fill="#000000">deleted_at </text>
<text text-anchor="start" x="138.2566" y="-113.9" font-family="Arial" font-size="14.00" fill="#666666">[datetime]</text>
<polygon fill="none" stroke="#000000" points="62,-72.5 62,-102.5 305,-102.5 305,-72.5 62,-72.5"/>
<text text-anchor="start" x="69" y="-83.9" font-family="Arial" font-size="14.00" fill="#000000">visibility_type_id </text>
<text text-anchor="start" x="174.007" y="-83.9" font-family="Arial" font-size="14.00" fill="#666666">[tinyint(4)]</text>
<polygon fill="none" stroke="#000000" points="62,-42.5 62,-72.5 305,-72.5 305,-42.5 62,-42.5"/>
<text text-anchor="start" x="68.7371" y="-53.9" font-family="Arial" font-size="14.00" fill="#000000">latest_version_updated_at </text>
<text text-anchor="start" x="236.8029" y="-53.9" font-family="Arial" font-size="14.00" fill="#666666">[datetime]</text>
</g>
<!-- game_images&#45;&gt;games -->
<g id="edge1" class="edge">
<title>game_images:game_id&#45;&gt;games:id</title>
<path fill="none" stroke="#000000" d="M240.8874,-486.4477C201.4071,-477.3237 227.5062,-410.8985 251,-367 264.6105,-341.5686 291.3895,-356.4314 305,-331 324.6083,-294.3615 346.5556,-237.5 305,-237.5"/>
<polygon fill="#000000" stroke="#000000" points="241.0537,-486.4649 250.5342,-491.9758 246.0269,-486.9824 251,-487.5 251,-487.5 251,-487.5 246.0269,-486.9824 251.4658,-483.0242 241.0537,-486.4649 241.0537,-486.4649"/>
<text text-anchor="start" x="7.386" y="-497.5" font-family="Arial" font-size="10.00" fill="#000000">FOREIGN KEY (game_id) REFERENCES games (id)</text>
</g>
<!-- game_image_types -->
<g id="node3" class="node">
<title>game_image_types</title>
<polygon fill="#efefef" stroke="transparent" points="409,-192.5 409,-227.5 677,-227.5 677,-192.5 409,-192.5"/>
<polygon fill="none" stroke="#000000" points="409,-192.5 409,-227.5 677,-227.5 677,-192.5 409,-192.5"/>
<text text-anchor="start" x="415.8517" y="-205.3" font-family="Arial Bold" font-size="18.00" fill="#000000">game_image_types</text>
<text text-anchor="start" x="572.8945" y="-205.3" font-family="Arial" font-size="14.00" fill="#000000"> </text>
<text text-anchor="start" x="576.7851" y="-205.3" font-family="Arial" font-size="14.00" fill="#666666">[BASE TABLE]</text>
<polygon fill="none" stroke="#000000" points="409,-162.5 409,-192.5 677,-192.5 677,-162.5 409,-162.5"/>
<text text-anchor="start" x="416" y="-173.9" font-family="Arial" font-size="14.00" fill="#000000">id </text>
<text text-anchor="start" x="430.7798" y="-173.9" font-family="Arial" font-size="14.00" fill="#666666">[tinyint(4)]</text>
<polygon fill="none" stroke="#000000" points="409,-132.5 409,-162.5 677,-162.5 677,-132.5 409,-132.5"/>
<text text-anchor="start" x="416" y="-143.9" font-family="Arial" font-size="14.00" fill="#000000">name </text>
<text text-anchor="start" x="454.899" y="-143.9" font-family="Arial" font-size="14.00" fill="#666666">[varchar(32)]</text>
<polygon fill="none" stroke="#000000" points="409,-102.5 409,-132.5 677,-132.5 677,-102.5 409,-102.5"/>
<text text-anchor="start" x="416" y="-113.9" font-family="Arial" font-size="14.00" fill="#000000">active </text>
<text text-anchor="start" x="456.453" y="-113.9" font-family="Arial" font-size="14.00" fill="#666666">[tinyint(1)]</text>
</g>
<!-- game_images&#45;&gt;game_image_types -->
<g id="edge2" class="edge">
<title>game_images:image_type_id&#45;&gt;game_image_types:id</title>
<path fill="none" stroke="#000000" d="M484.9027,-456.071C509.8525,-447.457 485.7653,-401.661 475,-367 459.6422,-317.5528 424.3578,-320.4472 409,-271 396.6741,-231.3145 367.4444,-177.5 409,-177.5"/>
<polygon fill="#000000" stroke="#000000" points="484.8975,-456.0717 474.3573,-453.0461 479.9487,-456.7858 475,-457.5 475,-457.5 475,-457.5 479.9487,-456.7858 475.6427,-461.9539 484.8975,-456.0717 484.8975,-456.0717"/>
<text text-anchor="start" x="482.4285" y="-467.5" font-family="Arial" font-size="10.00" fill="#000000">FOREIGN KEY (image_type_id) REFERENCES game_image_types (id)</text>
</g>
</g>
</svg>
