<?xml version="1.0" encoding="UTF-8" standalone="no"?>
<!DOCTYPE svg PUBLIC "-//W3C//DTD SVG 1.1//EN"
 "http://www.w3.org/Graphics/SVG/1.1/DTD/svg11.dtd">
<!-- Generated by graphviz version 2.40.1 (20161225.0304)
 -->
<!-- Title: games Pages: 1 -->
<svg width="4034pt" height="989pt"
 viewBox="0.00 0.00 4033.50 989.00" xmlns="http://www.w3.org/2000/svg" xmlns:xlink="http://www.w3.org/1999/xlink">
<g id="graph0" class="graph" transform="scale(1 1) rotate(0) translate(4 985)">
<title>games</title>
<polygon fill="#ffffff" stroke="transparent" points="-4,4 -4,-985 4029.5,-985 4029.5,4 -4,4"/>
<!-- games -->
<g id="node1" class="node">
<title>games</title>
<polygon fill="#efefef" stroke="transparent" points="1860,-502.5 1860,-537.5 2103,-537.5 2103,-502.5 1860,-502.5"/>
<polygon fill="none" stroke="#000000" points="1860,-502.5 1860,-537.5 2103,-537.5 2103,-502.5 1860,-502.5"/>
<text text-anchor="start" x="1905.8677" y="-515.3" font-family="Arial Bold" font-size="18.00" fill="#000000">games</text>
<text text-anchor="start" x="1959.8785" y="-515.3" font-family="Arial" font-size="14.00" fill="#000000"> </text>
<text text-anchor="start" x="1963.7691" y="-515.3" font-family="Arial" font-size="14.00" fill="#666666">[BASE TABLE]</text>
<polygon fill="none" stroke="#000000" points="1860,-472.5 1860,-502.5 2103,-502.5 2103,-472.5 1860,-472.5"/>
<text text-anchor="start" x="1867" y="-483.9" font-family="Arial" font-size="14.00" fill="#000000">id </text>
<text text-anchor="start" x="1881.7798" y="-483.9" font-family="Arial" font-size="14.00" fill="#666666">[varchar(36)]</text>
<polygon fill="none" stroke="#000000" points="1860,-442.5 1860,-472.5 2103,-472.5 2103,-442.5 1860,-442.5"/>
<text text-anchor="start" x="1867" y="-453.9" font-family="Arial" font-size="14.00" fill="#000000">name </text>
<text text-anchor="start" x="1905.899" y="-453.9" font-family="Arial" font-size="14.00" fill="#666666">[varchar(256)]</text>
<polygon fill="none" stroke="#000000" points="1860,-412.5 1860,-442.5 2103,-442.5 2103,-412.5 1860,-412.5"/>
<text text-anchor="start" x="1867" y="-423.9" font-family="Arial" font-size="14.00" fill="#000000">description </text>
<text text-anchor="start" x="1938.568" y="-423.9" font-family="Arial" font-size="14.00" fill="#666666">[text]</text>
<polygon fill="none" stroke="#000000" points="1860,-382.5 1860,-412.5 2103,-412.5 2103,-382.5 1860,-382.5"/>
<text text-anchor="start" x="1867" y="-393.9" font-family="Arial" font-size="14.00" fill="#000000">created_at </text>
<text text-anchor="start" x="1937.028" y="-393.9" font-family="Arial" font-size="14.00" fill="#666666">[datetime]</text>
<polygon fill="none" stroke="#000000" points="1860,-352.5 1860,-382.5 2103,-382.5 2103,-352.5 1860,-352.5"/>
<text text-anchor="start" x="1867" y="-363.9" font-family="Arial" font-size="14.00" fill="#000000">deleted_at </text>
<text text-anchor="start" x="1936.2566" y="-363.9" font-family="Arial" font-size="14.00" fill="#666666">[datetime]</text>
<polygon fill="none" stroke="#000000" points="1860,-322.5 1860,-352.5 2103,-352.5 2103,-322.5 1860,-322.5"/>
<text text-anchor="start" x="1867" y="-333.9" font-family="Arial" font-size="14.00" fill="#000000">visibility_type_id </text>
<text text-anchor="start" x="1972.007" y="-333.9" font-family="Arial" font-size="14.00" fill="#666666">[tinyint(4)]</text>
<polygon fill="none" stroke="#000000" points="1860,-292.5 1860,-322.5 2103,-322.5 2103,-292.5 1860,-292.5"/>
<text text-anchor="start" x="1866.7371" y="-303.9" font-family="Arial" font-size="14.00" fill="#000000">latest_version_updated_at </text>
<text text-anchor="start" x="2034.8029" y="-303.9" font-family="Arial" font-size="14.00" fill="#666666">[datetime]</text>
<polygon fill="none" stroke="#000000" stroke-width="3" points="1858,-291.5 1858,-539.5 2104,-539.5 2104,-291.5 1858,-291.5"/>
</g>
<!-- game_visibility_types -->
<g id="node13" class="node">
<title>game_visibility_types</title>
<polygon fill="#efefef" stroke="transparent" points="1841,-132.5 1841,-167.5 2122,-167.5 2122,-132.5 1841,-132.5"/>
<polygon fill="none" stroke="#000000" points="1841,-132.5 1841,-167.5 2122,-167.5 2122,-132.5 1841,-132.5"/>
<text text-anchor="start" x="1847.8645" y="-145.3" font-family="Arial Bold" font-size="18.00" fill="#000000">game_visibility_types</text>
<text text-anchor="start" x="2017.8817" y="-145.3" font-family="Arial" font-size="14.00" fill="#000000"> </text>
<text text-anchor="start" x="2021.7723" y="-145.3" font-family="Arial" font-size="14.00" fill="#666666">[BASE TABLE]</text>
<polygon fill="none" stroke="#000000" points="1841,-102.5 1841,-132.5 2122,-132.5 2122,-102.5 1841,-102.5"/>
<text text-anchor="start" x="1848" y="-113.9" font-family="Arial" font-size="14.00" fill="#000000">id </text>
<text text-anchor="start" x="1862.7798" y="-113.9" font-family="Arial" font-size="14.00" fill="#666666">[tinyint(4)]</text>
<polygon fill="none" stroke="#000000" points="1841,-72.5 1841,-102.5 2122,-102.5 2122,-72.5 1841,-72.5"/>
<text text-anchor="start" x="1848" y="-83.9" font-family="Arial" font-size="14.00" fill="#000000">name </text>
<text text-anchor="start" x="1886.899" y="-83.9" font-family="Arial" font-size="14.00" fill="#666666">[varchar(32)]</text>
<polygon fill="none" stroke="#000000" points="1841,-42.5 1841,-72.5 2122,-72.5 2122,-42.5 1841,-42.5"/>
<text text-anchor="start" x="1848" y="-53.9" font-family="Arial" font-size="14.00" fill="#000000">created_at </text>
<text text-anchor="start" x="1918.028" y="-53.9" font-family="Arial" font-size="14.00" fill="#666666">[datetime]</text>
</g>
<!-- games&#45;&gt;game_visibility_types -->
<g id="edge12" class="edge">
<title>games:visibility_type_id&#45;&gt;game_visibility_types:id</title>
<path fill="none" stroke="#000000" d="M1849.9442,-336.7034C1760.6671,-322.3032 1746.3085,-117.5 1841,-117.5"/>
<polygon fill="#000000" stroke="#000000" points="1850.0312,-336.7102 1859.6446,-341.9859 1855.0156,-337.1051 1860,-337.5 1860,-337.5 1860,-337.5 1855.0156,-337.1051 1860.3554,-333.0141 1850.0312,-336.7102 1850.0312,-336.7102"/>
<text text-anchor="start" x="1518.2205" y="-347.5" font-family="Arial" font-size="10.00" fill="#000000">FOREIGN KEY (visibility_type_id) REFERENCES game_visibility_types (id)</text>
</g>
<!-- game_genre_relations -->
<g id="node2" class="node">
<title>game_genre_relations</title>
<polygon fill="#efefef" stroke="transparent" points="43,-812.5 43,-847.5 333,-847.5 333,-812.5 43,-812.5"/>
<polygon fill="none" stroke="#000000" points="43,-812.5 43,-847.5 333,-847.5 333,-812.5 43,-812.5"/>
<text text-anchor="start" x="49.8492" y="-825.3" font-family="Arial Bold" font-size="18.00" fill="#000000">game_genre_relations</text>
<text text-anchor="start" x="228.897" y="-825.3" font-family="Arial" font-size="14.00" fill="#000000"> </text>
<text text-anchor="start" x="232.7876" y="-825.3" font-family="Arial" font-size="14.00" fill="#666666">[BASE TABLE]</text>
<polygon fill="none" stroke="#000000" points="43,-782.5 43,-812.5 333,-812.5 333,-782.5 43,-782.5"/>
<text text-anchor="start" x="50" y="-793.9" font-family="Arial" font-size="14.00" fill="#000000">genre_id </text>
<text text-anchor="start" x="108.3534" y="-793.9" font-family="Arial" font-size="14.00" fill="#666666">[varchar(36)]</text>
<polygon fill="none" stroke="#000000" points="43,-752.5 43,-782.5 333,-782.5 333,-752.5 43,-752.5"/>
<text text-anchor="start" x="50" y="-763.9" font-family="Arial" font-size="14.00" fill="#000000">game_id </text>
<text text-anchor="start" x="107.5708" y="-763.9" font-family="Arial" font-size="14.00" fill="#666666">[varchar(36)]</text>
</g>
<!-- game_genre_relations&#45;&gt;games -->
<g id="edge1" class="edge">
<title>game_genre_relations:game_id&#45;&gt;games:id</title>
<path fill="none" stroke="#000000" d="M343.1749,-766.5867C394.9729,-756.2188 333.1198,-660.3247 385,-620 514.9192,-519.0182 1695.4512,-487.5 1860,-487.5"/>
<polygon fill="#000000" stroke="#000000" points="342.96,-766.6059 332.5976,-763.018 337.98,-767.0529 333,-767.5 333,-767.5 333,-767.5 337.98,-767.0529 333.4024,-771.982 342.96,-766.6059 342.96,-766.6059"/>
<text text-anchor="start" x="340.386" y="-777.5" font-family="Arial" font-size="10.00" fill="#000000">FOREIGN KEY (game_id) REFERENCES games (id)</text>
</g>
<!-- game_images -->
<g id="node3" class="node">
<title>game_images</title>
<polygon fill="#efefef" stroke="transparent" points="437,-842.5 437,-877.5 661,-877.5 661,-842.5 437,-842.5"/>
<polygon fill="none" stroke="#000000" points="437,-842.5 437,-877.5 661,-877.5 661,-842.5 437,-842.5"/>
<text text-anchor="start" x="443.8621" y="-855.3" font-family="Arial Bold" font-size="18.00" fill="#000000">game_images</text>
<text text-anchor="start" x="556.8841" y="-855.3" font-family="Arial" font-size="14.00" fill="#000000"> </text>
<text text-anchor="start" x="560.7747" y="-855.3" font-family="Arial" font-size="14.00" fill="#666666">[BASE TABLE]</text>
<polygon fill="none" stroke="#000000" points="437,-812.5 437,-842.5 661,-842.5 661,-812.5 437,-812.5"/>
<text text-anchor="start" x="444" y="-823.9" font-family="Arial" font-size="14.00" fill="#000000">id </text>
<text text-anchor="start" x="458.7798" y="-823.9" font-family="Arial" font-size="14.00" fill="#666666">[varchar(36)]</text>
<polygon fill="none" stroke="#000000" points="437,-782.5 437,-812.5 661,-812.5 661,-782.5 437,-782.5"/>
<text text-anchor="start" x="444" y="-793.9" font-family="Arial" font-size="14.00" fill="#000000">game_id </text>
<text text-anchor="start" x="501.5708" y="-793.9" font-family="Arial" font-size="14.00" fill="#666666">[varchar(36)]</text>
<polygon fill="none" stroke="#000000" points="437,-752.5 437,-782.5 661,-782.5 661,-752.5 437,-752.5"/>
<text text-anchor="start" x="444" y="-763.9" font-family="Arial" font-size="14.00" fill="#000000">image_type_id </text>
<text text-anchor="start" x="538.9158" y="-763.9" font-family="Arial" font-size="14.00" fill="#666666">[tinyint(4)]</text>
<polygon fill="none" stroke="#000000" points="437,-722.5 437,-752.5 661,-752.5 661,-722.5 437,-722.5"/>
<text text-anchor="start" x="444" y="-733.9" font-family="Arial" font-size="14.00" fill="#000000">created_at </text>
<text text-anchor="start" x="514.028" y="-733.9" font-family="Arial" font-size="14.00" fill="#666666">[datetime]</text>
</g>
<!-- game_images&#45;&gt;games -->
<g id="edge2" class="edge">
<title>game_images:game_id&#45;&gt;games:id</title>
<path fill="none" stroke="#000000" d="M671.0473,-796.764C735.1586,-786.4573 652.9717,-670.6033 713,-620 811.0891,-537.3117 1731.708,-487.5 1860,-487.5"/>
<polygon fill="#000000" stroke="#000000" points="670.9733,-796.7693 660.6712,-793.012 665.9866,-797.1346 661,-797.5 661,-797.5 661,-797.5 665.9866,-797.1346 661.3288,-801.988 670.9733,-796.7693 670.9733,-796.7693"/>
<text text-anchor="start" x="668.386" y="-807.5" font-family="Arial" font-size="10.00" fill="#000000">FOREIGN KEY (game_id) REFERENCES games (id)</text>
</g>
<!-- game_management_roles -->
<g id="node4" class="node">
<title>game_management_roles</title>
<polygon fill="#efefef" stroke="transparent" points="765,-827.5 765,-862.5 1085,-862.5 1085,-827.5 765,-827.5"/>
<polygon fill="none" stroke="#000000" points="765,-827.5 765,-862.5 1085,-862.5 1085,-827.5 765,-827.5"/>
<text text-anchor="start" x="771.8471" y="-840.3" font-family="Arial Bold" font-size="18.00" fill="#000000">game_management_roles</text>
<text text-anchor="start" x="980.8991" y="-840.3" font-family="Arial" font-size="14.00" fill="#000000"> </text>
<text text-anchor="start" x="984.7897" y="-840.3" font-family="Arial" font-size="14.00" fill="#666666">[BASE TABLE]</text>
<polygon fill="none" stroke="#000000" points="765,-797.5 765,-827.5 1085,-827.5 1085,-797.5 765,-797.5"/>
<text text-anchor="start" x="772" y="-808.9" font-family="Arial" font-size="14.00" fill="#000000">game_id </text>
<text text-anchor="start" x="829.5708" y="-808.9" font-family="Arial" font-size="14.00" fill="#666666">[varchar(36)]</text>
<polygon fill="none" stroke="#000000" points="765,-767.5 765,-797.5 1085,-797.5 1085,-767.5 765,-767.5"/>
<text text-anchor="start" x="772" y="-778.9" font-family="Arial" font-size="14.00" fill="#000000">user_id </text>
<text text-anchor="start" x="821.7882" y="-778.9" font-family="Arial" font-size="14.00" fill="#666666">[varchar(36)]</text>
<polygon fill="none" stroke="#000000" points="765,-737.5 765,-767.5 1085,-767.5 1085,-737.5 765,-737.5"/>
<text text-anchor="start" x="772" y="-748.9" font-family="Arial" font-size="14.00" fill="#000000">role_type_id </text>
<text text-anchor="start" x="852.1332" y="-748.9" font-family="Arial" font-size="14.00" fill="#666666">[tinyint(4)]</text>
</g>
<!-- game_management_roles&#45;&gt;games -->
<g id="edge3" class="edge">
<title>game_management_roles:game_id&#45;&gt;games:id</title>
<path fill="none" stroke="#000000" d="M1095.3975,-811.7825C1165.1803,-801.2492 1074.6029,-677.446 1137,-620 1257.1698,-509.3656 1696.6576,-487.5 1860,-487.5"/>
<polygon fill="#000000" stroke="#000000" points="1094.9763,-811.8115 1084.6902,-808.0107 1089.9881,-812.1557 1085,-812.5 1085,-812.5 1085,-812.5 1089.9881,-812.1557 1085.3098,-816.9893 1094.9763,-811.8115 1094.9763,-811.8115"/>
<text text-anchor="start" x="966.886" y="-796.5" font-family="Arial" font-size="10.00" fill="#000000">FOREIGN KEY (game_id) REFERENCES games (id)</text>
</g>
<!-- game_play_logs -->
<g id="node5" class="node">
<title>game_play_logs</title>
<polygon fill="#efefef" stroke="transparent" points="1189,-902.5 1189,-937.5 1431,-937.5 1431,-902.5 1189,-902.5"/>
<polygon fill="none" stroke="#000000" points="1189,-902.5 1189,-937.5 1431,-937.5 1431,-902.5 1189,-902.5"/>
<text text-anchor="start" x="1195.8549" y="-915.3" font-family="Arial Bold" font-size="18.00" fill="#000000">game_play_logs</text>
<text text-anchor="start" x="1326.8913" y="-915.3" font-family="Arial" font-size="14.00" fill="#000000"> </text>
<text text-anchor="start" x="1330.7819" y="-915.3" font-family="Arial" font-size="14.00" fill="#666666">[BASE TABLE]</text>
<polygon fill="none" stroke="#000000" points="1189,-872.5 1189,-902.5 1431,-902.5 1431,-872.5 1189,-872.5"/>
<text text-anchor="start" x="1196" y="-883.9" font-family="Arial" font-size="14.00" fill="#000000">id </text>
<text text-anchor="start" x="1210.7798" y="-883.9" font-family="Arial" font-size="14.00" fill="#666666">[varchar(36)]</text>
<polygon fill="none" stroke="#000000" points="1189,-842.5 1189,-872.5 1431,-872.5 1431,-842.5 1189,-842.5"/>
<text text-anchor="start" x="1196" y="-853.9" font-family="Arial" font-size="14.00" fill="#000000">edition_id </text>
<text text-anchor="start" x="1259.7966" y="-853.9" font-family="Arial" font-size="14.00" fill="#666666">[varchar(36)]</text>
<polygon fill="none" stroke="#000000" points="1189,-812.5 1189,-842.5 1431,-842.5 1431,-812.5 1189,-812.5"/>
<text text-anchor="start" x="1196" y="-823.9" font-family="Arial" font-size="14.00" fill="#000000">game_id </text>
<text text-anchor="start" x="1253.5708" y="-823.9" font-family="Arial" font-size="14.00" fill="#666666">[varchar(36)]</text>
<polygon fill="none" stroke="#000000" points="1189,-782.5 1189,-812.5 1431,-812.5 1431,-782.5 1189,-782.5"/>
<text text-anchor="start" x="1196" y="-793.9" font-family="Arial" font-size="14.00" fill="#000000">game_version_id </text>
<text text-anchor="start" x="1306.4684" y="-793.9" font-family="Arial" font-size="14.00" fill="#666666">[varchar(36)]</text>
<polygon fill="none" stroke="#000000" points="1189,-752.5 1189,-782.5 1431,-782.5 1431,-752.5 1189,-752.5"/>
<text text-anchor="start" x="1196" y="-763.9" font-family="Arial" font-size="14.00" fill="#000000">start_time </text>
<text text-anchor="start" x="1261.338" y="-763.9" font-family="Arial" font-size="14.00" fill="#666666">[datetime]</text>
<polygon fill="none" stroke="#000000" points="1189,-722.5 1189,-752.5 1431,-752.5 1431,-722.5 1189,-722.5"/>
<text text-anchor="start" x="1196" y="-733.9" font-family="Arial" font-size="14.00" fill="#000000">end_time </text>
<text text-anchor="start" x="1257.4614" y="-733.9" font-family="Arial" font-size="14.00" fill="#666666">[datetime]</text>
<polygon fill="none" stroke="#000000" points="1189,-692.5 1189,-722.5 1431,-722.5 1431,-692.5 1189,-692.5"/>
<text text-anchor="start" x="1196" y="-703.9" font-family="Arial" font-size="14.00" fill="#000000">created_at </text>
<text text-anchor="start" x="1266.028" y="-703.9" font-family="Arial" font-size="14.00" fill="#666666">[datetime]</text>
<polygon fill="none" stroke="#000000" points="1189,-662.5 1189,-692.5 1431,-692.5 1431,-662.5 1189,-662.5"/>
<text text-anchor="start" x="1196" y="-673.9" font-family="Arial" font-size="14.00" fill="#000000">updated_at </text>
<text text-anchor="start" x="1269.9326" y="-673.9" font-family="Arial" font-size="14.00" fill="#666666">[datetime]</text>
</g>
<!-- game_play_logs&#45;&gt;games -->
<g id="edge4" class="edge">
<title>game_play_logs:game_id&#45;&gt;games:id</title>
<path fill="none" stroke="#000000" d="M1441.2381,-826.8839C1517.9661,-816.8804 1421.452,-687.5168 1483,-620 1602.6484,-488.7482 1682.3972,-487.5 1860,-487.5"/>
<polygon fill="#000000" stroke="#000000" points="1440.9819,-826.8993 1430.7297,-823.0081 1435.991,-827.1996 1431,-827.5 1431,-827.5 1431,-827.5 1435.991,-827.1996 1431.2703,-831.9919 1440.9819,-826.8993 1440.9819,-826.8993"/>
<text text-anchor="start" x="1438.386" y="-837.5" font-family="Arial" font-size="10.00" fill="#000000">FOREIGN KEY (game_id) REFERENCES games (id)</text>
</g>
<!-- game_versions -->
<g id="node6" class="node">
<title>game_versions</title>
<polygon fill="#efefef" stroke="transparent" points="1536,-857.5 1536,-892.5 1769,-892.5 1769,-857.5 1536,-857.5"/>
<polygon fill="none" stroke="#000000" points="1536,-857.5 1536,-892.5 1769,-892.5 1769,-857.5 1536,-857.5"/>
<text text-anchor="start" x="1542.8621" y="-870.3" font-family="Arial Bold" font-size="18.00" fill="#000000">game_versions</text>
<text text-anchor="start" x="1664.8841" y="-870.3" font-family="Arial" font-size="14.00" fill="#000000"> </text>
<text text-anchor="start" x="1668.7747" y="-870.3" font-family="Arial" font-size="14.00" fill="#666666">[BASE TABLE]</text>
<polygon fill="none" stroke="#000000" points="1536,-827.5 1536,-857.5 1769,-857.5 1769,-827.5 1536,-827.5"/>
<text text-anchor="start" x="1543" y="-838.9" font-family="Arial" font-size="14.00" fill="#000000">id </text>
<text text-anchor="start" x="1557.7798" y="-838.9" font-family="Arial" font-size="14.00" fill="#666666">[varchar(36)]</text>
<polygon fill="none" stroke="#000000" points="1536,-797.5 1536,-827.5 1769,-827.5 1769,-797.5 1536,-797.5"/>
<text text-anchor="start" x="1543" y="-808.9" font-family="Arial" font-size="14.00" fill="#000000">game_id </text>
<text text-anchor="start" x="1600.5708" y="-808.9" font-family="Arial" font-size="14.00" fill="#666666">[varchar(36)]</text>
<polygon fill="none" stroke="#000000" points="1536,-767.5 1536,-797.5 1769,-797.5 1769,-767.5 1536,-767.5"/>
<text text-anchor="start" x="1543" y="-778.9" font-family="Arial" font-size="14.00" fill="#000000">name </text>
<text text-anchor="start" x="1581.899" y="-778.9" font-family="Arial" font-size="14.00" fill="#666666">[varchar(32)]</text>
<polygon fill="none" stroke="#000000" points="1536,-737.5 1536,-767.5 1769,-767.5 1769,-737.5 1536,-737.5"/>
<text text-anchor="start" x="1543" y="-748.9" font-family="Arial" font-size="14.00" fill="#000000">description </text>
<text text-anchor="start" x="1614.568" y="-748.9" font-family="Arial" font-size="14.00" fill="#666666">[text]</text>
<polygon fill="none" stroke="#000000" points="1536,-707.5 1536,-737.5 1769,-737.5 1769,-707.5 1536,-707.5"/>
<text text-anchor="start" x="1543" y="-718.9" font-family="Arial" font-size="14.00" fill="#000000">created_at </text>
<text text-anchor="start" x="1613.028" y="-718.9" font-family="Arial" font-size="14.00" fill="#666666">[datetime]</text>
</g>
<!-- game_versions&#45;&gt;games -->
<g id="edge5" class="edge">
<title>game_versions:game_id&#45;&gt;games:id</title>
<path fill="none" stroke="#000000" d="M1779.0591,-810.2511C1838.5577,-781.5366 1788.6622,-487.5 1860,-487.5"/>
<polygon fill="#000000" stroke="#000000" points="1778.7591,-810.3181 1768.0181,-808.1084 1773.8795,-811.409 1769,-812.5 1769,-812.5 1769,-812.5 1773.8795,-811.409 1769.9819,-816.8916 1778.7591,-810.3181 1778.7591,-810.3181"/>
<text text-anchor="start" x="1776.386" y="-822.5" font-family="Arial" font-size="10.00" fill="#000000">FOREIGN KEY (game_id) REFERENCES games (id)</text>
</g>
<!-- game_videos -->
<g id="node7" class="node">
<title>game_videos</title>
<polygon fill="#efefef" stroke="transparent" points="1873,-842.5 1873,-877.5 2091,-877.5 2091,-842.5 1873,-842.5"/>
<polygon fill="none" stroke="#000000" points="1873,-842.5 1873,-877.5 2091,-877.5 2091,-842.5 1873,-842.5"/>
<text text-anchor="start" x="1879.8582" y="-855.3" font-family="Arial Bold" font-size="18.00" fill="#000000">game_videos</text>
<text text-anchor="start" x="1986.888" y="-855.3" font-family="Arial" font-size="14.00" fill="#000000"> </text>
<text text-anchor="start" x="1990.7786" y="-855.3" font-family="Arial" font-size="14.00" fill="#666666">[BASE TABLE]</text>
<polygon fill="none" stroke="#000000" points="1873,-812.5 1873,-842.5 2091,-842.5 2091,-812.5 1873,-812.5"/>
<text text-anchor="start" x="1880" y="-823.9" font-family="Arial" font-size="14.00" fill="#000000">id </text>
<text text-anchor="start" x="1894.7798" y="-823.9" font-family="Arial" font-size="14.00" fill="#666666">[varchar(36)]</text>
<polygon fill="none" stroke="#000000" points="1873,-782.5 1873,-812.5 2091,-812.5 2091,-782.5 1873,-782.5"/>
<text text-anchor="start" x="1880" y="-793.9" font-family="Arial" font-size="14.00" fill="#000000">game_id </text>
<text text-anchor="start" x="1937.5708" y="-793.9" font-family="Arial" font-size="14.00" fill="#666666">[varchar(36)]</text>
<polygon fill="none" stroke="#000000" points="1873,-752.5 1873,-782.5 2091,-782.5 2091,-752.5 1873,-752.5"/>
<text text-anchor="start" x="1880" y="-763.9" font-family="Arial" font-size="14.00" fill="#000000">video_type_id </text>
<text text-anchor="start" x="1970.2552" y="-763.9" font-family="Arial" font-size="14.00" fill="#666666">[tinyint(4)]</text>
<polygon fill="none" stroke="#000000" points="1873,-722.5 1873,-752.5 2091,-752.5 2091,-722.5 1873,-722.5"/>
<text text-anchor="start" x="1880" y="-733.9" font-family="Arial" font-size="14.00" fill="#000000">created_at </text>
<text text-anchor="start" x="1950.028" y="-733.9" font-family="Arial" font-size="14.00" fill="#666666">[datetime]</text>
</g>
<!-- game_videos&#45;&gt;games -->
<g id="edge6" class="edge">
<title>game_videos:game_id&#45;&gt;games:id</title>
<path fill="none" stroke="#000000" d="M1862.5914,-796.3192C1824.2629,-786.6782 1846.1947,-720.2349 1873,-680 1934.4153,-587.8155 2041.5847,-676.1845 2103,-584 2126.7795,-548.3069 2145.8889,-487.5 2103,-487.5"/>
<polygon fill="#000000" stroke="#000000" points="1863.0637,-796.3727 1872.4927,-801.9713 1868.0319,-796.9364 1873,-797.5 1873,-797.5 1873,-797.5 1868.0319,-796.9364 1873.5073,-793.0287 1863.0637,-796.3727 1863.0637,-796.3727"/>
<text text-anchor="start" x="1880.386" y="-781.5" font-family="Arial" font-size="10.00" fill="#000000">FOREIGN KEY (game_id) REFERENCES games (id)</text>
</g>
<!-- launcher_version_game_relations -->
<g id="node8" class="node">
<title>launcher_version_game_relations</title>
<polygon fill="#efefef" stroke="transparent" points="2196,-812.5 2196,-847.5 2577,-847.5 2577,-812.5 2196,-812.5"/>
<polygon fill="none" stroke="#000000" points="2196,-812.5 2196,-847.5 2577,-847.5 2577,-812.5 2196,-812.5"/>
<text text-anchor="start" x="2202.8434" y="-825.3" font-family="Arial Bold" font-size="18.00" fill="#000000">launcher_version_game_relations</text>
<text text-anchor="start" x="2472.9028" y="-825.3" font-family="Arial" font-size="14.00" fill="#000000"> </text>
<text text-anchor="start" x="2476.7934" y="-825.3" font-family="Arial" font-size="14.00" fill="#666666">[BASE TABLE]</text>
<polygon fill="none" stroke="#000000" points="2196,-782.5 2196,-812.5 2577,-812.5 2577,-782.5 2196,-782.5"/>
<text text-anchor="start" x="2203" y="-793.9" font-family="Arial" font-size="14.00" fill="#000000">launcher_version_table_id </text>
<text text-anchor="start" x="2370.2678" y="-793.9" font-family="Arial" font-size="14.00" fill="#666666">[varchar(36)]</text>
<polygon fill="none" stroke="#000000" points="2196,-752.5 2196,-782.5 2577,-782.5 2577,-752.5 2196,-752.5"/>
<text text-anchor="start" x="2203" y="-763.9" font-family="Arial" font-size="14.00" fill="#000000">game_table_id </text>
<text text-anchor="start" x="2298.6984" y="-763.9" font-family="Arial" font-size="14.00" fill="#666666">[varchar(36)]</text>
</g>
<!-- launcher_version_game_relations&#45;&gt;games -->
<g id="edge7" class="edge">
<title>launcher_version_game_relations:game_table_id&#45;&gt;games:id</title>
<path fill="none" stroke="#000000" d="M2186.1397,-765.0794C2134.2957,-737.7124 2164.979,-487.5 2103,-487.5"/>
<polygon fill="#000000" stroke="#000000" points="2186.2884,-765.1158 2194.9271,-771.8702 2191.1442,-766.3079 2196,-767.5 2196,-767.5 2196,-767.5 2191.1442,-766.3079 2197.0729,-763.1298 2186.2884,-765.1158 2186.2884,-765.1158"/>
<text text-anchor="start" x="2202.769" y="-777.5" font-family="Arial" font-size="10.00" fill="#000000">FOREIGN KEY (game_table_id) REFERENCES games (id)</text>
</g>
<!-- v2_game_files -->
<g id="node9" class="node">
<title>v2_game_files</title>
<polygon fill="#efefef" stroke="transparent" points="2681,-872.5 2681,-907.5 2908,-907.5 2908,-872.5 2681,-872.5"/>
<polygon fill="none" stroke="#000000" points="2681,-872.5 2681,-907.5 2908,-907.5 2908,-872.5 2681,-872.5"/>
<text text-anchor="start" x="2687.86" y="-885.3" font-family="Arial Bold" font-size="18.00" fill="#000000">v2_game_files</text>
<text text-anchor="start" x="2803.8862" y="-885.3" font-family="Arial" font-size="14.00" fill="#000000"> </text>
<text text-anchor="start" x="2807.7768" y="-885.3" font-family="Arial" font-size="14.00" fill="#666666">[BASE TABLE]</text>
<polygon fill="none" stroke="#000000" points="2681,-842.5 2681,-872.5 2908,-872.5 2908,-842.5 2681,-842.5"/>
<text text-anchor="start" x="2688" y="-853.9" font-family="Arial" font-size="14.00" fill="#000000">id </text>
<text text-anchor="start" x="2702.7798" y="-853.9" font-family="Arial" font-size="14.00" fill="#666666">[varchar(36)]</text>
<polygon fill="none" stroke="#000000" points="2681,-812.5 2681,-842.5 2908,-842.5 2908,-812.5 2681,-812.5"/>
<text text-anchor="start" x="2688" y="-823.9" font-family="Arial" font-size="14.00" fill="#000000">game_id </text>
<text text-anchor="start" x="2745.5708" y="-823.9" font-family="Arial" font-size="14.00" fill="#666666">[varchar(36)]</text>
<polygon fill="none" stroke="#000000" points="2681,-782.5 2681,-812.5 2908,-812.5 2908,-782.5 2681,-782.5"/>
<text text-anchor="start" x="2688" y="-793.9" font-family="Arial" font-size="14.00" fill="#000000">file_type_id </text>
<text text-anchor="start" x="2762.6872" y="-793.9" font-family="Arial" font-size="14.00" fill="#666666">[tinyint(4)]</text>
<polygon fill="none" stroke="#000000" points="2681,-752.5 2681,-782.5 2908,-782.5 2908,-752.5 2681,-752.5"/>
<text text-anchor="start" x="2688" y="-763.9" font-family="Arial" font-size="14.00" fill="#000000">hash </text>
<text text-anchor="start" x="2722.2384" y="-763.9" font-family="Arial" font-size="14.00" fill="#666666">[char(32)]</text>
<polygon fill="none" stroke="#000000" points="2681,-722.5 2681,-752.5 2908,-752.5 2908,-722.5 2681,-722.5"/>
<text text-anchor="start" x="2688" y="-733.9" font-family="Arial" font-size="14.00" fill="#000000">entry_point </text>
<text text-anchor="start" x="2761.1346" y="-733.9" font-family="Arial" font-size="14.00" fill="#666666">[text]</text>
<polygon fill="none" stroke="#000000" points="2681,-692.5 2681,-722.5 2908,-722.5 2908,-692.5 2681,-692.5"/>
<text text-anchor="start" x="2688" y="-703.9" font-family="Arial" font-size="14.00" fill="#000000">created_at </text>
<text text-anchor="start" x="2758.028" y="-703.9" font-family="Arial" font-size="14.00" fill="#666666">[datetime]</text>
</g>
<!-- v2_game_files&#45;&gt;games -->
<g id="edge8" class="edge">
<title>v2_game_files:game_id&#45;&gt;games:id</title>
<path fill="none" stroke="#000000" d="M2670.7756,-826.8708C2594.2693,-816.6557 2693.5619,-684.6408 2629,-620 2543.8171,-534.713 2223.5404,-487.5 2103,-487.5"/>
<polygon fill="#000000" stroke="#000000" points="2671.0189,-826.8857 2680.7235,-831.9915 2676.0094,-827.1928 2681,-827.5 2681,-827.5 2681,-827.5 2676.0094,-827.1928 2681.2765,-823.0085 2671.0189,-826.8857 2671.0189,-826.8857"/>
<text text-anchor="start" x="2688.386" y="-837.5" font-family="Arial" font-size="10.00" fill="#000000">FOREIGN KEY (game_id) REFERENCES games (id)</text>
</g>
<!-- v2_game_images -->
<g id="node10" class="node">
<title>v2_game_images</title>
<polygon fill="#efefef" stroke="transparent" points="3012,-842.5 3012,-877.5 3265,-877.5 3265,-842.5 3012,-842.5"/>
<polygon fill="none" stroke="#000000" points="3012,-842.5 3012,-877.5 3265,-877.5 3265,-842.5 3012,-842.5"/>
<text text-anchor="start" x="3018.8559" y="-855.3" font-family="Arial Bold" font-size="18.00" fill="#000000">v2_game_images</text>
<text text-anchor="start" x="3160.8903" y="-855.3" font-family="Arial" font-size="14.00" fill="#000000"> </text>
<text text-anchor="start" x="3164.7809" y="-855.3" font-family="Arial" font-size="14.00" fill="#666666">[BASE TABLE]</text>
<polygon fill="none" stroke="#000000" points="3012,-812.5 3012,-842.5 3265,-842.5 3265,-812.5 3012,-812.5"/>
<text text-anchor="start" x="3019" y="-823.9" font-family="Arial" font-size="14.00" fill="#000000">id </text>
<text text-anchor="start" x="3033.7798" y="-823.9" font-family="Arial" font-size="14.00" fill="#666666">[varchar(36)]</text>
<polygon fill="none" stroke="#000000" points="3012,-782.5 3012,-812.5 3265,-812.5 3265,-782.5 3012,-782.5"/>
<text text-anchor="start" x="3019" y="-793.9" font-family="Arial" font-size="14.00" fill="#000000">game_id </text>
<text text-anchor="start" x="3076.5708" y="-793.9" font-family="Arial" font-size="14.00" fill="#666666">[varchar(36)]</text>
<polygon fill="none" stroke="#000000" points="3012,-752.5 3012,-782.5 3265,-782.5 3265,-752.5 3012,-752.5"/>
<text text-anchor="start" x="3019" y="-763.9" font-family="Arial" font-size="14.00" fill="#000000">image_type_id </text>
<text text-anchor="start" x="3113.9158" y="-763.9" font-family="Arial" font-size="14.00" fill="#666666">[tinyint(4)]</text>
<polygon fill="none" stroke="#000000" points="3012,-722.5 3012,-752.5 3265,-752.5 3265,-722.5 3012,-722.5"/>
<text text-anchor="start" x="3019" y="-733.9" font-family="Arial" font-size="14.00" fill="#000000">created_at </text>
<text text-anchor="start" x="3089.028" y="-733.9" font-family="Arial" font-size="14.00" fill="#666666">[datetime]</text>
</g>
<!-- v2_game_images&#45;&gt;games -->
<g id="edge9" class="edge">
<title>v2_game_images:game_id&#45;&gt;games:id</title>
<path fill="none" stroke="#000000" d="M3001.9467,-796.7709C2937.7532,-786.56 3019.0461,-671.746 2960,-620 2815.0713,-492.9893 2295.7072,-487.5 2103,-487.5"/>
<polygon fill="#000000" stroke="#000000" points="3002.0262,-796.7765 3011.6744,-801.9882 3007.0131,-797.1383 3012,-797.5 3012,-797.5 3012,-797.5 3007.0131,-797.1383 3012.3256,-793.0118 3002.0262,-796.7765 3002.0262,-796.7765"/>
<text text-anchor="start" x="2768.386" y="-807.5" font-family="Arial" font-size="10.00" fill="#000000">FOREIGN KEY (game_id) REFERENCES games (id)</text>
</g>
<!-- v2_game_versions -->
<g id="node11" class="node">
<title>v2_game_versions</title>
<polygon fill="#efefef" stroke="transparent" points="3369,-902.5 3369,-937.5 3631,-937.5 3631,-902.5 3369,-902.5"/>
<polygon fill="none" stroke="#000000" points="3369,-902.5 3369,-937.5 3631,-937.5 3631,-902.5 3369,-902.5"/>
<text text-anchor="start" x="3375.8559" y="-915.3" font-family="Arial Bold" font-size="18.00" fill="#000000">v2_game_versions</text>
<text text-anchor="start" x="3526.8903" y="-915.3" font-family="Arial" font-size="14.00" fill="#000000"> </text>
<text text-anchor="start" x="3530.7809" y="-915.3" font-family="Arial" font-size="14.00" fill="#666666">[BASE TABLE]</text>
<polygon fill="none" stroke="#000000" points="3369,-872.5 3369,-902.5 3631,-902.5 3631,-872.5 3369,-872.5"/>
<text text-anchor="start" x="3376" y="-883.9" font-family="Arial" font-size="14.00" fill="#000000">id </text>
<text text-anchor="start" x="3390.7798" y="-883.9" font-family="Arial" font-size="14.00" fill="#666666">[varchar(36)]</text>
<polygon fill="none" stroke="#000000" points="3369,-842.5 3369,-872.5 3631,-872.5 3631,-842.5 3369,-842.5"/>
<text text-anchor="start" x="3376" y="-853.9" font-family="Arial" font-size="14.00" fill="#000000">game_id </text>
<text text-anchor="start" x="3433.5708" y="-853.9" font-family="Arial" font-size="14.00" fill="#666666">[varchar(36)]</text>
<polygon fill="none" stroke="#000000" points="3369,-812.5 3369,-842.5 3631,-842.5 3631,-812.5 3369,-812.5"/>
<text text-anchor="start" x="3376" y="-823.9" font-family="Arial" font-size="14.00" fill="#000000">game_image_id </text>
<text text-anchor="start" x="3479.4684" y="-823.9" font-family="Arial" font-size="14.00" fill="#666666">[varchar(36)]</text>
<polygon fill="none" stroke="#000000" points="3369,-782.5 3369,-812.5 3631,-812.5 3631,-782.5 3369,-782.5"/>
<text text-anchor="start" x="3376" y="-793.9" font-family="Arial" font-size="14.00" fill="#000000">game_video_id </text>
<text text-anchor="start" x="3474.8078" y="-793.9" font-family="Arial" font-size="14.00" fill="#666666">[varchar(36)]</text>
<polygon fill="none" stroke="#000000" points="3369,-752.5 3369,-782.5 3631,-782.5 3631,-752.5 3369,-752.5"/>
<text text-anchor="start" x="3376" y="-763.9" font-family="Arial" font-size="14.00" fill="#000000">name </text>
<text text-anchor="start" x="3414.899" y="-763.9" font-family="Arial" font-size="14.00" fill="#666666">[varchar(32)]</text>
<polygon fill="none" stroke="#000000" points="3369,-722.5 3369,-752.5 3631,-752.5 3631,-722.5 3369,-722.5"/>
<text text-anchor="start" x="3376" y="-733.9" font-family="Arial" font-size="14.00" fill="#000000">description </text>
<text text-anchor="start" x="3447.568" y="-733.9" font-family="Arial" font-size="14.00" fill="#666666">[text]</text>
<polygon fill="none" stroke="#000000" points="3369,-692.5 3369,-722.5 3631,-722.5 3631,-692.5 3369,-692.5"/>
<text text-anchor="start" x="3376" y="-703.9" font-family="Arial" font-size="14.00" fill="#000000">created_at </text>
<text text-anchor="start" x="3446.028" y="-703.9" font-family="Arial" font-size="14.00" fill="#666666">[datetime]</text>
<polygon fill="none" stroke="#000000" points="3369,-662.5 3369,-692.5 3631,-692.5 3631,-662.5 3369,-662.5"/>
<text text-anchor="start" x="3376" y="-673.9" font-family="Arial" font-size="14.00" fill="#000000">url </text>
<text text-anchor="start" x="3395.4404" y="-673.9" font-family="Arial" font-size="14.00" fill="#666666">[text]</text>
</g>
<!-- v2_game_versions&#45;&gt;games -->
<g id="edge10" class="edge">
<title>v2_game_versions:game_id&#45;&gt;games:id</title>
<path fill="none" stroke="#000000" d="M3358.7585,-856.931C3270.0172,-846.3102 3394.6303,-689.7503 3317,-620 3216.0669,-529.3123 2238.6899,-487.5 2103,-487.5"/>
<polygon fill="#000000" stroke="#000000" points="3359.0154,-856.9452 3368.7504,-861.9931 3364.0077,-857.2226 3369,-857.5 3369,-857.5 3369,-857.5 3364.0077,-857.2226 3369.2496,-853.0069 3359.0154,-856.9452 3359.0154,-856.9452"/>
<text text-anchor="start" x="3376.386" y="-867.5" font-family="Arial" font-size="10.00" fill="#000000">FOREIGN KEY (game_id) REFERENCES games (id)</text>
</g>
<!-- v2_game_videos -->
<g id="node12" class="node">
<title>v2_game_videos</title>
<polygon fill="#efefef" stroke="transparent" points="3736,-842.5 3736,-877.5 3983,-877.5 3983,-842.5 3736,-842.5"/>
<polygon fill="none" stroke="#000000" points="3736,-842.5 3736,-877.5 3983,-877.5 3983,-842.5 3736,-842.5"/>
<text text-anchor="start" x="3742.852" y="-855.3" font-family="Arial Bold" font-size="18.00" fill="#000000">v2_game_videos</text>
<text text-anchor="start" x="3878.8942" y="-855.3" font-family="Arial" font-size="14.00" fill="#000000"> </text>
<text text-anchor="start" x="3882.7848" y="-855.3" font-family="Arial" font-size="14.00" fill="#666666">[BASE TABLE]</text>
<polygon fill="none" stroke="#000000" points="3736,-812.5 3736,-842.5 3983,-842.5 3983,-812.5 3736,-812.5"/>
<text text-anchor="start" x="3743" y="-823.9" font-family="Arial" font-size="14.00" fill="#000000">id </text>
<text text-anchor="start" x="3757.7798" y="-823.9" font-family="Arial" font-size="14.00" fill="#666666">[varchar(36)]</text>
<polygon fill="none" stroke="#000000" points="3736,-782.5 3736,-812.5 3983,-812.5 3983,-782.5 3736,-782.5"/>
<text text-anchor="start" x="3743" y="-793.9" font-family="Arial" font-size="14.00" fill="#000000">game_id </text>
<text text-anchor="start" x="3800.5708" y="-793.9" font-family="Arial" font-size="14.00" fill="#666666">[varchar(36)]</text>
<polygon fill="none" stroke="#000000" points="3736,-752.5 3736,-782.5 3983,-782.5 3983,-752.5 3736,-752.5"/>
<text text-anchor="start" x="3743" y="-763.9" font-family="Arial" font-size="14.00" fill="#000000">video_type_id </text>
<text text-anchor="start" x="3833.2552" y="-763.9" font-family="Arial" font-size="14.00" fill="#666666">[tinyint(4)]</text>
<polygon fill="none" stroke="#000000" points="3736,-722.5 3736,-752.5 3983,-752.5 3983,-722.5 3736,-722.5"/>
<text text-anchor="start" x="3743" y="-733.9" font-family="Arial" font-size="14.00" fill="#000000">created_at </text>
<text text-anchor="start" x="3813.028" y="-733.9" font-family="Arial" font-size="14.00" fill="#666666">[datetime]</text>
</g>
<!-- v2_game_videos&#45;&gt;games -->
<g id="edge11" class="edge">
<title>v2_game_videos:game_id&#45;&gt;games:id</title>
<path fill="none" stroke="#000000" d="M3725.9374,-796.7577C3661.7291,-786.3649 3744.0358,-669.5746 3683,-620 3546.252,-508.9303 2279.1718,-487.5 2103,-487.5"/>
<polygon fill="#000000" stroke="#000000" points="3726.0271,-796.7643 3735.6689,-801.9878 3731.0135,-797.1321 3736,-797.5 3736,-797.5 3736,-797.5 3731.0135,-797.1321 3736.3311,-793.0122 3726.0271,-796.7643 3726.0271,-796.7643"/>
<text text-anchor="start" x="3743.386" y="-807.5" font-family="Arial" font-size="10.00" fill="#000000">FOREIGN KEY (game_id) REFERENCES games (id)</text>
</g>
</g>
</svg>
