<?xml version="1.0" encoding="UTF-8" standalone="no"?>
<!DOCTYPE svg PUBLIC "-//W3C//DTD SVG 1.1//EN"
 "http://www.w3.org/Graphics/SVG/1.1/DTD/svg11.dtd">
<!-- Generated by graphviz version 2.40.1 (20161225.0304)
 -->
<!-- Title: games Pages: 1 -->
<svg width="3321pt" height="622pt"
 viewBox="0.00 0.00 3320.50 622.00" xmlns="http://www.w3.org/2000/svg" xmlns:xlink="http://www.w3.org/1999/xlink">
<g id="graph0" class="graph" transform="scale(1 1) rotate(0) translate(4 618)">
<title>games</title>
<polygon fill="#ffffff" stroke="transparent" points="-4,4 -4,-618 3316.5,-618 3316.5,4 -4,4"/>
<!-- games -->
<g id="node1" class="node">
<title>games</title>
<polygon fill="#efefef" stroke="transparent" points="1553,-195.5 1553,-230.5 1718,-230.5 1718,-195.5 1553,-195.5"/>
<polygon fill="none" stroke="#000000" points="1553,-195.5 1553,-230.5 1718,-230.5 1718,-195.5 1553,-195.5"/>
<text text-anchor="start" x="1559.8677" y="-208.3" font-family="Arial Bold" font-size="18.00" fill="#000000">games</text>
<text text-anchor="start" x="1613.8785" y="-208.3" font-family="Arial" font-size="14.00" fill="#000000"> </text>
<text text-anchor="start" x="1617.7691" y="-208.3" font-family="Arial" font-size="14.00" fill="#666666">[BASE TABLE]</text>
<polygon fill="none" stroke="#000000" points="1553,-165.5 1553,-195.5 1718,-195.5 1718,-165.5 1553,-165.5"/>
<text text-anchor="start" x="1560" y="-176.9" font-family="Arial" font-size="14.00" fill="#000000">id </text>
<text text-anchor="start" x="1574.7798" y="-176.9" font-family="Arial" font-size="14.00" fill="#666666">[varchar(36)]</text>
<polygon fill="none" stroke="#000000" points="1553,-135.5 1553,-165.5 1718,-165.5 1718,-135.5 1553,-135.5"/>
<text text-anchor="start" x="1560" y="-146.9" font-family="Arial" font-size="14.00" fill="#000000">name </text>
<text text-anchor="start" x="1598.899" y="-146.9" font-family="Arial" font-size="14.00" fill="#666666">[varchar(256)]</text>
<polygon fill="none" stroke="#000000" points="1553,-105.5 1553,-135.5 1718,-135.5 1718,-105.5 1553,-105.5"/>
<text text-anchor="start" x="1560" y="-116.9" font-family="Arial" font-size="14.00" fill="#000000">description </text>
<text text-anchor="start" x="1631.568" y="-116.9" font-family="Arial" font-size="14.00" fill="#666666">[text]</text>
<polygon fill="none" stroke="#000000" points="1553,-75.5 1553,-105.5 1718,-105.5 1718,-75.5 1553,-75.5"/>
<text text-anchor="start" x="1560" y="-86.9" font-family="Arial" font-size="14.00" fill="#000000">created_at </text>
<text text-anchor="start" x="1630.028" y="-86.9" font-family="Arial" font-size="14.00" fill="#666666">[datetime]</text>
<polygon fill="none" stroke="#000000" points="1553,-45.5 1553,-75.5 1718,-75.5 1718,-45.5 1553,-45.5"/>
<text text-anchor="start" x="1560" y="-56.9" font-family="Arial" font-size="14.00" fill="#000000">deleted_at </text>
<text text-anchor="start" x="1629.2566" y="-56.9" font-family="Arial" font-size="14.00" fill="#666666">[datetime]</text>
<polygon fill="none" stroke="#000000" stroke-width="3" points="1551,-44.5 1551,-232.5 1719,-232.5 1719,-44.5 1551,-44.5"/>
</g>
<!-- game_genre_relations -->
<g id="node2" class="node">
<title>game_genre_relations</title>
<polygon fill="#efefef" stroke="transparent" points="43,-475.5 43,-510.5 333,-510.5 333,-475.5 43,-475.5"/>
<polygon fill="none" stroke="#000000" points="43,-475.5 43,-510.5 333,-510.5 333,-475.5 43,-475.5"/>
<text text-anchor="start" x="49.8492" y="-488.3" font-family="Arial Bold" font-size="18.00" fill="#000000">game_genre_relations</text>
<text text-anchor="start" x="228.897" y="-488.3" font-family="Arial" font-size="14.00" fill="#000000"> </text>
<text text-anchor="start" x="232.7876" y="-488.3" font-family="Arial" font-size="14.00" fill="#666666">[BASE TABLE]</text>
<polygon fill="none" stroke="#000000" points="43,-445.5 43,-475.5 333,-475.5 333,-445.5 43,-445.5"/>
<text text-anchor="start" x="50" y="-456.9" font-family="Arial" font-size="14.00" fill="#000000">genre_id </text>
<text text-anchor="start" x="108.3534" y="-456.9" font-family="Arial" font-size="14.00" fill="#666666">[varchar(36)]</text>
<polygon fill="none" stroke="#000000" points="43,-415.5 43,-445.5 333,-445.5 333,-415.5 43,-415.5"/>
<text text-anchor="start" x="50" y="-426.9" font-family="Arial" font-size="14.00" fill="#000000">game_id </text>
<text text-anchor="start" x="107.5708" y="-426.9" font-family="Arial" font-size="14.00" fill="#666666">[varchar(36)]</text>
</g>
<!-- game_genre_relations&#45;&gt;games -->
<g id="edge1" class="edge">
<title>game_genre_relations:game_id&#45;&gt;games:id</title>
<path fill="none" stroke="#000000" d="M343.0051,-429.4319C383.7451,-419.6047 342.0317,-344.5634 385,-313 490.2623,-235.6769 1422.3898,-180.5 1553,-180.5"/>
<polygon fill="#000000" stroke="#000000" points="342.9435,-429.4384 332.5223,-426.0254 337.9718,-429.9692 333,-430.5 333,-430.5 333,-430.5 337.9718,-429.9692 333.4777,-434.9746 342.9435,-429.4384 342.9435,-429.4384"/>
<text text-anchor="start" x="340.386" y="-440.5" font-family="Arial" font-size="10.00" fill="#000000">FOREIGN KEY (game_id) REFERENCES games (id)</text>
</g>
<!-- game_images -->
<g id="node3" class="node">
<title>game_images</title>
<polygon fill="#efefef" stroke="transparent" points="437,-505.5 437,-540.5 661,-540.5 661,-505.5 437,-505.5"/>
<polygon fill="none" stroke="#000000" points="437,-505.5 437,-540.5 661,-540.5 661,-505.5 437,-505.5"/>
<text text-anchor="start" x="443.8621" y="-518.3" font-family="Arial Bold" font-size="18.00" fill="#000000">game_images</text>
<text text-anchor="start" x="556.8841" y="-518.3" font-family="Arial" font-size="14.00" fill="#000000"> </text>
<text text-anchor="start" x="560.7747" y="-518.3" font-family="Arial" font-size="14.00" fill="#666666">[BASE TABLE]</text>
<polygon fill="none" stroke="#000000" points="437,-475.5 437,-505.5 661,-505.5 661,-475.5 437,-475.5"/>
<text text-anchor="start" x="444" y="-486.9" font-family="Arial" font-size="14.00" fill="#000000">id </text>
<text text-anchor="start" x="458.7798" y="-486.9" font-family="Arial" font-size="14.00" fill="#666666">[varchar(36)]</text>
<polygon fill="none" stroke="#000000" points="437,-445.5 437,-475.5 661,-475.5 661,-445.5 437,-445.5"/>
<text text-anchor="start" x="444" y="-456.9" font-family="Arial" font-size="14.00" fill="#000000">game_id </text>
<text text-anchor="start" x="501.5708" y="-456.9" font-family="Arial" font-size="14.00" fill="#666666">[varchar(36)]</text>
<polygon fill="none" stroke="#000000" points="437,-415.5 437,-445.5 661,-445.5 661,-415.5 437,-415.5"/>
<text text-anchor="start" x="444" y="-426.9" font-family="Arial" font-size="14.00" fill="#000000">image_type_id </text>
<text text-anchor="start" x="538.9158" y="-426.9" font-family="Arial" font-size="14.00" fill="#666666">[tinyint(4)]</text>
<polygon fill="none" stroke="#000000" points="437,-385.5 437,-415.5 661,-415.5 661,-385.5 437,-385.5"/>
<text text-anchor="start" x="444" y="-396.9" font-family="Arial" font-size="14.00" fill="#000000">created_at </text>
<text text-anchor="start" x="514.028" y="-396.9" font-family="Arial" font-size="14.00" fill="#666666">[datetime]</text>
</g>
<!-- game_images&#45;&gt;games -->
<g id="edge2" class="edge">
<title>game_images:game_id&#45;&gt;games:id</title>
<path fill="none" stroke="#000000" d="M671.1872,-459.602C723.1235,-449.406 662.4965,-355.0362 713,-313 858.245,-192.1063 1364.0253,-180.5 1553,-180.5"/>
<polygon fill="#000000" stroke="#000000" points="670.9614,-459.6218 660.6048,-456.0174 665.9807,-460.0609 661,-460.5 661,-460.5 661,-460.5 665.9807,-460.0609 661.3952,-464.9826 670.9614,-459.6218 670.9614,-459.6218"/>
<text text-anchor="start" x="417.386" y="-470.5" font-family="Arial" font-size="10.00" fill="#000000">FOREIGN KEY (game_id) REFERENCES games (id)</text>
</g>
<!-- game_management_roles -->
<g id="node4" class="node">
<title>game_management_roles</title>
<polygon fill="#efefef" stroke="transparent" points="765,-490.5 765,-525.5 1085,-525.5 1085,-490.5 765,-490.5"/>
<polygon fill="none" stroke="#000000" points="765,-490.5 765,-525.5 1085,-525.5 1085,-490.5 765,-490.5"/>
<text text-anchor="start" x="771.8471" y="-503.3" font-family="Arial Bold" font-size="18.00" fill="#000000">game_management_roles</text>
<text text-anchor="start" x="980.8991" y="-503.3" font-family="Arial" font-size="14.00" fill="#000000"> </text>
<text text-anchor="start" x="984.7897" y="-503.3" font-family="Arial" font-size="14.00" fill="#666666">[BASE TABLE]</text>
<polygon fill="none" stroke="#000000" points="765,-460.5 765,-490.5 1085,-490.5 1085,-460.5 765,-460.5"/>
<text text-anchor="start" x="772" y="-471.9" font-family="Arial" font-size="14.00" fill="#000000">game_id </text>
<text text-anchor="start" x="829.5708" y="-471.9" font-family="Arial" font-size="14.00" fill="#666666">[varchar(36)]</text>
<polygon fill="none" stroke="#000000" points="765,-430.5 765,-460.5 1085,-460.5 1085,-430.5 765,-430.5"/>
<text text-anchor="start" x="772" y="-441.9" font-family="Arial" font-size="14.00" fill="#000000">user_id </text>
<text text-anchor="start" x="821.7882" y="-441.9" font-family="Arial" font-size="14.00" fill="#666666">[varchar(36)]</text>
<polygon fill="none" stroke="#000000" points="765,-400.5 765,-430.5 1085,-430.5 1085,-400.5 765,-400.5"/>
<text text-anchor="start" x="772" y="-411.9" font-family="Arial" font-size="14.00" fill="#000000">role_type_id </text>
<text text-anchor="start" x="852.1332" y="-411.9" font-family="Arial" font-size="14.00" fill="#666666">[tinyint(4)]</text>
</g>
<!-- game_management_roles&#45;&gt;games -->
<g id="edge3" class="edge">
<title>game_management_roles:game_id&#45;&gt;games:id</title>
<path fill="none" stroke="#000000" d="M1095.0444,-474.7401C1153.5756,-464.9956 1085.9638,-363.9672 1137,-313 1205.6501,-244.4427 1455.9796,-180.5 1553,-180.5"/>
<polygon fill="#000000" stroke="#000000" points="1094.9715,-474.7455 1084.6605,-471.0128 1089.9858,-475.1228 1085,-475.5 1085,-475.5 1085,-475.5 1089.9858,-475.1228 1085.3395,-479.9872 1094.9715,-474.7455 1094.9715,-474.7455"/>
<text text-anchor="start" x="966.886" y="-459.5" font-family="Arial" font-size="10.00" fill="#000000">FOREIGN KEY (game_id) REFERENCES games (id)</text>
</g>
<!-- game_versions -->
<g id="node5" class="node">
<title>game_versions</title>
<polygon fill="#efefef" stroke="transparent" points="1190,-520.5 1190,-555.5 1423,-555.5 1423,-520.5 1190,-520.5"/>
<polygon fill="none" stroke="#000000" points="1190,-520.5 1190,-555.5 1423,-555.5 1423,-520.5 1190,-520.5"/>
<text text-anchor="start" x="1196.8621" y="-533.3" font-family="Arial Bold" font-size="18.00" fill="#000000">game_versions</text>
<text text-anchor="start" x="1318.8841" y="-533.3" font-family="Arial" font-size="14.00" fill="#000000"> </text>
<text text-anchor="start" x="1322.7747" y="-533.3" font-family="Arial" font-size="14.00" fill="#666666">[BASE TABLE]</text>
<polygon fill="none" stroke="#000000" points="1190,-490.5 1190,-520.5 1423,-520.5 1423,-490.5 1190,-490.5"/>
<text text-anchor="start" x="1197" y="-501.9" font-family="Arial" font-size="14.00" fill="#000000">id </text>
<text text-anchor="start" x="1211.7798" y="-501.9" font-family="Arial" font-size="14.00" fill="#666666">[varchar(36)]</text>
<polygon fill="none" stroke="#000000" points="1190,-460.5 1190,-490.5 1423,-490.5 1423,-460.5 1190,-460.5"/>
<text text-anchor="start" x="1197" y="-471.9" font-family="Arial" font-size="14.00" fill="#000000">game_id </text>
<text text-anchor="start" x="1254.5708" y="-471.9" font-family="Arial" font-size="14.00" fill="#666666">[varchar(36)]</text>
<polygon fill="none" stroke="#000000" points="1190,-430.5 1190,-460.5 1423,-460.5 1423,-430.5 1190,-430.5"/>
<text text-anchor="start" x="1197" y="-441.9" font-family="Arial" font-size="14.00" fill="#000000">name </text>
<text text-anchor="start" x="1235.899" y="-441.9" font-family="Arial" font-size="14.00" fill="#666666">[varchar(32)]</text>
<polygon fill="none" stroke="#000000" points="1190,-400.5 1190,-430.5 1423,-430.5 1423,-400.5 1190,-400.5"/>
<text text-anchor="start" x="1197" y="-411.9" font-family="Arial" font-size="14.00" fill="#000000">description </text>
<text text-anchor="start" x="1268.568" y="-411.9" font-family="Arial" font-size="14.00" fill="#666666">[text]</text>
<polygon fill="none" stroke="#000000" points="1190,-370.5 1190,-400.5 1423,-400.5 1423,-370.5 1190,-370.5"/>
<text text-anchor="start" x="1197" y="-381.9" font-family="Arial" font-size="14.00" fill="#000000">created_at </text>
<text text-anchor="start" x="1267.028" y="-381.9" font-family="Arial" font-size="14.00" fill="#666666">[datetime]</text>
</g>
<!-- game_versions&#45;&gt;games -->
<g id="edge4" class="edge">
<title>game_versions:game_id&#45;&gt;games:id</title>
<path fill="none" stroke="#000000" d="M1433.1987,-474.8464C1493.6818,-466.4473 1445.5315,-378.8327 1475,-313 1502.9191,-250.6285 1484.665,-180.5 1553,-180.5"/>
<polygon fill="#000000" stroke="#000000" points="1432.9795,-474.8604 1422.7122,-471.0092 1427.9898,-475.1802 1423,-475.5 1423,-475.5 1423,-475.5 1427.9898,-475.1802 1423.2878,-479.9908 1432.9795,-474.8604 1432.9795,-474.8604"/>
<text text-anchor="start" x="1430.386" y="-485.5" font-family="Arial" font-size="10.00" fill="#000000">FOREIGN KEY (game_id) REFERENCES games (id)</text>
</g>
<!-- game_videos -->
<g id="node6" class="node">
<title>game_videos</title>
<polygon fill="#efefef" stroke="transparent" points="1527,-505.5 1527,-540.5 1745,-540.5 1745,-505.5 1527,-505.5"/>
<polygon fill="none" stroke="#000000" points="1527,-505.5 1527,-540.5 1745,-540.5 1745,-505.5 1527,-505.5"/>
<text text-anchor="start" x="1533.8582" y="-518.3" font-family="Arial Bold" font-size="18.00" fill="#000000">game_videos</text>
<text text-anchor="start" x="1640.888" y="-518.3" font-family="Arial" font-size="14.00" fill="#000000"> </text>
<text text-anchor="start" x="1644.7786" y="-518.3" font-family="Arial" font-size="14.00" fill="#666666">[BASE TABLE]</text>
<polygon fill="none" stroke="#000000" points="1527,-475.5 1527,-505.5 1745,-505.5 1745,-475.5 1527,-475.5"/>
<text text-anchor="start" x="1534" y="-486.9" font-family="Arial" font-size="14.00" fill="#000000">id </text>
<text text-anchor="start" x="1548.7798" y="-486.9" font-family="Arial" font-size="14.00" fill="#666666">[varchar(36)]</text>
<polygon fill="none" stroke="#000000" points="1527,-445.5 1527,-475.5 1745,-475.5 1745,-445.5 1527,-445.5"/>
<text text-anchor="start" x="1534" y="-456.9" font-family="Arial" font-size="14.00" fill="#000000">game_id </text>
<text text-anchor="start" x="1591.5708" y="-456.9" font-family="Arial" font-size="14.00" fill="#666666">[varchar(36)]</text>
<polygon fill="none" stroke="#000000" points="1527,-415.5 1527,-445.5 1745,-445.5 1745,-415.5 1527,-415.5"/>
<text text-anchor="start" x="1534" y="-426.9" font-family="Arial" font-size="14.00" fill="#000000">video_type_id </text>
<text text-anchor="start" x="1624.2552" y="-426.9" font-family="Arial" font-size="14.00" fill="#666666">[tinyint(4)]</text>
<polygon fill="none" stroke="#000000" points="1527,-385.5 1527,-415.5 1745,-415.5 1745,-385.5 1527,-385.5"/>
<text text-anchor="start" x="1534" y="-396.9" font-family="Arial" font-size="14.00" fill="#000000">created_at </text>
<text text-anchor="start" x="1604.028" y="-396.9" font-family="Arial" font-size="14.00" fill="#666666">[datetime]</text>
</g>
<!-- game_videos&#45;&gt;games -->
<g id="edge5" class="edge">
<title>game_videos:game_id&#45;&gt;games:id</title>
<path fill="none" stroke="#000000" d="M1516.5707,-459.305C1478.0777,-449.5505 1498.9466,-382.3748 1527,-343 1579.1154,-269.8525 1665.8846,-350.1475 1718,-277 1742.8866,-242.0699 1760.8889,-180.5 1718,-180.5"/>
<polygon fill="#000000" stroke="#000000" points="1517.065,-459.3616 1526.4877,-464.9707 1522.0325,-459.9308 1527,-460.5 1527,-460.5 1527,-460.5 1522.0325,-459.9308 1527.5123,-456.0293 1517.065,-459.3616 1517.065,-459.3616"/>
<text text-anchor="start" x="1534.386" y="-444.5" font-family="Arial" font-size="10.00" fill="#000000">FOREIGN KEY (game_id) REFERENCES games (id)</text>
</g>
<!-- launcher_version_game_relations -->
<g id="node7" class="node">
<title>launcher_version_game_relations</title>
<polygon fill="#efefef" stroke="transparent" points="1850,-475.5 1850,-510.5 2231,-510.5 2231,-475.5 1850,-475.5"/>
<polygon fill="none" stroke="#000000" points="1850,-475.5 1850,-510.5 2231,-510.5 2231,-475.5 1850,-475.5"/>
<text text-anchor="start" x="1856.8434" y="-488.3" font-family="Arial Bold" font-size="18.00" fill="#000000">launcher_version_game_relations</text>
<text text-anchor="start" x="2126.9028" y="-488.3" font-family="Arial" font-size="14.00" fill="#000000"> </text>
<text text-anchor="start" x="2130.7934" y="-488.3" font-family="Arial" font-size="14.00" fill="#666666">[BASE TABLE]</text>
<polygon fill="none" stroke="#000000" points="1850,-445.5 1850,-475.5 2231,-475.5 2231,-445.5 1850,-445.5"/>
<text text-anchor="start" x="1857" y="-456.9" font-family="Arial" font-size="14.00" fill="#000000">launcher_version_table_id </text>
<text text-anchor="start" x="2024.2678" y="-456.9" font-family="Arial" font-size="14.00" fill="#666666">[varchar(36)]</text>
<polygon fill="none" stroke="#000000" points="1850,-415.5 1850,-445.5 2231,-445.5 2231,-415.5 1850,-415.5"/>
<text text-anchor="start" x="1857" y="-426.9" font-family="Arial" font-size="14.00" fill="#000000">game_table_id </text>
<text text-anchor="start" x="1952.6984" y="-426.9" font-family="Arial" font-size="14.00" fill="#666666">[varchar(36)]</text>
</g>
<!-- launcher_version_game_relations&#45;&gt;games -->
<g id="edge6" class="edge">
<title>launcher_version_game_relations:game_table_id&#45;&gt;games:id</title>
<path fill="none" stroke="#000000" d="M1839.9813,-429.6908C1796.4407,-421.9676 1821.7825,-360.5228 1797,-313 1765.2978,-252.2081 1786.5616,-180.5 1718,-180.5"/>
<polygon fill="#000000" stroke="#000000" points="1840.0325,-429.6949 1849.6377,-434.9854 1845.0162,-430.0974 1850,-430.5 1850,-430.5 1850,-430.5 1845.0162,-430.0974 1850.3623,-426.0146 1840.0325,-429.6949 1840.0325,-429.6949"/>
<text text-anchor="start" x="1648.269" y="-414.5" font-family="Arial" font-size="10.00" fill="#000000">FOREIGN KEY (game_table_id) REFERENCES games (id)</text>
</g>
<!-- v2_game_files -->
<g id="node8" class="node">
<title>v2_game_files</title>
<polygon fill="#efefef" stroke="transparent" points="2335,-535.5 2335,-570.5 2562,-570.5 2562,-535.5 2335,-535.5"/>
<polygon fill="none" stroke="#000000" points="2335,-535.5 2335,-570.5 2562,-570.5 2562,-535.5 2335,-535.5"/>
<text text-anchor="start" x="2341.86" y="-548.3" font-family="Arial Bold" font-size="18.00" fill="#000000">v2_game_files</text>
<text text-anchor="start" x="2457.8862" y="-548.3" font-family="Arial" font-size="14.00" fill="#000000"> </text>
<text text-anchor="start" x="2461.7768" y="-548.3" font-family="Arial" font-size="14.00" fill="#666666">[BASE TABLE]</text>
<polygon fill="none" stroke="#000000" points="2335,-505.5 2335,-535.5 2562,-535.5 2562,-505.5 2335,-505.5"/>
<text text-anchor="start" x="2342" y="-516.9" font-family="Arial" font-size="14.00" fill="#000000">id </text>
<text text-anchor="start" x="2356.7798" y="-516.9" font-family="Arial" font-size="14.00" fill="#666666">[varchar(36)]</text>
<polygon fill="none" stroke="#000000" points="2335,-475.5 2335,-505.5 2562,-505.5 2562,-475.5 2335,-475.5"/>
<text text-anchor="start" x="2342" y="-486.9" font-family="Arial" font-size="14.00" fill="#000000">game_id </text>
<text text-anchor="start" x="2399.5708" y="-486.9" font-family="Arial" font-size="14.00" fill="#666666">[varchar(36)]</text>
<polygon fill="none" stroke="#000000" points="2335,-445.5 2335,-475.5 2562,-475.5 2562,-445.5 2335,-445.5"/>
<text text-anchor="start" x="2342" y="-456.9" font-family="Arial" font-size="14.00" fill="#000000">file_type_id </text>
<text text-anchor="start" x="2416.6872" y="-456.9" font-family="Arial" font-size="14.00" fill="#666666">[tinyint(4)]</text>
<polygon fill="none" stroke="#000000" points="2335,-415.5 2335,-445.5 2562,-445.5 2562,-415.5 2335,-415.5"/>
<text text-anchor="start" x="2342" y="-426.9" font-family="Arial" font-size="14.00" fill="#000000">hash </text>
<text text-anchor="start" x="2376.2384" y="-426.9" font-family="Arial" font-size="14.00" fill="#666666">[char(32)]</text>
<polygon fill="none" stroke="#000000" points="2335,-385.5 2335,-415.5 2562,-415.5 2562,-385.5 2335,-385.5"/>
<text text-anchor="start" x="2342" y="-396.9" font-family="Arial" font-size="14.00" fill="#000000">entry_point </text>
<text text-anchor="start" x="2415.1346" y="-396.9" font-family="Arial" font-size="14.00" fill="#666666">[text]</text>
<polygon fill="none" stroke="#000000" points="2335,-355.5 2335,-385.5 2562,-385.5 2562,-355.5 2335,-355.5"/>
<text text-anchor="start" x="2342" y="-366.9" font-family="Arial" font-size="14.00" fill="#000000">created_at </text>
<text text-anchor="start" x="2412.028" y="-366.9" font-family="Arial" font-size="14.00" fill="#666666">[datetime]</text>
</g>
<!-- v2_game_files&#45;&gt;games -->
<g id="edge7" class="edge">
<title>v2_game_files:game_id&#45;&gt;games:id</title>
<path fill="none" stroke="#000000" d="M2324.9344,-489.7844C2260.5704,-479.7606 2340.0118,-366.9791 2283,-313 2189.3535,-224.3349 1846.9619,-180.5 1718,-180.5"/>
<polygon fill="#000000" stroke="#000000" points="2325.0252,-489.7908 2334.6808,-494.9887 2330.0126,-490.1454 2335,-490.5 2335,-490.5 2335,-490.5 2330.0126,-490.1454 2335.3192,-486.0113 2325.0252,-489.7908 2325.0252,-489.7908"/>
<text text-anchor="start" x="2091.386" y="-500.5" font-family="Arial" font-size="10.00" fill="#000000">FOREIGN KEY (game_id) REFERENCES games (id)</text>
</g>
<!-- v2_game_images -->
<g id="node9" class="node">
<title>v2_game_images</title>
<polygon fill="#efefef" stroke="transparent" points="2666,-505.5 2666,-540.5 2919,-540.5 2919,-505.5 2666,-505.5"/>
<polygon fill="none" stroke="#000000" points="2666,-505.5 2666,-540.5 2919,-540.5 2919,-505.5 2666,-505.5"/>
<text text-anchor="start" x="2672.8559" y="-518.3" font-family="Arial Bold" font-size="18.00" fill="#000000">v2_game_images</text>
<text text-anchor="start" x="2814.8903" y="-518.3" font-family="Arial" font-size="14.00" fill="#000000"> </text>
<text text-anchor="start" x="2818.7809" y="-518.3" font-family="Arial" font-size="14.00" fill="#666666">[BASE TABLE]</text>
<polygon fill="none" stroke="#000000" points="2666,-475.5 2666,-505.5 2919,-505.5 2919,-475.5 2666,-475.5"/>
<text text-anchor="start" x="2673" y="-486.9" font-family="Arial" font-size="14.00" fill="#000000">id </text>
<text text-anchor="start" x="2687.7798" y="-486.9" font-family="Arial" font-size="14.00" fill="#666666">[varchar(36)]</text>
<polygon fill="none" stroke="#000000" points="2666,-445.5 2666,-475.5 2919,-475.5 2919,-445.5 2666,-445.5"/>
<text text-anchor="start" x="2673" y="-456.9" font-family="Arial" font-size="14.00" fill="#000000">game_id </text>
<text text-anchor="start" x="2730.5708" y="-456.9" font-family="Arial" font-size="14.00" fill="#666666">[varchar(36)]</text>
<polygon fill="none" stroke="#000000" points="2666,-415.5 2666,-445.5 2919,-445.5 2919,-415.5 2666,-415.5"/>
<text text-anchor="start" x="2673" y="-426.9" font-family="Arial" font-size="14.00" fill="#000000">image_type_id </text>
<text text-anchor="start" x="2767.9158" y="-426.9" font-family="Arial" font-size="14.00" fill="#666666">[tinyint(4)]</text>
<polygon fill="none" stroke="#000000" points="2666,-385.5 2666,-415.5 2919,-415.5 2919,-385.5 2666,-385.5"/>
<text text-anchor="start" x="2673" y="-396.9" font-family="Arial" font-size="14.00" fill="#000000">created_at </text>
<text text-anchor="start" x="2743.028" y="-396.9" font-family="Arial" font-size="14.00" fill="#666666">[datetime]</text>
</g>
<!-- v2_game_images&#45;&gt;games -->
<g id="edge8" class="edge">
<title>v2_game_images:game_id&#45;&gt;games:id</title>
<path fill="none" stroke="#000000" d="M2655.8146,-459.5998C2603.8986,-449.3794 2664.7053,-354.7925 2614,-313 2458.6814,-184.983 1919.2765,-180.5 1718,-180.5"/>
<polygon fill="#000000" stroke="#000000" points="2656.0388,-459.6196 2665.6038,-464.9825 2661.0194,-460.0598 2666,-460.5 2666,-460.5 2666,-460.5 2661.0194,-460.0598 2666.3962,-456.0175 2656.0388,-459.6196 2656.0388,-459.6196"/>
<text text-anchor="start" x="2422.386" y="-470.5" font-family="Arial" font-size="10.00" fill="#000000">FOREIGN KEY (game_id) REFERENCES games (id)</text>
</g>
<!-- v2_game_videos -->
<g id="node10" class="node">
<title>v2_game_videos</title>
<polygon fill="#efefef" stroke="transparent" points="3023,-505.5 3023,-540.5 3270,-540.5 3270,-505.5 3023,-505.5"/>
<polygon fill="none" stroke="#000000" points="3023,-505.5 3023,-540.5 3270,-540.5 3270,-505.5 3023,-505.5"/>
<text text-anchor="start" x="3029.852" y="-518.3" font-family="Arial Bold" font-size="18.00" fill="#000000">v2_game_videos</text>
<text text-anchor="start" x="3165.8942" y="-518.3" font-family="Arial" font-size="14.00" fill="#000000"> </text>
<text text-anchor="start" x="3169.7848" y="-518.3" font-family="Arial" font-size="14.00" fill="#666666">[BASE TABLE]</text>
<polygon fill="none" stroke="#000000" points="3023,-475.5 3023,-505.5 3270,-505.5 3270,-475.5 3023,-475.5"/>
<text text-anchor="start" x="3030" y="-486.9" font-family="Arial" font-size="14.00" fill="#000000">id </text>
<text text-anchor="start" x="3044.7798" y="-486.9" font-family="Arial" font-size="14.00" fill="#666666">[varchar(36)]</text>
<polygon fill="none" stroke="#000000" points="3023,-445.5 3023,-475.5 3270,-475.5 3270,-445.5 3023,-445.5"/>
<text text-anchor="start" x="3030" y="-456.9" font-family="Arial" font-size="14.00" fill="#000000">game_id </text>
<text text-anchor="start" x="3087.5708" y="-456.9" font-family="Arial" font-size="14.00" fill="#666666">[varchar(36)]</text>
<polygon fill="none" stroke="#000000" points="3023,-415.5 3023,-445.5 3270,-445.5 3270,-415.5 3023,-415.5"/>
<text text-anchor="start" x="3030" y="-426.9" font-family="Arial" font-size="14.00" fill="#000000">video_type_id </text>
<text text-anchor="start" x="3120.2552" y="-426.9" font-family="Arial" font-size="14.00" fill="#666666">[tinyint(4)]</text>
<polygon fill="none" stroke="#000000" points="3023,-385.5 3023,-415.5 3270,-415.5 3270,-385.5 3023,-385.5"/>
<text text-anchor="start" x="3030" y="-396.9" font-family="Arial" font-size="14.00" fill="#000000">created_at </text>
<text text-anchor="start" x="3100.028" y="-396.9" font-family="Arial" font-size="14.00" fill="#666666">[datetime]</text>
</g>
<!-- v2_game_videos&#45;&gt;games -->
<g id="edge9" class="edge">
<title>v2_game_videos:game_id&#45;&gt;games:id</title>
<path fill="none" stroke="#000000" d="M3012.8223,-459.5903C2960.9922,-449.2634 3022.5608,-353.7324 2971,-313 2861.1451,-226.2159 1857.9985,-180.5 1718,-180.5"/>
<polygon fill="#000000" stroke="#000000" points="3013.0397,-459.6097 3022.5993,-464.9821 3018.0199,-460.0548 3023,-460.5 3023,-460.5 3023,-460.5 3018.0199,-460.0548 3023.4007,-456.0179 3013.0397,-459.6097 3013.0397,-459.6097"/>
<text text-anchor="start" x="3030.386" y="-470.5" font-family="Arial" font-size="10.00" fill="#000000">FOREIGN KEY (game_id) REFERENCES games (id)</text>
</g>
</g>
</svg>
