<?xml version="1.0" encoding="UTF-8" standalone="no"?>
<!DOCTYPE svg PUBLIC "-//W3C//DTD SVG 1.1//EN"
 "http://www.w3.org/Graphics/SVG/1.1/DTD/svg11.dtd">
<!-- Generated by graphviz version 2.40.1 (20161225.0304)
 -->
<!-- Title: game_videos Pages: 1 -->
<svg width="805pt" height="622pt"
 viewBox="0.00 0.00 805.00 622.00" xmlns="http://www.w3.org/2000/svg" xmlns:xlink="http://www.w3.org/1999/xlink">
<g id="graph0" class="graph" transform="scale(1 1) rotate(0) translate(4 618)">
<title>game_videos</title>
<polygon fill="#ffffff" stroke="transparent" points="-4,4 -4,-618 801,-618 801,4 -4,4"/>
<!-- game_videos -->
<g id="node1" class="node">
<title>game_videos</title>
<polygon fill="#efefef" stroke="transparent" points="251,-532.5 251,-567.5 469,-567.5 469,-532.5 251,-532.5"/>
<polygon fill="none" stroke="#000000" points="251,-532.5 251,-567.5 469,-567.5 469,-532.5 251,-532.5"/>
<text text-anchor="start" x="257.8582" y="-545.3" font-family="Arial Bold" font-size="18.00" fill="#000000">game_videos</text>
<text text-anchor="start" x="364.888" y="-545.3" font-family="Arial" font-size="14.00" fill="#000000"> </text>
<text text-anchor="start" x="368.7786" y="-545.3" font-family="Arial" font-size="14.00" fill="#666666">[BASE TABLE]</text>
<polygon fill="none" stroke="#000000" points="251,-502.5 251,-532.5 469,-532.5 469,-502.5 251,-502.5"/>
<text text-anchor="start" x="258" y="-513.9" font-family="Arial" font-size="14.00" fill="#000000">id </text>
<text text-anchor="start" x="272.7798" y="-513.9" font-family="Arial" font-size="14.00" fill="#666666">[varchar(36)]</text>
<polygon fill="none" stroke="#000000" points="251,-472.5 251,-502.5 469,-502.5 469,-472.5 251,-472.5"/>
<text text-anchor="start" x="258" y="-483.9" font-family="Arial" font-size="14.00" fill="#000000">game_id </text>
<text text-anchor="start" x="315.5708" y="-483.9" font-family="Arial" font-size="14.00" fill="#666666">[varchar(36)]</text>
<polygon fill="none" stroke="#000000" points="251,-442.5 251,-472.5 469,-472.5 469,-442.5 251,-442.5"/>
<text text-anchor="start" x="258" y="-453.9" font-family="Arial" font-size="14.00" fill="#000000">video_type_id </text>
<text text-anchor="start" x="348.2552" y="-453.9" font-family="Arial" font-size="14.00" fill="#666666">[tinyint(4)]</text>
<polygon fill="none" stroke="#000000" points="251,-412.5 251,-442.5 469,-442.5 469,-412.5 251,-412.5"/>
<text text-anchor="start" x="258" y="-423.9" font-family="Arial" font-size="14.00" fill="#000000">created_at </text>
<text text-anchor="start" x="328.028" y="-423.9" font-family="Arial" font-size="14.00" fill="#666666">[datetime]</text>
<polygon fill="none" stroke="#000000" stroke-width="3" points="249.5,-411.5 249.5,-569.5 470.5,-569.5 470.5,-411.5 249.5,-411.5"/>
</g>
<!-- games -->
<g id="node2" class="node">
<title>games</title>
<polygon fill="#efefef" stroke="transparent" points="60,-252.5 60,-287.5 303,-287.5 303,-252.5 60,-252.5"/>
<polygon fill="none" stroke="#000000" points="60,-252.5 60,-287.5 303,-287.5 303,-252.5 60,-252.5"/>
<text text-anchor="start" x="105.8677" y="-265.3" font-family="Arial Bold" font-size="18.00" fill="#000000">games</text>
<text text-anchor="start" x="159.8785" y="-265.3" font-family="Arial" font-size="14.00" fill="#000000"> </text>
<text text-anchor="start" x="163.7691" y="-265.3" font-family="Arial" font-size="14.00" fill="#666666">[BASE TABLE]</text>
<polygon fill="none" stroke="#000000" points="60,-222.5 60,-252.5 303,-252.5 303,-222.5 60,-222.5"/>
<text text-anchor="start" x="67" y="-233.9" font-family="Arial" font-size="14.00" fill="#000000">id </text>
<text text-anchor="start" x="81.7798" y="-233.9" font-family="Arial" font-size="14.00" fill="#666666">[varchar(36)]</text>
<polygon fill="none" stroke="#000000" points="60,-192.5 60,-222.5 303,-222.5 303,-192.5 60,-192.5"/>
<text text-anchor="start" x="67" y="-203.9" font-family="Arial" font-size="14.00" fill="#000000">name </text>
<text text-anchor="start" x="105.899" y="-203.9" font-family="Arial" font-size="14.00" fill="#666666">[varchar(256)]</text>
<polygon fill="none" stroke="#000000" points="60,-162.5 60,-192.5 303,-192.5 303,-162.5 60,-162.5"/>
<text text-anchor="start" x="67" y="-173.9" font-family="Arial" font-size="14.00" fill="#000000">description </text>
<text text-anchor="start" x="138.568" y="-173.9" font-family="Arial" font-size="14.00" fill="#666666">[text]</text>
<polygon fill="none" stroke="#000000" points="60,-132.5 60,-162.5 303,-162.5 303,-132.5 60,-132.5"/>
<text text-anchor="start" x="67" y="-143.9" font-family="Arial" font-size="14.00" fill="#000000">created_at </text>
<text text-anchor="start" x="137.028" y="-143.9" font-family="Arial" font-size="14.00" fill="#666666">[datetime]</text>
<polygon fill="none" stroke="#000000" points="60,-102.5 60,-132.5 303,-132.5 303,-102.5 60,-102.5"/>
<text text-anchor="start" x="67" y="-113.9" font-family="Arial" font-size="14.00" fill="#000000">deleted_at </text>
<text text-anchor="start" x="136.2566" y="-113.9" font-family="Arial" font-size="14.00" fill="#666666">[datetime]</text>
<polygon fill="none" stroke="#000000" points="60,-72.5 60,-102.5 303,-102.5 303,-72.5 60,-72.5"/>
<text text-anchor="start" x="67" y="-83.9" font-family="Arial" font-size="14.00" fill="#000000">visibility_type_id </text>
<text text-anchor="start" x="172.007" y="-83.9" font-family="Arial" font-size="14.00" fill="#666666">[tinyint(4)]</text>
<polygon fill="none" stroke="#000000" points="60,-42.5 60,-72.5 303,-72.5 303,-42.5 60,-42.5"/>
<text text-anchor="start" x="66.7371" y="-53.9" font-family="Arial" font-size="14.00" fill="#000000">latest_version_updated_at </text>
<text text-anchor="start" x="234.8029" y="-53.9" font-family="Arial" font-size="14.00" fill="#666666">[datetime]</text>
</g>
<!-- game_videos&#45;&gt;games -->
<g id="edge1" class="edge">
<title>game_videos:game_id&#45;&gt;games:id</title>
<path fill="none" stroke="#000000" d="M240.8932,-486.4507C201.4614,-477.3524 227.8922,-411.1029 251,-367 264.0456,-342.1015 289.9544,-355.8985 303,-331 322.2862,-294.1909 344.5556,-237.5 303,-237.5"/>
<polygon fill="#000000" stroke="#000000" points="241.0535,-486.4672 250.5353,-491.9759 246.0267,-486.9836 251,-487.5 251,-487.5 251,-487.5 246.0267,-486.9836 251.4647,-483.0241 241.0535,-486.4672 241.0535,-486.4672"/>
<text text-anchor="start" x="7.386" y="-497.5" font-family="Arial" font-size="10.00" fill="#000000">FOREIGN KEY (game_id) REFERENCES games (id)</text>
</g>
<!-- game_video_types -->
<g id="node3" class="node">
<title>game_video_types</title>
<polygon fill="#efefef" stroke="transparent" points="407,-192.5 407,-227.5 669,-227.5 669,-192.5 407,-192.5"/>
<polygon fill="none" stroke="#000000" points="407,-192.5 407,-227.5 669,-227.5 669,-192.5 407,-192.5"/>
<text text-anchor="start" x="413.8478" y="-205.3" font-family="Arial Bold" font-size="18.00" fill="#000000">game_video_types</text>
<text text-anchor="start" x="564.8984" y="-205.3" font-family="Arial" font-size="14.00" fill="#000000"> </text>
<text text-anchor="start" x="568.789" y="-205.3" font-family="Arial" font-size="14.00" fill="#666666">[BASE TABLE]</text>
<polygon fill="none" stroke="#000000" points="407,-162.5 407,-192.5 669,-192.5 669,-162.5 407,-162.5"/>
<text text-anchor="start" x="414" y="-173.9" font-family="Arial" font-size="14.00" fill="#000000">id </text>
<text text-anchor="start" x="428.7798" y="-173.9" font-family="Arial" font-size="14.00" fill="#666666">[tinyint(4)]</text>
<polygon fill="none" stroke="#000000" points="407,-132.5 407,-162.5 669,-162.5 669,-132.5 407,-132.5"/>
<text text-anchor="start" x="414" y="-143.9" font-family="Arial" font-size="14.00" fill="#000000">name </text>
<text text-anchor="start" x="452.899" y="-143.9" font-family="Arial" font-size="14.00" fill="#666666">[varchar(32)]</text>
<polygon fill="none" stroke="#000000" points="407,-102.5 407,-132.5 669,-132.5 669,-102.5 407,-102.5"/>
<text text-anchor="start" x="414" y="-113.9" font-family="Arial" font-size="14.00" fill="#000000">active </text>
<text text-anchor="start" x="454.453" y="-113.9" font-family="Arial" font-size="14.00" fill="#666666">[tinyint(1)]</text>
</g>
<!-- game_videos&#45;&gt;game_video_types -->
<g id="edge2" class="edge">
<title>game_videos:video_type_id&#45;&gt;game_video_types:id</title>
<path fill="none" stroke="#000000" d="M479.2085,-455.9617C503.5429,-447.0914 479.2199,-401.6619 469,-367 454.6358,-318.2822 421.3642,-319.7178 407,-271 395.2478,-231.1409 365.4444,-177.5 407,-177.5"/>
<polygon fill="#000000" stroke="#000000" points="478.8884,-456.0099 468.3294,-453.0502 473.9442,-456.7549 469,-457.5 469,-457.5 469,-457.5 473.9442,-456.7549 469.6706,-461.9498 478.8884,-456.0099 478.8884,-456.0099"/>
<text text-anchor="start" x="475.7575" y="-467.5" font-family="Arial" font-size="10.00" fill="#000000">FOREIGN KEY (video_type_id) REFERENCES game_video_types (id)</text>
</g>
</g>
</svg>
