<?xml version="1.0" encoding="UTF-8" standalone="no"?>
<!DOCTYPE svg PUBLIC "-//W3C//DTD SVG 1.1//EN"
 "http://www.w3.org/Graphics/SVG/1.1/DTD/svg11.dtd">
<!-- Generated by graphviz version 12.1.2 (20240928.0832)
 -->
<!-- Title: game_images Pages: 1 -->
<svg width="834pt" height="633pt"
 viewBox="0.00 0.00 833.96 632.80" xmlns="http://www.w3.org/2000/svg" xmlns:xlink="http://www.w3.org/1999/xlink">
<g id="graph0" class="graph" transform="scale(1 1) rotate(0) translate(4 628.8)">
<title>game_images</title>
<polygon fill="white" stroke="none" points="-4,4 -4,-628.8 829.96,-628.8 829.96,4 -4,4"/>
<!-- game_images -->
<g id="node1" class="node">
<title>game_images</title>
<polygon fill="#efefef" stroke="none" points="252.28,-543 252.28,-578.6 489.73,-578.6 489.73,-543 252.28,-543"/>
<polygon fill="none" stroke="black" points="252.28,-543 252.28,-578.6 489.73,-578.6 489.73,-543 252.28,-543"/>
<text text-anchor="start" x="259.28" y="-556.4" font-family="Arial Bold" font-size="18.00">game_images</text>
<text text-anchor="start" x="358.25" y="-556.4" font-family="Arial" font-size="14.00">    </text>
<text text-anchor="start" x="389.36" y="-556.4" font-family="Arial" font-size="14.00" fill="#666666">[BASE TABLE]</text>
<polygon fill="none" stroke="black" points="252.28,-512.2 252.28,-543 489.73,-543 489.73,-512.2 252.28,-512.2"/>
<text text-anchor="start" x="259.28" y="-524.4" font-family="Arial" font-size="14.00">id </text>
<text text-anchor="start" x="274.07" y="-524.4" font-family="Arial" font-size="14.00" fill="#666666">[varchar(36)]</text>
<polygon fill="none" stroke="black" points="252.28,-481.4 252.28,-512.2 489.73,-512.2 489.73,-481.4 252.28,-481.4"/>
<text text-anchor="start" x="259.28" y="-493.6" font-family="Arial" font-size="14.00">game_id </text>
<text text-anchor="start" x="316.87" y="-493.6" font-family="Arial" font-size="14.00" fill="#666666">[varchar(36)]</text>
<polygon fill="none" stroke="black" points="252.28,-450.6 252.28,-481.4 489.73,-481.4 489.73,-450.6 252.28,-450.6"/>
<text text-anchor="start" x="259.28" y="-462.8" font-family="Arial" font-size="14.00">image_type_id </text>
<text text-anchor="start" x="354.23" y="-462.8" font-family="Arial" font-size="14.00" fill="#666666">[tinyint(4)]</text>
<polygon fill="none" stroke="black" points="252.28,-419.8 252.28,-450.6 489.73,-450.6 489.73,-419.8 252.28,-419.8"/>
<text text-anchor="start" x="259.28" y="-432" font-family="Arial" font-size="14.00">created_at </text>
<text text-anchor="start" x="329.33" y="-432" font-family="Arial" font-size="14.00" fill="#666666">[datetime]</text>
<polygon fill="none" stroke="black" stroke-width="3" points="250.78,-418.3 250.78,-580.1 491.23,-580.1 491.23,-418.3 250.78,-418.3"/>
</g>
<!-- games -->
<g id="node2" class="node">
<title>games</title>
<polygon fill="#efefef" stroke="none" points="67.21,-258.8 67.21,-294.4 310.81,-294.4 310.81,-258.8 67.21,-258.8"/>
<polygon fill="none" stroke="black" points="67.21,-258.8 67.21,-294.4 310.81,-294.4 310.81,-258.8 67.21,-258.8"/>
<text text-anchor="start" x="103.77" y="-272.2" font-family="Arial Bold" font-size="18.00">games</text>
<text text-anchor="start" x="149.75" y="-272.2" font-family="Arial" font-size="14.00">    </text>
<text text-anchor="start" x="180.87" y="-272.2" font-family="Arial" font-size="14.00" fill="#666666">[BASE TABLE]</text>
<polygon fill="none" stroke="black" points="67.21,-228 67.21,-258.8 310.81,-258.8 310.81,-228 67.21,-228"/>
<text text-anchor="start" x="74.21" y="-240.2" font-family="Arial" font-size="14.00">id </text>
<text text-anchor="start" x="88.99" y="-240.2" font-family="Arial" font-size="14.00" fill="#666666">[varchar(36)]</text>
<polygon fill="none" stroke="black" points="67.21,-197.2 67.21,-228 310.81,-228 310.81,-197.2 67.21,-197.2"/>
<text text-anchor="start" x="74.21" y="-209.4" font-family="Arial" font-size="14.00">name </text>
<text text-anchor="start" x="113.12" y="-209.4" font-family="Arial" font-size="14.00" fill="#666666">[varchar(256)]</text>
<polygon fill="none" stroke="black" points="67.21,-166.4 67.21,-197.2 310.81,-197.2 310.81,-166.4 67.21,-166.4"/>
<text text-anchor="start" x="74.21" y="-178.6" font-family="Arial" font-size="14.00">description </text>
<text text-anchor="start" x="145.8" y="-178.6" font-family="Arial" font-size="14.00" fill="#666666">[text]</text>
<polygon fill="none" stroke="black" points="67.21,-135.6 67.21,-166.4 310.81,-166.4 310.81,-135.6 67.21,-135.6"/>
<text text-anchor="start" x="74.21" y="-147.8" font-family="Arial" font-size="14.00">created_at </text>
<text text-anchor="start" x="144.26" y="-147.8" font-family="Arial" font-size="14.00" fill="#666666">[datetime]</text>
<polygon fill="none" stroke="black" points="67.21,-104.8 67.21,-135.6 310.81,-135.6 310.81,-104.8 67.21,-104.8"/>
<text text-anchor="start" x="74.21" y="-117" font-family="Arial" font-size="14.00">deleted_at </text>
<text text-anchor="start" x="143.49" y="-117" font-family="Arial" font-size="14.00" fill="#666666">[datetime]</text>
<polygon fill="none" stroke="black" points="67.21,-74 67.21,-104.8 310.81,-104.8 310.81,-74 67.21,-74"/>
<text text-anchor="start" x="74.21" y="-86.2" font-family="Arial" font-size="14.00">visibility_type_id </text>
<text text-anchor="start" x="179.26" y="-86.2" font-family="Arial" font-size="14.00" fill="#666666">[tinyint(4)]</text>
<polygon fill="none" stroke="black" points="67.21,-43.2 67.21,-74 310.81,-74 310.81,-43.2 67.21,-43.2"/>
<text text-anchor="start" x="74.21" y="-55.4" font-family="Arial" font-size="14.00">latest_version_updated_at </text>
<text text-anchor="start" x="242.33" y="-55.4" font-family="Arial" font-size="14.00" fill="#666666">[datetime]</text>
</g>
<!-- game_images&#45;&gt;games -->
<g id="edge1" class="edge">
<title>game_images:game_id&#45;&gt;games:id</title>
<path fill="none" stroke="black" d="M240.94,-495.72C200.57,-486.32 227.26,-417.94 252.28,-373.6 267.29,-347 295.77,-364.18 310.81,-337.6 331.43,-301.16 353.68,-243.4 311.81,-243.4"/>
<polygon fill="black" stroke="black" points="241,-495.72 250.48,-501.24 246.31,-496.28 250.61,-496.73 250.61,-496.73 250.61,-496.73 246.31,-496.28 251.42,-492.29 241,-495.72"/>
<text text-anchor="start" x="7" y="-506.8" font-family="Arial" font-size="10.00">FOREIGN KEY (game_id) REFERENCES games (id)</text>
</g>
<!-- game_image_types -->
<g id="node3" class="node">
<title>game_image_types</title>
<polygon fill="#efefef" stroke="none" points="415.29,-197.2 415.29,-232.8 692.73,-232.8 692.73,-197.2 415.29,-197.2"/>
<polygon fill="none" stroke="black" points="415.29,-197.2 415.29,-232.8 692.73,-232.8 692.73,-197.2 415.29,-197.2"/>
<text text-anchor="start" x="422.29" y="-210.6" font-family="Arial Bold" font-size="18.00">game_image_types</text>
<text text-anchor="start" x="561.24" y="-210.6" font-family="Arial" font-size="14.00">    </text>
<text text-anchor="start" x="592.36" y="-210.6" font-family="Arial" font-size="14.00" fill="#666666">[BASE TABLE]</text>
<polygon fill="none" stroke="black" points="415.29,-166.4 415.29,-197.2 692.73,-197.2 692.73,-166.4 415.29,-166.4"/>
<text text-anchor="start" x="422.29" y="-178.6" font-family="Arial" font-size="14.00">id </text>
<text text-anchor="start" x="437.07" y="-178.6" font-family="Arial" font-size="14.00" fill="#666666">[tinyint(4)]</text>
<polygon fill="none" stroke="black" points="415.29,-135.6 415.29,-166.4 692.73,-166.4 692.73,-135.6 415.29,-135.6"/>
<text text-anchor="start" x="422.29" y="-147.8" font-family="Arial" font-size="14.00">name </text>
<text text-anchor="start" x="461.2" y="-147.8" font-family="Arial" font-size="14.00" fill="#666666">[varchar(32)]</text>
<polygon fill="none" stroke="black" points="415.29,-104.8 415.29,-135.6 692.73,-135.6 692.73,-104.8 415.29,-104.8"/>
<text text-anchor="start" x="422.29" y="-117" font-family="Arial" font-size="14.00">active </text>
<text text-anchor="start" x="462.75" y="-117" font-family="Arial" font-size="14.00" fill="#666666">[tinyint(1)]</text>
</g>
<!-- game_images&#45;&gt;game_image_types -->
<g id="edge2" class="edge">
<title>game_images:image_type_id&#45;&gt;game_image_types:id</title>
<path fill="none" stroke="black" d="M500.85,-464.53C526.34,-455.68 501.79,-408.64 489.73,-373.6 471.99,-322.01 433.02,-327.59 415.29,-276 401.67,-236.41 372.42,-181.8 414.29,-181.8"/>
<polygon fill="black" stroke="black" points="500.96,-464.51 490.42,-461.5 495.68,-465.28 491.4,-465.9 491.4,-465.9 491.4,-465.9 495.68,-465.28 491.71,-470.41 500.96,-464.51"/>
<text text-anchor="start" x="497.73" y="-476" font-family="Arial" font-size="10.00">FOREIGN KEY (image_type_id) REFERENCES game_image_types (id)</text>
</g>
</g>
</svg>
