<?xml version="1.0" encoding="UTF-8" standalone="no"?>
<!DOCTYPE svg PUBLIC "-//W3C//DTD SVG 1.1//EN"
 "http://www.w3.org/Graphics/SVG/1.1/DTD/svg11.dtd">
<!-- Generated by graphviz version 2.40.1 (20161225.0304)
 -->
<!-- Title: game_feedback_answers Pages: 1 -->
<svg width="958pt" height="622pt"
 viewBox="0.00 0.00 958.00 622.00" xmlns="http://www.w3.org/2000/svg" xmlns:xlink="http://www.w3.org/1999/xlink">
<g id="graph0" class="graph" transform="scale(1 1) rotate(0) translate(4 618)">
<title>game_feedback_answers</title>
<polygon fill="#ffffff" stroke="transparent" points="-4,4 -4,-618 954,-618 954,4 -4,4"/>
<!-- game_feedback_answers -->
<g id="node1" class="node">
<title>game_feedback_answers</title>
<polygon fill="#efefef" stroke="transparent" points="312,-532.5 312,-567.5 628,-567.5 628,-532.5 312,-532.5"/>
<polygon fill="none" stroke="#000000" points="312,-532.5 312,-567.5 628,-567.5 628,-532.5 312,-532.5"/>
<text text-anchor="start" x="318.8424" y="-545.3" font-family="Arial Bold" font-size="18.00" fill="#000000">game_feedback_answers</text>
<text text-anchor="start" x="523.9038" y="-545.3" font-family="Arial" font-size="14.00" fill="#000000"> </text>
<text text-anchor="start" x="527.7944" y="-545.3" font-family="Arial" font-size="14.00" fill="#666666">[BASE TABLE]</text>
<polygon fill="none" stroke="#000000" points="312,-502.5 312,-532.5 628,-532.5 628,-502.5 312,-502.5"/>
<text text-anchor="start" x="319" y="-513.9" font-family="Arial" font-size="14.00" fill="#000000">id </text>
<text text-anchor="start" x="333.7798" y="-513.9" font-family="Arial" font-size="14.00" fill="#666666">[varchar(36)]</text>
<polygon fill="none" stroke="#000000" points="312,-472.5 312,-502.5 628,-502.5 628,-472.5 312,-472.5"/>
<text text-anchor="start" x="319" y="-483.9" font-family="Arial" font-size="14.00" fill="#000000">feedback_id </text>
<text text-anchor="start" x="398.366" y="-483.9" font-family="Arial" font-size="14.00" fill="#666666">[varchar(36)]</text>
<polygon fill="none" stroke="#000000" points="312,-442.5 312,-472.5 628,-472.5 628,-442.5 312,-442.5"/>
<text text-anchor="start" x="319" y="-453.9" font-family="Arial" font-size="14.00" fill="#000000">question_id </text>
<text text-anchor="start" x="394.4726" y="-453.9" font-family="Arial" font-size="14.00" fill="#666666">[varchar(36)]</text>
<polygon fill="none" stroke="#000000" points="312,-412.5 312,-442.5 628,-442.5 628,-412.5 312,-412.5"/>
<text text-anchor="start" x="319" y="-423.9" font-family="Arial" font-size="14.00" fill="#000000">answer </text>
<text text-anchor="start" x="368.0056" y="-423.9" font-family="Arial" font-size="14.00" fill="#666666">[bigint(20)]</text>
<polygon fill="none" stroke="#000000" stroke-width="3" points="310.5,-411.5 310.5,-569.5 629.5,-569.5 629.5,-411.5 310.5,-411.5"/>
</g>
<!-- game_feedbacks -->
<g id="node2" class="node">
<title>game_feedbacks</title>
<polygon fill="#efefef" stroke="transparent" points="164,-207.5 164,-242.5 412,-242.5 412,-207.5 164,-207.5"/>
<polygon fill="none" stroke="#000000" points="164,-207.5 164,-242.5 412,-242.5 412,-207.5 164,-207.5"/>
<text text-anchor="start" x="170.848" y="-220.3" font-family="Arial Bold" font-size="18.00" fill="#000000">game_feedbacks</text>
<text text-anchor="start" x="307.8982" y="-220.3" font-family="Arial" font-size="14.00" fill="#000000"> </text>
<text text-anchor="start" x="311.7888" y="-220.3" font-family="Arial" font-size="14.00" fill="#666666">[BASE TABLE]</text>
<polygon fill="none" stroke="#000000" points="164,-177.5 164,-207.5 412,-207.5 412,-177.5 164,-177.5"/>
<text text-anchor="start" x="171" y="-188.9" font-family="Arial" font-size="14.00" fill="#000000">id </text>
<text text-anchor="start" x="185.7798" y="-188.9" font-family="Arial" font-size="14.00" fill="#666666">[varchar(36)]</text>
<polygon fill="none" stroke="#000000" points="164,-147.5 164,-177.5 412,-177.5 412,-147.5 164,-147.5"/>
<text text-anchor="start" x="171" y="-158.9" font-family="Arial" font-size="14.00" fill="#000000">game_version_id </text>
<text text-anchor="start" x="281.4684" y="-158.9" font-family="Arial" font-size="14.00" fill="#666666">[varchar(36)]</text>
<polygon fill="none" stroke="#000000" points="164,-117.5 164,-147.5 412,-147.5 412,-117.5 164,-117.5"/>
<text text-anchor="start" x="171" y="-128.9" font-family="Arial" font-size="14.00" fill="#000000">comment </text>
<text text-anchor="start" x="232.4502" y="-128.9" font-family="Arial" font-size="14.00" fill="#666666">[text]</text>
<polygon fill="none" stroke="#000000" points="164,-87.5 164,-117.5 412,-117.5 412,-87.5 164,-87.5"/>
<text text-anchor="start" x="171" y="-98.9" font-family="Arial" font-size="14.00" fill="#000000">created_at </text>
<text text-anchor="start" x="241.028" y="-98.9" font-family="Arial" font-size="14.00" fill="#666666">[datetime]</text>
</g>
<!-- game_feedback_answers&#45;&gt;game_feedbacks -->
<g id="edge1" class="edge">
<title>game_feedback_answers:feedback_id&#45;&gt;game_feedbacks:id</title>
<path fill="none" stroke="#000000" d="M301.918,-486.4631C262.697,-477.4703 290.5678,-411.9411 312,-367 336.6199,-315.3747 387.3801,-337.6253 412,-286 429.8877,-248.4914 453.5556,-192.5 412,-192.5"/>
<polygon fill="#000000" stroke="#000000" points="302.0525,-486.4769 311.5396,-491.9764 307.0262,-486.9884 312,-487.5 312,-487.5 312,-487.5 307.0262,-486.9884 312.4604,-483.0236 302.0525,-486.4769 302.0525,-486.4769"/>
<text text-anchor="start" x="6.5355" y="-497.5" font-family="Arial" font-size="10.00" fill="#000000">FOREIGN KEY (feedback_id) REFERENCES game_feedbacks (id)</text>
</g>
<!-- feedback_questions -->
<g id="node3" class="node">
<title>feedback_questions</title>
<polygon fill="#efefef" stroke="transparent" points="517,-252.5 517,-287.5 788,-287.5 788,-252.5 517,-252.5"/>
<polygon fill="none" stroke="#000000" points="517,-252.5 517,-287.5 788,-287.5 788,-252.5 517,-252.5"/>
<text text-anchor="start" x="523.8397" y="-265.3" font-family="Arial Bold" font-size="18.00" fill="#000000">feedback_questions</text>
<text text-anchor="start" x="683.9065" y="-265.3" font-family="Arial" font-size="14.00" fill="#000000"> </text>
<text text-anchor="start" x="687.7971" y="-265.3" font-family="Arial" font-size="14.00" fill="#666666">[BASE TABLE]</text>
<polygon fill="none" stroke="#000000" points="517,-222.5 517,-252.5 788,-252.5 788,-222.5 517,-222.5"/>
<text text-anchor="start" x="524" y="-233.9" font-family="Arial" font-size="14.00" fill="#000000">id </text>
<text text-anchor="start" x="538.7798" y="-233.9" font-family="Arial" font-size="14.00" fill="#666666">[varchar(36)]</text>
<polygon fill="none" stroke="#000000" points="517,-192.5 517,-222.5 788,-222.5 788,-192.5 517,-192.5"/>
<text text-anchor="start" x="524" y="-203.9" font-family="Arial" font-size="14.00" fill="#000000">game_id </text>
<text text-anchor="start" x="581.5708" y="-203.9" font-family="Arial" font-size="14.00" fill="#666666">[varchar(36)]</text>
<polygon fill="none" stroke="#000000" points="517,-162.5 517,-192.5 788,-192.5 788,-162.5 517,-162.5"/>
<text text-anchor="start" x="524" y="-173.9" font-family="Arial" font-size="14.00" fill="#000000">question_text </text>
<text text-anchor="start" x="611.1472" y="-173.9" font-family="Arial" font-size="14.00" fill="#666666">[varchar(256)]</text>
<polygon fill="none" stroke="#000000" points="517,-132.5 517,-162.5 788,-162.5 788,-132.5 517,-132.5"/>
<text text-anchor="start" x="524" y="-143.9" font-family="Arial" font-size="14.00" fill="#000000">answer_type </text>
<text text-anchor="start" x="607.244" y="-143.9" font-family="Arial" font-size="14.00" fill="#666666">[tinyint(4)]</text>
<polygon fill="none" stroke="#000000" points="517,-102.5 517,-132.5 788,-132.5 788,-102.5 517,-102.5"/>
<text text-anchor="start" x="524" y="-113.9" font-family="Arial" font-size="14.00" fill="#000000">question_order </text>
<text text-anchor="start" x="621.2524" y="-113.9" font-family="Arial" font-size="14.00" fill="#666666">[bigint(20)]</text>
<polygon fill="none" stroke="#000000" points="517,-72.5 517,-102.5 788,-102.5 788,-72.5 517,-72.5"/>
<text text-anchor="start" x="524" y="-83.9" font-family="Arial" font-size="14.00" fill="#000000">created_at </text>
<text text-anchor="start" x="594.028" y="-83.9" font-family="Arial" font-size="14.00" fill="#666666">[datetime]</text>
<polygon fill="none" stroke="#000000" points="517,-42.5 517,-72.5 788,-72.5 788,-42.5 517,-42.5"/>
<text text-anchor="start" x="524" y="-53.9" font-family="Arial" font-size="14.00" fill="#000000">archived_at </text>
<text text-anchor="start" x="600.244" y="-53.9" font-family="Arial" font-size="14.00" fill="#666666">[datetime]</text>
</g>
<!-- game_feedback_answers&#45;&gt;feedback_questions -->
<g id="edge2" class="edge">
<title>game_feedback_answers:question_id&#45;&gt;feedback_questions:id</title>
<path fill="none" stroke="#000000" d="M638.2053,-455.9193C664.9181,-446.4211 649.3411,-396.3569 628,-367 597.5044,-325.0501 547.4956,-372.9499 517,-331 492.5652,-297.3874 475.4444,-237.5 517,-237.5"/>
<polygon fill="#000000" stroke="#000000" points="637.8822,-455.9692 627.3111,-453.053 632.9411,-456.7346 628,-457.5 628,-457.5 628,-457.5 632.9411,-456.7346 628.6889,-461.947 637.8822,-455.9692 637.8822,-455.9692"/>
<text text-anchor="start" x="634.5325" y="-467.5" font-family="Arial" font-size="10.00" fill="#000000">FOREIGN KEY (question_id) REFERENCES feedback_questions (id)</text>
</g>
</g>
</svg>
