<?xml version="1.0" encoding="UTF-8" standalone="no"?>
<!DOCTYPE svg PUBLIC "-//W3C//DTD SVG 1.1//EN"
 "http://www.w3.org/Graphics/SVG/1.1/DTD/svg11.dtd">
<!-- Generated by graphviz version 12.1.2 (20240928.0832)
 -->
<!-- Title: game_feedback_answers Pages: 1 -->
<svg width="964pt" height="633pt"
 viewBox="0.00 0.00 964.41 632.80" xmlns="http://www.w3.org/2000/svg" xmlns:xlink="http://www.w3.org/1999/xlink">
<g id="graph0" class="graph" transform="scale(1 1) rotate(0) translate(4 628.8)">
<title>game_feedback_answers</title>
<polygon fill="white" stroke="none" points="-4,4 -4,-628.8 960.41,-628.8 960.41,4 -4,4"/>
<!-- game_feedback_answers -->
<g id="node1" class="node">
<title>game_feedback_answers</title>
<polygon fill="#efefef" stroke="none" points="314,-543 314,-578.6 632.4,-578.6 632.4,-543 314,-543"/>
<polygon fill="none" stroke="black" points="314,-543 314,-578.6 632.4,-578.6 632.4,-543 314,-543"/>
<text text-anchor="start" x="321" y="-556.4" font-family="Arial Bold" font-size="18.00">game_feedback_answers</text>
<text text-anchor="start" x="500.91" y="-556.4" font-family="Arial" font-size="14.00">    </text>
<text text-anchor="start" x="532.03" y="-556.4" font-family="Arial" font-size="14.00" fill="#666666">[BASE TABLE]</text>
<polygon fill="none" stroke="black" points="314,-512.2 314,-543 632.4,-543 632.4,-512.2 314,-512.2"/>
<text text-anchor="start" x="321" y="-524.4" font-family="Arial" font-size="14.00">id </text>
<text text-anchor="start" x="335.79" y="-524.4" font-family="Arial" font-size="14.00" fill="#666666">[varchar(36)]</text>
<polygon fill="none" stroke="black" points="314,-481.4 314,-512.2 632.4,-512.2 632.4,-481.4 314,-481.4"/>
<text text-anchor="start" x="321" y="-493.6" font-family="Arial" font-size="14.00">feedback_id </text>
<text text-anchor="start" x="400.39" y="-493.6" font-family="Arial" font-size="14.00" fill="#666666">[varchar(36)]</text>
<polygon fill="none" stroke="black" points="314,-450.6 314,-481.4 632.4,-481.4 632.4,-450.6 314,-450.6"/>
<text text-anchor="start" x="321" y="-462.8" font-family="Arial" font-size="14.00">question_id </text>
<text text-anchor="start" x="396.5" y="-462.8" font-family="Arial" font-size="14.00" fill="#666666">[varchar(36)]</text>
<polygon fill="none" stroke="black" points="314,-419.8 314,-450.6 632.4,-450.6 632.4,-419.8 314,-419.8"/>
<text text-anchor="start" x="321" y="-432" font-family="Arial" font-size="14.00">answer </text>
<text text-anchor="start" x="370.02" y="-432" font-family="Arial" font-size="14.00" fill="#666666">[bigint(20)]</text>
<polygon fill="none" stroke="black" stroke-width="3" points="312.5,-418.3 312.5,-580.1 633.9,-580.1 633.9,-418.3 312.5,-418.3"/>
</g>
<!-- game_feedbacks -->
<g id="node2" class="node">
<title>game_feedbacks</title>
<polygon fill="#efefef" stroke="none" points="156.99,-212.6 156.99,-248.2 415.41,-248.2 415.41,-212.6 156.99,-212.6"/>
<polygon fill="none" stroke="black" points="156.99,-212.6 156.99,-248.2 415.41,-248.2 415.41,-212.6 156.99,-212.6"/>
<text text-anchor="start" x="163.99" y="-226" font-family="Arial Bold" font-size="18.00">game_feedbacks</text>
<text text-anchor="start" x="283.92" y="-226" font-family="Arial" font-size="14.00">    </text>
<text text-anchor="start" x="315.04" y="-226" font-family="Arial" font-size="14.00" fill="#666666">[BASE TABLE]</text>
<polygon fill="none" stroke="black" points="156.99,-181.8 156.99,-212.6 415.41,-212.6 415.41,-181.8 156.99,-181.8"/>
<text text-anchor="start" x="163.99" y="-194" font-family="Arial" font-size="14.00">id </text>
<text text-anchor="start" x="178.77" y="-194" font-family="Arial" font-size="14.00" fill="#666666">[varchar(36)]</text>
<polygon fill="none" stroke="black" points="156.99,-151 156.99,-181.8 415.41,-181.8 415.41,-151 156.99,-151"/>
<text text-anchor="start" x="163.99" y="-163.2" font-family="Arial" font-size="14.00">game_version_id </text>
<text text-anchor="start" x="274.5" y="-163.2" font-family="Arial" font-size="14.00" fill="#666666">[varchar(36)]</text>
<polygon fill="none" stroke="black" points="156.99,-120.2 156.99,-151 415.41,-151 415.41,-120.2 156.99,-120.2"/>
<text text-anchor="start" x="163.99" y="-132.4" font-family="Arial" font-size="14.00">comment </text>
<text text-anchor="start" x="225.45" y="-132.4" font-family="Arial" font-size="14.00" fill="#666666">[text]</text>
<polygon fill="none" stroke="black" points="156.99,-89.4 156.99,-120.2 415.41,-120.2 415.41,-89.4 156.99,-89.4"/>
<text text-anchor="start" x="163.99" y="-101.6" font-family="Arial" font-size="14.00">created_at </text>
<text text-anchor="start" x="234.04" y="-101.6" font-family="Arial" font-size="14.00" fill="#666666">[datetime]</text>
</g>
<!-- game_feedback_answers&#45;&gt;game_feedbacks -->
<g id="edge1" class="edge">
<title>game_feedback_answers:feedback_id&#45;&gt;game_feedbacks:id</title>
<path fill="none" stroke="black" d="M302.7,-495.74C262.7,-486.53 291.91,-419.46 314,-373.6 339.18,-321.33 390.17,-343.64 415.41,-291.4 433.63,-253.7 458.28,-197.2 416.41,-197.2"/>
<polygon fill="black" stroke="black" points="302.72,-495.74 312.2,-501.24 308.03,-496.29 312.33,-496.73 312.33,-496.73 312.33,-496.73 308.03,-496.29 313.13,-492.29 302.72,-495.74"/>
<text text-anchor="start" x="7" y="-506.8" font-family="Arial" font-size="10.00">FOREIGN KEY (feedback_id) REFERENCES game_feedbacks (id)</text>
</g>
<!-- feedback_questions -->
<g id="node3" class="node">
<title>feedback_questions</title>
<polygon fill="#efefef" stroke="none" points="519.98,-258.8 519.98,-294.4 800.42,-294.4 800.42,-258.8 519.98,-258.8"/>
<polygon fill="none" stroke="black" points="519.98,-258.8 519.98,-294.4 800.42,-294.4 800.42,-258.8 519.98,-258.8"/>
<text text-anchor="start" x="526.98" y="-272.2" font-family="Arial Bold" font-size="18.00">feedback_questions</text>
<text text-anchor="start" x="668.93" y="-272.2" font-family="Arial" font-size="14.00">    </text>
<text text-anchor="start" x="700.05" y="-272.2" font-family="Arial" font-size="14.00" fill="#666666">[BASE TABLE]</text>
<polygon fill="none" stroke="black" points="519.98,-228 519.98,-258.8 800.42,-258.8 800.42,-228 519.98,-228"/>
<text text-anchor="start" x="526.98" y="-240.2" font-family="Arial" font-size="14.00">id </text>
<text text-anchor="start" x="541.77" y="-240.2" font-family="Arial" font-size="14.00" fill="#666666">[varchar(36)]</text>
<polygon fill="none" stroke="black" points="519.98,-197.2 519.98,-228 800.42,-228 800.42,-197.2 519.98,-197.2"/>
<text text-anchor="start" x="526.98" y="-209.4" font-family="Arial" font-size="14.00">game_id </text>
<text text-anchor="start" x="584.57" y="-209.4" font-family="Arial" font-size="14.00" fill="#666666">[varchar(36)]</text>
<polygon fill="none" stroke="black" points="519.98,-166.4 519.98,-197.2 800.42,-197.2 800.42,-166.4 519.98,-166.4"/>
<text text-anchor="start" x="526.98" y="-178.6" font-family="Arial" font-size="14.00">question_text </text>
<text text-anchor="start" x="614.15" y="-178.6" font-family="Arial" font-size="14.00" fill="#666666">[varchar(256)]</text>
<polygon fill="none" stroke="black" points="519.98,-135.6 519.98,-166.4 800.42,-166.4 800.42,-135.6 519.98,-135.6"/>
<text text-anchor="start" x="526.98" y="-147.8" font-family="Arial" font-size="14.00">answer_type </text>
<text text-anchor="start" x="610.25" y="-147.8" font-family="Arial" font-size="14.00" fill="#666666">[tinyint(4)]</text>
<polygon fill="none" stroke="black" points="519.98,-104.8 519.98,-135.6 800.42,-135.6 800.42,-104.8 519.98,-104.8"/>
<text text-anchor="start" x="526.98" y="-117" font-family="Arial" font-size="14.00">question_order </text>
<text text-anchor="start" x="624.27" y="-117" font-family="Arial" font-size="14.00" fill="#666666">[bigint(20)]</text>
<polygon fill="none" stroke="black" points="519.98,-74 519.98,-104.8 800.42,-104.8 800.42,-74 519.98,-74"/>
<text text-anchor="start" x="526.98" y="-86.2" font-family="Arial" font-size="14.00">created_at </text>
<text text-anchor="start" x="597.03" y="-86.2" font-family="Arial" font-size="14.00" fill="#666666">[datetime]</text>
<polygon fill="none" stroke="black" points="519.98,-43.2 519.98,-74 800.42,-74 800.42,-43.2 519.98,-43.2"/>
<text text-anchor="start" x="526.98" y="-55.4" font-family="Arial" font-size="14.00">archived_at </text>
<text text-anchor="start" x="603.25" y="-55.4" font-family="Arial" font-size="14.00" fill="#666666">[datetime]</text>
</g>
<!-- game_feedback_answers&#45;&gt;feedback_questions -->
<g id="edge2" class="edge">
<title>game_feedback_answers:question_id&#45;&gt;feedback_questions:id</title>
<path fill="none" stroke="black" d="M643.44,-464.51C671.1,-455.1 654.5,-403.54 632.4,-373.6 601.24,-331.39 551.13,-379.81 519.98,-337.6 495.12,-303.91 477.11,-243.4 518.98,-243.4"/>
<polygon fill="black" stroke="black" points="643.62,-464.48 633.07,-461.5 638.35,-465.26 634.06,-465.9 634.06,-465.9 634.06,-465.9 638.35,-465.26 634.39,-470.4 643.62,-464.48"/>
<text text-anchor="start" x="640.4" y="-476" font-family="Arial" font-size="10.00">FOREIGN KEY (question_id) REFERENCES feedback_questions (id)</text>
</g>
</g>
</svg>
