<?xml version="1.0" encoding="UTF-8" standalone="no"?>
<!DOCTYPE svg PUBLIC "-//W3C//DTD SVG 1.1//EN"
 "http://www.w3.org/Graphics/SVG/1.1/DTD/svg11.dtd">
<!-- Generated by graphviz version 12.1.2 (20240928.0832)
 -->
<!-- Title: game_creator_custom_job_relations Pages: 1 -->
<svg width="1106pt" height="510pt"
 viewBox="0.00 0.00 1105.84 509.60" xmlns="http://www.w3.org/2000/svg" xmlns:xlink="http://www.w3.org/1999/xlink">
<g id="graph0" class="graph" transform="scale(1 1) rotate(0) translate(4 505.6)">
<title>game_creator_custom_job_relations</title>
<polygon fill="white" stroke="none" points="-4,4 -4,-505.6 1101.84,-505.6 1101.84,4 -4,4"/>
<!-- game_creator_custom_job_relations -->
<g id="node1" class="node">
<title>game_creator_custom_job_relations</title>
<polygon fill="#efefef" stroke="none" points="325.65,-419.8 325.65,-455.4 726.05,-455.4 726.05,-419.8 325.65,-419.8"/>
<polygon fill="none" stroke="black" points="325.65,-419.8 325.65,-455.4 726.05,-455.4 726.05,-419.8 325.65,-419.8"/>
<text text-anchor="start" x="332.65" y="-433.2" font-family="Arial Bold" font-size="18.00">game_creator_custom_job_relations</text>
<text text-anchor="start" x="594.56" y="-433.2" font-family="Arial" font-size="14.00">    </text>
<text text-anchor="start" x="625.68" y="-433.2" font-family="Arial" font-size="14.00" fill="#666666">[BASE TABLE]</text>
<polygon fill="none" stroke="black" points="325.65,-389 325.65,-419.8 726.05,-419.8 726.05,-389 325.65,-389"/>
<text text-anchor="start" x="332.65" y="-401.2" font-family="Arial" font-size="14.00">game_creator_id </text>
<text text-anchor="start" x="441.6" y="-401.2" font-family="Arial" font-size="14.00" fill="#666666">[varchar(36)]</text>
<polygon fill="none" stroke="black" points="325.65,-358.2 325.65,-389 726.05,-389 726.05,-358.2 325.65,-358.2"/>
<text text-anchor="start" x="332.65" y="-370.4" font-family="Arial" font-size="14.00">custom_job_id </text>
<text text-anchor="start" x="426.81" y="-370.4" font-family="Arial" font-size="14.00" fill="#666666">[varchar(36)]</text>
<polygon fill="none" stroke="black" stroke-width="3" points="324.15,-356.7 324.15,-456.9 727.55,-456.9 727.55,-356.7 324.15,-356.7"/>
</g>
<!-- game_creators -->
<g id="node2" class="node">
<title>game_creators</title>
<polygon fill="#efefef" stroke="none" points="207.14,-197.2 207.14,-232.8 450.57,-232.8 450.57,-197.2 207.14,-197.2"/>
<polygon fill="none" stroke="black" points="207.14,-197.2 207.14,-232.8 450.57,-232.8 450.57,-197.2 207.14,-197.2"/>
<text text-anchor="start" x="214.14" y="-210.6" font-family="Arial Bold" font-size="18.00">game_creators</text>
<text text-anchor="start" x="319.08" y="-210.6" font-family="Arial" font-size="14.00">    </text>
<text text-anchor="start" x="350.19" y="-210.6" font-family="Arial" font-size="14.00" fill="#666666">[BASE TABLE]</text>
<polygon fill="none" stroke="black" points="207.14,-166.4 207.14,-197.2 450.57,-197.2 450.57,-166.4 207.14,-166.4"/>
<text text-anchor="start" x="214.14" y="-178.6" font-family="Arial" font-size="14.00">id </text>
<text text-anchor="start" x="228.92" y="-178.6" font-family="Arial" font-size="14.00" fill="#666666">[varchar(36)]</text>
<polygon fill="none" stroke="black" points="207.14,-135.6 207.14,-166.4 450.57,-166.4 450.57,-135.6 207.14,-135.6"/>
<text text-anchor="start" x="214.14" y="-147.8" font-family="Arial" font-size="14.00">game_id </text>
<text text-anchor="start" x="271.73" y="-147.8" font-family="Arial" font-size="14.00" fill="#666666">[varchar(36)]</text>
<polygon fill="none" stroke="black" points="207.14,-104.8 207.14,-135.6 450.57,-135.6 450.57,-104.8 207.14,-104.8"/>
<text text-anchor="start" x="214.14" y="-117" font-family="Arial" font-size="14.00">user_id </text>
<text text-anchor="start" x="263.94" y="-117" font-family="Arial" font-size="14.00" fill="#666666">[varchar(36)]</text>
<polygon fill="none" stroke="black" points="207.14,-74 207.14,-104.8 450.57,-104.8 450.57,-74 207.14,-74"/>
<text text-anchor="start" x="214.14" y="-86.2" font-family="Arial" font-size="14.00">user_name </text>
<text text-anchor="start" x="288.07" y="-86.2" font-family="Arial" font-size="14.00" fill="#666666">[varchar(32)]</text>
<polygon fill="none" stroke="black" points="207.14,-43.2 207.14,-74 450.57,-74 450.57,-43.2 207.14,-43.2"/>
<text text-anchor="start" x="214.14" y="-55.4" font-family="Arial" font-size="14.00">created_at </text>
<text text-anchor="start" x="284.18" y="-55.4" font-family="Arial" font-size="14.00" fill="#666666">[datetime]</text>
</g>
<!-- game_creator_custom_job_relations&#45;&gt;game_creators -->
<g id="edge1" class="edge">
<title>game_creator_custom_job_relations:game_creator_id&#45;&gt;game_creators:id</title>
<path fill="none" stroke="black" d="M314.59,-402.9C286.87,-393.44 303.11,-341.62 325.65,-312 360.64,-266.02 415.58,-321.98 450.57,-276 475.92,-242.68 493.44,-181.8 451.57,-181.8"/>
<polygon fill="black" stroke="black" points="314.43,-402.87 323.65,-408.8 319.7,-403.66 323.99,-404.3 323.99,-404.3 323.99,-404.3 319.7,-403.66 324.98,-399.9 314.43,-402.87"/>
<text text-anchor="start" x="7" y="-414.4" font-family="Arial" font-size="10.00">FOREIGN KEY (game_creator_id) REFERENCES game_creators (id)</text>
</g>
<!-- game_creator_custom_jobs -->
<g id="node3" class="node">
<title>game_creator_custom_jobs</title>
<polygon fill="#efefef" stroke="none" points="554.64,-181.8 554.64,-217.4 891.06,-217.4 891.06,-181.8 554.64,-181.8"/>
<polygon fill="none" stroke="black" points="554.64,-181.8 554.64,-217.4 891.06,-217.4 891.06,-181.8 554.64,-181.8"/>
<text text-anchor="start" x="561.64" y="-195.2" font-family="Arial Bold" font-size="18.00">game_creator_custom_jobs</text>
<text text-anchor="start" x="759.58" y="-195.2" font-family="Arial" font-size="14.00">    </text>
<text text-anchor="start" x="790.69" y="-195.2" font-family="Arial" font-size="14.00" fill="#666666">[BASE TABLE]</text>
<polygon fill="none" stroke="black" points="554.64,-151 554.64,-181.8 891.06,-181.8 891.06,-151 554.64,-151"/>
<text text-anchor="start" x="561.64" y="-163.2" font-family="Arial" font-size="14.00">id </text>
<text text-anchor="start" x="576.42" y="-163.2" font-family="Arial" font-size="14.00" fill="#666666">[varchar(36)]</text>
<polygon fill="none" stroke="black" points="554.64,-120.2 554.64,-151 891.06,-151 891.06,-120.2 554.64,-120.2"/>
<text text-anchor="start" x="561.64" y="-132.4" font-family="Arial" font-size="14.00">game_id </text>
<text text-anchor="start" x="619.23" y="-132.4" font-family="Arial" font-size="14.00" fill="#666666">[varchar(36)]</text>
<polygon fill="none" stroke="black" points="554.64,-89.4 554.64,-120.2 891.06,-120.2 891.06,-89.4 554.64,-89.4"/>
<text text-anchor="start" x="561.64" y="-101.6" font-family="Arial" font-size="14.00">display_name </text>
<text text-anchor="start" x="651.91" y="-101.6" font-family="Arial" font-size="14.00" fill="#666666">[varchar(64)]</text>
<polygon fill="none" stroke="black" points="554.64,-58.6 554.64,-89.4 891.06,-89.4 891.06,-58.6 554.64,-58.6"/>
<text text-anchor="start" x="561.64" y="-70.8" font-family="Arial" font-size="14.00">created_at </text>
<text text-anchor="start" x="631.69" y="-70.8" font-family="Arial" font-size="14.00" fill="#666666">[datetime]</text>
</g>
<!-- game_creator_custom_job_relations&#45;&gt;game_creator_custom_jobs -->
<g id="edge2" class="edge">
<title>game_creator_custom_job_relations:custom_job_id&#45;&gt;game_creator_custom_jobs:id</title>
<path fill="none" stroke="black" d="M736.77,-371.16C750.81,-362.19 740.12,-330.59 726.05,-312 678.05,-248.58 602.46,-324.16 554.64,-260.6 529.46,-227.14 511.77,-166.4 553.64,-166.4"/>
<polygon fill="black" stroke="black" points="737.08,-371.08 726.28,-369.15 731.9,-372.38 727.7,-373.44 727.7,-373.44 727.7,-373.44 731.9,-372.38 728.47,-377.88 737.08,-371.08"/>
<text text-anchor="start" x="734.05" y="-383.6" font-family="Arial" font-size="10.00">FOREIGN KEY (custom_job_id) REFERENCES game_creator_custom_jobs (id)</text>
</g>
</g>
</svg>
