<?xml version="1.0" encoding="UTF-8" standalone="no"?>
<!DOCTYPE svg PUBLIC "-//W3C//DTD SVG 1.1//EN"
 "http://www.w3.org/Graphics/SVG/1.1/DTD/svg11.dtd">
<!-- Generated by graphviz version 2.40.1 (20161225.0304)
 -->
<!-- Title: game_creator_custom_job_relations Pages: 1 -->
<svg width="1104pt" height="502pt"
 viewBox="0.00 0.00 1104.00 502.00" xmlns="http://www.w3.org/2000/svg" xmlns:xlink="http://www.w3.org/1999/xlink">
<g id="graph0" class="graph" transform="scale(1 1) rotate(0) translate(4 498)">
<title>game_creator_custom_job_relations</title>
<polygon fill="#ffffff" stroke="transparent" points="-4,4 -4,-498 1100,-498 1100,4 -4,4"/>
<!-- game_creator_custom_job_relations -->
<g id="node1" class="node">
<title>game_creator_custom_job_relations</title>
<polygon fill="#efefef" stroke="transparent" points="324,-412.5 324,-447.5 726,-447.5 726,-412.5 324,-412.5"/>
<polygon fill="none" stroke="#000000" points="324,-412.5 324,-447.5 726,-447.5 726,-412.5 324,-412.5"/>
<text text-anchor="start" x="330.8422" y="-425.3" font-family="Arial Bold" font-size="18.00" fill="#000000">game_creator_custom_job_relations</text>
<text text-anchor="start" x="621.904" y="-425.3" font-family="Arial" font-size="14.00" fill="#000000"> </text>
<text text-anchor="start" x="625.7946" y="-425.3" font-family="Arial" font-size="14.00" fill="#666666">[BASE TABLE]</text>
<polygon fill="none" stroke="#000000" points="324,-382.5 324,-412.5 726,-412.5 726,-382.5 324,-382.5"/>
<text text-anchor="start" x="331" y="-393.9" font-family="Arial" font-size="14.00" fill="#000000">game_creator_id </text>
<text text-anchor="start" x="439.913" y="-393.9" font-family="Arial" font-size="14.00" fill="#666666">[varchar(36)]</text>
<polygon fill="none" stroke="#000000" points="324,-352.5 324,-382.5 726,-382.5 726,-352.5 324,-352.5"/>
<text text-anchor="start" x="331" y="-363.9" font-family="Arial" font-size="14.00" fill="#000000">custom_job_id </text>
<text text-anchor="start" x="425.1332" y="-363.9" font-family="Arial" font-size="14.00" fill="#666666">[varchar(36)]</text>
<polygon fill="none" stroke="#000000" stroke-width="3" points="322.5,-351.5 322.5,-449.5 727.5,-449.5 727.5,-351.5 322.5,-351.5"/>
</g>
<!-- game_creators -->
<g id="node2" class="node">
<title>game_creators</title>
<polygon fill="#efefef" stroke="transparent" points="216,-192.5 216,-227.5 447,-227.5 447,-192.5 216,-192.5"/>
<polygon fill="none" stroke="#000000" points="216,-192.5 216,-227.5 447,-227.5 447,-192.5 216,-192.5"/>
<text text-anchor="start" x="222.862" y="-205.3" font-family="Arial Bold" font-size="18.00" fill="#000000">game_creators</text>
<text text-anchor="start" x="342.8842" y="-205.3" font-family="Arial" font-size="14.00" fill="#000000"> </text>
<text text-anchor="start" x="346.7748" y="-205.3" font-family="Arial" font-size="14.00" fill="#666666">[BASE TABLE]</text>
<polygon fill="none" stroke="#000000" points="216,-162.5 216,-192.5 447,-192.5 447,-162.5 216,-162.5"/>
<text text-anchor="start" x="223" y="-173.9" font-family="Arial" font-size="14.00" fill="#000000">id </text>
<text text-anchor="start" x="237.7798" y="-173.9" font-family="Arial" font-size="14.00" fill="#666666">[varchar(36)]</text>
<polygon fill="none" stroke="#000000" points="216,-132.5 216,-162.5 447,-162.5 447,-132.5 216,-132.5"/>
<text text-anchor="start" x="223" y="-143.9" font-family="Arial" font-size="14.00" fill="#000000">game_id </text>
<text text-anchor="start" x="280.5708" y="-143.9" font-family="Arial" font-size="14.00" fill="#666666">[varchar(36)]</text>
<polygon fill="none" stroke="#000000" points="216,-102.5 216,-132.5 447,-132.5 447,-102.5 216,-102.5"/>
<text text-anchor="start" x="223" y="-113.9" font-family="Arial" font-size="14.00" fill="#000000">user_id </text>
<text text-anchor="start" x="272.7882" y="-113.9" font-family="Arial" font-size="14.00" fill="#666666">[varchar(36)]</text>
<polygon fill="none" stroke="#000000" points="216,-72.5 216,-102.5 447,-102.5 447,-72.5 216,-72.5"/>
<text text-anchor="start" x="223" y="-83.9" font-family="Arial" font-size="14.00" fill="#000000">user_name </text>
<text text-anchor="start" x="296.9074" y="-83.9" font-family="Arial" font-size="14.00" fill="#666666">[varchar(32)]</text>
<polygon fill="none" stroke="#000000" points="216,-42.5 216,-72.5 447,-72.5 447,-42.5 216,-42.5"/>
<text text-anchor="start" x="223" y="-53.9" font-family="Arial" font-size="14.00" fill="#000000">created_at </text>
<text text-anchor="start" x="293.028" y="-53.9" font-family="Arial" font-size="14.00" fill="#666666">[datetime]</text>
</g>
<!-- game_creator_custom_job_relations&#45;&gt;game_creators -->
<g id="edge1" class="edge">
<title>game_creator_custom_job_relations:game_creator_id&#45;&gt;game_creators:id</title>
<path fill="none" stroke="#000000" d="M313.7827,-395.9103C286.9995,-386.3603 302.237,-336.0456 324,-307 358.1547,-261.416 412.8453,-316.584 447,-271 471.9178,-237.7439 488.5556,-177.5 447,-177.5"/>
<polygon fill="#000000" stroke="#000000" points="314.1189,-395.9626 323.3082,-401.9465 319.0594,-396.7313 324,-397.5 324,-397.5 324,-397.5 319.0594,-396.7313 324.6918,-393.0535 314.1189,-395.9626 314.1189,-395.9626"/>
<text text-anchor="start" x="6.713" y="-407.5" font-family="Arial" font-size="10.00" fill="#000000">FOREIGN KEY (game_creator_id) REFERENCES game_creators (id)</text>
</g>
<!-- game_creator_custom_jobs -->
<g id="node3" class="node">
<title>game_creator_custom_jobs</title>
<polygon fill="#efefef" stroke="transparent" points="551,-177.5 551,-212.5 884,-212.5 884,-177.5 551,-177.5"/>
<polygon fill="none" stroke="#000000" points="551,-177.5 551,-212.5 884,-212.5 884,-177.5 551,-177.5"/>
<text text-anchor="start" x="557.8491" y="-190.3" font-family="Arial Bold" font-size="18.00" fill="#000000">game_creator_custom_jobs</text>
<text text-anchor="start" x="779.8971" y="-190.3" font-family="Arial" font-size="14.00" fill="#000000"> </text>
<text text-anchor="start" x="783.7877" y="-190.3" font-family="Arial" font-size="14.00" fill="#666666">[BASE TABLE]</text>
<polygon fill="none" stroke="#000000" points="551,-147.5 551,-177.5 884,-177.5 884,-147.5 551,-147.5"/>
<text text-anchor="start" x="558" y="-158.9" font-family="Arial" font-size="14.00" fill="#000000">id </text>
<text text-anchor="start" x="572.7798" y="-158.9" font-family="Arial" font-size="14.00" fill="#666666">[varchar(36)]</text>
<polygon fill="none" stroke="#000000" points="551,-117.5 551,-147.5 884,-147.5 884,-117.5 551,-117.5"/>
<text text-anchor="start" x="558" y="-128.9" font-family="Arial" font-size="14.00" fill="#000000">game_id </text>
<text text-anchor="start" x="615.5708" y="-128.9" font-family="Arial" font-size="14.00" fill="#666666">[varchar(36)]</text>
<polygon fill="none" stroke="#000000" points="551,-87.5 551,-117.5 884,-117.5 884,-87.5 551,-87.5"/>
<text text-anchor="start" x="558" y="-98.9" font-family="Arial" font-size="14.00" fill="#000000">display_name </text>
<text text-anchor="start" x="648.2426" y="-98.9" font-family="Arial" font-size="14.00" fill="#666666">[varchar(64)]</text>
<polygon fill="none" stroke="#000000" points="551,-57.5 551,-87.5 884,-87.5 884,-57.5 551,-57.5"/>
<text text-anchor="start" x="558" y="-68.9" font-family="Arial" font-size="14.00" fill="#000000">created_at </text>
<text text-anchor="start" x="628.028" y="-68.9" font-family="Arial" font-size="14.00" fill="#666666">[datetime]</text>
</g>
<!-- game_creator_custom_job_relations&#45;&gt;game_creator_custom_jobs -->
<g id="edge2" class="edge">
<title>game_creator_custom_job_relations:custom_job_id&#45;&gt;game_creator_custom_jobs:id</title>
<path fill="none" stroke="#000000" d="M735.9702,-364.8597C749.3971,-355.7422 739.6145,-325.1485 726,-307 677.3849,-242.1947 599.6151,-320.8053 551,-256 526.063,-222.7583 509.4444,-162.5 551,-162.5"/>
<polygon fill="#000000" stroke="#000000" points="735.6668,-364.94 724.848,-363.1499 730.8334,-366.22 726,-367.5 726,-367.5 726,-367.5 730.8334,-366.22 727.152,-371.8501 735.6668,-364.94 735.6668,-364.94"/>
<text text-anchor="start" x="732.651" y="-377.5" font-family="Arial" font-size="10.00" fill="#000000">FOREIGN KEY (custom_job_id) REFERENCES game_creator_custom_jobs (id)</text>
</g>
</g>
</svg>
