<?xml version="1.0" encoding="UTF-8" standalone="no"?>
<!DOCTYPE svg PUBLIC "-//W3C//DTD SVG 1.1//EN"
 "http://www.w3.org/Graphics/SVG/1.1/DTD/svg11.dtd">
<!-- Generated by graphviz version 12.1.2 (20240928.0832)
 -->
<!-- Title: game_management_role_types Pages: 1 -->
<svg width="613pt" height="479pt"
 viewBox="0.00 0.00 613.44 478.80" xmlns="http://www.w3.org/2000/svg" xmlns:xlink="http://www.w3.org/1999/xlink">
<g id="graph0" class="graph" transform="scale(1 1) rotate(0) translate(4 474.8)">
<title>game_management_role_types</title>
<polygon fill="white" stroke="none" points="-4,4 -4,-474.8 609.44,-474.8 609.44,4 -4,4"/>
<!-- game_management_role_types -->
<g id="node1" class="node">
<title>game_management_role_types</title>
<polygon fill="#efefef" stroke="none" points="196.83,-138.6 196.83,-174.2 559.24,-174.2 559.24,-138.6 196.83,-138.6"/>
<polygon fill="none" stroke="black" points="196.83,-138.6 196.83,-174.2 559.24,-174.2 559.24,-138.6 196.83,-138.6"/>
<text text-anchor="start" x="203.83" y="-152" font-family="Arial Bold" font-size="18.00">game_management_role_types</text>
<text text-anchor="start" x="427.75" y="-152" font-family="Arial" font-size="14.00">    </text>
<text text-anchor="start" x="458.87" y="-152" font-family="Arial" font-size="14.00" fill="#666666">[BASE TABLE]</text>
<polygon fill="none" stroke="black" points="196.83,-107.8 196.83,-138.6 559.24,-138.6 559.24,-107.8 196.83,-107.8"/>
<text text-anchor="start" x="203.83" y="-120" font-family="Arial" font-size="14.00">id </text>
<text text-anchor="start" x="218.62" y="-120" font-family="Arial" font-size="14.00" fill="#666666">[tinyint(4)]</text>
<polygon fill="none" stroke="black" points="196.83,-77 196.83,-107.8 559.24,-107.8 559.24,-77 196.83,-77"/>
<text text-anchor="start" x="203.83" y="-89.2" font-family="Arial" font-size="14.00">name </text>
<text text-anchor="start" x="242.74" y="-89.2" font-family="Arial" font-size="14.00" fill="#666666">[varchar(32)]</text>
<polygon fill="none" stroke="black" points="196.83,-46.2 196.83,-77 559.24,-77 559.24,-46.2 196.83,-46.2"/>
<text text-anchor="start" x="203.83" y="-58.4" font-family="Arial" font-size="14.00">active </text>
<text text-anchor="start" x="244.29" y="-58.4" font-family="Arial" font-size="14.00" fill="#666666">[tinyint(1)]</text>
<polygon fill="none" stroke="black" stroke-width="3" points="195.33,-44.7 195.33,-175.7 560.74,-175.7 560.74,-44.7 195.33,-44.7"/>
</g>
<!-- game_management_roles -->
<g id="node2" class="node">
<title>game_management_roles</title>
<polygon fill="#efefef" stroke="none" points="216.82,-392 216.82,-427.6 539.24,-427.6 539.24,-392 216.82,-392"/>
<polygon fill="none" stroke="black" points="216.82,-392 216.82,-427.6 539.24,-427.6 539.24,-392 216.82,-392"/>
<text text-anchor="start" x="223.82" y="-405.4" font-family="Arial Bold" font-size="18.00">game_management_roles</text>
<text text-anchor="start" x="407.75" y="-405.4" font-family="Arial" font-size="14.00">    </text>
<text text-anchor="start" x="438.87" y="-405.4" font-family="Arial" font-size="14.00" fill="#666666">[BASE TABLE]</text>
<polygon fill="none" stroke="black" points="216.82,-361.2 216.82,-392 539.24,-392 539.24,-361.2 216.82,-361.2"/>
<text text-anchor="start" x="223.82" y="-373.4" font-family="Arial" font-size="14.00">game_id </text>
<text text-anchor="start" x="281.42" y="-373.4" font-family="Arial" font-size="14.00" fill="#666666">[varchar(36)]</text>
<polygon fill="none" stroke="black" points="216.82,-330.4 216.82,-361.2 539.24,-361.2 539.24,-330.4 216.82,-330.4"/>
<text text-anchor="start" x="223.82" y="-342.6" font-family="Arial" font-size="14.00">user_id </text>
<text text-anchor="start" x="273.63" y="-342.6" font-family="Arial" font-size="14.00" fill="#666666">[varchar(36)]</text>
<polygon fill="none" stroke="black" points="216.82,-299.6 216.82,-330.4 539.24,-330.4 539.24,-299.6 216.82,-299.6"/>
<text text-anchor="start" x="223.82" y="-311.8" font-family="Arial" font-size="14.00">role_type_id </text>
<text text-anchor="start" x="303.99" y="-311.8" font-family="Arial" font-size="14.00" fill="#666666">[tinyint(4)]</text>
</g>
<!-- game_management_roles&#45;&gt;game_management_role_types -->
<g id="edge1" class="edge">
<title>game_management_roles:role_type_id&#45;&gt;game_management_role_types:id</title>
<path fill="none" stroke="black" d="M378.75,-288.21C389.28,-217.69 512.75,-290.3 559.24,-220.4 583.16,-184.43 603.44,-123.2 560.24,-123.2"/>
<polygon fill="black" stroke="black" points="378.75,-288.29 373.57,-297.96 378.38,-293.61 378.08,-297.93 378.08,-297.93 378.08,-297.93 378.38,-293.61 382.55,-298.58 378.75,-288.29"/>
<text text-anchor="start" x="7" y="-308.6" font-family="Arial" font-size="10.00">FOREIGN KEY (role_type_id) REFERENCES game_management_role_types (id)</text>
</g>
</g>
</svg>
