<?xml version="1.0" encoding="UTF-8" standalone="no"?>
<!DOCTYPE svg PUBLIC "-//W3C//DTD SVG 1.1//EN"
 "http://www.w3.org/Graphics/SVG/1.1/DTD/svg11.dtd">
<!-- Generated by graphviz version 2.40.1 (20161225.0304)
 -->
<!-- Title: game_versions Pages: 1 -->
<svg width="764pt" height="959pt"
 viewBox="0.00 0.00 764.00 959.00" xmlns="http://www.w3.org/2000/svg" xmlns:xlink="http://www.w3.org/1999/xlink">
<g id="graph0" class="graph" transform="scale(1 1) rotate(0) translate(4 955)">
<title>game_versions</title>
<polygon fill="#ffffff" stroke="transparent" points="-4,4 -4,-955 760,-955 760,4 -4,4"/>
<!-- game_versions -->
<g id="node1" class="node">
<title>game_versions</title>
<polygon fill="#efefef" stroke="transparent" points="261,-532.5 261,-567.5 494,-567.5 494,-532.5 261,-532.5"/>
<polygon fill="none" stroke="#000000" points="261,-532.5 261,-567.5 494,-567.5 494,-532.5 261,-532.5"/>
<text text-anchor="start" x="267.8621" y="-545.3" font-family="Arial Bold" font-size="18.00" fill="#000000">game_versions</text>
<text text-anchor="start" x="389.8841" y="-545.3" font-family="Arial" font-size="14.00" fill="#000000"> </text>
<text text-anchor="start" x="393.7747" y="-545.3" font-family="Arial" font-size="14.00" fill="#666666">[BASE TABLE]</text>
<polygon fill="none" stroke="#000000" points="261,-502.5 261,-532.5 494,-532.5 494,-502.5 261,-502.5"/>
<text text-anchor="start" x="268" y="-513.9" font-family="Arial" font-size="14.00" fill="#000000">id </text>
<text text-anchor="start" x="282.7798" y="-513.9" font-family="Arial" font-size="14.00" fill="#666666">[varchar(36)]</text>
<polygon fill="none" stroke="#000000" points="261,-472.5 261,-502.5 494,-502.5 494,-472.5 261,-472.5"/>
<text text-anchor="start" x="268" y="-483.9" font-family="Arial" font-size="14.00" fill="#000000">game_id </text>
<text text-anchor="start" x="325.5708" y="-483.9" font-family="Arial" font-size="14.00" fill="#666666">[varchar(36)]</text>
<polygon fill="none" stroke="#000000" points="261,-442.5 261,-472.5 494,-472.5 494,-442.5 261,-442.5"/>
<text text-anchor="start" x="268" y="-453.9" font-family="Arial" font-size="14.00" fill="#000000">name </text>
<text text-anchor="start" x="306.899" y="-453.9" font-family="Arial" font-size="14.00" fill="#666666">[varchar(32)]</text>
<polygon fill="none" stroke="#000000" points="261,-412.5 261,-442.5 494,-442.5 494,-412.5 261,-412.5"/>
<text text-anchor="start" x="268" y="-423.9" font-family="Arial" font-size="14.00" fill="#000000">description </text>
<text text-anchor="start" x="339.568" y="-423.9" font-family="Arial" font-size="14.00" fill="#666666">[text]</text>
<polygon fill="none" stroke="#000000" points="261,-382.5 261,-412.5 494,-412.5 494,-382.5 261,-382.5"/>
<text text-anchor="start" x="268" y="-393.9" font-family="Arial" font-size="14.00" fill="#000000">created_at </text>
<text text-anchor="start" x="338.028" y="-393.9" font-family="Arial" font-size="14.00" fill="#666666">[datetime]</text>
<polygon fill="none" stroke="#000000" stroke-width="3" points="259,-381.5 259,-569.5 495,-569.5 495,-381.5 259,-381.5"/>
</g>
<!-- games -->
<g id="node4" class="node">
<title>games</title>
<polygon fill="#efefef" stroke="transparent" points="288,-222.5 288,-257.5 468,-257.5 468,-222.5 288,-222.5"/>
<polygon fill="none" stroke="#000000" points="288,-222.5 288,-257.5 468,-257.5 468,-222.5 288,-222.5"/>
<text text-anchor="start" x="302.3677" y="-235.3" font-family="Arial Bold" font-size="18.00" fill="#000000">games</text>
<text text-anchor="start" x="356.3785" y="-235.3" font-family="Arial" font-size="14.00" fill="#000000"> </text>
<text text-anchor="start" x="360.2691" y="-235.3" font-family="Arial" font-size="14.00" fill="#666666">[BASE TABLE]</text>
<polygon fill="none" stroke="#000000" points="288,-192.5 288,-222.5 468,-222.5 468,-192.5 288,-192.5"/>
<text text-anchor="start" x="295" y="-203.9" font-family="Arial" font-size="14.00" fill="#000000">id </text>
<text text-anchor="start" x="309.7798" y="-203.9" font-family="Arial" font-size="14.00" fill="#666666">[varchar(36)]</text>
<polygon fill="none" stroke="#000000" points="288,-162.5 288,-192.5 468,-192.5 468,-162.5 288,-162.5"/>
<text text-anchor="start" x="295" y="-173.9" font-family="Arial" font-size="14.00" fill="#000000">name </text>
<text text-anchor="start" x="333.899" y="-173.9" font-family="Arial" font-size="14.00" fill="#666666">[varchar(256)]</text>
<polygon fill="none" stroke="#000000" points="288,-132.5 288,-162.5 468,-162.5 468,-132.5 288,-132.5"/>
<text text-anchor="start" x="295" y="-143.9" font-family="Arial" font-size="14.00" fill="#000000">description </text>
<text text-anchor="start" x="366.568" y="-143.9" font-family="Arial" font-size="14.00" fill="#666666">[text]</text>
<polygon fill="none" stroke="#000000" points="288,-102.5 288,-132.5 468,-132.5 468,-102.5 288,-102.5"/>
<text text-anchor="start" x="295" y="-113.9" font-family="Arial" font-size="14.00" fill="#000000">created_at </text>
<text text-anchor="start" x="365.028" y="-113.9" font-family="Arial" font-size="14.00" fill="#666666">[datetime]</text>
<polygon fill="none" stroke="#000000" points="288,-72.5 288,-102.5 468,-102.5 468,-72.5 288,-72.5"/>
<text text-anchor="start" x="295" y="-83.9" font-family="Arial" font-size="14.00" fill="#000000">deleted_at </text>
<text text-anchor="start" x="364.2566" y="-83.9" font-family="Arial" font-size="14.00" fill="#666666">[datetime]</text>
<polygon fill="none" stroke="#000000" points="288,-42.5 288,-72.5 468,-72.5 468,-42.5 288,-42.5"/>
<text text-anchor="start" x="294.7742" y="-53.9" font-family="Arial" font-size="14.00" fill="#000000">visibility_type_id </text>
<text text-anchor="start" x="399.7812" y="-53.9" font-family="Arial" font-size="14.00" fill="#666666">[tinyint(4)]</text>
</g>
<!-- game_versions&#45;&gt;games -->
<g id="edge3" class="edge">
<title>game_versions:game_id&#45;&gt;games:id</title>
<path fill="none" stroke="#000000" d="M504.1715,-486.6332C558.2224,-476.7837 534.6809,-385.4067 494,-337 434.2031,-265.847 347.7969,-372.153 288,-301 261.2644,-269.1869 246.4444,-207.5 288,-207.5"/>
<polygon fill="#000000" stroke="#000000" points="503.9639,-486.6508 493.6179,-483.0163 498.9819,-487.0754 494,-487.5 494,-487.5 494,-487.5 498.9819,-487.0754 494.3821,-491.9837 503.9639,-486.6508 503.9639,-486.6508"/>
<text text-anchor="start" x="501.386" y="-497.5" font-family="Arial" font-size="10.00" fill="#000000">FOREIGN KEY (game_id) REFERENCES games (id)</text>
</g>
<!-- game_files -->
<g id="node2" class="node">
<title>game_files</title>
<polygon fill="#efefef" stroke="transparent" points="123,-872.5 123,-907.5 326,-907.5 326,-872.5 123,-872.5"/>
<polygon fill="none" stroke="#000000" points="123,-872.5 123,-907.5 326,-907.5 326,-872.5 123,-872.5"/>
<text text-anchor="start" x="132.3662" y="-885.3" font-family="Arial Bold" font-size="18.00" fill="#000000">game_files</text>
<text text-anchor="start" x="219.38" y="-885.3" font-family="Arial" font-size="14.00" fill="#000000"> </text>
<text text-anchor="start" x="223.2706" y="-885.3" font-family="Arial" font-size="14.00" fill="#666666">[BASE TABLE]</text>
<polygon fill="none" stroke="#000000" points="123,-842.5 123,-872.5 326,-872.5 326,-842.5 123,-842.5"/>
<text text-anchor="start" x="130" y="-853.9" font-family="Arial" font-size="14.00" fill="#000000">id </text>
<text text-anchor="start" x="144.7798" y="-853.9" font-family="Arial" font-size="14.00" fill="#666666">[varchar(36)]</text>
<polygon fill="none" stroke="#000000" points="123,-812.5 123,-842.5 326,-842.5 326,-812.5 123,-812.5"/>
<text text-anchor="start" x="129.5975" y="-823.9" font-family="Arial" font-size="14.00" fill="#000000">game_version_id </text>
<text text-anchor="start" x="240.0659" y="-823.9" font-family="Arial" font-size="14.00" fill="#666666">[varchar(36)]</text>
<polygon fill="none" stroke="#000000" points="123,-782.5 123,-812.5 326,-812.5 326,-782.5 123,-782.5"/>
<text text-anchor="start" x="130" y="-793.9" font-family="Arial" font-size="14.00" fill="#000000">file_type_id </text>
<text text-anchor="start" x="204.6872" y="-793.9" font-family="Arial" font-size="14.00" fill="#666666">[tinyint(4)]</text>
<polygon fill="none" stroke="#000000" points="123,-752.5 123,-782.5 326,-782.5 326,-752.5 123,-752.5"/>
<text text-anchor="start" x="130" y="-763.9" font-family="Arial" font-size="14.00" fill="#000000">hash </text>
<text text-anchor="start" x="164.2384" y="-763.9" font-family="Arial" font-size="14.00" fill="#666666">[char(32)]</text>
<polygon fill="none" stroke="#000000" points="123,-722.5 123,-752.5 326,-752.5 326,-722.5 123,-722.5"/>
<text text-anchor="start" x="130" y="-733.9" font-family="Arial" font-size="14.00" fill="#000000">entry_point </text>
<text text-anchor="start" x="203.1346" y="-733.9" font-family="Arial" font-size="14.00" fill="#666666">[text]</text>
<polygon fill="none" stroke="#000000" points="123,-692.5 123,-722.5 326,-722.5 326,-692.5 123,-692.5"/>
<text text-anchor="start" x="130" y="-703.9" font-family="Arial" font-size="14.00" fill="#000000">created_at </text>
<text text-anchor="start" x="200.028" y="-703.9" font-family="Arial" font-size="14.00" fill="#666666">[datetime]</text>
</g>
<!-- game_files&#45;&gt;game_versions -->
<g id="edge1" class="edge">
<title>game_files:game_version_id&#45;&gt;game_versions:id</title>
<path fill="none" stroke="#000000" d="M336.3297,-826.7935C401.2452,-817.3225 364.1738,-714.78 326,-650 309.2341,-621.5487 277.7659,-642.4513 261,-614 239.2257,-577.0495 218.1111,-517.5 261,-517.5"/>
<polygon fill="#000000" stroke="#000000" points="335.9767,-826.8176 325.6929,-823.0105 330.9883,-827.1588 326,-827.5 326,-827.5 326,-827.5 330.9883,-827.1588 326.3071,-831.9895 335.9767,-826.8176 335.9767,-826.8176"/>
<text text-anchor="start" x="6.602" y="-837.5" font-family="Arial" font-size="10.00" fill="#000000">FOREIGN KEY (game_version_id) REFERENCES game_versions (id)</text>
</g>
<!-- game_urls -->
<g id="node3" class="node">
<title>game_urls</title>
<polygon fill="#efefef" stroke="transparent" points="430,-842.5 430,-877.5 633,-877.5 633,-842.5 430,-842.5"/>
<polygon fill="none" stroke="#000000" points="430,-842.5 430,-877.5 633,-877.5 633,-842.5 430,-842.5"/>
<text text-anchor="start" x="440.8683" y="-855.3" font-family="Arial Bold" font-size="18.00" fill="#000000">game_urls</text>
<text text-anchor="start" x="524.8779" y="-855.3" font-family="Arial" font-size="14.00" fill="#000000"> </text>
<text text-anchor="start" x="528.7685" y="-855.3" font-family="Arial" font-size="14.00" fill="#666666">[BASE TABLE]</text>
<polygon fill="none" stroke="#000000" points="430,-812.5 430,-842.5 633,-842.5 633,-812.5 430,-812.5"/>
<text text-anchor="start" x="437" y="-823.9" font-family="Arial" font-size="14.00" fill="#000000">id </text>
<text text-anchor="start" x="451.7798" y="-823.9" font-family="Arial" font-size="14.00" fill="#666666">[varchar(36)]</text>
<polygon fill="none" stroke="#000000" points="430,-782.5 430,-812.5 633,-812.5 633,-782.5 430,-782.5"/>
<text text-anchor="start" x="436.5975" y="-793.9" font-family="Arial" font-size="14.00" fill="#000000">game_version_id </text>
<text text-anchor="start" x="547.0659" y="-793.9" font-family="Arial" font-size="14.00" fill="#666666">[varchar(36)]</text>
<polygon fill="none" stroke="#000000" points="430,-752.5 430,-782.5 633,-782.5 633,-752.5 430,-752.5"/>
<text text-anchor="start" x="437" y="-763.9" font-family="Arial" font-size="14.00" fill="#000000">url </text>
<text text-anchor="start" x="456.4404" y="-763.9" font-family="Arial" font-size="14.00" fill="#666666">[text]</text>
<polygon fill="none" stroke="#000000" points="430,-722.5 430,-752.5 633,-752.5 633,-722.5 430,-722.5"/>
<text text-anchor="start" x="437" y="-733.9" font-family="Arial" font-size="14.00" fill="#000000">created_at </text>
<text text-anchor="start" x="507.028" y="-733.9" font-family="Arial" font-size="14.00" fill="#666666">[datetime]</text>
</g>
<!-- game_urls&#45;&gt;game_versions -->
<g id="edge2" class="edge">
<title>game_urls:game_version_id&#45;&gt;game_versions:id</title>
<path fill="none" stroke="#000000" d="M419.7343,-796.3948C382.5466,-787.3569 411.8428,-724.8072 430,-680 445.3456,-642.1312 478.6544,-651.8688 494,-614 510.1076,-574.2508 536.8889,-517.5 494,-517.5"/>
<polygon fill="#000000" stroke="#000000" points="420.0575,-796.4295 429.5183,-801.9741 425.0287,-796.9648 430,-797.5 430,-797.5 430,-797.5 425.0287,-796.9648 430.4817,-793.0259 420.0575,-796.4295 420.0575,-796.4295"/>
<text text-anchor="start" x="436.602" y="-807.5" font-family="Arial" font-size="10.00" fill="#000000">FOREIGN KEY (game_version_id) REFERENCES game_versions (id)</text>
</g>
</g>
</svg>
