<?xml version="1.0" encoding="UTF-8" standalone="no"?>
<!DOCTYPE svg PUBLIC "-//W3C//DTD SVG 1.1//EN"
 "http://www.w3.org/Graphics/SVG/1.1/DTD/svg11.dtd">
<!-- Generated by graphviz version 12.1.2 (20240928.0832)
 -->
<!-- Title: game_videos Pages: 1 -->
<svg width="823pt" height="633pt"
 viewBox="0.00 0.00 823.31 632.80" xmlns="http://www.w3.org/2000/svg" xmlns:xlink="http://www.w3.org/1999/xlink">
<g id="graph0" class="graph" transform="scale(1 1) rotate(0) translate(4 628.8)">
<title>game_videos</title>
<polygon fill="white" stroke="none" points="-4,4 -4,-628.8 819.31,-628.8 819.31,4 -4,4"/>
<!-- game_videos -->
<g id="node1" class="node">
<title>game_videos</title>
<polygon fill="#efefef" stroke="none" points="252.28,-543 252.28,-578.6 485.74,-578.6 485.74,-543 252.28,-543"/>
<polygon fill="none" stroke="black" points="252.28,-543 252.28,-578.6 485.74,-578.6 485.74,-543 252.28,-543"/>
<text text-anchor="start" x="259.28" y="-556.4" font-family="Arial Bold" font-size="18.00">game_videos</text>
<text text-anchor="start" x="354.25" y="-556.4" font-family="Arial" font-size="14.00">    </text>
<text text-anchor="start" x="385.37" y="-556.4" font-family="Arial" font-size="14.00" fill="#666666">[BASE TABLE]</text>
<polygon fill="none" stroke="black" points="252.28,-512.2 252.28,-543 485.74,-543 485.74,-512.2 252.28,-512.2"/>
<text text-anchor="start" x="259.28" y="-524.4" font-family="Arial" font-size="14.00">id </text>
<text text-anchor="start" x="274.07" y="-524.4" font-family="Arial" font-size="14.00" fill="#666666">[varchar(36)]</text>
<polygon fill="none" stroke="black" points="252.28,-481.4 252.28,-512.2 485.74,-512.2 485.74,-481.4 252.28,-481.4"/>
<text text-anchor="start" x="259.28" y="-493.6" font-family="Arial" font-size="14.00">game_id </text>
<text text-anchor="start" x="316.87" y="-493.6" font-family="Arial" font-size="14.00" fill="#666666">[varchar(36)]</text>
<polygon fill="none" stroke="black" points="252.28,-450.6 252.28,-481.4 485.74,-481.4 485.74,-450.6 252.28,-450.6"/>
<text text-anchor="start" x="259.28" y="-462.8" font-family="Arial" font-size="14.00">video_type_id </text>
<text text-anchor="start" x="349.57" y="-462.8" font-family="Arial" font-size="14.00" fill="#666666">[tinyint(4)]</text>
<polygon fill="none" stroke="black" points="252.28,-419.8 252.28,-450.6 485.74,-450.6 485.74,-419.8 252.28,-419.8"/>
<text text-anchor="start" x="259.28" y="-432" font-family="Arial" font-size="14.00">created_at </text>
<text text-anchor="start" x="329.33" y="-432" font-family="Arial" font-size="14.00" fill="#666666">[datetime]</text>
<polygon fill="none" stroke="black" stroke-width="3" points="250.78,-418.3 250.78,-580.1 487.24,-580.1 487.24,-418.3 250.78,-418.3"/>
</g>
<!-- games -->
<g id="node2" class="node">
<title>games</title>
<polygon fill="#efefef" stroke="none" points="66.21,-258.8 66.21,-294.4 309.81,-294.4 309.81,-258.8 66.21,-258.8"/>
<polygon fill="none" stroke="black" points="66.21,-258.8 66.21,-294.4 309.81,-294.4 309.81,-258.8 66.21,-258.8"/>
<text text-anchor="start" x="102.78" y="-272.2" font-family="Arial Bold" font-size="18.00">games</text>
<text text-anchor="start" x="148.76" y="-272.2" font-family="Arial" font-size="14.00">    </text>
<text text-anchor="start" x="179.88" y="-272.2" font-family="Arial" font-size="14.00" fill="#666666">[BASE TABLE]</text>
<polygon fill="none" stroke="black" points="66.21,-228 66.21,-258.8 309.81,-258.8 309.81,-228 66.21,-228"/>
<text text-anchor="start" x="73.21" y="-240.2" font-family="Arial" font-size="14.00">id </text>
<text text-anchor="start" x="88" y="-240.2" font-family="Arial" font-size="14.00" fill="#666666">[varchar(36)]</text>
<polygon fill="none" stroke="black" points="66.21,-197.2 66.21,-228 309.81,-228 309.81,-197.2 66.21,-197.2"/>
<text text-anchor="start" x="73.21" y="-209.4" font-family="Arial" font-size="14.00">name </text>
<text text-anchor="start" x="112.12" y="-209.4" font-family="Arial" font-size="14.00" fill="#666666">[varchar(256)]</text>
<polygon fill="none" stroke="black" points="66.21,-166.4 66.21,-197.2 309.81,-197.2 309.81,-166.4 66.21,-166.4"/>
<text text-anchor="start" x="73.21" y="-178.6" font-family="Arial" font-size="14.00">description </text>
<text text-anchor="start" x="144.81" y="-178.6" font-family="Arial" font-size="14.00" fill="#666666">[text]</text>
<polygon fill="none" stroke="black" points="66.21,-135.6 66.21,-166.4 309.81,-166.4 309.81,-135.6 66.21,-135.6"/>
<text text-anchor="start" x="73.21" y="-147.8" font-family="Arial" font-size="14.00">created_at </text>
<text text-anchor="start" x="143.26" y="-147.8" font-family="Arial" font-size="14.00" fill="#666666">[datetime]</text>
<polygon fill="none" stroke="black" points="66.21,-104.8 66.21,-135.6 309.81,-135.6 309.81,-104.8 66.21,-104.8"/>
<text text-anchor="start" x="73.21" y="-117" font-family="Arial" font-size="14.00">deleted_at </text>
<text text-anchor="start" x="142.5" y="-117" font-family="Arial" font-size="14.00" fill="#666666">[datetime]</text>
<polygon fill="none" stroke="black" points="66.21,-74 66.21,-104.8 309.81,-104.8 309.81,-74 66.21,-74"/>
<text text-anchor="start" x="73.21" y="-86.2" font-family="Arial" font-size="14.00">visibility_type_id </text>
<text text-anchor="start" x="178.26" y="-86.2" font-family="Arial" font-size="14.00" fill="#666666">[tinyint(4)]</text>
<polygon fill="none" stroke="black" points="66.21,-43.2 66.21,-74 309.81,-74 309.81,-43.2 66.21,-43.2"/>
<text text-anchor="start" x="73.21" y="-55.4" font-family="Arial" font-size="14.00">latest_version_updated_at </text>
<text text-anchor="start" x="241.34" y="-55.4" font-family="Arial" font-size="14.00" fill="#666666">[datetime]</text>
</g>
<!-- game_videos&#45;&gt;games -->
<g id="edge1" class="edge">
<title>game_videos:game_id&#45;&gt;games:id</title>
<path fill="none" stroke="black" d="M240.94,-495.72C200.59,-486.33 227.43,-418.03 252.28,-373.6 267,-347.27 295.06,-363.91 309.81,-337.6 330.29,-301.08 352.68,-243.4 310.81,-243.4"/>
<polygon fill="black" stroke="black" points="241,-495.72 250.48,-501.24 246.31,-496.28 250.61,-496.73 250.61,-496.73 250.61,-496.73 246.31,-496.28 251.42,-492.29 241,-495.72"/>
<text text-anchor="start" x="7" y="-506.8" font-family="Arial" font-size="10.00">FOREIGN KEY (game_id) REFERENCES games (id)</text>
</g>
<!-- game_video_types -->
<g id="node3" class="node">
<title>game_video_types</title>
<polygon fill="#efefef" stroke="none" points="414.29,-197.2 414.29,-232.8 687.74,-232.8 687.74,-197.2 414.29,-197.2"/>
<polygon fill="none" stroke="black" points="414.29,-197.2 414.29,-232.8 687.74,-232.8 687.74,-197.2 414.29,-197.2"/>
<text text-anchor="start" x="421.29" y="-210.6" font-family="Arial Bold" font-size="18.00">game_video_types</text>
<text text-anchor="start" x="556.25" y="-210.6" font-family="Arial" font-size="14.00">    </text>
<text text-anchor="start" x="587.37" y="-210.6" font-family="Arial" font-size="14.00" fill="#666666">[BASE TABLE]</text>
<polygon fill="none" stroke="black" points="414.29,-166.4 414.29,-197.2 687.74,-197.2 687.74,-166.4 414.29,-166.4"/>
<text text-anchor="start" x="421.29" y="-178.6" font-family="Arial" font-size="14.00">id </text>
<text text-anchor="start" x="436.07" y="-178.6" font-family="Arial" font-size="14.00" fill="#666666">[tinyint(4)]</text>
<polygon fill="none" stroke="black" points="414.29,-135.6 414.29,-166.4 687.74,-166.4 687.74,-135.6 414.29,-135.6"/>
<text text-anchor="start" x="421.29" y="-147.8" font-family="Arial" font-size="14.00">name </text>
<text text-anchor="start" x="460.2" y="-147.8" font-family="Arial" font-size="14.00" fill="#666666">[varchar(32)]</text>
<polygon fill="none" stroke="black" points="414.29,-104.8 414.29,-135.6 687.74,-135.6 687.74,-104.8 414.29,-104.8"/>
<text text-anchor="start" x="421.29" y="-117" font-family="Arial" font-size="14.00">active </text>
<text text-anchor="start" x="461.75" y="-117" font-family="Arial" font-size="14.00" fill="#666666">[tinyint(1)]</text>
</g>
<!-- game_videos&#45;&gt;game_video_types -->
<g id="edge2" class="edge">
<title>game_videos:video_type_id&#45;&gt;game_video_types:id</title>
<path fill="none" stroke="black" d="M496.85,-464.53C522.28,-455.7 497.45,-408.76 485.74,-373.6 468.76,-322.59 431.26,-327.01 414.29,-276 401.06,-236.27 371.42,-181.8 413.29,-181.8"/>
<polygon fill="black" stroke="black" points="496.97,-464.52 486.43,-461.5 491.69,-465.28 487.41,-465.9 487.41,-465.9 487.41,-465.9 491.69,-465.28 487.72,-470.41 496.97,-464.52"/>
<text text-anchor="start" x="493.74" y="-476" font-family="Arial" font-size="10.00">FOREIGN KEY (video_type_id) REFERENCES game_video_types (id)</text>
</g>
</g>
</svg>
