<?xml version="1.0" encoding="UTF-8" standalone="no"?>
<!DOCTYPE svg PUBLIC "-//W3C//DTD SVG 1.1//EN"
 "http://www.w3.org/Graphics/SVG/1.1/DTD/svg11.dtd">
<!-- Generated by graphviz version 2.40.1 (20161225.0304)
 -->
<!-- Title: game_genres Pages: 1 -->
<svg width="623pt" height="442pt"
 viewBox="0.00 0.00 623.45 442.00" xmlns="http://www.w3.org/2000/svg" xmlns:xlink="http://www.w3.org/1999/xlink">
<g id="graph0" class="graph" transform="scale(1 1) rotate(0) translate(4 438)">
<title>game_genres</title>
<polygon fill="#ffffff" stroke="transparent" points="-4,4 -4,-438 619.4533,-438 619.4533,4 -4,4"/>
<!-- game_genres -->
<g id="node1" class="node">
<title>game_genres</title>
<polygon fill="#efefef" stroke="transparent" points="316.4533,-135.5 316.4533,-170.5 537.4533,-170.5 537.4533,-135.5 316.4533,-135.5"/>
<polygon fill="none" stroke="#000000" points="316.4533,-135.5 316.4533,-170.5 537.4533,-170.5 537.4533,-135.5 316.4533,-135.5"/>
<text text-anchor="start" x="323.3094" y="-148.3" font-family="Arial Bold" font-size="18.00" fill="#000000">game_genres</text>
<text text-anchor="start" x="433.3434" y="-148.3" font-family="Arial" font-size="14.00" fill="#000000"> </text>
<text text-anchor="start" x="437.234" y="-148.3" font-family="Arial" font-size="14.00" fill="#666666">[BASE TABLE]</text>
<polygon fill="none" stroke="#000000" points="316.4533,-105.5 316.4533,-135.5 537.4533,-135.5 537.4533,-105.5 316.4533,-105.5"/>
<text text-anchor="start" x="323.4533" y="-116.9" font-family="Arial" font-size="14.00" fill="#000000">id </text>
<text text-anchor="start" x="338.2331" y="-116.9" font-family="Arial" font-size="14.00" fill="#666666">[varchar(36)]</text>
<polygon fill="none" stroke="#000000" points="316.4533,-75.5 316.4533,-105.5 537.4533,-105.5 537.4533,-75.5 316.4533,-75.5"/>
<text text-anchor="start" x="323.4533" y="-86.9" font-family="Arial" font-size="14.00" fill="#000000">name </text>
<text text-anchor="start" x="362.3523" y="-86.9" font-family="Arial" font-size="14.00" fill="#666666">[varchar(32)]</text>
<polygon fill="none" stroke="#000000" points="316.4533,-45.5 316.4533,-75.5 537.4533,-75.5 537.4533,-45.5 316.4533,-45.5"/>
<text text-anchor="start" x="323.4533" y="-56.9" font-family="Arial" font-size="14.00" fill="#000000">created_at </text>
<text text-anchor="start" x="393.4813" y="-56.9" font-family="Arial" font-size="14.00" fill="#666666">[datetime]</text>
<polygon fill="none" stroke="#000000" stroke-width="3" points="314.4533,-44.5 314.4533,-172.5 538.4533,-172.5 538.4533,-44.5 314.4533,-44.5"/>
</g>
<!-- game_genre_relations -->
<g id="node2" class="node">
<title>game_genre_relations</title>
<polygon fill="#efefef" stroke="transparent" points="282.4533,-355.5 282.4533,-390.5 572.4533,-390.5 572.4533,-355.5 282.4533,-355.5"/>
<polygon fill="none" stroke="#000000" points="282.4533,-355.5 282.4533,-390.5 572.4533,-390.5 572.4533,-355.5 282.4533,-355.5"/>
<text text-anchor="start" x="289.3025" y="-368.3" font-family="Arial Bold" font-size="18.00" fill="#000000">game_genre_relations</text>
<text text-anchor="start" x="468.3503" y="-368.3" font-family="Arial" font-size="14.00" fill="#000000"> </text>
<text text-anchor="start" x="472.2409" y="-368.3" font-family="Arial" font-size="14.00" fill="#666666">[BASE TABLE]</text>
<polygon fill="none" stroke="#000000" points="282.4533,-325.5 282.4533,-355.5 572.4533,-355.5 572.4533,-325.5 282.4533,-325.5"/>
<text text-anchor="start" x="289.4533" y="-336.9" font-family="Arial" font-size="14.00" fill="#000000">genre_id </text>
<text text-anchor="start" x="347.8067" y="-336.9" font-family="Arial" font-size="14.00" fill="#666666">[varchar(36)]</text>
<polygon fill="none" stroke="#000000" points="282.4533,-295.5 282.4533,-325.5 572.4533,-325.5 572.4533,-295.5 282.4533,-295.5"/>
<text text-anchor="start" x="289.4533" y="-306.9" font-family="Arial" font-size="14.00" fill="#000000">game_id </text>
<text text-anchor="start" x="347.0241" y="-306.9" font-family="Arial" font-size="14.00" fill="#666666">[varchar(36)]</text>
</g>
<!-- game_genre_relations&#45;&gt;game_genres -->
<g id="edge1" class="edge">
<title>game_genre_relations:genre_id&#45;&gt;game_genres:id</title>
<path fill="none" stroke="#000000" d="M272.3136,-339.7987C227.3402,-333.1247 240.5929,-280.4656 264.4533,-253 339.5171,-166.5947 444.3896,-303.4053 519.4533,-217 547.5809,-184.6226 562.3422,-120.5 537.4533,-120.5"/>
<polygon fill="#000000" stroke="#000000" points="272.4772,-339.8099 282.1428,-344.9893 277.4653,-340.1549 282.4533,-340.5 282.4533,-340.5 282.4533,-340.5 277.4653,-340.1549 282.7639,-336.0107 272.4772,-339.8099 272.4772,-339.8099"/>
<text text-anchor="start" x="6.9978" y="-350.5" font-family="Arial" font-size="10.00" fill="#000000">FOREIGN KEY (genre_id) REFERENCES game_genres (id)</text>
</g>
<!-- game_genre_relations&#45;&gt;game_genres -->
<g id="edge2" class="edge">
<title>game_genre_relations:genre_id&#45;&gt;game_genres:id</title>
<path fill="none" stroke="#000000" d="M271.8797,-338.6751C246.511,-328.5995 259.6289,-279.2731 282.4533,-253 357.5171,-166.5947 462.3896,-303.4053 537.4533,-217 565.471,-184.7491 580.2267,-121.0005 537.9533,-120.5029"/>
<polygon fill="#000000" stroke="#000000" points="272.1583,-338.7252 281.2025,-344.9261 277.0791,-339.6113 282,-340.4973 282,-340.4973 282,-340.4973 277.0791,-339.6113 282.7975,-336.0686 272.1583,-338.7252 272.1583,-338.7252"/>
<text text-anchor="start" x="6.5445" y="-324.4973" font-family="Arial" font-size="10.00" fill="#000000">FOREIGN KEY (genre_id) REFERENCES game_genres (id)</text>
</g>
<!-- game_genre_relations&#45;&gt;game_genres -->
<g id="edge3" class="edge">
<title>game_genre_relations:genre_id&#45;&gt;game_genres:id</title>
<path fill="none" stroke="#000000" d="M273.8171,-334.1231C267.4537,-318.227 280.0907,-276.4393 300.4533,-253 375.5171,-166.5947 480.3896,-303.4053 555.4533,-217 583.526,-184.6858 598.2845,-120.7504 537.8092,-120.5007"/>
<polygon fill="#000000" stroke="#000000" points="274.0883,-334.3348 279.2005,-344.0362 278.0291,-337.4121 281.97,-340.4894 281.97,-340.4894 281.97,-340.4894 278.0291,-337.4121 284.7396,-336.9426 274.0883,-334.3348 274.0883,-334.3348"/>
<text text-anchor="start" x="288.5145" y="-350.4894" font-family="Arial" font-size="10.00" fill="#000000">FOREIGN KEY (genre_id) REFERENCES game_genres (id)</text>
</g>
</g>
</svg>
