<?xml version="1.0" encoding="UTF-8" standalone="no"?>
<!DOCTYPE svg PUBLIC "-//W3C//DTD SVG 1.1//EN"
 "http://www.w3.org/Graphics/SVG/1.1/DTD/svg11.dtd">
<!-- Generated by graphviz version 2.40.1 (20161225.0304)
 -->
<!-- Title: launcher_users Pages: 1 -->
<svg width="935pt" height="929pt"
 viewBox="0.00 0.00 935.00 929.00" xmlns="http://www.w3.org/2000/svg" xmlns:xlink="http://www.w3.org/1999/xlink">
<g id="graph0" class="graph" transform="scale(1 1) rotate(0) translate(4 925)">
<title>launcher_users</title>
<polygon fill="#ffffff" stroke="transparent" points="-4,4 -4,-925 931,-925 931,4 -4,4"/>
<!-- launcher_users -->
<g id="node1" class="node">
<title>launcher_users</title>
<polygon fill="#efefef" stroke="transparent" points="353,-502.5 353,-537.5 587,-537.5 587,-502.5 353,-502.5"/>
<polygon fill="none" stroke="#000000" points="353,-502.5 353,-537.5 587,-537.5 587,-502.5 353,-502.5"/>
<text text-anchor="start" x="359.859" y="-515.3" font-family="Arial Bold" font-size="18.00" fill="#000000">launcher_users</text>
<text text-anchor="start" x="482.8872" y="-515.3" font-family="Arial" font-size="14.00" fill="#000000"> </text>
<text text-anchor="start" x="486.7778" y="-515.3" font-family="Arial" font-size="14.00" fill="#666666">[BASE TABLE]</text>
<polygon fill="none" stroke="#000000" points="353,-472.5 353,-502.5 587,-502.5 587,-472.5 353,-472.5"/>
<text text-anchor="start" x="360" y="-483.9" font-family="Arial" font-size="14.00" fill="#000000">id </text>
<text text-anchor="start" x="374.7798" y="-483.9" font-family="Arial" font-size="14.00" fill="#666666">[varchar(36)]</text>
<polygon fill="none" stroke="#000000" points="353,-442.5 353,-472.5 587,-472.5 587,-442.5 353,-442.5"/>
<text text-anchor="start" x="360" y="-453.9" font-family="Arial" font-size="14.00" fill="#000000">launcher_version_id </text>
<text text-anchor="start" x="489.1402" y="-453.9" font-family="Arial" font-size="14.00" fill="#666666">[varchar(36)]</text>
<polygon fill="none" stroke="#000000" points="353,-412.5 353,-442.5 587,-442.5 587,-412.5 353,-412.5"/>
<text text-anchor="start" x="360" y="-423.9" font-family="Arial" font-size="14.00" fill="#000000">product_key </text>
<text text-anchor="start" x="440.1374" y="-423.9" font-family="Arial" font-size="14.00" fill="#666666">[varchar(29)]</text>
<polygon fill="none" stroke="#000000" points="353,-382.5 353,-412.5 587,-412.5 587,-382.5 353,-382.5"/>
<text text-anchor="start" x="360" y="-393.9" font-family="Arial" font-size="14.00" fill="#000000">created_at </text>
<text text-anchor="start" x="430.028" y="-393.9" font-family="Arial" font-size="14.00" fill="#666666">[datetime]</text>
<polygon fill="none" stroke="#000000" points="353,-352.5 353,-382.5 587,-382.5 587,-352.5 353,-352.5"/>
<text text-anchor="start" x="360" y="-363.9" font-family="Arial" font-size="14.00" fill="#000000">deleted_at </text>
<text text-anchor="start" x="429.2566" y="-363.9" font-family="Arial" font-size="14.00" fill="#666666">[datetime]</text>
<polygon fill="none" stroke="#000000" stroke-width="3" points="351.5,-351.5 351.5,-539.5 588.5,-539.5 588.5,-351.5 351.5,-351.5"/>
</g>
<!-- launcher_versions -->
<g id="node3" class="node">
<title>launcher_versions</title>
<polygon fill="#efefef" stroke="transparent" points="341,-192.5 341,-227.5 598,-227.5 598,-192.5 341,-192.5"/>
<polygon fill="none" stroke="#000000" points="341,-192.5 341,-227.5 598,-227.5 598,-192.5 341,-192.5"/>
<text text-anchor="start" x="347.8588" y="-205.3" font-family="Arial Bold" font-size="18.00" fill="#000000">launcher_versions</text>
<text text-anchor="start" x="493.8874" y="-205.3" font-family="Arial" font-size="14.00" fill="#000000"> </text>
<text text-anchor="start" x="497.778" y="-205.3" font-family="Arial" font-size="14.00" fill="#666666">[BASE TABLE]</text>
<polygon fill="none" stroke="#000000" points="341,-162.5 341,-192.5 598,-192.5 598,-162.5 341,-162.5"/>
<text text-anchor="start" x="348" y="-173.9" font-family="Arial" font-size="14.00" fill="#000000">id </text>
<text text-anchor="start" x="362.7798" y="-173.9" font-family="Arial" font-size="14.00" fill="#666666">[varchar(36)]</text>
<polygon fill="none" stroke="#000000" points="341,-132.5 341,-162.5 598,-162.5 598,-132.5 341,-132.5"/>
<text text-anchor="start" x="348" y="-143.9" font-family="Arial" font-size="14.00" fill="#000000">name </text>
<text text-anchor="start" x="386.899" y="-143.9" font-family="Arial" font-size="14.00" fill="#666666">[varchar(32)]</text>
<polygon fill="none" stroke="#000000" points="341,-102.5 341,-132.5 598,-132.5 598,-102.5 341,-102.5"/>
<text text-anchor="start" x="348" y="-113.9" font-family="Arial" font-size="14.00" fill="#000000">questionnaire_url </text>
<text text-anchor="start" x="459.2482" y="-113.9" font-family="Arial" font-size="14.00" fill="#666666">[text]</text>
<polygon fill="none" stroke="#000000" points="341,-72.5 341,-102.5 598,-102.5 598,-72.5 341,-72.5"/>
<text text-anchor="start" x="348" y="-83.9" font-family="Arial" font-size="14.00" fill="#000000">created_at </text>
<text text-anchor="start" x="418.028" y="-83.9" font-family="Arial" font-size="14.00" fill="#666666">[datetime]</text>
<polygon fill="none" stroke="#000000" points="341,-42.5 341,-72.5 598,-72.5 598,-42.5 341,-42.5"/>
<text text-anchor="start" x="348" y="-53.9" font-family="Arial" font-size="14.00" fill="#000000">deleted_at </text>
<text text-anchor="start" x="417.2566" y="-53.9" font-family="Arial" font-size="14.00" fill="#666666">[datetime]</text>
</g>
<!-- launcher_users&#45;&gt;launcher_versions -->
<g id="edge2" class="edge">
<title>launcher_users:launcher_version_id&#45;&gt;launcher_versions:id</title>
<path fill="none" stroke="#000000" d="M342.8226,-456.6282C288.7062,-446.7228 311.6666,-354.8508 353,-307 424.9439,-223.7122 526.0561,-354.2878 598,-271 625.1645,-239.5523 639.5556,-177.5 598,-177.5"/>
<polygon fill="#000000" stroke="#000000" points="343.0365,-456.6465 352.6159,-461.9836 348.0182,-457.0732 353,-457.5 353,-457.5 353,-457.5 348.0182,-457.0732 353.3841,-453.0164 343.0365,-456.6465 343.0365,-456.6465"/>
<text text-anchor="start" x="7.265" y="-467.5" font-family="Arial" font-size="10.00" fill="#000000">FOREIGN KEY (launcher_version_id) REFERENCES launcher_versions (id)</text>
</g>
<!-- launcher_sessions -->
<g id="node2" class="node">
<title>launcher_sessions</title>
<polygon fill="#efefef" stroke="transparent" points="340,-842.5 340,-877.5 600,-877.5 600,-842.5 340,-842.5"/>
<polygon fill="none" stroke="#000000" points="340,-842.5 340,-877.5 600,-877.5 600,-842.5 340,-842.5"/>
<text text-anchor="start" x="346.8549" y="-855.3" font-family="Arial Bold" font-size="18.00" fill="#000000">launcher_sessions</text>
<text text-anchor="start" x="495.8913" y="-855.3" font-family="Arial" font-size="14.00" fill="#000000"> </text>
<text text-anchor="start" x="499.7819" y="-855.3" font-family="Arial" font-size="14.00" fill="#666666">[BASE TABLE]</text>
<polygon fill="none" stroke="#000000" points="340,-812.5 340,-842.5 600,-842.5 600,-812.5 340,-812.5"/>
<text text-anchor="start" x="347" y="-823.9" font-family="Arial" font-size="14.00" fill="#000000">id </text>
<text text-anchor="start" x="361.7798" y="-823.9" font-family="Arial" font-size="14.00" fill="#666666">[varchar(36)]</text>
<polygon fill="none" stroke="#000000" points="340,-782.5 340,-812.5 600,-812.5 600,-782.5 340,-782.5"/>
<text text-anchor="start" x="347" y="-793.9" font-family="Arial" font-size="14.00" fill="#000000">launcher_user_id </text>
<text text-anchor="start" x="458.251" y="-793.9" font-family="Arial" font-size="14.00" fill="#666666">[varchar(36)]</text>
<polygon fill="none" stroke="#000000" points="340,-752.5 340,-782.5 600,-782.5 600,-752.5 340,-752.5"/>
<text text-anchor="start" x="347" y="-763.9" font-family="Arial" font-size="14.00" fill="#000000">access_token </text>
<text text-anchor="start" x="436.4768" y="-763.9" font-family="Arial" font-size="14.00" fill="#666666">[varchar(64)]</text>
<polygon fill="none" stroke="#000000" points="340,-722.5 340,-752.5 600,-752.5 600,-722.5 340,-722.5"/>
<text text-anchor="start" x="347" y="-733.9" font-family="Arial" font-size="14.00" fill="#000000">expires_at </text>
<text text-anchor="start" x="415.4614" y="-733.9" font-family="Arial" font-size="14.00" fill="#666666">[datetime]</text>
<polygon fill="none" stroke="#000000" points="340,-692.5 340,-722.5 600,-722.5 600,-692.5 340,-692.5"/>
<text text-anchor="start" x="347" y="-703.9" font-family="Arial" font-size="14.00" fill="#000000">created_at </text>
<text text-anchor="start" x="417.028" y="-703.9" font-family="Arial" font-size="14.00" fill="#666666">[datetime]</text>
<polygon fill="none" stroke="#000000" points="340,-662.5 340,-692.5 600,-692.5 600,-662.5 340,-662.5"/>
<text text-anchor="start" x="347" y="-673.9" font-family="Arial" font-size="14.00" fill="#000000">deleted_at </text>
<text text-anchor="start" x="416.2566" y="-673.9" font-family="Arial" font-size="14.00" fill="#666666">[datetime]</text>
</g>
<!-- launcher_sessions&#45;&gt;launcher_users -->
<g id="edge1" class="edge">
<title>launcher_sessions:launcher_user_id&#45;&gt;launcher_users:id</title>
<path fill="none" stroke="#000000" d="M609.8734,-795.183C667.4848,-766.815 652.4481,-487.5 587,-487.5"/>
<polygon fill="#000000" stroke="#000000" points="609.7355,-795.2153 598.9719,-793.119 604.8678,-796.3576 600,-797.5 600,-797.5 600,-797.5 604.8678,-796.3576 601.0281,-801.881 609.7355,-795.2153 609.7355,-795.2153"/>
<text text-anchor="start" x="607.043" y="-807.5" font-family="Arial" font-size="10.00" fill="#000000">FOREIGN KEY (launcher_user_id) REFERENCES launcher_users (id)</text>
</g>
</g>
</svg>
