<?xml version="1.0" encoding="UTF-8" standalone="no"?>
<!DOCTYPE svg PUBLIC "-//W3C//DTD SVG 1.1//EN"
 "http://www.w3.org/Graphics/SVG/1.1/DTD/svg11.dtd">
<!-- Generated by graphviz version 12.1.2 (20240928.0832)
 -->
<!-- Title: launcher_users Pages: 1 -->
<svg width="664pt" height="945pt"
 viewBox="0.00 0.00 663.71 944.80" xmlns="http://www.w3.org/2000/svg" xmlns:xlink="http://www.w3.org/1999/xlink">
<g id="graph0" class="graph" transform="scale(1 1) rotate(0) translate(4 940.8)">
<title>launcher_users</title>
<polygon fill="white" stroke="none" points="-4,4 -4,-940.8 659.71,-940.8 659.71,4 -4,4"/>
<!-- launcher_users -->
<g id="node1" class="node">
<title>launcher_users</title>
<polygon fill="#efefef" stroke="none" points="54.7,-512.2 54.7,-547.8 301.15,-547.8 301.15,-512.2 54.7,-512.2"/>
<polygon fill="none" stroke="black" points="54.7,-512.2 54.7,-547.8 301.15,-547.8 301.15,-512.2 54.7,-512.2"/>
<text text-anchor="start" x="61.7" y="-525.6" font-family="Arial Bold" font-size="18.00">launcher_users</text>
<text text-anchor="start" x="169.66" y="-525.6" font-family="Arial" font-size="14.00">    </text>
<text text-anchor="start" x="200.77" y="-525.6" font-family="Arial" font-size="14.00" fill="#666666">[BASE TABLE]</text>
<polygon fill="none" stroke="black" points="54.7,-481.4 54.7,-512.2 301.15,-512.2 301.15,-481.4 54.7,-481.4"/>
<text text-anchor="start" x="61.7" y="-493.6" font-family="Arial" font-size="14.00">id </text>
<text text-anchor="start" x="76.49" y="-493.6" font-family="Arial" font-size="14.00" fill="#666666">[varchar(36)]</text>
<polygon fill="none" stroke="black" points="54.7,-450.6 54.7,-481.4 301.15,-481.4 301.15,-450.6 54.7,-450.6"/>
<text text-anchor="start" x="61.7" y="-462.8" font-family="Arial" font-size="14.00">launcher_version_id </text>
<text text-anchor="start" x="190.89" y="-462.8" font-family="Arial" font-size="14.00" fill="#666666">[varchar(36)]</text>
<polygon fill="none" stroke="black" points="54.7,-419.8 54.7,-450.6 301.15,-450.6 301.15,-419.8 54.7,-419.8"/>
<text text-anchor="start" x="61.7" y="-432" font-family="Arial" font-size="14.00">product_key </text>
<text text-anchor="start" x="141.86" y="-432" font-family="Arial" font-size="14.00" fill="#666666">[varchar(29)]</text>
<polygon fill="none" stroke="black" points="54.7,-389 54.7,-419.8 301.15,-419.8 301.15,-389 54.7,-389"/>
<text text-anchor="start" x="61.7" y="-401.2" font-family="Arial" font-size="14.00">created_at </text>
<text text-anchor="start" x="131.75" y="-401.2" font-family="Arial" font-size="14.00" fill="#666666">[datetime]</text>
<polygon fill="none" stroke="black" points="54.7,-358.2 54.7,-389 301.15,-389 301.15,-358.2 54.7,-358.2"/>
<text text-anchor="start" x="61.7" y="-370.4" font-family="Arial" font-size="14.00">deleted_at </text>
<text text-anchor="start" x="130.98" y="-370.4" font-family="Arial" font-size="14.00" fill="#666666">[datetime]</text>
<polygon fill="none" stroke="black" stroke-width="3" points="53.2,-356.7 53.2,-549.3 302.65,-549.3 302.65,-356.7 53.2,-356.7"/>
</g>
<!-- launcher_versions -->
<g id="node3" class="node">
<title>launcher_versions</title>
<polygon fill="#efefef" stroke="none" points="43.2,-197.2 43.2,-232.8 312.65,-232.8 312.65,-197.2 43.2,-197.2"/>
<polygon fill="none" stroke="black" points="43.2,-197.2 43.2,-232.8 312.65,-232.8 312.65,-197.2 43.2,-197.2"/>
<text text-anchor="start" x="50.2" y="-210.6" font-family="Arial Bold" font-size="18.00">launcher_versions</text>
<text text-anchor="start" x="181.16" y="-210.6" font-family="Arial" font-size="14.00">    </text>
<text text-anchor="start" x="212.27" y="-210.6" font-family="Arial" font-size="14.00" fill="#666666">[BASE TABLE]</text>
<polygon fill="none" stroke="black" points="43.2,-166.4 43.2,-197.2 312.65,-197.2 312.65,-166.4 43.2,-166.4"/>
<text text-anchor="start" x="50.2" y="-178.6" font-family="Arial" font-size="14.00">id </text>
<text text-anchor="start" x="64.99" y="-178.6" font-family="Arial" font-size="14.00" fill="#666666">[varchar(36)]</text>
<polygon fill="none" stroke="black" points="43.2,-135.6 43.2,-166.4 312.65,-166.4 312.65,-135.6 43.2,-135.6"/>
<text text-anchor="start" x="50.2" y="-147.8" font-family="Arial" font-size="14.00">name </text>
<text text-anchor="start" x="89.11" y="-147.8" font-family="Arial" font-size="14.00" fill="#666666">[varchar(32)]</text>
<polygon fill="none" stroke="black" points="43.2,-104.8 43.2,-135.6 312.65,-135.6 312.65,-104.8 43.2,-104.8"/>
<text text-anchor="start" x="50.2" y="-117" font-family="Arial" font-size="14.00">questionnaire_url </text>
<text text-anchor="start" x="161.5" y="-117" font-family="Arial" font-size="14.00" fill="#666666">[text]</text>
<polygon fill="none" stroke="black" points="43.2,-74 43.2,-104.8 312.65,-104.8 312.65,-74 43.2,-74"/>
<text text-anchor="start" x="50.2" y="-86.2" font-family="Arial" font-size="14.00">created_at </text>
<text text-anchor="start" x="120.25" y="-86.2" font-family="Arial" font-size="14.00" fill="#666666">[datetime]</text>
<polygon fill="none" stroke="black" points="43.2,-43.2 43.2,-74 312.65,-74 312.65,-43.2 43.2,-43.2"/>
<text text-anchor="start" x="50.2" y="-55.4" font-family="Arial" font-size="14.00">deleted_at </text>
<text text-anchor="start" x="119.48" y="-55.4" font-family="Arial" font-size="14.00" fill="#666666">[datetime]</text>
</g>
<!-- launcher_users&#45;&gt;launcher_versions -->
<g id="edge2" class="edge">
<title>launcher_users:launcher_version_id&#45;&gt;launcher_versions:id</title>
<path fill="none" stroke="black" d="M312.26,-465.37C429.09,-450.67 436.6,-181.8 313.65,-181.8"/>
<polygon fill="black" stroke="black" points="312.46,-465.36 302.2,-461.49 307.14,-465.69 302.81,-465.96 302.81,-465.96 302.81,-465.96 307.14,-465.69 302.76,-470.47 312.46,-465.36"/>
<text text-anchor="start" x="309.15" y="-476" font-family="Arial" font-size="10.00">FOREIGN KEY (launcher_version_id) REFERENCES launcher_versions (id)</text>
</g>
<!-- launcher_sessions -->
<g id="node2" class="node">
<title>launcher_sessions</title>
<polygon fill="#efefef" stroke="none" points="43.69,-858 43.69,-893.6 312.15,-893.6 312.15,-858 43.69,-858"/>
<polygon fill="none" stroke="black" points="43.69,-858 43.69,-893.6 312.15,-893.6 312.15,-858 43.69,-858"/>
<text text-anchor="start" x="50.69" y="-871.4" font-family="Arial Bold" font-size="18.00">launcher_sessions</text>
<text text-anchor="start" x="180.66" y="-871.4" font-family="Arial" font-size="14.00">    </text>
<text text-anchor="start" x="211.78" y="-871.4" font-family="Arial" font-size="14.00" fill="#666666">[BASE TABLE]</text>
<polygon fill="none" stroke="black" points="43.69,-827.2 43.69,-858 312.15,-858 312.15,-827.2 43.69,-827.2"/>
<text text-anchor="start" x="50.69" y="-839.4" font-family="Arial" font-size="14.00">id </text>
<text text-anchor="start" x="65.48" y="-839.4" font-family="Arial" font-size="14.00" fill="#666666">[varchar(36)]</text>
<polygon fill="none" stroke="black" points="43.69,-796.4 43.69,-827.2 312.15,-827.2 312.15,-796.4 43.69,-796.4"/>
<text text-anchor="start" x="50.69" y="-808.6" font-family="Arial" font-size="14.00">launcher_user_id </text>
<text text-anchor="start" x="161.99" y="-808.6" font-family="Arial" font-size="14.00" fill="#666666">[varchar(36)]</text>
<polygon fill="none" stroke="black" points="43.69,-765.6 43.69,-796.4 312.15,-796.4 312.15,-765.6 43.69,-765.6"/>
<text text-anchor="start" x="50.69" y="-777.8" font-family="Arial" font-size="14.00">access_token </text>
<text text-anchor="start" x="140.19" y="-777.8" font-family="Arial" font-size="14.00" fill="#666666">[varchar(64)]</text>
<polygon fill="none" stroke="black" points="43.69,-734.8 43.69,-765.6 312.15,-765.6 312.15,-734.8 43.69,-734.8"/>
<text text-anchor="start" x="50.69" y="-747" font-family="Arial" font-size="14.00">expires_at </text>
<text text-anchor="start" x="119.17" y="-747" font-family="Arial" font-size="14.00" fill="#666666">[datetime]</text>
<polygon fill="none" stroke="black" points="43.69,-704 43.69,-734.8 312.15,-734.8 312.15,-704 43.69,-704"/>
<text text-anchor="start" x="50.69" y="-716.2" font-family="Arial" font-size="14.00">created_at </text>
<text text-anchor="start" x="120.74" y="-716.2" font-family="Arial" font-size="14.00" fill="#666666">[datetime]</text>
<polygon fill="none" stroke="black" points="43.69,-673.2 43.69,-704 312.15,-704 312.15,-673.2 43.69,-673.2"/>
<text text-anchor="start" x="50.69" y="-685.4" font-family="Arial" font-size="14.00">deleted_at </text>
<text text-anchor="start" x="119.97" y="-685.4" font-family="Arial" font-size="14.00" fill="#666666">[datetime]</text>
</g>
<!-- launcher_sessions&#45;&gt;launcher_users -->
<g id="edge1" class="edge">
<title>launcher_sessions:launcher_user_id&#45;&gt;launcher_users:id</title>
<path fill="none" stroke="black" d="M323.2,-809.45C381.93,-780.62 368.63,-496.8 302.15,-496.8"/>
<polygon fill="black" stroke="black" points="323.22,-809.44 312.45,-807.34 318.02,-810.66 313.81,-811.65 313.81,-811.65 313.81,-811.65 318.02,-810.66 314.51,-816.1 323.22,-809.44"/>
<text text-anchor="start" x="320.15" y="-821.8" font-family="Arial" font-size="10.00">FOREIGN KEY (launcher_user_id) REFERENCES launcher_users (id)</text>
</g>
</g>
</svg>
