<?xml version="1.0" encoding="UTF-8" standalone="no"?>
<!DOCTYPE svg PUBLIC "-//W3C//DTD SVG 1.1//EN"
 "http://www.w3.org/Graphics/SVG/1.1/DTD/svg11.dtd">
<!-- Generated by graphviz version 12.1.2 (20240928.0832)
 -->
<!-- Title: launcher_versions Pages: 1 -->
<svg width="889pt" height="602pt"
 viewBox="0.00 0.00 889.24 602.00" xmlns="http://www.w3.org/2000/svg" xmlns:xlink="http://www.w3.org/1999/xlink">
<g id="graph0" class="graph" transform="scale(1 1) rotate(0) translate(4 598)">
<title>launcher_versions</title>
<polygon fill="white" stroke="none" points="-4,4 -4,-598 885.24,-598 885.24,4 -4,4"/>
<!-- launcher_versions -->
<g id="node1" class="node">
<title>launcher_versions</title>
<polygon fill="#efefef" stroke="none" points="303.62,-200.2 303.62,-235.8 573.07,-235.8 573.07,-200.2 303.62,-200.2"/>
<polygon fill="none" stroke="black" points="303.62,-200.2 303.62,-235.8 573.07,-235.8 573.07,-200.2 303.62,-200.2"/>
<text text-anchor="start" x="310.62" y="-213.6" font-family="Arial Bold" font-size="18.00">launcher_versions</text>
<text text-anchor="start" x="441.58" y="-213.6" font-family="Arial" font-size="14.00">    </text>
<text text-anchor="start" x="472.69" y="-213.6" font-family="Arial" font-size="14.00" fill="#666666">[BASE TABLE]</text>
<polygon fill="none" stroke="black" points="303.62,-169.4 303.62,-200.2 573.07,-200.2 573.07,-169.4 303.62,-169.4"/>
<text text-anchor="start" x="310.62" y="-181.6" font-family="Arial" font-size="14.00">id </text>
<text text-anchor="start" x="325.41" y="-181.6" font-family="Arial" font-size="14.00" fill="#666666">[varchar(36)]</text>
<polygon fill="none" stroke="black" points="303.62,-138.6 303.62,-169.4 573.07,-169.4 573.07,-138.6 303.62,-138.6"/>
<text text-anchor="start" x="310.62" y="-150.8" font-family="Arial" font-size="14.00">name </text>
<text text-anchor="start" x="349.53" y="-150.8" font-family="Arial" font-size="14.00" fill="#666666">[varchar(32)]</text>
<polygon fill="none" stroke="black" points="303.62,-107.8 303.62,-138.6 573.07,-138.6 573.07,-107.8 303.62,-107.8"/>
<text text-anchor="start" x="310.62" y="-120" font-family="Arial" font-size="14.00">questionnaire_url </text>
<text text-anchor="start" x="421.92" y="-120" font-family="Arial" font-size="14.00" fill="#666666">[text]</text>
<polygon fill="none" stroke="black" points="303.62,-77 303.62,-107.8 573.07,-107.8 573.07,-77 303.62,-77"/>
<text text-anchor="start" x="310.62" y="-89.2" font-family="Arial" font-size="14.00">created_at </text>
<text text-anchor="start" x="380.67" y="-89.2" font-family="Arial" font-size="14.00" fill="#666666">[datetime]</text>
<polygon fill="none" stroke="black" points="303.62,-46.2 303.62,-77 573.07,-77 573.07,-46.2 303.62,-46.2"/>
<text text-anchor="start" x="310.62" y="-58.4" font-family="Arial" font-size="14.00">deleted_at </text>
<text text-anchor="start" x="379.9" y="-58.4" font-family="Arial" font-size="14.00" fill="#666666">[datetime]</text>
<polygon fill="none" stroke="black" stroke-width="3" points="302.12,-44.7 302.12,-237.3 574.57,-237.3 574.57,-44.7 302.12,-44.7"/>
</g>
<!-- launcher_users -->
<g id="node2" class="node">
<title>launcher_users</title>
<polygon fill="#efefef" stroke="none" points="106.12,-515.2 106.12,-550.8 352.57,-550.8 352.57,-515.2 106.12,-515.2"/>
<polygon fill="none" stroke="black" points="106.12,-515.2 106.12,-550.8 352.57,-550.8 352.57,-515.2 106.12,-515.2"/>
<text text-anchor="start" x="113.12" y="-528.6" font-family="Arial Bold" font-size="18.00">launcher_users</text>
<text text-anchor="start" x="221.08" y="-528.6" font-family="Arial" font-size="14.00">    </text>
<text text-anchor="start" x="252.19" y="-528.6" font-family="Arial" font-size="14.00" fill="#666666">[BASE TABLE]</text>
<polygon fill="none" stroke="black" points="106.12,-484.4 106.12,-515.2 352.57,-515.2 352.57,-484.4 106.12,-484.4"/>
<text text-anchor="start" x="113.12" y="-496.6" font-family="Arial" font-size="14.00">id </text>
<text text-anchor="start" x="127.91" y="-496.6" font-family="Arial" font-size="14.00" fill="#666666">[varchar(36)]</text>
<polygon fill="none" stroke="black" points="106.12,-453.6 106.12,-484.4 352.57,-484.4 352.57,-453.6 106.12,-453.6"/>
<text text-anchor="start" x="113.12" y="-465.8" font-family="Arial" font-size="14.00">launcher_version_id </text>
<text text-anchor="start" x="242.31" y="-465.8" font-family="Arial" font-size="14.00" fill="#666666">[varchar(36)]</text>
<polygon fill="none" stroke="black" points="106.12,-422.8 106.12,-453.6 352.57,-453.6 352.57,-422.8 106.12,-422.8"/>
<text text-anchor="start" x="113.12" y="-435" font-family="Arial" font-size="14.00">product_key </text>
<text text-anchor="start" x="193.28" y="-435" font-family="Arial" font-size="14.00" fill="#666666">[varchar(29)]</text>
<polygon fill="none" stroke="black" points="106.12,-392 106.12,-422.8 352.57,-422.8 352.57,-392 106.12,-392"/>
<text text-anchor="start" x="113.12" y="-404.2" font-family="Arial" font-size="14.00">created_at </text>
<text text-anchor="start" x="183.17" y="-404.2" font-family="Arial" font-size="14.00" fill="#666666">[datetime]</text>
<polygon fill="none" stroke="black" points="106.12,-361.2 106.12,-392 352.57,-392 352.57,-361.2 106.12,-361.2"/>
<text text-anchor="start" x="113.12" y="-373.4" font-family="Arial" font-size="14.00">deleted_at </text>
<text text-anchor="start" x="182.4" y="-373.4" font-family="Arial" font-size="14.00" fill="#666666">[datetime]</text>
</g>
<!-- launcher_users&#45;&gt;launcher_versions -->
<g id="edge1" class="edge">
<title>launcher_users:launcher_version_id&#45;&gt;launcher_versions:id</title>
<path fill="none" stroke="black" d="M363.65,-468.2C416.58,-459.12 381.39,-374.52 352.57,-318 340.3,-293.94 315.93,-306.03 303.62,-282 283.92,-243.55 259.42,-184.8 302.62,-184.8"/>
<polygon fill="black" stroke="black" points="363.87,-468.18 353.54,-464.49 358.55,-468.61 354.23,-468.95 354.23,-468.95 354.23,-468.95 358.55,-468.61 354.25,-473.46 363.87,-468.18"/>
<text text-anchor="start" x="7" y="-479" font-family="Arial" font-size="10.00">FOREIGN KEY (launcher_version_id) REFERENCES launcher_versions (id)</text>
</g>
<!-- launcher_version_game_relations -->
<g id="node3" class="node">
<title>launcher_version_game_relations</title>
<polygon fill="#efefef" stroke="none" points="456.64,-469 456.64,-504.6 838.04,-504.6 838.04,-469 456.64,-469"/>
<polygon fill="none" stroke="black" points="456.64,-469 456.64,-504.6 838.04,-504.6 838.04,-469 456.64,-469"/>
<text text-anchor="start" x="463.64" y="-482.4" font-family="Arial Bold" font-size="18.00">launcher_version_game_relations</text>
<text text-anchor="start" x="706.55" y="-482.4" font-family="Arial" font-size="14.00">    </text>
<text text-anchor="start" x="737.67" y="-482.4" font-family="Arial" font-size="14.00" fill="#666666">[BASE TABLE]</text>
<polygon fill="none" stroke="black" points="456.64,-438.2 456.64,-469 838.04,-469 838.04,-438.2 456.64,-438.2"/>
<text text-anchor="start" x="463.64" y="-450.4" font-family="Arial" font-size="14.00">launcher_version_table_id </text>
<text text-anchor="start" x="630.98" y="-450.4" font-family="Arial" font-size="14.00" fill="#666666">[varchar(36)]</text>
<polygon fill="none" stroke="black" points="456.64,-407.4 456.64,-438.2 838.04,-438.2 838.04,-407.4 456.64,-407.4"/>
<text text-anchor="start" x="463.64" y="-419.6" font-family="Arial" font-size="14.00">game_table_id </text>
<text text-anchor="start" x="559.38" y="-419.6" font-family="Arial" font-size="14.00" fill="#666666">[varchar(36)]</text>
</g>
<!-- launcher_version_game_relations&#45;&gt;launcher_versions -->
<g id="edge2" class="edge">
<title>launcher_version_game_relations:launcher_version_table_id&#45;&gt;launcher_versions:id</title>
<path fill="none" stroke="black" d="M445.38,-452C420.39,-442.78 440.04,-395.81 456.64,-364.2 486.09,-308.12 543.64,-338.09 573.07,-282 593.14,-243.74 617.27,-184.8 574.07,-184.8"/>
<polygon fill="black" stroke="black" points="445.43,-452.01 454.62,-457.99 450.7,-452.83 454.98,-453.5 454.98,-453.5 454.98,-453.5 450.7,-452.83 456.01,-449.1 445.43,-452.01"/>
<text text-anchor="start" x="462.64" y="-463.6" font-family="Arial" font-size="10.00">FOREIGN KEY (launcher_version_table_id) REFERENCES launcher_versions (id)</text>
</g>
</g>
</svg>
