<?xml version="1.0" encoding="UTF-8" standalone="no"?>
<!DOCTYPE svg PUBLIC "-//W3C//DTD SVG 1.1//EN"
 "http://www.w3.org/Graphics/SVG/1.1/DTD/svg11.dtd">
<!-- Generated by graphviz version 2.40.1 (20161225.0304)
 -->
<!-- Title: launcher_sessions Pages: 1 -->
<svg width="641pt" height="622pt"
 viewBox="0.00 0.00 641.00 622.00" xmlns="http://www.w3.org/2000/svg" xmlns:xlink="http://www.w3.org/1999/xlink">
<g id="graph0" class="graph" transform="scale(1 1) rotate(0) translate(4 618)">
<title>launcher_sessions</title>
<polygon fill="#ffffff" stroke="transparent" points="-4,4 -4,-618 637,-618 637,4 -4,4"/>
<!-- launcher_sessions -->
<g id="node1" class="node">
<title>launcher_sessions</title>
<polygon fill="#efefef" stroke="transparent" points="46,-532.5 46,-567.5 306,-567.5 306,-532.5 46,-532.5"/>
<polygon fill="none" stroke="#000000" points="46,-532.5 46,-567.5 306,-567.5 306,-532.5 46,-532.5"/>
<text text-anchor="start" x="52.8549" y="-545.3" font-family="Arial Bold" font-size="18.00" fill="#000000">launcher_sessions</text>
<text text-anchor="start" x="201.8913" y="-545.3" font-family="Arial" font-size="14.00" fill="#000000"> </text>
<text text-anchor="start" x="205.7819" y="-545.3" font-family="Arial" font-size="14.00" fill="#666666">[BASE TABLE]</text>
<polygon fill="none" stroke="#000000" points="46,-502.5 46,-532.5 306,-532.5 306,-502.5 46,-502.5"/>
<text text-anchor="start" x="53" y="-513.9" font-family="Arial" font-size="14.00" fill="#000000">id </text>
<text text-anchor="start" x="67.7798" y="-513.9" font-family="Arial" font-size="14.00" fill="#666666">[varchar(36)]</text>
<polygon fill="none" stroke="#000000" points="46,-472.5 46,-502.5 306,-502.5 306,-472.5 46,-472.5"/>
<text text-anchor="start" x="53" y="-483.9" font-family="Arial" font-size="14.00" fill="#000000">launcher_user_id </text>
<text text-anchor="start" x="164.251" y="-483.9" font-family="Arial" font-size="14.00" fill="#666666">[varchar(36)]</text>
<polygon fill="none" stroke="#000000" points="46,-442.5 46,-472.5 306,-472.5 306,-442.5 46,-442.5"/>
<text text-anchor="start" x="53" y="-453.9" font-family="Arial" font-size="14.00" fill="#000000">access_token </text>
<text text-anchor="start" x="142.4768" y="-453.9" font-family="Arial" font-size="14.00" fill="#666666">[varchar(64)]</text>
<polygon fill="none" stroke="#000000" points="46,-412.5 46,-442.5 306,-442.5 306,-412.5 46,-412.5"/>
<text text-anchor="start" x="53" y="-423.9" font-family="Arial" font-size="14.00" fill="#000000">expires_at </text>
<text text-anchor="start" x="121.4614" y="-423.9" font-family="Arial" font-size="14.00" fill="#666666">[datetime]</text>
<polygon fill="none" stroke="#000000" points="46,-382.5 46,-412.5 306,-412.5 306,-382.5 46,-382.5"/>
<text text-anchor="start" x="53" y="-393.9" font-family="Arial" font-size="14.00" fill="#000000">created_at </text>
<text text-anchor="start" x="123.028" y="-393.9" font-family="Arial" font-size="14.00" fill="#666666">[datetime]</text>
<polygon fill="none" stroke="#000000" points="46,-352.5 46,-382.5 306,-382.5 306,-352.5 46,-352.5"/>
<text text-anchor="start" x="53" y="-363.9" font-family="Arial" font-size="14.00" fill="#000000">deleted_at </text>
<text text-anchor="start" x="122.2566" y="-363.9" font-family="Arial" font-size="14.00" fill="#666666">[datetime]</text>
<polygon fill="none" stroke="#000000" stroke-width="3" points="44.5,-351.5 44.5,-569.5 307.5,-569.5 307.5,-351.5 44.5,-351.5"/>
</g>
<!-- launcher_users -->
<g id="node2" class="node">
<title>launcher_users</title>
<polygon fill="#efefef" stroke="transparent" points="59,-192.5 59,-227.5 293,-227.5 293,-192.5 59,-192.5"/>
<polygon fill="none" stroke="#000000" points="59,-192.5 59,-227.5 293,-227.5 293,-192.5 59,-192.5"/>
<text text-anchor="start" x="65.859" y="-205.3" font-family="Arial Bold" font-size="18.00" fill="#000000">launcher_users</text>
<text text-anchor="start" x="188.8872" y="-205.3" font-family="Arial" font-size="14.00" fill="#000000"> </text>
<text text-anchor="start" x="192.7778" y="-205.3" font-family="Arial" font-size="14.00" fill="#666666">[BASE TABLE]</text>
<polygon fill="none" stroke="#000000" points="59,-162.5 59,-192.5 293,-192.5 293,-162.5 59,-162.5"/>
<text text-anchor="start" x="66" y="-173.9" font-family="Arial" font-size="14.00" fill="#000000">id </text>
<text text-anchor="start" x="80.7798" y="-173.9" font-family="Arial" font-size="14.00" fill="#666666">[varchar(36)]</text>
<polygon fill="none" stroke="#000000" points="59,-132.5 59,-162.5 293,-162.5 293,-132.5 59,-132.5"/>
<text text-anchor="start" x="66" y="-143.9" font-family="Arial" font-size="14.00" fill="#000000">launcher_version_id </text>
<text text-anchor="start" x="195.1402" y="-143.9" font-family="Arial" font-size="14.00" fill="#666666">[varchar(36)]</text>
<polygon fill="none" stroke="#000000" points="59,-102.5 59,-132.5 293,-132.5 293,-102.5 59,-102.5"/>
<text text-anchor="start" x="66" y="-113.9" font-family="Arial" font-size="14.00" fill="#000000">product_key </text>
<text text-anchor="start" x="146.1374" y="-113.9" font-family="Arial" font-size="14.00" fill="#666666">[varchar(29)]</text>
<polygon fill="none" stroke="#000000" points="59,-72.5 59,-102.5 293,-102.5 293,-72.5 59,-72.5"/>
<text text-anchor="start" x="66" y="-83.9" font-family="Arial" font-size="14.00" fill="#000000">created_at </text>
<text text-anchor="start" x="136.028" y="-83.9" font-family="Arial" font-size="14.00" fill="#666666">[datetime]</text>
<polygon fill="none" stroke="#000000" points="59,-42.5 59,-72.5 293,-72.5 293,-42.5 59,-42.5"/>
<text text-anchor="start" x="66" y="-53.9" font-family="Arial" font-size="14.00" fill="#000000">deleted_at </text>
<text text-anchor="start" x="135.2566" y="-53.9" font-family="Arial" font-size="14.00" fill="#666666">[datetime]</text>
</g>
<!-- launcher_sessions&#45;&gt;launcher_users -->
<g id="edge1" class="edge">
<title>launcher_sessions:launcher_user_id&#45;&gt;launcher_users:id</title>
<path fill="none" stroke="#000000" d="M315.8734,-485.183C373.4848,-456.815 358.4481,-177.5 293,-177.5"/>
<polygon fill="#000000" stroke="#000000" points="315.7355,-485.2153 304.9719,-483.119 310.8678,-486.3576 306,-487.5 306,-487.5 306,-487.5 310.8678,-486.3576 307.0281,-491.881 315.7355,-485.2153 315.7355,-485.2153"/>
<text text-anchor="start" x="313.043" y="-497.5" font-family="Arial" font-size="10.00" fill="#000000">FOREIGN KEY (launcher_user_id) REFERENCES launcher_users (id)</text>
</g>
</g>
</svg>
