<?xml version="1.0" encoding="UTF-8" standalone="no"?>
<!DOCTYPE svg PUBLIC "-//W3C//DTD SVG 1.1//EN"
 "http://www.w3.org/Graphics/SVG/1.1/DTD/svg11.dtd">
<!-- Generated by graphviz version 2.40.1 (20161225.0304)
 -->
<!-- Title: launcher_version_game_relations Pages: 1 -->
<svg width="1047pt" height="502pt"
 viewBox="0.00 0.00 1047.00 502.00" xmlns="http://www.w3.org/2000/svg" xmlns:xlink="http://www.w3.org/1999/xlink">
<g id="graph0" class="graph" transform="scale(1 1) rotate(0) translate(4 498)">
<title>launcher_version_game_relations</title>
<polygon fill="#ffffff" stroke="transparent" points="-4,4 -4,-498 1043,-498 1043,4 -4,4"/>
<!-- launcher_version_game_relations -->
<g id="node1" class="node">
<title>launcher_version_game_relations</title>
<polygon fill="#efefef" stroke="transparent" points="380,-412.5 380,-447.5 761,-447.5 761,-412.5 380,-412.5"/>
<polygon fill="none" stroke="#000000" points="380,-412.5 380,-447.5 761,-447.5 761,-412.5 380,-412.5"/>
<text text-anchor="start" x="386.8434" y="-425.3" font-family="Arial Bold" font-size="18.00" fill="#000000">launcher_version_game_relations</text>
<text text-anchor="start" x="656.9028" y="-425.3" font-family="Arial" font-size="14.00" fill="#000000"> </text>
<text text-anchor="start" x="660.7934" y="-425.3" font-family="Arial" font-size="14.00" fill="#666666">[BASE TABLE]</text>
<polygon fill="none" stroke="#000000" points="380,-382.5 380,-412.5 761,-412.5 761,-382.5 380,-382.5"/>
<text text-anchor="start" x="387" y="-393.9" font-family="Arial" font-size="14.00" fill="#000000">launcher_version_table_id </text>
<text text-anchor="start" x="554.2678" y="-393.9" font-family="Arial" font-size="14.00" fill="#666666">[varchar(36)]</text>
<polygon fill="none" stroke="#000000" points="380,-352.5 380,-382.5 761,-382.5 761,-352.5 380,-352.5"/>
<text text-anchor="start" x="387" y="-363.9" font-family="Arial" font-size="14.00" fill="#000000">game_table_id </text>
<text text-anchor="start" x="482.6984" y="-363.9" font-family="Arial" font-size="14.00" fill="#666666">[varchar(36)]</text>
<polygon fill="none" stroke="#000000" stroke-width="3" points="378,-351.5 378,-449.5 762,-449.5 762,-351.5 378,-351.5"/>
</g>
<!-- launcher_versions -->
<g id="node2" class="node">
<title>launcher_versions</title>
<polygon fill="#efefef" stroke="transparent" points="285,-192.5 285,-227.5 542,-227.5 542,-192.5 285,-192.5"/>
<polygon fill="none" stroke="#000000" points="285,-192.5 285,-227.5 542,-227.5 542,-192.5 285,-192.5"/>
<text text-anchor="start" x="291.8588" y="-205.3" font-family="Arial Bold" font-size="18.00" fill="#000000">launcher_versions</text>
<text text-anchor="start" x="437.8874" y="-205.3" font-family="Arial" font-size="14.00" fill="#000000"> </text>
<text text-anchor="start" x="441.778" y="-205.3" font-family="Arial" font-size="14.00" fill="#666666">[BASE TABLE]</text>
<polygon fill="none" stroke="#000000" points="285,-162.5 285,-192.5 542,-192.5 542,-162.5 285,-162.5"/>
<text text-anchor="start" x="292" y="-173.9" font-family="Arial" font-size="14.00" fill="#000000">id </text>
<text text-anchor="start" x="306.7798" y="-173.9" font-family="Arial" font-size="14.00" fill="#666666">[varchar(36)]</text>
<polygon fill="none" stroke="#000000" points="285,-132.5 285,-162.5 542,-162.5 542,-132.5 285,-132.5"/>
<text text-anchor="start" x="292" y="-143.9" font-family="Arial" font-size="14.00" fill="#000000">name </text>
<text text-anchor="start" x="330.899" y="-143.9" font-family="Arial" font-size="14.00" fill="#666666">[varchar(32)]</text>
<polygon fill="none" stroke="#000000" points="285,-102.5 285,-132.5 542,-132.5 542,-102.5 285,-102.5"/>
<text text-anchor="start" x="292" y="-113.9" font-family="Arial" font-size="14.00" fill="#000000">questionnaire_url </text>
<text text-anchor="start" x="403.2482" y="-113.9" font-family="Arial" font-size="14.00" fill="#666666">[text]</text>
<polygon fill="none" stroke="#000000" points="285,-72.5 285,-102.5 542,-102.5 542,-72.5 285,-72.5"/>
<text text-anchor="start" x="292" y="-83.9" font-family="Arial" font-size="14.00" fill="#000000">created_at </text>
<text text-anchor="start" x="362.028" y="-83.9" font-family="Arial" font-size="14.00" fill="#666666">[datetime]</text>
<polygon fill="none" stroke="#000000" points="285,-42.5 285,-72.5 542,-72.5 542,-42.5 285,-42.5"/>
<text text-anchor="start" x="292" y="-53.9" font-family="Arial" font-size="14.00" fill="#000000">deleted_at </text>
<text text-anchor="start" x="361.2566" y="-53.9" font-family="Arial" font-size="14.00" fill="#666666">[datetime]</text>
</g>
<!-- launcher_version_game_relations&#45;&gt;launcher_versions -->
<g id="edge1" class="edge">
<title>launcher_version_game_relations:launcher_version_table_id&#45;&gt;launcher_versions:id</title>
<path fill="none" stroke="#000000" d="M370.1078,-396.0126C342.6893,-386.658 357.1914,-335.4336 380,-307 426.1514,-249.467 495.8486,-328.533 542,-271 568.0024,-238.5849 583.5556,-177.5 542,-177.5"/>
<polygon fill="#000000" stroke="#000000" points="370.1112,-396.013 379.3309,-401.95 375.0556,-396.7565 380,-397.5 380,-397.5 380,-397.5 375.0556,-396.7565 380.6691,-393.05 370.1112,-396.013 370.1112,-396.013"/>
<text text-anchor="start" x="6.648" y="-407.5" font-family="Arial" font-size="10.00" fill="#000000">FOREIGN KEY (launcher_version_table_id) REFERENCES launcher_versions (id)</text>
</g>
<!-- games -->
<g id="node3" class="node">
<title>games</title>
<polygon fill="#efefef" stroke="transparent" points="646,-192.5 646,-227.5 811,-227.5 811,-192.5 646,-192.5"/>
<polygon fill="none" stroke="#000000" points="646,-192.5 646,-227.5 811,-227.5 811,-192.5 646,-192.5"/>
<text text-anchor="start" x="652.8677" y="-205.3" font-family="Arial Bold" font-size="18.00" fill="#000000">games</text>
<text text-anchor="start" x="706.8785" y="-205.3" font-family="Arial" font-size="14.00" fill="#000000"> </text>
<text text-anchor="start" x="710.7691" y="-205.3" font-family="Arial" font-size="14.00" fill="#666666">[BASE TABLE]</text>
<polygon fill="none" stroke="#000000" points="646,-162.5 646,-192.5 811,-192.5 811,-162.5 646,-162.5"/>
<text text-anchor="start" x="653" y="-173.9" font-family="Arial" font-size="14.00" fill="#000000">id </text>
<text text-anchor="start" x="667.7798" y="-173.9" font-family="Arial" font-size="14.00" fill="#666666">[varchar(36)]</text>
<polygon fill="none" stroke="#000000" points="646,-132.5 646,-162.5 811,-162.5 811,-132.5 646,-132.5"/>
<text text-anchor="start" x="653" y="-143.9" font-family="Arial" font-size="14.00" fill="#000000">name </text>
<text text-anchor="start" x="691.899" y="-143.9" font-family="Arial" font-size="14.00" fill="#666666">[varchar(256)]</text>
<polygon fill="none" stroke="#000000" points="646,-102.5 646,-132.5 811,-132.5 811,-102.5 646,-102.5"/>
<text text-anchor="start" x="653" y="-113.9" font-family="Arial" font-size="14.00" fill="#000000">description </text>
<text text-anchor="start" x="724.568" y="-113.9" font-family="Arial" font-size="14.00" fill="#666666">[text]</text>
<polygon fill="none" stroke="#000000" points="646,-72.5 646,-102.5 811,-102.5 811,-72.5 646,-72.5"/>
<text text-anchor="start" x="653" y="-83.9" font-family="Arial" font-size="14.00" fill="#000000">created_at </text>
<text text-anchor="start" x="723.028" y="-83.9" font-family="Arial" font-size="14.00" fill="#666666">[datetime]</text>
<polygon fill="none" stroke="#000000" points="646,-42.5 646,-72.5 811,-72.5 811,-42.5 646,-42.5"/>
<text text-anchor="start" x="653" y="-53.9" font-family="Arial" font-size="14.00" fill="#000000">deleted_at </text>
<text text-anchor="start" x="722.2566" y="-53.9" font-family="Arial" font-size="14.00" fill="#666666">[datetime]</text>
</g>
<!-- launcher_version_game_relations&#45;&gt;games -->
<g id="edge2" class="edge">
<title>launcher_version_game_relations:game_table_id&#45;&gt;games:id</title>
<path fill="none" stroke="#000000" d="M770.957,-364.8695C784.3407,-355.7841 774.4341,-325.2824 761,-307 729.287,-263.8418 677.713,-314.1582 646,-271 621.3934,-237.513 604.4444,-177.5 646,-177.5"/>
<polygon fill="#000000" stroke="#000000" points="770.6683,-364.9457 759.8506,-363.1493 765.8341,-366.2228 761,-367.5 761,-367.5 761,-367.5 765.8341,-366.2228 762.1494,-371.8507 770.6683,-364.9457 770.6683,-364.9457"/>
<text text-anchor="start" x="767.769" y="-377.5" font-family="Arial" font-size="10.00" fill="#000000">FOREIGN KEY (game_table_id) REFERENCES games (id)</text>
</g>
</g>
</svg>
