<?xml version="1.0" encoding="UTF-8" standalone="no"?>
<!DOCTYPE svg PUBLIC "-//W3C//DTD SVG 1.1//EN"
 "http://www.w3.org/Graphics/SVG/1.1/DTD/svg11.dtd">
<!-- Generated by graphviz version 2.40.1 (20161225.0304)
 -->
<!-- Title: launcher_version_game_relations Pages: 1 -->
<svg width="1047pt" height="532pt"
 viewBox="0.00 0.00 1047.00 532.00" xmlns="http://www.w3.org/2000/svg" xmlns:xlink="http://www.w3.org/1999/xlink">
<g id="graph0" class="graph" transform="scale(1 1) rotate(0) translate(4 528)">
<title>launcher_version_game_relations</title>
<polygon fill="#ffffff" stroke="transparent" points="-4,4 -4,-528 1043,-528 1043,4 -4,4"/>
<!-- launcher_version_game_relations -->
<g id="node1" class="node">
<title>launcher_version_game_relations</title>
<polygon fill="#efefef" stroke="transparent" points="380,-442.5 380,-477.5 761,-477.5 761,-442.5 380,-442.5"/>
<polygon fill="none" stroke="#000000" points="380,-442.5 380,-477.5 761,-477.5 761,-442.5 380,-442.5"/>
<text text-anchor="start" x="386.8434" y="-455.3" font-family="Arial Bold" font-size="18.00" fill="#000000">launcher_version_game_relations</text>
<text text-anchor="start" x="656.9028" y="-455.3" font-family="Arial" font-size="14.00" fill="#000000"> </text>
<text text-anchor="start" x="660.7934" y="-455.3" font-family="Arial" font-size="14.00" fill="#666666">[BASE TABLE]</text>
<polygon fill="none" stroke="#000000" points="380,-412.5 380,-442.5 761,-442.5 761,-412.5 380,-412.5"/>
<text text-anchor="start" x="387" y="-423.9" font-family="Arial" font-size="14.00" fill="#000000">launcher_version_table_id </text>
<text text-anchor="start" x="554.2678" y="-423.9" font-family="Arial" font-size="14.00" fill="#666666">[varchar(36)]</text>
<polygon fill="none" stroke="#000000" points="380,-382.5 380,-412.5 761,-412.5 761,-382.5 380,-382.5"/>
<text text-anchor="start" x="387" y="-393.9" font-family="Arial" font-size="14.00" fill="#000000">game_table_id </text>
<text text-anchor="start" x="482.6984" y="-393.9" font-family="Arial" font-size="14.00" fill="#666666">[varchar(36)]</text>
<polygon fill="none" stroke="#000000" stroke-width="3" points="378,-381.5 378,-479.5 762,-479.5 762,-381.5 378,-381.5"/>
</g>
<!-- launcher_versions -->
<g id="node2" class="node">
<title>launcher_versions</title>
<polygon fill="#efefef" stroke="transparent" points="281,-207.5 281,-242.5 538,-242.5 538,-207.5 281,-207.5"/>
<polygon fill="none" stroke="#000000" points="281,-207.5 281,-242.5 538,-242.5 538,-207.5 281,-207.5"/>
<text text-anchor="start" x="287.8588" y="-220.3" font-family="Arial Bold" font-size="18.00" fill="#000000">launcher_versions</text>
<text text-anchor="start" x="433.8874" y="-220.3" font-family="Arial" font-size="14.00" fill="#000000"> </text>
<text text-anchor="start" x="437.778" y="-220.3" font-family="Arial" font-size="14.00" fill="#666666">[BASE TABLE]</text>
<polygon fill="none" stroke="#000000" points="281,-177.5 281,-207.5 538,-207.5 538,-177.5 281,-177.5"/>
<text text-anchor="start" x="288" y="-188.9" font-family="Arial" font-size="14.00" fill="#000000">id </text>
<text text-anchor="start" x="302.7798" y="-188.9" font-family="Arial" font-size="14.00" fill="#666666">[varchar(36)]</text>
<polygon fill="none" stroke="#000000" points="281,-147.5 281,-177.5 538,-177.5 538,-147.5 281,-147.5"/>
<text text-anchor="start" x="288" y="-158.9" font-family="Arial" font-size="14.00" fill="#000000">name </text>
<text text-anchor="start" x="326.899" y="-158.9" font-family="Arial" font-size="14.00" fill="#666666">[varchar(32)]</text>
<polygon fill="none" stroke="#000000" points="281,-117.5 281,-147.5 538,-147.5 538,-117.5 281,-117.5"/>
<text text-anchor="start" x="288" y="-128.9" font-family="Arial" font-size="14.00" fill="#000000">questionnaire_url </text>
<text text-anchor="start" x="399.2482" y="-128.9" font-family="Arial" font-size="14.00" fill="#666666">[text]</text>
<polygon fill="none" stroke="#000000" points="281,-87.5 281,-117.5 538,-117.5 538,-87.5 281,-87.5"/>
<text text-anchor="start" x="288" y="-98.9" font-family="Arial" font-size="14.00" fill="#000000">created_at </text>
<text text-anchor="start" x="358.028" y="-98.9" font-family="Arial" font-size="14.00" fill="#666666">[datetime]</text>
<polygon fill="none" stroke="#000000" points="281,-57.5 281,-87.5 538,-87.5 538,-57.5 281,-57.5"/>
<text text-anchor="start" x="288" y="-68.9" font-family="Arial" font-size="14.00" fill="#000000">deleted_at </text>
<text text-anchor="start" x="357.2566" y="-68.9" font-family="Arial" font-size="14.00" fill="#666666">[datetime]</text>
</g>
<!-- launcher_version_game_relations&#45;&gt;launcher_versions -->
<g id="edge1" class="edge">
<title>launcher_version_game_relations:launcher_version_table_id&#45;&gt;launcher_versions:id</title>
<path fill="none" stroke="#000000" d="M369.7941,-425.9188C343.0779,-416.4182 358.6384,-366.3421 380,-337 423.4302,-277.3447 494.5698,-345.6553 538,-286 562.4582,-252.4045 579.5556,-192.5 538,-192.5"/>
<polygon fill="#000000" stroke="#000000" points="370.1179,-425.9689 379.311,-431.9469 375.0589,-426.7345 380,-427.5 380,-427.5 380,-427.5 375.0589,-426.7345 380.689,-423.0531 370.1179,-425.9689 370.1179,-425.9689"/>
<text text-anchor="start" x="6.648" y="-437.5" font-family="Arial" font-size="10.00" fill="#000000">FOREIGN KEY (launcher_version_table_id) REFERENCES launcher_versions (id)</text>
</g>
<!-- games -->
<g id="node3" class="node">
<title>games</title>
<polygon fill="#efefef" stroke="transparent" points="642,-222.5 642,-257.5 822,-257.5 822,-222.5 642,-222.5"/>
<polygon fill="none" stroke="#000000" points="642,-222.5 642,-257.5 822,-257.5 822,-222.5 642,-222.5"/>
<text text-anchor="start" x="656.3677" y="-235.3" font-family="Arial Bold" font-size="18.00" fill="#000000">games</text>
<text text-anchor="start" x="710.3785" y="-235.3" font-family="Arial" font-size="14.00" fill="#000000"> </text>
<text text-anchor="start" x="714.2691" y="-235.3" font-family="Arial" font-size="14.00" fill="#666666">[BASE TABLE]</text>
<polygon fill="none" stroke="#000000" points="642,-192.5 642,-222.5 822,-222.5 822,-192.5 642,-192.5"/>
<text text-anchor="start" x="649" y="-203.9" font-family="Arial" font-size="14.00" fill="#000000">id </text>
<text text-anchor="start" x="663.7798" y="-203.9" font-family="Arial" font-size="14.00" fill="#666666">[varchar(36)]</text>
<polygon fill="none" stroke="#000000" points="642,-162.5 642,-192.5 822,-192.5 822,-162.5 642,-162.5"/>
<text text-anchor="start" x="649" y="-173.9" font-family="Arial" font-size="14.00" fill="#000000">name </text>
<text text-anchor="start" x="687.899" y="-173.9" font-family="Arial" font-size="14.00" fill="#666666">[varchar(256)]</text>
<polygon fill="none" stroke="#000000" points="642,-132.5 642,-162.5 822,-162.5 822,-132.5 642,-132.5"/>
<text text-anchor="start" x="649" y="-143.9" font-family="Arial" font-size="14.00" fill="#000000">description </text>
<text text-anchor="start" x="720.568" y="-143.9" font-family="Arial" font-size="14.00" fill="#666666">[text]</text>
<polygon fill="none" stroke="#000000" points="642,-102.5 642,-132.5 822,-132.5 822,-102.5 642,-102.5"/>
<text text-anchor="start" x="649" y="-113.9" font-family="Arial" font-size="14.00" fill="#000000">created_at </text>
<text text-anchor="start" x="719.028" y="-113.9" font-family="Arial" font-size="14.00" fill="#666666">[datetime]</text>
<polygon fill="none" stroke="#000000" points="642,-72.5 642,-102.5 822,-102.5 822,-72.5 642,-72.5"/>
<text text-anchor="start" x="649" y="-83.9" font-family="Arial" font-size="14.00" fill="#000000">deleted_at </text>
<text text-anchor="start" x="718.2566" y="-83.9" font-family="Arial" font-size="14.00" fill="#666666">[datetime]</text>
<polygon fill="none" stroke="#000000" points="642,-42.5 642,-72.5 822,-72.5 822,-42.5 642,-42.5"/>
<text text-anchor="start" x="648.7742" y="-53.9" font-family="Arial" font-size="14.00" fill="#000000">visibility_type_id </text>
<text text-anchor="start" x="753.7812" y="-53.9" font-family="Arial" font-size="14.00" fill="#666666">[tinyint(4)]</text>
</g>
<!-- launcher_version_game_relations&#45;&gt;games -->
<g id="edge2" class="edge">
<title>launcher_version_game_relations:game_table_id&#45;&gt;games:id</title>
<path fill="none" stroke="#000000" d="M770.9635,-394.8647C784.3681,-385.7638 774.5218,-355.2177 761,-337 728.0672,-292.6303 674.9328,-345.3697 642,-301 617.2328,-267.6316 600.4444,-207.5 642,-207.5"/>
<polygon fill="#000000" stroke="#000000" points="770.6676,-394.9429 759.8493,-393.1496 765.8338,-396.2215 761,-397.5 761,-397.5 761,-397.5 765.8338,-396.2215 762.1507,-401.8504 770.6676,-394.9429 770.6676,-394.9429"/>
<text text-anchor="start" x="767.769" y="-407.5" font-family="Arial" font-size="10.00" fill="#000000">FOREIGN KEY (game_table_id) REFERENCES games (id)</text>
</g>
</g>
</svg>
