<?xml version="1.0" encoding="UTF-8" standalone="no"?>
<!DOCTYPE svg PUBLIC "-//W3C//DTD SVG 1.1//EN"
 "http://www.w3.org/Graphics/SVG/1.1/DTD/svg11.dtd">
<!-- Generated by graphviz version 2.40.1 (20161225.0304)
 -->
<!-- Title: launcher_versions Pages: 1 -->
<svg width="890pt" height="592pt"
 viewBox="0.00 0.00 889.50 592.00" xmlns="http://www.w3.org/2000/svg" xmlns:xlink="http://www.w3.org/1999/xlink">
<g id="graph0" class="graph" transform="scale(1 1) rotate(0) translate(4 588)">
<title>launcher_versions</title>
<polygon fill="#ffffff" stroke="transparent" points="-4,4 -4,-588 885.5,-588 885.5,4 -4,4"/>
<!-- launcher_versions -->
<g id="node1" class="node">
<title>launcher_versions</title>
<polygon fill="#efefef" stroke="transparent" points="313,-195.5 313,-230.5 570,-230.5 570,-195.5 313,-195.5"/>
<polygon fill="none" stroke="#000000" points="313,-195.5 313,-230.5 570,-230.5 570,-195.5 313,-195.5"/>
<text text-anchor="start" x="319.8588" y="-208.3" font-family="Arial Bold" font-size="18.00" fill="#000000">launcher_versions</text>
<text text-anchor="start" x="465.8874" y="-208.3" font-family="Arial" font-size="14.00" fill="#000000"> </text>
<text text-anchor="start" x="469.778" y="-208.3" font-family="Arial" font-size="14.00" fill="#666666">[BASE TABLE]</text>
<polygon fill="none" stroke="#000000" points="313,-165.5 313,-195.5 570,-195.5 570,-165.5 313,-165.5"/>
<text text-anchor="start" x="320" y="-176.9" font-family="Arial" font-size="14.00" fill="#000000">id </text>
<text text-anchor="start" x="334.7798" y="-176.9" font-family="Arial" font-size="14.00" fill="#666666">[varchar(36)]</text>
<polygon fill="none" stroke="#000000" points="313,-135.5 313,-165.5 570,-165.5 570,-135.5 313,-135.5"/>
<text text-anchor="start" x="320" y="-146.9" font-family="Arial" font-size="14.00" fill="#000000">name </text>
<text text-anchor="start" x="358.899" y="-146.9" font-family="Arial" font-size="14.00" fill="#666666">[varchar(32)]</text>
<polygon fill="none" stroke="#000000" points="313,-105.5 313,-135.5 570,-135.5 570,-105.5 313,-105.5"/>
<text text-anchor="start" x="320" y="-116.9" font-family="Arial" font-size="14.00" fill="#000000">questionnaire_url </text>
<text text-anchor="start" x="431.2482" y="-116.9" font-family="Arial" font-size="14.00" fill="#666666">[text]</text>
<polygon fill="none" stroke="#000000" points="313,-75.5 313,-105.5 570,-105.5 570,-75.5 313,-75.5"/>
<text text-anchor="start" x="320" y="-86.9" font-family="Arial" font-size="14.00" fill="#000000">created_at </text>
<text text-anchor="start" x="390.028" y="-86.9" font-family="Arial" font-size="14.00" fill="#666666">[datetime]</text>
<polygon fill="none" stroke="#000000" points="313,-45.5 313,-75.5 570,-75.5 570,-45.5 313,-45.5"/>
<text text-anchor="start" x="320" y="-56.9" font-family="Arial" font-size="14.00" fill="#000000">deleted_at </text>
<text text-anchor="start" x="389.2566" y="-56.9" font-family="Arial" font-size="14.00" fill="#666666">[datetime]</text>
<polygon fill="none" stroke="#000000" stroke-width="3" points="311,-44.5 311,-232.5 571,-232.5 571,-44.5 311,-44.5"/>
</g>
<!-- launcher_users -->
<g id="node2" class="node">
<title>launcher_users</title>
<polygon fill="#efefef" stroke="transparent" points="119,-505.5 119,-540.5 353,-540.5 353,-505.5 119,-505.5"/>
<polygon fill="none" stroke="#000000" points="119,-505.5 119,-540.5 353,-540.5 353,-505.5 119,-505.5"/>
<text text-anchor="start" x="125.859" y="-518.3" font-family="Arial Bold" font-size="18.00" fill="#000000">launcher_users</text>
<text text-anchor="start" x="248.8872" y="-518.3" font-family="Arial" font-size="14.00" fill="#000000"> </text>
<text text-anchor="start" x="252.7778" y="-518.3" font-family="Arial" font-size="14.00" fill="#666666">[BASE TABLE]</text>
<polygon fill="none" stroke="#000000" points="119,-475.5 119,-505.5 353,-505.5 353,-475.5 119,-475.5"/>
<text text-anchor="start" x="126" y="-486.9" font-family="Arial" font-size="14.00" fill="#000000">id </text>
<text text-anchor="start" x="140.7798" y="-486.9" font-family="Arial" font-size="14.00" fill="#666666">[varchar(36)]</text>
<polygon fill="none" stroke="#000000" points="119,-445.5 119,-475.5 353,-475.5 353,-445.5 119,-445.5"/>
<text text-anchor="start" x="126" y="-456.9" font-family="Arial" font-size="14.00" fill="#000000">launcher_version_id </text>
<text text-anchor="start" x="255.1402" y="-456.9" font-family="Arial" font-size="14.00" fill="#666666">[varchar(36)]</text>
<polygon fill="none" stroke="#000000" points="119,-415.5 119,-445.5 353,-445.5 353,-415.5 119,-415.5"/>
<text text-anchor="start" x="126" y="-426.9" font-family="Arial" font-size="14.00" fill="#000000">product_key </text>
<text text-anchor="start" x="206.1374" y="-426.9" font-family="Arial" font-size="14.00" fill="#666666">[varchar(29)]</text>
<polygon fill="none" stroke="#000000" points="119,-385.5 119,-415.5 353,-415.5 353,-385.5 119,-385.5"/>
<text text-anchor="start" x="126" y="-396.9" font-family="Arial" font-size="14.00" fill="#000000">created_at </text>
<text text-anchor="start" x="196.028" y="-396.9" font-family="Arial" font-size="14.00" fill="#666666">[datetime]</text>
<polygon fill="none" stroke="#000000" points="119,-355.5 119,-385.5 353,-385.5 353,-355.5 119,-355.5"/>
<text text-anchor="start" x="126" y="-366.9" font-family="Arial" font-size="14.00" fill="#000000">deleted_at </text>
<text text-anchor="start" x="195.2566" y="-366.9" font-family="Arial" font-size="14.00" fill="#666666">[datetime]</text>
</g>
<!-- launcher_users&#45;&gt;launcher_versions -->
<g id="edge1" class="edge">
<title>launcher_users:launcher_version_id&#45;&gt;launcher_versions:id</title>
<path fill="none" stroke="#000000" d="M363.1553,-459.6777C414.1898,-450.6638 378.1599,-369.4931 353,-313 343.2694,-291.1513 322.7306,-298.8487 313,-277 295.5511,-237.821 270.1111,-180.5 313,-180.5"/>
<polygon fill="#000000" stroke="#000000" points="362.9674,-459.6928 352.6368,-456.0147 357.9837,-460.0964 353,-460.5 353,-460.5 353,-460.5 357.9837,-460.0964 353.3632,-464.9853 362.9674,-459.6928 362.9674,-459.6928"/>
<text text-anchor="start" x="7.265" y="-470.5" font-family="Arial" font-size="10.00" fill="#000000">FOREIGN KEY (launcher_version_id) REFERENCES launcher_versions (id)</text>
</g>
<!-- launcher_version_game_relations -->
<g id="node3" class="node">
<title>launcher_version_game_relations</title>
<polygon fill="#efefef" stroke="transparent" points="458,-460.5 458,-495.5 839,-495.5 839,-460.5 458,-460.5"/>
<polygon fill="none" stroke="#000000" points="458,-460.5 458,-495.5 839,-495.5 839,-460.5 458,-460.5"/>
<text text-anchor="start" x="464.8434" y="-473.3" font-family="Arial Bold" font-size="18.00" fill="#000000">launcher_version_game_relations</text>
<text text-anchor="start" x="734.9028" y="-473.3" font-family="Arial" font-size="14.00" fill="#000000"> </text>
<text text-anchor="start" x="738.7934" y="-473.3" font-family="Arial" font-size="14.00" fill="#666666">[BASE TABLE]</text>
<polygon fill="none" stroke="#000000" points="458,-430.5 458,-460.5 839,-460.5 839,-430.5 458,-430.5"/>
<text text-anchor="start" x="465" y="-441.9" font-family="Arial" font-size="14.00" fill="#000000">launcher_version_table_id </text>
<text text-anchor="start" x="632.2678" y="-441.9" font-family="Arial" font-size="14.00" fill="#666666">[varchar(36)]</text>
<polygon fill="none" stroke="#000000" points="458,-400.5 458,-430.5 839,-430.5 839,-400.5 458,-400.5"/>
<text text-anchor="start" x="465" y="-411.9" font-family="Arial" font-size="14.00" fill="#000000">game_table_id </text>
<text text-anchor="start" x="560.6984" y="-411.9" font-family="Arial" font-size="14.00" fill="#666666">[varchar(36)]</text>
</g>
<!-- launcher_version_game_relations&#45;&gt;launcher_versions -->
<g id="edge2" class="edge">
<title>launcher_version_game_relations:launcher_version_table_id&#45;&gt;launcher_versions:id</title>
<path fill="none" stroke="#000000" d="M447.9437,-443.9385C423.3804,-434.9491 442.104,-389.1138 458,-358 485.949,-303.2946 542.051,-331.7054 570,-277 589.5128,-238.807 612.8889,-180.5 570,-180.5"/>
<polygon fill="#000000" stroke="#000000" points="448.1184,-443.9655 457.3095,-449.9467 453.0592,-444.7328 458,-445.5 458,-445.5 458,-445.5 453.0592,-444.7328 458.6905,-441.0533 448.1184,-443.9655 448.1184,-443.9655"/>
<text text-anchor="start" x="464.648" y="-455.5" font-family="Arial" font-size="10.00" fill="#000000">FOREIGN KEY (launcher_version_table_id) REFERENCES launcher_versions (id)</text>
</g>
</g>
</svg>
