<?xml version="1.0" encoding="UTF-8" standalone="no"?>
<!DOCTYPE svg PUBLIC "-//W3C//DTD SVG 1.1//EN"
 "http://www.w3.org/Graphics/SVG/1.1/DTD/svg11.dtd">
<!-- Generated by graphviz version 2.40.1 (20161225.0304)
 -->
<!-- Title: launcher_version_game_relations Pages: 1 -->
<svg width="1047pt" height="562pt"
 viewBox="0.00 0.00 1047.00 562.00" xmlns="http://www.w3.org/2000/svg" xmlns:xlink="http://www.w3.org/1999/xlink">
<g id="graph0" class="graph" transform="scale(1 1) rotate(0) translate(4 558)">
<title>launcher_version_game_relations</title>
<polygon fill="#ffffff" stroke="transparent" points="-4,4 -4,-558 1043,-558 1043,4 -4,4"/>
<!-- launcher_version_game_relations -->
<g id="node1" class="node">
<title>launcher_version_game_relations</title>
<polygon fill="#efefef" stroke="transparent" points="380,-472.5 380,-507.5 761,-507.5 761,-472.5 380,-472.5"/>
<polygon fill="none" stroke="#000000" points="380,-472.5 380,-507.5 761,-507.5 761,-472.5 380,-472.5"/>
<text text-anchor="start" x="386.8434" y="-485.3" font-family="Arial Bold" font-size="18.00" fill="#000000">launcher_version_game_relations</text>
<text text-anchor="start" x="656.9028" y="-485.3" font-family="Arial" font-size="14.00" fill="#000000"> </text>
<text text-anchor="start" x="660.7934" y="-485.3" font-family="Arial" font-size="14.00" fill="#666666">[BASE TABLE]</text>
<polygon fill="none" stroke="#000000" points="380,-442.5 380,-472.5 761,-472.5 761,-442.5 380,-442.5"/>
<text text-anchor="start" x="387" y="-453.9" font-family="Arial" font-size="14.00" fill="#000000">launcher_version_table_id </text>
<text text-anchor="start" x="554.2678" y="-453.9" font-family="Arial" font-size="14.00" fill="#666666">[varchar(36)]</text>
<polygon fill="none" stroke="#000000" points="380,-412.5 380,-442.5 761,-442.5 761,-412.5 380,-412.5"/>
<text text-anchor="start" x="387" y="-423.9" font-family="Arial" font-size="14.00" fill="#000000">game_table_id </text>
<text text-anchor="start" x="482.6984" y="-423.9" font-family="Arial" font-size="14.00" fill="#666666">[varchar(36)]</text>
<polygon fill="none" stroke="#000000" stroke-width="3" points="378,-411.5 378,-509.5 762,-509.5 762,-411.5 378,-411.5"/>
</g>
<!-- launcher_versions -->
<g id="node2" class="node">
<title>launcher_versions</title>
<polygon fill="#efefef" stroke="transparent" points="265,-222.5 265,-257.5 522,-257.5 522,-222.5 265,-222.5"/>
<polygon fill="none" stroke="#000000" points="265,-222.5 265,-257.5 522,-257.5 522,-222.5 265,-222.5"/>
<text text-anchor="start" x="271.8588" y="-235.3" font-family="Arial Bold" font-size="18.00" fill="#000000">launcher_versions</text>
<text text-anchor="start" x="417.8874" y="-235.3" font-family="Arial" font-size="14.00" fill="#000000"> </text>
<text text-anchor="start" x="421.778" y="-235.3" font-family="Arial" font-size="14.00" fill="#666666">[BASE TABLE]</text>
<polygon fill="none" stroke="#000000" points="265,-192.5 265,-222.5 522,-222.5 522,-192.5 265,-192.5"/>
<text text-anchor="start" x="272" y="-203.9" font-family="Arial" font-size="14.00" fill="#000000">id </text>
<text text-anchor="start" x="286.7798" y="-203.9" font-family="Arial" font-size="14.00" fill="#666666">[varchar(36)]</text>
<polygon fill="none" stroke="#000000" points="265,-162.5 265,-192.5 522,-192.5 522,-162.5 265,-162.5"/>
<text text-anchor="start" x="272" y="-173.9" font-family="Arial" font-size="14.00" fill="#000000">name </text>
<text text-anchor="start" x="310.899" y="-173.9" font-family="Arial" font-size="14.00" fill="#666666">[varchar(32)]</text>
<polygon fill="none" stroke="#000000" points="265,-132.5 265,-162.5 522,-162.5 522,-132.5 265,-132.5"/>
<text text-anchor="start" x="272" y="-143.9" font-family="Arial" font-size="14.00" fill="#000000">questionnaire_url </text>
<text text-anchor="start" x="383.2482" y="-143.9" font-family="Arial" font-size="14.00" fill="#666666">[text]</text>
<polygon fill="none" stroke="#000000" points="265,-102.5 265,-132.5 522,-132.5 522,-102.5 265,-102.5"/>
<text text-anchor="start" x="272" y="-113.9" font-family="Arial" font-size="14.00" fill="#000000">created_at </text>
<text text-anchor="start" x="342.028" y="-113.9" font-family="Arial" font-size="14.00" fill="#666666">[datetime]</text>
<polygon fill="none" stroke="#000000" points="265,-72.5 265,-102.5 522,-102.5 522,-72.5 265,-72.5"/>
<text text-anchor="start" x="272" y="-83.9" font-family="Arial" font-size="14.00" fill="#000000">deleted_at </text>
<text text-anchor="start" x="341.2566" y="-83.9" font-family="Arial" font-size="14.00" fill="#666666">[datetime]</text>
</g>
<!-- launcher_version_game_relations&#45;&gt;launcher_versions -->
<g id="edge1" class="edge">
<title>launcher_version_game_relations:launcher_version_table_id&#45;&gt;launcher_versions:id</title>
<path fill="none" stroke="#000000" d="M369.8468,-455.9548C343.4376,-446.6635 360.48,-397.5981 380,-367 417.43,-308.3276 484.57,-359.6724 522,-301 544.3497,-265.9663 563.5556,-207.5 522,-207.5"/>
<polygon fill="#000000" stroke="#000000" points="370.1138,-455.9953 379.3229,-461.9488 375.0569,-456.7477 380,-457.5 380,-457.5 380,-457.5 375.0569,-456.7477 380.6771,-453.0512 370.1138,-455.9953 370.1138,-455.9953"/>
<text text-anchor="start" x="6.648" y="-467.5" font-family="Arial" font-size="10.00" fill="#000000">FOREIGN KEY (launcher_version_table_id) REFERENCES launcher_versions (id)</text>
</g>
<!-- games -->
<g id="node3" class="node">
<title>games</title>
<polygon fill="#efefef" stroke="transparent" points="626,-252.5 626,-287.5 869,-287.5 869,-252.5 626,-252.5"/>
<polygon fill="none" stroke="#000000" points="626,-252.5 626,-287.5 869,-287.5 869,-252.5 626,-252.5"/>
<text text-anchor="start" x="671.8677" y="-265.3" font-family="Arial Bold" font-size="18.00" fill="#000000">games</text>
<text text-anchor="start" x="725.8785" y="-265.3" font-family="Arial" font-size="14.00" fill="#000000"> </text>
<text text-anchor="start" x="729.7691" y="-265.3" font-family="Arial" font-size="14.00" fill="#666666">[BASE TABLE]</text>
<polygon fill="none" stroke="#000000" points="626,-222.5 626,-252.5 869,-252.5 869,-222.5 626,-222.5"/>
<text text-anchor="start" x="633" y="-233.9" font-family="Arial" font-size="14.00" fill="#000000">id </text>
<text text-anchor="start" x="647.7798" y="-233.9" font-family="Arial" font-size="14.00" fill="#666666">[varchar(36)]</text>
<polygon fill="none" stroke="#000000" points="626,-192.5 626,-222.5 869,-222.5 869,-192.5 626,-192.5"/>
<text text-anchor="start" x="633" y="-203.9" font-family="Arial" font-size="14.00" fill="#000000">name </text>
<text text-anchor="start" x="671.899" y="-203.9" font-family="Arial" font-size="14.00" fill="#666666">[varchar(256)]</text>
<polygon fill="none" stroke="#000000" points="626,-162.5 626,-192.5 869,-192.5 869,-162.5 626,-162.5"/>
<text text-anchor="start" x="633" y="-173.9" font-family="Arial" font-size="14.00" fill="#000000">description </text>
<text text-anchor="start" x="704.568" y="-173.9" font-family="Arial" font-size="14.00" fill="#666666">[text]</text>
<polygon fill="none" stroke="#000000" points="626,-132.5 626,-162.5 869,-162.5 869,-132.5 626,-132.5"/>
<text text-anchor="start" x="633" y="-143.9" font-family="Arial" font-size="14.00" fill="#000000">created_at </text>
<text text-anchor="start" x="703.028" y="-143.9" font-family="Arial" font-size="14.00" fill="#666666">[datetime]</text>
<polygon fill="none" stroke="#000000" points="626,-102.5 626,-132.5 869,-132.5 869,-102.5 626,-102.5"/>
<text text-anchor="start" x="633" y="-113.9" font-family="Arial" font-size="14.00" fill="#000000">deleted_at </text>
<text text-anchor="start" x="702.2566" y="-113.9" font-family="Arial" font-size="14.00" fill="#666666">[datetime]</text>
<polygon fill="none" stroke="#000000" points="626,-72.5 626,-102.5 869,-102.5 869,-72.5 626,-72.5"/>
<text text-anchor="start" x="633" y="-83.9" font-family="Arial" font-size="14.00" fill="#000000">visibility_type_id </text>
<text text-anchor="start" x="738.007" y="-83.9" font-family="Arial" font-size="14.00" fill="#666666">[tinyint(4)]</text>
<polygon fill="none" stroke="#000000" points="626,-42.5 626,-72.5 869,-72.5 869,-42.5 626,-42.5"/>
<text text-anchor="start" x="632.7371" y="-53.9" font-family="Arial" font-size="14.00" fill="#000000">latest_version_updated_at </text>
<text text-anchor="start" x="800.8029" y="-53.9" font-family="Arial" font-size="14.00" fill="#666666">[datetime]</text>
</g>
<!-- launcher_version_game_relations&#45;&gt;games -->
<g id="edge2" class="edge">
<title>launcher_version_game_relations:game_table_id&#45;&gt;games:id</title>
<path fill="none" stroke="#000000" d="M770.9854,-424.8481C784.462,-415.693 774.822,-384.9909 761,-367 723.1684,-317.758 663.8316,-380.242 626,-331 600.6829,-298.0469 584.4444,-237.5 626,-237.5"/>
<polygon fill="#000000" stroke="#000000" points="770.665,-424.9332 759.8449,-423.1508 765.8325,-426.2166 761,-427.5 761,-427.5 761,-427.5 765.8325,-426.2166 762.1551,-431.8492 770.665,-424.9332 770.665,-424.9332"/>
<text text-anchor="start" x="767.769" y="-437.5" font-family="Arial" font-size="10.00" fill="#000000">FOREIGN KEY (game_table_id) REFERENCES games (id)</text>
</g>
</g>
</svg>
