<?xml version="1.0" encoding="UTF-8" standalone="no"?>
<!DOCTYPE svg PUBLIC "-//W3C//DTD SVG 1.1//EN"
 "http://www.w3.org/Graphics/SVG/1.1/DTD/svg11.dtd">
<!-- Generated by graphviz version 12.1.2 (20240928.0832)
 -->
<!-- Title: launcher_sessions Pages: 1 -->
<svg width="652pt" height="633pt"
 viewBox="0.00 0.00 651.66 632.80" xmlns="http://www.w3.org/2000/svg" xmlns:xlink="http://www.w3.org/1999/xlink">
<g id="graph0" class="graph" transform="scale(1 1) rotate(0) translate(4 628.8)">
<title>launcher_sessions</title>
<polygon fill="white" stroke="none" points="-4,4 -4,-628.8 647.66,-628.8 647.66,4 -4,4"/>
<!-- launcher_sessions -->
<g id="node1" class="node">
<title>launcher_sessions</title>
<polygon fill="#efefef" stroke="none" points="46.2,-543 46.2,-578.6 314.66,-578.6 314.66,-543 46.2,-543"/>
<polygon fill="none" stroke="black" points="46.2,-543 46.2,-578.6 314.66,-578.6 314.66,-543 46.2,-543"/>
<text text-anchor="start" x="53.2" y="-556.4" font-family="Arial Bold" font-size="18.00">launcher_sessions</text>
<text text-anchor="start" x="183.17" y="-556.4" font-family="Arial" font-size="14.00">    </text>
<text text-anchor="start" x="214.29" y="-556.4" font-family="Arial" font-size="14.00" fill="#666666">[BASE TABLE]</text>
<polygon fill="none" stroke="black" points="46.2,-512.2 46.2,-543 314.66,-543 314.66,-512.2 46.2,-512.2"/>
<text text-anchor="start" x="53.2" y="-524.4" font-family="Arial" font-size="14.00">id </text>
<text text-anchor="start" x="67.99" y="-524.4" font-family="Arial" font-size="14.00" fill="#666666">[varchar(36)]</text>
<polygon fill="none" stroke="black" points="46.2,-481.4 46.2,-512.2 314.66,-512.2 314.66,-481.4 46.2,-481.4"/>
<text text-anchor="start" x="53.2" y="-493.6" font-family="Arial" font-size="14.00">launcher_user_id </text>
<text text-anchor="start" x="164.5" y="-493.6" font-family="Arial" font-size="14.00" fill="#666666">[varchar(36)]</text>
<polygon fill="none" stroke="black" points="46.2,-450.6 46.2,-481.4 314.66,-481.4 314.66,-450.6 46.2,-450.6"/>
<text text-anchor="start" x="53.2" y="-462.8" font-family="Arial" font-size="14.00">access_token </text>
<text text-anchor="start" x="142.7" y="-462.8" font-family="Arial" font-size="14.00" fill="#666666">[varchar(64)]</text>
<polygon fill="none" stroke="black" points="46.2,-419.8 46.2,-450.6 314.66,-450.6 314.66,-419.8 46.2,-419.8"/>
<text text-anchor="start" x="53.2" y="-432" font-family="Arial" font-size="14.00">expires_at </text>
<text text-anchor="start" x="121.68" y="-432" font-family="Arial" font-size="14.00" fill="#666666">[datetime]</text>
<polygon fill="none" stroke="black" points="46.2,-389 46.2,-419.8 314.66,-419.8 314.66,-389 46.2,-389"/>
<text text-anchor="start" x="53.2" y="-401.2" font-family="Arial" font-size="14.00">created_at </text>
<text text-anchor="start" x="123.25" y="-401.2" font-family="Arial" font-size="14.00" fill="#666666">[datetime]</text>
<polygon fill="none" stroke="black" points="46.2,-358.2 46.2,-389 314.66,-389 314.66,-358.2 46.2,-358.2"/>
<text text-anchor="start" x="53.2" y="-370.4" font-family="Arial" font-size="14.00">deleted_at </text>
<text text-anchor="start" x="122.48" y="-370.4" font-family="Arial" font-size="14.00" fill="#666666">[datetime]</text>
<polygon fill="none" stroke="black" stroke-width="3" points="44.7,-356.7 44.7,-580.1 316.16,-580.1 316.16,-356.7 44.7,-356.7"/>
</g>
<!-- launcher_users -->
<g id="node2" class="node">
<title>launcher_users</title>
<polygon fill="#efefef" stroke="none" points="57.21,-197.2 57.21,-232.8 303.65,-232.8 303.65,-197.2 57.21,-197.2"/>
<polygon fill="none" stroke="black" points="57.21,-197.2 57.21,-232.8 303.65,-232.8 303.65,-197.2 57.21,-197.2"/>
<text text-anchor="start" x="64.21" y="-210.6" font-family="Arial Bold" font-size="18.00">launcher_users</text>
<text text-anchor="start" x="172.16" y="-210.6" font-family="Arial" font-size="14.00">    </text>
<text text-anchor="start" x="203.28" y="-210.6" font-family="Arial" font-size="14.00" fill="#666666">[BASE TABLE]</text>
<polygon fill="none" stroke="black" points="57.21,-166.4 57.21,-197.2 303.65,-197.2 303.65,-166.4 57.21,-166.4"/>
<text text-anchor="start" x="64.21" y="-178.6" font-family="Arial" font-size="14.00">id </text>
<text text-anchor="start" x="78.99" y="-178.6" font-family="Arial" font-size="14.00" fill="#666666">[varchar(36)]</text>
<polygon fill="none" stroke="black" points="57.21,-135.6 57.21,-166.4 303.65,-166.4 303.65,-135.6 57.21,-135.6"/>
<text text-anchor="start" x="64.21" y="-147.8" font-family="Arial" font-size="14.00">launcher_version_id </text>
<text text-anchor="start" x="193.4" y="-147.8" font-family="Arial" font-size="14.00" fill="#666666">[varchar(36)]</text>
<polygon fill="none" stroke="black" points="57.21,-104.8 57.21,-135.6 303.65,-135.6 303.65,-104.8 57.21,-104.8"/>
<text text-anchor="start" x="64.21" y="-117" font-family="Arial" font-size="14.00">product_key </text>
<text text-anchor="start" x="144.37" y="-117" font-family="Arial" font-size="14.00" fill="#666666">[varchar(29)]</text>
<polygon fill="none" stroke="black" points="57.21,-74 57.21,-104.8 303.65,-104.8 303.65,-74 57.21,-74"/>
<text text-anchor="start" x="64.21" y="-86.2" font-family="Arial" font-size="14.00">created_at </text>
<text text-anchor="start" x="134.26" y="-86.2" font-family="Arial" font-size="14.00" fill="#666666">[datetime]</text>
<polygon fill="none" stroke="black" points="57.21,-43.2 57.21,-74 303.65,-74 303.65,-43.2 57.21,-43.2"/>
<text text-anchor="start" x="64.21" y="-55.4" font-family="Arial" font-size="14.00">deleted_at </text>
<text text-anchor="start" x="133.49" y="-55.4" font-family="Arial" font-size="14.00" fill="#666666">[datetime]</text>
</g>
<!-- launcher_sessions&#45;&gt;launcher_users -->
<g id="edge1" class="edge">
<title>launcher_sessions:launcher_user_id&#45;&gt;launcher_users:id</title>
<path fill="none" stroke="black" d="M325.71,-494.45C384.43,-465.62 371.14,-181.8 304.65,-181.8"/>
<polygon fill="black" stroke="black" points="325.72,-494.44 314.96,-492.34 320.53,-495.66 316.31,-496.65 316.31,-496.65 316.31,-496.65 320.53,-495.66 317.01,-501.1 325.72,-494.44"/>
<text text-anchor="start" x="322.66" y="-506.8" font-family="Arial" font-size="10.00">FOREIGN KEY (launcher_user_id) REFERENCES launcher_users (id)</text>
</g>
</g>
</svg>
