<?xml version="1.0" encoding="UTF-8" standalone="no"?>
<!DOCTYPE svg PUBLIC "-//W3C//DTD SVG 1.1//EN"
 "http://www.w3.org/Graphics/SVG/1.1/DTD/svg11.dtd">
<!-- Generated by graphviz version 12.1.2 (20240928.0832)
 -->
<!-- Title: product_keys Pages: 1 -->
<svg width="826pt" height="945pt"
 viewBox="0.00 0.00 825.87 944.80" xmlns="http://www.w3.org/2000/svg" xmlns:xlink="http://www.w3.org/1999/xlink">
<g id="graph0" class="graph" transform="scale(1 1) rotate(0) translate(4 940.8)">
<title>product_keys</title>
<polygon fill="white" stroke="none" points="-4,4 -4,-940.8 821.87,-940.8 821.87,4 -4,4"/>
<!-- product_keys -->
<g id="node1" class="node">
<title>product_keys</title>
<polygon fill="#efefef" stroke="none" points="261.19,-512.2 261.19,-547.8 496.65,-547.8 496.65,-512.2 261.19,-512.2"/>
<polygon fill="none" stroke="black" points="261.19,-512.2 261.19,-547.8 496.65,-547.8 496.65,-512.2 261.19,-512.2"/>
<text text-anchor="start" x="268.19" y="-525.6" font-family="Arial Bold" font-size="18.00">product_keys</text>
<text text-anchor="start" x="365.17" y="-525.6" font-family="Arial" font-size="14.00">    </text>
<text text-anchor="start" x="396.28" y="-525.6" font-family="Arial" font-size="14.00" fill="#666666">[BASE TABLE]</text>
<polygon fill="none" stroke="black" points="261.19,-481.4 261.19,-512.2 496.65,-512.2 496.65,-481.4 261.19,-481.4"/>
<text text-anchor="start" x="268.19" y="-493.6" font-family="Arial" font-size="14.00">id </text>
<text text-anchor="start" x="282.97" y="-493.6" font-family="Arial" font-size="14.00" fill="#666666">[varchar(36)]</text>
<polygon fill="none" stroke="black" points="261.19,-450.6 261.19,-481.4 496.65,-481.4 496.65,-450.6 261.19,-450.6"/>
<text text-anchor="start" x="268.19" y="-462.8" font-family="Arial" font-size="14.00">edition_id </text>
<text text-anchor="start" x="332.01" y="-462.8" font-family="Arial" font-size="14.00" fill="#666666">[varchar(36)]</text>
<polygon fill="none" stroke="black" points="261.19,-419.8 261.19,-450.6 496.65,-450.6 496.65,-419.8 261.19,-419.8"/>
<text text-anchor="start" x="268.19" y="-432" font-family="Arial" font-size="14.00">product_key </text>
<text text-anchor="start" x="348.34" y="-432" font-family="Arial" font-size="14.00" fill="#666666">[varchar(29)]</text>
<polygon fill="none" stroke="black" points="261.19,-389 261.19,-419.8 496.65,-419.8 496.65,-389 261.19,-389"/>
<text text-anchor="start" x="268.19" y="-401.2" font-family="Arial" font-size="14.00">created_at </text>
<text text-anchor="start" x="338.23" y="-401.2" font-family="Arial" font-size="14.00" fill="#666666">[datetime]</text>
<polygon fill="none" stroke="black" points="261.19,-358.2 261.19,-389 496.65,-389 496.65,-358.2 261.19,-358.2"/>
<text text-anchor="start" x="268.19" y="-370.4" font-family="Arial" font-size="14.00">status_id </text>
<text text-anchor="start" x="328.11" y="-370.4" font-family="Arial" font-size="14.00" fill="#666666">[tinyint(4)]</text>
<polygon fill="none" stroke="black" stroke-width="3" points="259.69,-356.7 259.69,-549.3 498.15,-549.3 498.15,-356.7 259.69,-356.7"/>
</g>
<!-- editions -->
<g id="node3" class="node">
<title>editions</title>
<polygon fill="#efefef" stroke="none" points="107.18,-197.2 107.18,-232.8 302.66,-232.8 302.66,-197.2 107.18,-197.2"/>
<polygon fill="none" stroke="black" points="107.18,-197.2 107.18,-232.8 302.66,-232.8 302.66,-197.2 107.18,-197.2"/>
<text text-anchor="start" x="114.18" y="-210.6" font-family="Arial Bold" font-size="18.00">editions</text>
<text text-anchor="start" x="171.17" y="-210.6" font-family="Arial" font-size="14.00">    </text>
<text text-anchor="start" x="202.29" y="-210.6" font-family="Arial" font-size="14.00" fill="#666666">[BASE TABLE]</text>
<polygon fill="none" stroke="black" points="107.18,-166.4 107.18,-197.2 302.66,-197.2 302.66,-166.4 107.18,-166.4"/>
<text text-anchor="start" x="114.18" y="-178.6" font-family="Arial" font-size="14.00">id </text>
<text text-anchor="start" x="128.96" y="-178.6" font-family="Arial" font-size="14.00" fill="#666666">[varchar(36)]</text>
<polygon fill="none" stroke="black" points="107.18,-135.6 107.18,-166.4 302.66,-166.4 302.66,-135.6 107.18,-135.6"/>
<text text-anchor="start" x="114.18" y="-147.8" font-family="Arial" font-size="14.00">name </text>
<text text-anchor="start" x="153.09" y="-147.8" font-family="Arial" font-size="14.00" fill="#666666">[varchar(32)]</text>
<polygon fill="none" stroke="black" points="107.18,-104.8 107.18,-135.6 302.66,-135.6 302.66,-104.8 107.18,-104.8"/>
<text text-anchor="start" x="114.18" y="-117" font-family="Arial" font-size="14.00">questionnaire_url </text>
<text text-anchor="start" x="225.47" y="-117" font-family="Arial" font-size="14.00" fill="#666666">[text]</text>
<polygon fill="none" stroke="black" points="107.18,-74 107.18,-104.8 302.66,-104.8 302.66,-74 107.18,-74"/>
<text text-anchor="start" x="114.18" y="-86.2" font-family="Arial" font-size="14.00">created_at </text>
<text text-anchor="start" x="184.23" y="-86.2" font-family="Arial" font-size="14.00" fill="#666666">[datetime]</text>
<polygon fill="none" stroke="black" points="107.18,-43.2 107.18,-74 302.66,-74 302.66,-43.2 107.18,-43.2"/>
<text text-anchor="start" x="114.18" y="-55.4" font-family="Arial" font-size="14.00">deleted_at </text>
<text text-anchor="start" x="183.46" y="-55.4" font-family="Arial" font-size="14.00" fill="#666666">[datetime]</text>
</g>
<!-- product_keys&#45;&gt;editions -->
<g id="edge2" class="edge">
<title>product_keys:edition_id&#45;&gt;editions:id</title>
<path fill="none" stroke="black" d="M249.92,-465.2C196.17,-456.05 234.14,-370.78 261.19,-312 271.39,-289.83 292.41,-298.15 302.66,-276 320.24,-238 345.53,-181.8 303.66,-181.8"/>
<polygon fill="black" stroke="black" points="249.88,-465.19 259.5,-470.46 255.2,-465.61 259.52,-465.95 259.52,-465.95 259.52,-465.95 255.2,-465.61 260.2,-461.49 249.88,-465.19"/>
<text text-anchor="start" x="7" y="-476" font-family="Arial" font-size="10.00">FOREIGN KEY (edition_id) REFERENCES editions (id)</text>
</g>
<!-- product_key_statuses -->
<g id="node4" class="node">
<title>product_key_statuses</title>
<polygon fill="#efefef" stroke="none" points="407.19,-166.4 407.19,-202 700.65,-202 700.65,-166.4 407.19,-166.4"/>
<polygon fill="none" stroke="black" points="407.19,-166.4 407.19,-202 700.65,-202 700.65,-166.4 407.19,-166.4"/>
<text text-anchor="start" x="414.19" y="-179.8" font-family="Arial Bold" font-size="18.00">product_key_statuses</text>
<text text-anchor="start" x="569.16" y="-179.8" font-family="Arial" font-size="14.00">    </text>
<text text-anchor="start" x="600.28" y="-179.8" font-family="Arial" font-size="14.00" fill="#666666">[BASE TABLE]</text>
<polygon fill="none" stroke="black" points="407.19,-135.6 407.19,-166.4 700.65,-166.4 700.65,-135.6 407.19,-135.6"/>
<text text-anchor="start" x="414.19" y="-147.8" font-family="Arial" font-size="14.00">id </text>
<text text-anchor="start" x="428.98" y="-147.8" font-family="Arial" font-size="14.00" fill="#666666">[tinyint(4)]</text>
<polygon fill="none" stroke="black" points="407.19,-104.8 407.19,-135.6 700.65,-135.6 700.65,-104.8 407.19,-104.8"/>
<text text-anchor="start" x="414.19" y="-117" font-family="Arial" font-size="14.00">name </text>
<text text-anchor="start" x="453.1" y="-117" font-family="Arial" font-size="14.00" fill="#666666">[varchar(32)]</text>
<polygon fill="none" stroke="black" points="407.19,-74 407.19,-104.8 700.65,-104.8 700.65,-74 407.19,-74"/>
<text text-anchor="start" x="414.19" y="-86.2" font-family="Arial" font-size="14.00">active </text>
<text text-anchor="start" x="454.65" y="-86.2" font-family="Arial" font-size="14.00" fill="#666666">[tinyint(1)]</text>
</g>
<!-- product_keys&#45;&gt;product_key_statuses -->
<g id="edge3" class="edge">
<title>product_keys:status_id&#45;&gt;product_key_statuses:id</title>
<path fill="none" stroke="black" d="M507.5,-371.06C520.15,-362.28 507.18,-332.57 496.65,-312 474.06,-267.82 429.67,-289.44 407.19,-245.2 388.23,-207.87 364.32,-151 406.19,-151"/>
<polygon fill="black" stroke="black" points="507.66,-371.02 496.86,-369.16 502.5,-372.35 498.3,-373.43 498.3,-373.43 498.3,-373.43 502.5,-372.35 499.1,-377.87 507.66,-371.02"/>
<text text-anchor="start" x="504.65" y="-383.6" font-family="Arial" font-size="10.00">FOREIGN KEY (status_id) REFERENCES product_key_statuses (id)</text>
</g>
<!-- access_tokens -->
<g id="node2" class="node">
<title>access_tokens</title>
<polygon fill="#efefef" stroke="none" points="258.69,-858 258.69,-893.6 499.15,-893.6 499.15,-858 258.69,-858"/>
<polygon fill="none" stroke="black" points="258.69,-858 258.69,-893.6 499.15,-893.6 499.15,-858 258.69,-858"/>
<text text-anchor="start" x="265.69" y="-871.4" font-family="Arial Bold" font-size="18.00">access_tokens</text>
<text text-anchor="start" x="367.66" y="-871.4" font-family="Arial" font-size="14.00">    </text>
<text text-anchor="start" x="398.77" y="-871.4" font-family="Arial" font-size="14.00" fill="#666666">[BASE TABLE]</text>
<polygon fill="none" stroke="black" points="258.69,-827.2 258.69,-858 499.15,-858 499.15,-827.2 258.69,-827.2"/>
<text text-anchor="start" x="265.69" y="-839.4" font-family="Arial" font-size="14.00">id </text>
<text text-anchor="start" x="280.48" y="-839.4" font-family="Arial" font-size="14.00" fill="#666666">[varchar(36)]</text>
<polygon fill="none" stroke="black" points="258.69,-796.4 258.69,-827.2 499.15,-827.2 499.15,-796.4 258.69,-796.4"/>
<text text-anchor="start" x="265.69" y="-808.6" font-family="Arial" font-size="14.00">product_key_id </text>
<text text-anchor="start" x="364.54" y="-808.6" font-family="Arial" font-size="14.00" fill="#666666">[varchar(36)]</text>
<polygon fill="none" stroke="black" points="258.69,-765.6 258.69,-796.4 499.15,-796.4 499.15,-765.6 258.69,-765.6"/>
<text text-anchor="start" x="265.69" y="-777.8" font-family="Arial" font-size="14.00">access_token </text>
<text text-anchor="start" x="355.19" y="-777.8" font-family="Arial" font-size="14.00" fill="#666666">[varchar(64)]</text>
<polygon fill="none" stroke="black" points="258.69,-734.8 258.69,-765.6 499.15,-765.6 499.15,-734.8 258.69,-734.8"/>
<text text-anchor="start" x="265.69" y="-747" font-family="Arial" font-size="14.00">expires_at </text>
<text text-anchor="start" x="334.18" y="-747" font-family="Arial" font-size="14.00" fill="#666666">[datetime]</text>
<polygon fill="none" stroke="black" points="258.69,-704 258.69,-734.8 499.15,-734.8 499.15,-704 258.69,-704"/>
<text text-anchor="start" x="265.69" y="-716.2" font-family="Arial" font-size="14.00">created_at </text>
<text text-anchor="start" x="335.74" y="-716.2" font-family="Arial" font-size="14.00" fill="#666666">[datetime]</text>
<polygon fill="none" stroke="black" points="258.69,-673.2 258.69,-704 499.15,-704 499.15,-673.2 258.69,-673.2"/>
<text text-anchor="start" x="265.69" y="-685.4" font-family="Arial" font-size="14.00">deleted_at </text>
<text text-anchor="start" x="334.98" y="-685.4" font-family="Arial" font-size="14.00" fill="#666666">[datetime]</text>
</g>
<!-- access_tokens&#45;&gt;product_keys -->
<g id="edge1" class="edge">
<title>access_tokens:product_key_id&#45;&gt;product_keys:id</title>
<path fill="none" stroke="black" d="M510.53,-811.2C639.94,-796.01 634.1,-496.8 497.65,-496.8"/>
<polygon fill="black" stroke="black" points="510.46,-811.21 500.22,-807.29 505.14,-811.51 500.81,-811.76 500.81,-811.76 500.81,-811.76 505.14,-811.51 500.74,-816.27 510.46,-811.21"/>
<text text-anchor="start" x="507.15" y="-821.8" font-family="Arial" font-size="10.00">FOREIGN KEY (product_key_id) REFERENCES product_keys (id)</text>
</g>
</g>
</svg>
