<?xml version="1.0" encoding="UTF-8" standalone="no"?>
<!DOCTYPE svg PUBLIC "-//W3C//DTD SVG 1.1//EN"
 "http://www.w3.org/Graphics/SVG/1.1/DTD/svg11.dtd">
<!-- Generated by graphviz version 2.40.1 (20161225.0304)
 -->
<!-- Title: product_key_statuses Pages: 1 -->
<svg width="517pt" height="532pt"
 viewBox="0.00 0.00 517.00 532.00" xmlns="http://www.w3.org/2000/svg" xmlns:xlink="http://www.w3.org/1999/xlink">
<g id="graph0" class="graph" transform="scale(1 1) rotate(0) translate(4 528)">
<title>product_key_statuses</title>
<polygon fill="#ffffff" stroke="transparent" points="-4,4 -4,-528 513,-528 513,4 -4,4"/>
<!-- product_key_statuses -->
<g id="node1" class="node">
<title>product_key_statuses</title>
<polygon fill="#efefef" stroke="transparent" points="177,-135.5 177,-170.5 463,-170.5 463,-135.5 177,-135.5"/>
<polygon fill="none" stroke="#000000" points="177,-135.5 177,-170.5 463,-170.5 463,-135.5 177,-135.5"/>
<text text-anchor="start" x="183.8427" y="-148.3" font-family="Arial Bold" font-size="18.00" fill="#000000">product_key_statuses</text>
<text text-anchor="start" x="358.9035" y="-148.3" font-family="Arial" font-size="14.00" fill="#000000"> </text>
<text text-anchor="start" x="362.7941" y="-148.3" font-family="Arial" font-size="14.00" fill="#666666">[BASE TABLE]</text>
<polygon fill="none" stroke="#000000" points="177,-105.5 177,-135.5 463,-135.5 463,-105.5 177,-105.5"/>
<text text-anchor="start" x="184" y="-116.9" font-family="Arial" font-size="14.00" fill="#000000">id </text>
<text text-anchor="start" x="198.7798" y="-116.9" font-family="Arial" font-size="14.00" fill="#666666">[tinyint(4)]</text>
<polygon fill="none" stroke="#000000" points="177,-75.5 177,-105.5 463,-105.5 463,-75.5 177,-75.5"/>
<text text-anchor="start" x="184" y="-86.9" font-family="Arial" font-size="14.00" fill="#000000">name </text>
<text text-anchor="start" x="222.899" y="-86.9" font-family="Arial" font-size="14.00" fill="#666666">[varchar(32)]</text>
<polygon fill="none" stroke="#000000" points="177,-45.5 177,-75.5 463,-75.5 463,-45.5 177,-45.5"/>
<text text-anchor="start" x="184" y="-56.9" font-family="Arial" font-size="14.00" fill="#000000">active </text>
<text text-anchor="start" x="224.453" y="-56.9" font-family="Arial" font-size="14.00" fill="#666666">[tinyint(1)]</text>
<polygon fill="none" stroke="#000000" stroke-width="3" points="175.5,-44.5 175.5,-172.5 464.5,-172.5 464.5,-44.5 175.5,-44.5"/>
</g>
<!-- product_keys -->
<g id="node2" class="node">
<title>product_keys</title>
<polygon fill="#efefef" stroke="transparent" points="211,-445.5 211,-480.5 429,-480.5 429,-445.5 211,-445.5"/>
<polygon fill="none" stroke="#000000" points="211,-445.5 211,-480.5 429,-480.5 429,-445.5 211,-445.5"/>
<text text-anchor="start" x="217.8573" y="-458.3" font-family="Arial Bold" font-size="18.00" fill="#000000">product_keys</text>
<text text-anchor="start" x="324.8889" y="-458.3" font-family="Arial" font-size="14.00" fill="#000000"> </text>
<text text-anchor="start" x="328.7795" y="-458.3" font-family="Arial" font-size="14.00" fill="#666666">[BASE TABLE]</text>
<polygon fill="none" stroke="#000000" points="211,-415.5 211,-445.5 429,-445.5 429,-415.5 211,-415.5"/>
<text text-anchor="start" x="218" y="-426.9" font-family="Arial" font-size="14.00" fill="#000000">id </text>
<text text-anchor="start" x="232.7798" y="-426.9" font-family="Arial" font-size="14.00" fill="#666666">[varchar(36)]</text>
<polygon fill="none" stroke="#000000" points="211,-385.5 211,-415.5 429,-415.5 429,-385.5 211,-385.5"/>
<text text-anchor="start" x="218" y="-396.9" font-family="Arial" font-size="14.00" fill="#000000">edition_id </text>
<text text-anchor="start" x="281.7966" y="-396.9" font-family="Arial" font-size="14.00" fill="#666666">[varchar(36)]</text>
<polygon fill="none" stroke="#000000" points="211,-355.5 211,-385.5 429,-385.5 429,-355.5 211,-355.5"/>
<text text-anchor="start" x="218" y="-366.9" font-family="Arial" font-size="14.00" fill="#000000">product_key </text>
<text text-anchor="start" x="298.1374" y="-366.9" font-family="Arial" font-size="14.00" fill="#666666">[varchar(29)]</text>
<polygon fill="none" stroke="#000000" points="211,-325.5 211,-355.5 429,-355.5 429,-325.5 211,-325.5"/>
<text text-anchor="start" x="218" y="-336.9" font-family="Arial" font-size="14.00" fill="#000000">created_at </text>
<text text-anchor="start" x="288.028" y="-336.9" font-family="Arial" font-size="14.00" fill="#666666">[datetime]</text>
<polygon fill="none" stroke="#000000" points="211,-295.5 211,-325.5 429,-325.5 429,-295.5 211,-295.5"/>
<text text-anchor="start" x="218" y="-306.9" font-family="Arial" font-size="14.00" fill="#000000">status_id </text>
<text text-anchor="start" x="277.9088" y="-306.9" font-family="Arial" font-size="14.00" fill="#666666">[tinyint(4)]</text>
</g>
<!-- product_keys&#45;&gt;product_key_statuses -->
<g id="edge1" class="edge">
<title>product_keys:status_id&#45;&gt;product_key_statuses:id</title>
<path fill="none" stroke="#000000" d="M320.7977,-285.4195C330.5948,-228.4194 427.9493,-276.2257 463,-217 484.8436,-180.0905 505.8889,-120.5 463,-120.5"/>
<polygon fill="#000000" stroke="#000000" points="320.7889,-285.5312 315.514,-295.145 320.3945,-290.5156 320,-295.5 320,-295.5 320,-295.5 320.3945,-290.5156 324.486,-295.855 320.7889,-285.5312 320.7889,-285.5312"/>
<text text-anchor="start" x="6.926" y="-305.5" font-family="Arial" font-size="10.00" fill="#000000">FOREIGN KEY (status_id) REFERENCES product_key_statuses (id)</text>
</g>
</g>
</svg>
