<?xml version="1.0" encoding="UTF-8" standalone="no"?>
<!DOCTYPE svg PUBLIC "-//W3C//DTD SVG 1.1//EN"
 "http://www.w3.org/Graphics/SVG/1.1/DTD/svg11.dtd">
<!-- Generated by graphviz version 2.40.1 (20161225.0304)
 -->
<!-- Title: product_keys Pages: 1 -->
<svg width="802pt" height="929pt"
 viewBox="0.00 0.00 802.00 929.00" xmlns="http://www.w3.org/2000/svg" xmlns:xlink="http://www.w3.org/1999/xlink">
<g id="graph0" class="graph" transform="scale(1 1) rotate(0) translate(4 925)">
<title>product_keys</title>
<polygon fill="#ffffff" stroke="transparent" points="-4,4 -4,-925 798,-925 798,4 -4,4"/>
<!-- product_keys -->
<g id="node1" class="node">
<title>product_keys</title>
<polygon fill="#efefef" stroke="transparent" points="260,-502.5 260,-537.5 478,-537.5 478,-502.5 260,-502.5"/>
<polygon fill="none" stroke="#000000" points="260,-502.5 260,-537.5 478,-537.5 478,-502.5 260,-502.5"/>
<text text-anchor="start" x="266.8573" y="-515.3" font-family="Arial Bold" font-size="18.00" fill="#000000">product_keys</text>
<text text-anchor="start" x="373.8889" y="-515.3" font-family="Arial" font-size="14.00" fill="#000000"> </text>
<text text-anchor="start" x="377.7795" y="-515.3" font-family="Arial" font-size="14.00" fill="#666666">[BASE TABLE]</text>
<polygon fill="none" stroke="#000000" points="260,-472.5 260,-502.5 478,-502.5 478,-472.5 260,-472.5"/>
<text text-anchor="start" x="267" y="-483.9" font-family="Arial" font-size="14.00" fill="#000000">id </text>
<text text-anchor="start" x="281.7798" y="-483.9" font-family="Arial" font-size="14.00" fill="#666666">[varchar(36)]</text>
<polygon fill="none" stroke="#000000" points="260,-442.5 260,-472.5 478,-472.5 478,-442.5 260,-442.5"/>
<text text-anchor="start" x="267" y="-453.9" font-family="Arial" font-size="14.00" fill="#000000">edition_id </text>
<text text-anchor="start" x="330.7966" y="-453.9" font-family="Arial" font-size="14.00" fill="#666666">[varchar(36)]</text>
<polygon fill="none" stroke="#000000" points="260,-412.5 260,-442.5 478,-442.5 478,-412.5 260,-412.5"/>
<text text-anchor="start" x="267" y="-423.9" font-family="Arial" font-size="14.00" fill="#000000">product_key </text>
<text text-anchor="start" x="347.1374" y="-423.9" font-family="Arial" font-size="14.00" fill="#666666">[varchar(29)]</text>
<polygon fill="none" stroke="#000000" points="260,-382.5 260,-412.5 478,-412.5 478,-382.5 260,-382.5"/>
<text text-anchor="start" x="267" y="-393.9" font-family="Arial" font-size="14.00" fill="#000000">created_at </text>
<text text-anchor="start" x="337.028" y="-393.9" font-family="Arial" font-size="14.00" fill="#666666">[datetime]</text>
<polygon fill="none" stroke="#000000" points="260,-352.5 260,-382.5 478,-382.5 478,-352.5 260,-352.5"/>
<text text-anchor="start" x="267" y="-363.9" font-family="Arial" font-size="14.00" fill="#000000">deleted_at </text>
<text text-anchor="start" x="336.2566" y="-363.9" font-family="Arial" font-size="14.00" fill="#666666">[datetime]</text>
<polygon fill="none" stroke="#000000" stroke-width="3" points="258.5,-351.5 258.5,-539.5 479.5,-539.5 479.5,-351.5 258.5,-351.5"/>
</g>
<!-- editions -->
<g id="node3" class="node">
<title>editions</title>
<polygon fill="#efefef" stroke="transparent" points="282,-192.5 282,-227.5 455,-227.5 455,-192.5 282,-192.5"/>
<polygon fill="none" stroke="#000000" points="282,-192.5 282,-227.5 455,-227.5 455,-192.5 282,-192.5"/>
<text text-anchor="start" x="288.8654" y="-205.3" font-family="Arial Bold" font-size="18.00" fill="#000000">editions</text>
<text text-anchor="start" x="350.8808" y="-205.3" font-family="Arial" font-size="14.00" fill="#000000"> </text>
<text text-anchor="start" x="354.7714" y="-205.3" font-family="Arial" font-size="14.00" fill="#666666">[BASE TABLE]</text>
<polygon fill="none" stroke="#000000" points="282,-162.5 282,-192.5 455,-192.5 455,-162.5 282,-162.5"/>
<text text-anchor="start" x="289" y="-173.9" font-family="Arial" font-size="14.00" fill="#000000">id </text>
<text text-anchor="start" x="303.7798" y="-173.9" font-family="Arial" font-size="14.00" fill="#666666">[varchar(36)]</text>
<polygon fill="none" stroke="#000000" points="282,-132.5 282,-162.5 455,-162.5 455,-132.5 282,-132.5"/>
<text text-anchor="start" x="289" y="-143.9" font-family="Arial" font-size="14.00" fill="#000000">name </text>
<text text-anchor="start" x="327.899" y="-143.9" font-family="Arial" font-size="14.00" fill="#666666">[varchar(32)]</text>
<polygon fill="none" stroke="#000000" points="282,-102.5 282,-132.5 455,-132.5 455,-102.5 282,-102.5"/>
<text text-anchor="start" x="289" y="-113.9" font-family="Arial" font-size="14.00" fill="#000000">questionnaire_url </text>
<text text-anchor="start" x="400.2482" y="-113.9" font-family="Arial" font-size="14.00" fill="#666666">[text]</text>
<polygon fill="none" stroke="#000000" points="282,-72.5 282,-102.5 455,-102.5 455,-72.5 282,-72.5"/>
<text text-anchor="start" x="289" y="-83.9" font-family="Arial" font-size="14.00" fill="#000000">created_at </text>
<text text-anchor="start" x="359.028" y="-83.9" font-family="Arial" font-size="14.00" fill="#666666">[datetime]</text>
<polygon fill="none" stroke="#000000" points="282,-42.5 282,-72.5 455,-72.5 455,-42.5 282,-42.5"/>
<text text-anchor="start" x="289" y="-53.9" font-family="Arial" font-size="14.00" fill="#000000">deleted_at </text>
<text text-anchor="start" x="358.2566" y="-53.9" font-family="Arial" font-size="14.00" fill="#666666">[datetime]</text>
</g>
<!-- product_keys&#45;&gt;editions -->
<g id="edge2" class="edge">
<title>product_keys:edition_id&#45;&gt;editions:id</title>
<path fill="none" stroke="#000000" d="M249.8306,-456.635C195.8029,-446.8048 219.5507,-355.6004 260,-307 316.3782,-239.2608 398.6218,-338.7392 455,-271 481.5834,-239.0596 496.5556,-177.5 455,-177.5"/>
<polygon fill="#000000" stroke="#000000" points="250.036,-456.6524 259.6186,-461.9838 255.018,-457.0762 260,-457.5 260,-457.5 260,-457.5 255.018,-457.0762 260.3814,-453.0162 250.036,-456.6524 250.036,-456.6524"/>
<text text-anchor="start" x="6.939" y="-467.5" font-family="Arial" font-size="10.00" fill="#000000">FOREIGN KEY (edition_id) REFERENCES editions (id)</text>
</g>
<!-- access_tokens -->
<g id="node2" class="node">
<title>access_tokens</title>
<polygon fill="#efefef" stroke="transparent" points="254,-842.5 254,-877.5 484,-877.5 484,-842.5 254,-842.5"/>
<polygon fill="none" stroke="#000000" points="254,-842.5 254,-877.5 484,-877.5 484,-842.5 254,-842.5"/>
<text text-anchor="start" x="260.8534" y="-855.3" font-family="Arial Bold" font-size="18.00" fill="#000000">access_tokens</text>
<text text-anchor="start" x="379.8928" y="-855.3" font-family="Arial" font-size="14.00" fill="#000000"> </text>
<text text-anchor="start" x="383.7834" y="-855.3" font-family="Arial" font-size="14.00" fill="#666666">[BASE TABLE]</text>
<polygon fill="none" stroke="#000000" points="254,-812.5 254,-842.5 484,-842.5 484,-812.5 254,-812.5"/>
<text text-anchor="start" x="261" y="-823.9" font-family="Arial" font-size="14.00" fill="#000000">id </text>
<text text-anchor="start" x="275.7798" y="-823.9" font-family="Arial" font-size="14.00" fill="#666666">[varchar(36)]</text>
<polygon fill="none" stroke="#000000" points="254,-782.5 254,-812.5 484,-812.5 484,-782.5 254,-782.5"/>
<text text-anchor="start" x="261" y="-793.9" font-family="Arial" font-size="14.00" fill="#000000">product_key_id </text>
<text text-anchor="start" x="359.8092" y="-793.9" font-family="Arial" font-size="14.00" fill="#666666">[varchar(36)]</text>
<polygon fill="none" stroke="#000000" points="254,-752.5 254,-782.5 484,-782.5 484,-752.5 254,-752.5"/>
<text text-anchor="start" x="261" y="-763.9" font-family="Arial" font-size="14.00" fill="#000000">access_token </text>
<text text-anchor="start" x="350.4768" y="-763.9" font-family="Arial" font-size="14.00" fill="#666666">[varchar(64)]</text>
<polygon fill="none" stroke="#000000" points="254,-722.5 254,-752.5 484,-752.5 484,-722.5 254,-722.5"/>
<text text-anchor="start" x="261" y="-733.9" font-family="Arial" font-size="14.00" fill="#000000">expires_at </text>
<text text-anchor="start" x="329.4614" y="-733.9" font-family="Arial" font-size="14.00" fill="#666666">[datetime]</text>
<polygon fill="none" stroke="#000000" points="254,-692.5 254,-722.5 484,-722.5 484,-692.5 254,-692.5"/>
<text text-anchor="start" x="261" y="-703.9" font-family="Arial" font-size="14.00" fill="#000000">created_at </text>
<text text-anchor="start" x="331.028" y="-703.9" font-family="Arial" font-size="14.00" fill="#666666">[datetime]</text>
<polygon fill="none" stroke="#000000" points="254,-662.5 254,-692.5 484,-692.5 484,-662.5 254,-662.5"/>
<text text-anchor="start" x="261" y="-673.9" font-family="Arial" font-size="14.00" fill="#000000">deleted_at </text>
<text text-anchor="start" x="330.2566" y="-673.9" font-family="Arial" font-size="14.00" fill="#666666">[datetime]</text>
</g>
<!-- access_tokens&#45;&gt;product_keys -->
<g id="edge1" class="edge">
<title>access_tokens:product_key_id&#45;&gt;product_keys:id</title>
<path fill="none" stroke="#000000" d="M493.9189,-795.183C552.1302,-766.815 543.4029,-487.5 478,-487.5"/>
<polygon fill="#000000" stroke="#000000" points="493.7378,-795.2252 482.9763,-793.118 488.8689,-796.3626 484,-797.5 484,-797.5 484,-797.5 488.8689,-796.3626 485.0237,-801.882 493.7378,-795.2252 493.7378,-795.2252"/>
<text text-anchor="start" x="490.93" y="-807.5" font-family="Arial" font-size="10.00" fill="#000000">FOREIGN KEY (product_key_id) REFERENCES product_keys (id)</text>
</g>
</g>
</svg>
