<?xml version="1.0" encoding="UTF-8" standalone="no"?>
<!DOCTYPE svg PUBLIC "-//W3C//DTD SVG 1.1//EN"
 "http://www.w3.org/Graphics/SVG/1.1/DTD/svg11.dtd">
<!-- Generated by graphviz version 2.40.1 (20161225.0304)
 -->
<!-- Title: product_keys Pages: 1 -->
<svg width="806pt" height="929pt"
 viewBox="0.00 0.00 806.00 929.00" xmlns="http://www.w3.org/2000/svg" xmlns:xlink="http://www.w3.org/1999/xlink">
<g id="graph0" class="graph" transform="scale(1 1) rotate(0) translate(4 925)">
<title>product_keys</title>
<polygon fill="#ffffff" stroke="transparent" points="-4,4 -4,-925 802,-925 802,4 -4,4"/>
<!-- product_keys -->
<g id="node1" class="node">
<title>product_keys</title>
<polygon fill="#efefef" stroke="transparent" points="260,-502.5 260,-537.5 478,-537.5 478,-502.5 260,-502.5"/>
<polygon fill="none" stroke="#000000" points="260,-502.5 260,-537.5 478,-537.5 478,-502.5 260,-502.5"/>
<text text-anchor="start" x="266.8573" y="-515.3" font-family="Arial Bold" font-size="18.00" fill="#000000">product_keys</text>
<text text-anchor="start" x="373.8889" y="-515.3" font-family="Arial" font-size="14.00" fill="#000000"> </text>
<text text-anchor="start" x="377.7795" y="-515.3" font-family="Arial" font-size="14.00" fill="#666666">[BASE TABLE]</text>
<polygon fill="none" stroke="#000000" points="260,-472.5 260,-502.5 478,-502.5 478,-472.5 260,-472.5"/>
<text text-anchor="start" x="267" y="-483.9" font-family="Arial" font-size="14.00" fill="#000000">id </text>
<text text-anchor="start" x="281.7798" y="-483.9" font-family="Arial" font-size="14.00" fill="#666666">[varchar(36)]</text>
<polygon fill="none" stroke="#000000" points="260,-442.5 260,-472.5 478,-472.5 478,-442.5 260,-442.5"/>
<text text-anchor="start" x="267" y="-453.9" font-family="Arial" font-size="14.00" fill="#000000">edition_id </text>
<text text-anchor="start" x="330.7966" y="-453.9" font-family="Arial" font-size="14.00" fill="#666666">[varchar(36)]</text>
<polygon fill="none" stroke="#000000" points="260,-412.5 260,-442.5 478,-442.5 478,-412.5 260,-412.5"/>
<text text-anchor="start" x="267" y="-423.9" font-family="Arial" font-size="14.00" fill="#000000">product_key </text>
<text text-anchor="start" x="347.1374" y="-423.9" font-family="Arial" font-size="14.00" fill="#666666">[varchar(29)]</text>
<polygon fill="none" stroke="#000000" points="260,-382.5 260,-412.5 478,-412.5 478,-382.5 260,-382.5"/>
<text text-anchor="start" x="267" y="-393.9" font-family="Arial" font-size="14.00" fill="#000000">created_at </text>
<text text-anchor="start" x="337.028" y="-393.9" font-family="Arial" font-size="14.00" fill="#666666">[datetime]</text>
<polygon fill="none" stroke="#000000" points="260,-352.5 260,-382.5 478,-382.5 478,-352.5 260,-352.5"/>
<text text-anchor="start" x="267" y="-363.9" font-family="Arial" font-size="14.00" fill="#000000">status_id </text>
<text text-anchor="start" x="326.9088" y="-363.9" font-family="Arial" font-size="14.00" fill="#666666">[tinyint(4)]</text>
<polygon fill="none" stroke="#000000" stroke-width="3" points="258.5,-351.5 258.5,-539.5 479.5,-539.5 479.5,-351.5 258.5,-351.5"/>
</g>
<!-- editions -->
<g id="node3" class="node">
<title>editions</title>
<polygon fill="#efefef" stroke="transparent" points="116,-192.5 116,-227.5 289,-227.5 289,-192.5 116,-192.5"/>
<polygon fill="none" stroke="#000000" points="116,-192.5 116,-227.5 289,-227.5 289,-192.5 116,-192.5"/>
<text text-anchor="start" x="122.8654" y="-205.3" font-family="Arial Bold" font-size="18.00" fill="#000000">editions</text>
<text text-anchor="start" x="184.8808" y="-205.3" font-family="Arial" font-size="14.00" fill="#000000"> </text>
<text text-anchor="start" x="188.7714" y="-205.3" font-family="Arial" font-size="14.00" fill="#666666">[BASE TABLE]</text>
<polygon fill="none" stroke="#000000" points="116,-162.5 116,-192.5 289,-192.5 289,-162.5 116,-162.5"/>
<text text-anchor="start" x="123" y="-173.9" font-family="Arial" font-size="14.00" fill="#000000">id </text>
<text text-anchor="start" x="137.7798" y="-173.9" font-family="Arial" font-size="14.00" fill="#666666">[varchar(36)]</text>
<polygon fill="none" stroke="#000000" points="116,-132.5 116,-162.5 289,-162.5 289,-132.5 116,-132.5"/>
<text text-anchor="start" x="123" y="-143.9" font-family="Arial" font-size="14.00" fill="#000000">name </text>
<text text-anchor="start" x="161.899" y="-143.9" font-family="Arial" font-size="14.00" fill="#666666">[varchar(32)]</text>
<polygon fill="none" stroke="#000000" points="116,-102.5 116,-132.5 289,-132.5 289,-102.5 116,-102.5"/>
<text text-anchor="start" x="123" y="-113.9" font-family="Arial" font-size="14.00" fill="#000000">questionnaire_url </text>
<text text-anchor="start" x="234.2482" y="-113.9" font-family="Arial" font-size="14.00" fill="#666666">[text]</text>
<polygon fill="none" stroke="#000000" points="116,-72.5 116,-102.5 289,-102.5 289,-72.5 116,-72.5"/>
<text text-anchor="start" x="123" y="-83.9" font-family="Arial" font-size="14.00" fill="#000000">created_at </text>
<text text-anchor="start" x="193.028" y="-83.9" font-family="Arial" font-size="14.00" fill="#666666">[datetime]</text>
<polygon fill="none" stroke="#000000" points="116,-42.5 116,-72.5 289,-72.5 289,-42.5 116,-42.5"/>
<text text-anchor="start" x="123" y="-53.9" font-family="Arial" font-size="14.00" fill="#000000">deleted_at </text>
<text text-anchor="start" x="192.2566" y="-53.9" font-family="Arial" font-size="14.00" fill="#666666">[datetime]</text>
</g>
<!-- product_keys&#45;&gt;editions -->
<g id="edge2" class="edge">
<title>product_keys:edition_id&#45;&gt;editions:id</title>
<path fill="none" stroke="#000000" d="M250.0048,-456.7339C197.9268,-448.0113 238.9694,-366.631 260,-307 266.8335,-287.6241 282.1665,-290.3759 289,-271 302.8214,-231.8103 330.5556,-177.5 289,-177.5"/>
<polygon fill="#000000" stroke="#000000" points="250.0292,-456.7357 259.6561,-461.9868 255.0146,-457.1179 260,-457.5 260,-457.5 260,-457.5 255.0146,-457.1179 260.3439,-453.0132 250.0292,-456.7357 250.0292,-456.7357"/>
<text text-anchor="start" x="6.939" y="-467.5" font-family="Arial" font-size="10.00" fill="#000000">FOREIGN KEY (edition_id) REFERENCES editions (id)</text>
</g>
<!-- product_key_statuses -->
<g id="node4" class="node">
<title>product_key_statuses</title>
<polygon fill="#efefef" stroke="transparent" points="393,-162.5 393,-197.5 679,-197.5 679,-162.5 393,-162.5"/>
<polygon fill="none" stroke="#000000" points="393,-162.5 393,-197.5 679,-197.5 679,-162.5 393,-162.5"/>
<text text-anchor="start" x="399.8427" y="-175.3" font-family="Arial Bold" font-size="18.00" fill="#000000">product_key_statuses</text>
<text text-anchor="start" x="574.9035" y="-175.3" font-family="Arial" font-size="14.00" fill="#000000"> </text>
<text text-anchor="start" x="578.7941" y="-175.3" font-family="Arial" font-size="14.00" fill="#666666">[BASE TABLE]</text>
<polygon fill="none" stroke="#000000" points="393,-132.5 393,-162.5 679,-162.5 679,-132.5 393,-132.5"/>
<text text-anchor="start" x="400" y="-143.9" font-family="Arial" font-size="14.00" fill="#000000">id </text>
<text text-anchor="start" x="414.7798" y="-143.9" font-family="Arial" font-size="14.00" fill="#666666">[tinyint(4)]</text>
<polygon fill="none" stroke="#000000" points="393,-102.5 393,-132.5 679,-132.5 679,-102.5 393,-102.5"/>
<text text-anchor="start" x="400" y="-113.9" font-family="Arial" font-size="14.00" fill="#000000">name </text>
<text text-anchor="start" x="438.899" y="-113.9" font-family="Arial" font-size="14.00" fill="#666666">[varchar(32)]</text>
<polygon fill="none" stroke="#000000" points="393,-72.5 393,-102.5 679,-102.5 679,-72.5 393,-72.5"/>
<text text-anchor="start" x="400" y="-83.9" font-family="Arial" font-size="14.00" fill="#000000">active </text>
<text text-anchor="start" x="440.453" y="-83.9" font-family="Arial" font-size="14.00" fill="#666666">[tinyint(1)]</text>
</g>
<!-- product_keys&#45;&gt;product_key_statuses -->
<g id="edge3" class="edge">
<title>product_keys:status_id&#45;&gt;product_key_statuses:id</title>
<path fill="none" stroke="#000000" d="M487.7038,-365.0228C500.2601,-356.4384 487.9761,-327.3765 478,-307 456.9688,-264.0431 414.0312,-283.9569 393,-241 374.7273,-203.6775 351.4444,-147.5 393,-147.5"/>
<polygon fill="#000000" stroke="#000000" points="487.6893,-365.0265 476.8869,-363.1398 482.8446,-366.2632 478,-367.5 478,-367.5 478,-367.5 482.8446,-366.2632 479.1131,-371.8602 487.6893,-365.0265 487.6893,-365.0265"/>
<text text-anchor="start" x="484.926" y="-377.5" font-family="Arial" font-size="10.00" fill="#000000">FOREIGN KEY (status_id) REFERENCES product_key_statuses (id)</text>
</g>
<!-- access_tokens -->
<g id="node2" class="node">
<title>access_tokens</title>
<polygon fill="#efefef" stroke="transparent" points="254,-842.5 254,-877.5 484,-877.5 484,-842.5 254,-842.5"/>
<polygon fill="none" stroke="#000000" points="254,-842.5 254,-877.5 484,-877.5 484,-842.5 254,-842.5"/>
<text text-anchor="start" x="260.8534" y="-855.3" font-family="Arial Bold" font-size="18.00" fill="#000000">access_tokens</text>
<text text-anchor="start" x="379.8928" y="-855.3" font-family="Arial" font-size="14.00" fill="#000000"> </text>
<text text-anchor="start" x="383.7834" y="-855.3" font-family="Arial" font-size="14.00" fill="#666666">[BASE TABLE]</text>
<polygon fill="none" stroke="#000000" points="254,-812.5 254,-842.5 484,-842.5 484,-812.5 254,-812.5"/>
<text text-anchor="start" x="261" y="-823.9" font-family="Arial" font-size="14.00" fill="#000000">id </text>
<text text-anchor="start" x="275.7798" y="-823.9" font-family="Arial" font-size="14.00" fill="#666666">[varchar(36)]</text>
<polygon fill="none" stroke="#000000" points="254,-782.5 254,-812.5 484,-812.5 484,-782.5 254,-782.5"/>
<text text-anchor="start" x="261" y="-793.9" font-family="Arial" font-size="14.00" fill="#000000">product_key_id </text>
<text text-anchor="start" x="359.8092" y="-793.9" font-family="Arial" font-size="14.00" fill="#666666">[varchar(36)]</text>
<polygon fill="none" stroke="#000000" points="254,-752.5 254,-782.5 484,-782.5 484,-752.5 254,-752.5"/>
<text text-anchor="start" x="261" y="-763.9" font-family="Arial" font-size="14.00" fill="#000000">access_token </text>
<text text-anchor="start" x="350.4768" y="-763.9" font-family="Arial" font-size="14.00" fill="#666666">[varchar(64)]</text>
<polygon fill="none" stroke="#000000" points="254,-722.5 254,-752.5 484,-752.5 484,-722.5 254,-722.5"/>
<text text-anchor="start" x="261" y="-733.9" font-family="Arial" font-size="14.00" fill="#000000">expires_at </text>
<text text-anchor="start" x="329.4614" y="-733.9" font-family="Arial" font-size="14.00" fill="#666666">[datetime]</text>
<polygon fill="none" stroke="#000000" points="254,-692.5 254,-722.5 484,-722.5 484,-692.5 254,-692.5"/>
<text text-anchor="start" x="261" y="-703.9" font-family="Arial" font-size="14.00" fill="#000000">created_at </text>
<text text-anchor="start" x="331.028" y="-703.9" font-family="Arial" font-size="14.00" fill="#666666">[datetime]</text>
<polygon fill="none" stroke="#000000" points="254,-662.5 254,-692.5 484,-692.5 484,-662.5 254,-662.5"/>
<text text-anchor="start" x="261" y="-673.9" font-family="Arial" font-size="14.00" fill="#000000">deleted_at </text>
<text text-anchor="start" x="330.2566" y="-673.9" font-family="Arial" font-size="14.00" fill="#666666">[datetime]</text>
</g>
<!-- access_tokens&#45;&gt;product_keys -->
<g id="edge1" class="edge">
<title>access_tokens:product_key_id&#45;&gt;product_keys:id</title>
<path fill="none" stroke="#000000" d="M494.2188,-796.9106C621.4139,-781.9577 612.3047,-487.5 478,-487.5"/>
<polygon fill="#000000" stroke="#000000" points="493.9834,-796.9241 483.7408,-793.0075 488.9917,-797.212 484,-797.5 484,-797.5 484,-797.5 488.9917,-797.212 484.2592,-801.9925 493.9834,-796.9241 493.9834,-796.9241"/>
<text text-anchor="start" x="490.93" y="-807.5" font-family="Arial" font-size="10.00" fill="#000000">FOREIGN KEY (product_key_id) REFERENCES product_keys (id)</text>
</g>
</g>
</svg>
