<?xml version="1.0" encoding="UTF-8" standalone="no"?>
<!DOCTYPE svg PUBLIC "-//W3C//DTD SVG 1.1//EN"
 "http://www.w3.org/Graphics/SVG/1.1/DTD/svg11.dtd">
<!-- Generated by graphviz version 2.40.1 (20161225.0304)
 -->
<!-- Title: seats Pages: 1 -->
<svg width="446pt" height="442pt"
 viewBox="0.00 0.00 446.00 442.00" xmlns="http://www.w3.org/2000/svg" xmlns:xlink="http://www.w3.org/1999/xlink">
<g id="graph0" class="graph" transform="scale(1 1) rotate(0) translate(4 438)">
<title>seats</title>
<polygon fill="#ffffff" stroke="transparent" points="-4,4 -4,-438 442,-438 442,4 -4,4"/>
<!-- seats -->
<g id="node1" class="node">
<title>seats</title>
<polygon fill="#efefef" stroke="transparent" points="207,-352.5 207,-387.5 361,-387.5 361,-352.5 207,-352.5"/>
<polygon fill="none" stroke="#000000" points="207,-352.5 207,-387.5 361,-387.5 361,-352.5 207,-352.5"/>
<text text-anchor="start" x="213.8658" y="-365.3" font-family="Arial Bold" font-size="18.00" fill="#000000">seats</text>
<text text-anchor="start" x="256.8804" y="-365.3" font-family="Arial" font-size="14.00" fill="#000000"> </text>
<text text-anchor="start" x="260.771" y="-365.3" font-family="Arial" font-size="14.00" fill="#666666">[BASE TABLE]</text>
<polygon fill="none" stroke="#000000" points="207,-322.5 207,-352.5 361,-352.5 361,-322.5 207,-322.5"/>
<text text-anchor="start" x="214" y="-333.9" font-family="Arial" font-size="14.00" fill="#000000">id </text>
<text text-anchor="start" x="228.7798" y="-333.9" font-family="Arial" font-size="14.00" fill="#666666">[bigint(20)]</text>
<polygon fill="none" stroke="#000000" points="207,-292.5 207,-322.5 361,-322.5 361,-292.5 207,-292.5"/>
<text text-anchor="start" x="214" y="-303.9" font-family="Arial" font-size="14.00" fill="#000000">status_id </text>
<text text-anchor="start" x="273.9088" y="-303.9" font-family="Arial" font-size="14.00" fill="#666666">[tinyint(4)]</text>
<polygon fill="none" stroke="#000000" stroke-width="3" points="205.5,-291.5 205.5,-389.5 362.5,-389.5 362.5,-291.5 205.5,-291.5"/>
</g>
<!-- seat_statuses -->
<g id="node2" class="node">
<title>seat_statuses</title>
<polygon fill="#efefef" stroke="transparent" points="173,-132.5 173,-167.5 395,-167.5 395,-132.5 173,-132.5"/>
<polygon fill="none" stroke="#000000" points="173,-132.5 173,-167.5 395,-167.5 395,-132.5 173,-132.5"/>
<text text-anchor="start" x="179.8512" y="-145.3" font-family="Arial Bold" font-size="18.00" fill="#000000">seat_statuses</text>
<text text-anchor="start" x="290.895" y="-145.3" font-family="Arial" font-size="14.00" fill="#000000"> </text>
<text text-anchor="start" x="294.7856" y="-145.3" font-family="Arial" font-size="14.00" fill="#666666">[BASE TABLE]</text>
<polygon fill="none" stroke="#000000" points="173,-102.5 173,-132.5 395,-132.5 395,-102.5 173,-102.5"/>
<text text-anchor="start" x="180" y="-113.9" font-family="Arial" font-size="14.00" fill="#000000">id </text>
<text text-anchor="start" x="194.7798" y="-113.9" font-family="Arial" font-size="14.00" fill="#666666">[tinyint(4)]</text>
<polygon fill="none" stroke="#000000" points="173,-72.5 173,-102.5 395,-102.5 395,-72.5 173,-72.5"/>
<text text-anchor="start" x="180" y="-83.9" font-family="Arial" font-size="14.00" fill="#000000">name </text>
<text text-anchor="start" x="218.899" y="-83.9" font-family="Arial" font-size="14.00" fill="#666666">[varchar(255)]</text>
<polygon fill="none" stroke="#000000" points="173,-42.5 173,-72.5 395,-72.5 395,-42.5 173,-42.5"/>
<text text-anchor="start" x="180" y="-53.9" font-family="Arial" font-size="14.00" fill="#000000">active </text>
<text text-anchor="start" x="220.453" y="-53.9" font-family="Arial" font-size="14.00" fill="#666666">[tinyint(1)]</text>
</g>
<!-- seats&#45;&gt;seat_statuses -->
<g id="edge1" class="edge">
<title>seats:status_id&#45;&gt;seat_statuses:id</title>
<path fill="none" stroke="#000000" d="M284.8858,-282.3925C293.8891,-235.125 369.0252,-262.296 395,-211 413.7729,-173.9265 436.5556,-117.5 395,-117.5"/>
<polygon fill="#000000" stroke="#000000" points="284.8731,-282.5382 279.5172,-292.1071 284.4366,-287.5191 284,-292.5 284,-292.5 284,-292.5 284.4366,-287.5191 288.4828,-292.8929 284.8731,-282.5382 284.8731,-282.5382"/>
<text text-anchor="start" x="6.7085" y="-302.5" font-family="Arial" font-size="10.00" fill="#000000">FOREIGN KEY (status_id) REFERENCES seat_statuses (id)</text>
</g>
</g>
</svg>
