<?xml version="1.0" encoding="UTF-8" standalone="no"?>
<!DOCTYPE svg PUBLIC "-//W3C//DTD SVG 1.1//EN"
 "http://www.w3.org/Graphics/SVG/1.1/DTD/svg11.dtd">
<!-- Generated by graphviz version 12.1.2 (20240928.0832)
 -->
<!-- Title: seat_statuses Pages: 1 -->
<svg width="455pt" height="448pt"
 viewBox="0.00 0.00 454.57 448.00" xmlns="http://www.w3.org/2000/svg" xmlns:xlink="http://www.w3.org/1999/xlink">
<g id="graph0" class="graph" transform="scale(1 1) rotate(0) translate(4 444)">
<title>seat_statuses</title>
<polygon fill="white" stroke="none" points="-4,4 -4,-444 450.57,-444 450.57,4 -4,4"/>
<!-- seat_statuses -->
<g id="node1" class="node">
<title>seat_statuses</title>
<polygon fill="#efefef" stroke="none" points="168.9,-138.6 168.9,-174.2 400.37,-174.2 400.37,-138.6 168.9,-138.6"/>
<polygon fill="none" stroke="black" points="168.9,-138.6 168.9,-174.2 400.37,-174.2 400.37,-138.6 168.9,-138.6"/>
<text text-anchor="start" x="175.9" y="-152" font-family="Arial Bold" font-size="18.00">seat_statuses</text>
<text text-anchor="start" x="268.88" y="-152" font-family="Arial" font-size="14.00">    </text>
<text text-anchor="start" x="300" y="-152" font-family="Arial" font-size="14.00" fill="#666666">[BASE TABLE]</text>
<polygon fill="none" stroke="black" points="168.9,-107.8 168.9,-138.6 400.37,-138.6 400.37,-107.8 168.9,-107.8"/>
<text text-anchor="start" x="175.9" y="-120" font-family="Arial" font-size="14.00">id </text>
<text text-anchor="start" x="190.69" y="-120" font-family="Arial" font-size="14.00" fill="#666666">[tinyint(4)]</text>
<polygon fill="none" stroke="black" points="168.9,-77 168.9,-107.8 400.37,-107.8 400.37,-77 168.9,-77"/>
<text text-anchor="start" x="175.9" y="-89.2" font-family="Arial" font-size="14.00">name </text>
<text text-anchor="start" x="214.81" y="-89.2" font-family="Arial" font-size="14.00" fill="#666666">[varchar(255)]</text>
<polygon fill="none" stroke="black" points="168.9,-46.2 168.9,-77 400.37,-77 400.37,-46.2 168.9,-46.2"/>
<text text-anchor="start" x="175.9" y="-58.4" font-family="Arial" font-size="14.00">active </text>
<text text-anchor="start" x="216.36" y="-58.4" font-family="Arial" font-size="14.00" fill="#666666">[tinyint(1)]</text>
<polygon fill="none" stroke="black" stroke-width="3" points="167.4,-44.7 167.4,-175.7 401.87,-175.7 401.87,-44.7 167.4,-44.7"/>
</g>
<!-- seats -->
<g id="node2" class="node">
<title>seats</title>
<polygon fill="#efefef" stroke="none" points="197.9,-361.2 197.9,-396.8 371.37,-396.8 371.37,-361.2 197.9,-361.2"/>
<polygon fill="none" stroke="black" points="197.9,-361.2 197.9,-396.8 371.37,-396.8 371.37,-361.2 197.9,-361.2"/>
<text text-anchor="start" x="204.9" y="-374.6" font-family="Arial Bold" font-size="18.00">seats</text>
<text text-anchor="start" x="239.88" y="-374.6" font-family="Arial" font-size="14.00">    </text>
<text text-anchor="start" x="271" y="-374.6" font-family="Arial" font-size="14.00" fill="#666666">[BASE TABLE]</text>
<polygon fill="none" stroke="black" points="197.9,-330.4 197.9,-361.2 371.37,-361.2 371.37,-330.4 197.9,-330.4"/>
<text text-anchor="start" x="204.9" y="-342.6" font-family="Arial" font-size="14.00">id </text>
<text text-anchor="start" x="219.68" y="-342.6" font-family="Arial" font-size="14.00" fill="#666666">[bigint(20)]</text>
<polygon fill="none" stroke="black" points="197.9,-299.6 197.9,-330.4 371.37,-330.4 371.37,-299.6 197.9,-299.6"/>
<text text-anchor="start" x="204.9" y="-311.8" font-family="Arial" font-size="14.00">status_id </text>
<text text-anchor="start" x="264.82" y="-311.8" font-family="Arial" font-size="14.00" fill="#666666">[tinyint(4)]</text>
</g>
<!-- seats&#45;&gt;seat_statuses -->
<g id="edge1" class="edge">
<title>seats:status_id&#45;&gt;seat_statuses:id</title>
<path fill="none" stroke="black" d="M285.55,-288.39C294.88,-240.85 372.75,-271.76 400.37,-220.4 420.83,-182.35 444.57,-123.2 401.37,-123.2"/>
<polygon fill="black" stroke="black" points="285.56,-288.31 280.18,-297.86 285.08,-293.62 284.69,-297.93 284.69,-297.93 284.69,-297.93 285.08,-293.62 289.15,-298.67 285.56,-288.31"/>
<text text-anchor="start" x="7" y="-308.6" font-family="Arial" font-size="10.00">FOREIGN KEY (status_id) REFERENCES seat_statuses (id)</text>
</g>
</g>
</svg>
