<?xml version="1.0" encoding="UTF-8" standalone="no"?>
<!DOCTYPE svg PUBLIC "-//W3C//DTD SVG 1.1//EN"
 "http://www.w3.org/Graphics/SVG/1.1/DTD/svg11.dtd">
<!-- Generated by graphviz version 12.1.2 (20240928.0832)
 -->
<!-- Title: seats Pages: 1 -->
<svg width="452pt" height="448pt"
 viewBox="0.00 0.00 451.57 448.00" xmlns="http://www.w3.org/2000/svg" xmlns:xlink="http://www.w3.org/1999/xlink">
<g id="graph0" class="graph" transform="scale(1 1) rotate(0) translate(4 444)">
<title>seats</title>
<polygon fill="white" stroke="none" points="-4,4 -4,-444 447.57,-444 447.57,4 -4,4"/>
<!-- seats -->
<g id="node1" class="node">
<title>seats</title>
<polygon fill="#efefef" stroke="none" points="197.9,-358.2 197.9,-393.8 371.37,-393.8 371.37,-358.2 197.9,-358.2"/>
<polygon fill="none" stroke="black" points="197.9,-358.2 197.9,-393.8 371.37,-393.8 371.37,-358.2 197.9,-358.2"/>
<text text-anchor="start" x="204.9" y="-371.6" font-family="Arial Bold" font-size="18.00">seats</text>
<text text-anchor="start" x="239.88" y="-371.6" font-family="Arial" font-size="14.00">    </text>
<text text-anchor="start" x="271" y="-371.6" font-family="Arial" font-size="14.00" fill="#666666">[BASE TABLE]</text>
<polygon fill="none" stroke="black" points="197.9,-327.4 197.9,-358.2 371.37,-358.2 371.37,-327.4 197.9,-327.4"/>
<text text-anchor="start" x="204.9" y="-339.6" font-family="Arial" font-size="14.00">id </text>
<text text-anchor="start" x="219.68" y="-339.6" font-family="Arial" font-size="14.00" fill="#666666">[bigint(20)]</text>
<polygon fill="none" stroke="black" points="197.9,-296.6 197.9,-327.4 371.37,-327.4 371.37,-296.6 197.9,-296.6"/>
<text text-anchor="start" x="204.9" y="-308.8" font-family="Arial" font-size="14.00">status_id </text>
<text text-anchor="start" x="264.82" y="-308.8" font-family="Arial" font-size="14.00" fill="#666666">[tinyint(4)]</text>
<polygon fill="none" stroke="black" stroke-width="3" points="196.4,-295.1 196.4,-395.3 372.87,-395.3 372.87,-295.1 196.4,-295.1"/>
</g>
<!-- seat_statuses -->
<g id="node2" class="node">
<title>seat_statuses</title>
<polygon fill="#efefef" stroke="none" points="168.9,-135.6 168.9,-171.2 400.37,-171.2 400.37,-135.6 168.9,-135.6"/>
<polygon fill="none" stroke="black" points="168.9,-135.6 168.9,-171.2 400.37,-171.2 400.37,-135.6 168.9,-135.6"/>
<text text-anchor="start" x="175.9" y="-149" font-family="Arial Bold" font-size="18.00">seat_statuses</text>
<text text-anchor="start" x="268.88" y="-149" font-family="Arial" font-size="14.00">    </text>
<text text-anchor="start" x="300" y="-149" font-family="Arial" font-size="14.00" fill="#666666">[BASE TABLE]</text>
<polygon fill="none" stroke="black" points="168.9,-104.8 168.9,-135.6 400.37,-135.6 400.37,-104.8 168.9,-104.8"/>
<text text-anchor="start" x="175.9" y="-117" font-family="Arial" font-size="14.00">id </text>
<text text-anchor="start" x="190.69" y="-117" font-family="Arial" font-size="14.00" fill="#666666">[tinyint(4)]</text>
<polygon fill="none" stroke="black" points="168.9,-74 168.9,-104.8 400.37,-104.8 400.37,-74 168.9,-74"/>
<text text-anchor="start" x="175.9" y="-86.2" font-family="Arial" font-size="14.00">name </text>
<text text-anchor="start" x="214.81" y="-86.2" font-family="Arial" font-size="14.00" fill="#666666">[varchar(255)]</text>
<polygon fill="none" stroke="black" points="168.9,-43.2 168.9,-74 400.37,-74 400.37,-43.2 168.9,-43.2"/>
<text text-anchor="start" x="175.9" y="-55.4" font-family="Arial" font-size="14.00">active </text>
<text text-anchor="start" x="216.36" y="-55.4" font-family="Arial" font-size="14.00" fill="#666666">[tinyint(1)]</text>
</g>
<!-- seats&#45;&gt;seat_statuses -->
<g id="edge1" class="edge">
<title>seats:status_id&#45;&gt;seat_statuses:id</title>
<path fill="none" stroke="black" d="M285.55,-285.24C294.89,-236.93 372.86,-266.63 400.37,-214.4 419.88,-177.36 443.24,-120.2 401.37,-120.2"/>
<polygon fill="black" stroke="black" points="285.55,-285.31 280.18,-294.87 285.08,-290.62 284.69,-294.93 284.69,-294.93 284.69,-294.93 285.08,-290.62 289.15,-295.66 285.55,-285.31"/>
<text text-anchor="start" x="7" y="-305.6" font-family="Arial" font-size="10.00">FOREIGN KEY (status_id) REFERENCES seat_statuses (id)</text>
</g>
</g>
</svg>
