<?xml version="1.0" encoding="UTF-8" standalone="no"?>
<!DOCTYPE svg PUBLIC "-//W3C//DTD SVG 1.1//EN"
 "http://www.w3.org/Graphics/SVG/1.1/DTD/svg11.dtd">
<!-- Generated by graphviz version 2.40.1 (20161225.0304)
 -->
<!-- Title: seat_statuses Pages: 1 -->
<svg width="449pt" height="442pt"
 viewBox="0.00 0.00 449.00 442.00" xmlns="http://www.w3.org/2000/svg" xmlns:xlink="http://www.w3.org/1999/xlink">
<g id="graph0" class="graph" transform="scale(1 1) rotate(0) translate(4 438)">
<title>seat_statuses</title>
<polygon fill="#ffffff" stroke="transparent" points="-4,4 -4,-438 445,-438 445,4 -4,4"/>
<!-- seat_statuses -->
<g id="node1" class="node">
<title>seat_statuses</title>
<polygon fill="#efefef" stroke="transparent" points="173,-135.5 173,-170.5 395,-170.5 395,-135.5 173,-135.5"/>
<polygon fill="none" stroke="#000000" points="173,-135.5 173,-170.5 395,-170.5 395,-135.5 173,-135.5"/>
<text text-anchor="start" x="179.8512" y="-148.3" font-family="Arial Bold" font-size="18.00" fill="#000000">seat_statuses</text>
<text text-anchor="start" x="290.895" y="-148.3" font-family="Arial" font-size="14.00" fill="#000000"> </text>
<text text-anchor="start" x="294.7856" y="-148.3" font-family="Arial" font-size="14.00" fill="#666666">[BASE TABLE]</text>
<polygon fill="none" stroke="#000000" points="173,-105.5 173,-135.5 395,-135.5 395,-105.5 173,-105.5"/>
<text text-anchor="start" x="180" y="-116.9" font-family="Arial" font-size="14.00" fill="#000000">id </text>
<text text-anchor="start" x="194.7798" y="-116.9" font-family="Arial" font-size="14.00" fill="#666666">[tinyint(4)]</text>
<polygon fill="none" stroke="#000000" points="173,-75.5 173,-105.5 395,-105.5 395,-75.5 173,-75.5"/>
<text text-anchor="start" x="180" y="-86.9" font-family="Arial" font-size="14.00" fill="#000000">name </text>
<text text-anchor="start" x="218.899" y="-86.9" font-family="Arial" font-size="14.00" fill="#666666">[varchar(255)]</text>
<polygon fill="none" stroke="#000000" points="173,-45.5 173,-75.5 395,-75.5 395,-45.5 173,-45.5"/>
<text text-anchor="start" x="180" y="-56.9" font-family="Arial" font-size="14.00" fill="#000000">active </text>
<text text-anchor="start" x="220.453" y="-56.9" font-family="Arial" font-size="14.00" fill="#666666">[tinyint(1)]</text>
<polygon fill="none" stroke="#000000" stroke-width="3" points="171.5,-44.5 171.5,-172.5 396.5,-172.5 396.5,-44.5 171.5,-44.5"/>
</g>
<!-- seats -->
<g id="node2" class="node">
<title>seats</title>
<polygon fill="#efefef" stroke="transparent" points="207,-355.5 207,-390.5 361,-390.5 361,-355.5 207,-355.5"/>
<polygon fill="none" stroke="#000000" points="207,-355.5 207,-390.5 361,-390.5 361,-355.5 207,-355.5"/>
<text text-anchor="start" x="213.8658" y="-368.3" font-family="Arial Bold" font-size="18.00" fill="#000000">seats</text>
<text text-anchor="start" x="256.8804" y="-368.3" font-family="Arial" font-size="14.00" fill="#000000"> </text>
<text text-anchor="start" x="260.771" y="-368.3" font-family="Arial" font-size="14.00" fill="#666666">[BASE TABLE]</text>
<polygon fill="none" stroke="#000000" points="207,-325.5 207,-355.5 361,-355.5 361,-325.5 207,-325.5"/>
<text text-anchor="start" x="214" y="-336.9" font-family="Arial" font-size="14.00" fill="#000000">id </text>
<text text-anchor="start" x="228.7798" y="-336.9" font-family="Arial" font-size="14.00" fill="#666666">[bigint(20)]</text>
<polygon fill="none" stroke="#000000" points="207,-295.5 207,-325.5 361,-325.5 361,-295.5 207,-295.5"/>
<text text-anchor="start" x="214" y="-306.9" font-family="Arial" font-size="14.00" fill="#000000">status_id </text>
<text text-anchor="start" x="273.9088" y="-306.9" font-family="Arial" font-size="14.00" fill="#666666">[tinyint(4)]</text>
</g>
<!-- seats&#45;&gt;seat_statuses -->
<g id="edge1" class="edge">
<title>seats:status_id&#45;&gt;seat_statuses:id</title>
<path fill="none" stroke="#000000" d="M284.9414,-285.2504C294.1865,-239.1759 368.9609,-267.3077 395,-217 414.7148,-178.9108 437.8889,-120.5 395,-120.5"/>
<polygon fill="#000000" stroke="#000000" points="284.9148,-285.5419 279.5189,-295.0884 284.4574,-290.521 284,-295.5 284,-295.5 284,-295.5 284.4574,-290.521 288.4811,-295.9116 284.9148,-285.5419 284.9148,-285.5419"/>
<text text-anchor="start" x="6.7085" y="-305.5" font-family="Arial" font-size="10.00" fill="#000000">FOREIGN KEY (status_id) REFERENCES seat_statuses (id)</text>
</g>
</g>
</svg>
