<?xml version="1.0" encoding="UTF-8" standalone="no"?>
<!DOCTYPE svg PUBLIC "-//W3C//DTD SVG 1.1//EN"
 "http://www.w3.org/Graphics/SVG/1.1/DTD/svg11.dtd">
<!-- Generated by graphviz version 2.40.1 (20161225.0304)
 -->
<!-- Title: v2_game_images Pages: 1 -->
<svg width="932pt" height="869pt"
 viewBox="0.00 0.00 932.00 869.00" xmlns="http://www.w3.org/2000/svg" xmlns:xlink="http://www.w3.org/1999/xlink">
<g id="graph0" class="graph" transform="scale(1 1) rotate(0) translate(4 865)">
<title>v2_game_images</title>
<polygon fill="#ffffff" stroke="transparent" points="-4,4 -4,-865 928,-865 928,4 -4,4"/>
<!-- v2_game_images -->
<g id="node1" class="node">
<title>v2_game_images</title>
<polygon fill="#efefef" stroke="transparent" points="336,-412.5 336,-447.5 589,-447.5 589,-412.5 336,-412.5"/>
<polygon fill="none" stroke="#000000" points="336,-412.5 336,-447.5 589,-447.5 589,-412.5 336,-412.5"/>
<text text-anchor="start" x="342.8559" y="-425.3" font-family="Arial Bold" font-size="18.00" fill="#000000">v2_game_images</text>
<text text-anchor="start" x="484.8903" y="-425.3" font-family="Arial" font-size="14.00" fill="#000000"> </text>
<text text-anchor="start" x="488.7809" y="-425.3" font-family="Arial" font-size="14.00" fill="#666666">[BASE TABLE]</text>
<polygon fill="none" stroke="#000000" points="336,-382.5 336,-412.5 589,-412.5 589,-382.5 336,-382.5"/>
<text text-anchor="start" x="343" y="-393.9" font-family="Arial" font-size="14.00" fill="#000000">id </text>
<text text-anchor="start" x="357.7798" y="-393.9" font-family="Arial" font-size="14.00" fill="#666666">[varchar(36)]</text>
<polygon fill="none" stroke="#000000" points="336,-352.5 336,-382.5 589,-382.5 589,-352.5 336,-352.5"/>
<text text-anchor="start" x="343" y="-363.9" font-family="Arial" font-size="14.00" fill="#000000">game_id </text>
<text text-anchor="start" x="400.5708" y="-363.9" font-family="Arial" font-size="14.00" fill="#666666">[varchar(36)]</text>
<polygon fill="none" stroke="#000000" points="336,-322.5 336,-352.5 589,-352.5 589,-322.5 336,-322.5"/>
<text text-anchor="start" x="343" y="-333.9" font-family="Arial" font-size="14.00" fill="#000000">image_type_id </text>
<text text-anchor="start" x="437.9158" y="-333.9" font-family="Arial" font-size="14.00" fill="#666666">[tinyint(4)]</text>
<polygon fill="none" stroke="#000000" points="336,-292.5 336,-322.5 589,-322.5 589,-292.5 336,-292.5"/>
<text text-anchor="start" x="343" y="-303.9" font-family="Arial" font-size="14.00" fill="#000000">created_at </text>
<text text-anchor="start" x="413.028" y="-303.9" font-family="Arial" font-size="14.00" fill="#666666">[datetime]</text>
<polygon fill="none" stroke="#000000" stroke-width="3" points="334,-291.5 334,-449.5 590,-449.5 590,-291.5 334,-291.5"/>
</g>
<!-- game_image_types -->
<g id="node3" class="node">
<title>game_image_types</title>
<polygon fill="#efefef" stroke="transparent" points="329,-132.5 329,-167.5 597,-167.5 597,-132.5 329,-132.5"/>
<polygon fill="none" stroke="#000000" points="329,-132.5 329,-167.5 597,-167.5 597,-132.5 329,-132.5"/>
<text text-anchor="start" x="335.8517" y="-145.3" font-family="Arial Bold" font-size="18.00" fill="#000000">game_image_types</text>
<text text-anchor="start" x="492.8945" y="-145.3" font-family="Arial" font-size="14.00" fill="#000000"> </text>
<text text-anchor="start" x="496.7851" y="-145.3" font-family="Arial" font-size="14.00" fill="#666666">[BASE TABLE]</text>
<polygon fill="none" stroke="#000000" points="329,-102.5 329,-132.5 597,-132.5 597,-102.5 329,-102.5"/>
<text text-anchor="start" x="336" y="-113.9" font-family="Arial" font-size="14.00" fill="#000000">id </text>
<text text-anchor="start" x="350.7798" y="-113.9" font-family="Arial" font-size="14.00" fill="#666666">[tinyint(4)]</text>
<polygon fill="none" stroke="#000000" points="329,-72.5 329,-102.5 597,-102.5 597,-72.5 329,-72.5"/>
<text text-anchor="start" x="336" y="-83.9" font-family="Arial" font-size="14.00" fill="#000000">name </text>
<text text-anchor="start" x="374.899" y="-83.9" font-family="Arial" font-size="14.00" fill="#666666">[varchar(32)]</text>
<polygon fill="none" stroke="#000000" points="329,-42.5 329,-72.5 597,-72.5 597,-42.5 329,-42.5"/>
<text text-anchor="start" x="336" y="-53.9" font-family="Arial" font-size="14.00" fill="#000000">active </text>
<text text-anchor="start" x="376.453" y="-53.9" font-family="Arial" font-size="14.00" fill="#666666">[tinyint(1)]</text>
</g>
<!-- v2_game_images&#45;&gt;game_image_types -->
<g id="edge2" class="edge">
<title>v2_game_images:image_type_id&#45;&gt;game_image_types:id</title>
<path fill="none" stroke="#000000" d="M598.9221,-335.9876C626.5233,-326.4802 612.9423,-274.4858 589,-247 512.3757,-159.0352 405.6243,-298.9648 329,-211 301.7051,-179.6654 287.4444,-117.5 329,-117.5"/>
<polygon fill="#000000" stroke="#000000" points="598.8858,-335.9931 588.3219,-333.0514 593.9429,-336.7465 589,-337.5 589,-337.5 589,-337.5 593.9429,-336.7465 589.6781,-341.9486 598.8858,-335.9931 598.8858,-335.9931"/>
<text text-anchor="start" x="596.4285" y="-347.5" font-family="Arial" font-size="10.00" fill="#000000">FOREIGN KEY (image_type_id) REFERENCES game_image_types (id)</text>
</g>
<!-- v2_game_versions -->
<g id="node2" class="node">
<title>v2_game_versions</title>
<polygon fill="#efefef" stroke="transparent" points="332,-782.5 332,-817.5 594,-817.5 594,-782.5 332,-782.5"/>
<polygon fill="none" stroke="#000000" points="332,-782.5 332,-817.5 594,-817.5 594,-782.5 332,-782.5"/>
<text text-anchor="start" x="338.8559" y="-795.3" font-family="Arial Bold" font-size="18.00" fill="#000000">v2_game_versions</text>
<text text-anchor="start" x="489.8903" y="-795.3" font-family="Arial" font-size="14.00" fill="#000000"> </text>
<text text-anchor="start" x="493.7809" y="-795.3" font-family="Arial" font-size="14.00" fill="#666666">[BASE TABLE]</text>
<polygon fill="none" stroke="#000000" points="332,-752.5 332,-782.5 594,-782.5 594,-752.5 332,-752.5"/>
<text text-anchor="start" x="339" y="-763.9" font-family="Arial" font-size="14.00" fill="#000000">id </text>
<text text-anchor="start" x="353.7798" y="-763.9" font-family="Arial" font-size="14.00" fill="#666666">[varchar(36)]</text>
<polygon fill="none" stroke="#000000" points="332,-722.5 332,-752.5 594,-752.5 594,-722.5 332,-722.5"/>
<text text-anchor="start" x="339" y="-733.9" font-family="Arial" font-size="14.00" fill="#000000">game_id </text>
<text text-anchor="start" x="396.5708" y="-733.9" font-family="Arial" font-size="14.00" fill="#666666">[varchar(36)]</text>
<polygon fill="none" stroke="#000000" points="332,-692.5 332,-722.5 594,-722.5 594,-692.5 332,-692.5"/>
<text text-anchor="start" x="339" y="-703.9" font-family="Arial" font-size="14.00" fill="#000000">game_image_id </text>
<text text-anchor="start" x="442.4684" y="-703.9" font-family="Arial" font-size="14.00" fill="#666666">[varchar(36)]</text>
<polygon fill="none" stroke="#000000" points="332,-662.5 332,-692.5 594,-692.5 594,-662.5 332,-662.5"/>
<text text-anchor="start" x="339" y="-673.9" font-family="Arial" font-size="14.00" fill="#000000">game_video_id </text>
<text text-anchor="start" x="437.8078" y="-673.9" font-family="Arial" font-size="14.00" fill="#666666">[varchar(36)]</text>
<polygon fill="none" stroke="#000000" points="332,-632.5 332,-662.5 594,-662.5 594,-632.5 332,-632.5"/>
<text text-anchor="start" x="339" y="-643.9" font-family="Arial" font-size="14.00" fill="#000000">name </text>
<text text-anchor="start" x="377.899" y="-643.9" font-family="Arial" font-size="14.00" fill="#666666">[varchar(32)]</text>
<polygon fill="none" stroke="#000000" points="332,-602.5 332,-632.5 594,-632.5 594,-602.5 332,-602.5"/>
<text text-anchor="start" x="339" y="-613.9" font-family="Arial" font-size="14.00" fill="#000000">description </text>
<text text-anchor="start" x="410.568" y="-613.9" font-family="Arial" font-size="14.00" fill="#666666">[text]</text>
<polygon fill="none" stroke="#000000" points="332,-572.5 332,-602.5 594,-602.5 594,-572.5 332,-572.5"/>
<text text-anchor="start" x="339" y="-583.9" font-family="Arial" font-size="14.00" fill="#000000">created_at </text>
<text text-anchor="start" x="409.028" y="-583.9" font-family="Arial" font-size="14.00" fill="#666666">[datetime]</text>
</g>
<!-- v2_game_versions&#45;&gt;v2_game_images -->
<g id="edge1" class="edge">
<title>v2_game_versions:game_image_id&#45;&gt;v2_game_images:id</title>
<path fill="none" stroke="#000000" d="M322.0029,-706.8018C255.5974,-697.0188 282.5563,-586.8524 332,-530 407.6879,-442.9709 513.3121,-581.0291 589,-494 617.145,-461.6377 631.8889,-397.5 589,-397.5"/>
<polygon fill="#000000" stroke="#000000" points="322.0243,-706.8032 331.6864,-711.9891 327.0121,-707.1516 332,-707.5 332,-707.5 332,-707.5 327.0121,-707.1516 332.3136,-703.0109 322.0243,-706.8032 322.0243,-706.8032"/>
<text text-anchor="start" x="6.543" y="-717.5" font-family="Arial" font-size="10.00" fill="#000000">FOREIGN KEY (game_image_id) REFERENCES v2_game_images (id)</text>
</g>
</g>
</svg>
