<?xml version="1.0" encoding="UTF-8" standalone="no"?>
<!DOCTYPE svg PUBLIC "-//W3C//DTD SVG 1.1//EN"
 "http://www.w3.org/Graphics/SVG/1.1/DTD/svg11.dtd">
<!-- Generated by graphviz version 2.40.1 (20161225.0304)
 -->
<!-- Title: v2_game_files Pages: 1 -->
<svg width="792pt" height="839pt"
 viewBox="0.00 0.00 792.00 839.00" xmlns="http://www.w3.org/2000/svg" xmlns:xlink="http://www.w3.org/1999/xlink">
<g id="graph0" class="graph" transform="scale(1 1) rotate(0) translate(4 835)">
<title>v2_game_files</title>
<polygon fill="#ffffff" stroke="transparent" points="-4,4 -4,-835 788,-835 788,4 -4,4"/>
<!-- v2_game_files -->
<g id="node1" class="node">
<title>v2_game_files</title>
<polygon fill="#efefef" stroke="transparent" points="251,-532.5 251,-567.5 478,-567.5 478,-532.5 251,-532.5"/>
<polygon fill="none" stroke="#000000" points="251,-532.5 251,-567.5 478,-567.5 478,-532.5 251,-532.5"/>
<text text-anchor="start" x="257.86" y="-545.3" font-family="Arial Bold" font-size="18.00" fill="#000000">v2_game_files</text>
<text text-anchor="start" x="373.8862" y="-545.3" font-family="Arial" font-size="14.00" fill="#000000"> </text>
<text text-anchor="start" x="377.7768" y="-545.3" font-family="Arial" font-size="14.00" fill="#666666">[BASE TABLE]</text>
<polygon fill="none" stroke="#000000" points="251,-502.5 251,-532.5 478,-532.5 478,-502.5 251,-502.5"/>
<text text-anchor="start" x="258" y="-513.9" font-family="Arial" font-size="14.00" fill="#000000">id </text>
<text text-anchor="start" x="272.7798" y="-513.9" font-family="Arial" font-size="14.00" fill="#666666">[varchar(36)]</text>
<polygon fill="none" stroke="#000000" points="251,-472.5 251,-502.5 478,-502.5 478,-472.5 251,-472.5"/>
<text text-anchor="start" x="258" y="-483.9" font-family="Arial" font-size="14.00" fill="#000000">game_id </text>
<text text-anchor="start" x="315.5708" y="-483.9" font-family="Arial" font-size="14.00" fill="#666666">[varchar(36)]</text>
<polygon fill="none" stroke="#000000" points="251,-442.5 251,-472.5 478,-472.5 478,-442.5 251,-442.5"/>
<text text-anchor="start" x="258" y="-453.9" font-family="Arial" font-size="14.00" fill="#000000">file_type_id </text>
<text text-anchor="start" x="332.6872" y="-453.9" font-family="Arial" font-size="14.00" fill="#666666">[tinyint(4)]</text>
<polygon fill="none" stroke="#000000" points="251,-412.5 251,-442.5 478,-442.5 478,-412.5 251,-412.5"/>
<text text-anchor="start" x="258" y="-423.9" font-family="Arial" font-size="14.00" fill="#000000">hash </text>
<text text-anchor="start" x="292.2384" y="-423.9" font-family="Arial" font-size="14.00" fill="#666666">[char(32)]</text>
<polygon fill="none" stroke="#000000" points="251,-382.5 251,-412.5 478,-412.5 478,-382.5 251,-382.5"/>
<text text-anchor="start" x="258" y="-393.9" font-family="Arial" font-size="14.00" fill="#000000">entry_point </text>
<text text-anchor="start" x="331.1346" y="-393.9" font-family="Arial" font-size="14.00" fill="#666666">[text]</text>
<polygon fill="none" stroke="#000000" points="251,-352.5 251,-382.5 478,-382.5 478,-352.5 251,-352.5"/>
<text text-anchor="start" x="258" y="-363.9" font-family="Arial" font-size="14.00" fill="#000000">created_at </text>
<text text-anchor="start" x="328.028" y="-363.9" font-family="Arial" font-size="14.00" fill="#666666">[datetime]</text>
<polygon fill="none" stroke="#000000" stroke-width="3" points="249,-351.5 249,-569.5 479,-569.5 479,-351.5 249,-351.5"/>
</g>
<!-- games -->
<g id="node3" class="node">
<title>games</title>
<polygon fill="#efefef" stroke="transparent" points="129,-192.5 129,-227.5 294,-227.5 294,-192.5 129,-192.5"/>
<polygon fill="none" stroke="#000000" points="129,-192.5 129,-227.5 294,-227.5 294,-192.5 129,-192.5"/>
<text text-anchor="start" x="135.8677" y="-205.3" font-family="Arial Bold" font-size="18.00" fill="#000000">games</text>
<text text-anchor="start" x="189.8785" y="-205.3" font-family="Arial" font-size="14.00" fill="#000000"> </text>
<text text-anchor="start" x="193.7691" y="-205.3" font-family="Arial" font-size="14.00" fill="#666666">[BASE TABLE]</text>
<polygon fill="none" stroke="#000000" points="129,-162.5 129,-192.5 294,-192.5 294,-162.5 129,-162.5"/>
<text text-anchor="start" x="136" y="-173.9" font-family="Arial" font-size="14.00" fill="#000000">id </text>
<text text-anchor="start" x="150.7798" y="-173.9" font-family="Arial" font-size="14.00" fill="#666666">[varchar(36)]</text>
<polygon fill="none" stroke="#000000" points="129,-132.5 129,-162.5 294,-162.5 294,-132.5 129,-132.5"/>
<text text-anchor="start" x="136" y="-143.9" font-family="Arial" font-size="14.00" fill="#000000">name </text>
<text text-anchor="start" x="174.899" y="-143.9" font-family="Arial" font-size="14.00" fill="#666666">[varchar(256)]</text>
<polygon fill="none" stroke="#000000" points="129,-102.5 129,-132.5 294,-132.5 294,-102.5 129,-102.5"/>
<text text-anchor="start" x="136" y="-113.9" font-family="Arial" font-size="14.00" fill="#000000">description </text>
<text text-anchor="start" x="207.568" y="-113.9" font-family="Arial" font-size="14.00" fill="#666666">[text]</text>
<polygon fill="none" stroke="#000000" points="129,-72.5 129,-102.5 294,-102.5 294,-72.5 129,-72.5"/>
<text text-anchor="start" x="136" y="-83.9" font-family="Arial" font-size="14.00" fill="#000000">created_at </text>
<text text-anchor="start" x="206.028" y="-83.9" font-family="Arial" font-size="14.00" fill="#666666">[datetime]</text>
<polygon fill="none" stroke="#000000" points="129,-42.5 129,-72.5 294,-72.5 294,-42.5 129,-42.5"/>
<text text-anchor="start" x="136" y="-53.9" font-family="Arial" font-size="14.00" fill="#000000">deleted_at </text>
<text text-anchor="start" x="205.2566" y="-53.9" font-family="Arial" font-size="14.00" fill="#666666">[datetime]</text>
</g>
<!-- v2_game_files&#45;&gt;games -->
<g id="edge2" class="edge">
<title>v2_game_files:game_id&#45;&gt;games:id</title>
<path fill="none" stroke="#000000" d="M240.942,-486.8603C174.9107,-477.8846 218.5811,-376.4219 251,-307 261.5461,-284.4165 283.4539,-293.5835 294,-271 311.583,-233.3476 335.5556,-177.5 294,-177.5"/>
<polygon fill="#000000" stroke="#000000" points="241.0202,-486.8651 250.7143,-491.9909 246.0101,-487.1826 251,-487.5 251,-487.5 251,-487.5 246.0101,-487.1826 251.2857,-483.0091 241.0202,-486.8651 241.0202,-486.8651"/>
<text text-anchor="start" x="7.386" y="-497.5" font-family="Arial" font-size="10.00" fill="#000000">FOREIGN KEY (game_id) REFERENCES games (id)</text>
</g>
<!-- game_file_types -->
<g id="node4" class="node">
<title>game_file_types</title>
<polygon fill="#efefef" stroke="transparent" points="398,-162.5 398,-197.5 640,-197.5 640,-162.5 398,-162.5"/>
<polygon fill="none" stroke="#000000" points="398,-162.5 398,-197.5 640,-197.5 640,-162.5 398,-162.5"/>
<text text-anchor="start" x="404.8558" y="-175.3" font-family="Arial Bold" font-size="18.00" fill="#000000">game_file_types</text>
<text text-anchor="start" x="535.8904" y="-175.3" font-family="Arial" font-size="14.00" fill="#000000"> </text>
<text text-anchor="start" x="539.781" y="-175.3" font-family="Arial" font-size="14.00" fill="#666666">[BASE TABLE]</text>
<polygon fill="none" stroke="#000000" points="398,-132.5 398,-162.5 640,-162.5 640,-132.5 398,-132.5"/>
<text text-anchor="start" x="405" y="-143.9" font-family="Arial" font-size="14.00" fill="#000000">id </text>
<text text-anchor="start" x="419.7798" y="-143.9" font-family="Arial" font-size="14.00" fill="#666666">[tinyint(4)]</text>
<polygon fill="none" stroke="#000000" points="398,-102.5 398,-132.5 640,-132.5 640,-102.5 398,-102.5"/>
<text text-anchor="start" x="405" y="-113.9" font-family="Arial" font-size="14.00" fill="#000000">name </text>
<text text-anchor="start" x="443.899" y="-113.9" font-family="Arial" font-size="14.00" fill="#666666">[varchar(32)]</text>
<polygon fill="none" stroke="#000000" points="398,-72.5 398,-102.5 640,-102.5 640,-72.5 398,-72.5"/>
<text text-anchor="start" x="405" y="-83.9" font-family="Arial" font-size="14.00" fill="#000000">active </text>
<text text-anchor="start" x="445.453" y="-83.9" font-family="Arial" font-size="14.00" fill="#666666">[tinyint(1)]</text>
</g>
<!-- v2_game_files&#45;&gt;game_file_types -->
<g id="edge3" class="edge">
<title>v2_game_files:file_type_id&#45;&gt;game_file_types:id</title>
<path fill="none" stroke="#000000" d="M488.0484,-456.7121C540.7218,-447.7449 504.961,-364.1948 478,-307 458.346,-265.3063 417.654,-282.6937 398,-241 380.2811,-203.4114 356.4444,-147.5 398,-147.5"/>
<polygon fill="#000000" stroke="#000000" points="487.9694,-456.7182 477.6482,-453.0138 482.9847,-457.1091 478,-457.5 478,-457.5 478,-457.5 482.9847,-457.1091 478.3518,-461.9862 487.9694,-456.7182 487.9694,-456.7182"/>
<text text-anchor="start" x="484.8775" y="-467.5" font-family="Arial" font-size="10.00" fill="#000000">FOREIGN KEY (file_type_id) REFERENCES game_file_types (id)</text>
</g>
<!-- game_version_game_file_relations -->
<g id="node2" class="node">
<title>game_version_game_file_relations</title>
<polygon fill="#efefef" stroke="transparent" points="170,-752.5 170,-787.5 560,-787.5 560,-752.5 170,-752.5"/>
<polygon fill="none" stroke="#000000" points="170,-752.5 170,-787.5 560,-787.5 560,-752.5 170,-752.5"/>
<text text-anchor="start" x="176.8452" y="-765.3" font-family="Arial Bold" font-size="18.00" fill="#000000">game_version_game_file_relations</text>
<text text-anchor="start" x="455.901" y="-765.3" font-family="Arial" font-size="14.00" fill="#000000"> </text>
<text text-anchor="start" x="459.7916" y="-765.3" font-family="Arial" font-size="14.00" fill="#666666">[BASE TABLE]</text>
<polygon fill="none" stroke="#000000" points="170,-722.5 170,-752.5 560,-752.5 560,-722.5 170,-722.5"/>
<text text-anchor="start" x="177" y="-733.9" font-family="Arial" font-size="14.00" fill="#000000">game_version_id </text>
<text text-anchor="start" x="287.4684" y="-733.9" font-family="Arial" font-size="14.00" fill="#666666">[varchar(36)]</text>
<polygon fill="none" stroke="#000000" points="170,-692.5 170,-722.5 560,-722.5 560,-692.5 170,-692.5"/>
<text text-anchor="start" x="177" y="-703.9" font-family="Arial" font-size="14.00" fill="#000000">game_file_id </text>
<text text-anchor="start" x="260.2398" y="-703.9" font-family="Arial" font-size="14.00" fill="#666666">[varchar(36)]</text>
</g>
<!-- game_version_game_file_relations&#45;&gt;v2_game_files -->
<g id="edge1" class="edge">
<title>game_version_game_file_relations:game_file_id&#45;&gt;v2_game_files:id</title>
<path fill="none" stroke="#000000" d="M365.8998,-682.4281C375.0456,-635.476 451.3785,-664.9085 478,-614 497.8745,-575.9939 520.8889,-517.5 478,-517.5"/>
<polygon fill="#000000" stroke="#000000" points="365.8899,-682.5397 360.5179,-692.0995 365.445,-687.5198 365,-692.5 365,-692.5 365,-692.5 365.445,-687.5198 369.4821,-692.9005 365.8899,-682.5397 365.8899,-682.5397"/>
<text text-anchor="start" x="67.992" y="-702.5" font-family="Arial" font-size="10.00" fill="#000000">FOREIGN KEY (game_file_id) REFERENCES v2_game_files (id)</text>
</g>
</g>
</svg>
