<?xml version="1.0" encoding="UTF-8" standalone="no"?>
<!DOCTYPE svg PUBLIC "-//W3C//DTD SVG 1.1//EN"
 "http://www.w3.org/Graphics/SVG/1.1/DTD/svg11.dtd">
<!-- Generated by graphviz version 2.40.1 (20161225.0304)
 -->
<!-- Title: v2_game_images Pages: 1 -->
<svg width="932pt" height="989pt"
 viewBox="0.00 0.00 932.00 989.00" xmlns="http://www.w3.org/2000/svg" xmlns:xlink="http://www.w3.org/1999/xlink">
<g id="graph0" class="graph" transform="scale(1 1) rotate(0) translate(4 985)">
<title>v2_game_images</title>
<polygon fill="#ffffff" stroke="transparent" points="-4,4 -4,-985 928,-985 928,4 -4,4"/>
<!-- v2_game_images -->
<g id="node1" class="node">
<title>v2_game_images</title>
<polygon fill="#efefef" stroke="transparent" points="336,-502.5 336,-537.5 589,-537.5 589,-502.5 336,-502.5"/>
<polygon fill="none" stroke="#000000" points="336,-502.5 336,-537.5 589,-537.5 589,-502.5 336,-502.5"/>
<text text-anchor="start" x="342.8559" y="-515.3" font-family="Arial Bold" font-size="18.00" fill="#000000">v2_game_images</text>
<text text-anchor="start" x="484.8903" y="-515.3" font-family="Arial" font-size="14.00" fill="#000000"> </text>
<text text-anchor="start" x="488.7809" y="-515.3" font-family="Arial" font-size="14.00" fill="#666666">[BASE TABLE]</text>
<polygon fill="none" stroke="#000000" points="336,-472.5 336,-502.5 589,-502.5 589,-472.5 336,-472.5"/>
<text text-anchor="start" x="343" y="-483.9" font-family="Arial" font-size="14.00" fill="#000000">id </text>
<text text-anchor="start" x="357.7798" y="-483.9" font-family="Arial" font-size="14.00" fill="#666666">[varchar(36)]</text>
<polygon fill="none" stroke="#000000" points="336,-442.5 336,-472.5 589,-472.5 589,-442.5 336,-442.5"/>
<text text-anchor="start" x="343" y="-453.9" font-family="Arial" font-size="14.00" fill="#000000">game_id </text>
<text text-anchor="start" x="400.5708" y="-453.9" font-family="Arial" font-size="14.00" fill="#666666">[varchar(36)]</text>
<polygon fill="none" stroke="#000000" points="336,-412.5 336,-442.5 589,-442.5 589,-412.5 336,-412.5"/>
<text text-anchor="start" x="343" y="-423.9" font-family="Arial" font-size="14.00" fill="#000000">image_type_id </text>
<text text-anchor="start" x="437.9158" y="-423.9" font-family="Arial" font-size="14.00" fill="#666666">[tinyint(4)]</text>
<polygon fill="none" stroke="#000000" points="336,-382.5 336,-412.5 589,-412.5 589,-382.5 336,-382.5"/>
<text text-anchor="start" x="343" y="-393.9" font-family="Arial" font-size="14.00" fill="#000000">created_at </text>
<text text-anchor="start" x="413.028" y="-393.9" font-family="Arial" font-size="14.00" fill="#666666">[datetime]</text>
<polygon fill="none" stroke="#000000" stroke-width="3" points="334,-381.5 334,-539.5 590,-539.5 590,-381.5 334,-381.5"/>
</g>
<!-- games -->
<g id="node3" class="node">
<title>games</title>
<polygon fill="#efefef" stroke="transparent" points="209,-222.5 209,-257.5 389,-257.5 389,-222.5 209,-222.5"/>
<polygon fill="none" stroke="#000000" points="209,-222.5 209,-257.5 389,-257.5 389,-222.5 209,-222.5"/>
<text text-anchor="start" x="223.3677" y="-235.3" font-family="Arial Bold" font-size="18.00" fill="#000000">games</text>
<text text-anchor="start" x="277.3785" y="-235.3" font-family="Arial" font-size="14.00" fill="#000000"> </text>
<text text-anchor="start" x="281.2691" y="-235.3" font-family="Arial" font-size="14.00" fill="#666666">[BASE TABLE]</text>
<polygon fill="none" stroke="#000000" points="209,-192.5 209,-222.5 389,-222.5 389,-192.5 209,-192.5"/>
<text text-anchor="start" x="216" y="-203.9" font-family="Arial" font-size="14.00" fill="#000000">id </text>
<text text-anchor="start" x="230.7798" y="-203.9" font-family="Arial" font-size="14.00" fill="#666666">[varchar(36)]</text>
<polygon fill="none" stroke="#000000" points="209,-162.5 209,-192.5 389,-192.5 389,-162.5 209,-162.5"/>
<text text-anchor="start" x="216" y="-173.9" font-family="Arial" font-size="14.00" fill="#000000">name </text>
<text text-anchor="start" x="254.899" y="-173.9" font-family="Arial" font-size="14.00" fill="#666666">[varchar(256)]</text>
<polygon fill="none" stroke="#000000" points="209,-132.5 209,-162.5 389,-162.5 389,-132.5 209,-132.5"/>
<text text-anchor="start" x="216" y="-143.9" font-family="Arial" font-size="14.00" fill="#000000">description </text>
<text text-anchor="start" x="287.568" y="-143.9" font-family="Arial" font-size="14.00" fill="#666666">[text]</text>
<polygon fill="none" stroke="#000000" points="209,-102.5 209,-132.5 389,-132.5 389,-102.5 209,-102.5"/>
<text text-anchor="start" x="216" y="-113.9" font-family="Arial" font-size="14.00" fill="#000000">created_at </text>
<text text-anchor="start" x="286.028" y="-113.9" font-family="Arial" font-size="14.00" fill="#666666">[datetime]</text>
<polygon fill="none" stroke="#000000" points="209,-72.5 209,-102.5 389,-102.5 389,-72.5 209,-72.5"/>
<text text-anchor="start" x="216" y="-83.9" font-family="Arial" font-size="14.00" fill="#000000">deleted_at </text>
<text text-anchor="start" x="285.2566" y="-83.9" font-family="Arial" font-size="14.00" fill="#666666">[datetime]</text>
<polygon fill="none" stroke="#000000" points="209,-42.5 209,-72.5 389,-72.5 389,-42.5 209,-42.5"/>
<text text-anchor="start" x="215.7742" y="-53.9" font-family="Arial" font-size="14.00" fill="#000000">visibility_type_id </text>
<text text-anchor="start" x="320.7812" y="-53.9" font-family="Arial" font-size="14.00" fill="#666666">[tinyint(4)]</text>
</g>
<!-- v2_game_images&#45;&gt;games -->
<g id="edge2" class="edge">
<title>v2_game_images:game_id&#45;&gt;games:id</title>
<path fill="none" stroke="#000000" d="M325.8903,-456.4492C286.4339,-447.3379 312.6965,-380.9998 336,-337 349.3277,-311.8358 375.6723,-326.1642 389,-301 408.4495,-264.277 430.5556,-207.5 389,-207.5"/>
<polygon fill="#000000" stroke="#000000" points="326.0536,-456.466 335.5347,-461.9759 331.0268,-456.983 336,-457.5 336,-457.5 336,-457.5 331.0268,-456.983 336.4653,-453.0241 326.0536,-456.466 326.0536,-456.466"/>
<text text-anchor="start" x="92.386" y="-467.5" font-family="Arial" font-size="10.00" fill="#000000">FOREIGN KEY (game_id) REFERENCES games (id)</text>
</g>
<!-- game_image_types -->
<g id="node4" class="node">
<title>game_image_types</title>
<polygon fill="#efefef" stroke="transparent" points="493,-177.5 493,-212.5 761,-212.5 761,-177.5 493,-177.5"/>
<polygon fill="none" stroke="#000000" points="493,-177.5 493,-212.5 761,-212.5 761,-177.5 493,-177.5"/>
<text text-anchor="start" x="499.8517" y="-190.3" font-family="Arial Bold" font-size="18.00" fill="#000000">game_image_types</text>
<text text-anchor="start" x="656.8945" y="-190.3" font-family="Arial" font-size="14.00" fill="#000000"> </text>
<text text-anchor="start" x="660.7851" y="-190.3" font-family="Arial" font-size="14.00" fill="#666666">[BASE TABLE]</text>
<polygon fill="none" stroke="#000000" points="493,-147.5 493,-177.5 761,-177.5 761,-147.5 493,-147.5"/>
<text text-anchor="start" x="500" y="-158.9" font-family="Arial" font-size="14.00" fill="#000000">id </text>
<text text-anchor="start" x="514.7798" y="-158.9" font-family="Arial" font-size="14.00" fill="#666666">[tinyint(4)]</text>
<polygon fill="none" stroke="#000000" points="493,-117.5 493,-147.5 761,-147.5 761,-117.5 493,-117.5"/>
<text text-anchor="start" x="500" y="-128.9" font-family="Arial" font-size="14.00" fill="#000000">name </text>
<text text-anchor="start" x="538.899" y="-128.9" font-family="Arial" font-size="14.00" fill="#666666">[varchar(32)]</text>
<polygon fill="none" stroke="#000000" points="493,-87.5 493,-117.5 761,-117.5 761,-87.5 493,-87.5"/>
<text text-anchor="start" x="500" y="-98.9" font-family="Arial" font-size="14.00" fill="#000000">active </text>
<text text-anchor="start" x="540.453" y="-98.9" font-family="Arial" font-size="14.00" fill="#666666">[tinyint(1)]</text>
</g>
<!-- v2_game_images&#45;&gt;game_image_types -->
<g id="edge3" class="edge">
<title>v2_game_images:image_type_id&#45;&gt;game_image_types:id</title>
<path fill="none" stroke="#000000" d="M599.0323,-426.021C624.737,-417.1159 604.2938,-369.9146 589,-337 565.4762,-286.3732 516.5238,-306.6268 493,-256 475.4892,-218.314 451.4444,-162.5 493,-162.5"/>
<polygon fill="#000000" stroke="#000000" points="598.8931,-426.0415 588.3437,-423.0481 593.9465,-426.7707 589,-427.5 589,-427.5 589,-427.5 593.9465,-426.7707 589.6563,-431.9519 598.8931,-426.0415 598.8931,-426.0415"/>
<text text-anchor="start" x="596.4285" y="-437.5" font-family="Arial" font-size="10.00" fill="#000000">FOREIGN KEY (image_type_id) REFERENCES game_image_types (id)</text>
</g>
<!-- v2_game_versions -->
<g id="node2" class="node">
<title>v2_game_versions</title>
<polygon fill="#efefef" stroke="transparent" points="332,-902.5 332,-937.5 594,-937.5 594,-902.5 332,-902.5"/>
<polygon fill="none" stroke="#000000" points="332,-902.5 332,-937.5 594,-937.5 594,-902.5 332,-902.5"/>
<text text-anchor="start" x="338.8559" y="-915.3" font-family="Arial Bold" font-size="18.00" fill="#000000">v2_game_versions</text>
<text text-anchor="start" x="489.8903" y="-915.3" font-family="Arial" font-size="14.00" fill="#000000"> </text>
<text text-anchor="start" x="493.7809" y="-915.3" font-family="Arial" font-size="14.00" fill="#666666">[BASE TABLE]</text>
<polygon fill="none" stroke="#000000" points="332,-872.5 332,-902.5 594,-902.5 594,-872.5 332,-872.5"/>
<text text-anchor="start" x="339" y="-883.9" font-family="Arial" font-size="14.00" fill="#000000">id </text>
<text text-anchor="start" x="353.7798" y="-883.9" font-family="Arial" font-size="14.00" fill="#666666">[varchar(36)]</text>
<polygon fill="none" stroke="#000000" points="332,-842.5 332,-872.5 594,-872.5 594,-842.5 332,-842.5"/>
<text text-anchor="start" x="339" y="-853.9" font-family="Arial" font-size="14.00" fill="#000000">game_id </text>
<text text-anchor="start" x="396.5708" y="-853.9" font-family="Arial" font-size="14.00" fill="#666666">[varchar(36)]</text>
<polygon fill="none" stroke="#000000" points="332,-812.5 332,-842.5 594,-842.5 594,-812.5 332,-812.5"/>
<text text-anchor="start" x="339" y="-823.9" font-family="Arial" font-size="14.00" fill="#000000">game_image_id </text>
<text text-anchor="start" x="442.4684" y="-823.9" font-family="Arial" font-size="14.00" fill="#666666">[varchar(36)]</text>
<polygon fill="none" stroke="#000000" points="332,-782.5 332,-812.5 594,-812.5 594,-782.5 332,-782.5"/>
<text text-anchor="start" x="339" y="-793.9" font-family="Arial" font-size="14.00" fill="#000000">game_video_id </text>
<text text-anchor="start" x="437.8078" y="-793.9" font-family="Arial" font-size="14.00" fill="#666666">[varchar(36)]</text>
<polygon fill="none" stroke="#000000" points="332,-752.5 332,-782.5 594,-782.5 594,-752.5 332,-752.5"/>
<text text-anchor="start" x="339" y="-763.9" font-family="Arial" font-size="14.00" fill="#000000">name </text>
<text text-anchor="start" x="377.899" y="-763.9" font-family="Arial" font-size="14.00" fill="#666666">[varchar(32)]</text>
<polygon fill="none" stroke="#000000" points="332,-722.5 332,-752.5 594,-752.5 594,-722.5 332,-722.5"/>
<text text-anchor="start" x="339" y="-733.9" font-family="Arial" font-size="14.00" fill="#000000">description </text>
<text text-anchor="start" x="410.568" y="-733.9" font-family="Arial" font-size="14.00" fill="#666666">[text]</text>
<polygon fill="none" stroke="#000000" points="332,-692.5 332,-722.5 594,-722.5 594,-692.5 332,-692.5"/>
<text text-anchor="start" x="339" y="-703.9" font-family="Arial" font-size="14.00" fill="#000000">created_at </text>
<text text-anchor="start" x="409.028" y="-703.9" font-family="Arial" font-size="14.00" fill="#666666">[datetime]</text>
<polygon fill="none" stroke="#000000" points="332,-662.5 332,-692.5 594,-692.5 594,-662.5 332,-662.5"/>
<text text-anchor="start" x="339" y="-673.9" font-family="Arial" font-size="14.00" fill="#000000">url </text>
<text text-anchor="start" x="358.4404" y="-673.9" font-family="Arial" font-size="14.00" fill="#666666">[text]</text>
</g>
<!-- v2_game_versions&#45;&gt;v2_game_images -->
<g id="edge1" class="edge">
<title>v2_game_versions:game_image_id&#45;&gt;v2_game_images:id</title>
<path fill="none" stroke="#000000" d="M321.7543,-826.881C242.2986,-816.8298 273.845,-686.869 332,-620 407.6879,-532.9709 513.3121,-671.0291 589,-584 617.145,-551.6377 631.8889,-487.5 589,-487.5"/>
<polygon fill="#000000" stroke="#000000" points="322.0182,-826.8968 331.7286,-831.9918 327.0091,-827.1984 332,-827.5 332,-827.5 332,-827.5 327.0091,-827.1984 332.2714,-823.0082 322.0182,-826.8968 322.0182,-826.8968"/>
<text text-anchor="start" x="6.543" y="-837.5" font-family="Arial" font-size="10.00" fill="#000000">FOREIGN KEY (game_image_id) REFERENCES v2_game_images (id)</text>
</g>
</g>
</svg>
