<?xml version="1.0" encoding="UTF-8" standalone="no"?>
<!DOCTYPE svg PUBLIC "-//W3C//DTD SVG 1.1//EN"
 "http://www.w3.org/Graphics/SVG/1.1/DTD/svg11.dtd">
<!-- Generated by graphviz version 2.40.1 (20161225.0304)
 -->
<!-- Title: v2_game_versions Pages: 1 -->
<svg width="1652pt" height="1169pt"
 viewBox="0.00 0.00 1651.50 1169.00" xmlns="http://www.w3.org/2000/svg" xmlns:xlink="http://www.w3.org/1999/xlink">
<g id="graph0" class="graph" transform="scale(1 1) rotate(0) translate(4 1165)">
<title>v2_game_versions</title>
<polygon fill="#ffffff" stroke="transparent" points="-4,4 -4,-1165 1647.5,-1165 1647.5,4 -4,4"/>
<!-- v2_game_versions -->
<g id="node1" class="node">
<title>v2_game_versions</title>
<polygon fill="#efefef" stroke="transparent" points="679.5,-652.5 679.5,-687.5 941.5,-687.5 941.5,-652.5 679.5,-652.5"/>
<polygon fill="none" stroke="#000000" points="679.5,-652.5 679.5,-687.5 941.5,-687.5 941.5,-652.5 679.5,-652.5"/>
<text text-anchor="start" x="686.3559" y="-665.3" font-family="Arial Bold" font-size="18.00" fill="#000000">v2_game_versions</text>
<text text-anchor="start" x="837.3903" y="-665.3" font-family="Arial" font-size="14.00" fill="#000000"> </text>
<text text-anchor="start" x="841.2809" y="-665.3" font-family="Arial" font-size="14.00" fill="#666666">[BASE TABLE]</text>
<polygon fill="none" stroke="#000000" points="679.5,-622.5 679.5,-652.5 941.5,-652.5 941.5,-622.5 679.5,-622.5"/>
<text text-anchor="start" x="686.5" y="-633.9" font-family="Arial" font-size="14.00" fill="#000000">id </text>
<text text-anchor="start" x="701.2798" y="-633.9" font-family="Arial" font-size="14.00" fill="#666666">[varchar(36)]</text>
<polygon fill="none" stroke="#000000" points="679.5,-592.5 679.5,-622.5 941.5,-622.5 941.5,-592.5 679.5,-592.5"/>
<text text-anchor="start" x="686.5" y="-603.9" font-family="Arial" font-size="14.00" fill="#000000">game_id </text>
<text text-anchor="start" x="744.0708" y="-603.9" font-family="Arial" font-size="14.00" fill="#666666">[varchar(36)]</text>
<polygon fill="none" stroke="#000000" points="679.5,-562.5 679.5,-592.5 941.5,-592.5 941.5,-562.5 679.5,-562.5"/>
<text text-anchor="start" x="686.5" y="-573.9" font-family="Arial" font-size="14.00" fill="#000000">game_image_id </text>
<text text-anchor="start" x="789.9684" y="-573.9" font-family="Arial" font-size="14.00" fill="#666666">[varchar(36)]</text>
<polygon fill="none" stroke="#000000" points="679.5,-532.5 679.5,-562.5 941.5,-562.5 941.5,-532.5 679.5,-532.5"/>
<text text-anchor="start" x="686.5" y="-543.9" font-family="Arial" font-size="14.00" fill="#000000">game_video_id </text>
<text text-anchor="start" x="785.3078" y="-543.9" font-family="Arial" font-size="14.00" fill="#666666">[varchar(36)]</text>
<polygon fill="none" stroke="#000000" points="679.5,-502.5 679.5,-532.5 941.5,-532.5 941.5,-502.5 679.5,-502.5"/>
<text text-anchor="start" x="686.5" y="-513.9" font-family="Arial" font-size="14.00" fill="#000000">name </text>
<text text-anchor="start" x="725.399" y="-513.9" font-family="Arial" font-size="14.00" fill="#666666">[varchar(32)]</text>
<polygon fill="none" stroke="#000000" points="679.5,-472.5 679.5,-502.5 941.5,-502.5 941.5,-472.5 679.5,-472.5"/>
<text text-anchor="start" x="686.5" y="-483.9" font-family="Arial" font-size="14.00" fill="#000000">description </text>
<text text-anchor="start" x="758.068" y="-483.9" font-family="Arial" font-size="14.00" fill="#666666">[text]</text>
<polygon fill="none" stroke="#000000" points="679.5,-442.5 679.5,-472.5 941.5,-472.5 941.5,-442.5 679.5,-442.5"/>
<text text-anchor="start" x="686.5" y="-453.9" font-family="Arial" font-size="14.00" fill="#000000">created_at </text>
<text text-anchor="start" x="756.528" y="-453.9" font-family="Arial" font-size="14.00" fill="#666666">[datetime]</text>
<polygon fill="none" stroke="#000000" points="679.5,-412.5 679.5,-442.5 941.5,-442.5 941.5,-412.5 679.5,-412.5"/>
<text text-anchor="start" x="686.5" y="-423.9" font-family="Arial" font-size="14.00" fill="#000000">url </text>
<text text-anchor="start" x="705.9404" y="-423.9" font-family="Arial" font-size="14.00" fill="#666666">[text]</text>
<polygon fill="none" stroke="#000000" stroke-width="3" points="678,-411.5 678,-689.5 943,-689.5 943,-411.5 678,-411.5"/>
</g>
<!-- games -->
<g id="node6" class="node">
<title>games</title>
<polygon fill="#efefef" stroke="transparent" points="336.5,-252.5 336.5,-287.5 579.5,-287.5 579.5,-252.5 336.5,-252.5"/>
<polygon fill="none" stroke="#000000" points="336.5,-252.5 336.5,-287.5 579.5,-287.5 579.5,-252.5 336.5,-252.5"/>
<text text-anchor="start" x="382.3677" y="-265.3" font-family="Arial Bold" font-size="18.00" fill="#000000">games</text>
<text text-anchor="start" x="436.3785" y="-265.3" font-family="Arial" font-size="14.00" fill="#000000"> </text>
<text text-anchor="start" x="440.2691" y="-265.3" font-family="Arial" font-size="14.00" fill="#666666">[BASE TABLE]</text>
<polygon fill="none" stroke="#000000" points="336.5,-222.5 336.5,-252.5 579.5,-252.5 579.5,-222.5 336.5,-222.5"/>
<text text-anchor="start" x="343.5" y="-233.9" font-family="Arial" font-size="14.00" fill="#000000">id </text>
<text text-anchor="start" x="358.2798" y="-233.9" font-family="Arial" font-size="14.00" fill="#666666">[varchar(36)]</text>
<polygon fill="none" stroke="#000000" points="336.5,-192.5 336.5,-222.5 579.5,-222.5 579.5,-192.5 336.5,-192.5"/>
<text text-anchor="start" x="343.5" y="-203.9" font-family="Arial" font-size="14.00" fill="#000000">name </text>
<text text-anchor="start" x="382.399" y="-203.9" font-family="Arial" font-size="14.00" fill="#666666">[varchar(256)]</text>
<polygon fill="none" stroke="#000000" points="336.5,-162.5 336.5,-192.5 579.5,-192.5 579.5,-162.5 336.5,-162.5"/>
<text text-anchor="start" x="343.5" y="-173.9" font-family="Arial" font-size="14.00" fill="#000000">description </text>
<text text-anchor="start" x="415.068" y="-173.9" font-family="Arial" font-size="14.00" fill="#666666">[text]</text>
<polygon fill="none" stroke="#000000" points="336.5,-132.5 336.5,-162.5 579.5,-162.5 579.5,-132.5 336.5,-132.5"/>
<text text-anchor="start" x="343.5" y="-143.9" font-family="Arial" font-size="14.00" fill="#000000">created_at </text>
<text text-anchor="start" x="413.528" y="-143.9" font-family="Arial" font-size="14.00" fill="#666666">[datetime]</text>
<polygon fill="none" stroke="#000000" points="336.5,-102.5 336.5,-132.5 579.5,-132.5 579.5,-102.5 336.5,-102.5"/>
<text text-anchor="start" x="343.5" y="-113.9" font-family="Arial" font-size="14.00" fill="#000000">deleted_at </text>
<text text-anchor="start" x="412.7566" y="-113.9" font-family="Arial" font-size="14.00" fill="#666666">[datetime]</text>
<polygon fill="none" stroke="#000000" points="336.5,-72.5 336.5,-102.5 579.5,-102.5 579.5,-72.5 336.5,-72.5"/>
<text text-anchor="start" x="343.5" y="-83.9" font-family="Arial" font-size="14.00" fill="#000000">visibility_type_id </text>
<text text-anchor="start" x="448.507" y="-83.9" font-family="Arial" font-size="14.00" fill="#666666">[tinyint(4)]</text>
<polygon fill="none" stroke="#000000" points="336.5,-42.5 336.5,-72.5 579.5,-72.5 579.5,-42.5 336.5,-42.5"/>
<text text-anchor="start" x="343.2371" y="-53.9" font-family="Arial" font-size="14.00" fill="#000000">latest_version_updated_at </text>
<text text-anchor="start" x="511.3029" y="-53.9" font-family="Arial" font-size="14.00" fill="#666666">[datetime]</text>
</g>
<!-- v2_game_versions&#45;&gt;games -->
<g id="edge5" class="edge">
<title>v2_game_versions:game_id&#45;&gt;games:id</title>
<path fill="none" stroke="#000000" d="M669.3575,-605.5093C600.0858,-576.3863 661.0126,-237.5 579.5,-237.5"/>
<polygon fill="#000000" stroke="#000000" points="669.6872,-605.5739 678.6333,-611.9158 674.5936,-606.537 679.5,-607.5 679.5,-607.5 679.5,-607.5 674.5936,-606.537 680.3667,-603.0842 669.6872,-605.5739 669.6872,-605.5739"/>
<text text-anchor="start" x="435.886" y="-617.5" font-family="Arial" font-size="10.00" fill="#000000">FOREIGN KEY (game_id) REFERENCES games (id)</text>
</g>
<!-- v2_game_images -->
<g id="node7" class="node">
<title>v2_game_images</title>
<polygon fill="#efefef" stroke="transparent" points="683.5,-207.5 683.5,-242.5 936.5,-242.5 936.5,-207.5 683.5,-207.5"/>
<polygon fill="none" stroke="#000000" points="683.5,-207.5 683.5,-242.5 936.5,-242.5 936.5,-207.5 683.5,-207.5"/>
<text text-anchor="start" x="690.3559" y="-220.3" font-family="Arial Bold" font-size="18.00" fill="#000000">v2_game_images</text>
<text text-anchor="start" x="832.3903" y="-220.3" font-family="Arial" font-size="14.00" fill="#000000"> </text>
<text text-anchor="start" x="836.2809" y="-220.3" font-family="Arial" font-size="14.00" fill="#666666">[BASE TABLE]</text>
<polygon fill="none" stroke="#000000" points="683.5,-177.5 683.5,-207.5 936.5,-207.5 936.5,-177.5 683.5,-177.5"/>
<text text-anchor="start" x="690.5" y="-188.9" font-family="Arial" font-size="14.00" fill="#000000">id </text>
<text text-anchor="start" x="705.2798" y="-188.9" font-family="Arial" font-size="14.00" fill="#666666">[varchar(36)]</text>
<polygon fill="none" stroke="#000000" points="683.5,-147.5 683.5,-177.5 936.5,-177.5 936.5,-147.5 683.5,-147.5"/>
<text text-anchor="start" x="690.5" y="-158.9" font-family="Arial" font-size="14.00" fill="#000000">game_id </text>
<text text-anchor="start" x="748.0708" y="-158.9" font-family="Arial" font-size="14.00" fill="#666666">[varchar(36)]</text>
<polygon fill="none" stroke="#000000" points="683.5,-117.5 683.5,-147.5 936.5,-147.5 936.5,-117.5 683.5,-117.5"/>
<text text-anchor="start" x="690.5" y="-128.9" font-family="Arial" font-size="14.00" fill="#000000">image_type_id </text>
<text text-anchor="start" x="785.4158" y="-128.9" font-family="Arial" font-size="14.00" fill="#666666">[tinyint(4)]</text>
<polygon fill="none" stroke="#000000" points="683.5,-87.5 683.5,-117.5 936.5,-117.5 936.5,-87.5 683.5,-87.5"/>
<text text-anchor="start" x="690.5" y="-98.9" font-family="Arial" font-size="14.00" fill="#000000">created_at </text>
<text text-anchor="start" x="760.528" y="-98.9" font-family="Arial" font-size="14.00" fill="#666666">[datetime]</text>
</g>
<!-- v2_game_versions&#45;&gt;v2_game_images -->
<g id="edge6" class="edge">
<title>v2_game_versions:game_image_id&#45;&gt;v2_game_images:id</title>
<path fill="none" stroke="#000000" d="M669.1329,-576.8934C588.9573,-567.0397 626.3366,-439.4972 679.5,-367 750.3213,-270.4233 865.6787,-382.5767 936.5,-286 961.0741,-252.4891 978.0556,-192.5 936.5,-192.5"/>
<polygon fill="#000000" stroke="#000000" points="669.5171,-576.9158 679.2371,-581.9923 674.5085,-577.2079 679.5,-577.5 679.5,-577.5 679.5,-577.5 674.5085,-577.2079 679.7629,-573.0077 669.5171,-576.9158 669.5171,-576.9158"/>
<text text-anchor="start" x="354.043" y="-587.5" font-family="Arial" font-size="10.00" fill="#000000">FOREIGN KEY (game_image_id) REFERENCES v2_game_images (id)</text>
</g>
<!-- v2_game_videos -->
<g id="node8" class="node">
<title>v2_game_videos</title>
<polygon fill="#efefef" stroke="transparent" points="1040.5,-207.5 1040.5,-242.5 1287.5,-242.5 1287.5,-207.5 1040.5,-207.5"/>
<polygon fill="none" stroke="#000000" points="1040.5,-207.5 1040.5,-242.5 1287.5,-242.5 1287.5,-207.5 1040.5,-207.5"/>
<text text-anchor="start" x="1047.352" y="-220.3" font-family="Arial Bold" font-size="18.00" fill="#000000">v2_game_videos</text>
<text text-anchor="start" x="1183.3942" y="-220.3" font-family="Arial" font-size="14.00" fill="#000000"> </text>
<text text-anchor="start" x="1187.2848" y="-220.3" font-family="Arial" font-size="14.00" fill="#666666">[BASE TABLE]</text>
<polygon fill="none" stroke="#000000" points="1040.5,-177.5 1040.5,-207.5 1287.5,-207.5 1287.5,-177.5 1040.5,-177.5"/>
<text text-anchor="start" x="1047.5" y="-188.9" font-family="Arial" font-size="14.00" fill="#000000">id </text>
<text text-anchor="start" x="1062.2798" y="-188.9" font-family="Arial" font-size="14.00" fill="#666666">[varchar(36)]</text>
<polygon fill="none" stroke="#000000" points="1040.5,-147.5 1040.5,-177.5 1287.5,-177.5 1287.5,-147.5 1040.5,-147.5"/>
<text text-anchor="start" x="1047.5" y="-158.9" font-family="Arial" font-size="14.00" fill="#000000">game_id </text>
<text text-anchor="start" x="1105.0708" y="-158.9" font-family="Arial" font-size="14.00" fill="#666666">[varchar(36)]</text>
<polygon fill="none" stroke="#000000" points="1040.5,-117.5 1040.5,-147.5 1287.5,-147.5 1287.5,-117.5 1040.5,-117.5"/>
<text text-anchor="start" x="1047.5" y="-128.9" font-family="Arial" font-size="14.00" fill="#000000">video_type_id </text>
<text text-anchor="start" x="1137.7552" y="-128.9" font-family="Arial" font-size="14.00" fill="#666666">[tinyint(4)]</text>
<polygon fill="none" stroke="#000000" points="1040.5,-87.5 1040.5,-117.5 1287.5,-117.5 1287.5,-87.5 1040.5,-87.5"/>
<text text-anchor="start" x="1047.5" y="-98.9" font-family="Arial" font-size="14.00" fill="#000000">created_at </text>
<text text-anchor="start" x="1117.528" y="-98.9" font-family="Arial" font-size="14.00" fill="#666666">[datetime]</text>
</g>
<!-- v2_game_versions&#45;&gt;v2_game_videos -->
<g id="edge7" class="edge">
<title>v2_game_versions:game_video_id&#45;&gt;v2_game_videos:id</title>
<path fill="none" stroke="#000000" d="M951.6757,-545.4152C1017.8734,-516.3218 962.28,-192.5 1040.5,-192.5"/>
<polygon fill="#000000" stroke="#000000" points="951.2965,-545.4928 940.5968,-543.0916 946.3983,-546.4964 941.5,-547.5 941.5,-547.5 941.5,-547.5 946.3983,-546.4964 942.4032,-551.9084 951.2965,-545.4928 951.2965,-545.4928"/>
<text text-anchor="start" x="948.372" y="-557.5" font-family="Arial" font-size="10.00" fill="#000000">FOREIGN KEY (game_video_id) REFERENCES v2_game_videos (id)</text>
</g>
<!-- edition_game_version_relations -->
<g id="node2" class="node">
<title>edition_game_version_relations</title>
<polygon fill="#efefef" stroke="transparent" points="43.5,-977.5 43.5,-1012.5 408.5,-1012.5 408.5,-977.5 43.5,-977.5"/>
<polygon fill="none" stroke="#000000" points="43.5,-977.5 43.5,-1012.5 408.5,-1012.5 408.5,-977.5 43.5,-977.5"/>
<text text-anchor="start" x="50.3444" y="-990.3" font-family="Arial Bold" font-size="18.00" fill="#000000">edition_game_version_relations</text>
<text text-anchor="start" x="304.4018" y="-990.3" font-family="Arial" font-size="14.00" fill="#000000"> </text>
<text text-anchor="start" x="308.2924" y="-990.3" font-family="Arial" font-size="14.00" fill="#666666">[BASE TABLE]</text>
<polygon fill="none" stroke="#000000" points="43.5,-947.5 43.5,-977.5 408.5,-977.5 408.5,-947.5 43.5,-947.5"/>
<text text-anchor="start" x="50.5" y="-958.9" font-family="Arial" font-size="14.00" fill="#000000">edition_id </text>
<text text-anchor="start" x="114.2966" y="-958.9" font-family="Arial" font-size="14.00" fill="#666666">[varchar(36)]</text>
<polygon fill="none" stroke="#000000" points="43.5,-917.5 43.5,-947.5 408.5,-947.5 408.5,-917.5 43.5,-917.5"/>
<text text-anchor="start" x="50.5" y="-928.9" font-family="Arial" font-size="14.00" fill="#000000">game_version_id </text>
<text text-anchor="start" x="160.9684" y="-928.9" font-family="Arial" font-size="14.00" fill="#666666">[varchar(36)]</text>
</g>
<!-- edition_game_version_relations&#45;&gt;v2_game_versions -->
<g id="edge1" class="edge">
<title>edition_game_version_relations:game_version_id&#45;&gt;v2_game_versions:id</title>
<path fill="none" stroke="#000000" d="M418.5898,-931.7805C477.6955,-922.5472 415.812,-826.6156 460.5,-770 530.9834,-680.7041 565.7385,-637.5 679.5,-637.5"/>
<polygon fill="#000000" stroke="#000000" points="418.4747,-931.7886 408.1799,-928.0114 413.4873,-932.1443 408.5,-932.5 408.5,-932.5 408.5,-932.5 413.4873,-932.1443 408.8201,-936.9886 418.4747,-931.7886 418.4747,-931.7886"/>
<text text-anchor="start" x="415.043" y="-942.5" font-family="Arial" font-size="10.00" fill="#000000">FOREIGN KEY (game_version_id) REFERENCES v2_game_versions (id)</text>
</g>
<!-- game_feedbacks -->
<g id="node3" class="node">
<title>game_feedbacks</title>
<polygon fill="#efefef" stroke="transparent" points="512.5,-1022.5 512.5,-1057.5 760.5,-1057.5 760.5,-1022.5 512.5,-1022.5"/>
<polygon fill="none" stroke="#000000" points="512.5,-1022.5 512.5,-1057.5 760.5,-1057.5 760.5,-1022.5 512.5,-1022.5"/>
<text text-anchor="start" x="519.348" y="-1035.3" font-family="Arial Bold" font-size="18.00" fill="#000000">game_feedbacks</text>
<text text-anchor="start" x="656.3982" y="-1035.3" font-family="Arial" font-size="14.00" fill="#000000"> </text>
<text text-anchor="start" x="660.2888" y="-1035.3" font-family="Arial" font-size="14.00" fill="#666666">[BASE TABLE]</text>
<polygon fill="none" stroke="#000000" points="512.5,-992.5 512.5,-1022.5 760.5,-1022.5 760.5,-992.5 512.5,-992.5"/>
<text text-anchor="start" x="519.5" y="-1003.9" font-family="Arial" font-size="14.00" fill="#000000">id </text>
<text text-anchor="start" x="534.2798" y="-1003.9" font-family="Arial" font-size="14.00" fill="#666666">[varchar(36)]</text>
<polygon fill="none" stroke="#000000" points="512.5,-962.5 512.5,-992.5 760.5,-992.5 760.5,-962.5 512.5,-962.5"/>
<text text-anchor="start" x="519.5" y="-973.9" font-family="Arial" font-size="14.00" fill="#000000">edition_id </text>
<text text-anchor="start" x="583.2966" y="-973.9" font-family="Arial" font-size="14.00" fill="#666666">[varchar(36)]</text>
<polygon fill="none" stroke="#000000" points="512.5,-932.5 512.5,-962.5 760.5,-962.5 760.5,-932.5 512.5,-932.5"/>
<text text-anchor="start" x="519.5" y="-943.9" font-family="Arial" font-size="14.00" fill="#000000">game_version_id </text>
<text text-anchor="start" x="629.9684" y="-943.9" font-family="Arial" font-size="14.00" fill="#666666">[varchar(36)]</text>
<polygon fill="none" stroke="#000000" points="512.5,-902.5 512.5,-932.5 760.5,-932.5 760.5,-902.5 512.5,-902.5"/>
<text text-anchor="start" x="519.5" y="-913.9" font-family="Arial" font-size="14.00" fill="#000000">comment </text>
<text text-anchor="start" x="580.9502" y="-913.9" font-family="Arial" font-size="14.00" fill="#666666">[text]</text>
<polygon fill="none" stroke="#000000" points="512.5,-872.5 512.5,-902.5 760.5,-902.5 760.5,-872.5 512.5,-872.5"/>
<text text-anchor="start" x="519.5" y="-883.9" font-family="Arial" font-size="14.00" fill="#000000">created_at </text>
<text text-anchor="start" x="589.528" y="-883.9" font-family="Arial" font-size="14.00" fill="#666666">[datetime]</text>
</g>
<!-- game_feedbacks&#45;&gt;v2_game_versions -->
<g id="edge2" class="edge">
<title>game_feedbacks:game_version_id&#45;&gt;v2_game_versions:id</title>
<path fill="none" stroke="#000000" d="M770.74,-946.4047C807.7218,-937.4461 777.0973,-875.4082 760.5,-830 741.3353,-777.5676 698.6647,-786.4324 679.5,-734 664.7763,-693.7176 636.6111,-637.5 679.5,-637.5"/>
<polygon fill="#000000" stroke="#000000" points="770.4433,-946.4364 760.0214,-943.0255 765.4716,-946.9682 760.5,-947.5 760.5,-947.5 760.5,-947.5 765.4716,-946.9682 760.9786,-951.9745 770.4433,-946.4364 770.4433,-946.4364"/>
<text text-anchor="start" x="767.043" y="-957.5" font-family="Arial" font-size="10.00" fill="#000000">FOREIGN KEY (game_version_id) REFERENCES v2_game_versions (id)</text>
</g>
<!-- game_play_logs -->
<g id="node4" class="node">
<title>game_play_logs</title>
<polygon fill="#efefef" stroke="transparent" points="864.5,-1082.5 864.5,-1117.5 1106.5,-1117.5 1106.5,-1082.5 864.5,-1082.5"/>
<polygon fill="none" stroke="#000000" points="864.5,-1082.5 864.5,-1117.5 1106.5,-1117.5 1106.5,-1082.5 864.5,-1082.5"/>
<text text-anchor="start" x="871.3549" y="-1095.3" font-family="Arial Bold" font-size="18.00" fill="#000000">game_play_logs</text>
<text text-anchor="start" x="1002.3913" y="-1095.3" font-family="Arial" font-size="14.00" fill="#000000"> </text>
<text text-anchor="start" x="1006.2819" y="-1095.3" font-family="Arial" font-size="14.00" fill="#666666">[BASE TABLE]</text>
<polygon fill="none" stroke="#000000" points="864.5,-1052.5 864.5,-1082.5 1106.5,-1082.5 1106.5,-1052.5 864.5,-1052.5"/>
<text text-anchor="start" x="871.5" y="-1063.9" font-family="Arial" font-size="14.00" fill="#000000">id </text>
<text text-anchor="start" x="886.2798" y="-1063.9" font-family="Arial" font-size="14.00" fill="#666666">[varchar(36)]</text>
<polygon fill="none" stroke="#000000" points="864.5,-1022.5 864.5,-1052.5 1106.5,-1052.5 1106.5,-1022.5 864.5,-1022.5"/>
<text text-anchor="start" x="871.5" y="-1033.9" font-family="Arial" font-size="14.00" fill="#000000">edition_id </text>
<text text-anchor="start" x="935.2966" y="-1033.9" font-family="Arial" font-size="14.00" fill="#666666">[varchar(36)]</text>
<polygon fill="none" stroke="#000000" points="864.5,-992.5 864.5,-1022.5 1106.5,-1022.5 1106.5,-992.5 864.5,-992.5"/>
<text text-anchor="start" x="871.5" y="-1003.9" font-family="Arial" font-size="14.00" fill="#000000">game_id </text>
<text text-anchor="start" x="929.0708" y="-1003.9" font-family="Arial" font-size="14.00" fill="#666666">[varchar(36)]</text>
<polygon fill="none" stroke="#000000" points="864.5,-962.5 864.5,-992.5 1106.5,-992.5 1106.5,-962.5 864.5,-962.5"/>
<text text-anchor="start" x="871.5" y="-973.9" font-family="Arial" font-size="14.00" fill="#000000">game_version_id </text>
<text text-anchor="start" x="981.9684" y="-973.9" font-family="Arial" font-size="14.00" fill="#666666">[varchar(36)]</text>
<polygon fill="none" stroke="#000000" points="864.5,-932.5 864.5,-962.5 1106.5,-962.5 1106.5,-932.5 864.5,-932.5"/>
<text text-anchor="start" x="871.5" y="-943.9" font-family="Arial" font-size="14.00" fill="#000000">start_time </text>
<text text-anchor="start" x="936.838" y="-943.9" font-family="Arial" font-size="14.00" fill="#666666">[datetime]</text>
<polygon fill="none" stroke="#000000" points="864.5,-902.5 864.5,-932.5 1106.5,-932.5 1106.5,-902.5 864.5,-902.5"/>
<text text-anchor="start" x="871.5" y="-913.9" font-family="Arial" font-size="14.00" fill="#000000">end_time </text>
<text text-anchor="start" x="932.9614" y="-913.9" font-family="Arial" font-size="14.00" fill="#666666">[datetime]</text>
<polygon fill="none" stroke="#000000" points="864.5,-872.5 864.5,-902.5 1106.5,-902.5 1106.5,-872.5 864.5,-872.5"/>
<text text-anchor="start" x="871.5" y="-883.9" font-family="Arial" font-size="14.00" fill="#000000">created_at </text>
<text text-anchor="start" x="941.528" y="-883.9" font-family="Arial" font-size="14.00" fill="#666666">[datetime]</text>
<polygon fill="none" stroke="#000000" points="864.5,-842.5 864.5,-872.5 1106.5,-872.5 1106.5,-842.5 864.5,-842.5"/>
<text text-anchor="start" x="871.5" y="-853.9" font-family="Arial" font-size="14.00" fill="#000000">updated_at </text>
<text text-anchor="start" x="945.4326" y="-853.9" font-family="Arial" font-size="14.00" fill="#666666">[datetime]</text>
<polygon fill="none" stroke="#000000" points="864.5,-812.5 864.5,-842.5 1106.5,-842.5 1106.5,-812.5 864.5,-812.5"/>
<text text-anchor="start" x="871.5" y="-823.9" font-family="Arial" font-size="14.00" fill="#000000">deleted_at </text>
<text text-anchor="start" x="940.7566" y="-823.9" font-family="Arial" font-size="14.00" fill="#666666">[datetime]</text>
</g>
<!-- game_play_logs&#45;&gt;v2_game_versions -->
<g id="edge3" class="edge">
<title>game_play_logs:game_version_id&#45;&gt;v2_game_versions:id</title>
<path fill="none" stroke="#000000" d="M854.8975,-974.5551C821.7464,-951.9482 841.6781,-805.8629 864.5,-770 884.782,-738.1283 921.218,-765.8717 941.5,-734 964.526,-697.8163 984.3889,-637.5 941.5,-637.5"/>
<polygon fill="#000000" stroke="#000000" points="854.9395,-974.5679 863.1806,-981.8022 859.7197,-976.034 864.5,-977.5 864.5,-977.5 864.5,-977.5 859.7197,-976.034 865.8194,-973.1978 854.9395,-974.5679 854.9395,-974.5679"/>
<text text-anchor="start" x="529.043" y="-987.5" font-family="Arial" font-size="10.00" fill="#000000">FOREIGN KEY (game_version_id) REFERENCES v2_game_versions (id)</text>
</g>
<!-- game_version_game_file_relations -->
<g id="node5" class="node">
<title>game_version_game_file_relations</title>
<polygon fill="#efefef" stroke="transparent" points="1210.5,-977.5 1210.5,-1012.5 1600.5,-1012.5 1600.5,-977.5 1210.5,-977.5"/>
<polygon fill="none" stroke="#000000" points="1210.5,-977.5 1210.5,-1012.5 1600.5,-1012.5 1600.5,-977.5 1210.5,-977.5"/>
<text text-anchor="start" x="1217.3452" y="-990.3" font-family="Arial Bold" font-size="18.00" fill="#000000">game_version_game_file_relations</text>
<text text-anchor="start" x="1496.401" y="-990.3" font-family="Arial" font-size="14.00" fill="#000000"> </text>
<text text-anchor="start" x="1500.2916" y="-990.3" font-family="Arial" font-size="14.00" fill="#666666">[BASE TABLE]</text>
<polygon fill="none" stroke="#000000" points="1210.5,-947.5 1210.5,-977.5 1600.5,-977.5 1600.5,-947.5 1210.5,-947.5"/>
<text text-anchor="start" x="1217.5" y="-958.9" font-family="Arial" font-size="14.00" fill="#000000">game_version_id </text>
<text text-anchor="start" x="1327.9684" y="-958.9" font-family="Arial" font-size="14.00" fill="#666666">[varchar(36)]</text>
<polygon fill="none" stroke="#000000" points="1210.5,-917.5 1210.5,-947.5 1600.5,-947.5 1600.5,-917.5 1210.5,-917.5"/>
<text text-anchor="start" x="1217.5" y="-928.9" font-family="Arial" font-size="14.00" fill="#000000">game_file_id </text>
<text text-anchor="start" x="1300.7398" y="-928.9" font-family="Arial" font-size="14.00" fill="#666666">[varchar(36)]</text>
</g>
<!-- game_version_game_file_relations&#45;&gt;v2_game_versions -->
<g id="edge4" class="edge">
<title>game_version_game_file_relations:game_version_id&#45;&gt;v2_game_versions:id</title>
<path fill="none" stroke="#000000" d="M1200.4735,-961.8983C1129.0019,-952.6113 1209.4736,-838.0038 1158.5,-770 1090.7237,-679.5798 1054.5019,-637.5 941.5,-637.5"/>
<polygon fill="#000000" stroke="#000000" points="1200.518,-961.9008 1210.2304,-966.9919 1205.509,-962.2004 1210.5,-962.5 1210.5,-962.5 1210.5,-962.5 1205.509,-962.2004 1210.7696,-958.0081 1200.518,-961.9008 1200.518,-961.9008"/>
<text text-anchor="start" x="1217.043" y="-972.5" font-family="Arial" font-size="10.00" fill="#000000">FOREIGN KEY (game_version_id) REFERENCES v2_game_versions (id)</text>
</g>
</g>
</svg>
