<?xml version="1.0" encoding="UTF-8" standalone="no"?>
<!DOCTYPE svg PUBLIC "-//W3C//DTD SVG 1.1//EN"
 "http://www.w3.org/Graphics/SVG/1.1/DTD/svg11.dtd">
<!-- Generated by graphviz version 12.1.2 (20240928.0832)
 -->
<!-- Title: v2_game_files Pages: 1 -->
<svg width="812pt" height="914pt"
 viewBox="0.00 0.00 812.06 914.00" xmlns="http://www.w3.org/2000/svg" xmlns:xlink="http://www.w3.org/1999/xlink">
<g id="graph0" class="graph" transform="scale(1 1) rotate(0) translate(4 910)">
<title>v2_game_files</title>
<polygon fill="white" stroke="none" points="-4,4 -4,-910 808.06,-910 808.06,4 -4,4"/>
<!-- v2_game_files -->
<g id="node1" class="node">
<title>v2_game_files</title>
<polygon fill="#efefef" stroke="none" points="252.28,-604.6 252.28,-640.2 496.74,-640.2 496.74,-604.6 252.28,-604.6"/>
<polygon fill="none" stroke="black" points="252.28,-604.6 252.28,-640.2 496.74,-640.2 496.74,-604.6 252.28,-604.6"/>
<text text-anchor="start" x="259.28" y="-618" font-family="Arial Bold" font-size="18.00">v2_game_files</text>
<text text-anchor="start" x="365.25" y="-618" font-family="Arial" font-size="14.00">    </text>
<text text-anchor="start" x="396.37" y="-618" font-family="Arial" font-size="14.00" fill="#666666">[BASE TABLE]</text>
<polygon fill="none" stroke="black" points="252.28,-573.8 252.28,-604.6 496.74,-604.6 496.74,-573.8 252.28,-573.8"/>
<text text-anchor="start" x="259.28" y="-586" font-family="Arial" font-size="14.00">id </text>
<text text-anchor="start" x="274.07" y="-586" font-family="Arial" font-size="14.00" fill="#666666">[varchar(36)]</text>
<polygon fill="none" stroke="black" points="252.28,-543 252.28,-573.8 496.74,-573.8 496.74,-543 252.28,-543"/>
<text text-anchor="start" x="259.28" y="-555.2" font-family="Arial" font-size="14.00">game_id </text>
<text text-anchor="start" x="316.87" y="-555.2" font-family="Arial" font-size="14.00" fill="#666666">[varchar(36)]</text>
<polygon fill="none" stroke="black" points="252.28,-512.2 252.28,-543 496.74,-543 496.74,-512.2 252.28,-512.2"/>
<text text-anchor="start" x="259.28" y="-524.4" font-family="Arial" font-size="14.00">file_type_id </text>
<text text-anchor="start" x="334" y="-524.4" font-family="Arial" font-size="14.00" fill="#666666">[tinyint(4)]</text>
<polygon fill="none" stroke="black" points="252.28,-481.4 252.28,-512.2 496.74,-512.2 496.74,-481.4 252.28,-481.4"/>
<text text-anchor="start" x="259.28" y="-493.6" font-family="Arial" font-size="14.00">hash </text>
<text text-anchor="start" x="293.53" y="-493.6" font-family="Arial" font-size="14.00" fill="#666666">[char(32)]</text>
<polygon fill="none" stroke="black" points="252.28,-450.6 252.28,-481.4 496.74,-481.4 496.74,-450.6 252.28,-450.6"/>
<text text-anchor="start" x="259.28" y="-462.8" font-family="Arial" font-size="14.00">entry_point </text>
<text text-anchor="start" x="332.44" y="-462.8" font-family="Arial" font-size="14.00" fill="#666666">[text]</text>
<polygon fill="none" stroke="black" points="252.28,-419.8 252.28,-450.6 496.74,-450.6 496.74,-419.8 252.28,-419.8"/>
<text text-anchor="start" x="259.28" y="-432" font-family="Arial" font-size="14.00">created_at </text>
<text text-anchor="start" x="329.33" y="-432" font-family="Arial" font-size="14.00" fill="#666666">[datetime]</text>
<polygon fill="none" stroke="black" stroke-width="3" points="250.78,-418.3 250.78,-641.7 498.24,-641.7 498.24,-418.3 250.78,-418.3"/>
</g>
<!-- games -->
<g id="node3" class="node">
<title>games</title>
<polygon fill="#efefef" stroke="none" points="75.71,-258.8 75.71,-294.4 319.31,-294.4 319.31,-258.8 75.71,-258.8"/>
<polygon fill="none" stroke="black" points="75.71,-258.8 75.71,-294.4 319.31,-294.4 319.31,-258.8 75.71,-258.8"/>
<text text-anchor="start" x="112.27" y="-272.2" font-family="Arial Bold" font-size="18.00">games</text>
<text text-anchor="start" x="158.26" y="-272.2" font-family="Arial" font-size="14.00">    </text>
<text text-anchor="start" x="189.37" y="-272.2" font-family="Arial" font-size="14.00" fill="#666666">[BASE TABLE]</text>
<polygon fill="none" stroke="black" points="75.71,-228 75.71,-258.8 319.31,-258.8 319.31,-228 75.71,-228"/>
<text text-anchor="start" x="82.71" y="-240.2" font-family="Arial" font-size="14.00">id </text>
<text text-anchor="start" x="97.5" y="-240.2" font-family="Arial" font-size="14.00" fill="#666666">[varchar(36)]</text>
<polygon fill="none" stroke="black" points="75.71,-197.2 75.71,-228 319.31,-228 319.31,-197.2 75.71,-197.2"/>
<text text-anchor="start" x="82.71" y="-209.4" font-family="Arial" font-size="14.00">name </text>
<text text-anchor="start" x="121.62" y="-209.4" font-family="Arial" font-size="14.00" fill="#666666">[varchar(256)]</text>
<polygon fill="none" stroke="black" points="75.71,-166.4 75.71,-197.2 319.31,-197.2 319.31,-166.4 75.71,-166.4"/>
<text text-anchor="start" x="82.71" y="-178.6" font-family="Arial" font-size="14.00">description </text>
<text text-anchor="start" x="154.3" y="-178.6" font-family="Arial" font-size="14.00" fill="#666666">[text]</text>
<polygon fill="none" stroke="black" points="75.71,-135.6 75.71,-166.4 319.31,-166.4 319.31,-135.6 75.71,-135.6"/>
<text text-anchor="start" x="82.71" y="-147.8" font-family="Arial" font-size="14.00">created_at </text>
<text text-anchor="start" x="152.76" y="-147.8" font-family="Arial" font-size="14.00" fill="#666666">[datetime]</text>
<polygon fill="none" stroke="black" points="75.71,-104.8 75.71,-135.6 319.31,-135.6 319.31,-104.8 75.71,-104.8"/>
<text text-anchor="start" x="82.71" y="-117" font-family="Arial" font-size="14.00">deleted_at </text>
<text text-anchor="start" x="151.99" y="-117" font-family="Arial" font-size="14.00" fill="#666666">[datetime]</text>
<polygon fill="none" stroke="black" points="75.71,-74 75.71,-104.8 319.31,-104.8 319.31,-74 75.71,-74"/>
<text text-anchor="start" x="82.71" y="-86.2" font-family="Arial" font-size="14.00">visibility_type_id </text>
<text text-anchor="start" x="187.76" y="-86.2" font-family="Arial" font-size="14.00" fill="#666666">[tinyint(4)]</text>
<polygon fill="none" stroke="black" points="75.71,-43.2 75.71,-74 319.31,-74 319.31,-43.2 75.71,-43.2"/>
<text text-anchor="start" x="82.71" y="-55.4" font-family="Arial" font-size="14.00">latest_version_updated_at </text>
<text text-anchor="start" x="250.83" y="-55.4" font-family="Arial" font-size="14.00" fill="#666666">[datetime]</text>
</g>
<!-- v2_game_files&#45;&gt;games -->
<g id="edge2" class="edge">
<title>v2_game_files:game_id&#45;&gt;games:id</title>
<path fill="none" stroke="black" d="M240.94,-557.72C172.81,-548.21 211.84,-440.82 252.28,-373.6 269.71,-344.63 301.8,-366.53 319.31,-337.6 340.99,-301.78 362.18,-243.4 320.31,-243.4"/>
<polygon fill="black" stroke="black" points="240.97,-557.72 250.65,-562.87 246.29,-558.07 250.61,-558.36 250.61,-558.36 250.61,-558.36 246.29,-558.07 251.24,-553.89 240.97,-557.72"/>
<text text-anchor="start" x="7" y="-568.4" font-family="Arial" font-size="10.00">FOREIGN KEY (game_id) REFERENCES games (id)</text>
</g>
<!-- game_file_types -->
<g id="node4" class="node">
<title>game_file_types</title>
<polygon fill="#efefef" stroke="none" points="423.79,-197.2 423.79,-232.8 681.23,-232.8 681.23,-197.2 423.79,-197.2"/>
<polygon fill="none" stroke="black" points="423.79,-197.2 423.79,-232.8 681.23,-232.8 681.23,-197.2 423.79,-197.2"/>
<text text-anchor="start" x="430.79" y="-210.6" font-family="Arial Bold" font-size="18.00">game_file_types</text>
<text text-anchor="start" x="549.75" y="-210.6" font-family="Arial" font-size="14.00">    </text>
<text text-anchor="start" x="580.86" y="-210.6" font-family="Arial" font-size="14.00" fill="#666666">[BASE TABLE]</text>
<polygon fill="none" stroke="black" points="423.79,-166.4 423.79,-197.2 681.23,-197.2 681.23,-166.4 423.79,-166.4"/>
<text text-anchor="start" x="430.79" y="-178.6" font-family="Arial" font-size="14.00">id </text>
<text text-anchor="start" x="445.57" y="-178.6" font-family="Arial" font-size="14.00" fill="#666666">[tinyint(4)]</text>
<polygon fill="none" stroke="black" points="423.79,-135.6 423.79,-166.4 681.23,-166.4 681.23,-135.6 423.79,-135.6"/>
<text text-anchor="start" x="430.79" y="-147.8" font-family="Arial" font-size="14.00">name </text>
<text text-anchor="start" x="469.7" y="-147.8" font-family="Arial" font-size="14.00" fill="#666666">[varchar(32)]</text>
<polygon fill="none" stroke="black" points="423.79,-104.8 423.79,-135.6 681.23,-135.6 681.23,-104.8 423.79,-104.8"/>
<text text-anchor="start" x="430.79" y="-117" font-family="Arial" font-size="14.00">active </text>
<text text-anchor="start" x="471.25" y="-117" font-family="Arial" font-size="14.00" fill="#666666">[tinyint(1)]</text>
</g>
<!-- v2_game_files&#45;&gt;game_file_types -->
<g id="edge3" class="edge">
<title>v2_game_files:file_type_id&#45;&gt;game_file_types:id</title>
<path fill="none" stroke="black" d="M507.9,-527.34C669.86,-518.65 430.54,-295.96 423.79,-276 410.37,-236.34 380.92,-181.8 422.79,-181.8"/>
<polygon fill="black" stroke="black" points="508.07,-527.33 497.96,-523.09 502.74,-527.47 498.41,-527.58 498.41,-527.58 498.41,-527.58 502.74,-527.47 498.19,-532.09 508.07,-527.33"/>
<text text-anchor="start" x="504.74" y="-537.6" font-family="Arial" font-size="10.00">FOREIGN KEY (file_type_id) REFERENCES game_file_types (id)</text>
</g>
<!-- game_version_game_file_relations -->
<g id="node2" class="node">
<title>game_version_game_file_relations</title>
<polygon fill="#efefef" stroke="none" points="178.81,-827.2 178.81,-862.8 570.21,-862.8 570.21,-827.2 178.81,-827.2"/>
<polygon fill="none" stroke="black" points="178.81,-827.2 178.81,-862.8 570.21,-862.8 570.21,-827.2 178.81,-827.2"/>
<text text-anchor="start" x="185.81" y="-840.6" font-family="Arial Bold" font-size="18.00">game_version_game_file_relations</text>
<text text-anchor="start" x="438.72" y="-840.6" font-family="Arial" font-size="14.00">    </text>
<text text-anchor="start" x="469.84" y="-840.6" font-family="Arial" font-size="14.00" fill="#666666">[BASE TABLE]</text>
<polygon fill="none" stroke="black" points="178.81,-796.4 178.81,-827.2 570.21,-827.2 570.21,-796.4 178.81,-796.4"/>
<text text-anchor="start" x="185.81" y="-808.6" font-family="Arial" font-size="14.00">game_version_id </text>
<text text-anchor="start" x="296.32" y="-808.6" font-family="Arial" font-size="14.00" fill="#666666">[varchar(36)]</text>
<polygon fill="none" stroke="black" points="178.81,-765.6 178.81,-796.4 570.21,-796.4 570.21,-765.6 178.81,-765.6"/>
<text text-anchor="start" x="185.81" y="-777.8" font-family="Arial" font-size="14.00">game_file_id </text>
<text text-anchor="start" x="269.08" y="-777.8" font-family="Arial" font-size="14.00" fill="#666666">[varchar(36)]</text>
</g>
<!-- game_version_game_file_relations&#45;&gt;v2_game_files -->
<g id="edge1" class="edge">
<title>game_version_game_file_relations:game_file_id&#45;&gt;v2_game_files:id</title>
<path fill="none" stroke="black" d="M375.42,-754.33C384.97,-704.77 467.32,-739.51 496.74,-686.4 517.68,-648.61 540.94,-589.2 497.74,-589.2"/>
<polygon fill="black" stroke="black" points="375.42,-754.31 370.06,-763.87 374.95,-759.62 374.57,-763.93 374.57,-763.93 374.57,-763.93 374.95,-759.62 379.02,-764.66 375.42,-754.31"/>
<text text-anchor="start" x="77.42" y="-774.6" font-family="Arial" font-size="10.00">FOREIGN KEY (game_file_id) REFERENCES v2_game_files (id)</text>
</g>
</g>
</svg>
