<?xml version="1.0" encoding="UTF-8" standalone="no"?>
<!DOCTYPE svg PUBLIC "-//W3C//DTD SVG 1.1//EN"
 "http://www.w3.org/Graphics/SVG/1.1/DTD/svg11.dtd">
<!-- Generated by graphviz version 2.40.1 (20161225.0304)
 -->
<!-- Title: v2_game_videos Pages: 1 -->
<svg width="916pt" height="1019pt"
 viewBox="0.00 0.00 916.00 1019.00" xmlns="http://www.w3.org/2000/svg" xmlns:xlink="http://www.w3.org/1999/xlink">
<g id="graph0" class="graph" transform="scale(1 1) rotate(0) translate(4 1015)">
<title>v2_game_videos</title>
<polygon fill="#ffffff" stroke="transparent" points="-4,4 -4,-1015 912,-1015 912,4 -4,4"/>
<!-- v2_game_videos -->
<g id="node1" class="node">
<title>v2_game_videos</title>
<polygon fill="#efefef" stroke="transparent" points="333,-532.5 333,-567.5 580,-567.5 580,-532.5 333,-532.5"/>
<polygon fill="none" stroke="#000000" points="333,-532.5 333,-567.5 580,-567.5 580,-532.5 333,-532.5"/>
<text text-anchor="start" x="339.852" y="-545.3" font-family="Arial Bold" font-size="18.00" fill="#000000">v2_game_videos</text>
<text text-anchor="start" x="475.8942" y="-545.3" font-family="Arial" font-size="14.00" fill="#000000"> </text>
<text text-anchor="start" x="479.7848" y="-545.3" font-family="Arial" font-size="14.00" fill="#666666">[BASE TABLE]</text>
<polygon fill="none" stroke="#000000" points="333,-502.5 333,-532.5 580,-532.5 580,-502.5 333,-502.5"/>
<text text-anchor="start" x="340" y="-513.9" font-family="Arial" font-size="14.00" fill="#000000">id </text>
<text text-anchor="start" x="354.7798" y="-513.9" font-family="Arial" font-size="14.00" fill="#666666">[varchar(36)]</text>
<polygon fill="none" stroke="#000000" points="333,-472.5 333,-502.5 580,-502.5 580,-472.5 333,-472.5"/>
<text text-anchor="start" x="340" y="-483.9" font-family="Arial" font-size="14.00" fill="#000000">game_id </text>
<text text-anchor="start" x="397.5708" y="-483.9" font-family="Arial" font-size="14.00" fill="#666666">[varchar(36)]</text>
<polygon fill="none" stroke="#000000" points="333,-442.5 333,-472.5 580,-472.5 580,-442.5 333,-442.5"/>
<text text-anchor="start" x="340" y="-453.9" font-family="Arial" font-size="14.00" fill="#000000">video_type_id </text>
<text text-anchor="start" x="430.2552" y="-453.9" font-family="Arial" font-size="14.00" fill="#666666">[tinyint(4)]</text>
<polygon fill="none" stroke="#000000" points="333,-412.5 333,-442.5 580,-442.5 580,-412.5 333,-412.5"/>
<text text-anchor="start" x="340" y="-423.9" font-family="Arial" font-size="14.00" fill="#000000">created_at </text>
<text text-anchor="start" x="410.028" y="-423.9" font-family="Arial" font-size="14.00" fill="#666666">[datetime]</text>
<polygon fill="none" stroke="#000000" stroke-width="3" points="331,-411.5 331,-569.5 581,-569.5 581,-411.5 331,-411.5"/>
</g>
<!-- games -->
<g id="node3" class="node">
<title>games</title>
<polygon fill="#efefef" stroke="transparent" points="157,-252.5 157,-287.5 400,-287.5 400,-252.5 157,-252.5"/>
<polygon fill="none" stroke="#000000" points="157,-252.5 157,-287.5 400,-287.5 400,-252.5 157,-252.5"/>
<text text-anchor="start" x="202.8677" y="-265.3" font-family="Arial Bold" font-size="18.00" fill="#000000">games</text>
<text text-anchor="start" x="256.8785" y="-265.3" font-family="Arial" font-size="14.00" fill="#000000"> </text>
<text text-anchor="start" x="260.7691" y="-265.3" font-family="Arial" font-size="14.00" fill="#666666">[BASE TABLE]</text>
<polygon fill="none" stroke="#000000" points="157,-222.5 157,-252.5 400,-252.5 400,-222.5 157,-222.5"/>
<text text-anchor="start" x="164" y="-233.9" font-family="Arial" font-size="14.00" fill="#000000">id </text>
<text text-anchor="start" x="178.7798" y="-233.9" font-family="Arial" font-size="14.00" fill="#666666">[varchar(36)]</text>
<polygon fill="none" stroke="#000000" points="157,-192.5 157,-222.5 400,-222.5 400,-192.5 157,-192.5"/>
<text text-anchor="start" x="164" y="-203.9" font-family="Arial" font-size="14.00" fill="#000000">name </text>
<text text-anchor="start" x="202.899" y="-203.9" font-family="Arial" font-size="14.00" fill="#666666">[varchar(256)]</text>
<polygon fill="none" stroke="#000000" points="157,-162.5 157,-192.5 400,-192.5 400,-162.5 157,-162.5"/>
<text text-anchor="start" x="164" y="-173.9" font-family="Arial" font-size="14.00" fill="#000000">description </text>
<text text-anchor="start" x="235.568" y="-173.9" font-family="Arial" font-size="14.00" fill="#666666">[text]</text>
<polygon fill="none" stroke="#000000" points="157,-132.5 157,-162.5 400,-162.5 400,-132.5 157,-132.5"/>
<text text-anchor="start" x="164" y="-143.9" font-family="Arial" font-size="14.00" fill="#000000">created_at </text>
<text text-anchor="start" x="234.028" y="-143.9" font-family="Arial" font-size="14.00" fill="#666666">[datetime]</text>
<polygon fill="none" stroke="#000000" points="157,-102.5 157,-132.5 400,-132.5 400,-102.5 157,-102.5"/>
<text text-anchor="start" x="164" y="-113.9" font-family="Arial" font-size="14.00" fill="#000000">deleted_at </text>
<text text-anchor="start" x="233.2566" y="-113.9" font-family="Arial" font-size="14.00" fill="#666666">[datetime]</text>
<polygon fill="none" stroke="#000000" points="157,-72.5 157,-102.5 400,-102.5 400,-72.5 157,-72.5"/>
<text text-anchor="start" x="164" y="-83.9" font-family="Arial" font-size="14.00" fill="#000000">visibility_type_id </text>
<text text-anchor="start" x="269.007" y="-83.9" font-family="Arial" font-size="14.00" fill="#666666">[tinyint(4)]</text>
<polygon fill="none" stroke="#000000" points="157,-42.5 157,-72.5 400,-72.5 400,-42.5 157,-42.5"/>
<text text-anchor="start" x="163.7371" y="-53.9" font-family="Arial" font-size="14.00" fill="#000000">latest_version_updated_at </text>
<text text-anchor="start" x="331.8029" y="-53.9" font-family="Arial" font-size="14.00" fill="#666666">[datetime]</text>
</g>
<!-- v2_game_videos&#45;&gt;games -->
<g id="edge2" class="edge">
<title>v2_game_videos:game_id&#45;&gt;games:id</title>
<path fill="none" stroke="#000000" d="M322.8569,-486.4304C283.1179,-477.1599 307.4494,-409.7341 333,-367 350.3472,-337.9864 382.6528,-360.0136 400,-331 421.325,-295.3334 441.5556,-237.5 400,-237.5"/>
<polygon fill="#000000" stroke="#000000" points="323.0551,-486.4512 332.528,-491.9752 328.0276,-486.9756 333,-487.5 333,-487.5 333,-487.5 328.0276,-486.9756 333.472,-483.0248 323.0551,-486.4512 323.0551,-486.4512"/>
<text text-anchor="start" x="89.386" y="-497.5" font-family="Arial" font-size="10.00" fill="#000000">FOREIGN KEY (game_id) REFERENCES games (id)</text>
</g>
<!-- game_video_types -->
<g id="node4" class="node">
<title>game_video_types</title>
<polygon fill="#efefef" stroke="transparent" points="504,-192.5 504,-227.5 766,-227.5 766,-192.5 504,-192.5"/>
<polygon fill="none" stroke="#000000" points="504,-192.5 504,-227.5 766,-227.5 766,-192.5 504,-192.5"/>
<text text-anchor="start" x="510.8478" y="-205.3" font-family="Arial Bold" font-size="18.00" fill="#000000">game_video_types</text>
<text text-anchor="start" x="661.8984" y="-205.3" font-family="Arial" font-size="14.00" fill="#000000"> </text>
<text text-anchor="start" x="665.789" y="-205.3" font-family="Arial" font-size="14.00" fill="#666666">[BASE TABLE]</text>
<polygon fill="none" stroke="#000000" points="504,-162.5 504,-192.5 766,-192.5 766,-162.5 504,-162.5"/>
<text text-anchor="start" x="511" y="-173.9" font-family="Arial" font-size="14.00" fill="#000000">id </text>
<text text-anchor="start" x="525.7798" y="-173.9" font-family="Arial" font-size="14.00" fill="#666666">[tinyint(4)]</text>
<polygon fill="none" stroke="#000000" points="504,-132.5 504,-162.5 766,-162.5 766,-132.5 504,-132.5"/>
<text text-anchor="start" x="511" y="-143.9" font-family="Arial" font-size="14.00" fill="#000000">name </text>
<text text-anchor="start" x="549.899" y="-143.9" font-family="Arial" font-size="14.00" fill="#666666">[varchar(32)]</text>
<polygon fill="none" stroke="#000000" points="504,-102.5 504,-132.5 766,-132.5 766,-102.5 504,-102.5"/>
<text text-anchor="start" x="511" y="-113.9" font-family="Arial" font-size="14.00" fill="#000000">active </text>
<text text-anchor="start" x="551.453" y="-113.9" font-family="Arial" font-size="14.00" fill="#666666">[tinyint(1)]</text>
</g>
<!-- v2_game_videos&#45;&gt;game_video_types -->
<g id="edge3" class="edge">
<title>v2_game_videos:video_type_id&#45;&gt;game_video_types:id</title>
<path fill="none" stroke="#000000" d="M589.9359,-456.0601C615.0793,-447.3824 591.9262,-401.2788 580,-367 562.1181,-315.6033 521.8819,-322.3967 504,-271 490.3449,-231.752 462.4444,-177.5 504,-177.5"/>
<polygon fill="#000000" stroke="#000000" points="589.8966,-456.0657 579.3546,-453.0465 584.9483,-456.7828 580,-457.5 580,-457.5 580,-457.5 584.9483,-456.7828 580.6454,-461.9535 589.8966,-456.0657 589.8966,-456.0657"/>
<text text-anchor="start" x="586.7575" y="-467.5" font-family="Arial" font-size="10.00" fill="#000000">FOREIGN KEY (video_type_id) REFERENCES game_video_types (id)</text>
</g>
<!-- v2_game_versions -->
<g id="node2" class="node">
<title>v2_game_versions</title>
<polygon fill="#efefef" stroke="transparent" points="326,-932.5 326,-967.5 588,-967.5 588,-932.5 326,-932.5"/>
<polygon fill="none" stroke="#000000" points="326,-932.5 326,-967.5 588,-967.5 588,-932.5 326,-932.5"/>
<text text-anchor="start" x="332.8559" y="-945.3" font-family="Arial Bold" font-size="18.00" fill="#000000">v2_game_versions</text>
<text text-anchor="start" x="483.8903" y="-945.3" font-family="Arial" font-size="14.00" fill="#000000"> </text>
<text text-anchor="start" x="487.7809" y="-945.3" font-family="Arial" font-size="14.00" fill="#666666">[BASE TABLE]</text>
<polygon fill="none" stroke="#000000" points="326,-902.5 326,-932.5 588,-932.5 588,-902.5 326,-902.5"/>
<text text-anchor="start" x="333" y="-913.9" font-family="Arial" font-size="14.00" fill="#000000">id </text>
<text text-anchor="start" x="347.7798" y="-913.9" font-family="Arial" font-size="14.00" fill="#666666">[varchar(36)]</text>
<polygon fill="none" stroke="#000000" points="326,-872.5 326,-902.5 588,-902.5 588,-872.5 326,-872.5"/>
<text text-anchor="start" x="333" y="-883.9" font-family="Arial" font-size="14.00" fill="#000000">game_id </text>
<text text-anchor="start" x="390.5708" y="-883.9" font-family="Arial" font-size="14.00" fill="#666666">[varchar(36)]</text>
<polygon fill="none" stroke="#000000" points="326,-842.5 326,-872.5 588,-872.5 588,-842.5 326,-842.5"/>
<text text-anchor="start" x="333" y="-853.9" font-family="Arial" font-size="14.00" fill="#000000">game_image_id </text>
<text text-anchor="start" x="436.4684" y="-853.9" font-family="Arial" font-size="14.00" fill="#666666">[varchar(36)]</text>
<polygon fill="none" stroke="#000000" points="326,-812.5 326,-842.5 588,-842.5 588,-812.5 326,-812.5"/>
<text text-anchor="start" x="333" y="-823.9" font-family="Arial" font-size="14.00" fill="#000000">game_video_id </text>
<text text-anchor="start" x="431.8078" y="-823.9" font-family="Arial" font-size="14.00" fill="#666666">[varchar(36)]</text>
<polygon fill="none" stroke="#000000" points="326,-782.5 326,-812.5 588,-812.5 588,-782.5 326,-782.5"/>
<text text-anchor="start" x="333" y="-793.9" font-family="Arial" font-size="14.00" fill="#000000">name </text>
<text text-anchor="start" x="371.899" y="-793.9" font-family="Arial" font-size="14.00" fill="#666666">[varchar(32)]</text>
<polygon fill="none" stroke="#000000" points="326,-752.5 326,-782.5 588,-782.5 588,-752.5 326,-752.5"/>
<text text-anchor="start" x="333" y="-763.9" font-family="Arial" font-size="14.00" fill="#000000">description </text>
<text text-anchor="start" x="404.568" y="-763.9" font-family="Arial" font-size="14.00" fill="#666666">[text]</text>
<polygon fill="none" stroke="#000000" points="326,-722.5 326,-752.5 588,-752.5 588,-722.5 326,-722.5"/>
<text text-anchor="start" x="333" y="-733.9" font-family="Arial" font-size="14.00" fill="#000000">created_at </text>
<text text-anchor="start" x="403.028" y="-733.9" font-family="Arial" font-size="14.00" fill="#666666">[datetime]</text>
<polygon fill="none" stroke="#000000" points="326,-692.5 326,-722.5 588,-722.5 588,-692.5 326,-692.5"/>
<text text-anchor="start" x="333" y="-703.9" font-family="Arial" font-size="14.00" fill="#000000">url </text>
<text text-anchor="start" x="352.4404" y="-703.9" font-family="Arial" font-size="14.00" fill="#666666">[text]</text>
</g>
<!-- v2_game_versions&#45;&gt;v2_game_videos -->
<g id="edge1" class="edge">
<title>v2_game_versions:game_video_id&#45;&gt;v2_game_videos:id</title>
<path fill="none" stroke="#000000" d="M316.0032,-826.802C249.6015,-817.0224 276.6024,-706.8925 326,-650 400.7517,-563.9065 505.2483,-700.0935 580,-614 608.1187,-581.6149 622.8889,-517.5 580,-517.5"/>
<polygon fill="#000000" stroke="#000000" points="316.0243,-826.8034 325.6865,-831.9891 321.0121,-827.1517 326,-827.5 326,-827.5 326,-827.5 321.0121,-827.1517 326.3135,-823.0109 316.0243,-826.8034 316.0243,-826.8034"/>
<text text-anchor="start" x="6.872" y="-837.5" font-family="Arial" font-size="10.00" fill="#000000">FOREIGN KEY (game_video_id) REFERENCES v2_game_videos (id)</text>
</g>
</g>
</svg>
