<?xml version="1.0" encoding="UTF-8" standalone="no"?>
<!DOCTYPE svg PUBLIC "-//W3C//DTD SVG 1.1//EN"
 "http://www.w3.org/Graphics/SVG/1.1/DTD/svg11.dtd">
<!-- Generated by graphviz version 12.1.2 (20240928.0832)
 -->
<!-- Title: v2_game_versions Pages: 1 -->
<svg width="1320pt" height="1160pt"
 viewBox="0.00 0.00 1319.82 1160.40" xmlns="http://www.w3.org/2000/svg" xmlns:xlink="http://www.w3.org/1999/xlink">
<g id="graph0" class="graph" transform="scale(1 1) rotate(0) translate(4 1156.4)">
<title>v2_game_versions</title>
<polygon fill="white" stroke="none" points="-4,4 -4,-1156.4 1315.82,-1156.4 1315.82,4 -4,4"/>
<!-- v2_game_versions -->
<g id="node1" class="node">
<title>v2_game_versions</title>
<polygon fill="#efefef" stroke="none" points="508.18,-666.2 508.18,-701.8 781.65,-701.8 781.65,-666.2 508.18,-666.2"/>
<polygon fill="none" stroke="black" points="508.18,-666.2 508.18,-701.8 781.65,-701.8 781.65,-666.2 508.18,-666.2"/>
<text text-anchor="start" x="515.18" y="-679.6" font-family="Arial Bold" font-size="18.00">v2_game_versions</text>
<text text-anchor="start" x="650.16" y="-679.6" font-family="Arial" font-size="14.00">    </text>
<text text-anchor="start" x="681.27" y="-679.6" font-family="Arial" font-size="14.00" fill="#666666">[BASE TABLE]</text>
<polygon fill="none" stroke="black" points="508.18,-635.4 508.18,-666.2 781.65,-666.2 781.65,-635.4 508.18,-635.4"/>
<text text-anchor="start" x="515.18" y="-647.6" font-family="Arial" font-size="14.00">id </text>
<text text-anchor="start" x="529.97" y="-647.6" font-family="Arial" font-size="14.00" fill="#666666">[varchar(36)]</text>
<polygon fill="none" stroke="black" points="508.18,-604.6 508.18,-635.4 781.65,-635.4 781.65,-604.6 508.18,-604.6"/>
<text text-anchor="start" x="515.18" y="-616.8" font-family="Arial" font-size="14.00">game_id </text>
<text text-anchor="start" x="572.78" y="-616.8" font-family="Arial" font-size="14.00" fill="#666666">[varchar(36)]</text>
<polygon fill="none" stroke="black" points="508.18,-573.8 508.18,-604.6 781.65,-604.6 781.65,-573.8 508.18,-573.8"/>
<text text-anchor="start" x="515.18" y="-586" font-family="Arial" font-size="14.00">game_image_id </text>
<text text-anchor="start" x="618.69" y="-586" font-family="Arial" font-size="14.00" fill="#666666">[varchar(36)]</text>
<polygon fill="none" stroke="black" points="508.18,-543 508.18,-573.8 781.65,-573.8 781.65,-543 508.18,-543"/>
<text text-anchor="start" x="515.18" y="-555.2" font-family="Arial" font-size="14.00">game_video_id </text>
<text text-anchor="start" x="614.03" y="-555.2" font-family="Arial" font-size="14.00" fill="#666666">[varchar(36)]</text>
<polygon fill="none" stroke="black" points="508.18,-512.2 508.18,-543 781.65,-543 781.65,-512.2 508.18,-512.2"/>
<text text-anchor="start" x="515.18" y="-524.4" font-family="Arial" font-size="14.00">name </text>
<text text-anchor="start" x="554.09" y="-524.4" font-family="Arial" font-size="14.00" fill="#666666">[varchar(32)]</text>
<polygon fill="none" stroke="black" points="508.18,-481.4 508.18,-512.2 781.65,-512.2 781.65,-481.4 508.18,-481.4"/>
<text text-anchor="start" x="515.18" y="-493.6" font-family="Arial" font-size="14.00">description </text>
<text text-anchor="start" x="586.78" y="-493.6" font-family="Arial" font-size="14.00" fill="#666666">[text]</text>
<polygon fill="none" stroke="black" points="508.18,-450.6 508.18,-481.4 781.65,-481.4 781.65,-450.6 508.18,-450.6"/>
<text text-anchor="start" x="515.18" y="-462.8" font-family="Arial" font-size="14.00">created_at </text>
<text text-anchor="start" x="585.23" y="-462.8" font-family="Arial" font-size="14.00" fill="#666666">[datetime]</text>
<polygon fill="none" stroke="black" points="508.18,-419.8 508.18,-450.6 781.65,-450.6 781.65,-419.8 508.18,-419.8"/>
<text text-anchor="start" x="515.18" y="-432" font-family="Arial" font-size="14.00">url </text>
<text text-anchor="start" x="534.63" y="-432" font-family="Arial" font-size="14.00" fill="#666666">[text]</text>
<polygon fill="none" stroke="black" stroke-width="3" points="506.68,-418.3 506.68,-703.3 783.15,-703.3 783.15,-418.3 506.68,-418.3"/>
</g>
<!-- games -->
<g id="node5" class="node">
<title>games</title>
<polygon fill="#efefef" stroke="none" points="165.12,-258.8 165.12,-294.4 408.71,-294.4 408.71,-258.8 165.12,-258.8"/>
<polygon fill="none" stroke="black" points="165.12,-258.8 165.12,-294.4 408.71,-294.4 408.71,-258.8 165.12,-258.8"/>
<text text-anchor="start" x="201.68" y="-272.2" font-family="Arial Bold" font-size="18.00">games</text>
<text text-anchor="start" x="247.66" y="-272.2" font-family="Arial" font-size="14.00">    </text>
<text text-anchor="start" x="278.78" y="-272.2" font-family="Arial" font-size="14.00" fill="#666666">[BASE TABLE]</text>
<polygon fill="none" stroke="black" points="165.12,-228 165.12,-258.8 408.71,-258.8 408.71,-228 165.12,-228"/>
<text text-anchor="start" x="172.12" y="-240.2" font-family="Arial" font-size="14.00">id </text>
<text text-anchor="start" x="186.9" y="-240.2" font-family="Arial" font-size="14.00" fill="#666666">[varchar(36)]</text>
<polygon fill="none" stroke="black" points="165.12,-197.2 165.12,-228 408.71,-228 408.71,-197.2 165.12,-197.2"/>
<text text-anchor="start" x="172.12" y="-209.4" font-family="Arial" font-size="14.00">name </text>
<text text-anchor="start" x="211.03" y="-209.4" font-family="Arial" font-size="14.00" fill="#666666">[varchar(256)]</text>
<polygon fill="none" stroke="black" points="165.12,-166.4 165.12,-197.2 408.71,-197.2 408.71,-166.4 165.12,-166.4"/>
<text text-anchor="start" x="172.12" y="-178.6" font-family="Arial" font-size="14.00">description </text>
<text text-anchor="start" x="243.71" y="-178.6" font-family="Arial" font-size="14.00" fill="#666666">[text]</text>
<polygon fill="none" stroke="black" points="165.12,-135.6 165.12,-166.4 408.71,-166.4 408.71,-135.6 165.12,-135.6"/>
<text text-anchor="start" x="172.12" y="-147.8" font-family="Arial" font-size="14.00">created_at </text>
<text text-anchor="start" x="242.16" y="-147.8" font-family="Arial" font-size="14.00" fill="#666666">[datetime]</text>
<polygon fill="none" stroke="black" points="165.12,-104.8 165.12,-135.6 408.71,-135.6 408.71,-104.8 165.12,-104.8"/>
<text text-anchor="start" x="172.12" y="-117" font-family="Arial" font-size="14.00">deleted_at </text>
<text text-anchor="start" x="241.4" y="-117" font-family="Arial" font-size="14.00" fill="#666666">[datetime]</text>
<polygon fill="none" stroke="black" points="165.12,-74 165.12,-104.8 408.71,-104.8 408.71,-74 165.12,-74"/>
<text text-anchor="start" x="172.12" y="-86.2" font-family="Arial" font-size="14.00">visibility_type_id </text>
<text text-anchor="start" x="277.16" y="-86.2" font-family="Arial" font-size="14.00" fill="#666666">[tinyint(4)]</text>
<polygon fill="none" stroke="black" points="165.12,-43.2 165.12,-74 408.71,-74 408.71,-43.2 165.12,-43.2"/>
<text text-anchor="start" x="172.12" y="-55.4" font-family="Arial" font-size="14.00">latest_version_updated_at </text>
<text text-anchor="start" x="340.24" y="-55.4" font-family="Arial" font-size="14.00" fill="#666666">[datetime]</text>
</g>
<!-- v2_game_versions&#45;&gt;games -->
<g id="edge4" class="edge">
<title>v2_game_versions:game_id&#45;&gt;games:id</title>
<path fill="none" stroke="black" d="M497.34,-618.15C426.65,-589.74 492.62,-243.4 409.71,-243.4"/>
<polygon fill="black" stroke="black" points="497.03,-618.09 506.02,-624.36 502.27,-619.08 506.53,-619.88 506.53,-619.88 506.53,-619.88 502.27,-619.08 507.69,-615.52 497.03,-618.09"/>
<text text-anchor="start" x="262.9" y="-630" font-family="Arial" font-size="10.00">FOREIGN KEY (game_id) REFERENCES games (id)</text>
</g>
<!-- v2_game_images -->
<g id="node6" class="node">
<title>v2_game_images</title>
<polygon fill="#efefef" stroke="none" points="512.69,-212.6 512.69,-248.2 777.14,-248.2 777.14,-212.6 512.69,-212.6"/>
<polygon fill="none" stroke="black" points="512.69,-212.6 512.69,-248.2 777.14,-248.2 777.14,-212.6 512.69,-212.6"/>
<text text-anchor="start" x="519.69" y="-226" font-family="Arial Bold" font-size="18.00">v2_game_images</text>
<text text-anchor="start" x="645.65" y="-226" font-family="Arial" font-size="14.00">    </text>
<text text-anchor="start" x="676.77" y="-226" font-family="Arial" font-size="14.00" fill="#666666">[BASE TABLE]</text>
<polygon fill="none" stroke="black" points="512.69,-181.8 512.69,-212.6 777.14,-212.6 777.14,-181.8 512.69,-181.8"/>
<text text-anchor="start" x="519.69" y="-194" font-family="Arial" font-size="14.00">id </text>
<text text-anchor="start" x="534.47" y="-194" font-family="Arial" font-size="14.00" fill="#666666">[varchar(36)]</text>
<polygon fill="none" stroke="black" points="512.69,-151 512.69,-181.8 777.14,-181.8 777.14,-151 512.69,-151"/>
<text text-anchor="start" x="519.69" y="-163.2" font-family="Arial" font-size="14.00">game_id </text>
<text text-anchor="start" x="577.28" y="-163.2" font-family="Arial" font-size="14.00" fill="#666666">[varchar(36)]</text>
<polygon fill="none" stroke="black" points="512.69,-120.2 512.69,-151 777.14,-151 777.14,-120.2 512.69,-120.2"/>
<text text-anchor="start" x="519.69" y="-132.4" font-family="Arial" font-size="14.00">image_type_id </text>
<text text-anchor="start" x="614.64" y="-132.4" font-family="Arial" font-size="14.00" fill="#666666">[tinyint(4)]</text>
<polygon fill="none" stroke="black" points="512.69,-89.4 512.69,-120.2 777.14,-120.2 777.14,-89.4 512.69,-89.4"/>
<text text-anchor="start" x="519.69" y="-101.6" font-family="Arial" font-size="14.00">created_at </text>
<text text-anchor="start" x="589.74" y="-101.6" font-family="Arial" font-size="14.00" fill="#666666">[datetime]</text>
</g>
<!-- v2_game_versions&#45;&gt;v2_game_images -->
<g id="edge5" class="edge">
<title>v2_game_versions:game_image_id&#45;&gt;v2_game_images:id</title>
<path fill="none" stroke="black" d="M791.13,-583.66C825.38,-536.01 818.64,-197.2 778.14,-197.2"/>
<polygon fill="black" stroke="black" points="791.3,-583.55 780.46,-585.25 786.83,-586.46 783.21,-588.83 783.21,-588.83 783.21,-588.83 786.83,-586.46 785.39,-592.78 791.3,-583.55"/>
<text text-anchor="start" x="789.65" y="-599.2" font-family="Arial" font-size="10.00">FOREIGN KEY (game_image_id) REFERENCES v2_game_images (id)</text>
</g>
<!-- v2_game_videos -->
<g id="node7" class="node">
<title>v2_game_videos</title>
<polygon fill="#efefef" stroke="none" points="881.68,-212.6 881.68,-248.2 1142.15,-248.2 1142.15,-212.6 881.68,-212.6"/>
<polygon fill="none" stroke="black" points="881.68,-212.6 881.68,-248.2 1142.15,-248.2 1142.15,-212.6 881.68,-212.6"/>
<text text-anchor="start" x="888.68" y="-226" font-family="Arial Bold" font-size="18.00">v2_game_videos</text>
<text text-anchor="start" x="1010.66" y="-226" font-family="Arial" font-size="14.00">    </text>
<text text-anchor="start" x="1041.78" y="-226" font-family="Arial" font-size="14.00" fill="#666666">[BASE TABLE]</text>
<polygon fill="none" stroke="black" points="881.68,-181.8 881.68,-212.6 1142.15,-212.6 1142.15,-181.8 881.68,-181.8"/>
<text text-anchor="start" x="888.68" y="-194" font-family="Arial" font-size="14.00">id </text>
<text text-anchor="start" x="903.47" y="-194" font-family="Arial" font-size="14.00" fill="#666666">[varchar(36)]</text>
<polygon fill="none" stroke="black" points="881.68,-151 881.68,-181.8 1142.15,-181.8 1142.15,-151 881.68,-151"/>
<text text-anchor="start" x="888.68" y="-163.2" font-family="Arial" font-size="14.00">game_id </text>
<text text-anchor="start" x="946.28" y="-163.2" font-family="Arial" font-size="14.00" fill="#666666">[varchar(36)]</text>
<polygon fill="none" stroke="black" points="881.68,-120.2 881.68,-151 1142.15,-151 1142.15,-120.2 881.68,-120.2"/>
<text text-anchor="start" x="888.68" y="-132.4" font-family="Arial" font-size="14.00">video_type_id </text>
<text text-anchor="start" x="978.97" y="-132.4" font-family="Arial" font-size="14.00" fill="#666666">[tinyint(4)]</text>
<polygon fill="none" stroke="black" points="881.68,-89.4 881.68,-120.2 1142.15,-120.2 1142.15,-89.4 881.68,-89.4"/>
<text text-anchor="start" x="888.68" y="-101.6" font-family="Arial" font-size="14.00">created_at </text>
<text text-anchor="start" x="958.73" y="-101.6" font-family="Arial" font-size="14.00" fill="#666666">[datetime]</text>
</g>
<!-- v2_game_versions&#45;&gt;v2_game_videos -->
<g id="edge6" class="edge">
<title>v2_game_versions:game_video_id&#45;&gt;v2_game_videos:id</title>
<path fill="none" stroke="black" d="M792.55,-556.46C860.23,-528.03 801.09,-197.2 880.68,-197.2"/>
<polygon fill="black" stroke="black" points="792.79,-556.41 782.11,-553.92 787.55,-557.44 783.3,-558.27 783.3,-558.27 783.3,-558.27 787.55,-557.44 783.84,-562.75 792.79,-556.41"/>
<text text-anchor="start" x="789.65" y="-568.4" font-family="Arial" font-size="10.00">FOREIGN KEY (game_video_id) REFERENCES v2_game_videos (id)</text>
</g>
<!-- edition_game_version_relations -->
<g id="node2" class="node">
<title>edition_game_version_relations</title>
<polygon fill="#efefef" stroke="none" points="43.2,-981.2 43.2,-1016.8 412.63,-1016.8 412.63,-981.2 43.2,-981.2"/>
<polygon fill="none" stroke="black" points="43.2,-981.2 43.2,-1016.8 412.63,-1016.8 412.63,-981.2 43.2,-981.2"/>
<text text-anchor="start" x="50.2" y="-994.6" font-family="Arial Bold" font-size="18.00">edition_game_version_relations</text>
<text text-anchor="start" x="281.14" y="-994.6" font-family="Arial" font-size="14.00">    </text>
<text text-anchor="start" x="312.26" y="-994.6" font-family="Arial" font-size="14.00" fill="#666666">[BASE TABLE]</text>
<polygon fill="none" stroke="black" points="43.2,-950.4 43.2,-981.2 412.63,-981.2 412.63,-950.4 43.2,-950.4"/>
<text text-anchor="start" x="50.2" y="-962.6" font-family="Arial" font-size="14.00">edition_id </text>
<text text-anchor="start" x="114.03" y="-962.6" font-family="Arial" font-size="14.00" fill="#666666">[varchar(36)]</text>
<polygon fill="none" stroke="black" points="43.2,-919.6 43.2,-950.4 412.63,-950.4 412.63,-919.6 43.2,-919.6"/>
<text text-anchor="start" x="50.2" y="-931.8" font-family="Arial" font-size="14.00">game_version_id </text>
<text text-anchor="start" x="160.71" y="-931.8" font-family="Arial" font-size="14.00" fill="#666666">[varchar(36)]</text>
</g>
<!-- edition_game_version_relations&#45;&gt;v2_game_versions -->
<g id="edge1" class="edge">
<title>edition_game_version_relations:game_version_id&#45;&gt;v2_game_versions:id</title>
<path fill="none" stroke="black" d="M423.62,-932.54C476.12,-904.77 444.33,-650.8 507.18,-650.8"/>
<polygon fill="black" stroke="black" points="423.67,-932.53 412.88,-930.55 418.49,-933.81 414.28,-934.84 414.28,-934.84 414.28,-934.84 418.49,-933.81 415.03,-939.29 423.67,-932.53"/>
<text text-anchor="start" x="420.63" y="-945" font-family="Arial" font-size="10.00">FOREIGN KEY (game_version_id) REFERENCES v2_game_versions (id)</text>
</g>
<!-- game_play_logs -->
<g id="node3" class="node">
<title>game_play_logs</title>
<polygon fill="#efefef" stroke="none" points="516.68,-1073.6 516.68,-1109.2 773.15,-1109.2 773.15,-1073.6 516.68,-1073.6"/>
<polygon fill="none" stroke="black" points="516.68,-1073.6 516.68,-1109.2 773.15,-1109.2 773.15,-1073.6 516.68,-1073.6"/>
<text text-anchor="start" x="523.68" y="-1087" font-family="Arial Bold" font-size="18.00">game_play_logs</text>
<text text-anchor="start" x="641.66" y="-1087" font-family="Arial" font-size="14.00">    </text>
<text text-anchor="start" x="672.78" y="-1087" font-family="Arial" font-size="14.00" fill="#666666">[BASE TABLE]</text>
<polygon fill="none" stroke="black" points="516.68,-1042.8 516.68,-1073.6 773.15,-1073.6 773.15,-1042.8 516.68,-1042.8"/>
<text text-anchor="start" x="523.68" y="-1055" font-family="Arial" font-size="14.00">id </text>
<text text-anchor="start" x="538.47" y="-1055" font-family="Arial" font-size="14.00" fill="#666666">[varchar(36)]</text>
<polygon fill="none" stroke="black" points="516.68,-1012 516.68,-1042.8 773.15,-1042.8 773.15,-1012 516.68,-1012"/>
<text text-anchor="start" x="523.68" y="-1024.2" font-family="Arial" font-size="14.00">edition_id </text>
<text text-anchor="start" x="587.51" y="-1024.2" font-family="Arial" font-size="14.00" fill="#666666">[varchar(36)]</text>
<polygon fill="none" stroke="black" points="516.68,-981.2 516.68,-1012 773.15,-1012 773.15,-981.2 516.68,-981.2"/>
<text text-anchor="start" x="523.68" y="-993.4" font-family="Arial" font-size="14.00">game_id </text>
<text text-anchor="start" x="581.28" y="-993.4" font-family="Arial" font-size="14.00" fill="#666666">[varchar(36)]</text>
<polygon fill="none" stroke="black" points="516.68,-950.4 516.68,-981.2 773.15,-981.2 773.15,-950.4 516.68,-950.4"/>
<text text-anchor="start" x="523.68" y="-962.6" font-family="Arial" font-size="14.00">game_version_id </text>
<text text-anchor="start" x="634.19" y="-962.6" font-family="Arial" font-size="14.00" fill="#666666">[varchar(36)]</text>
<polygon fill="none" stroke="black" points="516.68,-919.6 516.68,-950.4 773.15,-950.4 773.15,-919.6 516.68,-919.6"/>
<text text-anchor="start" x="523.68" y="-931.8" font-family="Arial" font-size="14.00">start_time </text>
<text text-anchor="start" x="589.03" y="-931.8" font-family="Arial" font-size="14.00" fill="#666666">[datetime]</text>
<polygon fill="none" stroke="black" points="516.68,-888.8 516.68,-919.6 773.15,-919.6 773.15,-888.8 516.68,-888.8"/>
<text text-anchor="start" x="523.68" y="-901" font-family="Arial" font-size="14.00">end_time </text>
<text text-anchor="start" x="585.17" y="-901" font-family="Arial" font-size="14.00" fill="#666666">[datetime]</text>
<polygon fill="none" stroke="black" points="516.68,-858 516.68,-888.8 773.15,-888.8 773.15,-858 516.68,-858"/>
<text text-anchor="start" x="523.68" y="-870.2" font-family="Arial" font-size="14.00">created_at </text>
<text text-anchor="start" x="593.73" y="-870.2" font-family="Arial" font-size="14.00" fill="#666666">[datetime]</text>
<polygon fill="none" stroke="black" points="516.68,-827.2 516.68,-858 773.15,-858 773.15,-827.2 516.68,-827.2"/>
<text text-anchor="start" x="523.68" y="-839.4" font-family="Arial" font-size="14.00">updated_at </text>
<text text-anchor="start" x="597.64" y="-839.4" font-family="Arial" font-size="14.00" fill="#666666">[datetime]</text>
</g>
<!-- game_play_logs&#45;&gt;v2_game_versions -->
<g id="edge2" class="edge">
<title>game_play_logs:game_version_id&#45;&gt;v2_game_versions:id</title>
<path fill="none" stroke="black" d="M782.4,-959.51C810.28,-915.11 814.72,-650.8 782.65,-650.8"/>
<polygon fill="black" stroke="black" points="782.37,-959.53 771.68,-962.02 778.12,-962.77 774.68,-965.39 774.68,-965.39 774.68,-965.39 778.12,-962.77 777.14,-969.18 782.37,-959.53"/>
<text text-anchor="start" x="438.15" y="-975.8" font-family="Arial" font-size="10.00">FOREIGN KEY (game_version_id) REFERENCES v2_game_versions (id)</text>
</g>
<!-- game_version_game_file_relations -->
<g id="node4" class="node">
<title>game_version_game_file_relations</title>
<polygon fill="#efefef" stroke="none" points="877.21,-981.2 877.21,-1016.8 1268.62,-1016.8 1268.62,-981.2 877.21,-981.2"/>
<polygon fill="none" stroke="black" points="877.21,-981.2 877.21,-1016.8 1268.62,-1016.8 1268.62,-981.2 877.21,-981.2"/>
<text text-anchor="start" x="884.21" y="-994.6" font-family="Arial Bold" font-size="18.00">game_version_game_file_relations</text>
<text text-anchor="start" x="1137.13" y="-994.6" font-family="Arial" font-size="14.00">    </text>
<text text-anchor="start" x="1168.24" y="-994.6" font-family="Arial" font-size="14.00" fill="#666666">[BASE TABLE]</text>
<polygon fill="none" stroke="black" points="877.21,-950.4 877.21,-981.2 1268.62,-981.2 1268.62,-950.4 877.21,-950.4"/>
<text text-anchor="start" x="884.21" y="-962.6" font-family="Arial" font-size="14.00">game_version_id </text>
<text text-anchor="start" x="994.72" y="-962.6" font-family="Arial" font-size="14.00" fill="#666666">[varchar(36)]</text>
<polygon fill="none" stroke="black" points="877.21,-919.6 877.21,-950.4 1268.62,-950.4 1268.62,-919.6 877.21,-919.6"/>
<text text-anchor="start" x="884.21" y="-931.8" font-family="Arial" font-size="14.00">game_file_id </text>
<text text-anchor="start" x="967.49" y="-931.8" font-family="Arial" font-size="14.00" fill="#666666">[varchar(36)]</text>
</g>
<!-- game_version_game_file_relations&#45;&gt;v2_game_versions -->
<g id="edge3" class="edge">
<title>game_version_game_file_relations:game_version_id&#45;&gt;v2_game_versions:id</title>
<path fill="none" stroke="black" d="M866.39,-963.62C808.02,-935.79 852.1,-650.8 782.65,-650.8"/>
<polygon fill="black" stroke="black" points="866.12,-963.56 874.91,-970.12 871.33,-964.72 875.56,-965.66 875.56,-965.66 875.56,-965.66 871.33,-964.72 876.86,-961.33 866.12,-963.56"/>
<text text-anchor="start" x="883.21" y="-975.8" font-family="Arial" font-size="10.00">FOREIGN KEY (game_version_id) REFERENCES v2_game_versions (id)</text>
</g>
</g>
</svg>
