<?xml version="1.0" encoding="UTF-8" standalone="no"?>
<!DOCTYPE svg PUBLIC "-//W3C//DTD SVG 1.1//EN"
 "http://www.w3.org/Graphics/SVG/1.1/DTD/svg11.dtd">
<!-- Generated by graphviz version 2.40.1 (20161225.0304)
 -->
<!-- Title: v2_game_videos Pages: 1 -->
<svg width="916pt" height="959pt"
 viewBox="0.00 0.00 916.00 959.00" xmlns="http://www.w3.org/2000/svg" xmlns:xlink="http://www.w3.org/1999/xlink">
<g id="graph0" class="graph" transform="scale(1 1) rotate(0) translate(4 955)">
<title>v2_game_videos</title>
<polygon fill="#ffffff" stroke="transparent" points="-4,4 -4,-955 912,-955 912,4 -4,4"/>
<!-- v2_game_videos -->
<g id="node1" class="node">
<title>v2_game_videos</title>
<polygon fill="#efefef" stroke="transparent" points="333,-472.5 333,-507.5 580,-507.5 580,-472.5 333,-472.5"/>
<polygon fill="none" stroke="#000000" points="333,-472.5 333,-507.5 580,-507.5 580,-472.5 333,-472.5"/>
<text text-anchor="start" x="339.852" y="-485.3" font-family="Arial Bold" font-size="18.00" fill="#000000">v2_game_videos</text>
<text text-anchor="start" x="475.8942" y="-485.3" font-family="Arial" font-size="14.00" fill="#000000"> </text>
<text text-anchor="start" x="479.7848" y="-485.3" font-family="Arial" font-size="14.00" fill="#666666">[BASE TABLE]</text>
<polygon fill="none" stroke="#000000" points="333,-442.5 333,-472.5 580,-472.5 580,-442.5 333,-442.5"/>
<text text-anchor="start" x="340" y="-453.9" font-family="Arial" font-size="14.00" fill="#000000">id </text>
<text text-anchor="start" x="354.7798" y="-453.9" font-family="Arial" font-size="14.00" fill="#666666">[varchar(36)]</text>
<polygon fill="none" stroke="#000000" points="333,-412.5 333,-442.5 580,-442.5 580,-412.5 333,-412.5"/>
<text text-anchor="start" x="340" y="-423.9" font-family="Arial" font-size="14.00" fill="#000000">game_id </text>
<text text-anchor="start" x="397.5708" y="-423.9" font-family="Arial" font-size="14.00" fill="#666666">[varchar(36)]</text>
<polygon fill="none" stroke="#000000" points="333,-382.5 333,-412.5 580,-412.5 580,-382.5 333,-382.5"/>
<text text-anchor="start" x="340" y="-393.9" font-family="Arial" font-size="14.00" fill="#000000">video_type_id </text>
<text text-anchor="start" x="430.2552" y="-393.9" font-family="Arial" font-size="14.00" fill="#666666">[tinyint(4)]</text>
<polygon fill="none" stroke="#000000" points="333,-352.5 333,-382.5 580,-382.5 580,-352.5 333,-352.5"/>
<text text-anchor="start" x="340" y="-363.9" font-family="Arial" font-size="14.00" fill="#000000">created_at </text>
<text text-anchor="start" x="410.028" y="-363.9" font-family="Arial" font-size="14.00" fill="#666666">[datetime]</text>
<polygon fill="none" stroke="#000000" stroke-width="3" points="331,-351.5 331,-509.5 581,-509.5 581,-351.5 331,-351.5"/>
</g>
<!-- games -->
<g id="node3" class="node">
<title>games</title>
<polygon fill="#efefef" stroke="transparent" points="216,-192.5 216,-227.5 381,-227.5 381,-192.5 216,-192.5"/>
<polygon fill="none" stroke="#000000" points="216,-192.5 216,-227.5 381,-227.5 381,-192.5 216,-192.5"/>
<text text-anchor="start" x="222.8677" y="-205.3" font-family="Arial Bold" font-size="18.00" fill="#000000">games</text>
<text text-anchor="start" x="276.8785" y="-205.3" font-family="Arial" font-size="14.00" fill="#000000"> </text>
<text text-anchor="start" x="280.7691" y="-205.3" font-family="Arial" font-size="14.00" fill="#666666">[BASE TABLE]</text>
<polygon fill="none" stroke="#000000" points="216,-162.5 216,-192.5 381,-192.5 381,-162.5 216,-162.5"/>
<text text-anchor="start" x="223" y="-173.9" font-family="Arial" font-size="14.00" fill="#000000">id </text>
<text text-anchor="start" x="237.7798" y="-173.9" font-family="Arial" font-size="14.00" fill="#666666">[varchar(36)]</text>
<polygon fill="none" stroke="#000000" points="216,-132.5 216,-162.5 381,-162.5 381,-132.5 216,-132.5"/>
<text text-anchor="start" x="223" y="-143.9" font-family="Arial" font-size="14.00" fill="#000000">name </text>
<text text-anchor="start" x="261.899" y="-143.9" font-family="Arial" font-size="14.00" fill="#666666">[varchar(256)]</text>
<polygon fill="none" stroke="#000000" points="216,-102.5 216,-132.5 381,-132.5 381,-102.5 216,-102.5"/>
<text text-anchor="start" x="223" y="-113.9" font-family="Arial" font-size="14.00" fill="#000000">description </text>
<text text-anchor="start" x="294.568" y="-113.9" font-family="Arial" font-size="14.00" fill="#666666">[text]</text>
<polygon fill="none" stroke="#000000" points="216,-72.5 216,-102.5 381,-102.5 381,-72.5 216,-72.5"/>
<text text-anchor="start" x="223" y="-83.9" font-family="Arial" font-size="14.00" fill="#000000">created_at </text>
<text text-anchor="start" x="293.028" y="-83.9" font-family="Arial" font-size="14.00" fill="#666666">[datetime]</text>
<polygon fill="none" stroke="#000000" points="216,-42.5 216,-72.5 381,-72.5 381,-42.5 216,-42.5"/>
<text text-anchor="start" x="223" y="-53.9" font-family="Arial" font-size="14.00" fill="#000000">deleted_at </text>
<text text-anchor="start" x="292.2566" y="-53.9" font-family="Arial" font-size="14.00" fill="#666666">[datetime]</text>
</g>
<!-- v2_game_videos&#45;&gt;games -->
<g id="edge2" class="edge">
<title>v2_game_videos:game_id&#45;&gt;games:id</title>
<path fill="none" stroke="#000000" d="M322.9955,-427.4024C113.3109,-423.19 374.5271,-283.9457 381,-271 399.5842,-233.8316 422.5556,-177.5 381,-177.5"/>
<polygon fill="#000000" stroke="#000000" points="323.0005,-427.4024 332.9561,-431.9998 328.0002,-427.4512 333,-427.5 333,-427.5 333,-427.5 328.0002,-427.4512 333.0439,-423.0002 323.0005,-427.4024 323.0005,-427.4024"/>
<text text-anchor="start" x="89.386" y="-437.5" font-family="Arial" font-size="10.00" fill="#000000">FOREIGN KEY (game_id) REFERENCES games (id)</text>
</g>
<!-- game_video_types -->
<g id="node4" class="node">
<title>game_video_types</title>
<polygon fill="#efefef" stroke="transparent" points="485,-162.5 485,-197.5 747,-197.5 747,-162.5 485,-162.5"/>
<polygon fill="none" stroke="#000000" points="485,-162.5 485,-197.5 747,-197.5 747,-162.5 485,-162.5"/>
<text text-anchor="start" x="491.8478" y="-175.3" font-family="Arial Bold" font-size="18.00" fill="#000000">game_video_types</text>
<text text-anchor="start" x="642.8984" y="-175.3" font-family="Arial" font-size="14.00" fill="#000000"> </text>
<text text-anchor="start" x="646.789" y="-175.3" font-family="Arial" font-size="14.00" fill="#666666">[BASE TABLE]</text>
<polygon fill="none" stroke="#000000" points="485,-132.5 485,-162.5 747,-162.5 747,-132.5 485,-132.5"/>
<text text-anchor="start" x="492" y="-143.9" font-family="Arial" font-size="14.00" fill="#000000">id </text>
<text text-anchor="start" x="506.7798" y="-143.9" font-family="Arial" font-size="14.00" fill="#666666">[tinyint(4)]</text>
<polygon fill="none" stroke="#000000" points="485,-102.5 485,-132.5 747,-132.5 747,-102.5 485,-102.5"/>
<text text-anchor="start" x="492" y="-113.9" font-family="Arial" font-size="14.00" fill="#000000">name </text>
<text text-anchor="start" x="530.899" y="-113.9" font-family="Arial" font-size="14.00" fill="#666666">[varchar(32)]</text>
<polygon fill="none" stroke="#000000" points="485,-72.5 485,-102.5 747,-102.5 747,-72.5 485,-72.5"/>
<text text-anchor="start" x="492" y="-83.9" font-family="Arial" font-size="14.00" fill="#000000">active </text>
<text text-anchor="start" x="532.453" y="-83.9" font-family="Arial" font-size="14.00" fill="#666666">[tinyint(1)]</text>
</g>
<!-- v2_game_videos&#45;&gt;game_video_types -->
<g id="edge3" class="edge">
<title>v2_game_videos:video_type_id&#45;&gt;game_video_types:id</title>
<path fill="none" stroke="#000000" d="M590.0759,-395.9995C616.0347,-386.969 596.818,-339.1625 580,-307 556.1769,-261.441 508.8231,-286.559 485,-241 465.744,-204.1751 443.4444,-147.5 485,-147.5"/>
<polygon fill="#000000" stroke="#000000" points="589.8909,-396.027 579.3371,-393.0491 584.9455,-396.7635 580,-397.5 580,-397.5 580,-397.5 584.9455,-396.7635 580.6629,-401.9509 589.8909,-396.027 589.8909,-396.027"/>
<text text-anchor="start" x="586.7575" y="-407.5" font-family="Arial" font-size="10.00" fill="#000000">FOREIGN KEY (video_type_id) REFERENCES game_video_types (id)</text>
</g>
<!-- v2_game_versions -->
<g id="node2" class="node">
<title>v2_game_versions</title>
<polygon fill="#efefef" stroke="transparent" points="326,-872.5 326,-907.5 588,-907.5 588,-872.5 326,-872.5"/>
<polygon fill="none" stroke="#000000" points="326,-872.5 326,-907.5 588,-907.5 588,-872.5 326,-872.5"/>
<text text-anchor="start" x="332.8559" y="-885.3" font-family="Arial Bold" font-size="18.00" fill="#000000">v2_game_versions</text>
<text text-anchor="start" x="483.8903" y="-885.3" font-family="Arial" font-size="14.00" fill="#000000"> </text>
<text text-anchor="start" x="487.7809" y="-885.3" font-family="Arial" font-size="14.00" fill="#666666">[BASE TABLE]</text>
<polygon fill="none" stroke="#000000" points="326,-842.5 326,-872.5 588,-872.5 588,-842.5 326,-842.5"/>
<text text-anchor="start" x="333" y="-853.9" font-family="Arial" font-size="14.00" fill="#000000">id </text>
<text text-anchor="start" x="347.7798" y="-853.9" font-family="Arial" font-size="14.00" fill="#666666">[varchar(36)]</text>
<polygon fill="none" stroke="#000000" points="326,-812.5 326,-842.5 588,-842.5 588,-812.5 326,-812.5"/>
<text text-anchor="start" x="333" y="-823.9" font-family="Arial" font-size="14.00" fill="#000000">game_id </text>
<text text-anchor="start" x="390.5708" y="-823.9" font-family="Arial" font-size="14.00" fill="#666666">[varchar(36)]</text>
<polygon fill="none" stroke="#000000" points="326,-782.5 326,-812.5 588,-812.5 588,-782.5 326,-782.5"/>
<text text-anchor="start" x="333" y="-793.9" font-family="Arial" font-size="14.00" fill="#000000">game_image_id </text>
<text text-anchor="start" x="436.4684" y="-793.9" font-family="Arial" font-size="14.00" fill="#666666">[varchar(36)]</text>
<polygon fill="none" stroke="#000000" points="326,-752.5 326,-782.5 588,-782.5 588,-752.5 326,-752.5"/>
<text text-anchor="start" x="333" y="-763.9" font-family="Arial" font-size="14.00" fill="#000000">game_video_id </text>
<text text-anchor="start" x="431.8078" y="-763.9" font-family="Arial" font-size="14.00" fill="#666666">[varchar(36)]</text>
<polygon fill="none" stroke="#000000" points="326,-722.5 326,-752.5 588,-752.5 588,-722.5 326,-722.5"/>
<text text-anchor="start" x="333" y="-733.9" font-family="Arial" font-size="14.00" fill="#000000">name </text>
<text text-anchor="start" x="371.899" y="-733.9" font-family="Arial" font-size="14.00" fill="#666666">[varchar(32)]</text>
<polygon fill="none" stroke="#000000" points="326,-692.5 326,-722.5 588,-722.5 588,-692.5 326,-692.5"/>
<text text-anchor="start" x="333" y="-703.9" font-family="Arial" font-size="14.00" fill="#000000">description </text>
<text text-anchor="start" x="404.568" y="-703.9" font-family="Arial" font-size="14.00" fill="#666666">[text]</text>
<polygon fill="none" stroke="#000000" points="326,-662.5 326,-692.5 588,-692.5 588,-662.5 326,-662.5"/>
<text text-anchor="start" x="333" y="-673.9" font-family="Arial" font-size="14.00" fill="#000000">created_at </text>
<text text-anchor="start" x="403.028" y="-673.9" font-family="Arial" font-size="14.00" fill="#666666">[datetime]</text>
<polygon fill="none" stroke="#000000" points="326,-632.5 326,-662.5 588,-662.5 588,-632.5 326,-632.5"/>
<text text-anchor="start" x="333" y="-643.9" font-family="Arial" font-size="14.00" fill="#000000">url </text>
<text text-anchor="start" x="352.4404" y="-643.9" font-family="Arial" font-size="14.00" fill="#666666">[text]</text>
</g>
<!-- v2_game_versions&#45;&gt;v2_game_videos -->
<g id="edge1" class="edge">
<title>v2_game_versions:game_video_id&#45;&gt;v2_game_videos:id</title>
<path fill="none" stroke="#000000" d="M316.0032,-766.802C249.6015,-757.0224 276.6024,-646.8925 326,-590 400.7517,-503.9065 505.2483,-640.0935 580,-554 608.1187,-521.6149 622.8889,-457.5 580,-457.5"/>
<polygon fill="#000000" stroke="#000000" points="316.0243,-766.8034 325.6865,-771.9891 321.0121,-767.1517 326,-767.5 326,-767.5 326,-767.5 321.0121,-767.1517 326.3135,-763.0109 316.0243,-766.8034 316.0243,-766.8034"/>
<text text-anchor="start" x="6.872" y="-777.5" font-family="Arial" font-size="10.00" fill="#000000">FOREIGN KEY (game_video_id) REFERENCES v2_game_videos (id)</text>
</g>
</g>
</svg>
