<?xml version="1.0" encoding="UTF-8" standalone="no"?>
<!DOCTYPE svg PUBLIC "-//W3C//DTD SVG 1.1//EN"
 "http://www.w3.org/Graphics/SVG/1.1/DTD/svg11.dtd">
<!-- Generated by graphviz version 2.40.1 (20161225.0304)
 -->
<!-- Title: v2_game_images Pages: 1 -->
<svg width="932pt" height="1019pt"
 viewBox="0.00 0.00 932.00 1019.00" xmlns="http://www.w3.org/2000/svg" xmlns:xlink="http://www.w3.org/1999/xlink">
<g id="graph0" class="graph" transform="scale(1 1) rotate(0) translate(4 1015)">
<title>v2_game_images</title>
<polygon fill="#ffffff" stroke="transparent" points="-4,4 -4,-1015 928,-1015 928,4 -4,4"/>
<!-- v2_game_images -->
<g id="node1" class="node">
<title>v2_game_images</title>
<polygon fill="#efefef" stroke="transparent" points="336,-532.5 336,-567.5 589,-567.5 589,-532.5 336,-532.5"/>
<polygon fill="none" stroke="#000000" points="336,-532.5 336,-567.5 589,-567.5 589,-532.5 336,-532.5"/>
<text text-anchor="start" x="342.8559" y="-545.3" font-family="Arial Bold" font-size="18.00" fill="#000000">v2_game_images</text>
<text text-anchor="start" x="484.8903" y="-545.3" font-family="Arial" font-size="14.00" fill="#000000"> </text>
<text text-anchor="start" x="488.7809" y="-545.3" font-family="Arial" font-size="14.00" fill="#666666">[BASE TABLE]</text>
<polygon fill="none" stroke="#000000" points="336,-502.5 336,-532.5 589,-532.5 589,-502.5 336,-502.5"/>
<text text-anchor="start" x="343" y="-513.9" font-family="Arial" font-size="14.00" fill="#000000">id </text>
<text text-anchor="start" x="357.7798" y="-513.9" font-family="Arial" font-size="14.00" fill="#666666">[varchar(36)]</text>
<polygon fill="none" stroke="#000000" points="336,-472.5 336,-502.5 589,-502.5 589,-472.5 336,-472.5"/>
<text text-anchor="start" x="343" y="-483.9" font-family="Arial" font-size="14.00" fill="#000000">game_id </text>
<text text-anchor="start" x="400.5708" y="-483.9" font-family="Arial" font-size="14.00" fill="#666666">[varchar(36)]</text>
<polygon fill="none" stroke="#000000" points="336,-442.5 336,-472.5 589,-472.5 589,-442.5 336,-442.5"/>
<text text-anchor="start" x="343" y="-453.9" font-family="Arial" font-size="14.00" fill="#000000">image_type_id </text>
<text text-anchor="start" x="437.9158" y="-453.9" font-family="Arial" font-size="14.00" fill="#666666">[tinyint(4)]</text>
<polygon fill="none" stroke="#000000" points="336,-412.5 336,-442.5 589,-442.5 589,-412.5 336,-412.5"/>
<text text-anchor="start" x="343" y="-423.9" font-family="Arial" font-size="14.00" fill="#000000">created_at </text>
<text text-anchor="start" x="413.028" y="-423.9" font-family="Arial" font-size="14.00" fill="#666666">[datetime]</text>
<polygon fill="none" stroke="#000000" stroke-width="3" points="334,-411.5 334,-569.5 590,-569.5 590,-411.5 334,-411.5"/>
</g>
<!-- games -->
<g id="node3" class="node">
<title>games</title>
<polygon fill="#efefef" stroke="transparent" points="162,-252.5 162,-287.5 405,-287.5 405,-252.5 162,-252.5"/>
<polygon fill="none" stroke="#000000" points="162,-252.5 162,-287.5 405,-287.5 405,-252.5 162,-252.5"/>
<text text-anchor="start" x="207.8677" y="-265.3" font-family="Arial Bold" font-size="18.00" fill="#000000">games</text>
<text text-anchor="start" x="261.8785" y="-265.3" font-family="Arial" font-size="14.00" fill="#000000"> </text>
<text text-anchor="start" x="265.7691" y="-265.3" font-family="Arial" font-size="14.00" fill="#666666">[BASE TABLE]</text>
<polygon fill="none" stroke="#000000" points="162,-222.5 162,-252.5 405,-252.5 405,-222.5 162,-222.5"/>
<text text-anchor="start" x="169" y="-233.9" font-family="Arial" font-size="14.00" fill="#000000">id </text>
<text text-anchor="start" x="183.7798" y="-233.9" font-family="Arial" font-size="14.00" fill="#666666">[varchar(36)]</text>
<polygon fill="none" stroke="#000000" points="162,-192.5 162,-222.5 405,-222.5 405,-192.5 162,-192.5"/>
<text text-anchor="start" x="169" y="-203.9" font-family="Arial" font-size="14.00" fill="#000000">name </text>
<text text-anchor="start" x="207.899" y="-203.9" font-family="Arial" font-size="14.00" fill="#666666">[varchar(256)]</text>
<polygon fill="none" stroke="#000000" points="162,-162.5 162,-192.5 405,-192.5 405,-162.5 162,-162.5"/>
<text text-anchor="start" x="169" y="-173.9" font-family="Arial" font-size="14.00" fill="#000000">description </text>
<text text-anchor="start" x="240.568" y="-173.9" font-family="Arial" font-size="14.00" fill="#666666">[text]</text>
<polygon fill="none" stroke="#000000" points="162,-132.5 162,-162.5 405,-162.5 405,-132.5 162,-132.5"/>
<text text-anchor="start" x="169" y="-143.9" font-family="Arial" font-size="14.00" fill="#000000">created_at </text>
<text text-anchor="start" x="239.028" y="-143.9" font-family="Arial" font-size="14.00" fill="#666666">[datetime]</text>
<polygon fill="none" stroke="#000000" points="162,-102.5 162,-132.5 405,-132.5 405,-102.5 162,-102.5"/>
<text text-anchor="start" x="169" y="-113.9" font-family="Arial" font-size="14.00" fill="#000000">deleted_at </text>
<text text-anchor="start" x="238.2566" y="-113.9" font-family="Arial" font-size="14.00" fill="#666666">[datetime]</text>
<polygon fill="none" stroke="#000000" points="162,-72.5 162,-102.5 405,-102.5 405,-72.5 162,-72.5"/>
<text text-anchor="start" x="169" y="-83.9" font-family="Arial" font-size="14.00" fill="#000000">visibility_type_id </text>
<text text-anchor="start" x="274.007" y="-83.9" font-family="Arial" font-size="14.00" fill="#666666">[tinyint(4)]</text>
<polygon fill="none" stroke="#000000" points="162,-42.5 162,-72.5 405,-72.5 405,-42.5 162,-42.5"/>
<text text-anchor="start" x="168.7371" y="-53.9" font-family="Arial" font-size="14.00" fill="#000000">latest_version_updated_at </text>
<text text-anchor="start" x="336.8029" y="-53.9" font-family="Arial" font-size="14.00" fill="#666666">[datetime]</text>
</g>
<!-- v2_game_images&#45;&gt;games -->
<g id="edge2" class="edge">
<title>v2_game_images:game_id&#45;&gt;games:id</title>
<path fill="none" stroke="#000000" d="M325.8531,-486.4281C286.0814,-477.1379 310.1899,-409.5779 336,-367 353.9306,-337.4206 387.0694,-360.5794 405,-331 426.5415,-295.4637 446.5556,-237.5 405,-237.5"/>
<polygon fill="#000000" stroke="#000000" points="326.0553,-486.4493 335.5272,-491.9751 331.0277,-486.9747 336,-487.5 336,-487.5 336,-487.5 331.0277,-486.9747 336.4728,-483.0249 326.0553,-486.4493 326.0553,-486.4493"/>
<text text-anchor="start" x="92.386" y="-497.5" font-family="Arial" font-size="10.00" fill="#000000">FOREIGN KEY (game_id) REFERENCES games (id)</text>
</g>
<!-- game_image_types -->
<g id="node4" class="node">
<title>game_image_types</title>
<polygon fill="#efefef" stroke="transparent" points="509,-192.5 509,-227.5 777,-227.5 777,-192.5 509,-192.5"/>
<polygon fill="none" stroke="#000000" points="509,-192.5 509,-227.5 777,-227.5 777,-192.5 509,-192.5"/>
<text text-anchor="start" x="515.8517" y="-205.3" font-family="Arial Bold" font-size="18.00" fill="#000000">game_image_types</text>
<text text-anchor="start" x="672.8945" y="-205.3" font-family="Arial" font-size="14.00" fill="#000000"> </text>
<text text-anchor="start" x="676.7851" y="-205.3" font-family="Arial" font-size="14.00" fill="#666666">[BASE TABLE]</text>
<polygon fill="none" stroke="#000000" points="509,-162.5 509,-192.5 777,-192.5 777,-162.5 509,-162.5"/>
<text text-anchor="start" x="516" y="-173.9" font-family="Arial" font-size="14.00" fill="#000000">id </text>
<text text-anchor="start" x="530.7798" y="-173.9" font-family="Arial" font-size="14.00" fill="#666666">[tinyint(4)]</text>
<polygon fill="none" stroke="#000000" points="509,-132.5 509,-162.5 777,-162.5 777,-132.5 509,-132.5"/>
<text text-anchor="start" x="516" y="-143.9" font-family="Arial" font-size="14.00" fill="#000000">name </text>
<text text-anchor="start" x="554.899" y="-143.9" font-family="Arial" font-size="14.00" fill="#666666">[varchar(32)]</text>
<polygon fill="none" stroke="#000000" points="509,-102.5 509,-132.5 777,-132.5 777,-102.5 509,-102.5"/>
<text text-anchor="start" x="516" y="-113.9" font-family="Arial" font-size="14.00" fill="#000000">active </text>
<text text-anchor="start" x="556.453" y="-113.9" font-family="Arial" font-size="14.00" fill="#666666">[tinyint(1)]</text>
</g>
<!-- v2_game_images&#45;&gt;game_image_types -->
<g id="edge3" class="edge">
<title>v2_game_images:image_type_id&#45;&gt;game_image_types:id</title>
<path fill="none" stroke="#000000" d="M598.9482,-456.0557C624.1631,-447.3526 601.3555,-401.1265 589,-367 570.0929,-314.7777 527.9071,-323.2223 509,-271 494.8534,-231.9265 467.4444,-177.5 509,-177.5"/>
<polygon fill="#000000" stroke="#000000" points="598.8963,-456.0632 588.3534,-453.0467 593.9481,-456.7816 589,-457.5 589,-457.5 589,-457.5 593.9481,-456.7816 589.6466,-461.9533 598.8963,-456.0632 598.8963,-456.0632"/>
<text text-anchor="start" x="596.4285" y="-467.5" font-family="Arial" font-size="10.00" fill="#000000">FOREIGN KEY (image_type_id) REFERENCES game_image_types (id)</text>
</g>
<!-- v2_game_versions -->
<g id="node2" class="node">
<title>v2_game_versions</title>
<polygon fill="#efefef" stroke="transparent" points="332,-932.5 332,-967.5 594,-967.5 594,-932.5 332,-932.5"/>
<polygon fill="none" stroke="#000000" points="332,-932.5 332,-967.5 594,-967.5 594,-932.5 332,-932.5"/>
<text text-anchor="start" x="338.8559" y="-945.3" font-family="Arial Bold" font-size="18.00" fill="#000000">v2_game_versions</text>
<text text-anchor="start" x="489.8903" y="-945.3" font-family="Arial" font-size="14.00" fill="#000000"> </text>
<text text-anchor="start" x="493.7809" y="-945.3" font-family="Arial" font-size="14.00" fill="#666666">[BASE TABLE]</text>
<polygon fill="none" stroke="#000000" points="332,-902.5 332,-932.5 594,-932.5 594,-902.5 332,-902.5"/>
<text text-anchor="start" x="339" y="-913.9" font-family="Arial" font-size="14.00" fill="#000000">id </text>
<text text-anchor="start" x="353.7798" y="-913.9" font-family="Arial" font-size="14.00" fill="#666666">[varchar(36)]</text>
<polygon fill="none" stroke="#000000" points="332,-872.5 332,-902.5 594,-902.5 594,-872.5 332,-872.5"/>
<text text-anchor="start" x="339" y="-883.9" font-family="Arial" font-size="14.00" fill="#000000">game_id </text>
<text text-anchor="start" x="396.5708" y="-883.9" font-family="Arial" font-size="14.00" fill="#666666">[varchar(36)]</text>
<polygon fill="none" stroke="#000000" points="332,-842.5 332,-872.5 594,-872.5 594,-842.5 332,-842.5"/>
<text text-anchor="start" x="339" y="-853.9" font-family="Arial" font-size="14.00" fill="#000000">game_image_id </text>
<text text-anchor="start" x="442.4684" y="-853.9" font-family="Arial" font-size="14.00" fill="#666666">[varchar(36)]</text>
<polygon fill="none" stroke="#000000" points="332,-812.5 332,-842.5 594,-842.5 594,-812.5 332,-812.5"/>
<text text-anchor="start" x="339" y="-823.9" font-family="Arial" font-size="14.00" fill="#000000">game_video_id </text>
<text text-anchor="start" x="437.8078" y="-823.9" font-family="Arial" font-size="14.00" fill="#666666">[varchar(36)]</text>
<polygon fill="none" stroke="#000000" points="332,-782.5 332,-812.5 594,-812.5 594,-782.5 332,-782.5"/>
<text text-anchor="start" x="339" y="-793.9" font-family="Arial" font-size="14.00" fill="#000000">name </text>
<text text-anchor="start" x="377.899" y="-793.9" font-family="Arial" font-size="14.00" fill="#666666">[varchar(32)]</text>
<polygon fill="none" stroke="#000000" points="332,-752.5 332,-782.5 594,-782.5 594,-752.5 332,-752.5"/>
<text text-anchor="start" x="339" y="-763.9" font-family="Arial" font-size="14.00" fill="#000000">description </text>
<text text-anchor="start" x="410.568" y="-763.9" font-family="Arial" font-size="14.00" fill="#666666">[text]</text>
<polygon fill="none" stroke="#000000" points="332,-722.5 332,-752.5 594,-752.5 594,-722.5 332,-722.5"/>
<text text-anchor="start" x="339" y="-733.9" font-family="Arial" font-size="14.00" fill="#000000">created_at </text>
<text text-anchor="start" x="409.028" y="-733.9" font-family="Arial" font-size="14.00" fill="#666666">[datetime]</text>
<polygon fill="none" stroke="#000000" points="332,-692.5 332,-722.5 594,-722.5 594,-692.5 332,-692.5"/>
<text text-anchor="start" x="339" y="-703.9" font-family="Arial" font-size="14.00" fill="#000000">url </text>
<text text-anchor="start" x="358.4404" y="-703.9" font-family="Arial" font-size="14.00" fill="#666666">[text]</text>
</g>
<!-- v2_game_versions&#45;&gt;v2_game_images -->
<g id="edge1" class="edge">
<title>v2_game_versions:game_image_id&#45;&gt;v2_game_images:id</title>
<path fill="none" stroke="#000000" d="M321.7543,-856.881C242.2986,-846.8298 273.845,-716.869 332,-650 407.6879,-562.9709 513.3121,-701.0291 589,-614 617.145,-581.6377 631.8889,-517.5 589,-517.5"/>
<polygon fill="#000000" stroke="#000000" points="322.0182,-856.8968 331.7286,-861.9918 327.0091,-857.1984 332,-857.5 332,-857.5 332,-857.5 327.0091,-857.1984 332.2714,-853.0082 322.0182,-856.8968 322.0182,-856.8968"/>
<text text-anchor="start" x="6.543" y="-867.5" font-family="Arial" font-size="10.00" fill="#000000">FOREIGN KEY (game_image_id) REFERENCES v2_game_images (id)</text>
</g>
</g>
</svg>
