<?xml version="1.0" encoding="UTF-8" standalone="no"?>
<!DOCTYPE svg PUBLIC "-//W3C//DTD SVG 1.1//EN"
 "http://www.w3.org/Graphics/SVG/1.1/DTD/svg11.dtd">
<!-- Generated by graphviz version 2.40.1 (20161225.0304)
 -->
<!-- Title: v2_game_files Pages: 1 -->
<svg width="731pt" height="779pt"
 viewBox="0.00 0.00 731.00 779.00" xmlns="http://www.w3.org/2000/svg" xmlns:xlink="http://www.w3.org/1999/xlink">
<g id="graph0" class="graph" transform="scale(1 1) rotate(0) translate(4 775)">
<title>v2_game_files</title>
<polygon fill="#ffffff" stroke="transparent" points="-4,4 -4,-775 727,-775 727,4 -4,4"/>
<!-- v2_game_files -->
<g id="node1" class="node">
<title>v2_game_files</title>
<polygon fill="#efefef" stroke="transparent" points="190,-472.5 190,-507.5 417,-507.5 417,-472.5 190,-472.5"/>
<polygon fill="none" stroke="#000000" points="190,-472.5 190,-507.5 417,-507.5 417,-472.5 190,-472.5"/>
<text text-anchor="start" x="196.86" y="-485.3" font-family="Arial Bold" font-size="18.00" fill="#000000">v2_game_files</text>
<text text-anchor="start" x="312.8862" y="-485.3" font-family="Arial" font-size="14.00" fill="#000000"> </text>
<text text-anchor="start" x="316.7768" y="-485.3" font-family="Arial" font-size="14.00" fill="#666666">[BASE TABLE]</text>
<polygon fill="none" stroke="#000000" points="190,-442.5 190,-472.5 417,-472.5 417,-442.5 190,-442.5"/>
<text text-anchor="start" x="197" y="-453.9" font-family="Arial" font-size="14.00" fill="#000000">id </text>
<text text-anchor="start" x="211.7798" y="-453.9" font-family="Arial" font-size="14.00" fill="#666666">[varchar(36)]</text>
<polygon fill="none" stroke="#000000" points="190,-412.5 190,-442.5 417,-442.5 417,-412.5 190,-412.5"/>
<text text-anchor="start" x="197" y="-423.9" font-family="Arial" font-size="14.00" fill="#000000">game_id </text>
<text text-anchor="start" x="254.5708" y="-423.9" font-family="Arial" font-size="14.00" fill="#666666">[varchar(36)]</text>
<polygon fill="none" stroke="#000000" points="190,-382.5 190,-412.5 417,-412.5 417,-382.5 190,-382.5"/>
<text text-anchor="start" x="197" y="-393.9" font-family="Arial" font-size="14.00" fill="#000000">file_type_id </text>
<text text-anchor="start" x="271.6872" y="-393.9" font-family="Arial" font-size="14.00" fill="#666666">[tinyint(4)]</text>
<polygon fill="none" stroke="#000000" points="190,-352.5 190,-382.5 417,-382.5 417,-352.5 190,-352.5"/>
<text text-anchor="start" x="197" y="-363.9" font-family="Arial" font-size="14.00" fill="#000000">hash </text>
<text text-anchor="start" x="231.2384" y="-363.9" font-family="Arial" font-size="14.00" fill="#666666">[char(32)]</text>
<polygon fill="none" stroke="#000000" points="190,-322.5 190,-352.5 417,-352.5 417,-322.5 190,-322.5"/>
<text text-anchor="start" x="197" y="-333.9" font-family="Arial" font-size="14.00" fill="#000000">entry_point </text>
<text text-anchor="start" x="270.1346" y="-333.9" font-family="Arial" font-size="14.00" fill="#666666">[text]</text>
<polygon fill="none" stroke="#000000" points="190,-292.5 190,-322.5 417,-322.5 417,-292.5 190,-292.5"/>
<text text-anchor="start" x="197" y="-303.9" font-family="Arial" font-size="14.00" fill="#000000">created_at </text>
<text text-anchor="start" x="267.028" y="-303.9" font-family="Arial" font-size="14.00" fill="#666666">[datetime]</text>
<polygon fill="none" stroke="#000000" stroke-width="3" points="188,-291.5 188,-509.5 418,-509.5 418,-291.5 188,-291.5"/>
</g>
<!-- game_file_types -->
<g id="node3" class="node">
<title>game_file_types</title>
<polygon fill="#efefef" stroke="transparent" points="183,-132.5 183,-167.5 425,-167.5 425,-132.5 183,-132.5"/>
<polygon fill="none" stroke="#000000" points="183,-132.5 183,-167.5 425,-167.5 425,-132.5 183,-132.5"/>
<text text-anchor="start" x="189.8558" y="-145.3" font-family="Arial Bold" font-size="18.00" fill="#000000">game_file_types</text>
<text text-anchor="start" x="320.8904" y="-145.3" font-family="Arial" font-size="14.00" fill="#000000"> </text>
<text text-anchor="start" x="324.781" y="-145.3" font-family="Arial" font-size="14.00" fill="#666666">[BASE TABLE]</text>
<polygon fill="none" stroke="#000000" points="183,-102.5 183,-132.5 425,-132.5 425,-102.5 183,-102.5"/>
<text text-anchor="start" x="190" y="-113.9" font-family="Arial" font-size="14.00" fill="#000000">id </text>
<text text-anchor="start" x="204.7798" y="-113.9" font-family="Arial" font-size="14.00" fill="#666666">[tinyint(4)]</text>
<polygon fill="none" stroke="#000000" points="183,-72.5 183,-102.5 425,-102.5 425,-72.5 183,-72.5"/>
<text text-anchor="start" x="190" y="-83.9" font-family="Arial" font-size="14.00" fill="#000000">name </text>
<text text-anchor="start" x="228.899" y="-83.9" font-family="Arial" font-size="14.00" fill="#666666">[varchar(32)]</text>
<polygon fill="none" stroke="#000000" points="183,-42.5 183,-72.5 425,-72.5 425,-42.5 183,-42.5"/>
<text text-anchor="start" x="190" y="-53.9" font-family="Arial" font-size="14.00" fill="#000000">active </text>
<text text-anchor="start" x="230.453" y="-53.9" font-family="Arial" font-size="14.00" fill="#666666">[tinyint(1)]</text>
</g>
<!-- v2_game_files&#45;&gt;game_file_types -->
<g id="edge2" class="edge">
<title>v2_game_files:file_type_id&#45;&gt;game_file_types:id</title>
<path fill="none" stroke="#000000" d="M427.1759,-396.6295C481.2761,-386.7381 458.1716,-294.9901 417,-247 348.4857,-167.1389 251.5143,-290.8611 183,-211 155.9419,-179.4608 141.4444,-117.5 183,-117.5"/>
<polygon fill="#000000" stroke="#000000" points="426.9636,-396.6476 416.6164,-393.0164 421.9818,-397.0738 417,-397.5 417,-397.5 417,-397.5 421.9818,-397.0738 417.3836,-401.9836 426.9636,-396.6476 426.9636,-396.6476"/>
<text text-anchor="start" x="423.8775" y="-407.5" font-family="Arial" font-size="10.00" fill="#000000">FOREIGN KEY (file_type_id) REFERENCES game_file_types (id)</text>
</g>
<!-- game_version_game_file_relations -->
<g id="node2" class="node">
<title>game_version_game_file_relations</title>
<polygon fill="#efefef" stroke="transparent" points="109,-692.5 109,-727.5 499,-727.5 499,-692.5 109,-692.5"/>
<polygon fill="none" stroke="#000000" points="109,-692.5 109,-727.5 499,-727.5 499,-692.5 109,-692.5"/>
<text text-anchor="start" x="115.8452" y="-705.3" font-family="Arial Bold" font-size="18.00" fill="#000000">game_version_game_file_relations</text>
<text text-anchor="start" x="394.901" y="-705.3" font-family="Arial" font-size="14.00" fill="#000000"> </text>
<text text-anchor="start" x="398.7916" y="-705.3" font-family="Arial" font-size="14.00" fill="#666666">[BASE TABLE]</text>
<polygon fill="none" stroke="#000000" points="109,-662.5 109,-692.5 499,-692.5 499,-662.5 109,-662.5"/>
<text text-anchor="start" x="116" y="-673.9" font-family="Arial" font-size="14.00" fill="#000000">game_version_id </text>
<text text-anchor="start" x="226.4684" y="-673.9" font-family="Arial" font-size="14.00" fill="#666666">[varchar(36)]</text>
<polygon fill="none" stroke="#000000" points="109,-632.5 109,-662.5 499,-662.5 499,-632.5 109,-632.5"/>
<text text-anchor="start" x="116" y="-643.9" font-family="Arial" font-size="14.00" fill="#000000">game_file_id </text>
<text text-anchor="start" x="199.2398" y="-643.9" font-family="Arial" font-size="14.00" fill="#666666">[varchar(36)]</text>
</g>
<!-- game_version_game_file_relations&#45;&gt;v2_game_files -->
<g id="edge1" class="edge">
<title>game_version_game_file_relations:game_file_id&#45;&gt;v2_game_files:id</title>
<path fill="none" stroke="#000000" d="M304.8998,-622.4281C314.0456,-575.476 390.3785,-604.9085 417,-554 436.8745,-515.9939 459.8889,-457.5 417,-457.5"/>
<polygon fill="#000000" stroke="#000000" points="304.8899,-622.5397 299.5179,-632.0995 304.445,-627.5198 304,-632.5 304,-632.5 304,-632.5 304.445,-627.5198 308.4821,-632.9005 304.8899,-622.5397 304.8899,-622.5397"/>
<text text-anchor="start" x="6.992" y="-642.5" font-family="Arial" font-size="10.00" fill="#000000">FOREIGN KEY (game_file_id) REFERENCES v2_game_files (id)</text>
</g>
</g>
</svg>
