<?xml version="1.0" encoding="UTF-8" standalone="no"?>
<!DOCTYPE svg PUBLIC "-//W3C//DTD SVG 1.1//EN"
 "http://www.w3.org/Graphics/SVG/1.1/DTD/svg11.dtd">
<!-- Generated by graphviz version 2.40.1 (20161225.0304)
 -->
<!-- Title: v2_game_versions Pages: 1 -->
<svg width="1253pt" height="869pt"
 viewBox="0.00 0.00 1252.82 869.00" xmlns="http://www.w3.org/2000/svg" xmlns:xlink="http://www.w3.org/1999/xlink">
<g id="graph0" class="graph" transform="scale(1 1) rotate(0) translate(4 865)">
<title>v2_game_versions</title>
<polygon fill="#ffffff" stroke="transparent" points="-4,4 -4,-865 1248.8242,-865 1248.8242,4 -4,4"/>
<!-- v2_game_versions -->
<g id="node1" class="node">
<title>v2_game_versions</title>
<polygon fill="#efefef" stroke="transparent" points="576.5,-562.5 576.5,-597.5 838.5,-597.5 838.5,-562.5 576.5,-562.5"/>
<polygon fill="none" stroke="#000000" points="576.5,-562.5 576.5,-597.5 838.5,-597.5 838.5,-562.5 576.5,-562.5"/>
<text text-anchor="start" x="583.3559" y="-575.3" font-family="Arial Bold" font-size="18.00" fill="#000000">v2_game_versions</text>
<text text-anchor="start" x="734.3903" y="-575.3" font-family="Arial" font-size="14.00" fill="#000000"> </text>
<text text-anchor="start" x="738.2809" y="-575.3" font-family="Arial" font-size="14.00" fill="#666666">[BASE TABLE]</text>
<polygon fill="none" stroke="#000000" points="576.5,-532.5 576.5,-562.5 838.5,-562.5 838.5,-532.5 576.5,-532.5"/>
<text text-anchor="start" x="583.5" y="-543.9" font-family="Arial" font-size="14.00" fill="#000000">id </text>
<text text-anchor="start" x="598.2798" y="-543.9" font-family="Arial" font-size="14.00" fill="#666666">[varchar(36)]</text>
<polygon fill="none" stroke="#000000" points="576.5,-502.5 576.5,-532.5 838.5,-532.5 838.5,-502.5 576.5,-502.5"/>
<text text-anchor="start" x="583.5" y="-513.9" font-family="Arial" font-size="14.00" fill="#000000">game_id </text>
<text text-anchor="start" x="641.0708" y="-513.9" font-family="Arial" font-size="14.00" fill="#666666">[varchar(36)]</text>
<polygon fill="none" stroke="#000000" points="576.5,-472.5 576.5,-502.5 838.5,-502.5 838.5,-472.5 576.5,-472.5"/>
<text text-anchor="start" x="583.5" y="-483.9" font-family="Arial" font-size="14.00" fill="#000000">game_image_id </text>
<text text-anchor="start" x="686.9684" y="-483.9" font-family="Arial" font-size="14.00" fill="#666666">[varchar(36)]</text>
<polygon fill="none" stroke="#000000" points="576.5,-442.5 576.5,-472.5 838.5,-472.5 838.5,-442.5 576.5,-442.5"/>
<text text-anchor="start" x="583.5" y="-453.9" font-family="Arial" font-size="14.00" fill="#000000">game_video_id </text>
<text text-anchor="start" x="682.3078" y="-453.9" font-family="Arial" font-size="14.00" fill="#666666">[varchar(36)]</text>
<polygon fill="none" stroke="#000000" points="576.5,-412.5 576.5,-442.5 838.5,-442.5 838.5,-412.5 576.5,-412.5"/>
<text text-anchor="start" x="583.5" y="-423.9" font-family="Arial" font-size="14.00" fill="#000000">name </text>
<text text-anchor="start" x="622.399" y="-423.9" font-family="Arial" font-size="14.00" fill="#666666">[varchar(32)]</text>
<polygon fill="none" stroke="#000000" points="576.5,-382.5 576.5,-412.5 838.5,-412.5 838.5,-382.5 576.5,-382.5"/>
<text text-anchor="start" x="583.5" y="-393.9" font-family="Arial" font-size="14.00" fill="#000000">description </text>
<text text-anchor="start" x="655.068" y="-393.9" font-family="Arial" font-size="14.00" fill="#666666">[text]</text>
<polygon fill="none" stroke="#000000" points="576.5,-352.5 576.5,-382.5 838.5,-382.5 838.5,-352.5 576.5,-352.5"/>
<text text-anchor="start" x="583.5" y="-363.9" font-family="Arial" font-size="14.00" fill="#000000">created_at </text>
<text text-anchor="start" x="653.528" y="-363.9" font-family="Arial" font-size="14.00" fill="#666666">[datetime]</text>
<polygon fill="none" stroke="#000000" points="576.5,-322.5 576.5,-352.5 838.5,-352.5 838.5,-322.5 576.5,-322.5"/>
<text text-anchor="start" x="583.5" y="-333.9" font-family="Arial" font-size="14.00" fill="#000000">url </text>
<text text-anchor="start" x="602.9404" y="-333.9" font-family="Arial" font-size="14.00" fill="#666666">[text]</text>
<polygon fill="none" stroke="#000000" stroke-width="3" points="575,-321.5 575,-599.5 840,-599.5 840,-321.5 575,-321.5"/>
</g>
<!-- v2_game_images -->
<g id="node4" class="node">
<title>v2_game_images</title>
<polygon fill="#efefef" stroke="transparent" points="403.5,-162.5 403.5,-197.5 656.5,-197.5 656.5,-162.5 403.5,-162.5"/>
<polygon fill="none" stroke="#000000" points="403.5,-162.5 403.5,-197.5 656.5,-197.5 656.5,-162.5 403.5,-162.5"/>
<text text-anchor="start" x="410.3559" y="-175.3" font-family="Arial Bold" font-size="18.00" fill="#000000">v2_game_images</text>
<text text-anchor="start" x="552.3903" y="-175.3" font-family="Arial" font-size="14.00" fill="#000000"> </text>
<text text-anchor="start" x="556.2809" y="-175.3" font-family="Arial" font-size="14.00" fill="#666666">[BASE TABLE]</text>
<polygon fill="none" stroke="#000000" points="403.5,-132.5 403.5,-162.5 656.5,-162.5 656.5,-132.5 403.5,-132.5"/>
<text text-anchor="start" x="410.5" y="-143.9" font-family="Arial" font-size="14.00" fill="#000000">id </text>
<text text-anchor="start" x="425.2798" y="-143.9" font-family="Arial" font-size="14.00" fill="#666666">[varchar(36)]</text>
<polygon fill="none" stroke="#000000" points="403.5,-102.5 403.5,-132.5 656.5,-132.5 656.5,-102.5 403.5,-102.5"/>
<text text-anchor="start" x="410.5" y="-113.9" font-family="Arial" font-size="14.00" fill="#000000">game_id </text>
<text text-anchor="start" x="468.0708" y="-113.9" font-family="Arial" font-size="14.00" fill="#666666">[varchar(36)]</text>
<polygon fill="none" stroke="#000000" points="403.5,-72.5 403.5,-102.5 656.5,-102.5 656.5,-72.5 403.5,-72.5"/>
<text text-anchor="start" x="410.5" y="-83.9" font-family="Arial" font-size="14.00" fill="#000000">image_type_id </text>
<text text-anchor="start" x="505.4158" y="-83.9" font-family="Arial" font-size="14.00" fill="#666666">[tinyint(4)]</text>
<polygon fill="none" stroke="#000000" points="403.5,-42.5 403.5,-72.5 656.5,-72.5 656.5,-42.5 403.5,-42.5"/>
<text text-anchor="start" x="410.5" y="-53.9" font-family="Arial" font-size="14.00" fill="#000000">created_at </text>
<text text-anchor="start" x="480.528" y="-53.9" font-family="Arial" font-size="14.00" fill="#666666">[datetime]</text>
</g>
<!-- v2_game_versions&#45;&gt;v2_game_images -->
<g id="edge4" class="edge">
<title>v2_game_versions:game_image_id&#45;&gt;v2_game_images:id</title>
<path fill="none" stroke="#000000" d="M566.1528,-486.9071C486.2971,-477.2739 527.6863,-352.4945 576.5,-277 597.6703,-244.2583 635.3297,-273.7417 656.5,-241 679.0635,-206.1037 698.0556,-147.5 656.5,-147.5"/>
<polygon fill="#000000" stroke="#000000" points="566.5164,-486.9278 576.2425,-491.9926 571.5082,-487.2139 576.5,-487.5 576.5,-487.5 576.5,-487.5 571.5082,-487.2139 576.7575,-483.0074 566.5164,-486.9278 566.5164,-486.9278"/>
<text text-anchor="start" x="251.043" y="-497.5" font-family="Arial" font-size="10.00" fill="#000000">FOREIGN KEY (game_image_id) REFERENCES v2_game_images (id)</text>
</g>
<!-- v2_game_videos -->
<g id="node5" class="node">
<title>v2_game_videos</title>
<polygon fill="#efefef" stroke="transparent" points="760.5,-162.5 760.5,-197.5 1007.5,-197.5 1007.5,-162.5 760.5,-162.5"/>
<polygon fill="none" stroke="#000000" points="760.5,-162.5 760.5,-197.5 1007.5,-197.5 1007.5,-162.5 760.5,-162.5"/>
<text text-anchor="start" x="767.352" y="-175.3" font-family="Arial Bold" font-size="18.00" fill="#000000">v2_game_videos</text>
<text text-anchor="start" x="903.3942" y="-175.3" font-family="Arial" font-size="14.00" fill="#000000"> </text>
<text text-anchor="start" x="907.2848" y="-175.3" font-family="Arial" font-size="14.00" fill="#666666">[BASE TABLE]</text>
<polygon fill="none" stroke="#000000" points="760.5,-132.5 760.5,-162.5 1007.5,-162.5 1007.5,-132.5 760.5,-132.5"/>
<text text-anchor="start" x="767.5" y="-143.9" font-family="Arial" font-size="14.00" fill="#000000">id </text>
<text text-anchor="start" x="782.2798" y="-143.9" font-family="Arial" font-size="14.00" fill="#666666">[varchar(36)]</text>
<polygon fill="none" stroke="#000000" points="760.5,-102.5 760.5,-132.5 1007.5,-132.5 1007.5,-102.5 760.5,-102.5"/>
<text text-anchor="start" x="767.5" y="-113.9" font-family="Arial" font-size="14.00" fill="#000000">game_id </text>
<text text-anchor="start" x="825.0708" y="-113.9" font-family="Arial" font-size="14.00" fill="#666666">[varchar(36)]</text>
<polygon fill="none" stroke="#000000" points="760.5,-72.5 760.5,-102.5 1007.5,-102.5 1007.5,-72.5 760.5,-72.5"/>
<text text-anchor="start" x="767.5" y="-83.9" font-family="Arial" font-size="14.00" fill="#000000">video_type_id </text>
<text text-anchor="start" x="857.7552" y="-83.9" font-family="Arial" font-size="14.00" fill="#666666">[tinyint(4)]</text>
<polygon fill="none" stroke="#000000" points="760.5,-42.5 760.5,-72.5 1007.5,-72.5 1007.5,-42.5 760.5,-42.5"/>
<text text-anchor="start" x="767.5" y="-53.9" font-family="Arial" font-size="14.00" fill="#000000">created_at </text>
<text text-anchor="start" x="837.528" y="-53.9" font-family="Arial" font-size="14.00" fill="#666666">[datetime]</text>
</g>
<!-- v2_game_versions&#45;&gt;v2_game_videos -->
<g id="edge5" class="edge">
<title>v2_game_versions:game_video_id&#45;&gt;v2_game_videos:id</title>
<path fill="none" stroke="#000000" d="M848.6117,-456.8307C915.3866,-447.4458 879.7938,-341.5385 838.5,-277 817.9223,-244.8389 781.0777,-273.1611 760.5,-241 738.1035,-205.9963 718.9444,-147.5 760.5,-147.5"/>
<polygon fill="#000000" stroke="#000000" points="848.4782,-456.8394 838.2028,-453.0098 843.4891,-457.1697 838.5,-457.5 838.5,-457.5 838.5,-457.5 843.4891,-457.1697 838.7972,-461.9902 848.4782,-456.8394 848.4782,-456.8394"/>
<text text-anchor="start" x="845.372" y="-467.5" font-family="Arial" font-size="10.00" fill="#000000">FOREIGN KEY (game_video_id) REFERENCES v2_game_videos (id)</text>
</g>
<!-- edition_game_version_relations -->
<g id="node2" class="node">
<title>edition_game_version_relations</title>
<polygon fill="#efefef" stroke="transparent" points="43.5,-782.5 43.5,-817.5 408.5,-817.5 408.5,-782.5 43.5,-782.5"/>
<polygon fill="none" stroke="#000000" points="43.5,-782.5 43.5,-817.5 408.5,-817.5 408.5,-782.5 43.5,-782.5"/>
<text text-anchor="start" x="50.3444" y="-795.3" font-family="Arial Bold" font-size="18.00" fill="#000000">edition_game_version_relations</text>
<text text-anchor="start" x="304.4018" y="-795.3" font-family="Arial" font-size="14.00" fill="#000000"> </text>
<text text-anchor="start" x="308.2924" y="-795.3" font-family="Arial" font-size="14.00" fill="#666666">[BASE TABLE]</text>
<polygon fill="none" stroke="#000000" points="43.5,-752.5 43.5,-782.5 408.5,-782.5 408.5,-752.5 43.5,-752.5"/>
<text text-anchor="start" x="50.5" y="-763.9" font-family="Arial" font-size="14.00" fill="#000000">edition_id </text>
<text text-anchor="start" x="114.2966" y="-763.9" font-family="Arial" font-size="14.00" fill="#666666">[varchar(36)]</text>
<polygon fill="none" stroke="#000000" points="43.5,-722.5 43.5,-752.5 408.5,-752.5 408.5,-722.5 43.5,-722.5"/>
<text text-anchor="start" x="50.5" y="-733.9" font-family="Arial" font-size="14.00" fill="#000000">game_version_id </text>
<text text-anchor="start" x="160.9684" y="-733.9" font-family="Arial" font-size="14.00" fill="#666666">[varchar(36)]</text>
</g>
<!-- edition_game_version_relations&#45;&gt;v2_game_versions -->
<g id="edge1" class="edge">
<title>edition_game_version_relations:game_version_id&#45;&gt;v2_game_versions:id</title>
<path fill="none" stroke="#000000" d="M415.7177,-730.2838C447.5843,-695.578 573.3903,-547.5 576.5,-547.5"/>
<polygon fill="#000000" stroke="#000000" points="415.5718,-730.4296 405.3183,-734.3177 412.0359,-733.9648 408.5,-737.5 408.5,-737.5 408.5,-737.5 412.0359,-733.9648 411.6817,-740.6823 415.5718,-730.4296 415.5718,-730.4296"/>
<text text-anchor="start" x="415.043" y="-747.5" font-family="Arial" font-size="10.00" fill="#000000">FOREIGN KEY (game_version_id) REFERENCES v2_game_versions (id)</text>
</g>
<!-- game_version_game_file_relations -->
<g id="node3" class="node">
<title>game_version_game_file_relations</title>
<polygon fill="#efefef" stroke="transparent" points="512.5,-782.5 512.5,-817.5 902.5,-817.5 902.5,-782.5 512.5,-782.5"/>
<polygon fill="none" stroke="#000000" points="512.5,-782.5 512.5,-817.5 902.5,-817.5 902.5,-782.5 512.5,-782.5"/>
<text text-anchor="start" x="519.3452" y="-795.3" font-family="Arial Bold" font-size="18.00" fill="#000000">game_version_game_file_relations</text>
<text text-anchor="start" x="798.401" y="-795.3" font-family="Arial" font-size="14.00" fill="#000000"> </text>
<text text-anchor="start" x="802.2916" y="-795.3" font-family="Arial" font-size="14.00" fill="#666666">[BASE TABLE]</text>
<polygon fill="none" stroke="#000000" points="512.5,-752.5 512.5,-782.5 902.5,-782.5 902.5,-752.5 512.5,-752.5"/>
<text text-anchor="start" x="519.5" y="-763.9" font-family="Arial" font-size="14.00" fill="#000000">game_version_id </text>
<text text-anchor="start" x="629.9684" y="-763.9" font-family="Arial" font-size="14.00" fill="#666666">[varchar(36)]</text>
<polygon fill="none" stroke="#000000" points="512.5,-722.5 512.5,-752.5 902.5,-752.5 902.5,-722.5 512.5,-722.5"/>
<text text-anchor="start" x="519.5" y="-733.9" font-family="Arial" font-size="14.00" fill="#000000">game_file_id </text>
<text text-anchor="start" x="602.7398" y="-733.9" font-family="Arial" font-size="14.00" fill="#666666">[varchar(36)]</text>
</g>
<!-- game_version_game_file_relations&#45;&gt;v2_game_versions -->
<g id="edge2" class="edge">
<title>game_version_game_file_relations:game_version_id&#45;&gt;v2_game_versions:id</title>
<path fill="none" stroke="#000000" d="M912.6684,-766.5191C990.2871,-750.6482 927.7049,-547.5 838.5,-547.5"/>
<polygon fill="#000000" stroke="#000000" points="912.4538,-766.5398 902.0679,-763.0208 907.4769,-767.0199 902.5,-767.5 902.5,-767.5 902.5,-767.5 907.4769,-767.0199 902.9321,-771.9792 912.4538,-766.5398 912.4538,-766.5398"/>
<text text-anchor="start" x="909.043" y="-777.5" font-family="Arial" font-size="10.00" fill="#000000">FOREIGN KEY (game_version_id) REFERENCES v2_game_versions (id)</text>
</g>
<!-- game_version_game_file_relations&#45;&gt;v2_game_versions -->
<g id="edge3" class="edge">
<title>game_version_game_file_relations:game_version_id&#45;&gt;v2_game_versions:id</title>
<path fill="none" stroke="#000000" d="M912.9475,-766.7912C1008.9408,-753.1737 945.7859,-547.9148 838.8242,-547.5006"/>
<polygon fill="#000000" stroke="#000000" points="912.7998,-766.8014 902.5101,-763.0103 907.812,-767.1504 902.8242,-767.4994 902.8242,-767.4994 902.8242,-767.4994 907.812,-767.1504 903.1383,-771.9884 912.7998,-766.8014 912.7998,-766.8014"/>
<text text-anchor="start" x="909.3672" y="-751.4994" font-family="Arial" font-size="10.00" fill="#000000">FOREIGN KEY (game_version_id) REFERENCES v2_game_versions (id)</text>
</g>
</g>
</svg>
