<?xml version="1.0" encoding="UTF-8" standalone="no"?>
<!DOCTYPE svg PUBLIC "-//W3C//DTD SVG 1.1//EN"
 "http://www.w3.org/Graphics/SVG/1.1/DTD/svg11.dtd">
<!-- Generated by graphviz version 2.40.1 (20161225.0304)
 -->
<!-- Title: v2_game_videos Pages: 1 -->
<svg width="916pt" height="989pt"
 viewBox="0.00 0.00 916.00 989.00" xmlns="http://www.w3.org/2000/svg" xmlns:xlink="http://www.w3.org/1999/xlink">
<g id="graph0" class="graph" transform="scale(1 1) rotate(0) translate(4 985)">
<title>v2_game_videos</title>
<polygon fill="#ffffff" stroke="transparent" points="-4,4 -4,-985 912,-985 912,4 -4,4"/>
<!-- v2_game_videos -->
<g id="node1" class="node">
<title>v2_game_videos</title>
<polygon fill="#efefef" stroke="transparent" points="333,-502.5 333,-537.5 580,-537.5 580,-502.5 333,-502.5"/>
<polygon fill="none" stroke="#000000" points="333,-502.5 333,-537.5 580,-537.5 580,-502.5 333,-502.5"/>
<text text-anchor="start" x="339.852" y="-515.3" font-family="Arial Bold" font-size="18.00" fill="#000000">v2_game_videos</text>
<text text-anchor="start" x="475.8942" y="-515.3" font-family="Arial" font-size="14.00" fill="#000000"> </text>
<text text-anchor="start" x="479.7848" y="-515.3" font-family="Arial" font-size="14.00" fill="#666666">[BASE TABLE]</text>
<polygon fill="none" stroke="#000000" points="333,-472.5 333,-502.5 580,-502.5 580,-472.5 333,-472.5"/>
<text text-anchor="start" x="340" y="-483.9" font-family="Arial" font-size="14.00" fill="#000000">id </text>
<text text-anchor="start" x="354.7798" y="-483.9" font-family="Arial" font-size="14.00" fill="#666666">[varchar(36)]</text>
<polygon fill="none" stroke="#000000" points="333,-442.5 333,-472.5 580,-472.5 580,-442.5 333,-442.5"/>
<text text-anchor="start" x="340" y="-453.9" font-family="Arial" font-size="14.00" fill="#000000">game_id </text>
<text text-anchor="start" x="397.5708" y="-453.9" font-family="Arial" font-size="14.00" fill="#666666">[varchar(36)]</text>
<polygon fill="none" stroke="#000000" points="333,-412.5 333,-442.5 580,-442.5 580,-412.5 333,-412.5"/>
<text text-anchor="start" x="340" y="-423.9" font-family="Arial" font-size="14.00" fill="#000000">video_type_id </text>
<text text-anchor="start" x="430.2552" y="-423.9" font-family="Arial" font-size="14.00" fill="#666666">[tinyint(4)]</text>
<polygon fill="none" stroke="#000000" points="333,-382.5 333,-412.5 580,-412.5 580,-382.5 333,-382.5"/>
<text text-anchor="start" x="340" y="-393.9" font-family="Arial" font-size="14.00" fill="#000000">created_at </text>
<text text-anchor="start" x="410.028" y="-393.9" font-family="Arial" font-size="14.00" fill="#666666">[datetime]</text>
<polygon fill="none" stroke="#000000" stroke-width="3" points="331,-381.5 331,-539.5 581,-539.5 581,-381.5 331,-381.5"/>
</g>
<!-- games -->
<g id="node3" class="node">
<title>games</title>
<polygon fill="#efefef" stroke="transparent" points="205,-222.5 205,-257.5 385,-257.5 385,-222.5 205,-222.5"/>
<polygon fill="none" stroke="#000000" points="205,-222.5 205,-257.5 385,-257.5 385,-222.5 205,-222.5"/>
<text text-anchor="start" x="219.3677" y="-235.3" font-family="Arial Bold" font-size="18.00" fill="#000000">games</text>
<text text-anchor="start" x="273.3785" y="-235.3" font-family="Arial" font-size="14.00" fill="#000000"> </text>
<text text-anchor="start" x="277.2691" y="-235.3" font-family="Arial" font-size="14.00" fill="#666666">[BASE TABLE]</text>
<polygon fill="none" stroke="#000000" points="205,-192.5 205,-222.5 385,-222.5 385,-192.5 205,-192.5"/>
<text text-anchor="start" x="212" y="-203.9" font-family="Arial" font-size="14.00" fill="#000000">id </text>
<text text-anchor="start" x="226.7798" y="-203.9" font-family="Arial" font-size="14.00" fill="#666666">[varchar(36)]</text>
<polygon fill="none" stroke="#000000" points="205,-162.5 205,-192.5 385,-192.5 385,-162.5 205,-162.5"/>
<text text-anchor="start" x="212" y="-173.9" font-family="Arial" font-size="14.00" fill="#000000">name </text>
<text text-anchor="start" x="250.899" y="-173.9" font-family="Arial" font-size="14.00" fill="#666666">[varchar(256)]</text>
<polygon fill="none" stroke="#000000" points="205,-132.5 205,-162.5 385,-162.5 385,-132.5 205,-132.5"/>
<text text-anchor="start" x="212" y="-143.9" font-family="Arial" font-size="14.00" fill="#000000">description </text>
<text text-anchor="start" x="283.568" y="-143.9" font-family="Arial" font-size="14.00" fill="#666666">[text]</text>
<polygon fill="none" stroke="#000000" points="205,-102.5 205,-132.5 385,-132.5 385,-102.5 205,-102.5"/>
<text text-anchor="start" x="212" y="-113.9" font-family="Arial" font-size="14.00" fill="#000000">created_at </text>
<text text-anchor="start" x="282.028" y="-113.9" font-family="Arial" font-size="14.00" fill="#666666">[datetime]</text>
<polygon fill="none" stroke="#000000" points="205,-72.5 205,-102.5 385,-102.5 385,-72.5 205,-72.5"/>
<text text-anchor="start" x="212" y="-83.9" font-family="Arial" font-size="14.00" fill="#000000">deleted_at </text>
<text text-anchor="start" x="281.2566" y="-83.9" font-family="Arial" font-size="14.00" fill="#666666">[datetime]</text>
<polygon fill="none" stroke="#000000" points="205,-42.5 205,-72.5 385,-72.5 385,-42.5 205,-42.5"/>
<text text-anchor="start" x="211.7742" y="-53.9" font-family="Arial" font-size="14.00" fill="#000000">visibility_type_id </text>
<text text-anchor="start" x="316.7812" y="-53.9" font-family="Arial" font-size="14.00" fill="#666666">[tinyint(4)]</text>
</g>
<!-- v2_game_videos&#45;&gt;games -->
<g id="edge2" class="edge">
<title>v2_game_videos:game_id&#45;&gt;games:id</title>
<path fill="none" stroke="#000000" d="M322.8932,-456.4507C283.4614,-447.3524 309.8922,-381.1029 333,-337 346.0456,-312.1015 371.9544,-325.8985 385,-301 404.2862,-264.1909 426.5556,-207.5 385,-207.5"/>
<polygon fill="#000000" stroke="#000000" points="323.0535,-456.4672 332.5353,-461.9759 328.0267,-456.9836 333,-457.5 333,-457.5 333,-457.5 328.0267,-456.9836 333.4647,-453.0241 323.0535,-456.4672 323.0535,-456.4672"/>
<text text-anchor="start" x="89.386" y="-467.5" font-family="Arial" font-size="10.00" fill="#000000">FOREIGN KEY (game_id) REFERENCES games (id)</text>
</g>
<!-- game_video_types -->
<g id="node4" class="node">
<title>game_video_types</title>
<polygon fill="#efefef" stroke="transparent" points="489,-177.5 489,-212.5 751,-212.5 751,-177.5 489,-177.5"/>
<polygon fill="none" stroke="#000000" points="489,-177.5 489,-212.5 751,-212.5 751,-177.5 489,-177.5"/>
<text text-anchor="start" x="495.8478" y="-190.3" font-family="Arial Bold" font-size="18.00" fill="#000000">game_video_types</text>
<text text-anchor="start" x="646.8984" y="-190.3" font-family="Arial" font-size="14.00" fill="#000000"> </text>
<text text-anchor="start" x="650.789" y="-190.3" font-family="Arial" font-size="14.00" fill="#666666">[BASE TABLE]</text>
<polygon fill="none" stroke="#000000" points="489,-147.5 489,-177.5 751,-177.5 751,-147.5 489,-147.5"/>
<text text-anchor="start" x="496" y="-158.9" font-family="Arial" font-size="14.00" fill="#000000">id </text>
<text text-anchor="start" x="510.7798" y="-158.9" font-family="Arial" font-size="14.00" fill="#666666">[tinyint(4)]</text>
<polygon fill="none" stroke="#000000" points="489,-117.5 489,-147.5 751,-147.5 751,-117.5 489,-117.5"/>
<text text-anchor="start" x="496" y="-128.9" font-family="Arial" font-size="14.00" fill="#000000">name </text>
<text text-anchor="start" x="534.899" y="-128.9" font-family="Arial" font-size="14.00" fill="#666666">[varchar(32)]</text>
<polygon fill="none" stroke="#000000" points="489,-87.5 489,-117.5 751,-117.5 751,-87.5 489,-87.5"/>
<text text-anchor="start" x="496" y="-98.9" font-family="Arial" font-size="14.00" fill="#000000">active </text>
<text text-anchor="start" x="536.453" y="-98.9" font-family="Arial" font-size="14.00" fill="#666666">[tinyint(1)]</text>
</g>
<!-- v2_game_videos&#45;&gt;game_video_types -->
<g id="edge3" class="edge">
<title>v2_game_videos:video_type_id&#45;&gt;game_video_types:id</title>
<path fill="none" stroke="#000000" d="M590.0198,-426.0267C615.6516,-417.1549 594.8569,-370.1142 580,-337 557.8357,-287.5986 511.1643,-305.4014 489,-256 471.9894,-218.0856 447.4444,-162.5 489,-162.5"/>
<polygon fill="#000000" stroke="#000000" points="589.8936,-426.0452 579.3453,-423.0479 584.9468,-426.7726 580,-427.5 580,-427.5 580,-427.5 584.9468,-426.7726 580.6547,-431.9521 589.8936,-426.0452 589.8936,-426.0452"/>
<text text-anchor="start" x="586.7575" y="-437.5" font-family="Arial" font-size="10.00" fill="#000000">FOREIGN KEY (video_type_id) REFERENCES game_video_types (id)</text>
</g>
<!-- v2_game_versions -->
<g id="node2" class="node">
<title>v2_game_versions</title>
<polygon fill="#efefef" stroke="transparent" points="326,-902.5 326,-937.5 588,-937.5 588,-902.5 326,-902.5"/>
<polygon fill="none" stroke="#000000" points="326,-902.5 326,-937.5 588,-937.5 588,-902.5 326,-902.5"/>
<text text-anchor="start" x="332.8559" y="-915.3" font-family="Arial Bold" font-size="18.00" fill="#000000">v2_game_versions</text>
<text text-anchor="start" x="483.8903" y="-915.3" font-family="Arial" font-size="14.00" fill="#000000"> </text>
<text text-anchor="start" x="487.7809" y="-915.3" font-family="Arial" font-size="14.00" fill="#666666">[BASE TABLE]</text>
<polygon fill="none" stroke="#000000" points="326,-872.5 326,-902.5 588,-902.5 588,-872.5 326,-872.5"/>
<text text-anchor="start" x="333" y="-883.9" font-family="Arial" font-size="14.00" fill="#000000">id </text>
<text text-anchor="start" x="347.7798" y="-883.9" font-family="Arial" font-size="14.00" fill="#666666">[varchar(36)]</text>
<polygon fill="none" stroke="#000000" points="326,-842.5 326,-872.5 588,-872.5 588,-842.5 326,-842.5"/>
<text text-anchor="start" x="333" y="-853.9" font-family="Arial" font-size="14.00" fill="#000000">game_id </text>
<text text-anchor="start" x="390.5708" y="-853.9" font-family="Arial" font-size="14.00" fill="#666666">[varchar(36)]</text>
<polygon fill="none" stroke="#000000" points="326,-812.5 326,-842.5 588,-842.5 588,-812.5 326,-812.5"/>
<text text-anchor="start" x="333" y="-823.9" font-family="Arial" font-size="14.00" fill="#000000">game_image_id </text>
<text text-anchor="start" x="436.4684" y="-823.9" font-family="Arial" font-size="14.00" fill="#666666">[varchar(36)]</text>
<polygon fill="none" stroke="#000000" points="326,-782.5 326,-812.5 588,-812.5 588,-782.5 326,-782.5"/>
<text text-anchor="start" x="333" y="-793.9" font-family="Arial" font-size="14.00" fill="#000000">game_video_id </text>
<text text-anchor="start" x="431.8078" y="-793.9" font-family="Arial" font-size="14.00" fill="#666666">[varchar(36)]</text>
<polygon fill="none" stroke="#000000" points="326,-752.5 326,-782.5 588,-782.5 588,-752.5 326,-752.5"/>
<text text-anchor="start" x="333" y="-763.9" font-family="Arial" font-size="14.00" fill="#000000">name </text>
<text text-anchor="start" x="371.899" y="-763.9" font-family="Arial" font-size="14.00" fill="#666666">[varchar(32)]</text>
<polygon fill="none" stroke="#000000" points="326,-722.5 326,-752.5 588,-752.5 588,-722.5 326,-722.5"/>
<text text-anchor="start" x="333" y="-733.9" font-family="Arial" font-size="14.00" fill="#000000">description </text>
<text text-anchor="start" x="404.568" y="-733.9" font-family="Arial" font-size="14.00" fill="#666666">[text]</text>
<polygon fill="none" stroke="#000000" points="326,-692.5 326,-722.5 588,-722.5 588,-692.5 326,-692.5"/>
<text text-anchor="start" x="333" y="-703.9" font-family="Arial" font-size="14.00" fill="#000000">created_at </text>
<text text-anchor="start" x="403.028" y="-703.9" font-family="Arial" font-size="14.00" fill="#666666">[datetime]</text>
<polygon fill="none" stroke="#000000" points="326,-662.5 326,-692.5 588,-692.5 588,-662.5 326,-662.5"/>
<text text-anchor="start" x="333" y="-673.9" font-family="Arial" font-size="14.00" fill="#000000">url </text>
<text text-anchor="start" x="352.4404" y="-673.9" font-family="Arial" font-size="14.00" fill="#666666">[text]</text>
</g>
<!-- v2_game_versions&#45;&gt;v2_game_videos -->
<g id="edge1" class="edge">
<title>v2_game_versions:game_video_id&#45;&gt;v2_game_videos:id</title>
<path fill="none" stroke="#000000" d="M316.0032,-796.802C249.6015,-787.0224 276.6024,-676.8925 326,-620 400.7517,-533.9065 505.2483,-670.0935 580,-584 608.1187,-551.6149 622.8889,-487.5 580,-487.5"/>
<polygon fill="#000000" stroke="#000000" points="316.0243,-796.8034 325.6865,-801.9891 321.0121,-797.1517 326,-797.5 326,-797.5 326,-797.5 321.0121,-797.1517 326.3135,-793.0109 316.0243,-796.8034 316.0243,-796.8034"/>
<text text-anchor="start" x="6.872" y="-807.5" font-family="Arial" font-size="10.00" fill="#000000">FOREIGN KEY (game_video_id) REFERENCES v2_game_videos (id)</text>
</g>
</g>
</svg>
