<?xml version="1.0" encoding="UTF-8" standalone="no"?>
<!DOCTYPE svg PUBLIC "-//W3C//DTD SVG 1.1//EN"
 "http://www.w3.org/Graphics/SVG/1.1/DTD/svg11.dtd">
<!-- Generated by graphviz version 2.40.1 (20161225.0304)
 -->
<!-- Title: v2_game_images Pages: 1 -->
<svg width="932pt" height="959pt"
 viewBox="0.00 0.00 932.00 959.00" xmlns="http://www.w3.org/2000/svg" xmlns:xlink="http://www.w3.org/1999/xlink">
<g id="graph0" class="graph" transform="scale(1 1) rotate(0) translate(4 955)">
<title>v2_game_images</title>
<polygon fill="#ffffff" stroke="transparent" points="-4,4 -4,-955 928,-955 928,4 -4,4"/>
<!-- v2_game_images -->
<g id="node1" class="node">
<title>v2_game_images</title>
<polygon fill="#efefef" stroke="transparent" points="336,-472.5 336,-507.5 589,-507.5 589,-472.5 336,-472.5"/>
<polygon fill="none" stroke="#000000" points="336,-472.5 336,-507.5 589,-507.5 589,-472.5 336,-472.5"/>
<text text-anchor="start" x="342.8559" y="-485.3" font-family="Arial Bold" font-size="18.00" fill="#000000">v2_game_images</text>
<text text-anchor="start" x="484.8903" y="-485.3" font-family="Arial" font-size="14.00" fill="#000000"> </text>
<text text-anchor="start" x="488.7809" y="-485.3" font-family="Arial" font-size="14.00" fill="#666666">[BASE TABLE]</text>
<polygon fill="none" stroke="#000000" points="336,-442.5 336,-472.5 589,-472.5 589,-442.5 336,-442.5"/>
<text text-anchor="start" x="343" y="-453.9" font-family="Arial" font-size="14.00" fill="#000000">id </text>
<text text-anchor="start" x="357.7798" y="-453.9" font-family="Arial" font-size="14.00" fill="#666666">[varchar(36)]</text>
<polygon fill="none" stroke="#000000" points="336,-412.5 336,-442.5 589,-442.5 589,-412.5 336,-412.5"/>
<text text-anchor="start" x="343" y="-423.9" font-family="Arial" font-size="14.00" fill="#000000">game_id </text>
<text text-anchor="start" x="400.5708" y="-423.9" font-family="Arial" font-size="14.00" fill="#666666">[varchar(36)]</text>
<polygon fill="none" stroke="#000000" points="336,-382.5 336,-412.5 589,-412.5 589,-382.5 336,-382.5"/>
<text text-anchor="start" x="343" y="-393.9" font-family="Arial" font-size="14.00" fill="#000000">image_type_id </text>
<text text-anchor="start" x="437.9158" y="-393.9" font-family="Arial" font-size="14.00" fill="#666666">[tinyint(4)]</text>
<polygon fill="none" stroke="#000000" points="336,-352.5 336,-382.5 589,-382.5 589,-352.5 336,-352.5"/>
<text text-anchor="start" x="343" y="-363.9" font-family="Arial" font-size="14.00" fill="#000000">created_at </text>
<text text-anchor="start" x="413.028" y="-363.9" font-family="Arial" font-size="14.00" fill="#666666">[datetime]</text>
<polygon fill="none" stroke="#000000" stroke-width="3" points="334,-351.5 334,-509.5 590,-509.5 590,-351.5 334,-351.5"/>
</g>
<!-- games -->
<g id="node3" class="node">
<title>games</title>
<polygon fill="#efefef" stroke="transparent" points="220,-192.5 220,-227.5 385,-227.5 385,-192.5 220,-192.5"/>
<polygon fill="none" stroke="#000000" points="220,-192.5 220,-227.5 385,-227.5 385,-192.5 220,-192.5"/>
<text text-anchor="start" x="226.8677" y="-205.3" font-family="Arial Bold" font-size="18.00" fill="#000000">games</text>
<text text-anchor="start" x="280.8785" y="-205.3" font-family="Arial" font-size="14.00" fill="#000000"> </text>
<text text-anchor="start" x="284.7691" y="-205.3" font-family="Arial" font-size="14.00" fill="#666666">[BASE TABLE]</text>
<polygon fill="none" stroke="#000000" points="220,-162.5 220,-192.5 385,-192.5 385,-162.5 220,-162.5"/>
<text text-anchor="start" x="227" y="-173.9" font-family="Arial" font-size="14.00" fill="#000000">id </text>
<text text-anchor="start" x="241.7798" y="-173.9" font-family="Arial" font-size="14.00" fill="#666666">[varchar(36)]</text>
<polygon fill="none" stroke="#000000" points="220,-132.5 220,-162.5 385,-162.5 385,-132.5 220,-132.5"/>
<text text-anchor="start" x="227" y="-143.9" font-family="Arial" font-size="14.00" fill="#000000">name </text>
<text text-anchor="start" x="265.899" y="-143.9" font-family="Arial" font-size="14.00" fill="#666666">[varchar(256)]</text>
<polygon fill="none" stroke="#000000" points="220,-102.5 220,-132.5 385,-132.5 385,-102.5 220,-102.5"/>
<text text-anchor="start" x="227" y="-113.9" font-family="Arial" font-size="14.00" fill="#000000">description </text>
<text text-anchor="start" x="298.568" y="-113.9" font-family="Arial" font-size="14.00" fill="#666666">[text]</text>
<polygon fill="none" stroke="#000000" points="220,-72.5 220,-102.5 385,-102.5 385,-72.5 220,-72.5"/>
<text text-anchor="start" x="227" y="-83.9" font-family="Arial" font-size="14.00" fill="#000000">created_at </text>
<text text-anchor="start" x="297.028" y="-83.9" font-family="Arial" font-size="14.00" fill="#666666">[datetime]</text>
<polygon fill="none" stroke="#000000" points="220,-42.5 220,-72.5 385,-72.5 385,-42.5 220,-42.5"/>
<text text-anchor="start" x="227" y="-53.9" font-family="Arial" font-size="14.00" fill="#000000">deleted_at </text>
<text text-anchor="start" x="296.2566" y="-53.9" font-family="Arial" font-size="14.00" fill="#666666">[datetime]</text>
</g>
<!-- v2_game_images&#45;&gt;games -->
<g id="edge2" class="edge">
<title>v2_game_images:game_id&#45;&gt;games:id</title>
<path fill="none" stroke="#000000" d="M325.8951,-427.4037C114.1007,-423.2452 377.5235,-285.7704 385,-271 403.7674,-233.9237 426.5556,-177.5 385,-177.5"/>
<polygon fill="#000000" stroke="#000000" points="326.0005,-427.4046 335.9571,-431.9998 331.0002,-427.4523 336,-427.5 336,-427.5 336,-427.5 331.0002,-427.4523 336.0429,-423.0002 326.0005,-427.4046 326.0005,-427.4046"/>
<text text-anchor="start" x="92.386" y="-437.5" font-family="Arial" font-size="10.00" fill="#000000">FOREIGN KEY (game_id) REFERENCES games (id)</text>
</g>
<!-- game_image_types -->
<g id="node4" class="node">
<title>game_image_types</title>
<polygon fill="#efefef" stroke="transparent" points="489,-162.5 489,-197.5 757,-197.5 757,-162.5 489,-162.5"/>
<polygon fill="none" stroke="#000000" points="489,-162.5 489,-197.5 757,-197.5 757,-162.5 489,-162.5"/>
<text text-anchor="start" x="495.8517" y="-175.3" font-family="Arial Bold" font-size="18.00" fill="#000000">game_image_types</text>
<text text-anchor="start" x="652.8945" y="-175.3" font-family="Arial" font-size="14.00" fill="#000000"> </text>
<text text-anchor="start" x="656.7851" y="-175.3" font-family="Arial" font-size="14.00" fill="#666666">[BASE TABLE]</text>
<polygon fill="none" stroke="#000000" points="489,-132.5 489,-162.5 757,-162.5 757,-132.5 489,-132.5"/>
<text text-anchor="start" x="496" y="-143.9" font-family="Arial" font-size="14.00" fill="#000000">id </text>
<text text-anchor="start" x="510.7798" y="-143.9" font-family="Arial" font-size="14.00" fill="#666666">[tinyint(4)]</text>
<polygon fill="none" stroke="#000000" points="489,-102.5 489,-132.5 757,-132.5 757,-102.5 489,-102.5"/>
<text text-anchor="start" x="496" y="-113.9" font-family="Arial" font-size="14.00" fill="#000000">name </text>
<text text-anchor="start" x="534.899" y="-113.9" font-family="Arial" font-size="14.00" fill="#666666">[varchar(32)]</text>
<polygon fill="none" stroke="#000000" points="489,-72.5 489,-102.5 757,-102.5 757,-72.5 489,-72.5"/>
<text text-anchor="start" x="496" y="-83.9" font-family="Arial" font-size="14.00" fill="#000000">active </text>
<text text-anchor="start" x="536.453" y="-83.9" font-family="Arial" font-size="14.00" fill="#666666">[tinyint(1)]</text>
</g>
<!-- v2_game_images&#45;&gt;game_image_types -->
<g id="edge3" class="edge">
<title>v2_game_images:image_type_id&#45;&gt;game_image_types:id</title>
<path fill="none" stroke="#000000" d="M599.0868,-395.9937C625.1092,-386.9295 606.1998,-338.96 589,-307 563.7641,-260.1075 514.2359,-287.8925 489,-241 469.3069,-204.407 447.4444,-147.5 489,-147.5"/>
<polygon fill="#000000" stroke="#000000" points="598.8903,-396.023 588.3353,-393.0494 593.9452,-396.7615 589,-397.5 589,-397.5 589,-397.5 593.9452,-396.7615 589.6647,-401.9506 598.8903,-396.023 598.8903,-396.023"/>
<text text-anchor="start" x="596.4285" y="-407.5" font-family="Arial" font-size="10.00" fill="#000000">FOREIGN KEY (image_type_id) REFERENCES game_image_types (id)</text>
</g>
<!-- v2_game_versions -->
<g id="node2" class="node">
<title>v2_game_versions</title>
<polygon fill="#efefef" stroke="transparent" points="332,-872.5 332,-907.5 594,-907.5 594,-872.5 332,-872.5"/>
<polygon fill="none" stroke="#000000" points="332,-872.5 332,-907.5 594,-907.5 594,-872.5 332,-872.5"/>
<text text-anchor="start" x="338.8559" y="-885.3" font-family="Arial Bold" font-size="18.00" fill="#000000">v2_game_versions</text>
<text text-anchor="start" x="489.8903" y="-885.3" font-family="Arial" font-size="14.00" fill="#000000"> </text>
<text text-anchor="start" x="493.7809" y="-885.3" font-family="Arial" font-size="14.00" fill="#666666">[BASE TABLE]</text>
<polygon fill="none" stroke="#000000" points="332,-842.5 332,-872.5 594,-872.5 594,-842.5 332,-842.5"/>
<text text-anchor="start" x="339" y="-853.9" font-family="Arial" font-size="14.00" fill="#000000">id </text>
<text text-anchor="start" x="353.7798" y="-853.9" font-family="Arial" font-size="14.00" fill="#666666">[varchar(36)]</text>
<polygon fill="none" stroke="#000000" points="332,-812.5 332,-842.5 594,-842.5 594,-812.5 332,-812.5"/>
<text text-anchor="start" x="339" y="-823.9" font-family="Arial" font-size="14.00" fill="#000000">game_id </text>
<text text-anchor="start" x="396.5708" y="-823.9" font-family="Arial" font-size="14.00" fill="#666666">[varchar(36)]</text>
<polygon fill="none" stroke="#000000" points="332,-782.5 332,-812.5 594,-812.5 594,-782.5 332,-782.5"/>
<text text-anchor="start" x="339" y="-793.9" font-family="Arial" font-size="14.00" fill="#000000">game_image_id </text>
<text text-anchor="start" x="442.4684" y="-793.9" font-family="Arial" font-size="14.00" fill="#666666">[varchar(36)]</text>
<polygon fill="none" stroke="#000000" points="332,-752.5 332,-782.5 594,-782.5 594,-752.5 332,-752.5"/>
<text text-anchor="start" x="339" y="-763.9" font-family="Arial" font-size="14.00" fill="#000000">game_video_id </text>
<text text-anchor="start" x="437.8078" y="-763.9" font-family="Arial" font-size="14.00" fill="#666666">[varchar(36)]</text>
<polygon fill="none" stroke="#000000" points="332,-722.5 332,-752.5 594,-752.5 594,-722.5 332,-722.5"/>
<text text-anchor="start" x="339" y="-733.9" font-family="Arial" font-size="14.00" fill="#000000">name </text>
<text text-anchor="start" x="377.899" y="-733.9" font-family="Arial" font-size="14.00" fill="#666666">[varchar(32)]</text>
<polygon fill="none" stroke="#000000" points="332,-692.5 332,-722.5 594,-722.5 594,-692.5 332,-692.5"/>
<text text-anchor="start" x="339" y="-703.9" font-family="Arial" font-size="14.00" fill="#000000">description </text>
<text text-anchor="start" x="410.568" y="-703.9" font-family="Arial" font-size="14.00" fill="#666666">[text]</text>
<polygon fill="none" stroke="#000000" points="332,-662.5 332,-692.5 594,-692.5 594,-662.5 332,-662.5"/>
<text text-anchor="start" x="339" y="-673.9" font-family="Arial" font-size="14.00" fill="#000000">created_at </text>
<text text-anchor="start" x="409.028" y="-673.9" font-family="Arial" font-size="14.00" fill="#666666">[datetime]</text>
<polygon fill="none" stroke="#000000" points="332,-632.5 332,-662.5 594,-662.5 594,-632.5 332,-632.5"/>
<text text-anchor="start" x="339" y="-643.9" font-family="Arial" font-size="14.00" fill="#000000">url </text>
<text text-anchor="start" x="358.4404" y="-643.9" font-family="Arial" font-size="14.00" fill="#666666">[text]</text>
</g>
<!-- v2_game_versions&#45;&gt;v2_game_images -->
<g id="edge1" class="edge">
<title>v2_game_versions:game_image_id&#45;&gt;v2_game_images:id</title>
<path fill="none" stroke="#000000" d="M321.7543,-796.881C242.2986,-786.8298 273.845,-656.869 332,-590 407.6879,-502.9709 513.3121,-641.0291 589,-554 617.145,-521.6377 631.8889,-457.5 589,-457.5"/>
<polygon fill="#000000" stroke="#000000" points="322.0182,-796.8968 331.7286,-801.9918 327.0091,-797.1984 332,-797.5 332,-797.5 332,-797.5 327.0091,-797.1984 332.2714,-793.0082 322.0182,-796.8968 322.0182,-796.8968"/>
<text text-anchor="start" x="6.543" y="-807.5" font-family="Arial" font-size="10.00" fill="#000000">FOREIGN KEY (game_image_id) REFERENCES v2_game_images (id)</text>
</g>
</g>
</svg>
