<?xml version="1.0" encoding="UTF-8" standalone="no"?>
<!DOCTYPE svg PUBLIC "-//W3C//DTD SVG 1.1//EN"
 "http://www.w3.org/Graphics/SVG/1.1/DTD/svg11.dtd">
<!-- Generated by graphviz version 2.40.1 (20161225.0304)
 -->
<!-- Title: v2_game_versions Pages: 1 -->
<svg width="1300pt" height="1169pt"
 viewBox="0.00 0.00 1299.50 1169.00" xmlns="http://www.w3.org/2000/svg" xmlns:xlink="http://www.w3.org/1999/xlink">
<g id="graph0" class="graph" transform="scale(1 1) rotate(0) translate(4 1165)">
<title>v2_game_versions</title>
<polygon fill="#ffffff" stroke="transparent" points="-4,4 -4,-1165 1295.5,-1165 1295.5,4 -4,4"/>
<!-- v2_game_versions -->
<g id="node1" class="node">
<title>v2_game_versions</title>
<polygon fill="#efefef" stroke="transparent" points="502.5,-652.5 502.5,-687.5 764.5,-687.5 764.5,-652.5 502.5,-652.5"/>
<polygon fill="none" stroke="#000000" points="502.5,-652.5 502.5,-687.5 764.5,-687.5 764.5,-652.5 502.5,-652.5"/>
<text text-anchor="start" x="509.3559" y="-665.3" font-family="Arial Bold" font-size="18.00" fill="#000000">v2_game_versions</text>
<text text-anchor="start" x="660.3903" y="-665.3" font-family="Arial" font-size="14.00" fill="#000000"> </text>
<text text-anchor="start" x="664.2809" y="-665.3" font-family="Arial" font-size="14.00" fill="#666666">[BASE TABLE]</text>
<polygon fill="none" stroke="#000000" points="502.5,-622.5 502.5,-652.5 764.5,-652.5 764.5,-622.5 502.5,-622.5"/>
<text text-anchor="start" x="509.5" y="-633.9" font-family="Arial" font-size="14.00" fill="#000000">id </text>
<text text-anchor="start" x="524.2798" y="-633.9" font-family="Arial" font-size="14.00" fill="#666666">[varchar(36)]</text>
<polygon fill="none" stroke="#000000" points="502.5,-592.5 502.5,-622.5 764.5,-622.5 764.5,-592.5 502.5,-592.5"/>
<text text-anchor="start" x="509.5" y="-603.9" font-family="Arial" font-size="14.00" fill="#000000">game_id </text>
<text text-anchor="start" x="567.0708" y="-603.9" font-family="Arial" font-size="14.00" fill="#666666">[varchar(36)]</text>
<polygon fill="none" stroke="#000000" points="502.5,-562.5 502.5,-592.5 764.5,-592.5 764.5,-562.5 502.5,-562.5"/>
<text text-anchor="start" x="509.5" y="-573.9" font-family="Arial" font-size="14.00" fill="#000000">game_image_id </text>
<text text-anchor="start" x="612.9684" y="-573.9" font-family="Arial" font-size="14.00" fill="#666666">[varchar(36)]</text>
<polygon fill="none" stroke="#000000" points="502.5,-532.5 502.5,-562.5 764.5,-562.5 764.5,-532.5 502.5,-532.5"/>
<text text-anchor="start" x="509.5" y="-543.9" font-family="Arial" font-size="14.00" fill="#000000">game_video_id </text>
<text text-anchor="start" x="608.3078" y="-543.9" font-family="Arial" font-size="14.00" fill="#666666">[varchar(36)]</text>
<polygon fill="none" stroke="#000000" points="502.5,-502.5 502.5,-532.5 764.5,-532.5 764.5,-502.5 502.5,-502.5"/>
<text text-anchor="start" x="509.5" y="-513.9" font-family="Arial" font-size="14.00" fill="#000000">name </text>
<text text-anchor="start" x="548.399" y="-513.9" font-family="Arial" font-size="14.00" fill="#666666">[varchar(32)]</text>
<polygon fill="none" stroke="#000000" points="502.5,-472.5 502.5,-502.5 764.5,-502.5 764.5,-472.5 502.5,-472.5"/>
<text text-anchor="start" x="509.5" y="-483.9" font-family="Arial" font-size="14.00" fill="#000000">description </text>
<text text-anchor="start" x="581.068" y="-483.9" font-family="Arial" font-size="14.00" fill="#666666">[text]</text>
<polygon fill="none" stroke="#000000" points="502.5,-442.5 502.5,-472.5 764.5,-472.5 764.5,-442.5 502.5,-442.5"/>
<text text-anchor="start" x="509.5" y="-453.9" font-family="Arial" font-size="14.00" fill="#000000">created_at </text>
<text text-anchor="start" x="579.528" y="-453.9" font-family="Arial" font-size="14.00" fill="#666666">[datetime]</text>
<polygon fill="none" stroke="#000000" points="502.5,-412.5 502.5,-442.5 764.5,-442.5 764.5,-412.5 502.5,-412.5"/>
<text text-anchor="start" x="509.5" y="-423.9" font-family="Arial" font-size="14.00" fill="#000000">url </text>
<text text-anchor="start" x="528.9404" y="-423.9" font-family="Arial" font-size="14.00" fill="#666666">[text]</text>
<polygon fill="none" stroke="#000000" stroke-width="3" points="501,-411.5 501,-689.5 766,-689.5 766,-411.5 501,-411.5"/>
</g>
<!-- games -->
<g id="node5" class="node">
<title>games</title>
<polygon fill="#efefef" stroke="transparent" points="159.5,-252.5 159.5,-287.5 402.5,-287.5 402.5,-252.5 159.5,-252.5"/>
<polygon fill="none" stroke="#000000" points="159.5,-252.5 159.5,-287.5 402.5,-287.5 402.5,-252.5 159.5,-252.5"/>
<text text-anchor="start" x="205.3677" y="-265.3" font-family="Arial Bold" font-size="18.00" fill="#000000">games</text>
<text text-anchor="start" x="259.3785" y="-265.3" font-family="Arial" font-size="14.00" fill="#000000"> </text>
<text text-anchor="start" x="263.2691" y="-265.3" font-family="Arial" font-size="14.00" fill="#666666">[BASE TABLE]</text>
<polygon fill="none" stroke="#000000" points="159.5,-222.5 159.5,-252.5 402.5,-252.5 402.5,-222.5 159.5,-222.5"/>
<text text-anchor="start" x="166.5" y="-233.9" font-family="Arial" font-size="14.00" fill="#000000">id </text>
<text text-anchor="start" x="181.2798" y="-233.9" font-family="Arial" font-size="14.00" fill="#666666">[varchar(36)]</text>
<polygon fill="none" stroke="#000000" points="159.5,-192.5 159.5,-222.5 402.5,-222.5 402.5,-192.5 159.5,-192.5"/>
<text text-anchor="start" x="166.5" y="-203.9" font-family="Arial" font-size="14.00" fill="#000000">name </text>
<text text-anchor="start" x="205.399" y="-203.9" font-family="Arial" font-size="14.00" fill="#666666">[varchar(256)]</text>
<polygon fill="none" stroke="#000000" points="159.5,-162.5 159.5,-192.5 402.5,-192.5 402.5,-162.5 159.5,-162.5"/>
<text text-anchor="start" x="166.5" y="-173.9" font-family="Arial" font-size="14.00" fill="#000000">description </text>
<text text-anchor="start" x="238.068" y="-173.9" font-family="Arial" font-size="14.00" fill="#666666">[text]</text>
<polygon fill="none" stroke="#000000" points="159.5,-132.5 159.5,-162.5 402.5,-162.5 402.5,-132.5 159.5,-132.5"/>
<text text-anchor="start" x="166.5" y="-143.9" font-family="Arial" font-size="14.00" fill="#000000">created_at </text>
<text text-anchor="start" x="236.528" y="-143.9" font-family="Arial" font-size="14.00" fill="#666666">[datetime]</text>
<polygon fill="none" stroke="#000000" points="159.5,-102.5 159.5,-132.5 402.5,-132.5 402.5,-102.5 159.5,-102.5"/>
<text text-anchor="start" x="166.5" y="-113.9" font-family="Arial" font-size="14.00" fill="#000000">deleted_at </text>
<text text-anchor="start" x="235.7566" y="-113.9" font-family="Arial" font-size="14.00" fill="#666666">[datetime]</text>
<polygon fill="none" stroke="#000000" points="159.5,-72.5 159.5,-102.5 402.5,-102.5 402.5,-72.5 159.5,-72.5"/>
<text text-anchor="start" x="166.5" y="-83.9" font-family="Arial" font-size="14.00" fill="#000000">visibility_type_id </text>
<text text-anchor="start" x="271.507" y="-83.9" font-family="Arial" font-size="14.00" fill="#666666">[tinyint(4)]</text>
<polygon fill="none" stroke="#000000" points="159.5,-42.5 159.5,-72.5 402.5,-72.5 402.5,-42.5 159.5,-42.5"/>
<text text-anchor="start" x="166.2371" y="-53.9" font-family="Arial" font-size="14.00" fill="#000000">latest_version_updated_at </text>
<text text-anchor="start" x="334.3029" y="-53.9" font-family="Arial" font-size="14.00" fill="#666666">[datetime]</text>
</g>
<!-- v2_game_versions&#45;&gt;games -->
<g id="edge4" class="edge">
<title>v2_game_versions:game_id&#45;&gt;games:id</title>
<path fill="none" stroke="#000000" d="M492.3575,-605.5093C423.0858,-576.3863 484.0126,-237.5 402.5,-237.5"/>
<polygon fill="#000000" stroke="#000000" points="492.6872,-605.5739 501.6333,-611.9158 497.5936,-606.537 502.5,-607.5 502.5,-607.5 502.5,-607.5 497.5936,-606.537 503.3667,-603.0842 492.6872,-605.5739 492.6872,-605.5739"/>
<text text-anchor="start" x="258.886" y="-617.5" font-family="Arial" font-size="10.00" fill="#000000">FOREIGN KEY (game_id) REFERENCES games (id)</text>
</g>
<!-- v2_game_images -->
<g id="node6" class="node">
<title>v2_game_images</title>
<polygon fill="#efefef" stroke="transparent" points="506.5,-207.5 506.5,-242.5 759.5,-242.5 759.5,-207.5 506.5,-207.5"/>
<polygon fill="none" stroke="#000000" points="506.5,-207.5 506.5,-242.5 759.5,-242.5 759.5,-207.5 506.5,-207.5"/>
<text text-anchor="start" x="513.3559" y="-220.3" font-family="Arial Bold" font-size="18.00" fill="#000000">v2_game_images</text>
<text text-anchor="start" x="655.3903" y="-220.3" font-family="Arial" font-size="14.00" fill="#000000"> </text>
<text text-anchor="start" x="659.2809" y="-220.3" font-family="Arial" font-size="14.00" fill="#666666">[BASE TABLE]</text>
<polygon fill="none" stroke="#000000" points="506.5,-177.5 506.5,-207.5 759.5,-207.5 759.5,-177.5 506.5,-177.5"/>
<text text-anchor="start" x="513.5" y="-188.9" font-family="Arial" font-size="14.00" fill="#000000">id </text>
<text text-anchor="start" x="528.2798" y="-188.9" font-family="Arial" font-size="14.00" fill="#666666">[varchar(36)]</text>
<polygon fill="none" stroke="#000000" points="506.5,-147.5 506.5,-177.5 759.5,-177.5 759.5,-147.5 506.5,-147.5"/>
<text text-anchor="start" x="513.5" y="-158.9" font-family="Arial" font-size="14.00" fill="#000000">game_id </text>
<text text-anchor="start" x="571.0708" y="-158.9" font-family="Arial" font-size="14.00" fill="#666666">[varchar(36)]</text>
<polygon fill="none" stroke="#000000" points="506.5,-117.5 506.5,-147.5 759.5,-147.5 759.5,-117.5 506.5,-117.5"/>
<text text-anchor="start" x="513.5" y="-128.9" font-family="Arial" font-size="14.00" fill="#000000">image_type_id </text>
<text text-anchor="start" x="608.4158" y="-128.9" font-family="Arial" font-size="14.00" fill="#666666">[tinyint(4)]</text>
<polygon fill="none" stroke="#000000" points="506.5,-87.5 506.5,-117.5 759.5,-117.5 759.5,-87.5 506.5,-87.5"/>
<text text-anchor="start" x="513.5" y="-98.9" font-family="Arial" font-size="14.00" fill="#000000">created_at </text>
<text text-anchor="start" x="583.528" y="-98.9" font-family="Arial" font-size="14.00" fill="#666666">[datetime]</text>
</g>
<!-- v2_game_versions&#45;&gt;v2_game_images -->
<g id="edge5" class="edge">
<title>v2_game_versions:game_image_id&#45;&gt;v2_game_images:id</title>
<path fill="none" stroke="#000000" d="M492.1329,-576.8934C411.9573,-567.0397 449.3366,-439.4972 502.5,-367 573.3213,-270.4233 688.6787,-382.5767 759.5,-286 784.0741,-252.4891 801.0556,-192.5 759.5,-192.5"/>
<polygon fill="#000000" stroke="#000000" points="492.5171,-576.9158 502.2371,-581.9923 497.5085,-577.2079 502.5,-577.5 502.5,-577.5 502.5,-577.5 497.5085,-577.2079 502.7629,-573.0077 492.5171,-576.9158 492.5171,-576.9158"/>
<text text-anchor="start" x="177.043" y="-587.5" font-family="Arial" font-size="10.00" fill="#000000">FOREIGN KEY (game_image_id) REFERENCES v2_game_images (id)</text>
</g>
<!-- v2_game_videos -->
<g id="node7" class="node">
<title>v2_game_videos</title>
<polygon fill="#efefef" stroke="transparent" points="863.5,-207.5 863.5,-242.5 1110.5,-242.5 1110.5,-207.5 863.5,-207.5"/>
<polygon fill="none" stroke="#000000" points="863.5,-207.5 863.5,-242.5 1110.5,-242.5 1110.5,-207.5 863.5,-207.5"/>
<text text-anchor="start" x="870.352" y="-220.3" font-family="Arial Bold" font-size="18.00" fill="#000000">v2_game_videos</text>
<text text-anchor="start" x="1006.3942" y="-220.3" font-family="Arial" font-size="14.00" fill="#000000"> </text>
<text text-anchor="start" x="1010.2848" y="-220.3" font-family="Arial" font-size="14.00" fill="#666666">[BASE TABLE]</text>
<polygon fill="none" stroke="#000000" points="863.5,-177.5 863.5,-207.5 1110.5,-207.5 1110.5,-177.5 863.5,-177.5"/>
<text text-anchor="start" x="870.5" y="-188.9" font-family="Arial" font-size="14.00" fill="#000000">id </text>
<text text-anchor="start" x="885.2798" y="-188.9" font-family="Arial" font-size="14.00" fill="#666666">[varchar(36)]</text>
<polygon fill="none" stroke="#000000" points="863.5,-147.5 863.5,-177.5 1110.5,-177.5 1110.5,-147.5 863.5,-147.5"/>
<text text-anchor="start" x="870.5" y="-158.9" font-family="Arial" font-size="14.00" fill="#000000">game_id </text>
<text text-anchor="start" x="928.0708" y="-158.9" font-family="Arial" font-size="14.00" fill="#666666">[varchar(36)]</text>
<polygon fill="none" stroke="#000000" points="863.5,-117.5 863.5,-147.5 1110.5,-147.5 1110.5,-117.5 863.5,-117.5"/>
<text text-anchor="start" x="870.5" y="-128.9" font-family="Arial" font-size="14.00" fill="#000000">video_type_id </text>
<text text-anchor="start" x="960.7552" y="-128.9" font-family="Arial" font-size="14.00" fill="#666666">[tinyint(4)]</text>
<polygon fill="none" stroke="#000000" points="863.5,-87.5 863.5,-117.5 1110.5,-117.5 1110.5,-87.5 863.5,-87.5"/>
<text text-anchor="start" x="870.5" y="-98.9" font-family="Arial" font-size="14.00" fill="#000000">created_at </text>
<text text-anchor="start" x="940.528" y="-98.9" font-family="Arial" font-size="14.00" fill="#666666">[datetime]</text>
</g>
<!-- v2_game_versions&#45;&gt;v2_game_videos -->
<g id="edge6" class="edge">
<title>v2_game_versions:game_video_id&#45;&gt;v2_game_videos:id</title>
<path fill="none" stroke="#000000" d="M774.6757,-545.4152C840.8734,-516.3218 785.28,-192.5 863.5,-192.5"/>
<polygon fill="#000000" stroke="#000000" points="774.2965,-545.4928 763.5968,-543.0916 769.3983,-546.4964 764.5,-547.5 764.5,-547.5 764.5,-547.5 769.3983,-546.4964 765.4032,-551.9084 774.2965,-545.4928 774.2965,-545.4928"/>
<text text-anchor="start" x="771.372" y="-557.5" font-family="Arial" font-size="10.00" fill="#000000">FOREIGN KEY (game_video_id) REFERENCES v2_game_videos (id)</text>
</g>
<!-- edition_game_version_relations -->
<g id="node2" class="node">
<title>edition_game_version_relations</title>
<polygon fill="#efefef" stroke="transparent" points="43.5,-977.5 43.5,-1012.5 408.5,-1012.5 408.5,-977.5 43.5,-977.5"/>
<polygon fill="none" stroke="#000000" points="43.5,-977.5 43.5,-1012.5 408.5,-1012.5 408.5,-977.5 43.5,-977.5"/>
<text text-anchor="start" x="50.3444" y="-990.3" font-family="Arial Bold" font-size="18.00" fill="#000000">edition_game_version_relations</text>
<text text-anchor="start" x="304.4018" y="-990.3" font-family="Arial" font-size="14.00" fill="#000000"> </text>
<text text-anchor="start" x="308.2924" y="-990.3" font-family="Arial" font-size="14.00" fill="#666666">[BASE TABLE]</text>
<polygon fill="none" stroke="#000000" points="43.5,-947.5 43.5,-977.5 408.5,-977.5 408.5,-947.5 43.5,-947.5"/>
<text text-anchor="start" x="50.5" y="-958.9" font-family="Arial" font-size="14.00" fill="#000000">edition_id </text>
<text text-anchor="start" x="114.2966" y="-958.9" font-family="Arial" font-size="14.00" fill="#666666">[varchar(36)]</text>
<polygon fill="none" stroke="#000000" points="43.5,-917.5 43.5,-947.5 408.5,-947.5 408.5,-917.5 43.5,-917.5"/>
<text text-anchor="start" x="50.5" y="-928.9" font-family="Arial" font-size="14.00" fill="#000000">game_version_id </text>
<text text-anchor="start" x="160.9684" y="-928.9" font-family="Arial" font-size="14.00" fill="#666666">[varchar(36)]</text>
</g>
<!-- edition_game_version_relations&#45;&gt;v2_game_versions -->
<g id="edge1" class="edge">
<title>edition_game_version_relations:game_version_id&#45;&gt;v2_game_versions:id</title>
<path fill="none" stroke="#000000" d="M418.48,-930.1254C473.0167,-902.2071 437.3251,-637.5 502.5,-637.5"/>
<polygon fill="#000000" stroke="#000000" points="418.2284,-930.1852 407.4583,-928.1222 413.3642,-931.3426 408.5,-932.5 408.5,-932.5 408.5,-932.5 413.3642,-931.3426 409.5417,-936.8778 418.2284,-930.1852 418.2284,-930.1852"/>
<text text-anchor="start" x="415.043" y="-942.5" font-family="Arial" font-size="10.00" fill="#000000">FOREIGN KEY (game_version_id) REFERENCES v2_game_versions (id)</text>
</g>
<!-- game_play_logs -->
<g id="node3" class="node">
<title>game_play_logs</title>
<polygon fill="#efefef" stroke="transparent" points="512.5,-1082.5 512.5,-1117.5 754.5,-1117.5 754.5,-1082.5 512.5,-1082.5"/>
<polygon fill="none" stroke="#000000" points="512.5,-1082.5 512.5,-1117.5 754.5,-1117.5 754.5,-1082.5 512.5,-1082.5"/>
<text text-anchor="start" x="519.3549" y="-1095.3" font-family="Arial Bold" font-size="18.00" fill="#000000">game_play_logs</text>
<text text-anchor="start" x="650.3913" y="-1095.3" font-family="Arial" font-size="14.00" fill="#000000"> </text>
<text text-anchor="start" x="654.2819" y="-1095.3" font-family="Arial" font-size="14.00" fill="#666666">[BASE TABLE]</text>
<polygon fill="none" stroke="#000000" points="512.5,-1052.5 512.5,-1082.5 754.5,-1082.5 754.5,-1052.5 512.5,-1052.5"/>
<text text-anchor="start" x="519.5" y="-1063.9" font-family="Arial" font-size="14.00" fill="#000000">id </text>
<text text-anchor="start" x="534.2798" y="-1063.9" font-family="Arial" font-size="14.00" fill="#666666">[varchar(36)]</text>
<polygon fill="none" stroke="#000000" points="512.5,-1022.5 512.5,-1052.5 754.5,-1052.5 754.5,-1022.5 512.5,-1022.5"/>
<text text-anchor="start" x="519.5" y="-1033.9" font-family="Arial" font-size="14.00" fill="#000000">edition_id </text>
<text text-anchor="start" x="583.2966" y="-1033.9" font-family="Arial" font-size="14.00" fill="#666666">[varchar(36)]</text>
<polygon fill="none" stroke="#000000" points="512.5,-992.5 512.5,-1022.5 754.5,-1022.5 754.5,-992.5 512.5,-992.5"/>
<text text-anchor="start" x="519.5" y="-1003.9" font-family="Arial" font-size="14.00" fill="#000000">game_id </text>
<text text-anchor="start" x="577.0708" y="-1003.9" font-family="Arial" font-size="14.00" fill="#666666">[varchar(36)]</text>
<polygon fill="none" stroke="#000000" points="512.5,-962.5 512.5,-992.5 754.5,-992.5 754.5,-962.5 512.5,-962.5"/>
<text text-anchor="start" x="519.5" y="-973.9" font-family="Arial" font-size="14.00" fill="#000000">game_version_id </text>
<text text-anchor="start" x="629.9684" y="-973.9" font-family="Arial" font-size="14.00" fill="#666666">[varchar(36)]</text>
<polygon fill="none" stroke="#000000" points="512.5,-932.5 512.5,-962.5 754.5,-962.5 754.5,-932.5 512.5,-932.5"/>
<text text-anchor="start" x="519.5" y="-943.9" font-family="Arial" font-size="14.00" fill="#000000">start_time </text>
<text text-anchor="start" x="584.838" y="-943.9" font-family="Arial" font-size="14.00" fill="#666666">[datetime]</text>
<polygon fill="none" stroke="#000000" points="512.5,-902.5 512.5,-932.5 754.5,-932.5 754.5,-902.5 512.5,-902.5"/>
<text text-anchor="start" x="519.5" y="-913.9" font-family="Arial" font-size="14.00" fill="#000000">end_time </text>
<text text-anchor="start" x="580.9614" y="-913.9" font-family="Arial" font-size="14.00" fill="#666666">[datetime]</text>
<polygon fill="none" stroke="#000000" points="512.5,-872.5 512.5,-902.5 754.5,-902.5 754.5,-872.5 512.5,-872.5"/>
<text text-anchor="start" x="519.5" y="-883.9" font-family="Arial" font-size="14.00" fill="#000000">created_at </text>
<text text-anchor="start" x="589.528" y="-883.9" font-family="Arial" font-size="14.00" fill="#666666">[datetime]</text>
<polygon fill="none" stroke="#000000" points="512.5,-842.5 512.5,-872.5 754.5,-872.5 754.5,-842.5 512.5,-842.5"/>
<text text-anchor="start" x="519.5" y="-853.9" font-family="Arial" font-size="14.00" fill="#000000">updated_at </text>
<text text-anchor="start" x="593.4326" y="-853.9" font-family="Arial" font-size="14.00" fill="#666666">[datetime]</text>
<polygon fill="none" stroke="#000000" points="512.5,-812.5 512.5,-842.5 754.5,-842.5 754.5,-812.5 512.5,-812.5"/>
<text text-anchor="start" x="519.5" y="-823.9" font-family="Arial" font-size="14.00" fill="#000000">deleted_at </text>
<text text-anchor="start" x="588.7566" y="-823.9" font-family="Arial" font-size="14.00" fill="#666666">[datetime]</text>
</g>
<!-- game_play_logs&#45;&gt;v2_game_versions -->
<g id="edge2" class="edge">
<title>game_play_logs:game_version_id&#45;&gt;v2_game_versions:id</title>
<path fill="none" stroke="#000000" d="M762.8395,-971.5987C793.5649,-926.4502 799.3414,-637.5 764.5,-637.5"/>
<polygon fill="#000000" stroke="#000000" points="762.663,-971.7236 751.9006,-973.8267 758.5815,-974.6118 754.5,-977.5 754.5,-977.5 754.5,-977.5 758.5815,-974.6118 757.0994,-981.1733 762.663,-971.7236 762.663,-971.7236"/>
<text text-anchor="start" x="419.043" y="-987.5" font-family="Arial" font-size="10.00" fill="#000000">FOREIGN KEY (game_version_id) REFERENCES v2_game_versions (id)</text>
</g>
<!-- game_version_game_file_relations -->
<g id="node4" class="node">
<title>game_version_game_file_relations</title>
<polygon fill="#efefef" stroke="transparent" points="858.5,-977.5 858.5,-1012.5 1248.5,-1012.5 1248.5,-977.5 858.5,-977.5"/>
<polygon fill="none" stroke="#000000" points="858.5,-977.5 858.5,-1012.5 1248.5,-1012.5 1248.5,-977.5 858.5,-977.5"/>
<text text-anchor="start" x="865.3452" y="-990.3" font-family="Arial Bold" font-size="18.00" fill="#000000">game_version_game_file_relations</text>
<text text-anchor="start" x="1144.401" y="-990.3" font-family="Arial" font-size="14.00" fill="#000000"> </text>
<text text-anchor="start" x="1148.2916" y="-990.3" font-family="Arial" font-size="14.00" fill="#666666">[BASE TABLE]</text>
<polygon fill="none" stroke="#000000" points="858.5,-947.5 858.5,-977.5 1248.5,-977.5 1248.5,-947.5 858.5,-947.5"/>
<text text-anchor="start" x="865.5" y="-958.9" font-family="Arial" font-size="14.00" fill="#000000">game_version_id </text>
<text text-anchor="start" x="975.9684" y="-958.9" font-family="Arial" font-size="14.00" fill="#666666">[varchar(36)]</text>
<polygon fill="none" stroke="#000000" points="858.5,-917.5 858.5,-947.5 1248.5,-947.5 1248.5,-917.5 858.5,-917.5"/>
<text text-anchor="start" x="865.5" y="-928.9" font-family="Arial" font-size="14.00" fill="#000000">game_file_id </text>
<text text-anchor="start" x="948.7398" y="-928.9" font-family="Arial" font-size="14.00" fill="#666666">[varchar(36)]</text>
</g>
<!-- game_version_game_file_relations&#45;&gt;v2_game_versions -->
<g id="edge3" class="edge">
<title>game_version_game_file_relations:game_version_id&#45;&gt;v2_game_versions:id</title>
<path fill="none" stroke="#000000" d="M848.3972,-960.2511C788.5083,-931.5366 836.0114,-637.5 764.5,-637.5"/>
<polygon fill="#000000" stroke="#000000" points="848.7389,-960.3271 857.5222,-966.8925 853.6195,-961.4135 858.5,-962.5 858.5,-962.5 858.5,-962.5 853.6195,-961.4135 859.4778,-958.1075 848.7389,-960.3271 848.7389,-960.3271"/>
<text text-anchor="start" x="865.043" y="-972.5" font-family="Arial" font-size="10.00" fill="#000000">FOREIGN KEY (game_version_id) REFERENCES v2_game_versions (id)</text>
</g>
</g>
</svg>
