<?xml version="1.0" encoding="UTF-8" standalone="no"?>
<!DOCTYPE svg PUBLIC "-//W3C//DTD SVG 1.1//EN"
 "http://www.w3.org/Graphics/SVG/1.1/DTD/svg11.dtd">
<!-- Generated by graphviz version 2.40.1 (20161225.0304)
 -->
<!-- Title: v2_game_versions Pages: 1 -->
<svg width="1300pt" height="1139pt"
 viewBox="0.00 0.00 1299.50 1139.00" xmlns="http://www.w3.org/2000/svg" xmlns:xlink="http://www.w3.org/1999/xlink">
<g id="graph0" class="graph" transform="scale(1 1) rotate(0) translate(4 1135)">
<title>v2_game_versions</title>
<polygon fill="#ffffff" stroke="transparent" points="-4,4 -4,-1135 1295.5,-1135 1295.5,4 -4,4"/>
<!-- v2_game_versions -->
<g id="node1" class="node">
<title>v2_game_versions</title>
<polygon fill="#efefef" stroke="transparent" points="502.5,-622.5 502.5,-657.5 764.5,-657.5 764.5,-622.5 502.5,-622.5"/>
<polygon fill="none" stroke="#000000" points="502.5,-622.5 502.5,-657.5 764.5,-657.5 764.5,-622.5 502.5,-622.5"/>
<text text-anchor="start" x="509.3559" y="-635.3" font-family="Arial Bold" font-size="18.00" fill="#000000">v2_game_versions</text>
<text text-anchor="start" x="660.3903" y="-635.3" font-family="Arial" font-size="14.00" fill="#000000"> </text>
<text text-anchor="start" x="664.2809" y="-635.3" font-family="Arial" font-size="14.00" fill="#666666">[BASE TABLE]</text>
<polygon fill="none" stroke="#000000" points="502.5,-592.5 502.5,-622.5 764.5,-622.5 764.5,-592.5 502.5,-592.5"/>
<text text-anchor="start" x="509.5" y="-603.9" font-family="Arial" font-size="14.00" fill="#000000">id </text>
<text text-anchor="start" x="524.2798" y="-603.9" font-family="Arial" font-size="14.00" fill="#666666">[varchar(36)]</text>
<polygon fill="none" stroke="#000000" points="502.5,-562.5 502.5,-592.5 764.5,-592.5 764.5,-562.5 502.5,-562.5"/>
<text text-anchor="start" x="509.5" y="-573.9" font-family="Arial" font-size="14.00" fill="#000000">game_id </text>
<text text-anchor="start" x="567.0708" y="-573.9" font-family="Arial" font-size="14.00" fill="#666666">[varchar(36)]</text>
<polygon fill="none" stroke="#000000" points="502.5,-532.5 502.5,-562.5 764.5,-562.5 764.5,-532.5 502.5,-532.5"/>
<text text-anchor="start" x="509.5" y="-543.9" font-family="Arial" font-size="14.00" fill="#000000">game_image_id </text>
<text text-anchor="start" x="612.9684" y="-543.9" font-family="Arial" font-size="14.00" fill="#666666">[varchar(36)]</text>
<polygon fill="none" stroke="#000000" points="502.5,-502.5 502.5,-532.5 764.5,-532.5 764.5,-502.5 502.5,-502.5"/>
<text text-anchor="start" x="509.5" y="-513.9" font-family="Arial" font-size="14.00" fill="#000000">game_video_id </text>
<text text-anchor="start" x="608.3078" y="-513.9" font-family="Arial" font-size="14.00" fill="#666666">[varchar(36)]</text>
<polygon fill="none" stroke="#000000" points="502.5,-472.5 502.5,-502.5 764.5,-502.5 764.5,-472.5 502.5,-472.5"/>
<text text-anchor="start" x="509.5" y="-483.9" font-family="Arial" font-size="14.00" fill="#000000">name </text>
<text text-anchor="start" x="548.399" y="-483.9" font-family="Arial" font-size="14.00" fill="#666666">[varchar(32)]</text>
<polygon fill="none" stroke="#000000" points="502.5,-442.5 502.5,-472.5 764.5,-472.5 764.5,-442.5 502.5,-442.5"/>
<text text-anchor="start" x="509.5" y="-453.9" font-family="Arial" font-size="14.00" fill="#000000">description </text>
<text text-anchor="start" x="581.068" y="-453.9" font-family="Arial" font-size="14.00" fill="#666666">[text]</text>
<polygon fill="none" stroke="#000000" points="502.5,-412.5 502.5,-442.5 764.5,-442.5 764.5,-412.5 502.5,-412.5"/>
<text text-anchor="start" x="509.5" y="-423.9" font-family="Arial" font-size="14.00" fill="#000000">created_at </text>
<text text-anchor="start" x="579.528" y="-423.9" font-family="Arial" font-size="14.00" fill="#666666">[datetime]</text>
<polygon fill="none" stroke="#000000" points="502.5,-382.5 502.5,-412.5 764.5,-412.5 764.5,-382.5 502.5,-382.5"/>
<text text-anchor="start" x="509.5" y="-393.9" font-family="Arial" font-size="14.00" fill="#000000">url </text>
<text text-anchor="start" x="528.9404" y="-393.9" font-family="Arial" font-size="14.00" fill="#666666">[text]</text>
<polygon fill="none" stroke="#000000" stroke-width="3" points="501,-381.5 501,-659.5 766,-659.5 766,-381.5 501,-381.5"/>
</g>
<!-- games -->
<g id="node5" class="node">
<title>games</title>
<polygon fill="#efefef" stroke="transparent" points="221.5,-222.5 221.5,-257.5 401.5,-257.5 401.5,-222.5 221.5,-222.5"/>
<polygon fill="none" stroke="#000000" points="221.5,-222.5 221.5,-257.5 401.5,-257.5 401.5,-222.5 221.5,-222.5"/>
<text text-anchor="start" x="235.8677" y="-235.3" font-family="Arial Bold" font-size="18.00" fill="#000000">games</text>
<text text-anchor="start" x="289.8785" y="-235.3" font-family="Arial" font-size="14.00" fill="#000000"> </text>
<text text-anchor="start" x="293.7691" y="-235.3" font-family="Arial" font-size="14.00" fill="#666666">[BASE TABLE]</text>
<polygon fill="none" stroke="#000000" points="221.5,-192.5 221.5,-222.5 401.5,-222.5 401.5,-192.5 221.5,-192.5"/>
<text text-anchor="start" x="228.5" y="-203.9" font-family="Arial" font-size="14.00" fill="#000000">id </text>
<text text-anchor="start" x="243.2798" y="-203.9" font-family="Arial" font-size="14.00" fill="#666666">[varchar(36)]</text>
<polygon fill="none" stroke="#000000" points="221.5,-162.5 221.5,-192.5 401.5,-192.5 401.5,-162.5 221.5,-162.5"/>
<text text-anchor="start" x="228.5" y="-173.9" font-family="Arial" font-size="14.00" fill="#000000">name </text>
<text text-anchor="start" x="267.399" y="-173.9" font-family="Arial" font-size="14.00" fill="#666666">[varchar(256)]</text>
<polygon fill="none" stroke="#000000" points="221.5,-132.5 221.5,-162.5 401.5,-162.5 401.5,-132.5 221.5,-132.5"/>
<text text-anchor="start" x="228.5" y="-143.9" font-family="Arial" font-size="14.00" fill="#000000">description </text>
<text text-anchor="start" x="300.068" y="-143.9" font-family="Arial" font-size="14.00" fill="#666666">[text]</text>
<polygon fill="none" stroke="#000000" points="221.5,-102.5 221.5,-132.5 401.5,-132.5 401.5,-102.5 221.5,-102.5"/>
<text text-anchor="start" x="228.5" y="-113.9" font-family="Arial" font-size="14.00" fill="#000000">created_at </text>
<text text-anchor="start" x="298.528" y="-113.9" font-family="Arial" font-size="14.00" fill="#666666">[datetime]</text>
<polygon fill="none" stroke="#000000" points="221.5,-72.5 221.5,-102.5 401.5,-102.5 401.5,-72.5 221.5,-72.5"/>
<text text-anchor="start" x="228.5" y="-83.9" font-family="Arial" font-size="14.00" fill="#000000">deleted_at </text>
<text text-anchor="start" x="297.7566" y="-83.9" font-family="Arial" font-size="14.00" fill="#666666">[datetime]</text>
<polygon fill="none" stroke="#000000" points="221.5,-42.5 221.5,-72.5 401.5,-72.5 401.5,-42.5 221.5,-42.5"/>
<text text-anchor="start" x="228.2742" y="-53.9" font-family="Arial" font-size="14.00" fill="#000000">visibility_type_id </text>
<text text-anchor="start" x="333.2812" y="-53.9" font-family="Arial" font-size="14.00" fill="#666666">[tinyint(4)]</text>
</g>
<!-- v2_game_versions&#45;&gt;games -->
<g id="edge4" class="edge">
<title>v2_game_versions:game_id&#45;&gt;games:id</title>
<path fill="none" stroke="#000000" d="M492.3455,-575.5093C422.9532,-546.3863 483.0683,-207.5 401.5,-207.5"/>
<polygon fill="#000000" stroke="#000000" points="492.6868,-575.5761 501.6343,-581.9159 497.5934,-576.5381 502.5,-577.5 502.5,-577.5 502.5,-577.5 497.5934,-576.5381 503.3657,-573.0841 492.6868,-575.5761 492.6868,-575.5761"/>
<text text-anchor="start" x="258.886" y="-587.5" font-family="Arial" font-size="10.00" fill="#000000">FOREIGN KEY (game_id) REFERENCES games (id)</text>
</g>
<!-- v2_game_images -->
<g id="node6" class="node">
<title>v2_game_images</title>
<polygon fill="#efefef" stroke="transparent" points="506.5,-192.5 506.5,-227.5 759.5,-227.5 759.5,-192.5 506.5,-192.5"/>
<polygon fill="none" stroke="#000000" points="506.5,-192.5 506.5,-227.5 759.5,-227.5 759.5,-192.5 506.5,-192.5"/>
<text text-anchor="start" x="513.3559" y="-205.3" font-family="Arial Bold" font-size="18.00" fill="#000000">v2_game_images</text>
<text text-anchor="start" x="655.3903" y="-205.3" font-family="Arial" font-size="14.00" fill="#000000"> </text>
<text text-anchor="start" x="659.2809" y="-205.3" font-family="Arial" font-size="14.00" fill="#666666">[BASE TABLE]</text>
<polygon fill="none" stroke="#000000" points="506.5,-162.5 506.5,-192.5 759.5,-192.5 759.5,-162.5 506.5,-162.5"/>
<text text-anchor="start" x="513.5" y="-173.9" font-family="Arial" font-size="14.00" fill="#000000">id </text>
<text text-anchor="start" x="528.2798" y="-173.9" font-family="Arial" font-size="14.00" fill="#666666">[varchar(36)]</text>
<polygon fill="none" stroke="#000000" points="506.5,-132.5 506.5,-162.5 759.5,-162.5 759.5,-132.5 506.5,-132.5"/>
<text text-anchor="start" x="513.5" y="-143.9" font-family="Arial" font-size="14.00" fill="#000000">game_id </text>
<text text-anchor="start" x="571.0708" y="-143.9" font-family="Arial" font-size="14.00" fill="#666666">[varchar(36)]</text>
<polygon fill="none" stroke="#000000" points="506.5,-102.5 506.5,-132.5 759.5,-132.5 759.5,-102.5 506.5,-102.5"/>
<text text-anchor="start" x="513.5" y="-113.9" font-family="Arial" font-size="14.00" fill="#000000">image_type_id </text>
<text text-anchor="start" x="608.4158" y="-113.9" font-family="Arial" font-size="14.00" fill="#666666">[tinyint(4)]</text>
<polygon fill="none" stroke="#000000" points="506.5,-72.5 506.5,-102.5 759.5,-102.5 759.5,-72.5 506.5,-72.5"/>
<text text-anchor="start" x="513.5" y="-83.9" font-family="Arial" font-size="14.00" fill="#000000">created_at </text>
<text text-anchor="start" x="583.528" y="-83.9" font-family="Arial" font-size="14.00" fill="#666666">[datetime]</text>
</g>
<!-- v2_game_versions&#45;&gt;v2_game_images -->
<g id="edge5" class="edge">
<title>v2_game_versions:game_image_id&#45;&gt;v2_game_images:id</title>
<path fill="none" stroke="#000000" d="M492.124,-546.8867C411.8061,-536.9257 447.4008,-408.0371 502.5,-337 574.777,-243.8163 687.223,-364.1837 759.5,-271 784.9689,-238.164 801.0556,-177.5 759.5,-177.5"/>
<polygon fill="#000000" stroke="#000000" points="492.5174,-546.9098 502.2344,-551.9922 497.5087,-547.2049 502.5,-547.5 502.5,-547.5 502.5,-547.5 497.5087,-547.2049 502.7656,-543.0078 492.5174,-546.9098 492.5174,-546.9098"/>
<text text-anchor="start" x="177.043" y="-557.5" font-family="Arial" font-size="10.00" fill="#000000">FOREIGN KEY (game_image_id) REFERENCES v2_game_images (id)</text>
</g>
<!-- v2_game_videos -->
<g id="node7" class="node">
<title>v2_game_videos</title>
<polygon fill="#efefef" stroke="transparent" points="863.5,-192.5 863.5,-227.5 1110.5,-227.5 1110.5,-192.5 863.5,-192.5"/>
<polygon fill="none" stroke="#000000" points="863.5,-192.5 863.5,-227.5 1110.5,-227.5 1110.5,-192.5 863.5,-192.5"/>
<text text-anchor="start" x="870.352" y="-205.3" font-family="Arial Bold" font-size="18.00" fill="#000000">v2_game_videos</text>
<text text-anchor="start" x="1006.3942" y="-205.3" font-family="Arial" font-size="14.00" fill="#000000"> </text>
<text text-anchor="start" x="1010.2848" y="-205.3" font-family="Arial" font-size="14.00" fill="#666666">[BASE TABLE]</text>
<polygon fill="none" stroke="#000000" points="863.5,-162.5 863.5,-192.5 1110.5,-192.5 1110.5,-162.5 863.5,-162.5"/>
<text text-anchor="start" x="870.5" y="-173.9" font-family="Arial" font-size="14.00" fill="#000000">id </text>
<text text-anchor="start" x="885.2798" y="-173.9" font-family="Arial" font-size="14.00" fill="#666666">[varchar(36)]</text>
<polygon fill="none" stroke="#000000" points="863.5,-132.5 863.5,-162.5 1110.5,-162.5 1110.5,-132.5 863.5,-132.5"/>
<text text-anchor="start" x="870.5" y="-143.9" font-family="Arial" font-size="14.00" fill="#000000">game_id </text>
<text text-anchor="start" x="928.0708" y="-143.9" font-family="Arial" font-size="14.00" fill="#666666">[varchar(36)]</text>
<polygon fill="none" stroke="#000000" points="863.5,-102.5 863.5,-132.5 1110.5,-132.5 1110.5,-102.5 863.5,-102.5"/>
<text text-anchor="start" x="870.5" y="-113.9" font-family="Arial" font-size="14.00" fill="#000000">video_type_id </text>
<text text-anchor="start" x="960.7552" y="-113.9" font-family="Arial" font-size="14.00" fill="#666666">[tinyint(4)]</text>
<polygon fill="none" stroke="#000000" points="863.5,-72.5 863.5,-102.5 1110.5,-102.5 1110.5,-72.5 863.5,-72.5"/>
<text text-anchor="start" x="870.5" y="-83.9" font-family="Arial" font-size="14.00" fill="#000000">created_at </text>
<text text-anchor="start" x="940.528" y="-83.9" font-family="Arial" font-size="14.00" fill="#666666">[datetime]</text>
</g>
<!-- v2_game_versions&#45;&gt;v2_game_videos -->
<g id="edge6" class="edge">
<title>v2_game_versions:game_video_id&#45;&gt;v2_game_videos:id</title>
<path fill="none" stroke="#000000" d="M774.3001,-515.5033C838.2243,-487.6392 788.3417,-177.5 863.5,-177.5"/>
<polygon fill="#000000" stroke="#000000" points="774.2987,-515.5035 763.6016,-513.0906 769.3993,-516.5018 764.5,-517.5 764.5,-517.5 764.5,-517.5 769.3993,-516.5018 765.3984,-521.9094 774.2987,-515.5035 774.2987,-515.5035"/>
<text text-anchor="start" x="771.372" y="-527.5" font-family="Arial" font-size="10.00" fill="#000000">FOREIGN KEY (game_video_id) REFERENCES v2_game_videos (id)</text>
</g>
<!-- edition_game_version_relations -->
<g id="node2" class="node">
<title>edition_game_version_relations</title>
<polygon fill="#efefef" stroke="transparent" points="43.5,-947.5 43.5,-982.5 408.5,-982.5 408.5,-947.5 43.5,-947.5"/>
<polygon fill="none" stroke="#000000" points="43.5,-947.5 43.5,-982.5 408.5,-982.5 408.5,-947.5 43.5,-947.5"/>
<text text-anchor="start" x="50.3444" y="-960.3" font-family="Arial Bold" font-size="18.00" fill="#000000">edition_game_version_relations</text>
<text text-anchor="start" x="304.4018" y="-960.3" font-family="Arial" font-size="14.00" fill="#000000"> </text>
<text text-anchor="start" x="308.2924" y="-960.3" font-family="Arial" font-size="14.00" fill="#666666">[BASE TABLE]</text>
<polygon fill="none" stroke="#000000" points="43.5,-917.5 43.5,-947.5 408.5,-947.5 408.5,-917.5 43.5,-917.5"/>
<text text-anchor="start" x="50.5" y="-928.9" font-family="Arial" font-size="14.00" fill="#000000">edition_id </text>
<text text-anchor="start" x="114.2966" y="-928.9" font-family="Arial" font-size="14.00" fill="#666666">[varchar(36)]</text>
<polygon fill="none" stroke="#000000" points="43.5,-887.5 43.5,-917.5 408.5,-917.5 408.5,-887.5 43.5,-887.5"/>
<text text-anchor="start" x="50.5" y="-898.9" font-family="Arial" font-size="14.00" fill="#000000">game_version_id </text>
<text text-anchor="start" x="160.9684" y="-898.9" font-family="Arial" font-size="14.00" fill="#666666">[varchar(36)]</text>
</g>
<!-- edition_game_version_relations&#45;&gt;v2_game_versions -->
<g id="edge1" class="edge">
<title>edition_game_version_relations:game_version_id&#45;&gt;v2_game_versions:id</title>
<path fill="none" stroke="#000000" d="M418.48,-900.1254C473.0167,-872.2071 437.3251,-607.5 502.5,-607.5"/>
<polygon fill="#000000" stroke="#000000" points="418.2284,-900.1852 407.4583,-898.1222 413.3642,-901.3426 408.5,-902.5 408.5,-902.5 408.5,-902.5 413.3642,-901.3426 409.5417,-906.8778 418.2284,-900.1852 418.2284,-900.1852"/>
<text text-anchor="start" x="415.043" y="-912.5" font-family="Arial" font-size="10.00" fill="#000000">FOREIGN KEY (game_version_id) REFERENCES v2_game_versions (id)</text>
</g>
<!-- game_play_logs -->
<g id="node3" class="node">
<title>game_play_logs</title>
<polygon fill="#efefef" stroke="transparent" points="512.5,-1052.5 512.5,-1087.5 754.5,-1087.5 754.5,-1052.5 512.5,-1052.5"/>
<polygon fill="none" stroke="#000000" points="512.5,-1052.5 512.5,-1087.5 754.5,-1087.5 754.5,-1052.5 512.5,-1052.5"/>
<text text-anchor="start" x="519.3549" y="-1065.3" font-family="Arial Bold" font-size="18.00" fill="#000000">game_play_logs</text>
<text text-anchor="start" x="650.3913" y="-1065.3" font-family="Arial" font-size="14.00" fill="#000000"> </text>
<text text-anchor="start" x="654.2819" y="-1065.3" font-family="Arial" font-size="14.00" fill="#666666">[BASE TABLE]</text>
<polygon fill="none" stroke="#000000" points="512.5,-1022.5 512.5,-1052.5 754.5,-1052.5 754.5,-1022.5 512.5,-1022.5"/>
<text text-anchor="start" x="519.5" y="-1033.9" font-family="Arial" font-size="14.00" fill="#000000">id </text>
<text text-anchor="start" x="534.2798" y="-1033.9" font-family="Arial" font-size="14.00" fill="#666666">[varchar(36)]</text>
<polygon fill="none" stroke="#000000" points="512.5,-992.5 512.5,-1022.5 754.5,-1022.5 754.5,-992.5 512.5,-992.5"/>
<text text-anchor="start" x="519.5" y="-1003.9" font-family="Arial" font-size="14.00" fill="#000000">edition_id </text>
<text text-anchor="start" x="583.2966" y="-1003.9" font-family="Arial" font-size="14.00" fill="#666666">[varchar(36)]</text>
<polygon fill="none" stroke="#000000" points="512.5,-962.5 512.5,-992.5 754.5,-992.5 754.5,-962.5 512.5,-962.5"/>
<text text-anchor="start" x="519.5" y="-973.9" font-family="Arial" font-size="14.00" fill="#000000">game_id </text>
<text text-anchor="start" x="577.0708" y="-973.9" font-family="Arial" font-size="14.00" fill="#666666">[varchar(36)]</text>
<polygon fill="none" stroke="#000000" points="512.5,-932.5 512.5,-962.5 754.5,-962.5 754.5,-932.5 512.5,-932.5"/>
<text text-anchor="start" x="519.5" y="-943.9" font-family="Arial" font-size="14.00" fill="#000000">game_version_id </text>
<text text-anchor="start" x="629.9684" y="-943.9" font-family="Arial" font-size="14.00" fill="#666666">[varchar(36)]</text>
<polygon fill="none" stroke="#000000" points="512.5,-902.5 512.5,-932.5 754.5,-932.5 754.5,-902.5 512.5,-902.5"/>
<text text-anchor="start" x="519.5" y="-913.9" font-family="Arial" font-size="14.00" fill="#000000">start_time </text>
<text text-anchor="start" x="584.838" y="-913.9" font-family="Arial" font-size="14.00" fill="#666666">[datetime]</text>
<polygon fill="none" stroke="#000000" points="512.5,-872.5 512.5,-902.5 754.5,-902.5 754.5,-872.5 512.5,-872.5"/>
<text text-anchor="start" x="519.5" y="-883.9" font-family="Arial" font-size="14.00" fill="#000000">end_time </text>
<text text-anchor="start" x="580.9614" y="-883.9" font-family="Arial" font-size="14.00" fill="#666666">[datetime]</text>
<polygon fill="none" stroke="#000000" points="512.5,-842.5 512.5,-872.5 754.5,-872.5 754.5,-842.5 512.5,-842.5"/>
<text text-anchor="start" x="519.5" y="-853.9" font-family="Arial" font-size="14.00" fill="#000000">created_at </text>
<text text-anchor="start" x="589.528" y="-853.9" font-family="Arial" font-size="14.00" fill="#666666">[datetime]</text>
<polygon fill="none" stroke="#000000" points="512.5,-812.5 512.5,-842.5 754.5,-842.5 754.5,-812.5 512.5,-812.5"/>
<text text-anchor="start" x="519.5" y="-823.9" font-family="Arial" font-size="14.00" fill="#000000">updated_at </text>
<text text-anchor="start" x="593.4326" y="-823.9" font-family="Arial" font-size="14.00" fill="#666666">[datetime]</text>
<polygon fill="none" stroke="#000000" points="512.5,-782.5 512.5,-812.5 754.5,-812.5 754.5,-782.5 512.5,-782.5"/>
<text text-anchor="start" x="519.5" y="-793.9" font-family="Arial" font-size="14.00" fill="#000000">deleted_at </text>
<text text-anchor="start" x="588.7566" y="-793.9" font-family="Arial" font-size="14.00" fill="#666666">[datetime]</text>
</g>
<!-- game_play_logs&#45;&gt;v2_game_versions -->
<g id="edge2" class="edge">
<title>game_play_logs:game_version_id&#45;&gt;v2_game_versions:id</title>
<path fill="none" stroke="#000000" d="M762.8395,-941.5987C793.5649,-896.4502 799.3414,-607.5 764.5,-607.5"/>
<polygon fill="#000000" stroke="#000000" points="762.663,-941.7236 751.9006,-943.8267 758.5815,-944.6118 754.5,-947.5 754.5,-947.5 754.5,-947.5 758.5815,-944.6118 757.0994,-951.1733 762.663,-941.7236 762.663,-941.7236"/>
<text text-anchor="start" x="419.043" y="-957.5" font-family="Arial" font-size="10.00" fill="#000000">FOREIGN KEY (game_version_id) REFERENCES v2_game_versions (id)</text>
</g>
<!-- game_version_game_file_relations -->
<g id="node4" class="node">
<title>game_version_game_file_relations</title>
<polygon fill="#efefef" stroke="transparent" points="858.5,-947.5 858.5,-982.5 1248.5,-982.5 1248.5,-947.5 858.5,-947.5"/>
<polygon fill="none" stroke="#000000" points="858.5,-947.5 858.5,-982.5 1248.5,-982.5 1248.5,-947.5 858.5,-947.5"/>
<text text-anchor="start" x="865.3452" y="-960.3" font-family="Arial Bold" font-size="18.00" fill="#000000">game_version_game_file_relations</text>
<text text-anchor="start" x="1144.401" y="-960.3" font-family="Arial" font-size="14.00" fill="#000000"> </text>
<text text-anchor="start" x="1148.2916" y="-960.3" font-family="Arial" font-size="14.00" fill="#666666">[BASE TABLE]</text>
<polygon fill="none" stroke="#000000" points="858.5,-917.5 858.5,-947.5 1248.5,-947.5 1248.5,-917.5 858.5,-917.5"/>
<text text-anchor="start" x="865.5" y="-928.9" font-family="Arial" font-size="14.00" fill="#000000">game_version_id </text>
<text text-anchor="start" x="975.9684" y="-928.9" font-family="Arial" font-size="14.00" fill="#666666">[varchar(36)]</text>
<polygon fill="none" stroke="#000000" points="858.5,-887.5 858.5,-917.5 1248.5,-917.5 1248.5,-887.5 858.5,-887.5"/>
<text text-anchor="start" x="865.5" y="-898.9" font-family="Arial" font-size="14.00" fill="#000000">game_file_id </text>
<text text-anchor="start" x="948.7398" y="-898.9" font-family="Arial" font-size="14.00" fill="#666666">[varchar(36)]</text>
</g>
<!-- game_version_game_file_relations&#45;&gt;v2_game_versions -->
<g id="edge3" class="edge">
<title>game_version_game_file_relations:game_version_id&#45;&gt;v2_game_versions:id</title>
<path fill="none" stroke="#000000" d="M848.3972,-930.2511C788.5083,-901.5366 836.0114,-607.5 764.5,-607.5"/>
<polygon fill="#000000" stroke="#000000" points="848.7389,-930.3271 857.5222,-936.8925 853.6195,-931.4135 858.5,-932.5 858.5,-932.5 858.5,-932.5 853.6195,-931.4135 859.4778,-928.1075 848.7389,-930.3271 848.7389,-930.3271"/>
<text text-anchor="start" x="865.043" y="-942.5" font-family="Arial" font-size="10.00" fill="#000000">FOREIGN KEY (game_version_id) REFERENCES v2_game_versions (id)</text>
</g>
</g>
</svg>
