<?xml version="1.0" encoding="UTF-8" standalone="no"?>
<!DOCTYPE svg PUBLIC "-//W3C//DTD SVG 1.1//EN"
 "http://www.w3.org/Graphics/SVG/1.1/DTD/svg11.dtd">
<!-- Generated by graphviz version 2.40.1 (20161225.0304)
 -->
<!-- Title: v2_game_files Pages: 1 -->
<svg width="792pt" height="899pt"
 viewBox="0.00 0.00 792.00 899.00" xmlns="http://www.w3.org/2000/svg" xmlns:xlink="http://www.w3.org/1999/xlink">
<g id="graph0" class="graph" transform="scale(1 1) rotate(0) translate(4 895)">
<title>v2_game_files</title>
<polygon fill="#ffffff" stroke="transparent" points="-4,4 -4,-895 788,-895 788,4 -4,4"/>
<!-- v2_game_files -->
<g id="node1" class="node">
<title>v2_game_files</title>
<polygon fill="#efefef" stroke="transparent" points="251,-592.5 251,-627.5 478,-627.5 478,-592.5 251,-592.5"/>
<polygon fill="none" stroke="#000000" points="251,-592.5 251,-627.5 478,-627.5 478,-592.5 251,-592.5"/>
<text text-anchor="start" x="257.86" y="-605.3" font-family="Arial Bold" font-size="18.00" fill="#000000">v2_game_files</text>
<text text-anchor="start" x="373.8862" y="-605.3" font-family="Arial" font-size="14.00" fill="#000000"> </text>
<text text-anchor="start" x="377.7768" y="-605.3" font-family="Arial" font-size="14.00" fill="#666666">[BASE TABLE]</text>
<polygon fill="none" stroke="#000000" points="251,-562.5 251,-592.5 478,-592.5 478,-562.5 251,-562.5"/>
<text text-anchor="start" x="258" y="-573.9" font-family="Arial" font-size="14.00" fill="#000000">id </text>
<text text-anchor="start" x="272.7798" y="-573.9" font-family="Arial" font-size="14.00" fill="#666666">[varchar(36)]</text>
<polygon fill="none" stroke="#000000" points="251,-532.5 251,-562.5 478,-562.5 478,-532.5 251,-532.5"/>
<text text-anchor="start" x="258" y="-543.9" font-family="Arial" font-size="14.00" fill="#000000">game_id </text>
<text text-anchor="start" x="315.5708" y="-543.9" font-family="Arial" font-size="14.00" fill="#666666">[varchar(36)]</text>
<polygon fill="none" stroke="#000000" points="251,-502.5 251,-532.5 478,-532.5 478,-502.5 251,-502.5"/>
<text text-anchor="start" x="258" y="-513.9" font-family="Arial" font-size="14.00" fill="#000000">file_type_id </text>
<text text-anchor="start" x="332.6872" y="-513.9" font-family="Arial" font-size="14.00" fill="#666666">[tinyint(4)]</text>
<polygon fill="none" stroke="#000000" points="251,-472.5 251,-502.5 478,-502.5 478,-472.5 251,-472.5"/>
<text text-anchor="start" x="258" y="-483.9" font-family="Arial" font-size="14.00" fill="#000000">hash </text>
<text text-anchor="start" x="292.2384" y="-483.9" font-family="Arial" font-size="14.00" fill="#666666">[char(32)]</text>
<polygon fill="none" stroke="#000000" points="251,-442.5 251,-472.5 478,-472.5 478,-442.5 251,-442.5"/>
<text text-anchor="start" x="258" y="-453.9" font-family="Arial" font-size="14.00" fill="#000000">entry_point </text>
<text text-anchor="start" x="331.1346" y="-453.9" font-family="Arial" font-size="14.00" fill="#666666">[text]</text>
<polygon fill="none" stroke="#000000" points="251,-412.5 251,-442.5 478,-442.5 478,-412.5 251,-412.5"/>
<text text-anchor="start" x="258" y="-423.9" font-family="Arial" font-size="14.00" fill="#000000">created_at </text>
<text text-anchor="start" x="328.028" y="-423.9" font-family="Arial" font-size="14.00" fill="#666666">[datetime]</text>
<polygon fill="none" stroke="#000000" stroke-width="3" points="249,-411.5 249,-629.5 479,-629.5 479,-411.5 249,-411.5"/>
</g>
<!-- games -->
<g id="node3" class="node">
<title>games</title>
<polygon fill="#efefef" stroke="transparent" points="70,-252.5 70,-287.5 313,-287.5 313,-252.5 70,-252.5"/>
<polygon fill="none" stroke="#000000" points="70,-252.5 70,-287.5 313,-287.5 313,-252.5 70,-252.5"/>
<text text-anchor="start" x="115.8677" y="-265.3" font-family="Arial Bold" font-size="18.00" fill="#000000">games</text>
<text text-anchor="start" x="169.8785" y="-265.3" font-family="Arial" font-size="14.00" fill="#000000"> </text>
<text text-anchor="start" x="173.7691" y="-265.3" font-family="Arial" font-size="14.00" fill="#666666">[BASE TABLE]</text>
<polygon fill="none" stroke="#000000" points="70,-222.5 70,-252.5 313,-252.5 313,-222.5 70,-222.5"/>
<text text-anchor="start" x="77" y="-233.9" font-family="Arial" font-size="14.00" fill="#000000">id </text>
<text text-anchor="start" x="91.7798" y="-233.9" font-family="Arial" font-size="14.00" fill="#666666">[varchar(36)]</text>
<polygon fill="none" stroke="#000000" points="70,-192.5 70,-222.5 313,-222.5 313,-192.5 70,-192.5"/>
<text text-anchor="start" x="77" y="-203.9" font-family="Arial" font-size="14.00" fill="#000000">name </text>
<text text-anchor="start" x="115.899" y="-203.9" font-family="Arial" font-size="14.00" fill="#666666">[varchar(256)]</text>
<polygon fill="none" stroke="#000000" points="70,-162.5 70,-192.5 313,-192.5 313,-162.5 70,-162.5"/>
<text text-anchor="start" x="77" y="-173.9" font-family="Arial" font-size="14.00" fill="#000000">description </text>
<text text-anchor="start" x="148.568" y="-173.9" font-family="Arial" font-size="14.00" fill="#666666">[text]</text>
<polygon fill="none" stroke="#000000" points="70,-132.5 70,-162.5 313,-162.5 313,-132.5 70,-132.5"/>
<text text-anchor="start" x="77" y="-143.9" font-family="Arial" font-size="14.00" fill="#000000">created_at </text>
<text text-anchor="start" x="147.028" y="-143.9" font-family="Arial" font-size="14.00" fill="#666666">[datetime]</text>
<polygon fill="none" stroke="#000000" points="70,-102.5 70,-132.5 313,-132.5 313,-102.5 70,-102.5"/>
<text text-anchor="start" x="77" y="-113.9" font-family="Arial" font-size="14.00" fill="#000000">deleted_at </text>
<text text-anchor="start" x="146.2566" y="-113.9" font-family="Arial" font-size="14.00" fill="#666666">[datetime]</text>
<polygon fill="none" stroke="#000000" points="70,-72.5 70,-102.5 313,-102.5 313,-72.5 70,-72.5"/>
<text text-anchor="start" x="77" y="-83.9" font-family="Arial" font-size="14.00" fill="#000000">visibility_type_id </text>
<text text-anchor="start" x="182.007" y="-83.9" font-family="Arial" font-size="14.00" fill="#666666">[tinyint(4)]</text>
<polygon fill="none" stroke="#000000" points="70,-42.5 70,-72.5 313,-72.5 313,-42.5 70,-42.5"/>
<text text-anchor="start" x="76.7371" y="-53.9" font-family="Arial" font-size="14.00" fill="#000000">latest_version_updated_at </text>
<text text-anchor="start" x="244.8029" y="-53.9" font-family="Arial" font-size="14.00" fill="#666666">[datetime]</text>
</g>
<!-- v2_game_files&#45;&gt;games -->
<g id="edge2" class="edge">
<title>v2_game_files:game_id&#45;&gt;games:id</title>
<path fill="none" stroke="#000000" d="M240.9069,-546.842C174.3889,-537.6131 212.7727,-433.4008 251,-367 266.8979,-339.3854 297.1021,-358.6146 313,-331 333.7334,-294.9862 354.5556,-237.5 313,-237.5"/>
<polygon fill="#000000" stroke="#000000" points="241.0212,-546.8493 250.7072,-551.9905 246.0106,-547.1747 251,-547.5 251,-547.5 251,-547.5 246.0106,-547.1747 251.2928,-543.0095 241.0212,-546.8493 241.0212,-546.8493"/>
<text text-anchor="start" x="7.386" y="-557.5" font-family="Arial" font-size="10.00" fill="#000000">FOREIGN KEY (game_id) REFERENCES games (id)</text>
</g>
<!-- game_file_types -->
<g id="node4" class="node">
<title>game_file_types</title>
<polygon fill="#efefef" stroke="transparent" points="417,-192.5 417,-227.5 659,-227.5 659,-192.5 417,-192.5"/>
<polygon fill="none" stroke="#000000" points="417,-192.5 417,-227.5 659,-227.5 659,-192.5 417,-192.5"/>
<text text-anchor="start" x="423.8558" y="-205.3" font-family="Arial Bold" font-size="18.00" fill="#000000">game_file_types</text>
<text text-anchor="start" x="554.8904" y="-205.3" font-family="Arial" font-size="14.00" fill="#000000"> </text>
<text text-anchor="start" x="558.781" y="-205.3" font-family="Arial" font-size="14.00" fill="#666666">[BASE TABLE]</text>
<polygon fill="none" stroke="#000000" points="417,-162.5 417,-192.5 659,-192.5 659,-162.5 417,-162.5"/>
<text text-anchor="start" x="424" y="-173.9" font-family="Arial" font-size="14.00" fill="#000000">id </text>
<text text-anchor="start" x="438.7798" y="-173.9" font-family="Arial" font-size="14.00" fill="#666666">[tinyint(4)]</text>
<polygon fill="none" stroke="#000000" points="417,-132.5 417,-162.5 659,-162.5 659,-132.5 417,-132.5"/>
<text text-anchor="start" x="424" y="-143.9" font-family="Arial" font-size="14.00" fill="#000000">name </text>
<text text-anchor="start" x="462.899" y="-143.9" font-family="Arial" font-size="14.00" fill="#666666">[varchar(32)]</text>
<polygon fill="none" stroke="#000000" points="417,-102.5 417,-132.5 659,-132.5 659,-102.5 417,-102.5"/>
<text text-anchor="start" x="424" y="-113.9" font-family="Arial" font-size="14.00" fill="#000000">active </text>
<text text-anchor="start" x="464.453" y="-113.9" font-family="Arial" font-size="14.00" fill="#666666">[tinyint(1)]</text>
</g>
<!-- v2_game_files&#45;&gt;game_file_types -->
<g id="edge3" class="edge">
<title>v2_game_files:file_type_id&#45;&gt;game_file_types:id</title>
<path fill="none" stroke="#000000" d="M488.0312,-517.1405C625.5433,-506.7884 418.5362,-276.2819 417,-271 405.395,-231.0978 375.4444,-177.5 417,-177.5"/>
<polygon fill="#000000" stroke="#000000" points="487.9936,-517.1418 477.8388,-513.0029 482.9968,-517.3209 478,-517.5 478,-517.5 478,-517.5 482.9968,-517.3209 478.1612,-521.9971 487.9936,-517.1418 487.9936,-517.1418"/>
<text text-anchor="start" x="484.8775" y="-527.5" font-family="Arial" font-size="10.00" fill="#000000">FOREIGN KEY (file_type_id) REFERENCES game_file_types (id)</text>
</g>
<!-- game_version_game_file_relations -->
<g id="node2" class="node">
<title>game_version_game_file_relations</title>
<polygon fill="#efefef" stroke="transparent" points="170,-812.5 170,-847.5 560,-847.5 560,-812.5 170,-812.5"/>
<polygon fill="none" stroke="#000000" points="170,-812.5 170,-847.5 560,-847.5 560,-812.5 170,-812.5"/>
<text text-anchor="start" x="176.8452" y="-825.3" font-family="Arial Bold" font-size="18.00" fill="#000000">game_version_game_file_relations</text>
<text text-anchor="start" x="455.901" y="-825.3" font-family="Arial" font-size="14.00" fill="#000000"> </text>
<text text-anchor="start" x="459.7916" y="-825.3" font-family="Arial" font-size="14.00" fill="#666666">[BASE TABLE]</text>
<polygon fill="none" stroke="#000000" points="170,-782.5 170,-812.5 560,-812.5 560,-782.5 170,-782.5"/>
<text text-anchor="start" x="177" y="-793.9" font-family="Arial" font-size="14.00" fill="#000000">game_version_id </text>
<text text-anchor="start" x="287.4684" y="-793.9" font-family="Arial" font-size="14.00" fill="#666666">[varchar(36)]</text>
<polygon fill="none" stroke="#000000" points="170,-752.5 170,-782.5 560,-782.5 560,-752.5 170,-752.5"/>
<text text-anchor="start" x="177" y="-763.9" font-family="Arial" font-size="14.00" fill="#000000">game_file_id </text>
<text text-anchor="start" x="260.2398" y="-763.9" font-family="Arial" font-size="14.00" fill="#666666">[varchar(36)]</text>
</g>
<!-- game_version_game_file_relations&#45;&gt;v2_game_files -->
<g id="edge1" class="edge">
<title>game_version_game_file_relations:game_file_id&#45;&gt;v2_game_files:id</title>
<path fill="none" stroke="#000000" d="M365.8998,-742.4281C375.0456,-695.476 451.3785,-724.9085 478,-674 497.8745,-635.9939 520.8889,-577.5 478,-577.5"/>
<polygon fill="#000000" stroke="#000000" points="365.8899,-742.5397 360.5179,-752.0995 365.445,-747.5198 365,-752.5 365,-752.5 365,-752.5 365.445,-747.5198 369.4821,-752.9005 365.8899,-742.5397 365.8899,-742.5397"/>
<text text-anchor="start" x="67.992" y="-762.5" font-family="Arial" font-size="10.00" fill="#000000">FOREIGN KEY (game_file_id) REFERENCES v2_game_files (id)</text>
</g>
</g>
</svg>
