<?xml version="1.0" encoding="UTF-8" standalone="no"?>
<!DOCTYPE svg PUBLIC "-//W3C//DTD SVG 1.1//EN"
 "http://www.w3.org/Graphics/SVG/1.1/DTD/svg11.dtd">
<!-- Generated by graphviz version 2.40.1 (20161225.0304)
 -->
<!-- Title: v2_game_files Pages: 1 -->
<svg width="792pt" height="869pt"
 viewBox="0.00 0.00 792.00 869.00" xmlns="http://www.w3.org/2000/svg" xmlns:xlink="http://www.w3.org/1999/xlink">
<g id="graph0" class="graph" transform="scale(1 1) rotate(0) translate(4 865)">
<title>v2_game_files</title>
<polygon fill="#ffffff" stroke="transparent" points="-4,4 -4,-865 788,-865 788,4 -4,4"/>
<!-- v2_game_files -->
<g id="node1" class="node">
<title>v2_game_files</title>
<polygon fill="#efefef" stroke="transparent" points="251,-562.5 251,-597.5 478,-597.5 478,-562.5 251,-562.5"/>
<polygon fill="none" stroke="#000000" points="251,-562.5 251,-597.5 478,-597.5 478,-562.5 251,-562.5"/>
<text text-anchor="start" x="257.86" y="-575.3" font-family="Arial Bold" font-size="18.00" fill="#000000">v2_game_files</text>
<text text-anchor="start" x="373.8862" y="-575.3" font-family="Arial" font-size="14.00" fill="#000000"> </text>
<text text-anchor="start" x="377.7768" y="-575.3" font-family="Arial" font-size="14.00" fill="#666666">[BASE TABLE]</text>
<polygon fill="none" stroke="#000000" points="251,-532.5 251,-562.5 478,-562.5 478,-532.5 251,-532.5"/>
<text text-anchor="start" x="258" y="-543.9" font-family="Arial" font-size="14.00" fill="#000000">id </text>
<text text-anchor="start" x="272.7798" y="-543.9" font-family="Arial" font-size="14.00" fill="#666666">[varchar(36)]</text>
<polygon fill="none" stroke="#000000" points="251,-502.5 251,-532.5 478,-532.5 478,-502.5 251,-502.5"/>
<text text-anchor="start" x="258" y="-513.9" font-family="Arial" font-size="14.00" fill="#000000">game_id </text>
<text text-anchor="start" x="315.5708" y="-513.9" font-family="Arial" font-size="14.00" fill="#666666">[varchar(36)]</text>
<polygon fill="none" stroke="#000000" points="251,-472.5 251,-502.5 478,-502.5 478,-472.5 251,-472.5"/>
<text text-anchor="start" x="258" y="-483.9" font-family="Arial" font-size="14.00" fill="#000000">file_type_id </text>
<text text-anchor="start" x="332.6872" y="-483.9" font-family="Arial" font-size="14.00" fill="#666666">[tinyint(4)]</text>
<polygon fill="none" stroke="#000000" points="251,-442.5 251,-472.5 478,-472.5 478,-442.5 251,-442.5"/>
<text text-anchor="start" x="258" y="-453.9" font-family="Arial" font-size="14.00" fill="#000000">hash </text>
<text text-anchor="start" x="292.2384" y="-453.9" font-family="Arial" font-size="14.00" fill="#666666">[char(32)]</text>
<polygon fill="none" stroke="#000000" points="251,-412.5 251,-442.5 478,-442.5 478,-412.5 251,-412.5"/>
<text text-anchor="start" x="258" y="-423.9" font-family="Arial" font-size="14.00" fill="#000000">entry_point </text>
<text text-anchor="start" x="331.1346" y="-423.9" font-family="Arial" font-size="14.00" fill="#666666">[text]</text>
<polygon fill="none" stroke="#000000" points="251,-382.5 251,-412.5 478,-412.5 478,-382.5 251,-382.5"/>
<text text-anchor="start" x="258" y="-393.9" font-family="Arial" font-size="14.00" fill="#000000">created_at </text>
<text text-anchor="start" x="328.028" y="-393.9" font-family="Arial" font-size="14.00" fill="#666666">[datetime]</text>
<polygon fill="none" stroke="#000000" stroke-width="3" points="249,-381.5 249,-599.5 479,-599.5 479,-381.5 249,-381.5"/>
</g>
<!-- games -->
<g id="node3" class="node">
<title>games</title>
<polygon fill="#efefef" stroke="transparent" points="118,-222.5 118,-257.5 298,-257.5 298,-222.5 118,-222.5"/>
<polygon fill="none" stroke="#000000" points="118,-222.5 118,-257.5 298,-257.5 298,-222.5 118,-222.5"/>
<text text-anchor="start" x="132.3677" y="-235.3" font-family="Arial Bold" font-size="18.00" fill="#000000">games</text>
<text text-anchor="start" x="186.3785" y="-235.3" font-family="Arial" font-size="14.00" fill="#000000"> </text>
<text text-anchor="start" x="190.2691" y="-235.3" font-family="Arial" font-size="14.00" fill="#666666">[BASE TABLE]</text>
<polygon fill="none" stroke="#000000" points="118,-192.5 118,-222.5 298,-222.5 298,-192.5 118,-192.5"/>
<text text-anchor="start" x="125" y="-203.9" font-family="Arial" font-size="14.00" fill="#000000">id </text>
<text text-anchor="start" x="139.7798" y="-203.9" font-family="Arial" font-size="14.00" fill="#666666">[varchar(36)]</text>
<polygon fill="none" stroke="#000000" points="118,-162.5 118,-192.5 298,-192.5 298,-162.5 118,-162.5"/>
<text text-anchor="start" x="125" y="-173.9" font-family="Arial" font-size="14.00" fill="#000000">name </text>
<text text-anchor="start" x="163.899" y="-173.9" font-family="Arial" font-size="14.00" fill="#666666">[varchar(256)]</text>
<polygon fill="none" stroke="#000000" points="118,-132.5 118,-162.5 298,-162.5 298,-132.5 118,-132.5"/>
<text text-anchor="start" x="125" y="-143.9" font-family="Arial" font-size="14.00" fill="#000000">description </text>
<text text-anchor="start" x="196.568" y="-143.9" font-family="Arial" font-size="14.00" fill="#666666">[text]</text>
<polygon fill="none" stroke="#000000" points="118,-102.5 118,-132.5 298,-132.5 298,-102.5 118,-102.5"/>
<text text-anchor="start" x="125" y="-113.9" font-family="Arial" font-size="14.00" fill="#000000">created_at </text>
<text text-anchor="start" x="195.028" y="-113.9" font-family="Arial" font-size="14.00" fill="#666666">[datetime]</text>
<polygon fill="none" stroke="#000000" points="118,-72.5 118,-102.5 298,-102.5 298,-72.5 118,-72.5"/>
<text text-anchor="start" x="125" y="-83.9" font-family="Arial" font-size="14.00" fill="#000000">deleted_at </text>
<text text-anchor="start" x="194.2566" y="-83.9" font-family="Arial" font-size="14.00" fill="#666666">[datetime]</text>
<polygon fill="none" stroke="#000000" points="118,-42.5 118,-72.5 298,-72.5 298,-42.5 118,-42.5"/>
<text text-anchor="start" x="124.7742" y="-53.9" font-family="Arial" font-size="14.00" fill="#000000">visibility_type_id </text>
<text text-anchor="start" x="229.7812" y="-53.9" font-family="Arial" font-size="14.00" fill="#666666">[tinyint(4)]</text>
</g>
<!-- v2_game_files&#45;&gt;games -->
<g id="edge2" class="edge">
<title>v2_game_files:game_id&#45;&gt;games:id</title>
<path fill="none" stroke="#000000" d="M240.933,-516.8559C174.7761,-507.8199 217.0829,-405.7024 251,-337 262.6479,-313.4061 286.3521,-324.5939 298,-301 316.3956,-263.7379 339.5556,-207.5 298,-207.5"/>
<polygon fill="#000000" stroke="#000000" points="241.0204,-516.8614 250.7126,-521.9908 246.0102,-517.1807 251,-517.5 251,-517.5 251,-517.5 246.0102,-517.1807 251.2874,-513.0092 241.0204,-516.8614 241.0204,-516.8614"/>
<text text-anchor="start" x="7.386" y="-527.5" font-family="Arial" font-size="10.00" fill="#000000">FOREIGN KEY (game_id) REFERENCES games (id)</text>
</g>
<!-- game_file_types -->
<g id="node4" class="node">
<title>game_file_types</title>
<polygon fill="#efefef" stroke="transparent" points="402,-177.5 402,-212.5 644,-212.5 644,-177.5 402,-177.5"/>
<polygon fill="none" stroke="#000000" points="402,-177.5 402,-212.5 644,-212.5 644,-177.5 402,-177.5"/>
<text text-anchor="start" x="408.8558" y="-190.3" font-family="Arial Bold" font-size="18.00" fill="#000000">game_file_types</text>
<text text-anchor="start" x="539.8904" y="-190.3" font-family="Arial" font-size="14.00" fill="#000000"> </text>
<text text-anchor="start" x="543.781" y="-190.3" font-family="Arial" font-size="14.00" fill="#666666">[BASE TABLE]</text>
<polygon fill="none" stroke="#000000" points="402,-147.5 402,-177.5 644,-177.5 644,-147.5 402,-147.5"/>
<text text-anchor="start" x="409" y="-158.9" font-family="Arial" font-size="14.00" fill="#000000">id </text>
<text text-anchor="start" x="423.7798" y="-158.9" font-family="Arial" font-size="14.00" fill="#666666">[tinyint(4)]</text>
<polygon fill="none" stroke="#000000" points="402,-117.5 402,-147.5 644,-147.5 644,-117.5 402,-117.5"/>
<text text-anchor="start" x="409" y="-128.9" font-family="Arial" font-size="14.00" fill="#000000">name </text>
<text text-anchor="start" x="447.899" y="-128.9" font-family="Arial" font-size="14.00" fill="#666666">[varchar(32)]</text>
<polygon fill="none" stroke="#000000" points="402,-87.5 402,-117.5 644,-117.5 644,-87.5 402,-87.5"/>
<text text-anchor="start" x="409" y="-98.9" font-family="Arial" font-size="14.00" fill="#000000">active </text>
<text text-anchor="start" x="449.453" y="-98.9" font-family="Arial" font-size="14.00" fill="#666666">[tinyint(1)]</text>
</g>
<!-- v2_game_files&#45;&gt;game_file_types -->
<g id="edge3" class="edge">
<title>v2_game_files:file_type_id&#45;&gt;game_file_types:id</title>
<path fill="none" stroke="#000000" d="M488.2635,-487.3333C682.9998,-480.7834 412.7978,-283.2889 402,-256 386.7105,-217.3594 360.4444,-162.5 402,-162.5"/>
<polygon fill="#000000" stroke="#000000" points="487.9987,-487.3375 477.9269,-483.0006 482.9993,-487.4187 478,-487.5 478,-487.5 478,-487.5 482.9993,-487.4187 478.0731,-491.9994 487.9987,-487.3375 487.9987,-487.3375"/>
<text text-anchor="start" x="484.8775" y="-497.5" font-family="Arial" font-size="10.00" fill="#000000">FOREIGN KEY (file_type_id) REFERENCES game_file_types (id)</text>
</g>
<!-- game_version_game_file_relations -->
<g id="node2" class="node">
<title>game_version_game_file_relations</title>
<polygon fill="#efefef" stroke="transparent" points="170,-782.5 170,-817.5 560,-817.5 560,-782.5 170,-782.5"/>
<polygon fill="none" stroke="#000000" points="170,-782.5 170,-817.5 560,-817.5 560,-782.5 170,-782.5"/>
<text text-anchor="start" x="176.8452" y="-795.3" font-family="Arial Bold" font-size="18.00" fill="#000000">game_version_game_file_relations</text>
<text text-anchor="start" x="455.901" y="-795.3" font-family="Arial" font-size="14.00" fill="#000000"> </text>
<text text-anchor="start" x="459.7916" y="-795.3" font-family="Arial" font-size="14.00" fill="#666666">[BASE TABLE]</text>
<polygon fill="none" stroke="#000000" points="170,-752.5 170,-782.5 560,-782.5 560,-752.5 170,-752.5"/>
<text text-anchor="start" x="177" y="-763.9" font-family="Arial" font-size="14.00" fill="#000000">game_version_id </text>
<text text-anchor="start" x="287.4684" y="-763.9" font-family="Arial" font-size="14.00" fill="#666666">[varchar(36)]</text>
<polygon fill="none" stroke="#000000" points="170,-722.5 170,-752.5 560,-752.5 560,-722.5 170,-722.5"/>
<text text-anchor="start" x="177" y="-733.9" font-family="Arial" font-size="14.00" fill="#000000">game_file_id </text>
<text text-anchor="start" x="260.2398" y="-733.9" font-family="Arial" font-size="14.00" fill="#666666">[varchar(36)]</text>
</g>
<!-- game_version_game_file_relations&#45;&gt;v2_game_files -->
<g id="edge1" class="edge">
<title>game_version_game_file_relations:game_file_id&#45;&gt;v2_game_files:id</title>
<path fill="none" stroke="#000000" d="M365.8998,-712.4281C375.0456,-665.476 451.3785,-694.9085 478,-644 497.8745,-605.9939 520.8889,-547.5 478,-547.5"/>
<polygon fill="#000000" stroke="#000000" points="365.8899,-712.5397 360.5179,-722.0995 365.445,-717.5198 365,-722.5 365,-722.5 365,-722.5 365.445,-717.5198 369.4821,-722.9005 365.8899,-712.5397 365.8899,-712.5397"/>
<text text-anchor="start" x="67.992" y="-732.5" font-family="Arial" font-size="10.00" fill="#000000">FOREIGN KEY (game_file_id) REFERENCES v2_game_files (id)</text>
</g>
</g>
</svg>
