<?xml version="1.0" encoding="UTF-8" standalone="no"?>
<!DOCTYPE svg PUBLIC "-//W3C//DTD SVG 1.1//EN"
 "http://www.w3.org/Graphics/SVG/1.1/DTD/svg11.dtd">
<!-- Generated by graphviz version 2.40.1 (20161225.0304)
 -->
<!-- Title: v2_game_versions Pages: 1 -->
<svg width="954pt" height="839pt"
 viewBox="0.00 0.00 953.50 839.00" xmlns="http://www.w3.org/2000/svg" xmlns:xlink="http://www.w3.org/1999/xlink">
<g id="graph0" class="graph" transform="scale(1 1) rotate(0) translate(4 835)">
<title>v2_game_versions</title>
<polygon fill="#ffffff" stroke="transparent" points="-4,4 -4,-835 949.5,-835 949.5,4 -4,4"/>
<!-- v2_game_versions -->
<g id="node1" class="node">
<title>v2_game_versions</title>
<polygon fill="#efefef" stroke="transparent" points="335.5,-532.5 335.5,-567.5 597.5,-567.5 597.5,-532.5 335.5,-532.5"/>
<polygon fill="none" stroke="#000000" points="335.5,-532.5 335.5,-567.5 597.5,-567.5 597.5,-532.5 335.5,-532.5"/>
<text text-anchor="start" x="342.3559" y="-545.3" font-family="Arial Bold" font-size="18.00" fill="#000000">v2_game_versions</text>
<text text-anchor="start" x="493.3903" y="-545.3" font-family="Arial" font-size="14.00" fill="#000000"> </text>
<text text-anchor="start" x="497.2809" y="-545.3" font-family="Arial" font-size="14.00" fill="#666666">[BASE TABLE]</text>
<polygon fill="none" stroke="#000000" points="335.5,-502.5 335.5,-532.5 597.5,-532.5 597.5,-502.5 335.5,-502.5"/>
<text text-anchor="start" x="342.5" y="-513.9" font-family="Arial" font-size="14.00" fill="#000000">id </text>
<text text-anchor="start" x="357.2798" y="-513.9" font-family="Arial" font-size="14.00" fill="#666666">[varchar(36)]</text>
<polygon fill="none" stroke="#000000" points="335.5,-472.5 335.5,-502.5 597.5,-502.5 597.5,-472.5 335.5,-472.5"/>
<text text-anchor="start" x="342.5" y="-483.9" font-family="Arial" font-size="14.00" fill="#000000">game_id </text>
<text text-anchor="start" x="400.0708" y="-483.9" font-family="Arial" font-size="14.00" fill="#666666">[varchar(36)]</text>
<polygon fill="none" stroke="#000000" points="335.5,-442.5 335.5,-472.5 597.5,-472.5 597.5,-442.5 335.5,-442.5"/>
<text text-anchor="start" x="342.5" y="-453.9" font-family="Arial" font-size="14.00" fill="#000000">game_image_id </text>
<text text-anchor="start" x="445.9684" y="-453.9" font-family="Arial" font-size="14.00" fill="#666666">[varchar(36)]</text>
<polygon fill="none" stroke="#000000" points="335.5,-412.5 335.5,-442.5 597.5,-442.5 597.5,-412.5 335.5,-412.5"/>
<text text-anchor="start" x="342.5" y="-423.9" font-family="Arial" font-size="14.00" fill="#000000">game_video_id </text>
<text text-anchor="start" x="441.3078" y="-423.9" font-family="Arial" font-size="14.00" fill="#666666">[varchar(36)]</text>
<polygon fill="none" stroke="#000000" points="335.5,-382.5 335.5,-412.5 597.5,-412.5 597.5,-382.5 335.5,-382.5"/>
<text text-anchor="start" x="342.5" y="-393.9" font-family="Arial" font-size="14.00" fill="#000000">name </text>
<text text-anchor="start" x="381.399" y="-393.9" font-family="Arial" font-size="14.00" fill="#666666">[varchar(32)]</text>
<polygon fill="none" stroke="#000000" points="335.5,-352.5 335.5,-382.5 597.5,-382.5 597.5,-352.5 335.5,-352.5"/>
<text text-anchor="start" x="342.5" y="-363.9" font-family="Arial" font-size="14.00" fill="#000000">description </text>
<text text-anchor="start" x="414.068" y="-363.9" font-family="Arial" font-size="14.00" fill="#666666">[text]</text>
<polygon fill="none" stroke="#000000" points="335.5,-322.5 335.5,-352.5 597.5,-352.5 597.5,-322.5 335.5,-322.5"/>
<text text-anchor="start" x="342.5" y="-333.9" font-family="Arial" font-size="14.00" fill="#000000">created_at </text>
<text text-anchor="start" x="412.528" y="-333.9" font-family="Arial" font-size="14.00" fill="#666666">[datetime]</text>
<polygon fill="none" stroke="#000000" stroke-width="3" points="334,-321.5 334,-569.5 599,-569.5 599,-321.5 334,-321.5"/>
</g>
<!-- v2_game_images -->
<g id="node4" class="node">
<title>v2_game_images</title>
<polygon fill="#efefef" stroke="transparent" points="162.5,-162.5 162.5,-197.5 415.5,-197.5 415.5,-162.5 162.5,-162.5"/>
<polygon fill="none" stroke="#000000" points="162.5,-162.5 162.5,-197.5 415.5,-197.5 415.5,-162.5 162.5,-162.5"/>
<text text-anchor="start" x="169.3559" y="-175.3" font-family="Arial Bold" font-size="18.00" fill="#000000">v2_game_images</text>
<text text-anchor="start" x="311.3903" y="-175.3" font-family="Arial" font-size="14.00" fill="#000000"> </text>
<text text-anchor="start" x="315.2809" y="-175.3" font-family="Arial" font-size="14.00" fill="#666666">[BASE TABLE]</text>
<polygon fill="none" stroke="#000000" points="162.5,-132.5 162.5,-162.5 415.5,-162.5 415.5,-132.5 162.5,-132.5"/>
<text text-anchor="start" x="169.5" y="-143.9" font-family="Arial" font-size="14.00" fill="#000000">id </text>
<text text-anchor="start" x="184.2798" y="-143.9" font-family="Arial" font-size="14.00" fill="#666666">[varchar(36)]</text>
<polygon fill="none" stroke="#000000" points="162.5,-102.5 162.5,-132.5 415.5,-132.5 415.5,-102.5 162.5,-102.5"/>
<text text-anchor="start" x="169.5" y="-113.9" font-family="Arial" font-size="14.00" fill="#000000">game_id </text>
<text text-anchor="start" x="227.0708" y="-113.9" font-family="Arial" font-size="14.00" fill="#666666">[varchar(36)]</text>
<polygon fill="none" stroke="#000000" points="162.5,-72.5 162.5,-102.5 415.5,-102.5 415.5,-72.5 162.5,-72.5"/>
<text text-anchor="start" x="169.5" y="-83.9" font-family="Arial" font-size="14.00" fill="#000000">image_type_id </text>
<text text-anchor="start" x="264.4158" y="-83.9" font-family="Arial" font-size="14.00" fill="#666666">[tinyint(4)]</text>
<polygon fill="none" stroke="#000000" points="162.5,-42.5 162.5,-72.5 415.5,-72.5 415.5,-42.5 162.5,-42.5"/>
<text text-anchor="start" x="169.5" y="-53.9" font-family="Arial" font-size="14.00" fill="#000000">created_at </text>
<text text-anchor="start" x="239.528" y="-53.9" font-family="Arial" font-size="14.00" fill="#666666">[datetime]</text>
</g>
<!-- v2_game_versions&#45;&gt;v2_game_images -->
<g id="edge3" class="edge">
<title>v2_game_versions:game_image_id&#45;&gt;v2_game_images:id</title>
<path fill="none" stroke="#000000" d="M325.3865,-456.8295C258.5857,-447.428 293.8984,-341.3405 335.5,-277 356.6703,-244.2583 394.3297,-273.7417 415.5,-241 438.0635,-206.1037 457.0556,-147.5 415.5,-147.5"/>
<polygon fill="#000000" stroke="#000000" points="325.5219,-456.8384 335.2023,-461.9901 330.511,-457.1692 335.5,-457.5 335.5,-457.5 335.5,-457.5 330.511,-457.1692 335.7977,-453.0099 325.5219,-456.8384 325.5219,-456.8384"/>
<text text-anchor="start" x="10.043" y="-467.5" font-family="Arial" font-size="10.00" fill="#000000">FOREIGN KEY (game_image_id) REFERENCES v2_game_images (id)</text>
</g>
<!-- v2_game_videos -->
<g id="node5" class="node">
<title>v2_game_videos</title>
<polygon fill="#efefef" stroke="transparent" points="519.5,-162.5 519.5,-197.5 766.5,-197.5 766.5,-162.5 519.5,-162.5"/>
<polygon fill="none" stroke="#000000" points="519.5,-162.5 519.5,-197.5 766.5,-197.5 766.5,-162.5 519.5,-162.5"/>
<text text-anchor="start" x="526.352" y="-175.3" font-family="Arial Bold" font-size="18.00" fill="#000000">v2_game_videos</text>
<text text-anchor="start" x="662.3942" y="-175.3" font-family="Arial" font-size="14.00" fill="#000000"> </text>
<text text-anchor="start" x="666.2848" y="-175.3" font-family="Arial" font-size="14.00" fill="#666666">[BASE TABLE]</text>
<polygon fill="none" stroke="#000000" points="519.5,-132.5 519.5,-162.5 766.5,-162.5 766.5,-132.5 519.5,-132.5"/>
<text text-anchor="start" x="526.5" y="-143.9" font-family="Arial" font-size="14.00" fill="#000000">id </text>
<text text-anchor="start" x="541.2798" y="-143.9" font-family="Arial" font-size="14.00" fill="#666666">[varchar(36)]</text>
<polygon fill="none" stroke="#000000" points="519.5,-102.5 519.5,-132.5 766.5,-132.5 766.5,-102.5 519.5,-102.5"/>
<text text-anchor="start" x="526.5" y="-113.9" font-family="Arial" font-size="14.00" fill="#000000">game_id </text>
<text text-anchor="start" x="584.0708" y="-113.9" font-family="Arial" font-size="14.00" fill="#666666">[varchar(36)]</text>
<polygon fill="none" stroke="#000000" points="519.5,-72.5 519.5,-102.5 766.5,-102.5 766.5,-72.5 519.5,-72.5"/>
<text text-anchor="start" x="526.5" y="-83.9" font-family="Arial" font-size="14.00" fill="#000000">video_type_id </text>
<text text-anchor="start" x="616.7552" y="-83.9" font-family="Arial" font-size="14.00" fill="#666666">[tinyint(4)]</text>
<polygon fill="none" stroke="#000000" points="519.5,-42.5 519.5,-72.5 766.5,-72.5 766.5,-42.5 519.5,-42.5"/>
<text text-anchor="start" x="526.5" y="-53.9" font-family="Arial" font-size="14.00" fill="#000000">created_at </text>
<text text-anchor="start" x="596.528" y="-53.9" font-family="Arial" font-size="14.00" fill="#666666">[datetime]</text>
</g>
<!-- v2_game_versions&#45;&gt;v2_game_videos -->
<g id="edge4" class="edge">
<title>v2_game_versions:game_video_id&#45;&gt;v2_game_videos:id</title>
<path fill="none" stroke="#000000" d="M607.6123,-426.6768C661.0003,-417.3147 631.5785,-330.2616 597.5,-277 576.9223,-244.8389 540.0777,-273.1611 519.5,-241 497.1035,-205.9963 477.9444,-147.5 519.5,-147.5"/>
<polygon fill="#000000" stroke="#000000" points="607.467,-426.6885 597.1348,-423.0148 602.4835,-427.0943 597.5,-427.5 597.5,-427.5 597.5,-427.5 602.4835,-427.0943 597.8652,-431.9852 607.467,-426.6885 607.467,-426.6885"/>
<text text-anchor="start" x="604.372" y="-437.5" font-family="Arial" font-size="10.00" fill="#000000">FOREIGN KEY (game_video_id) REFERENCES v2_game_videos (id)</text>
</g>
<!-- edition_game_version_relations -->
<g id="node2" class="node">
<title>edition_game_version_relations</title>
<polygon fill="#efefef" stroke="transparent" points="43.5,-752.5 43.5,-787.5 408.5,-787.5 408.5,-752.5 43.5,-752.5"/>
<polygon fill="none" stroke="#000000" points="43.5,-752.5 43.5,-787.5 408.5,-787.5 408.5,-752.5 43.5,-752.5"/>
<text text-anchor="start" x="50.3444" y="-765.3" font-family="Arial Bold" font-size="18.00" fill="#000000">edition_game_version_relations</text>
<text text-anchor="start" x="304.4018" y="-765.3" font-family="Arial" font-size="14.00" fill="#000000"> </text>
<text text-anchor="start" x="308.2924" y="-765.3" font-family="Arial" font-size="14.00" fill="#666666">[BASE TABLE]</text>
<polygon fill="none" stroke="#000000" points="43.5,-722.5 43.5,-752.5 408.5,-752.5 408.5,-722.5 43.5,-722.5"/>
<text text-anchor="start" x="50.5" y="-733.9" font-family="Arial" font-size="14.00" fill="#000000">edition_id </text>
<text text-anchor="start" x="114.2966" y="-733.9" font-family="Arial" font-size="14.00" fill="#666666">[varchar(36)]</text>
<polygon fill="none" stroke="#000000" points="43.5,-692.5 43.5,-722.5 408.5,-722.5 408.5,-692.5 43.5,-692.5"/>
<text text-anchor="start" x="50.5" y="-703.9" font-family="Arial" font-size="14.00" fill="#000000">game_version_id </text>
<text text-anchor="start" x="160.9684" y="-703.9" font-family="Arial" font-size="14.00" fill="#666666">[varchar(36)]</text>
</g>
<!-- edition_game_version_relations&#45;&gt;v2_game_versions -->
<g id="edge1" class="edge">
<title>edition_game_version_relations:game_version_id&#45;&gt;v2_game_versions:id</title>
<path fill="none" stroke="#000000" d="M418.2004,-704.8297C430.0596,-696.1332 419.781,-668.1414 408.5,-650 389.3971,-619.2799 354.6029,-644.7201 335.5,-614 312.8518,-577.5786 292.6111,-517.5 335.5,-517.5"/>
<polygon fill="#000000" stroke="#000000" points="418.1414,-704.8458 407.3056,-703.1614 413.3207,-706.1729 408.5,-707.5 408.5,-707.5 408.5,-707.5 413.3207,-706.1729 409.6944,-711.8386 418.1414,-704.8458 418.1414,-704.8458"/>
<text text-anchor="start" x="415.043" y="-717.5" font-family="Arial" font-size="10.00" fill="#000000">FOREIGN KEY (game_version_id) REFERENCES v2_game_versions (id)</text>
</g>
<!-- game_version_game_file_relations -->
<g id="node3" class="node">
<title>game_version_game_file_relations</title>
<polygon fill="#efefef" stroke="transparent" points="512.5,-752.5 512.5,-787.5 902.5,-787.5 902.5,-752.5 512.5,-752.5"/>
<polygon fill="none" stroke="#000000" points="512.5,-752.5 512.5,-787.5 902.5,-787.5 902.5,-752.5 512.5,-752.5"/>
<text text-anchor="start" x="519.3452" y="-765.3" font-family="Arial Bold" font-size="18.00" fill="#000000">game_version_game_file_relations</text>
<text text-anchor="start" x="798.401" y="-765.3" font-family="Arial" font-size="14.00" fill="#000000"> </text>
<text text-anchor="start" x="802.2916" y="-765.3" font-family="Arial" font-size="14.00" fill="#666666">[BASE TABLE]</text>
<polygon fill="none" stroke="#000000" points="512.5,-722.5 512.5,-752.5 902.5,-752.5 902.5,-722.5 512.5,-722.5"/>
<text text-anchor="start" x="519.5" y="-733.9" font-family="Arial" font-size="14.00" fill="#000000">game_version_id </text>
<text text-anchor="start" x="629.9684" y="-733.9" font-family="Arial" font-size="14.00" fill="#666666">[varchar(36)]</text>
<polygon fill="none" stroke="#000000" points="512.5,-692.5 512.5,-722.5 902.5,-722.5 902.5,-692.5 512.5,-692.5"/>
<text text-anchor="start" x="519.5" y="-703.9" font-family="Arial" font-size="14.00" fill="#000000">game_file_id </text>
<text text-anchor="start" x="602.7398" y="-703.9" font-family="Arial" font-size="14.00" fill="#666666">[varchar(36)]</text>
</g>
<!-- game_version_game_file_relations&#45;&gt;v2_game_versions -->
<g id="edge2" class="edge">
<title>game_version_game_file_relations:game_version_id&#45;&gt;v2_game_versions:id</title>
<path fill="none" stroke="#000000" d="M502.3385,-735.877C477.1898,-726.5457 493.2041,-679.1276 512.5,-650 535.1577,-615.7978 574.8423,-648.2022 597.5,-614 621.1863,-578.2451 640.3889,-517.5 597.5,-517.5"/>
<polygon fill="#000000" stroke="#000000" points="502.6252,-735.9227 511.7902,-741.9437 507.5626,-736.7114 512.5,-737.5 512.5,-737.5 512.5,-737.5 507.5626,-736.7114 513.2098,-733.0563 502.6252,-735.9227 502.6252,-735.9227"/>
<text text-anchor="start" x="519.043" y="-747.5" font-family="Arial" font-size="10.00" fill="#000000">FOREIGN KEY (game_version_id) REFERENCES v2_game_versions (id)</text>
</g>
</g>
</svg>
