<?xml version="1.0" encoding="UTF-8" standalone="no"?>
<!DOCTYPE svg PUBLIC "-//W3C//DTD SVG 1.1//EN"
 "http://www.w3.org/Graphics/SVG/1.1/DTD/svg11.dtd">
<!-- Generated by graphviz version 2.40.1 (20161225.0304)
 -->
<!-- Title: v2_game_versions Pages: 1 -->
<svg width="1045pt" height="959pt"
 viewBox="0.00 0.00 1045.00 959.00" xmlns="http://www.w3.org/2000/svg" xmlns:xlink="http://www.w3.org/1999/xlink">
<g id="graph0" class="graph" transform="scale(1 1) rotate(0) translate(4 955)">
<title>v2_game_versions</title>
<polygon fill="#ffffff" stroke="transparent" points="-4,4 -4,-955 1041,-955 1041,4 -4,4"/>
<!-- v2_game_versions -->
<g id="node1" class="node">
<title>v2_game_versions</title>
<polygon fill="#efefef" stroke="transparent" points="386.5,-652.5 386.5,-687.5 648.5,-687.5 648.5,-652.5 386.5,-652.5"/>
<polygon fill="none" stroke="#000000" points="386.5,-652.5 386.5,-687.5 648.5,-687.5 648.5,-652.5 386.5,-652.5"/>
<text text-anchor="start" x="393.3559" y="-665.3" font-family="Arial Bold" font-size="18.00" fill="#000000">v2_game_versions</text>
<text text-anchor="start" x="544.3903" y="-665.3" font-family="Arial" font-size="14.00" fill="#000000"> </text>
<text text-anchor="start" x="548.2809" y="-665.3" font-family="Arial" font-size="14.00" fill="#666666">[BASE TABLE]</text>
<polygon fill="none" stroke="#000000" points="386.5,-622.5 386.5,-652.5 648.5,-652.5 648.5,-622.5 386.5,-622.5"/>
<text text-anchor="start" x="393.5" y="-633.9" font-family="Arial" font-size="14.00" fill="#000000">id </text>
<text text-anchor="start" x="408.2798" y="-633.9" font-family="Arial" font-size="14.00" fill="#666666">[varchar(36)]</text>
<polygon fill="none" stroke="#000000" points="386.5,-592.5 386.5,-622.5 648.5,-622.5 648.5,-592.5 386.5,-592.5"/>
<text text-anchor="start" x="393.5" y="-603.9" font-family="Arial" font-size="14.00" fill="#000000">game_id </text>
<text text-anchor="start" x="451.0708" y="-603.9" font-family="Arial" font-size="14.00" fill="#666666">[varchar(36)]</text>
<polygon fill="none" stroke="#000000" points="386.5,-562.5 386.5,-592.5 648.5,-592.5 648.5,-562.5 386.5,-562.5"/>
<text text-anchor="start" x="393.5" y="-573.9" font-family="Arial" font-size="14.00" fill="#000000">game_image_id </text>
<text text-anchor="start" x="496.9684" y="-573.9" font-family="Arial" font-size="14.00" fill="#666666">[varchar(36)]</text>
<polygon fill="none" stroke="#000000" points="386.5,-532.5 386.5,-562.5 648.5,-562.5 648.5,-532.5 386.5,-532.5"/>
<text text-anchor="start" x="393.5" y="-543.9" font-family="Arial" font-size="14.00" fill="#000000">game_video_id </text>
<text text-anchor="start" x="492.3078" y="-543.9" font-family="Arial" font-size="14.00" fill="#666666">[varchar(36)]</text>
<polygon fill="none" stroke="#000000" points="386.5,-502.5 386.5,-532.5 648.5,-532.5 648.5,-502.5 386.5,-502.5"/>
<text text-anchor="start" x="393.5" y="-513.9" font-family="Arial" font-size="14.00" fill="#000000">name </text>
<text text-anchor="start" x="432.399" y="-513.9" font-family="Arial" font-size="14.00" fill="#666666">[varchar(32)]</text>
<polygon fill="none" stroke="#000000" points="386.5,-472.5 386.5,-502.5 648.5,-502.5 648.5,-472.5 386.5,-472.5"/>
<text text-anchor="start" x="393.5" y="-483.9" font-family="Arial" font-size="14.00" fill="#000000">description </text>
<text text-anchor="start" x="465.068" y="-483.9" font-family="Arial" font-size="14.00" fill="#666666">[text]</text>
<polygon fill="none" stroke="#000000" points="386.5,-442.5 386.5,-472.5 648.5,-472.5 648.5,-442.5 386.5,-442.5"/>
<text text-anchor="start" x="393.5" y="-453.9" font-family="Arial" font-size="14.00" fill="#000000">created_at </text>
<text text-anchor="start" x="463.528" y="-453.9" font-family="Arial" font-size="14.00" fill="#666666">[datetime]</text>
<polygon fill="none" stroke="#000000" points="386.5,-412.5 386.5,-442.5 648.5,-442.5 648.5,-412.5 386.5,-412.5"/>
<text text-anchor="start" x="393.5" y="-423.9" font-family="Arial" font-size="14.00" fill="#000000">url </text>
<text text-anchor="start" x="412.9404" y="-423.9" font-family="Arial" font-size="14.00" fill="#666666">[text]</text>
<polygon fill="none" stroke="#000000" stroke-width="3" points="385,-411.5 385,-689.5 650,-689.5 650,-411.5 385,-411.5"/>
</g>
<!-- games -->
<g id="node4" class="node">
<title>games</title>
<polygon fill="#efefef" stroke="transparent" points="43.5,-252.5 43.5,-287.5 286.5,-287.5 286.5,-252.5 43.5,-252.5"/>
<polygon fill="none" stroke="#000000" points="43.5,-252.5 43.5,-287.5 286.5,-287.5 286.5,-252.5 43.5,-252.5"/>
<text text-anchor="start" x="89.3677" y="-265.3" font-family="Arial Bold" font-size="18.00" fill="#000000">games</text>
<text text-anchor="start" x="143.3785" y="-265.3" font-family="Arial" font-size="14.00" fill="#000000"> </text>
<text text-anchor="start" x="147.2691" y="-265.3" font-family="Arial" font-size="14.00" fill="#666666">[BASE TABLE]</text>
<polygon fill="none" stroke="#000000" points="43.5,-222.5 43.5,-252.5 286.5,-252.5 286.5,-222.5 43.5,-222.5"/>
<text text-anchor="start" x="50.5" y="-233.9" font-family="Arial" font-size="14.00" fill="#000000">id </text>
<text text-anchor="start" x="65.2798" y="-233.9" font-family="Arial" font-size="14.00" fill="#666666">[varchar(36)]</text>
<polygon fill="none" stroke="#000000" points="43.5,-192.5 43.5,-222.5 286.5,-222.5 286.5,-192.5 43.5,-192.5"/>
<text text-anchor="start" x="50.5" y="-203.9" font-family="Arial" font-size="14.00" fill="#000000">name </text>
<text text-anchor="start" x="89.399" y="-203.9" font-family="Arial" font-size="14.00" fill="#666666">[varchar(256)]</text>
<polygon fill="none" stroke="#000000" points="43.5,-162.5 43.5,-192.5 286.5,-192.5 286.5,-162.5 43.5,-162.5"/>
<text text-anchor="start" x="50.5" y="-173.9" font-family="Arial" font-size="14.00" fill="#000000">description </text>
<text text-anchor="start" x="122.068" y="-173.9" font-family="Arial" font-size="14.00" fill="#666666">[text]</text>
<polygon fill="none" stroke="#000000" points="43.5,-132.5 43.5,-162.5 286.5,-162.5 286.5,-132.5 43.5,-132.5"/>
<text text-anchor="start" x="50.5" y="-143.9" font-family="Arial" font-size="14.00" fill="#000000">created_at </text>
<text text-anchor="start" x="120.528" y="-143.9" font-family="Arial" font-size="14.00" fill="#666666">[datetime]</text>
<polygon fill="none" stroke="#000000" points="43.5,-102.5 43.5,-132.5 286.5,-132.5 286.5,-102.5 43.5,-102.5"/>
<text text-anchor="start" x="50.5" y="-113.9" font-family="Arial" font-size="14.00" fill="#000000">deleted_at </text>
<text text-anchor="start" x="119.7566" y="-113.9" font-family="Arial" font-size="14.00" fill="#666666">[datetime]</text>
<polygon fill="none" stroke="#000000" points="43.5,-72.5 43.5,-102.5 286.5,-102.5 286.5,-72.5 43.5,-72.5"/>
<text text-anchor="start" x="50.5" y="-83.9" font-family="Arial" font-size="14.00" fill="#000000">visibility_type_id </text>
<text text-anchor="start" x="155.507" y="-83.9" font-family="Arial" font-size="14.00" fill="#666666">[tinyint(4)]</text>
<polygon fill="none" stroke="#000000" points="43.5,-42.5 43.5,-72.5 286.5,-72.5 286.5,-42.5 43.5,-42.5"/>
<text text-anchor="start" x="50.2371" y="-53.9" font-family="Arial" font-size="14.00" fill="#000000">latest_version_updated_at </text>
<text text-anchor="start" x="218.3029" y="-53.9" font-family="Arial" font-size="14.00" fill="#666666">[datetime]</text>
</g>
<!-- v2_game_versions&#45;&gt;games -->
<g id="edge3" class="edge">
<title>v2_game_versions:game_id&#45;&gt;games:id</title>
<path fill="none" stroke="#000000" d="M376.3575,-605.5093C307.0858,-576.3863 368.0126,-237.5 286.5,-237.5"/>
<polygon fill="#000000" stroke="#000000" points="376.6872,-605.5739 385.6333,-611.9158 381.5936,-606.537 386.5,-607.5 386.5,-607.5 386.5,-607.5 381.5936,-606.537 387.3667,-603.0842 376.6872,-605.5739 376.6872,-605.5739"/>
<text text-anchor="start" x="142.886" y="-617.5" font-family="Arial" font-size="10.00" fill="#000000">FOREIGN KEY (game_id) REFERENCES games (id)</text>
</g>
<!-- v2_game_images -->
<g id="node5" class="node">
<title>v2_game_images</title>
<polygon fill="#efefef" stroke="transparent" points="390.5,-207.5 390.5,-242.5 643.5,-242.5 643.5,-207.5 390.5,-207.5"/>
<polygon fill="none" stroke="#000000" points="390.5,-207.5 390.5,-242.5 643.5,-242.5 643.5,-207.5 390.5,-207.5"/>
<text text-anchor="start" x="397.3559" y="-220.3" font-family="Arial Bold" font-size="18.00" fill="#000000">v2_game_images</text>
<text text-anchor="start" x="539.3903" y="-220.3" font-family="Arial" font-size="14.00" fill="#000000"> </text>
<text text-anchor="start" x="543.2809" y="-220.3" font-family="Arial" font-size="14.00" fill="#666666">[BASE TABLE]</text>
<polygon fill="none" stroke="#000000" points="390.5,-177.5 390.5,-207.5 643.5,-207.5 643.5,-177.5 390.5,-177.5"/>
<text text-anchor="start" x="397.5" y="-188.9" font-family="Arial" font-size="14.00" fill="#000000">id </text>
<text text-anchor="start" x="412.2798" y="-188.9" font-family="Arial" font-size="14.00" fill="#666666">[varchar(36)]</text>
<polygon fill="none" stroke="#000000" points="390.5,-147.5 390.5,-177.5 643.5,-177.5 643.5,-147.5 390.5,-147.5"/>
<text text-anchor="start" x="397.5" y="-158.9" font-family="Arial" font-size="14.00" fill="#000000">game_id </text>
<text text-anchor="start" x="455.0708" y="-158.9" font-family="Arial" font-size="14.00" fill="#666666">[varchar(36)]</text>
<polygon fill="none" stroke="#000000" points="390.5,-117.5 390.5,-147.5 643.5,-147.5 643.5,-117.5 390.5,-117.5"/>
<text text-anchor="start" x="397.5" y="-128.9" font-family="Arial" font-size="14.00" fill="#000000">image_type_id </text>
<text text-anchor="start" x="492.4158" y="-128.9" font-family="Arial" font-size="14.00" fill="#666666">[tinyint(4)]</text>
<polygon fill="none" stroke="#000000" points="390.5,-87.5 390.5,-117.5 643.5,-117.5 643.5,-87.5 390.5,-87.5"/>
<text text-anchor="start" x="397.5" y="-98.9" font-family="Arial" font-size="14.00" fill="#000000">created_at </text>
<text text-anchor="start" x="467.528" y="-98.9" font-family="Arial" font-size="14.00" fill="#666666">[datetime]</text>
</g>
<!-- v2_game_versions&#45;&gt;v2_game_images -->
<g id="edge4" class="edge">
<title>v2_game_versions:game_image_id&#45;&gt;v2_game_images:id</title>
<path fill="none" stroke="#000000" d="M376.1329,-576.8934C295.9573,-567.0397 333.3366,-439.4972 386.5,-367 457.3213,-270.4233 572.6787,-382.5767 643.5,-286 668.0741,-252.4891 685.0556,-192.5 643.5,-192.5"/>
<polygon fill="#000000" stroke="#000000" points="376.5171,-576.9158 386.2371,-581.9923 381.5085,-577.2079 386.5,-577.5 386.5,-577.5 386.5,-577.5 381.5085,-577.2079 386.7629,-573.0077 376.5171,-576.9158 376.5171,-576.9158"/>
<text text-anchor="start" x="61.043" y="-587.5" font-family="Arial" font-size="10.00" fill="#000000">FOREIGN KEY (game_image_id) REFERENCES v2_game_images (id)</text>
</g>
<!-- v2_game_videos -->
<g id="node6" class="node">
<title>v2_game_videos</title>
<polygon fill="#efefef" stroke="transparent" points="747.5,-207.5 747.5,-242.5 994.5,-242.5 994.5,-207.5 747.5,-207.5"/>
<polygon fill="none" stroke="#000000" points="747.5,-207.5 747.5,-242.5 994.5,-242.5 994.5,-207.5 747.5,-207.5"/>
<text text-anchor="start" x="754.352" y="-220.3" font-family="Arial Bold" font-size="18.00" fill="#000000">v2_game_videos</text>
<text text-anchor="start" x="890.3942" y="-220.3" font-family="Arial" font-size="14.00" fill="#000000"> </text>
<text text-anchor="start" x="894.2848" y="-220.3" font-family="Arial" font-size="14.00" fill="#666666">[BASE TABLE]</text>
<polygon fill="none" stroke="#000000" points="747.5,-177.5 747.5,-207.5 994.5,-207.5 994.5,-177.5 747.5,-177.5"/>
<text text-anchor="start" x="754.5" y="-188.9" font-family="Arial" font-size="14.00" fill="#000000">id </text>
<text text-anchor="start" x="769.2798" y="-188.9" font-family="Arial" font-size="14.00" fill="#666666">[varchar(36)]</text>
<polygon fill="none" stroke="#000000" points="747.5,-147.5 747.5,-177.5 994.5,-177.5 994.5,-147.5 747.5,-147.5"/>
<text text-anchor="start" x="754.5" y="-158.9" font-family="Arial" font-size="14.00" fill="#000000">game_id </text>
<text text-anchor="start" x="812.0708" y="-158.9" font-family="Arial" font-size="14.00" fill="#666666">[varchar(36)]</text>
<polygon fill="none" stroke="#000000" points="747.5,-117.5 747.5,-147.5 994.5,-147.5 994.5,-117.5 747.5,-117.5"/>
<text text-anchor="start" x="754.5" y="-128.9" font-family="Arial" font-size="14.00" fill="#000000">video_type_id </text>
<text text-anchor="start" x="844.7552" y="-128.9" font-family="Arial" font-size="14.00" fill="#666666">[tinyint(4)]</text>
<polygon fill="none" stroke="#000000" points="747.5,-87.5 747.5,-117.5 994.5,-117.5 994.5,-87.5 747.5,-87.5"/>
<text text-anchor="start" x="754.5" y="-98.9" font-family="Arial" font-size="14.00" fill="#000000">created_at </text>
<text text-anchor="start" x="824.528" y="-98.9" font-family="Arial" font-size="14.00" fill="#666666">[datetime]</text>
</g>
<!-- v2_game_versions&#45;&gt;v2_game_videos -->
<g id="edge5" class="edge">
<title>v2_game_versions:game_video_id&#45;&gt;v2_game_videos:id</title>
<path fill="none" stroke="#000000" d="M658.6757,-545.4152C724.8734,-516.3218 669.28,-192.5 747.5,-192.5"/>
<polygon fill="#000000" stroke="#000000" points="658.2965,-545.4928 647.5968,-543.0916 653.3983,-546.4964 648.5,-547.5 648.5,-547.5 648.5,-547.5 653.3983,-546.4964 649.4032,-551.9084 658.2965,-545.4928 658.2965,-545.4928"/>
<text text-anchor="start" x="655.372" y="-557.5" font-family="Arial" font-size="10.00" fill="#000000">FOREIGN KEY (game_video_id) REFERENCES v2_game_videos (id)</text>
</g>
<!-- edition_game_version_relations -->
<g id="node2" class="node">
<title>edition_game_version_relations</title>
<polygon fill="#efefef" stroke="transparent" points="94.5,-872.5 94.5,-907.5 459.5,-907.5 459.5,-872.5 94.5,-872.5"/>
<polygon fill="none" stroke="#000000" points="94.5,-872.5 94.5,-907.5 459.5,-907.5 459.5,-872.5 94.5,-872.5"/>
<text text-anchor="start" x="101.3444" y="-885.3" font-family="Arial Bold" font-size="18.00" fill="#000000">edition_game_version_relations</text>
<text text-anchor="start" x="355.4018" y="-885.3" font-family="Arial" font-size="14.00" fill="#000000"> </text>
<text text-anchor="start" x="359.2924" y="-885.3" font-family="Arial" font-size="14.00" fill="#666666">[BASE TABLE]</text>
<polygon fill="none" stroke="#000000" points="94.5,-842.5 94.5,-872.5 459.5,-872.5 459.5,-842.5 94.5,-842.5"/>
<text text-anchor="start" x="101.5" y="-853.9" font-family="Arial" font-size="14.00" fill="#000000">edition_id </text>
<text text-anchor="start" x="165.2966" y="-853.9" font-family="Arial" font-size="14.00" fill="#666666">[varchar(36)]</text>
<polygon fill="none" stroke="#000000" points="94.5,-812.5 94.5,-842.5 459.5,-842.5 459.5,-812.5 94.5,-812.5"/>
<text text-anchor="start" x="101.5" y="-823.9" font-family="Arial" font-size="14.00" fill="#000000">game_version_id </text>
<text text-anchor="start" x="211.9684" y="-823.9" font-family="Arial" font-size="14.00" fill="#666666">[varchar(36)]</text>
</g>
<!-- edition_game_version_relations&#45;&gt;v2_game_versions -->
<g id="edge1" class="edge">
<title>edition_game_version_relations:game_version_id&#45;&gt;v2_game_versions:id</title>
<path fill="none" stroke="#000000" d="M469.2004,-824.8297C481.0596,-816.1332 470.781,-788.1414 459.5,-770 440.3971,-739.2799 405.6029,-764.7201 386.5,-734 363.8518,-697.5786 343.6111,-637.5 386.5,-637.5"/>
<polygon fill="#000000" stroke="#000000" points="469.1414,-824.8458 458.3056,-823.1614 464.3207,-826.1729 459.5,-827.5 459.5,-827.5 459.5,-827.5 464.3207,-826.1729 460.6944,-831.8386 469.1414,-824.8458 469.1414,-824.8458"/>
<text text-anchor="start" x="466.043" y="-837.5" font-family="Arial" font-size="10.00" fill="#000000">FOREIGN KEY (game_version_id) REFERENCES v2_game_versions (id)</text>
</g>
<!-- game_version_game_file_relations -->
<g id="node3" class="node">
<title>game_version_game_file_relations</title>
<polygon fill="#efefef" stroke="transparent" points="563.5,-872.5 563.5,-907.5 953.5,-907.5 953.5,-872.5 563.5,-872.5"/>
<polygon fill="none" stroke="#000000" points="563.5,-872.5 563.5,-907.5 953.5,-907.5 953.5,-872.5 563.5,-872.5"/>
<text text-anchor="start" x="570.3452" y="-885.3" font-family="Arial Bold" font-size="18.00" fill="#000000">game_version_game_file_relations</text>
<text text-anchor="start" x="849.401" y="-885.3" font-family="Arial" font-size="14.00" fill="#000000"> </text>
<text text-anchor="start" x="853.2916" y="-885.3" font-family="Arial" font-size="14.00" fill="#666666">[BASE TABLE]</text>
<polygon fill="none" stroke="#000000" points="563.5,-842.5 563.5,-872.5 953.5,-872.5 953.5,-842.5 563.5,-842.5"/>
<text text-anchor="start" x="570.5" y="-853.9" font-family="Arial" font-size="14.00" fill="#000000">game_version_id </text>
<text text-anchor="start" x="680.9684" y="-853.9" font-family="Arial" font-size="14.00" fill="#666666">[varchar(36)]</text>
<polygon fill="none" stroke="#000000" points="563.5,-812.5 563.5,-842.5 953.5,-842.5 953.5,-812.5 563.5,-812.5"/>
<text text-anchor="start" x="570.5" y="-823.9" font-family="Arial" font-size="14.00" fill="#000000">game_file_id </text>
<text text-anchor="start" x="653.7398" y="-823.9" font-family="Arial" font-size="14.00" fill="#666666">[varchar(36)]</text>
</g>
<!-- game_version_game_file_relations&#45;&gt;v2_game_versions -->
<g id="edge2" class="edge">
<title>game_version_game_file_relations:game_version_id&#45;&gt;v2_game_versions:id</title>
<path fill="none" stroke="#000000" d="M553.3385,-855.877C528.1898,-846.5457 544.2041,-799.1276 563.5,-770 586.1577,-735.7978 625.8423,-768.2022 648.5,-734 672.1863,-698.2451 691.3889,-637.5 648.5,-637.5"/>
<polygon fill="#000000" stroke="#000000" points="553.6252,-855.9227 562.7902,-861.9437 558.5626,-856.7114 563.5,-857.5 563.5,-857.5 563.5,-857.5 558.5626,-856.7114 564.2098,-853.0563 553.6252,-855.9227 553.6252,-855.9227"/>
<text text-anchor="start" x="570.043" y="-867.5" font-family="Arial" font-size="10.00" fill="#000000">FOREIGN KEY (game_version_id) REFERENCES v2_game_versions (id)</text>
</g>
</g>
</svg>
