<?xml version="1.0" encoding="UTF-8" standalone="no"?>
<!DOCTYPE svg PUBLIC "-//W3C//DTD SVG 1.1//EN"
 "http://www.w3.org/Graphics/SVG/1.1/DTD/svg11.dtd">
<!-- Generated by graphviz version 2.40.1 (20161225.0304)
 -->
<!-- Title: v2_game_videos Pages: 1 -->
<svg width="916pt" height="869pt"
 viewBox="0.00 0.00 916.00 869.00" xmlns="http://www.w3.org/2000/svg" xmlns:xlink="http://www.w3.org/1999/xlink">
<g id="graph0" class="graph" transform="scale(1 1) rotate(0) translate(4 865)">
<title>v2_game_videos</title>
<polygon fill="#ffffff" stroke="transparent" points="-4,4 -4,-865 912,-865 912,4 -4,4"/>
<!-- v2_game_videos -->
<g id="node1" class="node">
<title>v2_game_videos</title>
<polygon fill="#efefef" stroke="transparent" points="333,-412.5 333,-447.5 580,-447.5 580,-412.5 333,-412.5"/>
<polygon fill="none" stroke="#000000" points="333,-412.5 333,-447.5 580,-447.5 580,-412.5 333,-412.5"/>
<text text-anchor="start" x="339.852" y="-425.3" font-family="Arial Bold" font-size="18.00" fill="#000000">v2_game_videos</text>
<text text-anchor="start" x="475.8942" y="-425.3" font-family="Arial" font-size="14.00" fill="#000000"> </text>
<text text-anchor="start" x="479.7848" y="-425.3" font-family="Arial" font-size="14.00" fill="#666666">[BASE TABLE]</text>
<polygon fill="none" stroke="#000000" points="333,-382.5 333,-412.5 580,-412.5 580,-382.5 333,-382.5"/>
<text text-anchor="start" x="340" y="-393.9" font-family="Arial" font-size="14.00" fill="#000000">id </text>
<text text-anchor="start" x="354.7798" y="-393.9" font-family="Arial" font-size="14.00" fill="#666666">[varchar(36)]</text>
<polygon fill="none" stroke="#000000" points="333,-352.5 333,-382.5 580,-382.5 580,-352.5 333,-352.5"/>
<text text-anchor="start" x="340" y="-363.9" font-family="Arial" font-size="14.00" fill="#000000">game_id </text>
<text text-anchor="start" x="397.5708" y="-363.9" font-family="Arial" font-size="14.00" fill="#666666">[varchar(36)]</text>
<polygon fill="none" stroke="#000000" points="333,-322.5 333,-352.5 580,-352.5 580,-322.5 333,-322.5"/>
<text text-anchor="start" x="340" y="-333.9" font-family="Arial" font-size="14.00" fill="#000000">video_type_id </text>
<text text-anchor="start" x="430.2552" y="-333.9" font-family="Arial" font-size="14.00" fill="#666666">[tinyint(4)]</text>
<polygon fill="none" stroke="#000000" points="333,-292.5 333,-322.5 580,-322.5 580,-292.5 333,-292.5"/>
<text text-anchor="start" x="340" y="-303.9" font-family="Arial" font-size="14.00" fill="#000000">created_at </text>
<text text-anchor="start" x="410.028" y="-303.9" font-family="Arial" font-size="14.00" fill="#666666">[datetime]</text>
<polygon fill="none" stroke="#000000" stroke-width="3" points="331,-291.5 331,-449.5 581,-449.5 581,-291.5 331,-291.5"/>
</g>
<!-- game_video_types -->
<g id="node3" class="node">
<title>game_video_types</title>
<polygon fill="#efefef" stroke="transparent" points="326,-132.5 326,-167.5 588,-167.5 588,-132.5 326,-132.5"/>
<polygon fill="none" stroke="#000000" points="326,-132.5 326,-167.5 588,-167.5 588,-132.5 326,-132.5"/>
<text text-anchor="start" x="332.8478" y="-145.3" font-family="Arial Bold" font-size="18.00" fill="#000000">game_video_types</text>
<text text-anchor="start" x="483.8984" y="-145.3" font-family="Arial" font-size="14.00" fill="#000000"> </text>
<text text-anchor="start" x="487.789" y="-145.3" font-family="Arial" font-size="14.00" fill="#666666">[BASE TABLE]</text>
<polygon fill="none" stroke="#000000" points="326,-102.5 326,-132.5 588,-132.5 588,-102.5 326,-102.5"/>
<text text-anchor="start" x="333" y="-113.9" font-family="Arial" font-size="14.00" fill="#000000">id </text>
<text text-anchor="start" x="347.7798" y="-113.9" font-family="Arial" font-size="14.00" fill="#666666">[tinyint(4)]</text>
<polygon fill="none" stroke="#000000" points="326,-72.5 326,-102.5 588,-102.5 588,-72.5 326,-72.5"/>
<text text-anchor="start" x="333" y="-83.9" font-family="Arial" font-size="14.00" fill="#000000">name </text>
<text text-anchor="start" x="371.899" y="-83.9" font-family="Arial" font-size="14.00" fill="#666666">[varchar(32)]</text>
<polygon fill="none" stroke="#000000" points="326,-42.5 326,-72.5 588,-72.5 588,-42.5 326,-42.5"/>
<text text-anchor="start" x="333" y="-53.9" font-family="Arial" font-size="14.00" fill="#000000">active </text>
<text text-anchor="start" x="373.453" y="-53.9" font-family="Arial" font-size="14.00" fill="#666666">[tinyint(1)]</text>
</g>
<!-- v2_game_videos&#45;&gt;game_video_types -->
<g id="edge2" class="edge">
<title>v2_game_videos:video_type_id&#45;&gt;game_video_types:id</title>
<path fill="none" stroke="#000000" d="M589.921,-335.9886C617.515,-326.4874 603.8982,-274.5242 580,-247 505.2483,-160.9065 400.7517,-297.0935 326,-211 298.7554,-179.6217 284.4444,-117.5 326,-117.5"/>
<polygon fill="#000000" stroke="#000000" points="589.8859,-335.9939 579.3223,-333.0513 584.943,-336.7469 580,-337.5 580,-337.5 580,-337.5 584.943,-336.7469 580.6777,-341.9487 589.8859,-335.9939 589.8859,-335.9939"/>
<text text-anchor="start" x="586.7575" y="-347.5" font-family="Arial" font-size="10.00" fill="#000000">FOREIGN KEY (video_type_id) REFERENCES game_video_types (id)</text>
</g>
<!-- v2_game_versions -->
<g id="node2" class="node">
<title>v2_game_versions</title>
<polygon fill="#efefef" stroke="transparent" points="326,-782.5 326,-817.5 588,-817.5 588,-782.5 326,-782.5"/>
<polygon fill="none" stroke="#000000" points="326,-782.5 326,-817.5 588,-817.5 588,-782.5 326,-782.5"/>
<text text-anchor="start" x="332.8559" y="-795.3" font-family="Arial Bold" font-size="18.00" fill="#000000">v2_game_versions</text>
<text text-anchor="start" x="483.8903" y="-795.3" font-family="Arial" font-size="14.00" fill="#000000"> </text>
<text text-anchor="start" x="487.7809" y="-795.3" font-family="Arial" font-size="14.00" fill="#666666">[BASE TABLE]</text>
<polygon fill="none" stroke="#000000" points="326,-752.5 326,-782.5 588,-782.5 588,-752.5 326,-752.5"/>
<text text-anchor="start" x="333" y="-763.9" font-family="Arial" font-size="14.00" fill="#000000">id </text>
<text text-anchor="start" x="347.7798" y="-763.9" font-family="Arial" font-size="14.00" fill="#666666">[varchar(36)]</text>
<polygon fill="none" stroke="#000000" points="326,-722.5 326,-752.5 588,-752.5 588,-722.5 326,-722.5"/>
<text text-anchor="start" x="333" y="-733.9" font-family="Arial" font-size="14.00" fill="#000000">game_id </text>
<text text-anchor="start" x="390.5708" y="-733.9" font-family="Arial" font-size="14.00" fill="#666666">[varchar(36)]</text>
<polygon fill="none" stroke="#000000" points="326,-692.5 326,-722.5 588,-722.5 588,-692.5 326,-692.5"/>
<text text-anchor="start" x="333" y="-703.9" font-family="Arial" font-size="14.00" fill="#000000">game_image_id </text>
<text text-anchor="start" x="436.4684" y="-703.9" font-family="Arial" font-size="14.00" fill="#666666">[varchar(36)]</text>
<polygon fill="none" stroke="#000000" points="326,-662.5 326,-692.5 588,-692.5 588,-662.5 326,-662.5"/>
<text text-anchor="start" x="333" y="-673.9" font-family="Arial" font-size="14.00" fill="#000000">game_video_id </text>
<text text-anchor="start" x="431.8078" y="-673.9" font-family="Arial" font-size="14.00" fill="#666666">[varchar(36)]</text>
<polygon fill="none" stroke="#000000" points="326,-632.5 326,-662.5 588,-662.5 588,-632.5 326,-632.5"/>
<text text-anchor="start" x="333" y="-643.9" font-family="Arial" font-size="14.00" fill="#000000">name </text>
<text text-anchor="start" x="371.899" y="-643.9" font-family="Arial" font-size="14.00" fill="#666666">[varchar(32)]</text>
<polygon fill="none" stroke="#000000" points="326,-602.5 326,-632.5 588,-632.5 588,-602.5 326,-602.5"/>
<text text-anchor="start" x="333" y="-613.9" font-family="Arial" font-size="14.00" fill="#000000">description </text>
<text text-anchor="start" x="404.568" y="-613.9" font-family="Arial" font-size="14.00" fill="#666666">[text]</text>
<polygon fill="none" stroke="#000000" points="326,-572.5 326,-602.5 588,-602.5 588,-572.5 326,-572.5"/>
<text text-anchor="start" x="333" y="-583.9" font-family="Arial" font-size="14.00" fill="#000000">created_at </text>
<text text-anchor="start" x="403.028" y="-583.9" font-family="Arial" font-size="14.00" fill="#666666">[datetime]</text>
</g>
<!-- v2_game_versions&#45;&gt;v2_game_videos -->
<g id="edge1" class="edge">
<title>v2_game_versions:game_video_id&#45;&gt;v2_game_videos:id</title>
<path fill="none" stroke="#000000" d="M316.0244,-676.6447C262.9747,-666.9264 285.371,-576.7935 326,-530 400.7517,-443.9065 505.2483,-580.0935 580,-494 608.1187,-461.6149 622.8889,-397.5 580,-397.5"/>
<polygon fill="#000000" stroke="#000000" points="316.0366,-676.6456 325.6155,-681.9836 321.0183,-677.0728 326,-677.5 326,-677.5 326,-677.5 321.0183,-677.0728 326.3845,-673.0164 316.0366,-676.6456 316.0366,-676.6456"/>
<text text-anchor="start" x="6.872" y="-687.5" font-family="Arial" font-size="10.00" fill="#000000">FOREIGN KEY (game_video_id) REFERENCES v2_game_videos (id)</text>
</g>
</g>
</svg>
