<?xml version="1.0" encoding="UTF-8" standalone="no"?>
<!DOCTYPE svg PUBLIC "-//W3C//DTD SVG 1.1//EN"
 "http://www.w3.org/Graphics/SVG/1.1/DTD/svg11.dtd">
<!-- Generated by graphviz version 12.1.2 (20240928.0832)
 -->
<!-- Title: v2_latest_game_version_times Pages: 1 -->
<svg width="668pt" height="602pt"
 viewBox="0.00 0.00 667.92 602.00" xmlns="http://www.w3.org/2000/svg" xmlns:xlink="http://www.w3.org/1999/xlink">
<g id="graph0" class="graph" transform="scale(1 1) rotate(0) translate(4 598)">
<title>v2_latest_game_version_times</title>
<polygon fill="white" stroke="none" points="-4,4 -4,-598 663.92,-598 663.92,4 -4,4"/>
<!-- v2_latest_game_version_times -->
<g id="node1" class="node">
<title>v2_latest_game_version_times</title>
<polygon fill="#efefef" stroke="none" points="46.2,-512.2 46.2,-547.8 407.64,-547.8 407.64,-512.2 46.2,-512.2"/>
<polygon fill="none" stroke="black" points="46.2,-512.2 46.2,-547.8 407.64,-547.8 407.64,-512.2 46.2,-512.2"/>
<text text-anchor="start" x="53.2" y="-525.6" font-family="Arial Bold" font-size="18.00">v2_latest_game_version_times</text>
<text text-anchor="start" x="276.15" y="-525.6" font-family="Arial" font-size="14.00">    </text>
<text text-anchor="start" x="307.27" y="-525.6" font-family="Arial" font-size="14.00" fill="#666666">[BASE TABLE]</text>
<polygon fill="none" stroke="black" points="46.2,-481.4 46.2,-512.2 407.64,-512.2 407.64,-481.4 46.2,-481.4"/>
<text text-anchor="start" x="53.2" y="-493.6" font-family="Arial" font-size="14.00">game_id </text>
<text text-anchor="start" x="110.79" y="-493.6" font-family="Arial" font-size="14.00" fill="#666666">[varchar(36)]</text>
<polygon fill="none" stroke="black" points="46.2,-450.6 46.2,-481.4 407.64,-481.4 407.64,-450.6 46.2,-450.6"/>
<text text-anchor="start" x="53.2" y="-462.8" font-family="Arial" font-size="14.00">latest_game_version_id </text>
<text text-anchor="start" x="204.96" y="-462.8" font-family="Arial" font-size="14.00" fill="#666666">[varchar(36)]</text>
<polygon fill="none" stroke="black" points="46.2,-419.8 46.2,-450.6 407.64,-450.6 407.64,-419.8 46.2,-419.8"/>
<text text-anchor="start" x="53.2" y="-432" font-family="Arial" font-size="14.00">latest_game_version_created_at </text>
<text text-anchor="start" x="260.22" y="-432" font-family="Arial" font-size="14.00" fill="#666666">[datetime]</text>
<polygon fill="none" stroke="black" stroke-width="3" points="44.7,-418.3 44.7,-549.3 409.14,-549.3 409.14,-418.3 44.7,-418.3"/>
</g>
<!-- games -->
<g id="node2" class="node">
<title>games</title>
<polygon fill="#efefef" stroke="none" points="105.12,-258.8 105.12,-294.4 348.72,-294.4 348.72,-258.8 105.12,-258.8"/>
<polygon fill="none" stroke="black" points="105.12,-258.8 105.12,-294.4 348.72,-294.4 348.72,-258.8 105.12,-258.8"/>
<text text-anchor="start" x="141.68" y="-272.2" font-family="Arial Bold" font-size="18.00">games</text>
<text text-anchor="start" x="187.67" y="-272.2" font-family="Arial" font-size="14.00">    </text>
<text text-anchor="start" x="218.79" y="-272.2" font-family="Arial" font-size="14.00" fill="#666666">[BASE TABLE]</text>
<polygon fill="none" stroke="black" points="105.12,-228 105.12,-258.8 348.72,-258.8 348.72,-228 105.12,-228"/>
<text text-anchor="start" x="112.12" y="-240.2" font-family="Arial" font-size="14.00">id </text>
<text text-anchor="start" x="126.91" y="-240.2" font-family="Arial" font-size="14.00" fill="#666666">[varchar(36)]</text>
<polygon fill="none" stroke="black" points="105.12,-197.2 105.12,-228 348.72,-228 348.72,-197.2 105.12,-197.2"/>
<text text-anchor="start" x="112.12" y="-209.4" font-family="Arial" font-size="14.00">name </text>
<text text-anchor="start" x="151.03" y="-209.4" font-family="Arial" font-size="14.00" fill="#666666">[varchar(256)]</text>
<polygon fill="none" stroke="black" points="105.12,-166.4 105.12,-197.2 348.72,-197.2 348.72,-166.4 105.12,-166.4"/>
<text text-anchor="start" x="112.12" y="-178.6" font-family="Arial" font-size="14.00">description </text>
<text text-anchor="start" x="183.71" y="-178.6" font-family="Arial" font-size="14.00" fill="#666666">[text]</text>
<polygon fill="none" stroke="black" points="105.12,-135.6 105.12,-166.4 348.72,-166.4 348.72,-135.6 105.12,-135.6"/>
<text text-anchor="start" x="112.12" y="-147.8" font-family="Arial" font-size="14.00">created_at </text>
<text text-anchor="start" x="182.17" y="-147.8" font-family="Arial" font-size="14.00" fill="#666666">[datetime]</text>
<polygon fill="none" stroke="black" points="105.12,-104.8 105.12,-135.6 348.72,-135.6 348.72,-104.8 105.12,-104.8"/>
<text text-anchor="start" x="112.12" y="-117" font-family="Arial" font-size="14.00">deleted_at </text>
<text text-anchor="start" x="181.4" y="-117" font-family="Arial" font-size="14.00" fill="#666666">[datetime]</text>
<polygon fill="none" stroke="black" points="105.12,-74 105.12,-104.8 348.72,-104.8 348.72,-74 105.12,-74"/>
<text text-anchor="start" x="112.12" y="-86.2" font-family="Arial" font-size="14.00">visibility_type_id </text>
<text text-anchor="start" x="217.17" y="-86.2" font-family="Arial" font-size="14.00" fill="#666666">[tinyint(4)]</text>
<polygon fill="none" stroke="black" points="105.12,-43.2 105.12,-74 348.72,-74 348.72,-43.2 105.12,-43.2"/>
<text text-anchor="start" x="112.12" y="-55.4" font-family="Arial" font-size="14.00">latest_version_updated_at </text>
<text text-anchor="start" x="280.24" y="-55.4" font-family="Arial" font-size="14.00" fill="#666666">[datetime]</text>
</g>
<!-- v2_latest_game_version_times&#45;&gt;games -->
<g id="edge1" class="edge">
<title>v2_latest_game_version_times:game_id&#45;&gt;games:id</title>
<path fill="none" stroke="black" d="M418.97,-496.07C520.53,-481.21 461.73,-243.4 349.72,-243.4"/>
<polygon fill="black" stroke="black" points="418.95,-496.07 408.66,-492.29 413.63,-496.45 409.31,-496.75 409.31,-496.75 409.31,-496.75 413.63,-496.45 409.29,-501.27 418.95,-496.07"/>
<text text-anchor="start" x="415.64" y="-506.8" font-family="Arial" font-size="10.00">FOREIGN KEY (game_id) REFERENCES games (id)</text>
</g>
</g>
</svg>
