<?xml version="1.0" encoding="UTF-8" standalone="no"?>
<!DOCTYPE svg PUBLIC "-//W3C//DTD SVG 1.1//EN"
 "http://www.w3.org/Graphics/SVG/1.1/DTD/svg11.dtd">
<!-- Generated by graphviz version 2.40.1 (20161225.0304)
 -->
<!-- Title: v2_latest_game_version_times Pages: 1 -->
<svg width="459pt" height="225pt"
 viewBox="0.00 0.00 459.00 225.00" xmlns="http://www.w3.org/2000/svg" xmlns:xlink="http://www.w3.org/1999/xlink">
<g id="graph0" class="graph" transform="scale(1 1) rotate(0) translate(4 221)">
<title>v2_latest_game_version_times</title>
<polygon fill="#ffffff" stroke="transparent" points="-4,4 -4,-221 455,-221 455,4 -4,4"/>
<!-- v2_latest_game_version_times -->
<g id="node1" class="node">
<title>v2_latest_game_version_times</title>
<polygon fill="#efefef" stroke="transparent" points="46.5,-135.5 46.5,-170.5 405.5,-170.5 405.5,-135.5 46.5,-135.5"/>
<polygon fill="none" stroke="#000000" points="46.5,-135.5 46.5,-170.5 405.5,-170.5 405.5,-135.5 46.5,-135.5"/>
<text text-anchor="start" x="53.3468" y="-148.3" font-family="Arial Bold" font-size="18.00" fill="#000000">v2_latest_game_version_times</text>
<text text-anchor="start" x="301.3994" y="-148.3" font-family="Arial" font-size="14.00" fill="#000000"> </text>
<text text-anchor="start" x="305.29" y="-148.3" font-family="Arial" font-size="14.00" fill="#666666">[BASE TABLE]</text>
<polygon fill="none" stroke="#000000" points="46.5,-105.5 46.5,-135.5 405.5,-135.5 405.5,-105.5 46.5,-105.5"/>
<text text-anchor="start" x="53.5" y="-116.9" font-family="Arial" font-size="14.00" fill="#000000">game_id </text>
<text text-anchor="start" x="111.0708" y="-116.9" font-family="Arial" font-size="14.00" fill="#666666">[varchar(36)]</text>
<polygon fill="none" stroke="#000000" points="46.5,-75.5 46.5,-105.5 405.5,-105.5 405.5,-75.5 46.5,-75.5"/>
<text text-anchor="start" x="53.5" y="-86.9" font-family="Arial" font-size="14.00" fill="#000000">latest_game_version_id </text>
<text text-anchor="start" x="205.204" y="-86.9" font-family="Arial" font-size="14.00" fill="#666666">[varchar(36)]</text>
<polygon fill="none" stroke="#000000" points="46.5,-45.5 46.5,-75.5 405.5,-75.5 405.5,-45.5 46.5,-45.5"/>
<text text-anchor="start" x="53.5" y="-56.9" font-family="Arial" font-size="14.00" fill="#000000">latest_game_version_created_at </text>
<text text-anchor="start" x="260.4522" y="-56.9" font-family="Arial" font-size="14.00" fill="#666666">[datetime]</text>
<polygon fill="none" stroke="#000000" stroke-width="3" points="44.5,-44.5 44.5,-172.5 406.5,-172.5 406.5,-44.5 44.5,-44.5"/>
</g>
</g>
</svg>
