<?xml version="1.0" encoding="UTF-8" standalone="no"?>
<!DOCTYPE svg PUBLIC "-//W3C//DTD SVG 1.1//EN"
 "http://www.w3.org/Graphics/SVG/1.1/DTD/svg11.dtd">
<!-- Generated by graphviz version 2.40.1 (20161225.0304)
 -->
<!-- Title: v2_latest_game_version_times Pages: 1 -->
<svg width="664pt" height="592pt"
 viewBox="0.00 0.00 663.50 592.00" xmlns="http://www.w3.org/2000/svg" xmlns:xlink="http://www.w3.org/1999/xlink">
<g id="graph0" class="graph" transform="scale(1 1) rotate(0) translate(4 588)">
<title>v2_latest_game_version_times</title>
<polygon fill="#ffffff" stroke="transparent" points="-4,4 -4,-588 659.5,-588 659.5,4 -4,4"/>
<!-- v2_latest_game_version_times -->
<g id="node1" class="node">
<title>v2_latest_game_version_times</title>
<polygon fill="#efefef" stroke="transparent" points="251,-502.5 251,-537.5 610,-537.5 610,-502.5 251,-502.5"/>
<polygon fill="none" stroke="#000000" points="251,-502.5 251,-537.5 610,-537.5 610,-502.5 251,-502.5"/>
<text text-anchor="start" x="257.8468" y="-515.3" font-family="Arial Bold" font-size="18.00" fill="#000000">v2_latest_game_version_times</text>
<text text-anchor="start" x="505.8994" y="-515.3" font-family="Arial" font-size="14.00" fill="#000000"> </text>
<text text-anchor="start" x="509.79" y="-515.3" font-family="Arial" font-size="14.00" fill="#666666">[BASE TABLE]</text>
<polygon fill="none" stroke="#000000" points="251,-472.5 251,-502.5 610,-502.5 610,-472.5 251,-472.5"/>
<text text-anchor="start" x="258" y="-483.9" font-family="Arial" font-size="14.00" fill="#000000">game_id </text>
<text text-anchor="start" x="315.5708" y="-483.9" font-family="Arial" font-size="14.00" fill="#666666">[varchar(36)]</text>
<polygon fill="none" stroke="#000000" points="251,-442.5 251,-472.5 610,-472.5 610,-442.5 251,-442.5"/>
<text text-anchor="start" x="258" y="-453.9" font-family="Arial" font-size="14.00" fill="#000000">latest_game_version_id </text>
<text text-anchor="start" x="409.704" y="-453.9" font-family="Arial" font-size="14.00" fill="#666666">[varchar(36)]</text>
<polygon fill="none" stroke="#000000" points="251,-412.5 251,-442.5 610,-442.5 610,-412.5 251,-412.5"/>
<text text-anchor="start" x="258" y="-423.9" font-family="Arial" font-size="14.00" fill="#000000">latest_game_version_created_at </text>
<text text-anchor="start" x="464.9522" y="-423.9" font-family="Arial" font-size="14.00" fill="#666666">[datetime]</text>
<polygon fill="none" stroke="#000000" stroke-width="3" points="249,-411.5 249,-539.5 611,-539.5 611,-411.5 249,-411.5"/>
</g>
<!-- games -->
<g id="node2" class="node">
<title>games</title>
<polygon fill="#efefef" stroke="transparent" points="309,-252.5 309,-287.5 552,-287.5 552,-252.5 309,-252.5"/>
<polygon fill="none" stroke="#000000" points="309,-252.5 309,-287.5 552,-287.5 552,-252.5 309,-252.5"/>
<text text-anchor="start" x="354.8677" y="-265.3" font-family="Arial Bold" font-size="18.00" fill="#000000">games</text>
<text text-anchor="start" x="408.8785" y="-265.3" font-family="Arial" font-size="14.00" fill="#000000"> </text>
<text text-anchor="start" x="412.7691" y="-265.3" font-family="Arial" font-size="14.00" fill="#666666">[BASE TABLE]</text>
<polygon fill="none" stroke="#000000" points="309,-222.5 309,-252.5 552,-252.5 552,-222.5 309,-222.5"/>
<text text-anchor="start" x="316" y="-233.9" font-family="Arial" font-size="14.00" fill="#000000">id </text>
<text text-anchor="start" x="330.7798" y="-233.9" font-family="Arial" font-size="14.00" fill="#666666">[varchar(36)]</text>
<polygon fill="none" stroke="#000000" points="309,-192.5 309,-222.5 552,-222.5 552,-192.5 309,-192.5"/>
<text text-anchor="start" x="316" y="-203.9" font-family="Arial" font-size="14.00" fill="#000000">name </text>
<text text-anchor="start" x="354.899" y="-203.9" font-family="Arial" font-size="14.00" fill="#666666">[varchar(256)]</text>
<polygon fill="none" stroke="#000000" points="309,-162.5 309,-192.5 552,-192.5 552,-162.5 309,-162.5"/>
<text text-anchor="start" x="316" y="-173.9" font-family="Arial" font-size="14.00" fill="#000000">description </text>
<text text-anchor="start" x="387.568" y="-173.9" font-family="Arial" font-size="14.00" fill="#666666">[text]</text>
<polygon fill="none" stroke="#000000" points="309,-132.5 309,-162.5 552,-162.5 552,-132.5 309,-132.5"/>
<text text-anchor="start" x="316" y="-143.9" font-family="Arial" font-size="14.00" fill="#000000">created_at </text>
<text text-anchor="start" x="386.028" y="-143.9" font-family="Arial" font-size="14.00" fill="#666666">[datetime]</text>
<polygon fill="none" stroke="#000000" points="309,-102.5 309,-132.5 552,-132.5 552,-102.5 309,-102.5"/>
<text text-anchor="start" x="316" y="-113.9" font-family="Arial" font-size="14.00" fill="#000000">deleted_at </text>
<text text-anchor="start" x="385.2566" y="-113.9" font-family="Arial" font-size="14.00" fill="#666666">[datetime]</text>
<polygon fill="none" stroke="#000000" points="309,-72.5 309,-102.5 552,-102.5 552,-72.5 309,-72.5"/>
<text text-anchor="start" x="316" y="-83.9" font-family="Arial" font-size="14.00" fill="#000000">visibility_type_id </text>
<text text-anchor="start" x="421.007" y="-83.9" font-family="Arial" font-size="14.00" fill="#666666">[tinyint(4)]</text>
<polygon fill="none" stroke="#000000" points="309,-42.5 309,-72.5 552,-72.5 552,-42.5 309,-42.5"/>
<text text-anchor="start" x="315.7371" y="-53.9" font-family="Arial" font-size="14.00" fill="#000000">latest_version_updated_at </text>
<text text-anchor="start" x="483.8029" y="-53.9" font-family="Arial" font-size="14.00" fill="#666666">[datetime]</text>
</g>
<!-- v2_latest_game_version_times&#45;&gt;games -->
<g id="edge1" class="edge">
<title>v2_latest_game_version_times:game_id&#45;&gt;games:id</title>
<path fill="none" stroke="#000000" d="M240.8072,-486.7828C140.6176,-472.1191 198.5023,-237.5 309,-237.5"/>
<polygon fill="#000000" stroke="#000000" points="241.0247,-486.798 250.6841,-491.9889 246.0123,-487.149 251,-487.5 251,-487.5 251,-487.5 246.0123,-487.149 251.3159,-483.0111 241.0247,-486.798 241.0247,-486.798"/>
<text text-anchor="start" x="7.386" y="-497.5" font-family="Arial" font-size="10.00" fill="#000000">FOREIGN KEY (game_id) REFERENCES games (id)</text>
</g>
</g>
</svg>
