<?xml version="1.0" encoding="UTF-8" standalone="no"?>
<!DOCTYPE svg PUBLIC "-//W3C//DTD SVG 1.1//EN"
 "http://www.w3.org/Graphics/SVG/1.1/DTD/svg11.dtd">
<!-- Generated by graphviz version 12.1.2 (20240928.0832)
 -->
<!-- Title: atlas_schema_revisions Pages: 1 -->
<svg width="409pt" height="506pt"
 viewBox="0.00 0.00 408.84 505.60" xmlns="http://www.w3.org/2000/svg" xmlns:xlink="http://www.w3.org/1999/xlink">
<g id="graph0" class="graph" transform="scale(1 1) rotate(0) translate(4 501.6)">
<title>atlas_schema_revisions</title>
<polygon fill="white" stroke="none" points="-4,4 -4,-501.6 404.84,-501.6 404.84,4 -4,4"/>
<!-- atlas_schema_revisions -->
<g id="node1" class="node">
<title>atlas_schema_revisions</title>
<polygon fill="#efefef" stroke="none" points="46.2,-415.8 46.2,-451.4 354.64,-451.4 354.64,-415.8 46.2,-415.8"/>
<polygon fill="none" stroke="black" points="46.2,-415.8 46.2,-451.4 354.64,-451.4 354.64,-415.8 46.2,-415.8"/>
<text text-anchor="start" x="53.2" y="-429.2" font-family="Arial Bold" font-size="18.00">atlas_schema_revisions</text>
<text text-anchor="start" x="223.15" y="-429.2" font-family="Arial" font-size="14.00">    </text>
<text text-anchor="start" x="254.27" y="-429.2" font-family="Arial" font-size="14.00" fill="#666666">[BASE TABLE]</text>
<polygon fill="none" stroke="black" points="46.2,-385 46.2,-415.8 354.64,-415.8 354.64,-385 46.2,-385"/>
<text text-anchor="start" x="53.2" y="-397.2" font-family="Arial" font-size="14.00">version </text>
<text text-anchor="start" x="102.22" y="-397.2" font-family="Arial" font-size="14.00" fill="#666666">[varchar(255)]</text>
<polygon fill="none" stroke="black" points="46.2,-354.2 46.2,-385 354.64,-385 354.64,-354.2 46.2,-354.2"/>
<text text-anchor="start" x="53.2" y="-366.4" font-family="Arial" font-size="14.00">description </text>
<text text-anchor="start" x="124.79" y="-366.4" font-family="Arial" font-size="14.00" fill="#666666">[varchar(255)]</text>
<polygon fill="none" stroke="black" points="46.2,-323.4 46.2,-354.2 354.64,-354.2 354.64,-323.4 46.2,-323.4"/>
<text text-anchor="start" x="53.2" y="-335.6" font-family="Arial" font-size="14.00">type </text>
<text text-anchor="start" x="83.55" y="-335.6" font-family="Arial" font-size="14.00" fill="#666666">[bigint(20) unsigned]</text>
<polygon fill="none" stroke="black" points="46.2,-292.6 46.2,-323.4 354.64,-323.4 354.64,-292.6 46.2,-292.6"/>
<text text-anchor="start" x="53.2" y="-304.8" font-family="Arial" font-size="14.00">applied </text>
<text text-anchor="start" x="102.24" y="-304.8" font-family="Arial" font-size="14.00" fill="#666666">[bigint(20)]</text>
<polygon fill="none" stroke="black" points="46.2,-261.8 46.2,-292.6 354.64,-292.6 354.64,-261.8 46.2,-261.8"/>
<text text-anchor="start" x="53.2" y="-274" font-family="Arial" font-size="14.00">total </text>
<text text-anchor="start" x="83.55" y="-274" font-family="Arial" font-size="14.00" fill="#666666">[bigint(20)]</text>
<polygon fill="none" stroke="black" points="46.2,-231 46.2,-261.8 354.64,-261.8 354.64,-231 46.2,-231"/>
<text text-anchor="start" x="53.2" y="-243.2" font-family="Arial" font-size="14.00">executed_at </text>
<text text-anchor="start" x="133.37" y="-243.2" font-family="Arial" font-size="14.00" fill="#666666">[timestamp]</text>
<polygon fill="none" stroke="black" points="46.2,-200.2 46.2,-231 354.64,-231 354.64,-200.2 46.2,-200.2"/>
<text text-anchor="start" x="53.2" y="-212.4" font-family="Arial" font-size="14.00">execution_time </text>
<text text-anchor="start" x="151.25" y="-212.4" font-family="Arial" font-size="14.00" fill="#666666">[bigint(20)]</text>
<polygon fill="none" stroke="black" points="46.2,-169.4 46.2,-200.2 354.64,-200.2 354.64,-169.4 46.2,-169.4"/>
<text text-anchor="start" x="53.2" y="-181.6" font-family="Arial" font-size="14.00">error </text>
<text text-anchor="start" x="86.65" y="-181.6" font-family="Arial" font-size="14.00" fill="#666666">[longtext]</text>
<polygon fill="none" stroke="black" points="46.2,-138.6 46.2,-169.4 354.64,-169.4 354.64,-138.6 46.2,-138.6"/>
<text text-anchor="start" x="53.2" y="-150.8" font-family="Arial" font-size="14.00">error_stmt </text>
<text text-anchor="start" x="120.88" y="-150.8" font-family="Arial" font-size="14.00" fill="#666666">[longtext]</text>
<polygon fill="none" stroke="black" points="46.2,-107.8 46.2,-138.6 354.64,-138.6 354.64,-107.8 46.2,-107.8"/>
<text text-anchor="start" x="53.2" y="-120" font-family="Arial" font-size="14.00">hash </text>
<text text-anchor="start" x="87.45" y="-120" font-family="Arial" font-size="14.00" fill="#666666">[varchar(255)]</text>
<polygon fill="none" stroke="black" points="46.2,-77 46.2,-107.8 354.64,-107.8 354.64,-77 46.2,-77"/>
<text text-anchor="start" x="53.2" y="-89.2" font-family="Arial" font-size="14.00">partial_hashes </text>
<text text-anchor="start" x="148.15" y="-89.2" font-family="Arial" font-size="14.00" fill="#666666">[longtext]</text>
<polygon fill="none" stroke="black" points="46.2,-46.2 46.2,-77 354.64,-77 354.64,-46.2 46.2,-46.2"/>
<text text-anchor="start" x="53.2" y="-58.4" font-family="Arial" font-size="14.00">operator_version </text>
<text text-anchor="start" x="162.15" y="-58.4" font-family="Arial" font-size="14.00" fill="#666666">[varchar(255)]</text>
<polygon fill="none" stroke="black" stroke-width="3" points="44.7,-44.7 44.7,-452.9 356.14,-452.9 356.14,-44.7 44.7,-44.7"/>
</g>
</g>
</svg>
