<?xml version="1.0" encoding="UTF-8" standalone="no"?>
<!DOCTYPE svg PUBLIC "-//W3C//DTD SVG 1.1//EN"
 "http://www.w3.org/Graphics/SVG/1.1/DTD/svg11.dtd">
<!-- Generated by graphviz version 12.1.2 (20240928.0832)
 -->
<!-- Title: edition_game_version_relations Pages: 1 -->
<svg width="983pt" height="602pt"
 viewBox="0.00 0.00 982.62 602.00" xmlns="http://www.w3.org/2000/svg" xmlns:xlink="http://www.w3.org/1999/xlink">
<g id="graph0" class="graph" transform="scale(1 1) rotate(0) translate(4 598)">
<title>edition_game_version_relations</title>
<polygon fill="white" stroke="none" points="-4,4 -4,-598 978.62,-598 978.62,4 -4,4"/>
<!-- edition_game_version_relations -->
<g id="node1" class="node">
<title>edition_game_version_relations</title>
<polygon fill="#efefef" stroke="none" points="261.19,-512.2 261.19,-547.8 630.62,-547.8 630.62,-512.2 261.19,-512.2"/>
<polygon fill="none" stroke="black" points="261.19,-512.2 261.19,-547.8 630.62,-547.8 630.62,-512.2 261.19,-512.2"/>
<text text-anchor="start" x="268.19" y="-525.6" font-family="Arial Bold" font-size="18.00">edition_game_version_relations</text>
<text text-anchor="start" x="499.13" y="-525.6" font-family="Arial" font-size="14.00">    </text>
<text text-anchor="start" x="530.25" y="-525.6" font-family="Arial" font-size="14.00" fill="#666666">[BASE TABLE]</text>
<polygon fill="none" stroke="black" points="261.19,-481.4 261.19,-512.2 630.62,-512.2 630.62,-481.4 261.19,-481.4"/>
<text text-anchor="start" x="268.19" y="-493.6" font-family="Arial" font-size="14.00">edition_id </text>
<text text-anchor="start" x="332.01" y="-493.6" font-family="Arial" font-size="14.00" fill="#666666">[varchar(36)]</text>
<polygon fill="none" stroke="black" points="261.19,-450.6 261.19,-481.4 630.62,-481.4 630.62,-450.6 261.19,-450.6"/>
<text text-anchor="start" x="268.19" y="-462.8" font-family="Arial" font-size="14.00">game_version_id </text>
<text text-anchor="start" x="378.7" y="-462.8" font-family="Arial" font-size="14.00" fill="#666666">[varchar(36)]</text>
<polygon fill="none" stroke="black" stroke-width="3" points="259.69,-449.1 259.69,-549.3 632.12,-549.3 632.12,-449.1 259.69,-449.1"/>
</g>
<!-- editions -->
<g id="node2" class="node">
<title>editions</title>
<polygon fill="#efefef" stroke="none" points="179.16,-243.4 179.16,-279 374.65,-279 374.65,-243.4 179.16,-243.4"/>
<polygon fill="none" stroke="black" points="179.16,-243.4 179.16,-279 374.65,-279 374.65,-243.4 179.16,-243.4"/>
<text text-anchor="start" x="186.16" y="-256.8" font-family="Arial Bold" font-size="18.00">editions</text>
<text text-anchor="start" x="243.16" y="-256.8" font-family="Arial" font-size="14.00">    </text>
<text text-anchor="start" x="274.27" y="-256.8" font-family="Arial" font-size="14.00" fill="#666666">[BASE TABLE]</text>
<polygon fill="none" stroke="black" points="179.16,-212.6 179.16,-243.4 374.65,-243.4 374.65,-212.6 179.16,-212.6"/>
<text text-anchor="start" x="186.16" y="-224.8" font-family="Arial" font-size="14.00">id </text>
<text text-anchor="start" x="200.94" y="-224.8" font-family="Arial" font-size="14.00" fill="#666666">[varchar(36)]</text>
<polygon fill="none" stroke="black" points="179.16,-181.8 179.16,-212.6 374.65,-212.6 374.65,-181.8 179.16,-181.8"/>
<text text-anchor="start" x="186.16" y="-194" font-family="Arial" font-size="14.00">name </text>
<text text-anchor="start" x="225.07" y="-194" font-family="Arial" font-size="14.00" fill="#666666">[varchar(32)]</text>
<polygon fill="none" stroke="black" points="179.16,-151 179.16,-181.8 374.65,-181.8 374.65,-151 179.16,-151"/>
<text text-anchor="start" x="186.16" y="-163.2" font-family="Arial" font-size="14.00">questionnaire_url </text>
<text text-anchor="start" x="297.45" y="-163.2" font-family="Arial" font-size="14.00" fill="#666666">[text]</text>
<polygon fill="none" stroke="black" points="179.16,-120.2 179.16,-151 374.65,-151 374.65,-120.2 179.16,-120.2"/>
<text text-anchor="start" x="186.16" y="-132.4" font-family="Arial" font-size="14.00">created_at </text>
<text text-anchor="start" x="256.21" y="-132.4" font-family="Arial" font-size="14.00" fill="#666666">[datetime]</text>
<polygon fill="none" stroke="black" points="179.16,-89.4 179.16,-120.2 374.65,-120.2 374.65,-89.4 179.16,-89.4"/>
<text text-anchor="start" x="186.16" y="-101.6" font-family="Arial" font-size="14.00">deleted_at </text>
<text text-anchor="start" x="255.44" y="-101.6" font-family="Arial" font-size="14.00" fill="#666666">[datetime]</text>
</g>
<!-- edition_game_version_relations&#45;&gt;editions -->
<g id="edge1" class="edge">
<title>edition_game_version_relations:edition_id&#45;&gt;editions:id</title>
<path fill="none" stroke="black" d="M249.93,-495.27C223.61,-486.06 244.16,-437.32 261.19,-404.4 289.79,-349.09 346.04,-377.51 374.65,-322.2 393.88,-285.01 417.51,-228 375.65,-228"/>
<polygon fill="black" stroke="black" points="249.97,-495.28 259.19,-501.2 255.24,-496.06 259.52,-496.7 259.52,-496.7 259.52,-496.7 255.24,-496.06 260.52,-492.3 249.97,-495.28"/>
<text text-anchor="start" x="7" y="-506.8" font-family="Arial" font-size="10.00">FOREIGN KEY (edition_id) REFERENCES editions (id)</text>
</g>
<!-- v2_game_versions -->
<g id="node3" class="node">
<title>v2_game_versions</title>
<polygon fill="#efefef" stroke="none" points="479.17,-289.6 479.17,-325.2 752.63,-325.2 752.63,-289.6 479.17,-289.6"/>
<polygon fill="none" stroke="black" points="479.17,-289.6 479.17,-325.2 752.63,-325.2 752.63,-289.6 479.17,-289.6"/>
<text text-anchor="start" x="486.17" y="-303" font-family="Arial Bold" font-size="18.00">v2_game_versions</text>
<text text-anchor="start" x="621.14" y="-303" font-family="Arial" font-size="14.00">    </text>
<text text-anchor="start" x="652.26" y="-303" font-family="Arial" font-size="14.00" fill="#666666">[BASE TABLE]</text>
<polygon fill="none" stroke="black" points="479.17,-258.8 479.17,-289.6 752.63,-289.6 752.63,-258.8 479.17,-258.8"/>
<text text-anchor="start" x="486.17" y="-271" font-family="Arial" font-size="14.00">id </text>
<text text-anchor="start" x="500.96" y="-271" font-family="Arial" font-size="14.00" fill="#666666">[varchar(36)]</text>
<polygon fill="none" stroke="black" points="479.17,-228 479.17,-258.8 752.63,-258.8 752.63,-228 479.17,-228"/>
<text text-anchor="start" x="486.17" y="-240.2" font-family="Arial" font-size="14.00">game_id </text>
<text text-anchor="start" x="543.76" y="-240.2" font-family="Arial" font-size="14.00" fill="#666666">[varchar(36)]</text>
<polygon fill="none" stroke="black" points="479.17,-197.2 479.17,-228 752.63,-228 752.63,-197.2 479.17,-197.2"/>
<text text-anchor="start" x="486.17" y="-209.4" font-family="Arial" font-size="14.00">game_image_id </text>
<text text-anchor="start" x="589.68" y="-209.4" font-family="Arial" font-size="14.00" fill="#666666">[varchar(36)]</text>
<polygon fill="none" stroke="black" points="479.17,-166.4 479.17,-197.2 752.63,-197.2 752.63,-166.4 479.17,-166.4"/>
<text text-anchor="start" x="486.17" y="-178.6" font-family="Arial" font-size="14.00">game_video_id </text>
<text text-anchor="start" x="585.02" y="-178.6" font-family="Arial" font-size="14.00" fill="#666666">[varchar(36)]</text>
<polygon fill="none" stroke="black" points="479.17,-135.6 479.17,-166.4 752.63,-166.4 752.63,-135.6 479.17,-135.6"/>
<text text-anchor="start" x="486.17" y="-147.8" font-family="Arial" font-size="14.00">name </text>
<text text-anchor="start" x="525.08" y="-147.8" font-family="Arial" font-size="14.00" fill="#666666">[varchar(32)]</text>
<polygon fill="none" stroke="black" points="479.17,-104.8 479.17,-135.6 752.63,-135.6 752.63,-104.8 479.17,-104.8"/>
<text text-anchor="start" x="486.17" y="-117" font-family="Arial" font-size="14.00">description </text>
<text text-anchor="start" x="557.76" y="-117" font-family="Arial" font-size="14.00" fill="#666666">[text]</text>
<polygon fill="none" stroke="black" points="479.17,-74 479.17,-104.8 752.63,-104.8 752.63,-74 479.17,-74"/>
<text text-anchor="start" x="486.17" y="-86.2" font-family="Arial" font-size="14.00">created_at </text>
<text text-anchor="start" x="556.22" y="-86.2" font-family="Arial" font-size="14.00" fill="#666666">[datetime]</text>
<polygon fill="none" stroke="black" points="479.17,-43.2 479.17,-74 752.63,-74 752.63,-43.2 479.17,-43.2"/>
<text text-anchor="start" x="486.17" y="-55.4" font-family="Arial" font-size="14.00">url </text>
<text text-anchor="start" x="505.62" y="-55.4" font-family="Arial" font-size="14.00" fill="#666666">[text]</text>
</g>
<!-- edition_game_version_relations&#45;&gt;v2_game_versions -->
<g id="edge2" class="edge">
<title>edition_game_version_relations:game_version_id&#45;&gt;v2_game_versions:id</title>
<path fill="none" stroke="black" d="M641.37,-463.53C655.53,-454.47 645.22,-422.58 630.62,-404.4 587.28,-350.47 522.35,-422.46 479.17,-368.4 453.04,-335.69 436.3,-274.2 478.17,-274.2"/>
<polygon fill="black" stroke="black" points="641.64,-463.46 630.84,-461.56 636.46,-464.77 632.27,-465.84 632.27,-465.84 632.27,-465.84 636.46,-464.77 633.05,-470.28 641.64,-463.46"/>
<text text-anchor="start" x="638.62" y="-476" font-family="Arial" font-size="10.00">FOREIGN KEY (game_version_id) REFERENCES v2_game_versions (id)</text>
</g>
</g>
</svg>
