<?xml version="1.0" encoding="UTF-8" standalone="no"?>
<!DOCTYPE svg PUBLIC "-//W3C//DTD SVG 1.1//EN"
 "http://www.w3.org/Graphics/SVG/1.1/DTD/svg11.dtd">
<!-- Generated by graphviz version 12.1.2 (20240928.0832)
 -->
<!-- Title: game_play_logs Pages: 1 -->
<svg width="1016pt" height="818pt"
 viewBox="0.00 0.00 1015.87 817.60" xmlns="http://www.w3.org/2000/svg" xmlns:xlink="http://www.w3.org/1999/xlink">
<g id="graph0" class="graph" transform="scale(1 1) rotate(0) translate(4 813.6)">
<title>game_play_logs</title>
<polygon fill="white" stroke="none" points="-4,4 -4,-813.6 1011.87,-813.6 1011.87,4 -4,4"/>
<!-- game_play_logs -->
<g id="node1" class="node">
<title>game_play_logs</title>
<polygon fill="#efefef" stroke="none" points="336.71,-727.8 336.71,-763.4 593.18,-763.4 593.18,-727.8 336.71,-727.8"/>
<polygon fill="none" stroke="black" points="336.71,-727.8 336.71,-763.4 593.18,-763.4 593.18,-727.8 336.71,-727.8"/>
<text text-anchor="start" x="343.71" y="-741.2" font-family="Arial Bold" font-size="18.00">game_play_logs</text>
<text text-anchor="start" x="461.69" y="-741.2" font-family="Arial" font-size="14.00">    </text>
<text text-anchor="start" x="492.8" y="-741.2" font-family="Arial" font-size="14.00" fill="#666666">[BASE TABLE]</text>
<polygon fill="none" stroke="black" points="336.71,-697 336.71,-727.8 593.18,-727.8 593.18,-697 336.71,-697"/>
<text text-anchor="start" x="343.71" y="-709.2" font-family="Arial" font-size="14.00">id </text>
<text text-anchor="start" x="358.5" y="-709.2" font-family="Arial" font-size="14.00" fill="#666666">[varchar(36)]</text>
<polygon fill="none" stroke="black" points="336.71,-666.2 336.71,-697 593.18,-697 593.18,-666.2 336.71,-666.2"/>
<text text-anchor="start" x="343.71" y="-678.4" font-family="Arial" font-size="14.00">edition_id </text>
<text text-anchor="start" x="407.54" y="-678.4" font-family="Arial" font-size="14.00" fill="#666666">[varchar(36)]</text>
<polygon fill="none" stroke="black" points="336.71,-635.4 336.71,-666.2 593.18,-666.2 593.18,-635.4 336.71,-635.4"/>
<text text-anchor="start" x="343.71" y="-647.6" font-family="Arial" font-size="14.00">game_id </text>
<text text-anchor="start" x="401.3" y="-647.6" font-family="Arial" font-size="14.00" fill="#666666">[varchar(36)]</text>
<polygon fill="none" stroke="black" points="336.71,-604.6 336.71,-635.4 593.18,-635.4 593.18,-604.6 336.71,-604.6"/>
<text text-anchor="start" x="343.71" y="-616.8" font-family="Arial" font-size="14.00">game_version_id </text>
<text text-anchor="start" x="454.22" y="-616.8" font-family="Arial" font-size="14.00" fill="#666666">[varchar(36)]</text>
<polygon fill="none" stroke="black" points="336.71,-573.8 336.71,-604.6 593.18,-604.6 593.18,-573.8 336.71,-573.8"/>
<text text-anchor="start" x="343.71" y="-586" font-family="Arial" font-size="14.00">start_time </text>
<text text-anchor="start" x="409.06" y="-586" font-family="Arial" font-size="14.00" fill="#666666">[datetime]</text>
<polygon fill="none" stroke="black" points="336.71,-543 336.71,-573.8 593.18,-573.8 593.18,-543 336.71,-543"/>
<text text-anchor="start" x="343.71" y="-555.2" font-family="Arial" font-size="14.00">end_time </text>
<text text-anchor="start" x="405.19" y="-555.2" font-family="Arial" font-size="14.00" fill="#666666">[datetime]</text>
<polygon fill="none" stroke="black" points="336.71,-512.2 336.71,-543 593.18,-543 593.18,-512.2 336.71,-512.2"/>
<text text-anchor="start" x="343.71" y="-524.4" font-family="Arial" font-size="14.00">created_at </text>
<text text-anchor="start" x="413.76" y="-524.4" font-family="Arial" font-size="14.00" fill="#666666">[datetime]</text>
<polygon fill="none" stroke="black" points="336.71,-481.4 336.71,-512.2 593.18,-512.2 593.18,-481.4 336.71,-481.4"/>
<text text-anchor="start" x="343.71" y="-493.6" font-family="Arial" font-size="14.00">updated_at </text>
<text text-anchor="start" x="417.67" y="-493.6" font-family="Arial" font-size="14.00" fill="#666666">[datetime]</text>
<polygon fill="none" stroke="black" points="336.71,-450.6 336.71,-481.4 593.18,-481.4 593.18,-450.6 336.71,-450.6"/>
<text text-anchor="start" x="343.71" y="-462.8" font-family="Arial" font-size="14.00">deleted_at </text>
<text text-anchor="start" x="412.99" y="-462.8" font-family="Arial" font-size="14.00" fill="#666666">[datetime]</text>
<polygon fill="none" stroke="black" stroke-width="3" points="335.21,-449.1 335.21,-764.9 594.68,-764.9 594.68,-449.1 335.21,-449.1"/>
</g>
<!-- editions -->
<g id="node2" class="node">
<title>editions</title>
<polygon fill="#efefef" stroke="none" points="43.2,-243.4 43.2,-279 238.69,-279 238.69,-243.4 43.2,-243.4"/>
<polygon fill="none" stroke="black" points="43.2,-243.4 43.2,-279 238.69,-279 238.69,-243.4 43.2,-243.4"/>
<text text-anchor="start" x="50.2" y="-256.8" font-family="Arial Bold" font-size="18.00">editions</text>
<text text-anchor="start" x="107.2" y="-256.8" font-family="Arial" font-size="14.00">    </text>
<text text-anchor="start" x="138.31" y="-256.8" font-family="Arial" font-size="14.00" fill="#666666">[BASE TABLE]</text>
<polygon fill="none" stroke="black" points="43.2,-212.6 43.2,-243.4 238.69,-243.4 238.69,-212.6 43.2,-212.6"/>
<text text-anchor="start" x="50.2" y="-224.8" font-family="Arial" font-size="14.00">id </text>
<text text-anchor="start" x="64.99" y="-224.8" font-family="Arial" font-size="14.00" fill="#666666">[varchar(36)]</text>
<polygon fill="none" stroke="black" points="43.2,-181.8 43.2,-212.6 238.69,-212.6 238.69,-181.8 43.2,-181.8"/>
<text text-anchor="start" x="50.2" y="-194" font-family="Arial" font-size="14.00">name </text>
<text text-anchor="start" x="89.11" y="-194" font-family="Arial" font-size="14.00" fill="#666666">[varchar(32)]</text>
<polygon fill="none" stroke="black" points="43.2,-151 43.2,-181.8 238.69,-181.8 238.69,-151 43.2,-151"/>
<text text-anchor="start" x="50.2" y="-163.2" font-family="Arial" font-size="14.00">questionnaire_url </text>
<text text-anchor="start" x="161.5" y="-163.2" font-family="Arial" font-size="14.00" fill="#666666">[text]</text>
<polygon fill="none" stroke="black" points="43.2,-120.2 43.2,-151 238.69,-151 238.69,-120.2 43.2,-120.2"/>
<text text-anchor="start" x="50.2" y="-132.4" font-family="Arial" font-size="14.00">created_at </text>
<text text-anchor="start" x="120.25" y="-132.4" font-family="Arial" font-size="14.00" fill="#666666">[datetime]</text>
<polygon fill="none" stroke="black" points="43.2,-89.4 43.2,-120.2 238.69,-120.2 238.69,-89.4 43.2,-89.4"/>
<text text-anchor="start" x="50.2" y="-101.6" font-family="Arial" font-size="14.00">deleted_at </text>
<text text-anchor="start" x="119.48" y="-101.6" font-family="Arial" font-size="14.00" fill="#666666">[datetime]</text>
</g>
<!-- game_play_logs&#45;&gt;editions -->
<g id="edge1" class="edge">
<title>game_play_logs:edition_id&#45;&gt;editions:id</title>
<path fill="none" stroke="black" d="M325.62,-679.96C240.15,-650.27 339.1,-228 239.69,-228"/>
<polygon fill="black" stroke="black" points="325.51,-679.94 334.66,-685.99 330.78,-680.8 335.05,-681.49 335.05,-681.49 335.05,-681.49 330.78,-680.8 336.1,-677.1 325.51,-679.94"/>
<text text-anchor="start" x="82.52" y="-691.6" font-family="Arial" font-size="10.00">FOREIGN KEY (edition_id) REFERENCES editions (id)</text>
</g>
<!-- games -->
<g id="node3" class="node">
<title>games</title>
<polygon fill="#efefef" stroke="none" points="343.14,-274.2 343.14,-309.8 586.74,-309.8 586.74,-274.2 343.14,-274.2"/>
<polygon fill="none" stroke="black" points="343.14,-274.2 343.14,-309.8 586.74,-309.8 586.74,-274.2 343.14,-274.2"/>
<text text-anchor="start" x="379.71" y="-287.6" font-family="Arial Bold" font-size="18.00">games</text>
<text text-anchor="start" x="425.69" y="-287.6" font-family="Arial" font-size="14.00">    </text>
<text text-anchor="start" x="456.81" y="-287.6" font-family="Arial" font-size="14.00" fill="#666666">[BASE TABLE]</text>
<polygon fill="none" stroke="black" points="343.14,-243.4 343.14,-274.2 586.74,-274.2 586.74,-243.4 343.14,-243.4"/>
<text text-anchor="start" x="350.14" y="-255.6" font-family="Arial" font-size="14.00">id </text>
<text text-anchor="start" x="364.93" y="-255.6" font-family="Arial" font-size="14.00" fill="#666666">[varchar(36)]</text>
<polygon fill="none" stroke="black" points="343.14,-212.6 343.14,-243.4 586.74,-243.4 586.74,-212.6 343.14,-212.6"/>
<text text-anchor="start" x="350.14" y="-224.8" font-family="Arial" font-size="14.00">name </text>
<text text-anchor="start" x="389.05" y="-224.8" font-family="Arial" font-size="14.00" fill="#666666">[varchar(256)]</text>
<polygon fill="none" stroke="black" points="343.14,-181.8 343.14,-212.6 586.74,-212.6 586.74,-181.8 343.14,-181.8"/>
<text text-anchor="start" x="350.14" y="-194" font-family="Arial" font-size="14.00">description </text>
<text text-anchor="start" x="421.74" y="-194" font-family="Arial" font-size="14.00" fill="#666666">[text]</text>
<polygon fill="none" stroke="black" points="343.14,-151 343.14,-181.8 586.74,-181.8 586.74,-151 343.14,-151"/>
<text text-anchor="start" x="350.14" y="-163.2" font-family="Arial" font-size="14.00">created_at </text>
<text text-anchor="start" x="420.19" y="-163.2" font-family="Arial" font-size="14.00" fill="#666666">[datetime]</text>
<polygon fill="none" stroke="black" points="343.14,-120.2 343.14,-151 586.74,-151 586.74,-120.2 343.14,-120.2"/>
<text text-anchor="start" x="350.14" y="-132.4" font-family="Arial" font-size="14.00">deleted_at </text>
<text text-anchor="start" x="419.43" y="-132.4" font-family="Arial" font-size="14.00" fill="#666666">[datetime]</text>
<polygon fill="none" stroke="black" points="343.14,-89.4 343.14,-120.2 586.74,-120.2 586.74,-89.4 343.14,-89.4"/>
<text text-anchor="start" x="350.14" y="-101.6" font-family="Arial" font-size="14.00">visibility_type_id </text>
<text text-anchor="start" x="455.19" y="-101.6" font-family="Arial" font-size="14.00" fill="#666666">[tinyint(4)]</text>
<polygon fill="none" stroke="black" points="343.14,-58.6 343.14,-89.4 586.74,-89.4 586.74,-58.6 343.14,-58.6"/>
<text text-anchor="start" x="350.14" y="-70.8" font-family="Arial" font-size="14.00">latest_version_updated_at </text>
<text text-anchor="start" x="518.27" y="-70.8" font-family="Arial" font-size="14.00" fill="#666666">[datetime]</text>
</g>
<!-- game_play_logs&#45;&gt;games -->
<g id="edge2" class="edge">
<title>game_play_logs:game_id&#45;&gt;games:id</title>
<path fill="none" stroke="black" d="M602.63,-645.26C636.65,-597.61 628.24,-258.8 587.74,-258.8"/>
<polygon fill="black" stroke="black" points="602.82,-645.13 591.99,-646.85 598.36,-648.06 594.74,-650.43 594.74,-650.43 594.74,-650.43 598.36,-648.06 596.92,-654.38 602.82,-645.13"/>
<text text-anchor="start" x="601.18" y="-660.8" font-family="Arial" font-size="10.00">FOREIGN KEY (game_id) REFERENCES games (id)</text>
</g>
<!-- v2_game_versions -->
<g id="node4" class="node">
<title>v2_game_versions</title>
<polygon fill="#efefef" stroke="none" points="691.21,-289.6 691.21,-325.2 964.67,-325.2 964.67,-289.6 691.21,-289.6"/>
<polygon fill="none" stroke="black" points="691.21,-289.6 691.21,-325.2 964.67,-325.2 964.67,-289.6 691.21,-289.6"/>
<text text-anchor="start" x="698.21" y="-303" font-family="Arial Bold" font-size="18.00">v2_game_versions</text>
<text text-anchor="start" x="833.19" y="-303" font-family="Arial" font-size="14.00">    </text>
<text text-anchor="start" x="864.3" y="-303" font-family="Arial" font-size="14.00" fill="#666666">[BASE TABLE]</text>
<polygon fill="none" stroke="black" points="691.21,-258.8 691.21,-289.6 964.67,-289.6 964.67,-258.8 691.21,-258.8"/>
<text text-anchor="start" x="698.21" y="-271" font-family="Arial" font-size="14.00">id </text>
<text text-anchor="start" x="713" y="-271" font-family="Arial" font-size="14.00" fill="#666666">[varchar(36)]</text>
<polygon fill="none" stroke="black" points="691.21,-228 691.21,-258.8 964.67,-258.8 964.67,-228 691.21,-228"/>
<text text-anchor="start" x="698.21" y="-240.2" font-family="Arial" font-size="14.00">game_id </text>
<text text-anchor="start" x="755.8" y="-240.2" font-family="Arial" font-size="14.00" fill="#666666">[varchar(36)]</text>
<polygon fill="none" stroke="black" points="691.21,-197.2 691.21,-228 964.67,-228 964.67,-197.2 691.21,-197.2"/>
<text text-anchor="start" x="698.21" y="-209.4" font-family="Arial" font-size="14.00">game_image_id </text>
<text text-anchor="start" x="801.72" y="-209.4" font-family="Arial" font-size="14.00" fill="#666666">[varchar(36)]</text>
<polygon fill="none" stroke="black" points="691.21,-166.4 691.21,-197.2 964.67,-197.2 964.67,-166.4 691.21,-166.4"/>
<text text-anchor="start" x="698.21" y="-178.6" font-family="Arial" font-size="14.00">game_video_id </text>
<text text-anchor="start" x="797.06" y="-178.6" font-family="Arial" font-size="14.00" fill="#666666">[varchar(36)]</text>
<polygon fill="none" stroke="black" points="691.21,-135.6 691.21,-166.4 964.67,-166.4 964.67,-135.6 691.21,-135.6"/>
<text text-anchor="start" x="698.21" y="-147.8" font-family="Arial" font-size="14.00">name </text>
<text text-anchor="start" x="737.12" y="-147.8" font-family="Arial" font-size="14.00" fill="#666666">[varchar(32)]</text>
<polygon fill="none" stroke="black" points="691.21,-104.8 691.21,-135.6 964.67,-135.6 964.67,-104.8 691.21,-104.8"/>
<text text-anchor="start" x="698.21" y="-117" font-family="Arial" font-size="14.00">description </text>
<text text-anchor="start" x="769.8" y="-117" font-family="Arial" font-size="14.00" fill="#666666">[text]</text>
<polygon fill="none" stroke="black" points="691.21,-74 691.21,-104.8 964.67,-104.8 964.67,-74 691.21,-74"/>
<text text-anchor="start" x="698.21" y="-86.2" font-family="Arial" font-size="14.00">created_at </text>
<text text-anchor="start" x="768.26" y="-86.2" font-family="Arial" font-size="14.00" fill="#666666">[datetime]</text>
<polygon fill="none" stroke="black" points="691.21,-43.2 691.21,-74 964.67,-74 964.67,-43.2 691.21,-43.2"/>
<text text-anchor="start" x="698.21" y="-55.4" font-family="Arial" font-size="14.00">url </text>
<text text-anchor="start" x="717.66" y="-55.4" font-family="Arial" font-size="14.00" fill="#666666">[text]</text>
</g>
<!-- game_play_logs&#45;&gt;v2_game_versions -->
<g id="edge3" class="edge">
<title>game_play_logs:game_version_id&#45;&gt;v2_game_versions:id</title>
<path fill="none" stroke="black" d="M604.08,-617.97C668.52,-589.63 614.04,-274.2 690.21,-274.2"/>
<polygon fill="black" stroke="black" points="604.3,-617.92 593.6,-615.52 599.07,-619 594.83,-619.87 594.83,-619.87 594.83,-619.87 599.07,-619 595.41,-624.34 604.3,-617.92"/>
<text text-anchor="start" x="601.18" y="-630" font-family="Arial" font-size="10.00">FOREIGN KEY (game_version_id) REFERENCES v2_game_versions (id)</text>
</g>
</g>
</svg>
