<?xml version="1.0" encoding="UTF-8" standalone="no"?>
<!DOCTYPE svg PUBLIC "-//W3C//DTD SVG 1.1//EN"
 "http://www.w3.org/Graphics/SVG/1.1/DTD/svg11.dtd">
<!-- Generated by graphviz version 12.1.2 (20240928.0832)
 -->
<!-- Title: game_genres Pages: 1 -->
<svg width="633pt" height="448pt"
 viewBox="0.00 0.00 632.60 448.00" xmlns="http://www.w3.org/2000/svg" xmlns:xlink="http://www.w3.org/1999/xlink">
<g id="graph0" class="graph" transform="scale(1 1) rotate(0) translate(4 444)">
<title>game_genres</title>
<polygon fill="white" stroke="none" points="-4,4 -4,-444 628.6,-444 628.6,4 -4,4"/>
<!-- game_genres -->
<g id="node1" class="node">
<title>game_genres</title>
<polygon fill="#efefef" stroke="none" points="75.19,-138.6 75.19,-174.2 308.63,-174.2 308.63,-138.6 75.19,-138.6"/>
<polygon fill="none" stroke="black" points="75.19,-138.6 75.19,-174.2 308.63,-174.2 308.63,-138.6 75.19,-138.6"/>
<text text-anchor="start" x="82.19" y="-152" font-family="Arial Bold" font-size="18.00">game_genres</text>
<text text-anchor="start" x="177.14" y="-152" font-family="Arial" font-size="14.00">    </text>
<text text-anchor="start" x="208.26" y="-152" font-family="Arial" font-size="14.00" fill="#666666">[BASE TABLE]</text>
<polygon fill="none" stroke="black" points="75.19,-107.8 75.19,-138.6 308.63,-138.6 308.63,-107.8 75.19,-107.8"/>
<text text-anchor="start" x="82.19" y="-120" font-family="Arial" font-size="14.00">id </text>
<text text-anchor="start" x="96.97" y="-120" font-family="Arial" font-size="14.00" fill="#666666">[varchar(36)]</text>
<polygon fill="none" stroke="black" points="75.19,-77 75.19,-107.8 308.63,-107.8 308.63,-77 75.19,-77"/>
<text text-anchor="start" x="82.19" y="-89.2" font-family="Arial" font-size="14.00">name </text>
<text text-anchor="start" x="121.1" y="-89.2" font-family="Arial" font-size="14.00" fill="#666666">[varchar(32)]</text>
<polygon fill="none" stroke="black" points="75.19,-46.2 75.19,-77 308.63,-77 308.63,-46.2 75.19,-46.2"/>
<text text-anchor="start" x="82.19" y="-58.4" font-family="Arial" font-size="14.00">created_at </text>
<text text-anchor="start" x="152.24" y="-58.4" font-family="Arial" font-size="14.00" fill="#666666">[datetime]</text>
<polygon fill="none" stroke="black" stroke-width="3" points="73.69,-44.7 73.69,-175.7 310.13,-175.7 310.13,-44.7 73.69,-44.7"/>
</g>
<!-- game_genre_relations -->
<g id="node2" class="node">
<title>game_genre_relations</title>
<polygon fill="#efefef" stroke="none" points="43.2,-361.2 43.2,-396.8 340.62,-396.8 340.62,-361.2 43.2,-361.2"/>
<polygon fill="none" stroke="black" points="43.2,-361.2 43.2,-396.8 340.62,-396.8 340.62,-361.2 43.2,-361.2"/>
<text text-anchor="start" x="50.2" y="-374.6" font-family="Arial Bold" font-size="18.00">game_genre_relations</text>
<text text-anchor="start" x="209.13" y="-374.6" font-family="Arial" font-size="14.00">    </text>
<text text-anchor="start" x="240.25" y="-374.6" font-family="Arial" font-size="14.00" fill="#666666">[BASE TABLE]</text>
<polygon fill="none" stroke="black" points="43.2,-330.4 43.2,-361.2 340.62,-361.2 340.62,-330.4 43.2,-330.4"/>
<text text-anchor="start" x="50.2" y="-342.6" font-family="Arial" font-size="14.00">genre_id </text>
<text text-anchor="start" x="108.58" y="-342.6" font-family="Arial" font-size="14.00" fill="#666666">[varchar(36)]</text>
<polygon fill="none" stroke="black" points="43.2,-299.6 43.2,-330.4 340.62,-330.4 340.62,-299.6 43.2,-299.6"/>
<text text-anchor="start" x="50.2" y="-311.8" font-family="Arial" font-size="14.00">game_id </text>
<text text-anchor="start" x="107.79" y="-311.8" font-family="Arial" font-size="14.00" fill="#666666">[varchar(36)]</text>
</g>
<!-- game_genre_relations&#45;&gt;game_genres -->
<g id="edge1" class="edge">
<title>game_genre_relations:genre_id&#45;&gt;game_genres:id</title>
<path fill="none" stroke="black" d="M351.94,-344.95C439.17,-330 405.97,-123.2 309.63,-123.2"/>
<polygon fill="black" stroke="black" points="351.92,-344.95 341.59,-341.29 346.6,-345.39 342.29,-345.75 342.29,-345.75 342.29,-345.75 346.6,-345.39 342.33,-350.26 351.92,-344.95"/>
<text text-anchor="start" x="348.62" y="-355.8" font-family="Arial" font-size="10.00">FOREIGN KEY (genre_id) REFERENCES game_genres (id)</text>
</g>
</g>
</svg>
