<?xml version="1.0" encoding="UTF-8" standalone="no"?>
<!DOCTYPE svg PUBLIC "-//W3C//DTD SVG 1.1//EN"
 "http://www.w3.org/Graphics/SVG/1.1/DTD/svg11.dtd">
<!-- Generated by graphviz version 12.1.2 (20240928.0832)
 -->
<!-- Title: game_creator_custom_jobs Pages: 1 -->
<svg width="799pt" height="852pt"
 viewBox="0.00 0.00 799.28 852.40" xmlns="http://www.w3.org/2000/svg" xmlns:xlink="http://www.w3.org/1999/xlink">
<g id="graph0" class="graph" transform="scale(1 1) rotate(0) translate(4 848.4)">
<title>game_creator_custom_jobs</title>
<polygon fill="white" stroke="none" points="-4,4 -4,-848.4 795.28,-848.4 795.28,4 -4,4"/>
<!-- game_creator_custom_jobs -->
<g id="node1" class="node">
<title>game_creator_custom_jobs</title>
<polygon fill="#efefef" stroke="none" points="202.57,-543 202.57,-578.6 539,-578.6 539,-543 202.57,-543"/>
<polygon fill="none" stroke="black" points="202.57,-543 202.57,-578.6 539,-578.6 539,-543 202.57,-543"/>
<text text-anchor="start" x="209.57" y="-556.4" font-family="Arial Bold" font-size="18.00">game_creator_custom_jobs</text>
<text text-anchor="start" x="407.51" y="-556.4" font-family="Arial" font-size="14.00">    </text>
<text text-anchor="start" x="438.63" y="-556.4" font-family="Arial" font-size="14.00" fill="#666666">[BASE TABLE]</text>
<polygon fill="none" stroke="black" points="202.57,-512.2 202.57,-543 539,-543 539,-512.2 202.57,-512.2"/>
<text text-anchor="start" x="209.57" y="-524.4" font-family="Arial" font-size="14.00">id </text>
<text text-anchor="start" x="224.36" y="-524.4" font-family="Arial" font-size="14.00" fill="#666666">[varchar(36)]</text>
<polygon fill="none" stroke="black" points="202.57,-481.4 202.57,-512.2 539,-512.2 539,-481.4 202.57,-481.4"/>
<text text-anchor="start" x="209.57" y="-493.6" font-family="Arial" font-size="14.00">game_id </text>
<text text-anchor="start" x="267.17" y="-493.6" font-family="Arial" font-size="14.00" fill="#666666">[varchar(36)]</text>
<polygon fill="none" stroke="black" points="202.57,-450.6 202.57,-481.4 539,-481.4 539,-450.6 202.57,-450.6"/>
<text text-anchor="start" x="209.57" y="-462.8" font-family="Arial" font-size="14.00">display_name </text>
<text text-anchor="start" x="299.85" y="-462.8" font-family="Arial" font-size="14.00" fill="#666666">[varchar(64)]</text>
<polygon fill="none" stroke="black" points="202.57,-419.8 202.57,-450.6 539,-450.6 539,-419.8 202.57,-419.8"/>
<text text-anchor="start" x="209.57" y="-432" font-family="Arial" font-size="14.00">created_at </text>
<text text-anchor="start" x="279.62" y="-432" font-family="Arial" font-size="14.00" fill="#666666">[datetime]</text>
<polygon fill="none" stroke="black" stroke-width="3" points="201.07,-418.3 201.07,-580.1 540.5,-580.1 540.5,-418.3 201.07,-418.3"/>
</g>
<!-- games -->
<g id="node3" class="node">
<title>games</title>
<polygon fill="#efefef" stroke="none" points="248.99,-258.8 248.99,-294.4 492.59,-294.4 492.59,-258.8 248.99,-258.8"/>
<polygon fill="none" stroke="black" points="248.99,-258.8 248.99,-294.4 492.59,-294.4 492.59,-258.8 248.99,-258.8"/>
<text text-anchor="start" x="285.55" y="-272.2" font-family="Arial Bold" font-size="18.00">games</text>
<text text-anchor="start" x="331.53" y="-272.2" font-family="Arial" font-size="14.00">    </text>
<text text-anchor="start" x="362.65" y="-272.2" font-family="Arial" font-size="14.00" fill="#666666">[BASE TABLE]</text>
<polygon fill="none" stroke="black" points="248.99,-228 248.99,-258.8 492.59,-258.8 492.59,-228 248.99,-228"/>
<text text-anchor="start" x="255.99" y="-240.2" font-family="Arial" font-size="14.00">id </text>
<text text-anchor="start" x="270.77" y="-240.2" font-family="Arial" font-size="14.00" fill="#666666">[varchar(36)]</text>
<polygon fill="none" stroke="black" points="248.99,-197.2 248.99,-228 492.59,-228 492.59,-197.2 248.99,-197.2"/>
<text text-anchor="start" x="255.99" y="-209.4" font-family="Arial" font-size="14.00">name </text>
<text text-anchor="start" x="294.9" y="-209.4" font-family="Arial" font-size="14.00" fill="#666666">[varchar(256)]</text>
<polygon fill="none" stroke="black" points="248.99,-166.4 248.99,-197.2 492.59,-197.2 492.59,-166.4 248.99,-166.4"/>
<text text-anchor="start" x="255.99" y="-178.6" font-family="Arial" font-size="14.00">description </text>
<text text-anchor="start" x="327.58" y="-178.6" font-family="Arial" font-size="14.00" fill="#666666">[text]</text>
<polygon fill="none" stroke="black" points="248.99,-135.6 248.99,-166.4 492.59,-166.4 492.59,-135.6 248.99,-135.6"/>
<text text-anchor="start" x="255.99" y="-147.8" font-family="Arial" font-size="14.00">created_at </text>
<text text-anchor="start" x="326.04" y="-147.8" font-family="Arial" font-size="14.00" fill="#666666">[datetime]</text>
<polygon fill="none" stroke="black" points="248.99,-104.8 248.99,-135.6 492.59,-135.6 492.59,-104.8 248.99,-104.8"/>
<text text-anchor="start" x="255.99" y="-117" font-family="Arial" font-size="14.00">deleted_at </text>
<text text-anchor="start" x="325.27" y="-117" font-family="Arial" font-size="14.00" fill="#666666">[datetime]</text>
<polygon fill="none" stroke="black" points="248.99,-74 248.99,-104.8 492.59,-104.8 492.59,-74 248.99,-74"/>
<text text-anchor="start" x="255.99" y="-86.2" font-family="Arial" font-size="14.00">visibility_type_id </text>
<text text-anchor="start" x="361.04" y="-86.2" font-family="Arial" font-size="14.00" fill="#666666">[tinyint(4)]</text>
<polygon fill="none" stroke="black" points="248.99,-43.2 248.99,-74 492.59,-74 492.59,-43.2 248.99,-43.2"/>
<text text-anchor="start" x="255.99" y="-55.4" font-family="Arial" font-size="14.00">latest_version_updated_at </text>
<text text-anchor="start" x="424.11" y="-55.4" font-family="Arial" font-size="14.00" fill="#666666">[datetime]</text>
</g>
<!-- game_creator_custom_jobs&#45;&gt;games -->
<g id="edge2" class="edge">
<title>game_creator_custom_jobs:game_id&#45;&gt;games:id</title>
<path fill="none" stroke="black" d="M550.27,-496.07C651.53,-481.21 604.5,-243.4 493.59,-243.4"/>
<polygon fill="black" stroke="black" points="550.31,-496.07 540.02,-492.29 544.99,-496.45 540.67,-496.75 540.67,-496.75 540.67,-496.75 544.99,-496.45 540.65,-501.27 550.31,-496.07"/>
<text text-anchor="start" x="547" y="-506.8" font-family="Arial" font-size="10.00">FOREIGN KEY (game_id) REFERENCES games (id)</text>
</g>
<!-- game_creator_custom_job_relations -->
<g id="node2" class="node">
<title>game_creator_custom_job_relations</title>
<polygon fill="#efefef" stroke="none" points="170.59,-765.6 170.59,-801.2 570.99,-801.2 570.99,-765.6 170.59,-765.6"/>
<polygon fill="none" stroke="black" points="170.59,-765.6 170.59,-801.2 570.99,-801.2 570.99,-765.6 170.59,-765.6"/>
<text text-anchor="start" x="177.59" y="-779" font-family="Arial Bold" font-size="18.00">game_creator_custom_job_relations</text>
<text text-anchor="start" x="439.5" y="-779" font-family="Arial" font-size="14.00">    </text>
<text text-anchor="start" x="470.62" y="-779" font-family="Arial" font-size="14.00" fill="#666666">[BASE TABLE]</text>
<polygon fill="none" stroke="black" points="170.59,-734.8 170.59,-765.6 570.99,-765.6 570.99,-734.8 170.59,-734.8"/>
<text text-anchor="start" x="177.59" y="-747" font-family="Arial" font-size="14.00">game_creator_id </text>
<text text-anchor="start" x="286.54" y="-747" font-family="Arial" font-size="14.00" fill="#666666">[varchar(36)]</text>
<polygon fill="none" stroke="black" points="170.59,-704 170.59,-734.8 570.99,-734.8 570.99,-704 170.59,-704"/>
<text text-anchor="start" x="177.59" y="-716.2" font-family="Arial" font-size="14.00">custom_job_id </text>
<text text-anchor="start" x="271.75" y="-716.2" font-family="Arial" font-size="14.00" fill="#666666">[varchar(36)]</text>
</g>
<!-- game_creator_custom_job_relations&#45;&gt;game_creator_custom_jobs -->
<g id="edge1" class="edge">
<title>game_creator_custom_job_relations:custom_job_id&#45;&gt;game_creator_custom_jobs:id</title>
<path fill="none" stroke="black" d="M371.52,-692.81C381.73,-626.87 496.31,-690.97 539,-624.8 562.42,-588.5 583.2,-527.6 540,-527.6"/>
<polygon fill="black" stroke="black" points="371.52,-692.69 366.32,-702.35 371.14,-698.01 370.83,-702.33 370.83,-702.33 370.83,-702.33 371.14,-698.01 375.3,-702.99 371.52,-692.69"/>
<text text-anchor="start" x="7" y="-713" font-family="Arial" font-size="10.00">FOREIGN KEY (custom_job_id) REFERENCES game_creator_custom_jobs (id)</text>
</g>
</g>
</svg>
