<?xml version="1.0" encoding="UTF-8" standalone="no"?>
<!DOCTYPE svg PUBLIC "-//W3C//DTD SVG 1.1//EN"
 "http://www.w3.org/Graphics/SVG/1.1/DTD/svg11.dtd">
<!-- Generated by graphviz version 12.1.2 (20240928.0832)
 -->
<!-- Title: game_management_roles Pages: 1 -->
<svg width="962pt" height="602pt"
 viewBox="0.00 0.00 961.73 602.00" xmlns="http://www.w3.org/2000/svg" xmlns:xlink="http://www.w3.org/1999/xlink">
<g id="graph0" class="graph" transform="scale(1 1) rotate(0) translate(4 598)">
<title>game_management_roles</title>
<polygon fill="white" stroke="none" points="-4,4 -4,-598 957.73,-598 957.73,4 -4,4"/>
<!-- game_management_roles -->
<g id="node1" class="node">
<title>game_management_roles</title>
<polygon fill="#efefef" stroke="none" points="252.28,-512.2 252.28,-547.8 574.7,-547.8 574.7,-512.2 252.28,-512.2"/>
<polygon fill="none" stroke="black" points="252.28,-512.2 252.28,-547.8 574.7,-547.8 574.7,-512.2 252.28,-512.2"/>
<text text-anchor="start" x="259.28" y="-525.6" font-family="Arial Bold" font-size="18.00">game_management_roles</text>
<text text-anchor="start" x="443.21" y="-525.6" font-family="Arial" font-size="14.00">    </text>
<text text-anchor="start" x="474.33" y="-525.6" font-family="Arial" font-size="14.00" fill="#666666">[BASE TABLE]</text>
<polygon fill="none" stroke="black" points="252.28,-481.4 252.28,-512.2 574.7,-512.2 574.7,-481.4 252.28,-481.4"/>
<text text-anchor="start" x="259.28" y="-493.6" font-family="Arial" font-size="14.00">game_id </text>
<text text-anchor="start" x="316.87" y="-493.6" font-family="Arial" font-size="14.00" fill="#666666">[varchar(36)]</text>
<polygon fill="none" stroke="black" points="252.28,-450.6 252.28,-481.4 574.7,-481.4 574.7,-450.6 252.28,-450.6"/>
<text text-anchor="start" x="259.28" y="-462.8" font-family="Arial" font-size="14.00">user_id </text>
<text text-anchor="start" x="309.09" y="-462.8" font-family="Arial" font-size="14.00" fill="#666666">[varchar(36)]</text>
<polygon fill="none" stroke="black" points="252.28,-419.8 252.28,-450.6 574.7,-450.6 574.7,-419.8 252.28,-419.8"/>
<text text-anchor="start" x="259.28" y="-432" font-family="Arial" font-size="14.00">role_type_id </text>
<text text-anchor="start" x="339.45" y="-432" font-family="Arial" font-size="14.00" fill="#666666">[tinyint(4)]</text>
<polygon fill="none" stroke="black" stroke-width="3" points="250.78,-418.3 250.78,-549.3 576.2,-549.3 576.2,-418.3 250.78,-418.3"/>
</g>
<!-- games -->
<g id="node2" class="node">
<title>games</title>
<polygon fill="#efefef" stroke="none" points="88.69,-258.8 88.69,-294.4 332.29,-294.4 332.29,-258.8 88.69,-258.8"/>
<polygon fill="none" stroke="black" points="88.69,-258.8 88.69,-294.4 332.29,-294.4 332.29,-258.8 88.69,-258.8"/>
<text text-anchor="start" x="125.25" y="-272.2" font-family="Arial Bold" font-size="18.00">games</text>
<text text-anchor="start" x="171.24" y="-272.2" font-family="Arial" font-size="14.00">    </text>
<text text-anchor="start" x="202.35" y="-272.2" font-family="Arial" font-size="14.00" fill="#666666">[BASE TABLE]</text>
<polygon fill="none" stroke="black" points="88.69,-228 88.69,-258.8 332.29,-258.8 332.29,-228 88.69,-228"/>
<text text-anchor="start" x="95.69" y="-240.2" font-family="Arial" font-size="14.00">id </text>
<text text-anchor="start" x="110.48" y="-240.2" font-family="Arial" font-size="14.00" fill="#666666">[varchar(36)]</text>
<polygon fill="none" stroke="black" points="88.69,-197.2 88.69,-228 332.29,-228 332.29,-197.2 88.69,-197.2"/>
<text text-anchor="start" x="95.69" y="-209.4" font-family="Arial" font-size="14.00">name </text>
<text text-anchor="start" x="134.6" y="-209.4" font-family="Arial" font-size="14.00" fill="#666666">[varchar(256)]</text>
<polygon fill="none" stroke="black" points="88.69,-166.4 88.69,-197.2 332.29,-197.2 332.29,-166.4 88.69,-166.4"/>
<text text-anchor="start" x="95.69" y="-178.6" font-family="Arial" font-size="14.00">description </text>
<text text-anchor="start" x="167.28" y="-178.6" font-family="Arial" font-size="14.00" fill="#666666">[text]</text>
<polygon fill="none" stroke="black" points="88.69,-135.6 88.69,-166.4 332.29,-166.4 332.29,-135.6 88.69,-135.6"/>
<text text-anchor="start" x="95.69" y="-147.8" font-family="Arial" font-size="14.00">created_at </text>
<text text-anchor="start" x="165.74" y="-147.8" font-family="Arial" font-size="14.00" fill="#666666">[datetime]</text>
<polygon fill="none" stroke="black" points="88.69,-104.8 88.69,-135.6 332.29,-135.6 332.29,-104.8 88.69,-104.8"/>
<text text-anchor="start" x="95.69" y="-117" font-family="Arial" font-size="14.00">deleted_at </text>
<text text-anchor="start" x="164.97" y="-117" font-family="Arial" font-size="14.00" fill="#666666">[datetime]</text>
<polygon fill="none" stroke="black" points="88.69,-74 88.69,-104.8 332.29,-104.8 332.29,-74 88.69,-74"/>
<text text-anchor="start" x="95.69" y="-86.2" font-family="Arial" font-size="14.00">visibility_type_id </text>
<text text-anchor="start" x="200.74" y="-86.2" font-family="Arial" font-size="14.00" fill="#666666">[tinyint(4)]</text>
<polygon fill="none" stroke="black" points="88.69,-43.2 88.69,-74 332.29,-74 332.29,-43.2 88.69,-43.2"/>
<text text-anchor="start" x="95.69" y="-55.4" font-family="Arial" font-size="14.00">latest_version_updated_at </text>
<text text-anchor="start" x="263.81" y="-55.4" font-family="Arial" font-size="14.00" fill="#666666">[datetime]</text>
</g>
<!-- game_management_roles&#45;&gt;games -->
<g id="edge1" class="edge">
<title>game_management_roles:game_id&#45;&gt;games:id</title>
<path fill="none" stroke="black" d="M240.9,-495.69C200.18,-486.08 224.47,-416.24 252.28,-373.6 273.59,-340.94 310.94,-370.23 332.29,-337.6 355.21,-302.56 375.16,-243.4 333.29,-243.4"/>
<polygon fill="black" stroke="black" points="241,-495.7 250.47,-501.24 246.31,-496.27 250.62,-496.73 250.62,-496.73 250.62,-496.73 246.31,-496.27 251.43,-492.29 241,-495.7"/>
<text text-anchor="start" x="7" y="-506.8" font-family="Arial" font-size="10.00">FOREIGN KEY (game_id) REFERENCES games (id)</text>
</g>
<!-- game_management_role_types -->
<g id="node3" class="node">
<title>game_management_role_types</title>
<polygon fill="#efefef" stroke="none" points="436.29,-197.2 436.29,-232.8 798.69,-232.8 798.69,-197.2 436.29,-197.2"/>
<polygon fill="none" stroke="black" points="436.29,-197.2 436.29,-232.8 798.69,-232.8 798.69,-197.2 436.29,-197.2"/>
<text text-anchor="start" x="443.29" y="-210.6" font-family="Arial Bold" font-size="18.00">game_management_role_types</text>
<text text-anchor="start" x="667.2" y="-210.6" font-family="Arial" font-size="14.00">    </text>
<text text-anchor="start" x="698.32" y="-210.6" font-family="Arial" font-size="14.00" fill="#666666">[BASE TABLE]</text>
<polygon fill="none" stroke="black" points="436.29,-166.4 436.29,-197.2 798.69,-197.2 798.69,-166.4 436.29,-166.4"/>
<text text-anchor="start" x="443.29" y="-178.6" font-family="Arial" font-size="14.00">id </text>
<text text-anchor="start" x="458.07" y="-178.6" font-family="Arial" font-size="14.00" fill="#666666">[tinyint(4)]</text>
<polygon fill="none" stroke="black" points="436.29,-135.6 436.29,-166.4 798.69,-166.4 798.69,-135.6 436.29,-135.6"/>
<text text-anchor="start" x="443.29" y="-147.8" font-family="Arial" font-size="14.00">name </text>
<text text-anchor="start" x="482.2" y="-147.8" font-family="Arial" font-size="14.00" fill="#666666">[varchar(32)]</text>
<polygon fill="none" stroke="black" points="436.29,-104.8 436.29,-135.6 798.69,-135.6 798.69,-104.8 436.29,-104.8"/>
<text text-anchor="start" x="443.29" y="-117" font-family="Arial" font-size="14.00">active </text>
<text text-anchor="start" x="483.75" y="-117" font-family="Arial" font-size="14.00" fill="#666666">[tinyint(1)]</text>
</g>
<!-- game_management_roles&#45;&gt;game_management_role_types -->
<g id="edge2" class="edge">
<title>game_management_roles:role_type_id&#45;&gt;game_management_role_types:id</title>
<path fill="none" stroke="black" d="M585.56,-432.65C598.28,-423.84 585.5,-394.02 574.7,-373.6 539.51,-307.06 471.29,-342.64 436.29,-276 416.82,-238.93 393.42,-181.8 435.29,-181.8"/>
<polygon fill="black" stroke="black" points="585.7,-432.62 574.9,-430.76 580.54,-433.95 576.35,-435.03 576.35,-435.03 576.35,-435.03 580.54,-433.95 577.15,-439.47 585.7,-432.62"/>
<text text-anchor="start" x="582.7" y="-445.2" font-family="Arial" font-size="10.00">FOREIGN KEY (role_type_id) REFERENCES game_management_role_types (id)</text>
</g>
</g>
</svg>
