<?xml version="1.0" encoding="UTF-8" standalone="no"?>
<!DOCTYPE svg PUBLIC "-//W3C//DTD SVG 1.1//EN"
 "http://www.w3.org/Graphics/SVG/1.1/DTD/svg11.dtd">
<!-- Generated by graphviz version 12.1.2 (20240928.0832)
 -->
<!-- Title: game_video_types Pages: 1 -->
<svg width="767pt" height="510pt"
 viewBox="0.00 0.00 767.17 509.60" xmlns="http://www.w3.org/2000/svg" xmlns:xlink="http://www.w3.org/1999/xlink">
<g id="graph0" class="graph" transform="scale(1 1) rotate(0) translate(4 505.6)">
<title>game_video_types</title>
<polygon fill="white" stroke="none" points="-4,4 -4,-505.6 763.17,-505.6 763.17,4 -4,4"/>
<!-- game_video_types -->
<g id="node1" class="node">
<title>game_video_types</title>
<polygon fill="#efefef" stroke="none" points="249.11,-138.6 249.11,-174.2 522.56,-174.2 522.56,-138.6 249.11,-138.6"/>
<polygon fill="none" stroke="black" points="249.11,-138.6 249.11,-174.2 522.56,-174.2 522.56,-138.6 249.11,-138.6"/>
<text text-anchor="start" x="256.11" y="-152" font-family="Arial Bold" font-size="18.00">game_video_types</text>
<text text-anchor="start" x="391.07" y="-152" font-family="Arial" font-size="14.00">    </text>
<text text-anchor="start" x="422.19" y="-152" font-family="Arial" font-size="14.00" fill="#666666">[BASE TABLE]</text>
<polygon fill="none" stroke="black" points="249.11,-107.8 249.11,-138.6 522.56,-138.6 522.56,-107.8 249.11,-107.8"/>
<text text-anchor="start" x="256.11" y="-120" font-family="Arial" font-size="14.00">id </text>
<text text-anchor="start" x="270.89" y="-120" font-family="Arial" font-size="14.00" fill="#666666">[tinyint(4)]</text>
<polygon fill="none" stroke="black" points="249.11,-77 249.11,-107.8 522.56,-107.8 522.56,-77 249.11,-77"/>
<text text-anchor="start" x="256.11" y="-89.2" font-family="Arial" font-size="14.00">name </text>
<text text-anchor="start" x="295.02" y="-89.2" font-family="Arial" font-size="14.00" fill="#666666">[varchar(32)]</text>
<polygon fill="none" stroke="black" points="249.11,-46.2 249.11,-77 522.56,-77 522.56,-46.2 249.11,-46.2"/>
<text text-anchor="start" x="256.11" y="-58.4" font-family="Arial" font-size="14.00">active </text>
<text text-anchor="start" x="296.57" y="-58.4" font-family="Arial" font-size="14.00" fill="#666666">[tinyint(1)]</text>
<polygon fill="none" stroke="black" stroke-width="3" points="247.61,-44.7 247.61,-175.7 524.06,-175.7 524.06,-44.7 247.61,-44.7"/>
</g>
<!-- game_videos -->
<g id="node2" class="node">
<title>game_videos</title>
<polygon fill="#efefef" stroke="none" points="94.1,-422.8 94.1,-458.4 327.57,-458.4 327.57,-422.8 94.1,-422.8"/>
<polygon fill="none" stroke="black" points="94.1,-422.8 94.1,-458.4 327.57,-458.4 327.57,-422.8 94.1,-422.8"/>
<text text-anchor="start" x="101.1" y="-436.2" font-family="Arial Bold" font-size="18.00">game_videos</text>
<text text-anchor="start" x="196.08" y="-436.2" font-family="Arial" font-size="14.00">    </text>
<text text-anchor="start" x="227.19" y="-436.2" font-family="Arial" font-size="14.00" fill="#666666">[BASE TABLE]</text>
<polygon fill="none" stroke="black" points="94.1,-392 94.1,-422.8 327.57,-422.8 327.57,-392 94.1,-392"/>
<text text-anchor="start" x="101.1" y="-404.2" font-family="Arial" font-size="14.00">id </text>
<text text-anchor="start" x="115.89" y="-404.2" font-family="Arial" font-size="14.00" fill="#666666">[varchar(36)]</text>
<polygon fill="none" stroke="black" points="94.1,-361.2 94.1,-392 327.57,-392 327.57,-361.2 94.1,-361.2"/>
<text text-anchor="start" x="101.1" y="-373.4" font-family="Arial" font-size="14.00">game_id </text>
<text text-anchor="start" x="158.69" y="-373.4" font-family="Arial" font-size="14.00" fill="#666666">[varchar(36)]</text>
<polygon fill="none" stroke="black" points="94.1,-330.4 94.1,-361.2 327.57,-361.2 327.57,-330.4 94.1,-330.4"/>
<text text-anchor="start" x="101.1" y="-342.6" font-family="Arial" font-size="14.00">video_type_id </text>
<text text-anchor="start" x="191.39" y="-342.6" font-family="Arial" font-size="14.00" fill="#666666">[tinyint(4)]</text>
<polygon fill="none" stroke="black" points="94.1,-299.6 94.1,-330.4 327.57,-330.4 327.57,-299.6 94.1,-299.6"/>
<text text-anchor="start" x="101.1" y="-311.8" font-family="Arial" font-size="14.00">created_at </text>
<text text-anchor="start" x="171.15" y="-311.8" font-family="Arial" font-size="14.00" fill="#666666">[datetime]</text>
</g>
<!-- game_videos&#45;&gt;game_video_types -->
<g id="edge1" class="edge">
<title>game_videos:video_type_id&#45;&gt;game_video_types:id</title>
<path fill="none" stroke="black" d="M338.58,-344.27C364.55,-335.07 347.09,-286.47 327.57,-256.4 306.67,-224.22 269.99,-252.59 249.11,-220.4 225.6,-184.16 204.9,-123.2 248.11,-123.2"/>
<polygon fill="black" stroke="black" points="338.78,-344.24 328.22,-341.3 333.51,-345.04 329.23,-345.7 329.23,-345.7 329.23,-345.7 333.51,-345.04 329.58,-350.2 338.78,-344.24"/>
<text text-anchor="start" x="7" y="-355.8" font-family="Arial" font-size="10.00">FOREIGN KEY (video_type_id) REFERENCES game_video_types (id)</text>
</g>
<!-- v2_game_videos -->
<g id="node3" class="node">
<title>v2_game_videos</title>
<polygon fill="#efefef" stroke="none" points="431.6,-422.8 431.6,-458.4 692.07,-458.4 692.07,-422.8 431.6,-422.8"/>
<polygon fill="none" stroke="black" points="431.6,-422.8 431.6,-458.4 692.07,-458.4 692.07,-422.8 431.6,-422.8"/>
<text text-anchor="start" x="438.6" y="-436.2" font-family="Arial Bold" font-size="18.00">v2_game_videos</text>
<text text-anchor="start" x="560.58" y="-436.2" font-family="Arial" font-size="14.00">    </text>
<text text-anchor="start" x="591.69" y="-436.2" font-family="Arial" font-size="14.00" fill="#666666">[BASE TABLE]</text>
<polygon fill="none" stroke="black" points="431.6,-392 431.6,-422.8 692.07,-422.8 692.07,-392 431.6,-392"/>
<text text-anchor="start" x="438.6" y="-404.2" font-family="Arial" font-size="14.00">id </text>
<text text-anchor="start" x="453.39" y="-404.2" font-family="Arial" font-size="14.00" fill="#666666">[varchar(36)]</text>
<polygon fill="none" stroke="black" points="431.6,-361.2 431.6,-392 692.07,-392 692.07,-361.2 431.6,-361.2"/>
<text text-anchor="start" x="438.6" y="-373.4" font-family="Arial" font-size="14.00">game_id </text>
<text text-anchor="start" x="496.19" y="-373.4" font-family="Arial" font-size="14.00" fill="#666666">[varchar(36)]</text>
<polygon fill="none" stroke="black" points="431.6,-330.4 431.6,-361.2 692.07,-361.2 692.07,-330.4 431.6,-330.4"/>
<text text-anchor="start" x="438.6" y="-342.6" font-family="Arial" font-size="14.00">video_type_id </text>
<text text-anchor="start" x="528.89" y="-342.6" font-family="Arial" font-size="14.00" fill="#666666">[tinyint(4)]</text>
<polygon fill="none" stroke="black" points="431.6,-299.6 431.6,-330.4 692.07,-330.4 692.07,-299.6 431.6,-299.6"/>
<text text-anchor="start" x="438.6" y="-311.8" font-family="Arial" font-size="14.00">created_at </text>
<text text-anchor="start" x="508.65" y="-311.8" font-family="Arial" font-size="14.00" fill="#666666">[datetime]</text>
</g>
<!-- v2_game_videos&#45;&gt;game_video_types -->
<g id="edge2" class="edge">
<title>v2_game_videos:video_type_id&#45;&gt;game_video_types:id</title>
<path fill="none" stroke="black" d="M420.57,-344.25C394.46,-334.96 411.28,-285.94 431.6,-256.4 456.24,-220.58 497.94,-256.23 522.56,-220.4 547.03,-184.8 566.76,-123.2 523.56,-123.2"/>
<polygon fill="black" stroke="black" points="420.39,-344.23 429.59,-350.2 425.66,-345.04 429.94,-345.7 429.94,-345.7 429.94,-345.7 425.66,-345.04 430.96,-341.3 420.39,-344.23"/>
<text text-anchor="start" x="437.6" y="-355.8" font-family="Arial" font-size="10.00">FOREIGN KEY (video_type_id) REFERENCES game_video_types (id)</text>
</g>
</g>
</svg>
