<?xml version="1.0" encoding="UTF-8" standalone="no"?>
<!DOCTYPE svg PUBLIC "-//W3C//DTD SVG 1.1//EN"
 "http://www.w3.org/Graphics/SVG/1.1/DTD/svg11.dtd">
<!-- Generated by graphviz version 12.1.2 (20240928.0832)
 -->
<!-- Title: game_files Pages: 1 -->
<svg width="861pt" height="633pt"
 viewBox="0.00 0.00 860.65 632.80" xmlns="http://www.w3.org/2000/svg" xmlns:xlink="http://www.w3.org/1999/xlink">
<g id="graph0" class="graph" transform="scale(1 1) rotate(0) translate(4 628.8)">
<title>game_files</title>
<polygon fill="white" stroke="none" points="-4,4 -4,-628.8 856.65,-628.8 856.65,4 -4,4"/>
<!-- game_files -->
<g id="node1" class="node">
<title>game_files</title>
<polygon fill="#efefef" stroke="none" points="327.88,-543 327.88,-578.6 545.33,-578.6 545.33,-543 327.88,-543"/>
<polygon fill="none" stroke="black" points="327.88,-543 327.88,-578.6 545.33,-578.6 545.33,-543 327.88,-543"/>
<text text-anchor="start" x="334.88" y="-556.4" font-family="Arial Bold" font-size="18.00">game_files</text>
<text text-anchor="start" x="413.85" y="-556.4" font-family="Arial" font-size="14.00">    </text>
<text text-anchor="start" x="444.96" y="-556.4" font-family="Arial" font-size="14.00" fill="#666666">[BASE TABLE]</text>
<polygon fill="none" stroke="black" points="327.88,-512.2 327.88,-543 545.33,-543 545.33,-512.2 327.88,-512.2"/>
<text text-anchor="start" x="334.88" y="-524.4" font-family="Arial" font-size="14.00">id </text>
<text text-anchor="start" x="349.66" y="-524.4" font-family="Arial" font-size="14.00" fill="#666666">[varchar(36)]</text>
<polygon fill="none" stroke="black" points="327.88,-481.4 327.88,-512.2 545.33,-512.2 545.33,-481.4 327.88,-481.4"/>
<text text-anchor="start" x="334.88" y="-493.6" font-family="Arial" font-size="14.00">game_version_id </text>
<text text-anchor="start" x="445.39" y="-493.6" font-family="Arial" font-size="14.00" fill="#666666">[varchar(36)]</text>
<polygon fill="none" stroke="black" points="327.88,-450.6 327.88,-481.4 545.33,-481.4 545.33,-450.6 327.88,-450.6"/>
<text text-anchor="start" x="334.88" y="-462.8" font-family="Arial" font-size="14.00">file_type_id </text>
<text text-anchor="start" x="409.59" y="-462.8" font-family="Arial" font-size="14.00" fill="#666666">[tinyint(4)]</text>
<polygon fill="none" stroke="black" points="327.88,-419.8 327.88,-450.6 545.33,-450.6 545.33,-419.8 327.88,-419.8"/>
<text text-anchor="start" x="334.88" y="-432" font-family="Arial" font-size="14.00">hash </text>
<text text-anchor="start" x="369.12" y="-432" font-family="Arial" font-size="14.00" fill="#666666">[char(32)]</text>
<polygon fill="none" stroke="black" points="327.88,-389 327.88,-419.8 545.33,-419.8 545.33,-389 327.88,-389"/>
<text text-anchor="start" x="334.88" y="-401.2" font-family="Arial" font-size="14.00">entry_point </text>
<text text-anchor="start" x="408.03" y="-401.2" font-family="Arial" font-size="14.00" fill="#666666">[text]</text>
<polygon fill="none" stroke="black" points="327.88,-358.2 327.88,-389 545.33,-389 545.33,-358.2 327.88,-358.2"/>
<text text-anchor="start" x="334.88" y="-370.4" font-family="Arial" font-size="14.00">created_at </text>
<text text-anchor="start" x="404.92" y="-370.4" font-family="Arial" font-size="14.00" fill="#666666">[datetime]</text>
<polygon fill="none" stroke="black" stroke-width="3" points="326.38,-356.7 326.38,-580.1 546.83,-580.1 546.83,-356.7 326.38,-356.7"/>
</g>
<!-- game_versions -->
<g id="node2" class="node">
<title>game_versions</title>
<polygon fill="#efefef" stroke="none" points="135.37,-197.2 135.37,-232.8 381.84,-232.8 381.84,-197.2 135.37,-197.2"/>
<polygon fill="none" stroke="black" points="135.37,-197.2 135.37,-232.8 381.84,-232.8 381.84,-197.2 135.37,-197.2"/>
<text text-anchor="start" x="142.37" y="-210.6" font-family="Arial Bold" font-size="18.00">game_versions</text>
<text text-anchor="start" x="250.35" y="-210.6" font-family="Arial" font-size="14.00">    </text>
<text text-anchor="start" x="281.46" y="-210.6" font-family="Arial" font-size="14.00" fill="#666666">[BASE TABLE]</text>
<polygon fill="none" stroke="black" points="135.37,-166.4 135.37,-197.2 381.84,-197.2 381.84,-166.4 135.37,-166.4"/>
<text text-anchor="start" x="142.37" y="-178.6" font-family="Arial" font-size="14.00">id </text>
<text text-anchor="start" x="157.16" y="-178.6" font-family="Arial" font-size="14.00" fill="#666666">[varchar(36)]</text>
<polygon fill="none" stroke="black" points="135.37,-135.6 135.37,-166.4 381.84,-166.4 381.84,-135.6 135.37,-135.6"/>
<text text-anchor="start" x="142.37" y="-147.8" font-family="Arial" font-size="14.00">game_id </text>
<text text-anchor="start" x="199.97" y="-147.8" font-family="Arial" font-size="14.00" fill="#666666">[varchar(36)]</text>
<polygon fill="none" stroke="black" points="135.37,-104.8 135.37,-135.6 381.84,-135.6 381.84,-104.8 135.37,-104.8"/>
<text text-anchor="start" x="142.37" y="-117" font-family="Arial" font-size="14.00">name </text>
<text text-anchor="start" x="181.28" y="-117" font-family="Arial" font-size="14.00" fill="#666666">[varchar(32)]</text>
<polygon fill="none" stroke="black" points="135.37,-74 135.37,-104.8 381.84,-104.8 381.84,-74 135.37,-74"/>
<text text-anchor="start" x="142.37" y="-86.2" font-family="Arial" font-size="14.00">description </text>
<text text-anchor="start" x="213.97" y="-86.2" font-family="Arial" font-size="14.00" fill="#666666">[text]</text>
<polygon fill="none" stroke="black" points="135.37,-43.2 135.37,-74 381.84,-74 381.84,-43.2 135.37,-43.2"/>
<text text-anchor="start" x="142.37" y="-55.4" font-family="Arial" font-size="14.00">created_at </text>
<text text-anchor="start" x="212.42" y="-55.4" font-family="Arial" font-size="14.00" fill="#666666">[datetime]</text>
</g>
<!-- game_files&#45;&gt;game_versions -->
<g id="edge1" class="edge">
<title>game_files:game_version_id&#45;&gt;game_versions:id</title>
<path fill="none" stroke="black" d="M316.45,-496.75C-67.95,-492.99 380.21,-279 381.84,-276 401.78,-239.19 424.71,-181.8 382.84,-181.8"/>
<polygon fill="black" stroke="black" points="316.54,-496.75 326.52,-501.3 321.88,-496.78 326.21,-496.8 326.21,-496.8 326.21,-496.8 321.88,-496.78 326.56,-492.3 316.54,-496.75"/>
<text text-anchor="start" x="7" y="-506.8" font-family="Arial" font-size="10.00">FOREIGN KEY (game_version_id) REFERENCES game_versions (id)</text>
</g>
<!-- game_file_types -->
<g id="node3" class="node">
<title>game_file_types</title>
<polygon fill="#efefef" stroke="none" points="485.88,-166.4 485.88,-202 743.33,-202 743.33,-166.4 485.88,-166.4"/>
<polygon fill="none" stroke="black" points="485.88,-166.4 485.88,-202 743.33,-202 743.33,-166.4 485.88,-166.4"/>
<text text-anchor="start" x="492.88" y="-179.8" font-family="Arial Bold" font-size="18.00">game_file_types</text>
<text text-anchor="start" x="611.84" y="-179.8" font-family="Arial" font-size="14.00">    </text>
<text text-anchor="start" x="642.96" y="-179.8" font-family="Arial" font-size="14.00" fill="#666666">[BASE TABLE]</text>
<polygon fill="none" stroke="black" points="485.88,-135.6 485.88,-166.4 743.33,-166.4 743.33,-135.6 485.88,-135.6"/>
<text text-anchor="start" x="492.88" y="-147.8" font-family="Arial" font-size="14.00">id </text>
<text text-anchor="start" x="507.67" y="-147.8" font-family="Arial" font-size="14.00" fill="#666666">[tinyint(4)]</text>
<polygon fill="none" stroke="black" points="485.88,-104.8 485.88,-135.6 743.33,-135.6 743.33,-104.8 485.88,-104.8"/>
<text text-anchor="start" x="492.88" y="-117" font-family="Arial" font-size="14.00">name </text>
<text text-anchor="start" x="531.79" y="-117" font-family="Arial" font-size="14.00" fill="#666666">[varchar(32)]</text>
<polygon fill="none" stroke="black" points="485.88,-74 485.88,-104.8 743.33,-104.8 743.33,-74 485.88,-74"/>
<text text-anchor="start" x="492.88" y="-86.2" font-family="Arial" font-size="14.00">active </text>
<text text-anchor="start" x="533.34" y="-86.2" font-family="Arial" font-size="14.00" fill="#666666">[tinyint(1)]</text>
</g>
<!-- game_files&#45;&gt;game_file_types -->
<g id="edge2" class="edge">
<title>game_files:file_type_id&#45;&gt;game_file_types:id</title>
<path fill="none" stroke="black" d="M556.63,-465.82C752,-458.8 486.69,-247.28 485.88,-245.2 470.78,-206.15 443.01,-151 484.88,-151"/>
<polygon fill="black" stroke="black" points="556.67,-465.82 546.59,-461.49 551.33,-465.91 547,-465.99 547,-465.99 547,-465.99 551.33,-465.91 546.75,-470.49 556.67,-465.82"/>
<text text-anchor="start" x="553.33" y="-476" font-family="Arial" font-size="10.00">FOREIGN KEY (file_type_id) REFERENCES game_file_types (id)</text>
</g>
</g>
</svg>
