<?xml version="1.0" encoding="UTF-8" standalone="no"?>
<!DOCTYPE svg PUBLIC "-//W3C//DTD SVG 1.1//EN"
 "http://www.w3.org/Graphics/SVG/1.1/DTD/svg11.dtd">
<!-- Generated by graphviz version 12.1.2 (20240928.0832)
 -->
<!-- Title: game_creator_job_relations Pages: 1 -->
<svg width="969pt" height="510pt"
 viewBox="0.00 0.00 969.26 509.60" xmlns="http://www.w3.org/2000/svg" xmlns:xlink="http://www.w3.org/1999/xlink">
<g id="graph0" class="graph" transform="scale(1 1) rotate(0) translate(4 505.6)">
<title>game_creator_job_relations</title>
<polygon fill="white" stroke="none" points="-4,4 -4,-505.6 965.26,-505.6 965.26,4 -4,4"/>
<!-- game_creator_job_relations -->
<g id="node1" class="node">
<title>game_creator_job_relations</title>
<polygon fill="#efefef" stroke="none" points="325.65,-419.8 325.65,-455.4 665.06,-455.4 665.06,-419.8 325.65,-419.8"/>
<polygon fill="none" stroke="black" points="325.65,-419.8 325.65,-455.4 665.06,-455.4 665.06,-419.8 325.65,-419.8"/>
<text text-anchor="start" x="332.65" y="-433.2" font-family="Arial Bold" font-size="18.00">game_creator_job_relations</text>
<text text-anchor="start" x="533.57" y="-433.2" font-family="Arial" font-size="14.00">    </text>
<text text-anchor="start" x="564.68" y="-433.2" font-family="Arial" font-size="14.00" fill="#666666">[BASE TABLE]</text>
<polygon fill="none" stroke="black" points="325.65,-389 325.65,-419.8 665.06,-419.8 665.06,-389 325.65,-389"/>
<text text-anchor="start" x="332.65" y="-401.2" font-family="Arial" font-size="14.00">game_creator_id </text>
<text text-anchor="start" x="441.6" y="-401.2" font-family="Arial" font-size="14.00" fill="#666666">[varchar(36)]</text>
<polygon fill="none" stroke="black" points="325.65,-358.2 325.65,-389 665.06,-389 665.06,-358.2 325.65,-358.2"/>
<text text-anchor="start" x="332.65" y="-370.4" font-family="Arial" font-size="14.00">job_id </text>
<text text-anchor="start" x="373.9" y="-370.4" font-family="Arial" font-size="14.00" fill="#666666">[varchar(36)]</text>
<polygon fill="none" stroke="black" stroke-width="3" points="324.15,-356.7 324.15,-456.9 666.56,-456.9 666.56,-356.7 324.15,-356.7"/>
</g>
<!-- game_creators -->
<g id="node2" class="node">
<title>game_creators</title>
<polygon fill="#efefef" stroke="none" points="191.64,-197.2 191.64,-232.8 435.07,-232.8 435.07,-197.2 191.64,-197.2"/>
<polygon fill="none" stroke="black" points="191.64,-197.2 191.64,-232.8 435.07,-232.8 435.07,-197.2 191.64,-197.2"/>
<text text-anchor="start" x="198.64" y="-210.6" font-family="Arial Bold" font-size="18.00">game_creators</text>
<text text-anchor="start" x="303.58" y="-210.6" font-family="Arial" font-size="14.00">    </text>
<text text-anchor="start" x="334.7" y="-210.6" font-family="Arial" font-size="14.00" fill="#666666">[BASE TABLE]</text>
<polygon fill="none" stroke="black" points="191.64,-166.4 191.64,-197.2 435.07,-197.2 435.07,-166.4 191.64,-166.4"/>
<text text-anchor="start" x="198.64" y="-178.6" font-family="Arial" font-size="14.00">id </text>
<text text-anchor="start" x="213.42" y="-178.6" font-family="Arial" font-size="14.00" fill="#666666">[varchar(36)]</text>
<polygon fill="none" stroke="black" points="191.64,-135.6 191.64,-166.4 435.07,-166.4 435.07,-135.6 191.64,-135.6"/>
<text text-anchor="start" x="198.64" y="-147.8" font-family="Arial" font-size="14.00">game_id </text>
<text text-anchor="start" x="256.23" y="-147.8" font-family="Arial" font-size="14.00" fill="#666666">[varchar(36)]</text>
<polygon fill="none" stroke="black" points="191.64,-104.8 191.64,-135.6 435.07,-135.6 435.07,-104.8 191.64,-104.8"/>
<text text-anchor="start" x="198.64" y="-117" font-family="Arial" font-size="14.00">user_id </text>
<text text-anchor="start" x="248.44" y="-117" font-family="Arial" font-size="14.00" fill="#666666">[varchar(36)]</text>
<polygon fill="none" stroke="black" points="191.64,-74 191.64,-104.8 435.07,-104.8 435.07,-74 191.64,-74"/>
<text text-anchor="start" x="198.64" y="-86.2" font-family="Arial" font-size="14.00">user_name </text>
<text text-anchor="start" x="272.57" y="-86.2" font-family="Arial" font-size="14.00" fill="#666666">[varchar(32)]</text>
<polygon fill="none" stroke="black" points="191.64,-43.2 191.64,-74 435.07,-74 435.07,-43.2 191.64,-43.2"/>
<text text-anchor="start" x="198.64" y="-55.4" font-family="Arial" font-size="14.00">created_at </text>
<text text-anchor="start" x="268.69" y="-55.4" font-family="Arial" font-size="14.00" fill="#666666">[datetime]</text>
</g>
<!-- game_creator_job_relations&#45;&gt;game_creators -->
<g id="edge1" class="edge">
<title>game_creator_job_relations:game_creator_id&#45;&gt;game_creators:id</title>
<path fill="none" stroke="black" d="M314.61,-402.91C286.98,-393.52 303.67,-342.03 325.65,-312 355.89,-270.69 404.83,-317.31 435.07,-276 459.8,-242.21 477.94,-181.8 436.07,-181.8"/>
<polygon fill="black" stroke="black" points="314.43,-402.88 323.66,-408.8 319.7,-403.67 323.99,-404.3 323.99,-404.3 323.99,-404.3 319.7,-403.67 324.98,-399.9 314.43,-402.88"/>
<text text-anchor="start" x="7" y="-414.4" font-family="Arial" font-size="10.00">FOREIGN KEY (game_creator_id) REFERENCES game_creators (id)</text>
</g>
<!-- game_creator_jobs -->
<g id="node3" class="node">
<title>game_creator_jobs</title>
<polygon fill="#efefef" stroke="none" points="539.64,-166.4 539.64,-202 815.07,-202 815.07,-166.4 539.64,-166.4"/>
<polygon fill="none" stroke="black" points="539.64,-166.4 539.64,-202 815.07,-202 815.07,-166.4 539.64,-166.4"/>
<text text-anchor="start" x="546.64" y="-179.8" font-family="Arial Bold" font-size="18.00">game_creator_jobs</text>
<text text-anchor="start" x="683.58" y="-179.8" font-family="Arial" font-size="14.00">    </text>
<text text-anchor="start" x="714.7" y="-179.8" font-family="Arial" font-size="14.00" fill="#666666">[BASE TABLE]</text>
<polygon fill="none" stroke="black" points="539.64,-135.6 539.64,-166.4 815.07,-166.4 815.07,-135.6 539.64,-135.6"/>
<text text-anchor="start" x="546.64" y="-147.8" font-family="Arial" font-size="14.00">id </text>
<text text-anchor="start" x="561.42" y="-147.8" font-family="Arial" font-size="14.00" fill="#666666">[varchar(36)]</text>
<polygon fill="none" stroke="black" points="539.64,-104.8 539.64,-135.6 815.07,-135.6 815.07,-104.8 539.64,-104.8"/>
<text text-anchor="start" x="546.64" y="-117" font-family="Arial" font-size="14.00">display_name </text>
<text text-anchor="start" x="636.91" y="-117" font-family="Arial" font-size="14.00" fill="#666666">[varchar(64)]</text>
<polygon fill="none" stroke="black" points="539.64,-74 539.64,-104.8 815.07,-104.8 815.07,-74 539.64,-74"/>
<text text-anchor="start" x="546.64" y="-86.2" font-family="Arial" font-size="14.00">created_at </text>
<text text-anchor="start" x="616.69" y="-86.2" font-family="Arial" font-size="14.00" fill="#666666">[datetime]</text>
</g>
<!-- game_creator_job_relations&#45;&gt;game_creator_jobs -->
<g id="edge2" class="edge">
<title>game_creator_job_relations:job_id&#45;&gt;game_creator_jobs:id</title>
<path fill="none" stroke="black" d="M676.01,-371C689.03,-362.01 677.11,-331.71 665.06,-312 632.11,-258.12 572.43,-299.17 539.64,-245.2 517.9,-209.42 496.77,-151 538.64,-151"/>
<polygon fill="black" stroke="black" points="676.06,-370.99 665.24,-369.16 670.89,-372.34 666.7,-373.43 666.7,-373.43 666.7,-373.43 670.89,-372.34 667.52,-377.87 676.06,-370.99"/>
<text text-anchor="start" x="673.06" y="-383.6" font-family="Arial" font-size="10.00">FOREIGN KEY (job_id) REFERENCES game_creator_jobs (id)</text>
</g>
</g>
</svg>
