<?xml version="1.0" encoding="UTF-8" standalone="no"?>
<!DOCTYPE svg PUBLIC "-//W3C//DTD SVG 1.1//EN"
 "http://www.w3.org/Graphics/SVG/1.1/DTD/svg11.dtd">
<!-- Generated by graphviz version 12.1.2 (20240928.0832)
 -->
<!-- Title: game_image_types Pages: 1 -->
<svg width="780pt" height="510pt"
 viewBox="0.00 0.00 780.50 509.60" xmlns="http://www.w3.org/2000/svg" xmlns:xlink="http://www.w3.org/1999/xlink">
<g id="graph0" class="graph" transform="scale(1 1) rotate(0) translate(4 505.6)">
<title>game_image_types</title>
<polygon fill="white" stroke="none" points="-4,4 -4,-505.6 776.5,-505.6 776.5,4 -4,4"/>
<!-- game_image_types -->
<g id="node1" class="node">
<title>game_image_types</title>
<polygon fill="#efefef" stroke="none" points="253.78,-138.6 253.78,-174.2 531.22,-174.2 531.22,-138.6 253.78,-138.6"/>
<polygon fill="none" stroke="black" points="253.78,-138.6 253.78,-174.2 531.22,-174.2 531.22,-138.6 253.78,-138.6"/>
<text text-anchor="start" x="260.78" y="-152" font-family="Arial Bold" font-size="18.00">game_image_types</text>
<text text-anchor="start" x="399.73" y="-152" font-family="Arial" font-size="14.00">    </text>
<text text-anchor="start" x="430.85" y="-152" font-family="Arial" font-size="14.00" fill="#666666">[BASE TABLE]</text>
<polygon fill="none" stroke="black" points="253.78,-107.8 253.78,-138.6 531.22,-138.6 531.22,-107.8 253.78,-107.8"/>
<text text-anchor="start" x="260.78" y="-120" font-family="Arial" font-size="14.00">id </text>
<text text-anchor="start" x="275.56" y="-120" font-family="Arial" font-size="14.00" fill="#666666">[tinyint(4)]</text>
<polygon fill="none" stroke="black" points="253.78,-77 253.78,-107.8 531.22,-107.8 531.22,-77 253.78,-77"/>
<text text-anchor="start" x="260.78" y="-89.2" font-family="Arial" font-size="14.00">name </text>
<text text-anchor="start" x="299.69" y="-89.2" font-family="Arial" font-size="14.00" fill="#666666">[varchar(32)]</text>
<polygon fill="none" stroke="black" points="253.78,-46.2 253.78,-77 531.22,-77 531.22,-46.2 253.78,-46.2"/>
<text text-anchor="start" x="260.78" y="-58.4" font-family="Arial" font-size="14.00">active </text>
<text text-anchor="start" x="301.24" y="-58.4" font-family="Arial" font-size="14.00" fill="#666666">[tinyint(1)]</text>
<polygon fill="none" stroke="black" stroke-width="3" points="252.28,-44.7 252.28,-175.7 532.72,-175.7 532.72,-44.7 252.28,-44.7"/>
</g>
<!-- game_images -->
<g id="node2" class="node">
<title>game_images</title>
<polygon fill="#efefef" stroke="none" points="96.77,-422.8 96.77,-458.4 334.23,-458.4 334.23,-422.8 96.77,-422.8"/>
<polygon fill="none" stroke="black" points="96.77,-422.8 96.77,-458.4 334.23,-458.4 334.23,-422.8 96.77,-422.8"/>
<text text-anchor="start" x="103.77" y="-436.2" font-family="Arial Bold" font-size="18.00">game_images</text>
<text text-anchor="start" x="202.74" y="-436.2" font-family="Arial" font-size="14.00">    </text>
<text text-anchor="start" x="233.85" y="-436.2" font-family="Arial" font-size="14.00" fill="#666666">[BASE TABLE]</text>
<polygon fill="none" stroke="black" points="96.77,-392 96.77,-422.8 334.23,-422.8 334.23,-392 96.77,-392"/>
<text text-anchor="start" x="103.77" y="-404.2" font-family="Arial" font-size="14.00">id </text>
<text text-anchor="start" x="118.56" y="-404.2" font-family="Arial" font-size="14.00" fill="#666666">[varchar(36)]</text>
<polygon fill="none" stroke="black" points="96.77,-361.2 96.77,-392 334.23,-392 334.23,-361.2 96.77,-361.2"/>
<text text-anchor="start" x="103.77" y="-373.4" font-family="Arial" font-size="14.00">game_id </text>
<text text-anchor="start" x="161.36" y="-373.4" font-family="Arial" font-size="14.00" fill="#666666">[varchar(36)]</text>
<polygon fill="none" stroke="black" points="96.77,-330.4 96.77,-361.2 334.23,-361.2 334.23,-330.4 96.77,-330.4"/>
<text text-anchor="start" x="103.77" y="-342.6" font-family="Arial" font-size="14.00">image_type_id </text>
<text text-anchor="start" x="198.72" y="-342.6" font-family="Arial" font-size="14.00" fill="#666666">[tinyint(4)]</text>
<polygon fill="none" stroke="black" points="96.77,-299.6 96.77,-330.4 334.23,-330.4 334.23,-299.6 96.77,-299.6"/>
<text text-anchor="start" x="103.77" y="-311.8" font-family="Arial" font-size="14.00">created_at </text>
<text text-anchor="start" x="173.82" y="-311.8" font-family="Arial" font-size="14.00" fill="#666666">[datetime]</text>
</g>
<!-- game_images&#45;&gt;game_image_types -->
<g id="edge1" class="edge">
<title>game_images:image_type_id&#45;&gt;game_image_types:id</title>
<path fill="none" stroke="black" d="M345.24,-344.27C371.24,-335.05 353.89,-286.38 334.23,-256.4 312.74,-223.65 275.25,-253.16 253.78,-220.4 230.09,-184.27 209.57,-123.2 252.78,-123.2"/>
<polygon fill="black" stroke="black" points="345.44,-344.24 334.88,-341.3 340.17,-345.04 335.89,-345.7 335.89,-345.7 335.89,-345.7 340.17,-345.04 336.24,-350.2 345.44,-344.24"/>
<text text-anchor="start" x="7" y="-355.8" font-family="Arial" font-size="10.00">FOREIGN KEY (image_type_id) REFERENCES game_image_types (id)</text>
</g>
<!-- v2_game_images -->
<g id="node3" class="node">
<title>v2_game_images</title>
<polygon fill="#efefef" stroke="none" points="438.27,-422.8 438.27,-458.4 702.73,-458.4 702.73,-422.8 438.27,-422.8"/>
<polygon fill="none" stroke="black" points="438.27,-422.8 438.27,-458.4 702.73,-458.4 702.73,-422.8 438.27,-422.8"/>
<text text-anchor="start" x="445.27" y="-436.2" font-family="Arial Bold" font-size="18.00">v2_game_images</text>
<text text-anchor="start" x="571.24" y="-436.2" font-family="Arial" font-size="14.00">    </text>
<text text-anchor="start" x="602.35" y="-436.2" font-family="Arial" font-size="14.00" fill="#666666">[BASE TABLE]</text>
<polygon fill="none" stroke="black" points="438.27,-392 438.27,-422.8 702.73,-422.8 702.73,-392 438.27,-392"/>
<text text-anchor="start" x="445.27" y="-404.2" font-family="Arial" font-size="14.00">id </text>
<text text-anchor="start" x="460.06" y="-404.2" font-family="Arial" font-size="14.00" fill="#666666">[varchar(36)]</text>
<polygon fill="none" stroke="black" points="438.27,-361.2 438.27,-392 702.73,-392 702.73,-361.2 438.27,-361.2"/>
<text text-anchor="start" x="445.27" y="-373.4" font-family="Arial" font-size="14.00">game_id </text>
<text text-anchor="start" x="502.86" y="-373.4" font-family="Arial" font-size="14.00" fill="#666666">[varchar(36)]</text>
<polygon fill="none" stroke="black" points="438.27,-330.4 438.27,-361.2 702.73,-361.2 702.73,-330.4 438.27,-330.4"/>
<text text-anchor="start" x="445.27" y="-342.6" font-family="Arial" font-size="14.00">image_type_id </text>
<text text-anchor="start" x="540.22" y="-342.6" font-family="Arial" font-size="14.00" fill="#666666">[tinyint(4)]</text>
<polygon fill="none" stroke="black" points="438.27,-299.6 438.27,-330.4 702.73,-330.4 702.73,-299.6 438.27,-299.6"/>
<text text-anchor="start" x="445.27" y="-311.8" font-family="Arial" font-size="14.00">created_at </text>
<text text-anchor="start" x="515.32" y="-311.8" font-family="Arial" font-size="14.00" fill="#666666">[datetime]</text>
</g>
<!-- v2_game_images&#45;&gt;game_image_types -->
<g id="edge2" class="edge">
<title>v2_game_images:image_type_id&#45;&gt;game_image_types:id</title>
<path fill="none" stroke="black" d="M427.24,-344.25C401.11,-334.95 417.84,-285.87 438.27,-256.4 463.51,-219.99 506,-256.82 531.22,-220.4 555.82,-184.89 575.42,-123.2 532.22,-123.2"/>
<polygon fill="black" stroke="black" points="427.06,-344.22 436.25,-350.2 432.33,-345.04 436.61,-345.7 436.61,-345.7 436.61,-345.7 432.33,-345.04 437.63,-341.3 427.06,-344.22"/>
<text text-anchor="start" x="444.27" y="-355.8" font-family="Arial" font-size="10.00">FOREIGN KEY (image_type_id) REFERENCES game_image_types (id)</text>
</g>
</g>
</svg>
