<?xml version="1.0" encoding="UTF-8" standalone="no"?>
<!DOCTYPE svg PUBLIC "-//W3C//DTD SVG 1.1//EN"
 "http://www.w3.org/Graphics/SVG/1.1/DTD/svg11.dtd">
<!-- Generated by graphviz version 12.1.2 (20240928.0832)
 -->
<!-- Title: game_versions Pages: 1 -->
<svg width="764pt" height="1006pt"
 viewBox="0.00 0.00 764.29 1006.40" xmlns="http://www.w3.org/2000/svg" xmlns:xlink="http://www.w3.org/1999/xlink">
<g id="graph0" class="graph" transform="scale(1 1) rotate(0) translate(4 1002.4)">
<title>game_versions</title>
<polygon fill="white" stroke="none" points="-4,4 -4,-1002.4 760.29,-1002.4 760.29,4 -4,4"/>
<!-- game_versions -->
<g id="node1" class="node">
<title>game_versions</title>
<polygon fill="#efefef" stroke="none" points="253.92,-573.8 253.92,-609.4 500.38,-609.4 500.38,-573.8 253.92,-573.8"/>
<polygon fill="none" stroke="black" points="253.92,-573.8 253.92,-609.4 500.38,-609.4 500.38,-573.8 253.92,-573.8"/>
<text text-anchor="start" x="260.92" y="-587.2" font-family="Arial Bold" font-size="18.00">game_versions</text>
<text text-anchor="start" x="368.89" y="-587.2" font-family="Arial" font-size="14.00">    </text>
<text text-anchor="start" x="400.01" y="-587.2" font-family="Arial" font-size="14.00" fill="#666666">[BASE TABLE]</text>
<polygon fill="none" stroke="black" points="253.92,-543 253.92,-573.8 500.38,-573.8 500.38,-543 253.92,-543"/>
<text text-anchor="start" x="260.92" y="-555.2" font-family="Arial" font-size="14.00">id </text>
<text text-anchor="start" x="275.7" y="-555.2" font-family="Arial" font-size="14.00" fill="#666666">[varchar(36)]</text>
<polygon fill="none" stroke="black" points="253.92,-512.2 253.92,-543 500.38,-543 500.38,-512.2 253.92,-512.2"/>
<text text-anchor="start" x="260.92" y="-524.4" font-family="Arial" font-size="14.00">game_id </text>
<text text-anchor="start" x="318.51" y="-524.4" font-family="Arial" font-size="14.00" fill="#666666">[varchar(36)]</text>
<polygon fill="none" stroke="black" points="253.92,-481.4 253.92,-512.2 500.38,-512.2 500.38,-481.4 253.92,-481.4"/>
<text text-anchor="start" x="260.92" y="-493.6" font-family="Arial" font-size="14.00">name </text>
<text text-anchor="start" x="299.83" y="-493.6" font-family="Arial" font-size="14.00" fill="#666666">[varchar(32)]</text>
<polygon fill="none" stroke="black" points="253.92,-450.6 253.92,-481.4 500.38,-481.4 500.38,-450.6 253.92,-450.6"/>
<text text-anchor="start" x="260.92" y="-462.8" font-family="Arial" font-size="14.00">description </text>
<text text-anchor="start" x="332.51" y="-462.8" font-family="Arial" font-size="14.00" fill="#666666">[text]</text>
<polygon fill="none" stroke="black" points="253.92,-419.8 253.92,-450.6 500.38,-450.6 500.38,-419.8 253.92,-419.8"/>
<text text-anchor="start" x="260.92" y="-432" font-family="Arial" font-size="14.00">created_at </text>
<text text-anchor="start" x="330.96" y="-432" font-family="Arial" font-size="14.00" fill="#666666">[datetime]</text>
<polygon fill="none" stroke="black" stroke-width="3" points="252.42,-418.3 252.42,-610.9 501.88,-610.9 501.88,-418.3 252.42,-418.3"/>
</g>
<!-- games -->
<g id="node4" class="node">
<title>games</title>
<polygon fill="#efefef" stroke="none" points="255.35,-258.8 255.35,-294.4 498.95,-294.4 498.95,-258.8 255.35,-258.8"/>
<polygon fill="none" stroke="black" points="255.35,-258.8 255.35,-294.4 498.95,-294.4 498.95,-258.8 255.35,-258.8"/>
<text text-anchor="start" x="291.91" y="-272.2" font-family="Arial Bold" font-size="18.00">games</text>
<text text-anchor="start" x="337.89" y="-272.2" font-family="Arial" font-size="14.00">    </text>
<text text-anchor="start" x="369.01" y="-272.2" font-family="Arial" font-size="14.00" fill="#666666">[BASE TABLE]</text>
<polygon fill="none" stroke="black" points="255.35,-228 255.35,-258.8 498.95,-258.8 498.95,-228 255.35,-228"/>
<text text-anchor="start" x="262.35" y="-240.2" font-family="Arial" font-size="14.00">id </text>
<text text-anchor="start" x="277.13" y="-240.2" font-family="Arial" font-size="14.00" fill="#666666">[varchar(36)]</text>
<polygon fill="none" stroke="black" points="255.35,-197.2 255.35,-228 498.95,-228 498.95,-197.2 255.35,-197.2"/>
<text text-anchor="start" x="262.35" y="-209.4" font-family="Arial" font-size="14.00">name </text>
<text text-anchor="start" x="301.26" y="-209.4" font-family="Arial" font-size="14.00" fill="#666666">[varchar(256)]</text>
<polygon fill="none" stroke="black" points="255.35,-166.4 255.35,-197.2 498.95,-197.2 498.95,-166.4 255.35,-166.4"/>
<text text-anchor="start" x="262.35" y="-178.6" font-family="Arial" font-size="14.00">description </text>
<text text-anchor="start" x="333.94" y="-178.6" font-family="Arial" font-size="14.00" fill="#666666">[text]</text>
<polygon fill="none" stroke="black" points="255.35,-135.6 255.35,-166.4 498.95,-166.4 498.95,-135.6 255.35,-135.6"/>
<text text-anchor="start" x="262.35" y="-147.8" font-family="Arial" font-size="14.00">created_at </text>
<text text-anchor="start" x="332.4" y="-147.8" font-family="Arial" font-size="14.00" fill="#666666">[datetime]</text>
<polygon fill="none" stroke="black" points="255.35,-104.8 255.35,-135.6 498.95,-135.6 498.95,-104.8 255.35,-104.8"/>
<text text-anchor="start" x="262.35" y="-117" font-family="Arial" font-size="14.00">deleted_at </text>
<text text-anchor="start" x="331.63" y="-117" font-family="Arial" font-size="14.00" fill="#666666">[datetime]</text>
<polygon fill="none" stroke="black" points="255.35,-74 255.35,-104.8 498.95,-104.8 498.95,-74 255.35,-74"/>
<text text-anchor="start" x="262.35" y="-86.2" font-family="Arial" font-size="14.00">visibility_type_id </text>
<text text-anchor="start" x="367.4" y="-86.2" font-family="Arial" font-size="14.00" fill="#666666">[tinyint(4)]</text>
<polygon fill="none" stroke="black" points="255.35,-43.2 255.35,-74 498.95,-74 498.95,-43.2 255.35,-43.2"/>
<text text-anchor="start" x="262.35" y="-55.4" font-family="Arial" font-size="14.00">latest_version_updated_at </text>
<text text-anchor="start" x="430.47" y="-55.4" font-family="Arial" font-size="14.00" fill="#666666">[datetime]</text>
</g>
<!-- game_versions&#45;&gt;games -->
<g id="edge3" class="edge">
<title>game_versions:game_id&#45;&gt;games:id</title>
<path fill="none" stroke="black" d="M511.45,-526.97C627.52,-512.27 622.8,-243.4 499.95,-243.4"/>
<polygon fill="black" stroke="black" points="511.69,-526.96 501.43,-523.09 506.37,-527.29 502.05,-527.56 502.05,-527.56 502.05,-527.56 506.37,-527.29 501.99,-532.07 511.69,-526.96"/>
<text text-anchor="start" x="508.38" y="-537.6" font-family="Arial" font-size="10.00">FOREIGN KEY (game_id) REFERENCES games (id)</text>
</g>
<!-- game_files -->
<g id="node2" class="node">
<title>game_files</title>
<polygon fill="#efefef" stroke="none" points="108.42,-919.6 108.42,-955.2 325.88,-955.2 325.88,-919.6 108.42,-919.6"/>
<polygon fill="none" stroke="black" points="108.42,-919.6 108.42,-955.2 325.88,-955.2 325.88,-919.6 108.42,-919.6"/>
<text text-anchor="start" x="115.42" y="-933" font-family="Arial Bold" font-size="18.00">game_files</text>
<text text-anchor="start" x="194.39" y="-933" font-family="Arial" font-size="14.00">    </text>
<text text-anchor="start" x="225.5" y="-933" font-family="Arial" font-size="14.00" fill="#666666">[BASE TABLE]</text>
<polygon fill="none" stroke="black" points="108.42,-888.8 108.42,-919.6 325.88,-919.6 325.88,-888.8 108.42,-888.8"/>
<text text-anchor="start" x="115.42" y="-901" font-family="Arial" font-size="14.00">id </text>
<text text-anchor="start" x="130.2" y="-901" font-family="Arial" font-size="14.00" fill="#666666">[varchar(36)]</text>
<polygon fill="none" stroke="black" points="108.42,-858 108.42,-888.8 325.88,-888.8 325.88,-858 108.42,-858"/>
<text text-anchor="start" x="115.42" y="-870.2" font-family="Arial" font-size="14.00">game_version_id </text>
<text text-anchor="start" x="225.93" y="-870.2" font-family="Arial" font-size="14.00" fill="#666666">[varchar(36)]</text>
<polygon fill="none" stroke="black" points="108.42,-827.2 108.42,-858 325.88,-858 325.88,-827.2 108.42,-827.2"/>
<text text-anchor="start" x="115.42" y="-839.4" font-family="Arial" font-size="14.00">file_type_id </text>
<text text-anchor="start" x="190.13" y="-839.4" font-family="Arial" font-size="14.00" fill="#666666">[tinyint(4)]</text>
<polygon fill="none" stroke="black" points="108.42,-796.4 108.42,-827.2 325.88,-827.2 325.88,-796.4 108.42,-796.4"/>
<text text-anchor="start" x="115.42" y="-808.6" font-family="Arial" font-size="14.00">hash </text>
<text text-anchor="start" x="149.67" y="-808.6" font-family="Arial" font-size="14.00" fill="#666666">[char(32)]</text>
<polygon fill="none" stroke="black" points="108.42,-765.6 108.42,-796.4 325.88,-796.4 325.88,-765.6 108.42,-765.6"/>
<text text-anchor="start" x="115.42" y="-777.8" font-family="Arial" font-size="14.00">entry_point </text>
<text text-anchor="start" x="188.58" y="-777.8" font-family="Arial" font-size="14.00" fill="#666666">[text]</text>
<polygon fill="none" stroke="black" points="108.42,-734.8 108.42,-765.6 325.88,-765.6 325.88,-734.8 108.42,-734.8"/>
<text text-anchor="start" x="115.42" y="-747" font-family="Arial" font-size="14.00">created_at </text>
<text text-anchor="start" x="185.46" y="-747" font-family="Arial" font-size="14.00" fill="#666666">[datetime]</text>
</g>
<!-- game_files&#45;&gt;game_versions -->
<g id="edge1" class="edge">
<title>game_files:game_version_id&#45;&gt;game_versions:id</title>
<path fill="none" stroke="black" d="M337.05,-872.73C404.15,-863.32 366.62,-757.14 325.88,-691.6 306.99,-661.23 272.87,-685.93 253.92,-655.6 231.02,-618.96 209.71,-558.4 252.92,-558.4"/>
<polygon fill="black" stroke="black" points="337.19,-872.72 326.91,-868.89 331.87,-873.07 327.54,-873.36 327.54,-873.36 327.54,-873.36 331.87,-873.07 327.51,-877.87 337.19,-872.72"/>
<text text-anchor="start" x="7" y="-883.4" font-family="Arial" font-size="10.00">FOREIGN KEY (game_version_id) REFERENCES game_versions (id)</text>
</g>
<!-- game_urls -->
<g id="node3" class="node">
<title>game_urls</title>
<polygon fill="#efefef" stroke="none" points="430.41,-888.8 430.41,-924.4 643.88,-924.4 643.88,-888.8 430.41,-888.8"/>
<polygon fill="none" stroke="black" points="430.41,-888.8 430.41,-924.4 643.88,-924.4 643.88,-888.8 430.41,-888.8"/>
<text text-anchor="start" x="437.41" y="-902.2" font-family="Arial Bold" font-size="18.00">game_urls</text>
<text text-anchor="start" x="512.39" y="-902.2" font-family="Arial" font-size="14.00">    </text>
<text text-anchor="start" x="543.51" y="-902.2" font-family="Arial" font-size="14.00" fill="#666666">[BASE TABLE]</text>
<polygon fill="none" stroke="black" points="430.41,-858 430.41,-888.8 643.88,-888.8 643.88,-858 430.41,-858"/>
<text text-anchor="start" x="437.41" y="-870.2" font-family="Arial" font-size="14.00">id </text>
<text text-anchor="start" x="452.2" y="-870.2" font-family="Arial" font-size="14.00" fill="#666666">[varchar(36)]</text>
<polygon fill="none" stroke="black" points="430.41,-827.2 430.41,-858 643.88,-858 643.88,-827.2 430.41,-827.2"/>
<text text-anchor="start" x="437.41" y="-839.4" font-family="Arial" font-size="14.00">game_version_id </text>
<text text-anchor="start" x="547.92" y="-839.4" font-family="Arial" font-size="14.00" fill="#666666">[varchar(36)]</text>
<polygon fill="none" stroke="black" points="430.41,-796.4 430.41,-827.2 643.88,-827.2 643.88,-796.4 430.41,-796.4"/>
<text text-anchor="start" x="437.41" y="-808.6" font-family="Arial" font-size="14.00">url </text>
<text text-anchor="start" x="456.86" y="-808.6" font-family="Arial" font-size="14.00" fill="#666666">[text]</text>
<polygon fill="none" stroke="black" points="430.41,-765.6 430.41,-796.4 643.88,-796.4 643.88,-765.6 430.41,-765.6"/>
<text text-anchor="start" x="437.41" y="-777.8" font-family="Arial" font-size="14.00">created_at </text>
<text text-anchor="start" x="507.46" y="-777.8" font-family="Arial" font-size="14.00" fill="#666666">[datetime]</text>
</g>
<!-- game_urls&#45;&gt;game_versions -->
<g id="edge2" class="edge">
<title>game_urls:game_version_id&#45;&gt;game_versions:id</title>
<path fill="none" stroke="black" d="M419.39,-841.58C380.6,-832.7 410.69,-767.98 430.41,-722.4 447.49,-682.94 483.26,-695.04 500.38,-655.6 517.58,-615.97 544.58,-558.4 501.38,-558.4"/>
<polygon fill="black" stroke="black" points="419.13,-841.55 428.62,-847.04 424.44,-842.09 428.75,-842.53 428.75,-842.53 428.75,-842.53 424.44,-842.09 429.54,-838.09 419.13,-841.55"/>
<text text-anchor="start" x="436.41" y="-852.6" font-family="Arial" font-size="10.00">FOREIGN KEY (game_version_id) REFERENCES game_versions (id)</text>
</g>
</g>
</svg>
