<?xml version="1.0" encoding="UTF-8" standalone="no"?>
<!DOCTYPE svg PUBLIC "-//W3C//DTD SVG 1.1//EN"
 "http://www.w3.org/Graphics/SVG/1.1/DTD/svg11.dtd">
<!-- Generated by graphviz version 12.1.2 (20240928.0832)
 -->
<!-- Title: launcher_version_game_relations Pages: 1 -->
<svg width="1051pt" height="571pt"
 viewBox="0.00 0.00 1050.74 571.20" xmlns="http://www.w3.org/2000/svg" xmlns:xlink="http://www.w3.org/1999/xlink">
<g id="graph0" class="graph" transform="scale(1 1) rotate(0) translate(4 567.2)">
<title>launcher_version_game_relations</title>
<polygon fill="white" stroke="none" points="-4,4 -4,-567.2 1046.74,-567.2 1046.74,4 -4,4"/>
<!-- launcher_version_game_relations -->
<g id="node1" class="node">
<title>launcher_version_game_relations</title>
<polygon fill="#efefef" stroke="none" points="381.81,-481.4 381.81,-517 763.21,-517 763.21,-481.4 381.81,-481.4"/>
<polygon fill="none" stroke="black" points="381.81,-481.4 381.81,-517 763.21,-517 763.21,-481.4 381.81,-481.4"/>
<text text-anchor="start" x="388.81" y="-494.8" font-family="Arial Bold" font-size="18.00">launcher_version_game_relations</text>
<text text-anchor="start" x="631.72" y="-494.8" font-family="Arial" font-size="14.00">    </text>
<text text-anchor="start" x="662.84" y="-494.8" font-family="Arial" font-size="14.00" fill="#666666">[BASE TABLE]</text>
<polygon fill="none" stroke="black" points="381.81,-450.6 381.81,-481.4 763.21,-481.4 763.21,-450.6 381.81,-450.6"/>
<text text-anchor="start" x="388.81" y="-462.8" font-family="Arial" font-size="14.00">launcher_version_table_id </text>
<text text-anchor="start" x="556.15" y="-462.8" font-family="Arial" font-size="14.00" fill="#666666">[varchar(36)]</text>
<polygon fill="none" stroke="black" points="381.81,-419.8 381.81,-450.6 763.21,-450.6 763.21,-419.8 381.81,-419.8"/>
<text text-anchor="start" x="388.81" y="-432" font-family="Arial" font-size="14.00">game_table_id </text>
<text text-anchor="start" x="484.55" y="-432" font-family="Arial" font-size="14.00" fill="#666666">[varchar(36)]</text>
<polygon fill="none" stroke="black" stroke-width="3" points="380.31,-418.3 380.31,-518.5 764.71,-518.5 764.71,-418.3 380.31,-418.3"/>
</g>
<!-- launcher_versions -->
<g id="node2" class="node">
<title>launcher_versions</title>
<polygon fill="#efefef" stroke="none" points="257.79,-228 257.79,-263.6 527.24,-263.6 527.24,-228 257.79,-228"/>
<polygon fill="none" stroke="black" points="257.79,-228 257.79,-263.6 527.24,-263.6 527.24,-228 257.79,-228"/>
<text text-anchor="start" x="264.79" y="-241.4" font-family="Arial Bold" font-size="18.00">launcher_versions</text>
<text text-anchor="start" x="395.75" y="-241.4" font-family="Arial" font-size="14.00">    </text>
<text text-anchor="start" x="426.86" y="-241.4" font-family="Arial" font-size="14.00" fill="#666666">[BASE TABLE]</text>
<polygon fill="none" stroke="black" points="257.79,-197.2 257.79,-228 527.24,-228 527.24,-197.2 257.79,-197.2"/>
<text text-anchor="start" x="264.79" y="-209.4" font-family="Arial" font-size="14.00">id </text>
<text text-anchor="start" x="279.58" y="-209.4" font-family="Arial" font-size="14.00" fill="#666666">[varchar(36)]</text>
<polygon fill="none" stroke="black" points="257.79,-166.4 257.79,-197.2 527.24,-197.2 527.24,-166.4 257.79,-166.4"/>
<text text-anchor="start" x="264.79" y="-178.6" font-family="Arial" font-size="14.00">name </text>
<text text-anchor="start" x="303.7" y="-178.6" font-family="Arial" font-size="14.00" fill="#666666">[varchar(32)]</text>
<polygon fill="none" stroke="black" points="257.79,-135.6 257.79,-166.4 527.24,-166.4 527.24,-135.6 257.79,-135.6"/>
<text text-anchor="start" x="264.79" y="-147.8" font-family="Arial" font-size="14.00">questionnaire_url </text>
<text text-anchor="start" x="376.08" y="-147.8" font-family="Arial" font-size="14.00" fill="#666666">[text]</text>
<polygon fill="none" stroke="black" points="257.79,-104.8 257.79,-135.6 527.24,-135.6 527.24,-104.8 257.79,-104.8"/>
<text text-anchor="start" x="264.79" y="-117" font-family="Arial" font-size="14.00">created_at </text>
<text text-anchor="start" x="334.84" y="-117" font-family="Arial" font-size="14.00" fill="#666666">[datetime]</text>
<polygon fill="none" stroke="black" points="257.79,-74 257.79,-104.8 527.24,-104.8 527.24,-74 257.79,-74"/>
<text text-anchor="start" x="264.79" y="-86.2" font-family="Arial" font-size="14.00">deleted_at </text>
<text text-anchor="start" x="334.07" y="-86.2" font-family="Arial" font-size="14.00" fill="#666666">[datetime]</text>
</g>
<!-- launcher_version_game_relations&#45;&gt;launcher_versions -->
<g id="edge1" class="edge">
<title>launcher_version_game_relations:launcher_version_table_id&#45;&gt;launcher_versions:id</title>
<path fill="none" stroke="black" d="M370.82,-464.54C343.46,-455.34 361.55,-404.82 381.81,-373.6 420.52,-313.93 488.53,-366.47 527.24,-306.8 550.02,-271.67 570.1,-212.6 528.24,-212.6"/>
<polygon fill="black" stroke="black" points="370.59,-464.51 379.83,-470.4 375.86,-465.28 380.15,-465.9 380.15,-465.9 380.15,-465.9 375.86,-465.28 381.13,-461.5 370.59,-464.51"/>
<text text-anchor="start" x="7" y="-476" font-family="Arial" font-size="10.00">FOREIGN KEY (launcher_version_table_id) REFERENCES launcher_versions (id)</text>
</g>
<!-- games -->
<g id="node3" class="node">
<title>games</title>
<polygon fill="#efefef" stroke="none" points="631.71,-258.8 631.71,-294.4 875.31,-294.4 875.31,-258.8 631.71,-258.8"/>
<polygon fill="none" stroke="black" points="631.71,-258.8 631.71,-294.4 875.31,-294.4 875.31,-258.8 631.71,-258.8"/>
<text text-anchor="start" x="668.28" y="-272.2" font-family="Arial Bold" font-size="18.00">games</text>
<text text-anchor="start" x="714.26" y="-272.2" font-family="Arial" font-size="14.00">    </text>
<text text-anchor="start" x="745.38" y="-272.2" font-family="Arial" font-size="14.00" fill="#666666">[BASE TABLE]</text>
<polygon fill="none" stroke="black" points="631.71,-228 631.71,-258.8 875.31,-258.8 875.31,-228 631.71,-228"/>
<text text-anchor="start" x="638.71" y="-240.2" font-family="Arial" font-size="14.00">id </text>
<text text-anchor="start" x="653.5" y="-240.2" font-family="Arial" font-size="14.00" fill="#666666">[varchar(36)]</text>
<polygon fill="none" stroke="black" points="631.71,-197.2 631.71,-228 875.31,-228 875.31,-197.2 631.71,-197.2"/>
<text text-anchor="start" x="638.71" y="-209.4" font-family="Arial" font-size="14.00">name </text>
<text text-anchor="start" x="677.62" y="-209.4" font-family="Arial" font-size="14.00" fill="#666666">[varchar(256)]</text>
<polygon fill="none" stroke="black" points="631.71,-166.4 631.71,-197.2 875.31,-197.2 875.31,-166.4 631.71,-166.4"/>
<text text-anchor="start" x="638.71" y="-178.6" font-family="Arial" font-size="14.00">description </text>
<text text-anchor="start" x="710.31" y="-178.6" font-family="Arial" font-size="14.00" fill="#666666">[text]</text>
<polygon fill="none" stroke="black" points="631.71,-135.6 631.71,-166.4 875.31,-166.4 875.31,-135.6 631.71,-135.6"/>
<text text-anchor="start" x="638.71" y="-147.8" font-family="Arial" font-size="14.00">created_at </text>
<text text-anchor="start" x="708.76" y="-147.8" font-family="Arial" font-size="14.00" fill="#666666">[datetime]</text>
<polygon fill="none" stroke="black" points="631.71,-104.8 631.71,-135.6 875.31,-135.6 875.31,-104.8 631.71,-104.8"/>
<text text-anchor="start" x="638.71" y="-117" font-family="Arial" font-size="14.00">deleted_at </text>
<text text-anchor="start" x="708" y="-117" font-family="Arial" font-size="14.00" fill="#666666">[datetime]</text>
<polygon fill="none" stroke="black" points="631.71,-74 631.71,-104.8 875.31,-104.8 875.31,-74 631.71,-74"/>
<text text-anchor="start" x="638.71" y="-86.2" font-family="Arial" font-size="14.00">visibility_type_id </text>
<text text-anchor="start" x="743.76" y="-86.2" font-family="Arial" font-size="14.00" fill="#666666">[tinyint(4)]</text>
<polygon fill="none" stroke="black" points="631.71,-43.2 631.71,-74 875.31,-74 875.31,-43.2 631.71,-43.2"/>
<text text-anchor="start" x="638.71" y="-55.4" font-family="Arial" font-size="14.00">latest_version_updated_at </text>
<text text-anchor="start" x="806.84" y="-55.4" font-family="Arial" font-size="14.00" fill="#666666">[datetime]</text>
</g>
<!-- launcher_version_game_relations&#45;&gt;games -->
<g id="edge2" class="edge">
<title>launcher_version_game_relations:game_table_id&#45;&gt;games:id</title>
<path fill="none" stroke="black" d="M773.94,-432.75C788.04,-423.74 777.51,-392.02 763.21,-373.6 726.07,-325.73 668.73,-385.58 631.71,-337.6 606.14,-304.45 588.84,-243.4 630.71,-243.4"/>
<polygon fill="black" stroke="black" points="774.23,-432.67 763.44,-430.75 769.06,-433.98 764.86,-435.04 764.86,-435.04 764.86,-435.04 769.06,-433.98 765.64,-439.48 774.23,-432.67"/>
<text text-anchor="start" x="771.21" y="-445.2" font-family="Arial" font-size="10.00">FOREIGN KEY (game_table_id) REFERENCES games (id)</text>
</g>
</g>
</svg>
