<?xml version="1.0" encoding="UTF-8" standalone="no"?>
<!DOCTYPE svg PUBLIC "-//W3C//DTD SVG 1.1//EN"
 "http://www.w3.org/Graphics/SVG/1.1/DTD/svg11.dtd">
<!-- Generated by graphviz version 12.1.2 (20240928.0832)
 -->
<!-- Title: product_key_statuses Pages: 1 -->
<svg width="521pt" height="540pt"
 viewBox="0.00 0.00 521.14 540.40" xmlns="http://www.w3.org/2000/svg" xmlns:xlink="http://www.w3.org/1999/xlink">
<g id="graph0" class="graph" transform="scale(1 1) rotate(0) translate(4 536.4)">
<title>product_key_statuses</title>
<polygon fill="white" stroke="none" points="-4,4 -4,-536.4 517.14,-536.4 517.14,4 -4,4"/>
<!-- product_key_statuses -->
<g id="node1" class="node">
<title>product_key_statuses</title>
<polygon fill="#efefef" stroke="none" points="173.48,-138.6 173.48,-174.2 466.94,-174.2 466.94,-138.6 173.48,-138.6"/>
<polygon fill="none" stroke="black" points="173.48,-138.6 173.48,-174.2 466.94,-174.2 466.94,-138.6 173.48,-138.6"/>
<text text-anchor="start" x="180.48" y="-152" font-family="Arial Bold" font-size="18.00">product_key_statuses</text>
<text text-anchor="start" x="335.45" y="-152" font-family="Arial" font-size="14.00">    </text>
<text text-anchor="start" x="366.57" y="-152" font-family="Arial" font-size="14.00" fill="#666666">[BASE TABLE]</text>
<polygon fill="none" stroke="black" points="173.48,-107.8 173.48,-138.6 466.94,-138.6 466.94,-107.8 173.48,-107.8"/>
<text text-anchor="start" x="180.48" y="-120" font-family="Arial" font-size="14.00">id </text>
<text text-anchor="start" x="195.27" y="-120" font-family="Arial" font-size="14.00" fill="#666666">[tinyint(4)]</text>
<polygon fill="none" stroke="black" points="173.48,-77 173.48,-107.8 466.94,-107.8 466.94,-77 173.48,-77"/>
<text text-anchor="start" x="180.48" y="-89.2" font-family="Arial" font-size="14.00">name </text>
<text text-anchor="start" x="219.39" y="-89.2" font-family="Arial" font-size="14.00" fill="#666666">[varchar(32)]</text>
<polygon fill="none" stroke="black" points="173.48,-46.2 173.48,-77 466.94,-77 466.94,-46.2 173.48,-46.2"/>
<text text-anchor="start" x="180.48" y="-58.4" font-family="Arial" font-size="14.00">active </text>
<text text-anchor="start" x="220.94" y="-58.4" font-family="Arial" font-size="14.00" fill="#666666">[tinyint(1)]</text>
<polygon fill="none" stroke="black" stroke-width="3" points="171.98,-44.7 171.98,-175.7 468.44,-175.7 468.44,-44.7 171.98,-44.7"/>
</g>
<!-- product_keys -->
<g id="node2" class="node">
<title>product_keys</title>
<polygon fill="#efefef" stroke="none" points="202.48,-453.6 202.48,-489.2 437.94,-489.2 437.94,-453.6 202.48,-453.6"/>
<polygon fill="none" stroke="black" points="202.48,-453.6 202.48,-489.2 437.94,-489.2 437.94,-453.6 202.48,-453.6"/>
<text text-anchor="start" x="209.48" y="-467" font-family="Arial Bold" font-size="18.00">product_keys</text>
<text text-anchor="start" x="306.46" y="-467" font-family="Arial" font-size="14.00">    </text>
<text text-anchor="start" x="337.57" y="-467" font-family="Arial" font-size="14.00" fill="#666666">[BASE TABLE]</text>
<polygon fill="none" stroke="black" points="202.48,-422.8 202.48,-453.6 437.94,-453.6 437.94,-422.8 202.48,-422.8"/>
<text text-anchor="start" x="209.48" y="-435" font-family="Arial" font-size="14.00">id </text>
<text text-anchor="start" x="224.26" y="-435" font-family="Arial" font-size="14.00" fill="#666666">[varchar(36)]</text>
<polygon fill="none" stroke="black" points="202.48,-392 202.48,-422.8 437.94,-422.8 437.94,-392 202.48,-392"/>
<text text-anchor="start" x="209.48" y="-404.2" font-family="Arial" font-size="14.00">edition_id </text>
<text text-anchor="start" x="273.3" y="-404.2" font-family="Arial" font-size="14.00" fill="#666666">[varchar(36)]</text>
<polygon fill="none" stroke="black" points="202.48,-361.2 202.48,-392 437.94,-392 437.94,-361.2 202.48,-361.2"/>
<text text-anchor="start" x="209.48" y="-373.4" font-family="Arial" font-size="14.00">product_key </text>
<text text-anchor="start" x="289.64" y="-373.4" font-family="Arial" font-size="14.00" fill="#666666">[varchar(29)]</text>
<polygon fill="none" stroke="black" points="202.48,-330.4 202.48,-361.2 437.94,-361.2 437.94,-330.4 202.48,-330.4"/>
<text text-anchor="start" x="209.48" y="-342.6" font-family="Arial" font-size="14.00">created_at </text>
<text text-anchor="start" x="279.52" y="-342.6" font-family="Arial" font-size="14.00" fill="#666666">[datetime]</text>
<polygon fill="none" stroke="black" points="202.48,-299.6 202.48,-330.4 437.94,-330.4 437.94,-299.6 202.48,-299.6"/>
<text text-anchor="start" x="209.48" y="-311.8" font-family="Arial" font-size="14.00">status_id </text>
<text text-anchor="start" x="269.4" y="-311.8" font-family="Arial" font-size="14.00" fill="#666666">[tinyint(4)]</text>
</g>
<!-- product_keys&#45;&gt;product_key_statuses -->
<g id="edge1" class="edge">
<title>product_keys:status_id&#45;&gt;product_key_statuses:id</title>
<path fill="none" stroke="black" d="M321.03,-288.34C331.04,-230.37 430.53,-280.36 466.94,-220.4 489.36,-183.47 511.14,-123.2 467.94,-123.2"/>
<polygon fill="black" stroke="black" points="321.03,-288.3 315.75,-297.91 320.61,-293.62 320.26,-297.93 320.26,-297.93 320.26,-297.93 320.61,-293.62 324.72,-298.62 321.03,-288.3"/>
<text text-anchor="start" x="7" y="-308.6" font-family="Arial" font-size="10.00">FOREIGN KEY (status_id) REFERENCES product_key_statuses (id)</text>
</g>
</g>
</svg>
