<?xml version="1.0" encoding="UTF-8" standalone="no"?>
<!DOCTYPE svg PUBLIC "-//W3C//DTD SVG 1.1//EN"
 "http://www.w3.org/Graphics/SVG/1.1/DTD/svg11.dtd">
<!-- Generated by graphviz version 12.1.2 (20240928.0832)
 -->
<!-- Title: v2_game_images Pages: 1 -->
<svg width="863pt" height="1037pt"
 viewBox="0.00 0.00 863.24 1037.20" xmlns="http://www.w3.org/2000/svg" xmlns:xlink="http://www.w3.org/1999/xlink">
<g id="graph0" class="graph" transform="scale(1 1) rotate(0) translate(4 1033.2)">
<title>v2_game_images</title>
<polygon fill="white" stroke="none" points="-4,4 -4,-1033.2 859.24,-1033.2 859.24,4 -4,4"/>
<!-- v2_game_images -->
<g id="node1" class="node">
<title>v2_game_images</title>
<polygon fill="#efefef" stroke="none" points="252.28,-543 252.28,-578.6 516.73,-578.6 516.73,-543 252.28,-543"/>
<polygon fill="none" stroke="black" points="252.28,-543 252.28,-578.6 516.73,-578.6 516.73,-543 252.28,-543"/>
<text text-anchor="start" x="259.28" y="-556.4" font-family="Arial Bold" font-size="18.00">v2_game_images</text>
<text text-anchor="start" x="385.25" y="-556.4" font-family="Arial" font-size="14.00">    </text>
<text text-anchor="start" x="416.36" y="-556.4" font-family="Arial" font-size="14.00" fill="#666666">[BASE TABLE]</text>
<polygon fill="none" stroke="black" points="252.28,-512.2 252.28,-543 516.73,-543 516.73,-512.2 252.28,-512.2"/>
<text text-anchor="start" x="259.28" y="-524.4" font-family="Arial" font-size="14.00">id </text>
<text text-anchor="start" x="274.07" y="-524.4" font-family="Arial" font-size="14.00" fill="#666666">[varchar(36)]</text>
<polygon fill="none" stroke="black" points="252.28,-481.4 252.28,-512.2 516.73,-512.2 516.73,-481.4 252.28,-481.4"/>
<text text-anchor="start" x="259.28" y="-493.6" font-family="Arial" font-size="14.00">game_id </text>
<text text-anchor="start" x="316.87" y="-493.6" font-family="Arial" font-size="14.00" fill="#666666">[varchar(36)]</text>
<polygon fill="none" stroke="black" points="252.28,-450.6 252.28,-481.4 516.73,-481.4 516.73,-450.6 252.28,-450.6"/>
<text text-anchor="start" x="259.28" y="-462.8" font-family="Arial" font-size="14.00">image_type_id </text>
<text text-anchor="start" x="354.23" y="-462.8" font-family="Arial" font-size="14.00" fill="#666666">[tinyint(4)]</text>
<polygon fill="none" stroke="black" points="252.28,-419.8 252.28,-450.6 516.73,-450.6 516.73,-419.8 252.28,-419.8"/>
<text text-anchor="start" x="259.28" y="-432" font-family="Arial" font-size="14.00">created_at </text>
<text text-anchor="start" x="329.33" y="-432" font-family="Arial" font-size="14.00" fill="#666666">[datetime]</text>
<polygon fill="none" stroke="black" stroke-width="3" points="250.78,-418.3 250.78,-580.1 518.23,-580.1 518.23,-418.3 250.78,-418.3"/>
</g>
<!-- games -->
<g id="node3" class="node">
<title>games</title>
<polygon fill="#efefef" stroke="none" points="80.71,-258.8 80.71,-294.4 324.31,-294.4 324.31,-258.8 80.71,-258.8"/>
<polygon fill="none" stroke="black" points="80.71,-258.8 80.71,-294.4 324.31,-294.4 324.31,-258.8 80.71,-258.8"/>
<text text-anchor="start" x="117.27" y="-272.2" font-family="Arial Bold" font-size="18.00">games</text>
<text text-anchor="start" x="163.25" y="-272.2" font-family="Arial" font-size="14.00">    </text>
<text text-anchor="start" x="194.37" y="-272.2" font-family="Arial" font-size="14.00" fill="#666666">[BASE TABLE]</text>
<polygon fill="none" stroke="black" points="80.71,-228 80.71,-258.8 324.31,-258.8 324.31,-228 80.71,-228"/>
<text text-anchor="start" x="87.71" y="-240.2" font-family="Arial" font-size="14.00">id </text>
<text text-anchor="start" x="102.49" y="-240.2" font-family="Arial" font-size="14.00" fill="#666666">[varchar(36)]</text>
<polygon fill="none" stroke="black" points="80.71,-197.2 80.71,-228 324.31,-228 324.31,-197.2 80.71,-197.2"/>
<text text-anchor="start" x="87.71" y="-209.4" font-family="Arial" font-size="14.00">name </text>
<text text-anchor="start" x="126.62" y="-209.4" font-family="Arial" font-size="14.00" fill="#666666">[varchar(256)]</text>
<polygon fill="none" stroke="black" points="80.71,-166.4 80.71,-197.2 324.31,-197.2 324.31,-166.4 80.71,-166.4"/>
<text text-anchor="start" x="87.71" y="-178.6" font-family="Arial" font-size="14.00">description </text>
<text text-anchor="start" x="159.3" y="-178.6" font-family="Arial" font-size="14.00" fill="#666666">[text]</text>
<polygon fill="none" stroke="black" points="80.71,-135.6 80.71,-166.4 324.31,-166.4 324.31,-135.6 80.71,-135.6"/>
<text text-anchor="start" x="87.71" y="-147.8" font-family="Arial" font-size="14.00">created_at </text>
<text text-anchor="start" x="157.76" y="-147.8" font-family="Arial" font-size="14.00" fill="#666666">[datetime]</text>
<polygon fill="none" stroke="black" points="80.71,-104.8 80.71,-135.6 324.31,-135.6 324.31,-104.8 80.71,-104.8"/>
<text text-anchor="start" x="87.71" y="-117" font-family="Arial" font-size="14.00">deleted_at </text>
<text text-anchor="start" x="156.99" y="-117" font-family="Arial" font-size="14.00" fill="#666666">[datetime]</text>
<polygon fill="none" stroke="black" points="80.71,-74 80.71,-104.8 324.31,-104.8 324.31,-74 80.71,-74"/>
<text text-anchor="start" x="87.71" y="-86.2" font-family="Arial" font-size="14.00">visibility_type_id </text>
<text text-anchor="start" x="192.76" y="-86.2" font-family="Arial" font-size="14.00" fill="#666666">[tinyint(4)]</text>
<polygon fill="none" stroke="black" points="80.71,-43.2 80.71,-74 324.31,-74 324.31,-43.2 80.71,-43.2"/>
<text text-anchor="start" x="87.71" y="-55.4" font-family="Arial" font-size="14.00">latest_version_updated_at </text>
<text text-anchor="start" x="255.83" y="-55.4" font-family="Arial" font-size="14.00" fill="#666666">[datetime]</text>
</g>
<!-- v2_game_images&#45;&gt;games -->
<g id="edge2" class="edge">
<title>v2_game_images:game_id&#45;&gt;games:id</title>
<path fill="none" stroke="black" d="M240.91,-495.7C200.3,-486.16 225.34,-416.79 252.28,-373.6 271.22,-343.24 305.33,-367.94 324.31,-337.6 346.51,-302.1 367.18,-243.4 325.31,-243.4"/>
<polygon fill="black" stroke="black" points="241,-495.71 250.47,-501.24 246.31,-496.27 250.62,-496.73 250.62,-496.73 250.62,-496.73 246.31,-496.27 251.42,-492.29 241,-495.71"/>
<text text-anchor="start" x="7" y="-506.8" font-family="Arial" font-size="10.00">FOREIGN KEY (game_id) REFERENCES games (id)</text>
</g>
<!-- game_image_types -->
<g id="node4" class="node">
<title>game_image_types</title>
<polygon fill="#efefef" stroke="none" points="428.79,-197.2 428.79,-232.8 706.23,-232.8 706.23,-197.2 428.79,-197.2"/>
<polygon fill="none" stroke="black" points="428.79,-197.2 428.79,-232.8 706.23,-232.8 706.23,-197.2 428.79,-197.2"/>
<text text-anchor="start" x="435.79" y="-210.6" font-family="Arial Bold" font-size="18.00">game_image_types</text>
<text text-anchor="start" x="574.74" y="-210.6" font-family="Arial" font-size="14.00">    </text>
<text text-anchor="start" x="605.86" y="-210.6" font-family="Arial" font-size="14.00" fill="#666666">[BASE TABLE]</text>
<polygon fill="none" stroke="black" points="428.79,-166.4 428.79,-197.2 706.23,-197.2 706.23,-166.4 428.79,-166.4"/>
<text text-anchor="start" x="435.79" y="-178.6" font-family="Arial" font-size="14.00">id </text>
<text text-anchor="start" x="450.57" y="-178.6" font-family="Arial" font-size="14.00" fill="#666666">[tinyint(4)]</text>
<polygon fill="none" stroke="black" points="428.79,-135.6 428.79,-166.4 706.23,-166.4 706.23,-135.6 428.79,-135.6"/>
<text text-anchor="start" x="435.79" y="-147.8" font-family="Arial" font-size="14.00">name </text>
<text text-anchor="start" x="474.7" y="-147.8" font-family="Arial" font-size="14.00" fill="#666666">[varchar(32)]</text>
<polygon fill="none" stroke="black" points="428.79,-104.8 428.79,-135.6 706.23,-135.6 706.23,-104.8 428.79,-104.8"/>
<text text-anchor="start" x="435.79" y="-117" font-family="Arial" font-size="14.00">active </text>
<text text-anchor="start" x="476.25" y="-117" font-family="Arial" font-size="14.00" fill="#666666">[tinyint(1)]</text>
</g>
<!-- v2_game_images&#45;&gt;game_image_types -->
<g id="edge3" class="edge">
<title>v2_game_images:image_type_id&#45;&gt;game_image_types:id</title>
<path fill="none" stroke="black" d="M527.89,-464.52C553.62,-455.58 530.21,-408.12 516.73,-373.6 495.5,-319.21 450.01,-330.4 428.79,-276 413.57,-237 385.92,-181.8 427.79,-181.8"/>
<polygon fill="black" stroke="black" points="527.96,-464.51 517.41,-461.5 522.68,-465.28 518.4,-465.9 518.4,-465.9 518.4,-465.9 522.68,-465.28 518.72,-470.4 527.96,-464.51"/>
<text text-anchor="start" x="524.73" y="-476" font-family="Arial" font-size="10.00">FOREIGN KEY (image_type_id) REFERENCES game_image_types (id)</text>
</g>
<!-- v2_game_versions -->
<g id="node2" class="node">
<title>v2_game_versions</title>
<polygon fill="#efefef" stroke="none" points="247.78,-950.4 247.78,-986 521.24,-986 521.24,-950.4 247.78,-950.4"/>
<polygon fill="none" stroke="black" points="247.78,-950.4 247.78,-986 521.24,-986 521.24,-950.4 247.78,-950.4"/>
<text text-anchor="start" x="254.78" y="-963.8" font-family="Arial Bold" font-size="18.00">v2_game_versions</text>
<text text-anchor="start" x="389.75" y="-963.8" font-family="Arial" font-size="14.00">    </text>
<text text-anchor="start" x="420.87" y="-963.8" font-family="Arial" font-size="14.00" fill="#666666">[BASE TABLE]</text>
<polygon fill="none" stroke="black" points="247.78,-919.6 247.78,-950.4 521.24,-950.4 521.24,-919.6 247.78,-919.6"/>
<text text-anchor="start" x="254.78" y="-931.8" font-family="Arial" font-size="14.00">id </text>
<text text-anchor="start" x="269.56" y="-931.8" font-family="Arial" font-size="14.00" fill="#666666">[varchar(36)]</text>
<polygon fill="none" stroke="black" points="247.78,-888.8 247.78,-919.6 521.24,-919.6 521.24,-888.8 247.78,-888.8"/>
<text text-anchor="start" x="254.78" y="-901" font-family="Arial" font-size="14.00">game_id </text>
<text text-anchor="start" x="312.37" y="-901" font-family="Arial" font-size="14.00" fill="#666666">[varchar(36)]</text>
<polygon fill="none" stroke="black" points="247.78,-858 247.78,-888.8 521.24,-888.8 521.24,-858 247.78,-858"/>
<text text-anchor="start" x="254.78" y="-870.2" font-family="Arial" font-size="14.00">game_image_id </text>
<text text-anchor="start" x="358.29" y="-870.2" font-family="Arial" font-size="14.00" fill="#666666">[varchar(36)]</text>
<polygon fill="none" stroke="black" points="247.78,-827.2 247.78,-858 521.24,-858 521.24,-827.2 247.78,-827.2"/>
<text text-anchor="start" x="254.78" y="-839.4" font-family="Arial" font-size="14.00">game_video_id </text>
<text text-anchor="start" x="353.62" y="-839.4" font-family="Arial" font-size="14.00" fill="#666666">[varchar(36)]</text>
<polygon fill="none" stroke="black" points="247.78,-796.4 247.78,-827.2 521.24,-827.2 521.24,-796.4 247.78,-796.4"/>
<text text-anchor="start" x="254.78" y="-808.6" font-family="Arial" font-size="14.00">name </text>
<text text-anchor="start" x="293.69" y="-808.6" font-family="Arial" font-size="14.00" fill="#666666">[varchar(32)]</text>
<polygon fill="none" stroke="black" points="247.78,-765.6 247.78,-796.4 521.24,-796.4 521.24,-765.6 247.78,-765.6"/>
<text text-anchor="start" x="254.78" y="-777.8" font-family="Arial" font-size="14.00">description </text>
<text text-anchor="start" x="326.37" y="-777.8" font-family="Arial" font-size="14.00" fill="#666666">[text]</text>
<polygon fill="none" stroke="black" points="247.78,-734.8 247.78,-765.6 521.24,-765.6 521.24,-734.8 247.78,-734.8"/>
<text text-anchor="start" x="254.78" y="-747" font-family="Arial" font-size="14.00">created_at </text>
<text text-anchor="start" x="324.82" y="-747" font-family="Arial" font-size="14.00" fill="#666666">[datetime]</text>
<polygon fill="none" stroke="black" points="247.78,-704 247.78,-734.8 521.24,-734.8 521.24,-704 247.78,-704"/>
<text text-anchor="start" x="254.78" y="-716.2" font-family="Arial" font-size="14.00">url </text>
<text text-anchor="start" x="274.22" y="-716.2" font-family="Arial" font-size="14.00" fill="#666666">[text]</text>
</g>
<!-- v2_game_versions&#45;&gt;v2_game_images -->
<g id="edge1" class="edge">
<title>v2_game_versions:game_image_id&#45;&gt;v2_game_images:id</title>
<path fill="none" stroke="black" d="M532.36,-872.88C675.66,-858.04 667.98,-527.6 517.73,-527.6"/>
<polygon fill="black" stroke="black" points="532.56,-872.87 522.34,-868.89 527.23,-873.15 522.91,-873.37 522.91,-873.37 522.91,-873.37 527.23,-873.15 522.8,-877.88 532.56,-872.87"/>
<text text-anchor="start" x="529.24" y="-883.4" font-family="Arial" font-size="10.00">FOREIGN KEY (game_image_id) REFERENCES v2_game_images (id)</text>
</g>
</g>
</svg>
