<?xml version="1.0" encoding="UTF-8" standalone="no"?>
<!DOCTYPE svg PUBLIC "-//W3C//DTD SVG 1.1//EN"
 "http://www.w3.org/Graphics/SVG/1.1/DTD/svg11.dtd">
<!-- Generated by graphviz version 12.1.2 (20240928.0832)
 -->
<!-- Title: v2_game_videos Pages: 1 -->
<svg width="855pt" height="1037pt"
 viewBox="0.00 0.00 854.58 1037.20" xmlns="http://www.w3.org/2000/svg" xmlns:xlink="http://www.w3.org/1999/xlink">
<g id="graph0" class="graph" transform="scale(1 1) rotate(0) translate(4 1033.2)">
<title>v2_game_videos</title>
<polygon fill="white" stroke="none" points="-4,4 -4,-1033.2 850.58,-1033.2 850.58,4 -4,4"/>
<!-- v2_game_videos -->
<g id="node1" class="node">
<title>v2_game_videos</title>
<polygon fill="#efefef" stroke="none" points="252.28,-543 252.28,-578.6 512.74,-578.6 512.74,-543 252.28,-543"/>
<polygon fill="none" stroke="black" points="252.28,-543 252.28,-578.6 512.74,-578.6 512.74,-543 252.28,-543"/>
<text text-anchor="start" x="259.28" y="-556.4" font-family="Arial Bold" font-size="18.00">v2_game_videos</text>
<text text-anchor="start" x="381.25" y="-556.4" font-family="Arial" font-size="14.00">    </text>
<text text-anchor="start" x="412.37" y="-556.4" font-family="Arial" font-size="14.00" fill="#666666">[BASE TABLE]</text>
<polygon fill="none" stroke="black" points="252.28,-512.2 252.28,-543 512.74,-543 512.74,-512.2 252.28,-512.2"/>
<text text-anchor="start" x="259.28" y="-524.4" font-family="Arial" font-size="14.00">id </text>
<text text-anchor="start" x="274.07" y="-524.4" font-family="Arial" font-size="14.00" fill="#666666">[varchar(36)]</text>
<polygon fill="none" stroke="black" points="252.28,-481.4 252.28,-512.2 512.74,-512.2 512.74,-481.4 252.28,-481.4"/>
<text text-anchor="start" x="259.28" y="-493.6" font-family="Arial" font-size="14.00">game_id </text>
<text text-anchor="start" x="316.87" y="-493.6" font-family="Arial" font-size="14.00" fill="#666666">[varchar(36)]</text>
<polygon fill="none" stroke="black" points="252.28,-450.6 252.28,-481.4 512.74,-481.4 512.74,-450.6 252.28,-450.6"/>
<text text-anchor="start" x="259.28" y="-462.8" font-family="Arial" font-size="14.00">video_type_id </text>
<text text-anchor="start" x="349.57" y="-462.8" font-family="Arial" font-size="14.00" fill="#666666">[tinyint(4)]</text>
<polygon fill="none" stroke="black" points="252.28,-419.8 252.28,-450.6 512.74,-450.6 512.74,-419.8 252.28,-419.8"/>
<text text-anchor="start" x="259.28" y="-432" font-family="Arial" font-size="14.00">created_at </text>
<text text-anchor="start" x="329.33" y="-432" font-family="Arial" font-size="14.00" fill="#666666">[datetime]</text>
<polygon fill="none" stroke="black" stroke-width="3" points="250.78,-418.3 250.78,-580.1 514.24,-580.1 514.24,-418.3 250.78,-418.3"/>
</g>
<!-- games -->
<g id="node3" class="node">
<title>games</title>
<polygon fill="#efefef" stroke="none" points="79.71,-258.8 79.71,-294.4 323.31,-294.4 323.31,-258.8 79.71,-258.8"/>
<polygon fill="none" stroke="black" points="79.71,-258.8 79.71,-294.4 323.31,-294.4 323.31,-258.8 79.71,-258.8"/>
<text text-anchor="start" x="116.28" y="-272.2" font-family="Arial Bold" font-size="18.00">games</text>
<text text-anchor="start" x="162.26" y="-272.2" font-family="Arial" font-size="14.00">    </text>
<text text-anchor="start" x="193.38" y="-272.2" font-family="Arial" font-size="14.00" fill="#666666">[BASE TABLE]</text>
<polygon fill="none" stroke="black" points="79.71,-228 79.71,-258.8 323.31,-258.8 323.31,-228 79.71,-228"/>
<text text-anchor="start" x="86.71" y="-240.2" font-family="Arial" font-size="14.00">id </text>
<text text-anchor="start" x="101.5" y="-240.2" font-family="Arial" font-size="14.00" fill="#666666">[varchar(36)]</text>
<polygon fill="none" stroke="black" points="79.71,-197.2 79.71,-228 323.31,-228 323.31,-197.2 79.71,-197.2"/>
<text text-anchor="start" x="86.71" y="-209.4" font-family="Arial" font-size="14.00">name </text>
<text text-anchor="start" x="125.62" y="-209.4" font-family="Arial" font-size="14.00" fill="#666666">[varchar(256)]</text>
<polygon fill="none" stroke="black" points="79.71,-166.4 79.71,-197.2 323.31,-197.2 323.31,-166.4 79.71,-166.4"/>
<text text-anchor="start" x="86.71" y="-178.6" font-family="Arial" font-size="14.00">description </text>
<text text-anchor="start" x="158.31" y="-178.6" font-family="Arial" font-size="14.00" fill="#666666">[text]</text>
<polygon fill="none" stroke="black" points="79.71,-135.6 79.71,-166.4 323.31,-166.4 323.31,-135.6 79.71,-135.6"/>
<text text-anchor="start" x="86.71" y="-147.8" font-family="Arial" font-size="14.00">created_at </text>
<text text-anchor="start" x="156.76" y="-147.8" font-family="Arial" font-size="14.00" fill="#666666">[datetime]</text>
<polygon fill="none" stroke="black" points="79.71,-104.8 79.71,-135.6 323.31,-135.6 323.31,-104.8 79.71,-104.8"/>
<text text-anchor="start" x="86.71" y="-117" font-family="Arial" font-size="14.00">deleted_at </text>
<text text-anchor="start" x="156" y="-117" font-family="Arial" font-size="14.00" fill="#666666">[datetime]</text>
<polygon fill="none" stroke="black" points="79.71,-74 79.71,-104.8 323.31,-104.8 323.31,-74 79.71,-74"/>
<text text-anchor="start" x="86.71" y="-86.2" font-family="Arial" font-size="14.00">visibility_type_id </text>
<text text-anchor="start" x="191.76" y="-86.2" font-family="Arial" font-size="14.00" fill="#666666">[tinyint(4)]</text>
<polygon fill="none" stroke="black" points="79.71,-43.2 79.71,-74 323.31,-74 323.31,-43.2 79.71,-43.2"/>
<text text-anchor="start" x="86.71" y="-55.4" font-family="Arial" font-size="14.00">latest_version_updated_at </text>
<text text-anchor="start" x="254.84" y="-55.4" font-family="Arial" font-size="14.00" fill="#666666">[datetime]</text>
</g>
<!-- v2_game_videos&#45;&gt;games -->
<g id="edge2" class="edge">
<title>v2_game_videos:game_id&#45;&gt;games:id</title>
<path fill="none" stroke="black" d="M240.91,-495.7C200.32,-486.17 225.46,-416.87 252.28,-373.6 270.93,-343.52 304.63,-367.66 323.31,-337.6 345.42,-302.04 366.18,-243.4 324.31,-243.4"/>
<polygon fill="black" stroke="black" points="241,-495.71 250.47,-501.24 246.31,-496.27 250.62,-496.73 250.62,-496.73 250.62,-496.73 246.31,-496.27 251.42,-492.29 241,-495.71"/>
<text text-anchor="start" x="7" y="-506.8" font-family="Arial" font-size="10.00">FOREIGN KEY (game_id) REFERENCES games (id)</text>
</g>
<!-- game_video_types -->
<g id="node4" class="node">
<title>game_video_types</title>
<polygon fill="#efefef" stroke="none" points="427.79,-197.2 427.79,-232.8 701.24,-232.8 701.24,-197.2 427.79,-197.2"/>
<polygon fill="none" stroke="black" points="427.79,-197.2 427.79,-232.8 701.24,-232.8 701.24,-197.2 427.79,-197.2"/>
<text text-anchor="start" x="434.79" y="-210.6" font-family="Arial Bold" font-size="18.00">game_video_types</text>
<text text-anchor="start" x="569.75" y="-210.6" font-family="Arial" font-size="14.00">    </text>
<text text-anchor="start" x="600.87" y="-210.6" font-family="Arial" font-size="14.00" fill="#666666">[BASE TABLE]</text>
<polygon fill="none" stroke="black" points="427.79,-166.4 427.79,-197.2 701.24,-197.2 701.24,-166.4 427.79,-166.4"/>
<text text-anchor="start" x="434.79" y="-178.6" font-family="Arial" font-size="14.00">id </text>
<text text-anchor="start" x="449.57" y="-178.6" font-family="Arial" font-size="14.00" fill="#666666">[tinyint(4)]</text>
<polygon fill="none" stroke="black" points="427.79,-135.6 427.79,-166.4 701.24,-166.4 701.24,-135.6 427.79,-135.6"/>
<text text-anchor="start" x="434.79" y="-147.8" font-family="Arial" font-size="14.00">name </text>
<text text-anchor="start" x="473.7" y="-147.8" font-family="Arial" font-size="14.00" fill="#666666">[varchar(32)]</text>
<polygon fill="none" stroke="black" points="427.79,-104.8 427.79,-135.6 701.24,-135.6 701.24,-104.8 427.79,-104.8"/>
<text text-anchor="start" x="434.79" y="-117" font-family="Arial" font-size="14.00">active </text>
<text text-anchor="start" x="475.25" y="-117" font-family="Arial" font-size="14.00" fill="#666666">[tinyint(1)]</text>
</g>
<!-- v2_game_videos&#45;&gt;game_video_types -->
<g id="edge3" class="edge">
<title>v2_game_videos:video_type_id&#45;&gt;game_video_types:id</title>
<path fill="none" stroke="black" d="M523.89,-464.52C549.57,-455.6 525.92,-408.24 512.74,-373.6 492.29,-319.85 448.23,-329.75 427.79,-276 412.9,-236.87 384.92,-181.8 426.79,-181.8"/>
<polygon fill="black" stroke="black" points="523.97,-464.51 513.43,-461.5 518.69,-465.28 514.41,-465.9 514.41,-465.9 514.41,-465.9 518.69,-465.28 514.72,-470.4 523.97,-464.51"/>
<text text-anchor="start" x="520.74" y="-476" font-family="Arial" font-size="10.00">FOREIGN KEY (video_type_id) REFERENCES game_video_types (id)</text>
</g>
<!-- v2_game_versions -->
<g id="node2" class="node">
<title>v2_game_versions</title>
<polygon fill="#efefef" stroke="none" points="245.78,-950.4 245.78,-986 519.24,-986 519.24,-950.4 245.78,-950.4"/>
<polygon fill="none" stroke="black" points="245.78,-950.4 245.78,-986 519.24,-986 519.24,-950.4 245.78,-950.4"/>
<text text-anchor="start" x="252.78" y="-963.8" font-family="Arial Bold" font-size="18.00">v2_game_versions</text>
<text text-anchor="start" x="387.75" y="-963.8" font-family="Arial" font-size="14.00">    </text>
<text text-anchor="start" x="418.87" y="-963.8" font-family="Arial" font-size="14.00" fill="#666666">[BASE TABLE]</text>
<polygon fill="none" stroke="black" points="245.78,-919.6 245.78,-950.4 519.24,-950.4 519.24,-919.6 245.78,-919.6"/>
<text text-anchor="start" x="252.78" y="-931.8" font-family="Arial" font-size="14.00">id </text>
<text text-anchor="start" x="267.57" y="-931.8" font-family="Arial" font-size="14.00" fill="#666666">[varchar(36)]</text>
<polygon fill="none" stroke="black" points="245.78,-888.8 245.78,-919.6 519.24,-919.6 519.24,-888.8 245.78,-888.8"/>
<text text-anchor="start" x="252.78" y="-901" font-family="Arial" font-size="14.00">game_id </text>
<text text-anchor="start" x="310.37" y="-901" font-family="Arial" font-size="14.00" fill="#666666">[varchar(36)]</text>
<polygon fill="none" stroke="black" points="245.78,-858 245.78,-888.8 519.24,-888.8 519.24,-858 245.78,-858"/>
<text text-anchor="start" x="252.78" y="-870.2" font-family="Arial" font-size="14.00">game_image_id </text>
<text text-anchor="start" x="356.29" y="-870.2" font-family="Arial" font-size="14.00" fill="#666666">[varchar(36)]</text>
<polygon fill="none" stroke="black" points="245.78,-827.2 245.78,-858 519.24,-858 519.24,-827.2 245.78,-827.2"/>
<text text-anchor="start" x="252.78" y="-839.4" font-family="Arial" font-size="14.00">game_video_id </text>
<text text-anchor="start" x="351.63" y="-839.4" font-family="Arial" font-size="14.00" fill="#666666">[varchar(36)]</text>
<polygon fill="none" stroke="black" points="245.78,-796.4 245.78,-827.2 519.24,-827.2 519.24,-796.4 245.78,-796.4"/>
<text text-anchor="start" x="252.78" y="-808.6" font-family="Arial" font-size="14.00">name </text>
<text text-anchor="start" x="291.69" y="-808.6" font-family="Arial" font-size="14.00" fill="#666666">[varchar(32)]</text>
<polygon fill="none" stroke="black" points="245.78,-765.6 245.78,-796.4 519.24,-796.4 519.24,-765.6 245.78,-765.6"/>
<text text-anchor="start" x="252.78" y="-777.8" font-family="Arial" font-size="14.00">description </text>
<text text-anchor="start" x="324.37" y="-777.8" font-family="Arial" font-size="14.00" fill="#666666">[text]</text>
<polygon fill="none" stroke="black" points="245.78,-734.8 245.78,-765.6 519.24,-765.6 519.24,-734.8 245.78,-734.8"/>
<text text-anchor="start" x="252.78" y="-747" font-family="Arial" font-size="14.00">created_at </text>
<text text-anchor="start" x="322.83" y="-747" font-family="Arial" font-size="14.00" fill="#666666">[datetime]</text>
<polygon fill="none" stroke="black" points="245.78,-704 245.78,-734.8 519.24,-734.8 519.24,-704 245.78,-704"/>
<text text-anchor="start" x="252.78" y="-716.2" font-family="Arial" font-size="14.00">url </text>
<text text-anchor="start" x="272.23" y="-716.2" font-family="Arial" font-size="14.00" fill="#666666">[text]</text>
</g>
<!-- v2_game_versions&#45;&gt;v2_game_videos -->
<g id="edge1" class="edge">
<title>v2_game_versions:game_video_id&#45;&gt;v2_game_videos:id</title>
<path fill="none" stroke="black" d="M530.63,-842C659.86,-826.81 650.22,-527.6 513.74,-527.6"/>
<polygon fill="black" stroke="black" points="530.56,-842 520.32,-838.09 525.24,-842.31 520.91,-842.56 520.91,-842.56 520.91,-842.56 525.24,-842.31 520.84,-847.07 530.56,-842"/>
<text text-anchor="start" x="527.24" y="-852.6" font-family="Arial" font-size="10.00">FOREIGN KEY (game_video_id) REFERENCES v2_game_videos (id)</text>
</g>
</g>
</svg>
