<?xml version="1.0" encoding="UTF-8" standalone="no"?>
<!DOCTYPE svg PUBLIC "-//W3C//DTD SVG 1.1//EN"
 "http://www.w3.org/Graphics/SVG/1.1/DTD/svg11.dtd">
<!-- Generated by graphviz version 12.1.2 (20240928.0832)
 -->
<!-- Title: v2_game_versions Pages: 1 -->
<svg width="1683pt" height="1191pt"
 viewBox="0.00 0.00 1682.82 1191.20" xmlns="http://www.w3.org/2000/svg" xmlns:xlink="http://www.w3.org/1999/xlink">
<g id="graph0" class="graph" transform="scale(1 1) rotate(0) translate(4 1187.2)">
<title>v2_game_versions</title>
<polygon fill="white" stroke="none" points="-4,4 -4,-1187.2 1678.82,-1187.2 1678.82,4 -4,4"/>
<!-- v2_game_versions -->
<g id="node1" class="node">
<title>v2_game_versions</title>
<polygon fill="#efefef" stroke="none" points="690.18,-666.2 690.18,-701.8 963.65,-701.8 963.65,-666.2 690.18,-666.2"/>
<polygon fill="none" stroke="black" points="690.18,-666.2 690.18,-701.8 963.65,-701.8 963.65,-666.2 690.18,-666.2"/>
<text text-anchor="start" x="697.18" y="-679.6" font-family="Arial Bold" font-size="18.00">v2_game_versions</text>
<text text-anchor="start" x="832.16" y="-679.6" font-family="Arial" font-size="14.00">    </text>
<text text-anchor="start" x="863.27" y="-679.6" font-family="Arial" font-size="14.00" fill="#666666">[BASE TABLE]</text>
<polygon fill="none" stroke="black" points="690.18,-635.4 690.18,-666.2 963.65,-666.2 963.65,-635.4 690.18,-635.4"/>
<text text-anchor="start" x="697.18" y="-647.6" font-family="Arial" font-size="14.00">id </text>
<text text-anchor="start" x="711.97" y="-647.6" font-family="Arial" font-size="14.00" fill="#666666">[varchar(36)]</text>
<polygon fill="none" stroke="black" points="690.18,-604.6 690.18,-635.4 963.65,-635.4 963.65,-604.6 690.18,-604.6"/>
<text text-anchor="start" x="697.18" y="-616.8" font-family="Arial" font-size="14.00">game_id </text>
<text text-anchor="start" x="754.78" y="-616.8" font-family="Arial" font-size="14.00" fill="#666666">[varchar(36)]</text>
<polygon fill="none" stroke="black" points="690.18,-573.8 690.18,-604.6 963.65,-604.6 963.65,-573.8 690.18,-573.8"/>
<text text-anchor="start" x="697.18" y="-586" font-family="Arial" font-size="14.00">game_image_id </text>
<text text-anchor="start" x="800.69" y="-586" font-family="Arial" font-size="14.00" fill="#666666">[varchar(36)]</text>
<polygon fill="none" stroke="black" points="690.18,-543 690.18,-573.8 963.65,-573.8 963.65,-543 690.18,-543"/>
<text text-anchor="start" x="697.18" y="-555.2" font-family="Arial" font-size="14.00">game_video_id </text>
<text text-anchor="start" x="796.03" y="-555.2" font-family="Arial" font-size="14.00" fill="#666666">[varchar(36)]</text>
<polygon fill="none" stroke="black" points="690.18,-512.2 690.18,-543 963.65,-543 963.65,-512.2 690.18,-512.2"/>
<text text-anchor="start" x="697.18" y="-524.4" font-family="Arial" font-size="14.00">name </text>
<text text-anchor="start" x="736.09" y="-524.4" font-family="Arial" font-size="14.00" fill="#666666">[varchar(32)]</text>
<polygon fill="none" stroke="black" points="690.18,-481.4 690.18,-512.2 963.65,-512.2 963.65,-481.4 690.18,-481.4"/>
<text text-anchor="start" x="697.18" y="-493.6" font-family="Arial" font-size="14.00">description </text>
<text text-anchor="start" x="768.78" y="-493.6" font-family="Arial" font-size="14.00" fill="#666666">[text]</text>
<polygon fill="none" stroke="black" points="690.18,-450.6 690.18,-481.4 963.65,-481.4 963.65,-450.6 690.18,-450.6"/>
<text text-anchor="start" x="697.18" y="-462.8" font-family="Arial" font-size="14.00">created_at </text>
<text text-anchor="start" x="767.23" y="-462.8" font-family="Arial" font-size="14.00" fill="#666666">[datetime]</text>
<polygon fill="none" stroke="black" points="690.18,-419.8 690.18,-450.6 963.65,-450.6 963.65,-419.8 690.18,-419.8"/>
<text text-anchor="start" x="697.18" y="-432" font-family="Arial" font-size="14.00">url </text>
<text text-anchor="start" x="716.63" y="-432" font-family="Arial" font-size="14.00" fill="#666666">[text]</text>
<polygon fill="none" stroke="black" stroke-width="3" points="688.68,-418.3 688.68,-703.3 965.15,-703.3 965.15,-418.3 688.68,-418.3"/>
</g>
<!-- games -->
<g id="node6" class="node">
<title>games</title>
<polygon fill="#efefef" stroke="none" points="347.12,-258.8 347.12,-294.4 590.71,-294.4 590.71,-258.8 347.12,-258.8"/>
<polygon fill="none" stroke="black" points="347.12,-258.8 347.12,-294.4 590.71,-294.4 590.71,-258.8 347.12,-258.8"/>
<text text-anchor="start" x="383.68" y="-272.2" font-family="Arial Bold" font-size="18.00">games</text>
<text text-anchor="start" x="429.66" y="-272.2" font-family="Arial" font-size="14.00">    </text>
<text text-anchor="start" x="460.78" y="-272.2" font-family="Arial" font-size="14.00" fill="#666666">[BASE TABLE]</text>
<polygon fill="none" stroke="black" points="347.12,-228 347.12,-258.8 590.71,-258.8 590.71,-228 347.12,-228"/>
<text text-anchor="start" x="354.12" y="-240.2" font-family="Arial" font-size="14.00">id </text>
<text text-anchor="start" x="368.9" y="-240.2" font-family="Arial" font-size="14.00" fill="#666666">[varchar(36)]</text>
<polygon fill="none" stroke="black" points="347.12,-197.2 347.12,-228 590.71,-228 590.71,-197.2 347.12,-197.2"/>
<text text-anchor="start" x="354.12" y="-209.4" font-family="Arial" font-size="14.00">name </text>
<text text-anchor="start" x="393.03" y="-209.4" font-family="Arial" font-size="14.00" fill="#666666">[varchar(256)]</text>
<polygon fill="none" stroke="black" points="347.12,-166.4 347.12,-197.2 590.71,-197.2 590.71,-166.4 347.12,-166.4"/>
<text text-anchor="start" x="354.12" y="-178.6" font-family="Arial" font-size="14.00">description </text>
<text text-anchor="start" x="425.71" y="-178.6" font-family="Arial" font-size="14.00" fill="#666666">[text]</text>
<polygon fill="none" stroke="black" points="347.12,-135.6 347.12,-166.4 590.71,-166.4 590.71,-135.6 347.12,-135.6"/>
<text text-anchor="start" x="354.12" y="-147.8" font-family="Arial" font-size="14.00">created_at </text>
<text text-anchor="start" x="424.16" y="-147.8" font-family="Arial" font-size="14.00" fill="#666666">[datetime]</text>
<polygon fill="none" stroke="black" points="347.12,-104.8 347.12,-135.6 590.71,-135.6 590.71,-104.8 347.12,-104.8"/>
<text text-anchor="start" x="354.12" y="-117" font-family="Arial" font-size="14.00">deleted_at </text>
<text text-anchor="start" x="423.4" y="-117" font-family="Arial" font-size="14.00" fill="#666666">[datetime]</text>
<polygon fill="none" stroke="black" points="347.12,-74 347.12,-104.8 590.71,-104.8 590.71,-74 347.12,-74"/>
<text text-anchor="start" x="354.12" y="-86.2" font-family="Arial" font-size="14.00">visibility_type_id </text>
<text text-anchor="start" x="459.16" y="-86.2" font-family="Arial" font-size="14.00" fill="#666666">[tinyint(4)]</text>
<polygon fill="none" stroke="black" points="347.12,-43.2 347.12,-74 590.71,-74 590.71,-43.2 347.12,-43.2"/>
<text text-anchor="start" x="354.12" y="-55.4" font-family="Arial" font-size="14.00">latest_version_updated_at </text>
<text text-anchor="start" x="522.24" y="-55.4" font-family="Arial" font-size="14.00" fill="#666666">[datetime]</text>
</g>
<!-- v2_game_versions&#45;&gt;games -->
<g id="edge5" class="edge">
<title>v2_game_versions:game_id&#45;&gt;games:id</title>
<path fill="none" stroke="black" d="M679.34,-618.15C608.65,-589.74 674.62,-243.4 591.71,-243.4"/>
<polygon fill="black" stroke="black" points="679.03,-618.09 688.02,-624.36 684.27,-619.08 688.53,-619.88 688.53,-619.88 688.53,-619.88 684.27,-619.08 689.69,-615.52 679.03,-618.09"/>
<text text-anchor="start" x="444.9" y="-630" font-family="Arial" font-size="10.00">FOREIGN KEY (game_id) REFERENCES games (id)</text>
</g>
<!-- v2_game_images -->
<g id="node7" class="node">
<title>v2_game_images</title>
<polygon fill="#efefef" stroke="none" points="694.69,-212.6 694.69,-248.2 959.14,-248.2 959.14,-212.6 694.69,-212.6"/>
<polygon fill="none" stroke="black" points="694.69,-212.6 694.69,-248.2 959.14,-248.2 959.14,-212.6 694.69,-212.6"/>
<text text-anchor="start" x="701.69" y="-226" font-family="Arial Bold" font-size="18.00">v2_game_images</text>
<text text-anchor="start" x="827.65" y="-226" font-family="Arial" font-size="14.00">    </text>
<text text-anchor="start" x="858.77" y="-226" font-family="Arial" font-size="14.00" fill="#666666">[BASE TABLE]</text>
<polygon fill="none" stroke="black" points="694.69,-181.8 694.69,-212.6 959.14,-212.6 959.14,-181.8 694.69,-181.8"/>
<text text-anchor="start" x="701.69" y="-194" font-family="Arial" font-size="14.00">id </text>
<text text-anchor="start" x="716.47" y="-194" font-family="Arial" font-size="14.00" fill="#666666">[varchar(36)]</text>
<polygon fill="none" stroke="black" points="694.69,-151 694.69,-181.8 959.14,-181.8 959.14,-151 694.69,-151"/>
<text text-anchor="start" x="701.69" y="-163.2" font-family="Arial" font-size="14.00">game_id </text>
<text text-anchor="start" x="759.28" y="-163.2" font-family="Arial" font-size="14.00" fill="#666666">[varchar(36)]</text>
<polygon fill="none" stroke="black" points="694.69,-120.2 694.69,-151 959.14,-151 959.14,-120.2 694.69,-120.2"/>
<text text-anchor="start" x="701.69" y="-132.4" font-family="Arial" font-size="14.00">image_type_id </text>
<text text-anchor="start" x="796.64" y="-132.4" font-family="Arial" font-size="14.00" fill="#666666">[tinyint(4)]</text>
<polygon fill="none" stroke="black" points="694.69,-89.4 694.69,-120.2 959.14,-120.2 959.14,-89.4 694.69,-89.4"/>
<text text-anchor="start" x="701.69" y="-101.6" font-family="Arial" font-size="14.00">created_at </text>
<text text-anchor="start" x="771.74" y="-101.6" font-family="Arial" font-size="14.00" fill="#666666">[datetime]</text>
</g>
<!-- v2_game_versions&#45;&gt;v2_game_images -->
<g id="edge6" class="edge">
<title>v2_game_versions:game_image_id&#45;&gt;v2_game_images:id</title>
<path fill="none" stroke="black" d="M973.13,-583.66C1007.38,-536.01 1000.64,-197.2 960.14,-197.2"/>
<polygon fill="black" stroke="black" points="973.3,-583.55 962.46,-585.25 968.83,-586.46 965.21,-588.83 965.21,-588.83 965.21,-588.83 968.83,-586.46 967.39,-592.78 973.3,-583.55"/>
<text text-anchor="start" x="971.65" y="-599.2" font-family="Arial" font-size="10.00">FOREIGN KEY (game_image_id) REFERENCES v2_game_images (id)</text>
</g>
<!-- v2_game_videos -->
<g id="node8" class="node">
<title>v2_game_videos</title>
<polygon fill="#efefef" stroke="none" points="1063.68,-212.6 1063.68,-248.2 1324.15,-248.2 1324.15,-212.6 1063.68,-212.6"/>
<polygon fill="none" stroke="black" points="1063.68,-212.6 1063.68,-248.2 1324.15,-248.2 1324.15,-212.6 1063.68,-212.6"/>
<text text-anchor="start" x="1070.68" y="-226" font-family="Arial Bold" font-size="18.00">v2_game_videos</text>
<text text-anchor="start" x="1192.66" y="-226" font-family="Arial" font-size="14.00">    </text>
<text text-anchor="start" x="1223.78" y="-226" font-family="Arial" font-size="14.00" fill="#666666">[BASE TABLE]</text>
<polygon fill="none" stroke="black" points="1063.68,-181.8 1063.68,-212.6 1324.15,-212.6 1324.15,-181.8 1063.68,-181.8"/>
<text text-anchor="start" x="1070.68" y="-194" font-family="Arial" font-size="14.00">id </text>
<text text-anchor="start" x="1085.47" y="-194" font-family="Arial" font-size="14.00" fill="#666666">[varchar(36)]</text>
<polygon fill="none" stroke="black" points="1063.68,-151 1063.68,-181.8 1324.15,-181.8 1324.15,-151 1063.68,-151"/>
<text text-anchor="start" x="1070.68" y="-163.2" font-family="Arial" font-size="14.00">game_id </text>
<text text-anchor="start" x="1128.28" y="-163.2" font-family="Arial" font-size="14.00" fill="#666666">[varchar(36)]</text>
<polygon fill="none" stroke="black" points="1063.68,-120.2 1063.68,-151 1324.15,-151 1324.15,-120.2 1063.68,-120.2"/>
<text text-anchor="start" x="1070.68" y="-132.4" font-family="Arial" font-size="14.00">video_type_id </text>
<text text-anchor="start" x="1160.97" y="-132.4" font-family="Arial" font-size="14.00" fill="#666666">[tinyint(4)]</text>
<polygon fill="none" stroke="black" points="1063.68,-89.4 1063.68,-120.2 1324.15,-120.2 1324.15,-89.4 1063.68,-89.4"/>
<text text-anchor="start" x="1070.68" y="-101.6" font-family="Arial" font-size="14.00">created_at </text>
<text text-anchor="start" x="1140.73" y="-101.6" font-family="Arial" font-size="14.00" fill="#666666">[datetime]</text>
</g>
<!-- v2_game_versions&#45;&gt;v2_game_videos -->
<g id="edge7" class="edge">
<title>v2_game_versions:game_video_id&#45;&gt;v2_game_videos:id</title>
<path fill="none" stroke="black" d="M974.55,-556.46C1042.23,-528.03 983.09,-197.2 1062.68,-197.2"/>
<polygon fill="black" stroke="black" points="974.79,-556.41 964.11,-553.92 969.55,-557.44 965.3,-558.27 965.3,-558.27 965.3,-558.27 969.55,-557.44 965.84,-562.75 974.79,-556.41"/>
<text text-anchor="start" x="971.65" y="-568.4" font-family="Arial" font-size="10.00">FOREIGN KEY (game_video_id) REFERENCES v2_game_videos (id)</text>
</g>
<!-- edition_game_version_relations -->
<g id="node2" class="node">
<title>edition_game_version_relations</title>
<polygon fill="#efefef" stroke="none" points="43.2,-996.6 43.2,-1032.2 412.63,-1032.2 412.63,-996.6 43.2,-996.6"/>
<polygon fill="none" stroke="black" points="43.2,-996.6 43.2,-1032.2 412.63,-1032.2 412.63,-996.6 43.2,-996.6"/>
<text text-anchor="start" x="50.2" y="-1010" font-family="Arial Bold" font-size="18.00">edition_game_version_relations</text>
<text text-anchor="start" x="281.14" y="-1010" font-family="Arial" font-size="14.00">    </text>
<text text-anchor="start" x="312.26" y="-1010" font-family="Arial" font-size="14.00" fill="#666666">[BASE TABLE]</text>
<polygon fill="none" stroke="black" points="43.2,-965.8 43.2,-996.6 412.63,-996.6 412.63,-965.8 43.2,-965.8"/>
<text text-anchor="start" x="50.2" y="-978" font-family="Arial" font-size="14.00">edition_id </text>
<text text-anchor="start" x="114.03" y="-978" font-family="Arial" font-size="14.00" fill="#666666">[varchar(36)]</text>
<polygon fill="none" stroke="black" points="43.2,-935 43.2,-965.8 412.63,-965.8 412.63,-935 43.2,-935"/>
<text text-anchor="start" x="50.2" y="-947.2" font-family="Arial" font-size="14.00">game_version_id </text>
<text text-anchor="start" x="160.71" y="-947.2" font-family="Arial" font-size="14.00" fill="#666666">[varchar(36)]</text>
</g>
<!-- edition_game_version_relations&#45;&gt;v2_game_versions -->
<g id="edge1" class="edge">
<title>edition_game_version_relations:game_version_id&#45;&gt;v2_game_versions:id</title>
<path fill="none" stroke="black" d="M423.92,-949.66C484.09,-940.19 419.38,-841.84 464.92,-784 536.62,-692.91 573.25,-650.8 689.18,-650.8"/>
<polygon fill="black" stroke="black" points="423.94,-949.66 413.64,-945.89 418.62,-950.04 414.3,-950.35 414.3,-950.35 414.3,-950.35 418.62,-950.04 414.29,-954.86 423.94,-949.66"/>
<text text-anchor="start" x="420.63" y="-960.4" font-family="Arial" font-size="10.00">FOREIGN KEY (game_version_id) REFERENCES v2_game_versions (id)</text>
</g>
<!-- game_feedbacks -->
<g id="node3" class="node">
<title>game_feedbacks</title>
<polygon fill="#efefef" stroke="none" points="516.7,-1027.4 516.7,-1063 775.13,-1063 775.13,-1027.4 516.7,-1027.4"/>
<polygon fill="none" stroke="black" points="516.7,-1027.4 516.7,-1063 775.13,-1063 775.13,-1027.4 516.7,-1027.4"/>
<text text-anchor="start" x="523.7" y="-1040.8" font-family="Arial Bold" font-size="18.00">game_feedbacks</text>
<text text-anchor="start" x="643.64" y="-1040.8" font-family="Arial" font-size="14.00">    </text>
<text text-anchor="start" x="674.76" y="-1040.8" font-family="Arial" font-size="14.00" fill="#666666">[BASE TABLE]</text>
<polygon fill="none" stroke="black" points="516.7,-996.6 516.7,-1027.4 775.13,-1027.4 775.13,-996.6 516.7,-996.6"/>
<text text-anchor="start" x="523.7" y="-1008.8" font-family="Arial" font-size="14.00">id </text>
<text text-anchor="start" x="538.49" y="-1008.8" font-family="Arial" font-size="14.00" fill="#666666">[varchar(36)]</text>
<polygon fill="none" stroke="black" points="516.7,-965.8 516.7,-996.6 775.13,-996.6 775.13,-965.8 516.7,-965.8"/>
<text text-anchor="start" x="523.7" y="-978" font-family="Arial" font-size="14.00">game_version_id </text>
<text text-anchor="start" x="634.21" y="-978" font-family="Arial" font-size="14.00" fill="#666666">[varchar(36)]</text>
<polygon fill="none" stroke="black" points="516.7,-935 516.7,-965.8 775.13,-965.8 775.13,-935 516.7,-935"/>
<text text-anchor="start" x="523.7" y="-947.2" font-family="Arial" font-size="14.00">comment </text>
<text text-anchor="start" x="585.16" y="-947.2" font-family="Arial" font-size="14.00" fill="#666666">[text]</text>
<polygon fill="none" stroke="black" points="516.7,-904.2 516.7,-935 775.13,-935 775.13,-904.2 516.7,-904.2"/>
<text text-anchor="start" x="523.7" y="-916.4" font-family="Arial" font-size="14.00">created_at </text>
<text text-anchor="start" x="593.75" y="-916.4" font-family="Arial" font-size="14.00" fill="#666666">[datetime]</text>
</g>
<!-- game_feedbacks&#45;&gt;v2_game_versions -->
<g id="edge2" class="edge">
<title>game_feedbacks:game_version_id&#45;&gt;v2_game_versions:id</title>
<path fill="none" stroke="black" d="M786.09,-980.2C824.41,-971.51 791.06,-908.04 775.13,-861 754.98,-801.49 710.39,-807.49 690.18,-748 676.29,-707.09 645.98,-650.8 689.18,-650.8"/>
<polygon fill="black" stroke="black" points="786.41,-980.17 776.01,-976.69 781.1,-980.7 776.79,-981.13 776.79,-981.13 776.79,-981.13 781.1,-980.7 776.91,-985.64 786.41,-980.17"/>
<text text-anchor="start" x="440.13" y="-991.2" font-family="Arial" font-size="10.00">FOREIGN KEY (game_version_id) REFERENCES v2_game_versions (id)</text>
</g>
<!-- game_play_logs -->
<g id="node4" class="node">
<title>game_play_logs</title>
<polygon fill="#efefef" stroke="none" points="879.68,-1104.4 879.68,-1140 1136.15,-1140 1136.15,-1104.4 879.68,-1104.4"/>
<polygon fill="none" stroke="black" points="879.68,-1104.4 879.68,-1140 1136.15,-1140 1136.15,-1104.4 879.68,-1104.4"/>
<text text-anchor="start" x="886.68" y="-1117.8" font-family="Arial Bold" font-size="18.00">game_play_logs</text>
<text text-anchor="start" x="1004.66" y="-1117.8" font-family="Arial" font-size="14.00">    </text>
<text text-anchor="start" x="1035.78" y="-1117.8" font-family="Arial" font-size="14.00" fill="#666666">[BASE TABLE]</text>
<polygon fill="none" stroke="black" points="879.68,-1073.6 879.68,-1104.4 1136.15,-1104.4 1136.15,-1073.6 879.68,-1073.6"/>
<text text-anchor="start" x="886.68" y="-1085.8" font-family="Arial" font-size="14.00">id </text>
<text text-anchor="start" x="901.47" y="-1085.8" font-family="Arial" font-size="14.00" fill="#666666">[varchar(36)]</text>
<polygon fill="none" stroke="black" points="879.68,-1042.8 879.68,-1073.6 1136.15,-1073.6 1136.15,-1042.8 879.68,-1042.8"/>
<text text-anchor="start" x="886.68" y="-1055" font-family="Arial" font-size="14.00">edition_id </text>
<text text-anchor="start" x="950.51" y="-1055" font-family="Arial" font-size="14.00" fill="#666666">[varchar(36)]</text>
<polygon fill="none" stroke="black" points="879.68,-1012 879.68,-1042.8 1136.15,-1042.8 1136.15,-1012 879.68,-1012"/>
<text text-anchor="start" x="886.68" y="-1024.2" font-family="Arial" font-size="14.00">game_id </text>
<text text-anchor="start" x="944.28" y="-1024.2" font-family="Arial" font-size="14.00" fill="#666666">[varchar(36)]</text>
<polygon fill="none" stroke="black" points="879.68,-981.2 879.68,-1012 1136.15,-1012 1136.15,-981.2 879.68,-981.2"/>
<text text-anchor="start" x="886.68" y="-993.4" font-family="Arial" font-size="14.00">game_version_id </text>
<text text-anchor="start" x="997.19" y="-993.4" font-family="Arial" font-size="14.00" fill="#666666">[varchar(36)]</text>
<polygon fill="none" stroke="black" points="879.68,-950.4 879.68,-981.2 1136.15,-981.2 1136.15,-950.4 879.68,-950.4"/>
<text text-anchor="start" x="886.68" y="-962.6" font-family="Arial" font-size="14.00">start_time </text>
<text text-anchor="start" x="952.03" y="-962.6" font-family="Arial" font-size="14.00" fill="#666666">[datetime]</text>
<polygon fill="none" stroke="black" points="879.68,-919.6 879.68,-950.4 1136.15,-950.4 1136.15,-919.6 879.68,-919.6"/>
<text text-anchor="start" x="886.68" y="-931.8" font-family="Arial" font-size="14.00">end_time </text>
<text text-anchor="start" x="948.17" y="-931.8" font-family="Arial" font-size="14.00" fill="#666666">[datetime]</text>
<polygon fill="none" stroke="black" points="879.68,-888.8 879.68,-919.6 1136.15,-919.6 1136.15,-888.8 879.68,-888.8"/>
<text text-anchor="start" x="886.68" y="-901" font-family="Arial" font-size="14.00">created_at </text>
<text text-anchor="start" x="956.73" y="-901" font-family="Arial" font-size="14.00" fill="#666666">[datetime]</text>
<polygon fill="none" stroke="black" points="879.68,-858 879.68,-888.8 1136.15,-888.8 1136.15,-858 879.68,-858"/>
<text text-anchor="start" x="886.68" y="-870.2" font-family="Arial" font-size="14.00">updated_at </text>
<text text-anchor="start" x="960.64" y="-870.2" font-family="Arial" font-size="14.00" fill="#666666">[datetime]</text>
<polygon fill="none" stroke="black" points="879.68,-827.2 879.68,-858 1136.15,-858 1136.15,-827.2 879.68,-827.2"/>
<text text-anchor="start" x="886.68" y="-839.4" font-family="Arial" font-size="14.00">deleted_at </text>
<text text-anchor="start" x="955.97" y="-839.4" font-family="Arial" font-size="14.00" fill="#666666">[datetime]</text>
</g>
<!-- game_play_logs&#45;&gt;v2_game_versions -->
<g id="edge3" class="edge">
<title>game_play_logs:game_version_id&#45;&gt;v2_game_versions:id</title>
<path fill="none" stroke="black" d="M868.85,-993.57C834.92,-970.35 855.62,-820.31 879.68,-784 902.11,-750.15 941.12,-781.78 963.65,-748 987.61,-712.05 1007.85,-650.8 964.65,-650.8"/>
<polygon fill="black" stroke="black" points="868.81,-993.56 877.04,-1000.8 873.9,-995.13 878.04,-996.4 878.04,-996.4 878.04,-996.4 873.9,-995.13 879.69,-992.2 868.81,-993.56"/>
<text text-anchor="start" x="799.93" y="-980.6" font-family="Arial" font-size="10.00">FOREIGN KEY (game_version_id) REFERENCES v2_game_versions (id)</text>
</g>
<!-- game_version_game_file_relations -->
<g id="node5" class="node">
<title>game_version_game_file_relations</title>
<polygon fill="#efefef" stroke="none" points="1240.21,-996.6 1240.21,-1032.2 1631.62,-1032.2 1631.62,-996.6 1240.21,-996.6"/>
<polygon fill="none" stroke="black" points="1240.21,-996.6 1240.21,-1032.2 1631.62,-1032.2 1631.62,-996.6 1240.21,-996.6"/>
<text text-anchor="start" x="1247.21" y="-1010" font-family="Arial Bold" font-size="18.00">game_version_game_file_relations</text>
<text text-anchor="start" x="1500.13" y="-1010" font-family="Arial" font-size="14.00">    </text>
<text text-anchor="start" x="1531.24" y="-1010" font-family="Arial" font-size="14.00" fill="#666666">[BASE TABLE]</text>
<polygon fill="none" stroke="black" points="1240.21,-965.8 1240.21,-996.6 1631.62,-996.6 1631.62,-965.8 1240.21,-965.8"/>
<text text-anchor="start" x="1247.21" y="-978" font-family="Arial" font-size="14.00">game_version_id </text>
<text text-anchor="start" x="1357.72" y="-978" font-family="Arial" font-size="14.00" fill="#666666">[varchar(36)]</text>
<polygon fill="none" stroke="black" points="1240.21,-935 1240.21,-965.8 1631.62,-965.8 1631.62,-935 1240.21,-935"/>
<text text-anchor="start" x="1247.21" y="-947.2" font-family="Arial" font-size="14.00">game_file_id </text>
<text text-anchor="start" x="1330.49" y="-947.2" font-family="Arial" font-size="14.00" fill="#666666">[varchar(36)]</text>
</g>
<!-- game_version_game_file_relations&#45;&gt;v2_game_versions -->
<g id="edge4" class="edge">
<title>game_version_game_file_relations:game_version_id&#45;&gt;v2_game_versions:id</title>
<path fill="none" stroke="black" d="M1228.98,-980.58C1156.08,-971.05 1240.04,-853.47 1187.92,-784 1118.57,-691.57 1080.19,-650.8 964.65,-650.8"/>
<polygon fill="black" stroke="black" points="1228.9,-980.58 1238.61,-985.67 1234.22,-980.9 1238.55,-981.16 1238.55,-981.16 1238.55,-981.16 1234.22,-980.9 1239.15,-976.69 1228.9,-980.58"/>
<text text-anchor="start" x="1246.21" y="-991.2" font-family="Arial" font-size="10.00">FOREIGN KEY (game_version_id) REFERENCES v2_game_versions (id)</text>
</g>
</g>
</svg>
